<svg xmlns="http://www.w3.org/2000/svg" viewBox="0 0 60.36 64.52"><defs><style>.cls-1{fill:#5c8deb;}</style></defs><g id="Layer_2" data-name="Layer 2"><g id="Layer_1-2" data-name="Layer 1"><g id="B0Bnde.tif"><path class="cls-1" d="M59.71,49.34a11.2,11.2,0,0,0-9.3-7.6l-.46-.1v-.76q0-13,0-25.94a1.83,1.83,0,0,0-.59-1.43Q42.89,7.08,36.44.6C36.23.39,36,.2,35.77,0H0V64.52H50.08c.49-.1,1-.19,1.45-.3a11.46,11.46,0,0,0,8.71-9.54,3,3,0,0,1,.12-.43V51.9A24.59,24.59,0,0,0,59.71,49.34ZM36.47,3.85l9.66,9.66H36.47ZM2.13,62.41V2.1H34.34V13.94c0,1.43.24,1.67,1.65,1.67H47.84v26c-5,.79-8.58,3.47-9.94,8.45s.34,9.05,4.29,12.33Zm46.77,0a9.37,9.37,0,1,1,9.38-9.38A9.38,9.38,0,0,1,48.9,62.44Z"/><path class="cls-1" d="M15.61,38.34v0Z"/><path class="cls-1" d="M39.53,20.81a1,1,0,0,1-.9,1,3.75,3.75,0,0,1-.58,0H19.19a3.85,3.85,0,0,1-.59,0,1,1,0,0,1-.9-1,1,1,0,0,1,.9-1,2.89,2.89,0,0,1,.59,0H38.05a2.82,2.82,0,0,1,.58,0A1,1,0,0,1,39.53,20.81Z"/><path class="cls-1" d="M39.53,30.15a1,1,0,0,1-.87,1.05,3.4,3.4,0,0,1-.64,0H19.22a4.51,4.51,0,0,1-.52,0,1,1,0,0,1-1-1.06,1,1,0,0,1,1-1c.24,0,.48,0,.72,0H38.08a2.77,2.77,0,0,1,.58,0A1,1,0,0,1,39.53,30.15Z"/><path class="cls-1" d="M38.59,40.57a3.75,3.75,0,0,1-.58,0H19.21a3.5,3.5,0,0,1-.65,0,1,1,0,0,1-.86-1.06,1,1,0,0,1,.88-1,3.5,3.5,0,0,1,.65,0H38a3.84,3.84,0,0,1,.59,0,1,1,0,0,1,0,2Z"/><path class="cls-1" d="M15.6,18.8a1,1,0,0,0-1.1-1.1c-1.34,0-2.69,0-4,0a1,1,0,0,0-1.1,1.1c0,.67,0,1.34,0,2s0,1.35,0,2a1,1,0,0,0,1.1,1.1c1.35,0,2.69,0,4,0a1,1,0,0,0,1.1-1.1C15.62,21.48,15.62,20.14,15.6,18.8Zm-2.1,3h-2v-2h2Z"/><path class="cls-1" d="M15.6,28.17a1,1,0,0,0-1.09-1.11h-4a1,1,0,0,0-1.11,1.1c0,1.34,0,2.69,0,4a1,1,0,0,0,1.1,1.11c.67,0,1.34,0,2,0s1.35,0,2,0a1,1,0,0,0,1.1-1.1C15.62,30.85,15.62,29.51,15.6,28.17Zm-2.12,3h-2v-2h2Z"/><path class="cls-1" d="M15.61,38.34v-.77a1,1,0,0,0-1.13-1.14c-1.32,0-2.64,0-4,0a1,1,0,0,0-1.14,1.12c0,1.32,0,2.65,0,4a1,1,0,0,0,1.13,1.14q2,0,4,0c.76,0,1.13-.41,1.15-1.19V38.34Zm-2.13,2.2h-2v-2h2Z"/><path class="cls-1" d="M15.6,46.89a1,1,0,0,0-1.1-1.09c-1.35,0-2.69,0-4,0a1,1,0,0,0-1.1,1.1c0,1.34,0,2.69,0,4A1,1,0,0,0,10.48,52c1.34,0,2.68,0,4,0a1,1,0,0,0,1.09-1.11c0-.67,0-1.34,0-2S15.62,47.56,15.6,46.89Zm-2.1,3h-2v-2h2Z"/><path class="cls-1" d="M32.26,48.89c0,.66-.48,1.06-1.34,1.06H19c-.84,0-1.31-.37-1.32-1s.47-1.06,1.33-1.06H30.94C31.77,47.87,32.24,48.24,32.26,48.89Z"/><path class="cls-1" d="M55.67,49.87l-6.85,6.85c-.7.7-1.19.7-1.88,0L43.17,53c-.59-.6-.65-1.18-.18-1.65s1-.42,1.64.17c1.06,1,2.11,2.12,3.32,3.35a6.89,6.89,0,0,1,.57-.75q2.83-2.87,5.69-5.7c.6-.6,1.17-.67,1.65-.21S56.29,49.25,55.67,49.87Z"/></g></g></g></svg>