<svg xmlns="http://www.w3.org/2000/svg" viewBox="0 0 70.52 70.52"><defs><style>.cls-1{fill:#5c8deb;}</style></defs><g id="Layer_2" data-name="Layer 2"><g id="Layer_1-2" data-name="Layer 1"><g id="SNqJjv.tif"><path class="cls-1" d="M69.16,55.2c.63.21,1-.15,1.36-.66V51.65c0-.14-.11-.29-.15-.44a6.45,6.45,0,0,0-4.31-4.79c-1.9-.67-3.82-1.3-5.74-1.9a1,1,0,0,1-.83-1.07,2.31,2.31,0,0,1,1-2.17,6.88,6.88,0,0,0,2.75-5.4q.1-2.68,0-5.37a7.56,7.56,0,0,0-5.07-6.81,7.65,7.65,0,0,0-8.25,2l-.41.45c-.06,0-.13,0-.15,0a7.39,7.39,0,0,0-4.5-3.27c-1.73-.52-3.44-1.13-5.16-1.67-.38-.12-.45-.32-.49-.69a2.62,2.62,0,0,1,1.12-2.6A6.92,6.92,0,0,0,43,12.23a47.07,47.07,0,0,0-.13-5.7A7.48,7.48,0,0,0,36.61.13c-.13,0-.26-.09-.38-.13H34.3a17.59,17.59,0,0,0-3,1.14,7.28,7.28,0,0,0-3.74,6.41,48.45,48.45,0,0,0,.11,5.78,6.89,6.89,0,0,0,3,5,1.25,1.25,0,0,1,.6,1.18c0,1.48,0,1.49-1.4,1.94s-2.64.91-4,1.3a7.44,7.44,0,0,0-4.87,3.58,4.33,4.33,0,0,0-.4-.58,7.4,7.4,0,0,0-7.77-2.23,6.92,6.92,0,0,0-5.41,5.88,34.46,34.46,0,0,0,0,7.53,6.43,6.43,0,0,0,3,4.67A1.19,1.19,0,0,1,11,42.76c0,1.5,0,1.5-1.46,2s-3.08,1-4.63,1.51A6.57,6.57,0,0,0,.11,51.48a.45.45,0,0,1-.11.17v2.89c.31.51.73.87,1.36.66s.71-.75.71-1.34a12.22,12.22,0,0,1,.13-2.19,3.88,3.88,0,0,1,2.41-3.06c2.15-.84,4.36-1.52,6.54-2.26a4.06,4.06,0,0,0,7.56,0l1.21.38c1.59.53,3.18,1,4.76,1.58a4.44,4.44,0,0,1,2.84,2.71c-.72.24-1.42.5-2.13.72-3.4,1.1-5.05,3.32-5.08,6.89,0,.22,0,.44,0,.7H7.9c0-.76,0-1.51,0-2.26s-.37-1.29-1-1.3-1.05.47-1.06,1.32,0,1.45,0,2.23H2.1c0-.58-.17-1.12-.84-1.29s-.93.23-1.26.62v2.06a1.37,1.37,0,0,0,1.42.73H20.31v1c0,2.15,0,4.31,0,6.46a1.74,1.74,0,0,0,.64,1.56H49.59a2.94,2.94,0,0,0,.49-2.84,1.25,1.25,0,0,0-.92-.55c-.33,0-.66.38-.94.65-.11.12-.08.39-.13.63H44.36V62.62c0-.8-.41-1.26-1.06-1.24s-1,.46-1,1.22c0,1.93,0,3.85,0,5.81H28.23V63.74c0-.41,0-.83,0-1.24a1.05,1.05,0,0,0-1.05-1.13,1,1,0,0,0-1,1.14c0,1.82,0,3.63,0,5.44,0,.14,0,.27,0,.46H22.43a3.19,3.19,0,0,1-.05-.42c0-3.23,0-6.47,0-9.7a4.45,4.45,0,0,1,3.26-4.43L31.33,52a.61.61,0,0,1,.19,0A4,4,0,0,0,39,51.91c2.18.74,4.38,1.39,6.5,2.23a3.93,3.93,0,0,1,2.57,3.61c.11,1.65.05,3.31.06,5a6.28,6.28,0,0,0,0,.75.94.94,0,0,0,1,.84.91.91,0,0,0,1-.8,6.38,6.38,0,0,0,0-1.31c-.05-.56.14-.74.72-.74,4,0,8,0,12,0,2.07,0,4.13,0,6.2,0a1.34,1.34,0,0,0,1.35-.74V58.68c-.35-.4-.7-.8-1.32-.6s-.75.68-.77,1.28H64.68c0-.75,0-1.5,0-2.24a1.41,1.41,0,0,0-.28-.94,1.2,1.2,0,0,0-1-.29,1.42,1.42,0,0,0-.71.94,21,21,0,0,0,0,2.52H50.17c0-.57,0-1.11,0-1.65A6.4,6.4,0,0,0,45.91,52c-.94-.37-1.91-.65-2.9-1a4,4,0,0,1,2.38-2.53c2.1-.77,4.25-1.44,6.42-2.17a4,4,0,0,0,7.53,0c2.21.75,4.43,1.4,6.57,2.27a4.16,4.16,0,0,1,2.54,3.94c0,.43,0,.87,0,1.31C68.43,54.45,68.54,55,69.16,55.2ZM29.62,12.33c0-.8,0-1.61,0-2.41h-.05a27.46,27.46,0,0,1,.16-3.15,5.61,5.61,0,0,1,11.11.33,29.6,29.6,0,0,1-.09,6.1,5.46,5.46,0,0,1-6.07,4.57A5.64,5.64,0,0,1,29.62,12.33Zm7.58,7.45a19.9,19.9,0,0,1-.2,2.63,1.74,1.74,0,0,1-1.78,1.24,1.77,1.77,0,0,1-1.75-1.39,23.34,23.34,0,0,1-.14-2.48ZM25.05,25.3c2.12-.8,4.28-1.46,6.42-2.18a4,4,0,0,0,7.54,0l2.39.78c1.19.39,2.39.77,3.59,1.18a4.45,4.45,0,0,1,3,3.22,3.09,3.09,0,0,1,.09.68q-.09,3.47-.2,6.93a.87.87,0,0,1-.06.23H43a7.81,7.81,0,0,0-3.18-5.85A7.52,7.52,0,0,0,35,28.81a7.84,7.84,0,0,0-7.47,7.34H22.66v-.87c-.07-2.06-.12-4.12-.23-6.18A4.27,4.27,0,0,1,25.05,25.3ZM16.77,45.38a1.78,1.78,0,0,1-1.87,1.49,1.86,1.86,0,0,1-1.81-1.57,4.24,4.24,0,0,1,0-.62V43h3.72A20.6,20.6,0,0,1,16.77,45.38ZM14.46,41A5.57,5.57,0,0,1,9.35,35.8a51.86,51.86,0,0,1,0-5.29,5.61,5.61,0,0,1,11.19-.06c.07.88,0,1.78,0,2.68h.13a28.25,28.25,0,0,1-.31,3.69A5.55,5.55,0,0,1,14.46,41Zm15.32,9.28-.24.08-.27-.54a6.46,6.46,0,0,0-3.84-3.44q-3-1-5.93-1.94c-.49-.15-.69-.39-.61-.88v-.07a2.2,2.2,0,0,1,1-2.29,15.1,15.1,0,0,0,2-2.56c.13-.16.31-.39.47-.39,1.69,0,3.38,0,5.26,0a35.43,35.43,0,0,0,0,3.87,7,7,0,0,0,3.09,5.07,1.15,1.15,0,0,1,.54,1.07C31.28,49.85,31.3,49.85,29.78,50.31Zm7.27.7a1.76,1.76,0,0,1-1.76,1.45A1.81,1.81,0,0,1,33.46,51c-.12-.8-.09-1.63-.13-2.43h3.75A18,18,0,0,1,37.05,51Zm-2.38-4.44a5.62,5.62,0,0,1-5-5.38,40.09,40.09,0,0,1,.13-5.7,5.5,5.5,0,0,1,5.92-4.61,5.66,5.66,0,0,1,5.22,5.51c0,.78,0,1.56,0,2.34H41A30,30,0,0,1,40.77,42,5.56,5.56,0,0,1,34.67,46.57ZM50,44.79c-1.31.42-2.6.91-3.92,1.28a7,7,0,0,0-5,4.25c-.08,0-.12,0-.16,0-1.83-.55-1.88-.61-1.64-2.5a.91.91,0,0,1,.36-.51A7.75,7.75,0,0,0,43,40.7V38.26c1.78,0,3.47,0,5.16,0a.66.66,0,0,1,.43.34,8.16,8.16,0,0,0,2.73,3.21.93.93,0,0,1,.33.6C51.72,44.23,51.71,44.23,50,44.79Zm7.43.56a1.87,1.87,0,0,1-3.69-.16c0-.72,0-1.45,0-2.16h3.71A22.51,22.51,0,0,1,57.41,45.35ZM55.1,41A5.55,5.55,0,0,1,50,35.88a46.84,46.84,0,0,1,0-5.43,5.61,5.61,0,0,1,11.19.05c0,.9,0,1.79,0,2.69h.11A25,25,0,0,1,61,36.88,5.56,5.56,0,0,1,55.1,41Z"/></g></g></g></svg>