<svg xmlns="http://www.w3.org/2000/svg" viewBox="0 0 68.04 63.33"><defs><style>.cls-1{fill:#5c8deb;}</style></defs><g id="Layer_2" data-name="Layer 2"><g id="Layer_1-2" data-name="Layer 1"><g id="_5KnwvU.tif" data-name="5KnwvU.tif"><path class="cls-1" d="M67.94,30.51a4.15,4.15,0,0,0-4.34-3.27H60.53c-1-2-1.79-2.48-4-2.48H53.58v-.83c0-2.57,0-5.14,0-7.71a1.51,1.51,0,0,0-.86-1.49Q40.22,7.53,27.72.28a1.64,1.64,0,0,0-1.85,0Q13.53,7.46,1.16,14.58c-.4.24-.77.54-1.16.82V46a6.6,6.6,0,0,0,.88.72q12.5,7.24,25,14.46a1.65,1.65,0,0,0,1.9,0c4.09-2.39,8.21-4.75,12.32-7.11.23-.14.47-.27.82-.46V59A4.08,4.08,0,0,0,44,63.2a1.59,1.59,0,0,1,.22.13H64.74a15.28,15.28,0,0,0,1.83-1A4.38,4.38,0,0,0,68,59.89V30.69A1.62,1.62,0,0,1,67.94,30.51ZM57.17,26.7a1.44,1.44,0,1,1,0,2.88c-.89,0-1.79,0-2.68,0s-1.79,0-2.68,0a1.42,1.42,0,0,1-1.54-1.47A1.4,1.4,0,0,1,51.8,26.7Q54.49,26.67,57.17,26.7ZM4.31,15q11-6.33,21.91-12.67a1,1,0,0,1,1.18,0C30.56,4.17,33.75,6,36.92,7.83c.18.1.35.21.6.37l-.68.41q-11.3,6.53-22.57,13.05a1.07,1.07,0,0,1-1.23,0c-3.32-2-6.67-3.87-10.14-5.87ZM25.89,58.44c0,.11,0,.22,0,.45L19,55,2.47,45.41a.85.85,0,0,1-.56-.82q0-13.32,0-26.65a3.58,3.58,0,0,1,0-.4,6.09,6.09,0,0,1,.57.28L25.36,31a.84.84,0,0,1,.55.82Q25.88,45.11,25.89,58.44ZM27.38,29.3a1,1,0,0,1-1.11,0c-3.33-1.94-6.67-3.86-10-5.79l-.64-.39c.22-.14.38-.26.55-.36Q27.58,16.18,39,9.61a1,1,0,0,1,.84-.07c3.55,2,7.08,4.06,10.61,6.11a1.77,1.77,0,0,1,.22.19l-8.7,5Q34.67,25.09,27.38,29.3Zm13.53,2.24q0,9.57,0,19.13a1,1,0,0,1-.59,1q-5.91,3.39-11.79,6.81l-.67.36c0-.23-.05-.4-.05-.56V31.86a.79.79,0,0,1,.42-.83q11.52-6.64,23-13.33l.34-.17v7.19a3.54,3.54,0,0,0-3.17,2.52H45.2A4.13,4.13,0,0,0,40.91,31.54Zm25.2,27.61a2.14,2.14,0,0,1-2.26,2.25H45.06a2.14,2.14,0,0,1-2.22-2.35c0-4.59,0-9.17,0-13.76V31.72a2.24,2.24,0,0,1,2.52-2.55c.46,0,.92,0,1.38,0,1-.07,1.83-.07,2.38,1.08a2.63,2.63,0,0,0,2.47,1.26c1.9,0,3.81,0,5.71,0a3.12,3.12,0,0,0,2.92-1.85.71.71,0,0,1,.77-.49c.94,0,1.88,0,2.82,0a2.21,2.21,0,0,1,2.3,2.3Q66.13,45.32,66.11,59.15Z"/><path class="cls-1" d="M51.65,44.6a1,1,0,0,0-1.1-1.1H46.28a1,1,0,0,0-1.1,1.1q0,2.13,0,4.26A1,1,0,0,0,46.28,50h4.26a1,1,0,0,0,1.11-1.11Q51.66,46.73,51.65,44.6Zm-2,3.42H47.15V45.46h2.52Z"/><path class="cls-1" d="M51.26,55c-.56.47-1.19.19-1.62-.71h-2.5v2.54l.66.2.12.12c.16.49.36,1-.14,1.39a2.24,2.24,0,0,1-2,.16c-.55-.16-.57-.7-.57-1.21,0-1.3,0-2.61,0-3.92,0-.89.35-1.23,1.26-1.24h4c.57,0,1.07.17,1.17.74S51.9,54.44,51.26,55Z"/><path class="cls-1" d="M51.23,37c-.26.16-.86.23-1,.07-.58-.69-1.32-.47-2-.5H47.13v2.54a4.13,4.13,0,0,1,.56.26A.92.92,0,0,1,48,40.57c-.21.55-1.05.78-2,.56a1,1,0,0,1-.8-1c0-1.44,0-2.89,0-4.33a1,1,0,0,1,1.06-1.07c1.45,0,2.89,0,4.33,0a.93.93,0,0,1,1,.73C51.7,36,51.84,36.66,51.23,37Z"/><path class="cls-1" d="M54.23,37.25Q52.52,39,50.78,40.7a.92.92,0,0,1-1.41,0q-.78-.72-1.5-1.5a1,1,0,1,1,1.34-1.36,11.47,11.47,0,0,1,.8.94c1-1,1.89-1.93,2.81-2.83a1,1,0,0,1,1.5,0A.91.91,0,0,1,54.23,37.25Z"/><path class="cls-1" d="M54.26,55q-1.73,1.77-3.49,3.5a.93.93,0,0,1-1.41,0c-.48-.44-1-.9-1.44-1.36L47.8,57c-.28-.53-.4-1.09.18-1.46,1.06-.67,1.43.51,2.16.91.88-.88,1.75-1.79,2.64-2.67a1,1,0,0,1,1.59,0A.89.89,0,0,1,54.26,55Z"/><path class="cls-1" d="M63.75,38c0,.58-.45,1-1.19,1H56.94c-.74,0-1.16-.38-1.16-1S56.21,37,57,37h5.63C63.31,37,63.76,37.42,63.75,38Z"/><path class="cls-1" d="M63.75,46.8c0,.58-.45,1-1.18,1-1.87,0-3.75,0-5.63,0-.73,0-1.16-.37-1.16-1s.43-.95,1.17-1c.94,0,1.88,0,2.81,0s1.88,0,2.82,0C63.3,45.85,63.75,46.23,63.75,46.8Z"/><path class="cls-1" d="M63.75,55.6c0,.58-.44,1-1.16,1-1,0-1.92,0-2.88,0s-1.88,0-2.82,0c-.69,0-1.1-.38-1.11-.95s.4-1,1.09-1h5.76A1,1,0,0,1,63.75,55.6Z"/></g></g></g></svg>