<svg xmlns="http://www.w3.org/2000/svg" viewBox="0 0 57.25 57.25"><defs><style>.cls-1{fill:#5c8deb;}</style></defs><g id="Layer_2" data-name="Layer 2"><g id="Layer_1-2" data-name="Layer 1"><g id="rGEoc6.tif"><path class="cls-1" d="M56,51.15q-3.21-13.33-6.4-26.69a1.89,1.89,0,0,1,.07-1c.87-2.52,1.77-5,2.65-7.53a.79.79,0,0,0-.52-1.11c-.48-.16-.87,0-1.07.61-.85,2.38-1.7,4.77-2.53,7.15-.17.47-.41.81-1,.74s-.89-.58-.66-1.26q1.09-3.12,2.21-6.26c.73-2.08,1.47-4.17,2.2-6.26.3-.85.14-1.17-.72-1.47L46.92,6.88c-.57-.21-.77-.56-.63-1.07a.78.78,0,0,1,1.08-.57q2.68.93,5.36,1.9a.82.82,0,0,1,.52,1.17c-.31.91-.64,1.82-1,2.74-.23.64-.07,1.07.44,1.24s.9,0,1.13-.69.5-1.56.83-2.31a2.74,2.74,0,0,0-1.51-3.83c.13-.38.25-.78.39-1.18C54.36,2.07,54,1,51.88,0H50.76c-1.87.49-2.12,2.2-2.67,3.67l-.37-.1a2.33,2.33,0,0,0-2.6.95A2.31,2.31,0,0,0,45,7.37c.73.72.47,1.31.19,2A2.5,2.5,0,0,0,45,9.9c-.08.5-.35.62-.84.62h-32c-1,0-1.14.13-1.37,1.09Q8.24,22,5.74,32.38l-2.4,10c-.17.74.32,1.29,1,1.14.49-.12.59-.52.68-.92l6.18-25.78c.38-1.56.75-3.1,1.13-4.65H44.15c-.07.2-.12.38-.18.55l-8.47,24a26.85,26.85,0,0,0-1.2,3.65c-.33,1.75-.43,3.54-.63,5.32a.89.89,0,0,0,.63,1l.45.18c0,.06,0,.1,0,.13-.13.41-.28.81-.42,1.22-.25.72-.11,1.14.44,1.33s.88-.06,1.13-.75c.16-.45.33-.89.48-1.33,1.25.3,1.27.29,2-.77s1.49-2.31,2.21-3.49A6,6,0,0,0,41.16,42q2.9-8.13,5.74-16.26c.2-.56.44-.86,1.11-.73q3.66,15.21,7.33,30.51H1.91c.14-.57.26-1.09.39-1.61.44-1.83.88-3.66,1.3-5.49a.8.8,0,0,0-.86-1c-.52,0-.69.37-.79.8-.35,1.46-.7,2.93-1.06,4.39C.61,53.73.3,54.87,0,56v1.23H57.25V56.13C56.84,54.47,56.42,52.82,56,51.15ZM50.39,2.28a1,1,0,0,1,1.19-.55,1,1,0,0,1,.68,1.18c-.19.67-.44,1.33-.68,2l-1.91-.67C49.92,3.56,50.12,2.91,50.39,2.28ZM36.92,45.8c-.08,0-.1,0-.11,0-1.37-.41-1.38-.41-1.25-1.83.07-.76.17-1.52.25-2.28,0,0,0-.06.1-.17L39,42.62Zm8.55-21Q43.24,31.18,41,37.55L39.72,41.1l-3.53-1.24,11-31.11,2.07.72c-.07.22-.12.41-.19.6-1.31,3.72-2.61,7.44-3.95,11.15a2.91,2.91,0,0,0,.37,3C45.57,24.34,45.53,24.63,45.47,24.82Z"/><path class="cls-1" d="M30.52,49.09a.94.94,0,0,1-.46.58,8.19,8.19,0,0,1-4,.57,2.55,2.55,0,0,1-2.15-1.72c-.17-.44-.33-.89-.52-1.4-.42.23-.78.45-1.15.64a11.59,11.59,0,0,1-1.5.74,1.63,1.63,0,0,1-2.35-1.59c0-.93.1-1.85.15-2.78,0-.65.07-1.3.06-2,0-.4-.26-.52-.53-.21a13.23,13.23,0,0,0-1.47,1.88c-1.12,1.8-2.19,3.64-3.27,5.46-.26.43-.58.68-1.1.47a.76.76,0,0,1-.44-1.14c1.6-2.53,3.23-5,4.86-7.55a2,2,0,0,1,.43-.44,1.88,1.88,0,0,1,2.11-.45A1.82,1.82,0,0,1,20.24,42c0,1.38-.1,2.75-.15,4.13,0,.22,0,.44,0,.81.53-.3.95-.56,1.39-.78a8.8,8.8,0,0,1,1.58-.69,1.39,1.39,0,0,1,1.82.87,11.15,11.15,0,0,1,.46,1.26c.25.74.61,1.09,1.38,1a21.56,21.56,0,0,0,2.74-.49C30.16,48,30.68,48.41,30.52,49.09Z"/><path class="cls-1" d="M38.5,19.94a.74.74,0,0,1-.72.77,4.28,4.28,0,0,1-.62,0H18a2.89,2.89,0,0,1-.66,0,.82.82,0,0,1,0-1.57,2.88,2.88,0,0,1,.72-.06H37.24a3.38,3.38,0,0,1,.55,0A.75.75,0,0,1,38.5,19.94Z"/><path class="cls-1" d="M35.25,27.64a2.9,2.9,0,0,1-.66.06H16.65c-.65,0-1-.35-1-.88s.37-.79,1-.79c3,0,6.08,0,9.11,0s6,0,9,0a1.35,1.35,0,0,1,.92.36A.77.77,0,0,1,35.25,27.64Z"/><path class="cls-1" d="M33,34.56a1.77,1.77,0,0,1-.65.09H15.18a.85.85,0,0,1-.87-.9.82.82,0,0,1,.91-.77h17.2a1.49,1.49,0,0,1,.79.19A.8.8,0,0,1,33,34.56Z"/></g></g></g></svg>