<svg xmlns="http://www.w3.org/2000/svg" viewBox="0 0 66.67 73.91"><defs><style>.cls-1{fill:#5c8deb;}</style></defs><g id="Layer_2" data-name="Layer 2"><g id="Layer_1-2" data-name="Layer 1"><g id="xMo8kq.tif"><path class="cls-1" d="M64,0l-1.1.07c-1.52.32-3,.67-4.56,1A42.84,42.84,0,0,0,42,8.1a47.12,47.12,0,0,0-9,8.55,2.23,2.23,0,0,1-1.91.89A20.73,20.73,0,0,0,16.25,23.1c-3.48,3.31-6.57,7-9.71,10.69a2.87,2.87,0,0,0,1.64,4.5,9.9,9.9,0,0,0,1.21.22l5.21.86c.2,1,.37,1.87.57,2.85-.83.52-1.75,1.07-2.64,1.67a2.82,2.82,0,0,0-.79,4.19,48.59,48.59,0,0,0,4.18,3.79.89.89,0,0,0,1.25-.15.93.93,0,0,0,.1-1.31,3.11,3.11,0,0,0-.48-.48c-1-.93-2.11-1.84-3.15-2.78-.57-.52-.59-1.12,0-1.51.92-.62,1.88-1.19,2.77-1.74L29.07,55c-.41.89-.83,1.83-1.27,2.76s-1,1-1.69.34c-1.18-1-2.34-2.07-3.51-3.1-.73-.63-1.42-1.32-2.2-1.88A1.4,1.4,0,0,0,19.22,53a1.21,1.21,0,0,0-.5.94,1.57,1.57,0,0,0,.56.89c1.8,1.61,3.61,3.19,5.42,4.78a3,3,0,0,0,5-1.06c.41-.87.81-1.74,1.17-2.53l2.9.2c.56,1.87,1.13,3.75,1.67,5.64a3,3,0,0,0,5.39,1.21c2.32-2.67,4.72-5.27,7-8A28.67,28.67,0,0,0,51,50.49,21.53,21.53,0,0,0,53.33,37a1.64,1.64,0,0,1,.48-1.53c.6-.6,1.15-1.25,1.69-1.91A1,1,0,0,0,54,32.17c-.16.16-.31.34-.46.51l-17.57,20a3.91,3.91,0,0,1-5.8.5Q24,47.73,17.94,42.27a3.7,3.7,0,0,1-.93-1.4,3.79,3.79,0,0,1,.83-4l5.46-6.2a5.32,5.32,0,0,0,.92-1.11,1.43,1.43,0,0,0,0-1.13,1.22,1.22,0,0,0-1-.44,1.4,1.4,0,0,0-.82.53q-3.09,3.48-6.15,7a8,8,0,0,0-1,1.42.55.55,0,0,1-.7.34C12.82,37,11,36.7,9.16,36.35c-.37-.07-.89-.34-1-.64a1.49,1.49,0,0,1,.36-1.13c2.25-2.6,4.55-5.17,6.81-7.76a20.41,20.41,0,0,1,11.05-6.7c1.23-.28,2.49-.4,3.74-.59l.07.21-4.05,4.59c-.39.45-.8.89-1.17,1.35a1,1,0,0,0,.08,1.43,1,1,0,0,0,1.42,0,6.2,6.2,0,0,0,.42-.46q4.59-5.22,9.19-10.44A41,41,0,0,1,51.35,5.27,62.5,62.5,0,0,1,63.44,2.13c.68-.13,1.14.33,1.12,1.05s-.1,1.28-.14,1.92a52.39,52.39,0,0,1-1.27,9.73A40.67,40.67,0,0,1,56.8,28.62c-.47.68-.41,1.25.12,1.63a1.06,1.06,0,0,0,1.54-.4A42.22,42.22,0,0,0,66.28,8.2c.12-1.55.26-3.1.39-4.65l-.09-1.37A3.49,3.49,0,0,0,64,0ZM36.09,55.22a11.69,11.69,0,0,0,1.52-1.38q6.62-7.48,13.2-15l.62-.67a20.85,20.85,0,0,1-1.75,10.37,20.3,20.3,0,0,1-3.36,5.18l-7,7.9c-.31.36-.6.71-1.15.6s-.66-.57-.79-1c-.52-1.75-1-3.51-1.58-5.26A.56.56,0,0,1,36.09,55.22Z"/><path class="cls-1" d="M14.39,53.2a1.92,1.92,0,0,1-.37.49Q8,60.49,2.07,67.26c-.76.86-1.27.85-2,0l0-.69c.2-.25.38-.51.59-.74L12.41,52.41a2.48,2.48,0,0,1,.48-.49,1,1,0,0,1,1.5,1.28Z"/><path class="cls-1" d="M21.64,59.45a3.5,3.5,0,0,1-.51.64L9.7,73.06c-.25.29-.54.54-.82.82l-.55,0c-1-.56-1.11-1.15-.35-2L19.77,58.52a2.35,2.35,0,0,1,.38-.39,1,1,0,0,1,1.32.07A.94.94,0,0,1,21.64,59.45Z"/><path class="cls-1" d="M49.92,11.43a6.72,6.72,0,1,0,7.13,6.32A6.74,6.74,0,0,0,49.92,11.43Zm.7,11.35A4.65,4.65,0,1,1,55,17.87,4.68,4.68,0,0,1,50.62,22.78Z"/><path class="cls-1" d="M18.06,56.32a3.71,3.71,0,0,1-.39.48q-6,6.8-12,13.58a6.24,6.24,0,0,1-.78.66c-1,0-1.52-.77-1.17-1.48A3,3,0,0,1,4.15,69l12-13.64a3.59,3.59,0,0,1,.39-.39,1,1,0,0,1,1.51,1.33Z"/><path class="cls-1" d="M31.54,47.75c0,1-.71,1.51-1.4,1.2a2.2,2.2,0,0,1-.56-.4l-6.81-6a2.73,2.73,0,0,1-.35-.33,1,1,0,0,1,1.35-1.51,2.76,2.76,0,0,1,.37.31c2.28,2,4.55,4,6.81,6A4.68,4.68,0,0,1,31.54,47.75Z"/><path class="cls-1" d="M28,41.79a1,1,0,0,1-1.53,0,21.43,21.43,0,0,1-1.94-1.75A1.42,1.42,0,0,1,24.24,39c.07-.3.47-.53.76-.81a5.15,5.15,0,0,1,.94.46c.64.52,1.26,1.08,1.86,1.63A1.07,1.07,0,0,1,28,41.79Z"/></g></g></g></svg>