<svg xmlns="http://www.w3.org/2000/svg" viewBox="0 0 98.38 97.61"><defs><style>.cls-1{fill:#cd872c;}</style></defs><g id="Layer_2" data-name="Layer 2"><g id="Layer_1-2" data-name="Layer 1"><path class="cls-1" d="M98.27,45.71a47.7,47.7,0,0,0-3.9-16.06,48.4,48.4,0,0,0-9.7-14.46A49.43,49.43,0,0,0,60.07,1.24,47,47,0,0,0,47.35,0,51.25,51.25,0,0,0,27.57,5a45.9,45.9,0,0,0-12.16,8.34A54.16,54.16,0,0,0,2.56,32.81,51.34,51.34,0,0,0,.05,46.35a.73.73,0,0,1,0,.2v3.68c0,.44.08.88.11,1.33a46.59,46.59,0,0,0,4,16.37C5,69.87,6,71.74,7,73.64l-1.8,8.18C4.12,86.72,3.05,91.62,2,96.57c.47-.09.92-.17,1.36-.27L25,91.48a.74.74,0,0,1,.58.07,54.61,54.61,0,0,0,12.48,4.74,46.72,46.72,0,0,0,9.27,1.29,49.59,49.59,0,0,0,21.23-4A47.56,47.56,0,0,0,83,84.22a49.11,49.11,0,0,0,14.62-27,46.5,46.5,0,0,0,.7-6.55,1,1,0,0,1,0-.24V47.1C98.34,46.63,98.3,46.17,98.27,45.71Zm-5.8,4.54c-.53,12.58-6,23.39-16.22,32.36a50,50,0,0,1-21.41,8.73,41.32,41.32,0,0,1-19.17-1.86,52,52,0,0,1-9.46-4.31c-5.45,1.27-10.93,2.47-16.4,3.7l-.15,0,.43-2c.9-4.12,1.81-8.24,2.7-12.36a5.37,5.37,0,0,0-.72-3.89A47.89,47.89,0,0,1,7.61,60.47a42.49,42.49,0,0,1-1.69-10.2,40.44,40.44,0,0,1,5.72-22.73,45.78,45.78,0,0,1,7.29-9.44A41,41,0,0,1,33.6,8.8,46.8,46.8,0,0,1,43.77,6.24a42,42,0,0,1,9.57-.16A43.79,43.79,0,0,1,79.47,18.3a42.78,42.78,0,0,1,11.7,20.08A40.26,40.26,0,0,1,92.47,50.25Z"/><path class="cls-1" d="M75.05,60.88c0,3.39-1,6.33-3.94,8.44-3.9,2.77-8,3-12.54,1.94C46.9,68.48,37.94,61.83,31,52.22c-2.4-3.32-4.89-6.62-6-10.64-.46-1.6-.69-3.26-1-4.9A15,15,0,0,1,28.82,26.1,4.56,4.56,0,0,1,32,24.83c4.1,0,4.12,0,5.7,3.7C38.83,31.16,40,33.78,41,36.45a3,3,0,0,1-.09,2.21,22.52,22.52,0,0,1-2.74,3.64c-1.37,1.54-1.46,1.81-.41,3.53A34.35,34.35,0,0,0,54.47,60.22c1.42.57,1.91.5,2.89-.67,1.23-1.48,2.45-3,3.64-4.49.92-1.17,1.41-1.44,2.74-.83Q69,56.66,74.23,59.31A2.08,2.08,0,0,1,75.05,60.88Z"/></g></g></svg>