<svg xmlns="http://www.w3.org/2000/svg" viewBox="0 0 115.76 82.61"><defs><style>.cls-1{fill:#cd872c;}</style></defs><g id="Layer_2" data-name="Layer 2"><g id="Layer_1-2" data-name="Layer 1"><g id="ZV8nCi.tif"><path class="cls-1" d="M112.74,64.49h-4.67v-1.7q0-27.13,0-54.27a8.13,8.13,0,0,0-3.14-6.93A8.61,8.61,0,0,0,99.49,0H16.05C10.48,0,7.34,3.17,7.34,8.77V64.49H2.93C-3.4,64.52.7,81,13.58,82.61h88.25a33.38,33.38,0,0,0,5.57-1.85,14.92,14.92,0,0,0,8.35-13.14C115.86,65.53,114.85,64.52,112.74,64.49ZM12.54,63V8.71c0-2.76.74-3.49,3.51-3.49h83.3c2.78,0,3.52.73,3.52,3.49v55.7H12.54Zm94.48,12a9.82,9.82,0,0,1-6.33,2.42c-.89,0-1.77,0-2.65,0H15.61a10.31,10.31,0,0,1-9.95-6,7.88,7.88,0,0,1-.41-1,3.7,3.7,0,0,1-.07-.56h105A9.4,9.4,0,0,1,107,74.94Z"/><path class="cls-1" d="M79.39,31.71C78,19.81,66,11,54.17,13.21,42,15.45,34.36,26,36,38.28,37.42,48.56,47,56.84,57.4,56.74c1.72,0,2.83-1,2.85-2.5s-1-2.53-2.75-2.63a23.22,23.22,0,0,1-3.13-.33,16.74,16.74,0,0,1-13.3-14.2c-.82-7.72,3-14.61,9.88-17.59a16.79,16.79,0,0,1,19.41,4.34,16.45,16.45,0,0,1,4.12,10.69,3.86,3.86,0,0,1-7.59,1.3,9.19,9.19,0,0,1-.15-1.5,9,9,0,1,0-14.27,7.91c2.64,1.87,7.35,2.82,11.71-1l.62.51a9,9,0,0,0,14.71-5.52A16.66,16.66,0,0,0,79.39,31.71Zm-21.62,7c-3.11.06-5.47-3.77-2.63-7,3.26-1.91,6.39.11,6.41,3.07A3.9,3.9,0,0,1,57.77,38.73Z"/></g></g></g></svg>