<svg xmlns="http://www.w3.org/2000/svg" viewBox="0 0 140.7 97.19"><defs><style>.cls-1{fill:#cd872c;}</style></defs><g id="Layer_2" data-name="Layer 2"><g id="Layer_1-2" data-name="Layer 1"><g id="woXr66.tif"><path class="cls-1" d="M139.18,97.19H0V69.06a3.22,3.22,0,0,1,2.79-1.78,9.15,9.15,0,0,0,8.79-9.18A9.28,9.28,0,0,0,3,48.66C.79,48.46.26,47.91.26,45.71V21.59c0-2.05.47-2.59,2.52-2.9L35.1,13.83q18-2.73,36.11-5.44l37.16-5.52C114.66,1.94,121,1,127.24.09c2.38-.34,3,.21,3.33,2.59s.62,4.49,1,6.73c.45,3.07.92,6.13,1.4,9.28h4.83c2.26,0,2.93.68,2.94,2.89V45.7c0,2.2-.57,2.79-2.75,2.95a9.35,9.35,0,0,0,0,18.65c2,.15,2.71.85,2.71,2.89,0,8,0,16,0,24A3.3,3.3,0,0,1,139.18,97.19ZM4.53,44.68l.84.19A13.61,13.61,0,0,1,15.93,58,13.48,13.48,0,0,1,5.53,71.12a1.2,1.2,0,0,0-1.07,1.41c0,6.51,0,13,0,19.54a6.76,6.76,0,0,0,.13,1h97c0-1.75-.09-3.42,0-5.08a3.46,3.46,0,0,1,.95-2.16,2.08,2.08,0,0,1,2-.17,3.3,3.3,0,0,1,1.26,2.1,52.22,52.22,0,0,1,.06,5.32H136.4a2.19,2.19,0,0,0,.13-.48c0-6.76,0-13.52,0-20.28,0-.89-.47-1-1.15-1.18A13.15,13.15,0,0,1,125.28,58a13.4,13.4,0,0,1,10.15-13.12c1-.28,1.31-.68,1.3-1.68,0-6.32,0-12.63,0-18.95,0-.43-.05-.86-.08-1.35H106c0,1.71,0,3.32,0,4.94,0,1.81-.77,2.75-2.18,2.73s-2-.91-2.06-2.68,0-3.23,0-4.89H4.53Zm94-36.06c.28,1.93.56,3.63.77,5.34.19,1.44-.55,2.51-1.79,2.56a2,2,0,0,1-2.29-1.82c-.3-1.79-.57-3.58-.87-5.49L32.2,18.51v.14h96.53c-.72-4.77-1.41-9.43-2.12-14.18Z"/><path class="cls-1" d="M52.63,53.63H28.07a6.61,6.61,0,0,1-1.61-.13,2.09,2.09,0,0,1,.09-4.06,7.83,7.83,0,0,1,1.61-.11H78c1.57.07,2.5.86,2.52,2.12s-1,2.17-2.62,2.17Q65.27,53.65,52.63,53.63Z"/><path class="cls-1" d="M52.7,75.61H77.26a6.73,6.73,0,0,1,1.62.1,2,2,0,0,1,1.64,2.15,2,2,0,0,1-1.7,1.95,8,8,0,0,1-1.47.1H28.09a7.32,7.32,0,0,1-1.33-.07,2,2,0,0,1-1.86-2.11,2,2,0,0,1,1.92-2.09,8.29,8.29,0,0,1,1.32,0Z"/><path class="cls-1" d="M52.79,62.51h24.4a10.46,10.46,0,0,1,1.48,0,2.09,2.09,0,0,1,.07,4.14,9.12,9.12,0,0,1-1.48,0H28.16c-2.25,0-3.25-.64-3.27-2.08s1-2.14,3.2-2.14Z"/><path class="cls-1" d="M40,36.2c4,0,8.09,0,12.14,0,1.8,0,2.69.68,2.69,2s-.94,2.12-2.64,2.12H27.59c-1.75,0-2.7-.73-2.7-2s1-2.12,2.8-2.12C31.79,36.19,35.88,36.2,40,36.2Z"/><path class="cls-1" d="M105.91,45.93c0,2.12,0,4.24,0,6.36,0,1.72-.82,2.61-2.19,2.58s-2.1-.95-2.11-2.65q0-6.22,0-12.43c0-1.76.83-2.75,2.21-2.73s2.07.93,2.09,2.66C105.93,41.79,105.91,43.86,105.91,45.93Z"/><path class="cls-1" d="M101.61,70.11c0-2.07,0-4.14,0-6.22,0-1.65.83-2.66,2.12-2.69s2.17.95,2.18,2.61q0,6.36,0,12.71c0,1.57-.85,2.53-2.1,2.55s-2.17-1-2.18-2.61C101.59,74.35,101.61,72.23,101.61,70.11Z"/></g></g></g></svg>