<svg xmlns="http://www.w3.org/2000/svg" viewBox="0 0 100.03 99.31"><defs><style>.cls-1{fill:#f8a94e;}</style></defs><g id="Layer_2" data-name="Layer 2"><g id="Layer_1-2" data-name="Layer 1"><g id="Bex4fH.tif"><path class="cls-1" d="M99.36,46.11c1-1.41.89-2.3-.46-3.43-2.77-2.32-5.55-4.63-8.29-7a1.57,1.57,0,0,1-.48-1.21c.49-3.6,1-7.2,1.59-10.8.24-1.57-.28-2.43-1.83-2.77-3.53-.79-7-1.57-10.58-2.31a1.47,1.47,0,0,1-1.26-1.11c-1.12-3.36-2.3-6.69-3.47-10-.61-1.74-1.4-2.15-3.2-1.66C68,6.72,64.6,7.63,61.23,8.6a1.54,1.54,0,0,1-1.71-.44C57,5.71,54.34,3.31,51.74.89,50.46-.3,49.56-.3,48.27.9,45.63,3.37,43,5.82,40.35,8.3A1.26,1.26,0,0,1,39,8.63c-3.44-1-6.89-1.9-10.34-2.84-1.81-.5-2.57-.1-3.19,1.67-1.17,3.35-2.35,6.68-3.47,10a1.46,1.46,0,0,1-1.26,1.11Q15.36,19.74,10,20.93a2,2,0,0,0-1.77,2.56q.81,5.45,1.65,10.9a1.25,1.25,0,0,1-.48,1.34q-4.11,3.39-8.15,6.84A12.72,12.72,0,0,0,0,44v1.17c2.31,3.18,4.6,6.37,6.94,9.53a1.55,1.55,0,0,1,.24,1.75c-1.36,3.2-2.66,6.43-4,9.65-.77,1.86-.48,2.63,1.32,3.51,3.18,1.56,6.35,3.14,9.54,4.67a1.32,1.32,0,0,1,.85,1.24c.29,3.6.63,7.19,1,10.79.17,1.74.81,2.27,2.54,2.23,3.55-.08,7.09-.15,10.64-.29a1.53,1.53,0,0,1,1.58.79c1.9,3,3.86,6,5.8,8.92,1,1.47,1.82,1.7,3.35.84,3.13-1.73,6.25-3.47,9.36-5.25a1.4,1.4,0,0,1,1.59,0C53.85,95.32,57,97,60,98.77c1.59.89,2.52.66,3.52-.88,1.94-3,3.9-5.93,5.81-8.91a1.38,1.38,0,0,1,1.42-.72c3.64.13,7.29.21,10.93.29a2,2,0,0,0,2.32-2c.37-3.66.75-7.32,1.08-11A1.3,1.3,0,0,1,86,74.3c3.19-1.53,6.37-3.11,9.54-4.67,1.79-.89,2.08-1.66,1.32-3.53-1.31-3.18-2.59-6.38-4-9.55a1.68,1.68,0,0,1,.26-1.92C95.25,51.81,97.3,49,99.36,46.11ZM88.54,56.39c1.29,3.06,2.53,6.13,3.79,9.2.12.29.23.6.37,1l-6.15,3c-1.2.59-2.38,1.22-3.6,1.75a2.5,2.5,0,0,0-1.63,2.31c-.25,3-.55,6-.84,9,0,.57-.12,1.15-.19,1.71-1.89,0-3.7,0-5.52,0s-3.45-.05-5.17-.16a2.83,2.83,0,0,0-2.82,1.48c-1.87,3-3.81,5.9-5.78,8.92-.27-.14-.53-.25-.77-.38-2.87-1.59-5.76-3.15-8.6-4.8a2.89,2.89,0,0,0-3.19,0c-3.07,1.76-6.18,3.45-9.36,5.22-.22-.31-.42-.59-.61-.88-1.77-2.73-3.57-5.44-5.31-8.19a2.63,2.63,0,0,0-2.58-1.36c-3.26.12-6.51.16-9.76.24H19.73c-.2-2-.39-3.89-.58-5.82-.15-1.65-.33-3.3-.45-5A2.58,2.58,0,0,0,17,71.31c-2.91-1.37-5.78-2.83-8.67-4.25l-1-.53,2.9-7.15c.4-1,.78-2,1.22-3a2.43,2.43,0,0,0-.31-2.64c-2-2.63-3.89-5.3-5.82-8-.22-.28-.42-.58-.67-.94l5.59-4.72c.89-.76,1.77-1.54,2.69-2.25a2.66,2.66,0,0,0,1-2.83c-.53-3.28-1-6.56-1.47-9.85a7.44,7.44,0,0,1,0-.82l9.33-2.06c.41-.09.83-.19,1.24-.26a2.52,2.52,0,0,0,2.12-1.89c1.15-3.38,2.35-6.75,3.57-10.25l4.32,1.15c2.1.57,4.21,1.12,6.29,1.74A2.44,2.44,0,0,0,42,12.18c2.41-2.28,4.85-4.53,7.28-6.79.23-.22.48-.42.77-.68l6.66,6.21c2.73,2.54,2.15,2.36,5.63,1.43,2.73-.73,5.45-1.49,8.18-2.23.21-.06.44-.09.73-.15l2.17,6.17c.46,1.32,1,2.62,1.37,4a2.67,2.67,0,0,0,2.33,2c3.28.68,6.55,1.42,9.81,2.14.19,0,.37.1.66.18-.24,1.69-.47,3.36-.71,5q-.44,3-.88,5.89a2.37,2.37,0,0,0,.92,2.4c2.81,2.33,5.58,4.69,8.44,7.1L94.51,46c-1.87,2.57-3.74,5.16-5.65,7.72A2.45,2.45,0,0,0,88.54,56.39Z"/><path class="cls-1" d="M50,17.41a33.05,33.05,0,1,0,33.05,33.1A33,33,0,0,0,50,17.41Zm0,62.13a29.08,29.08,0,1,1,29.13-29A29.14,29.14,0,0,1,50,79.54Z"/><path class="cls-1" d="M66.43,41.42c-1.54,1.8-3.12,3.58-4.68,5.37L45.84,64.91c-1.48,1.68-2.45,1.7-4.05.1L29.52,52.7a6.66,6.66,0,0,1-.71-.8,2,2,0,0,1,2.73-2.74,5,5,0,0,1,.8.72q5.28,5.28,10.55,10.58a9.23,9.23,0,0,1,.72.93l4.31-4.91C53,50.71,58,44.93,63.13,39.17a3.27,3.27,0,0,1,1.38-1,1.76,1.76,0,0,1,2.12.81A1.88,1.88,0,0,1,66.43,41.42Z"/></g></g></g></svg>