<svg xmlns="http://www.w3.org/2000/svg" viewBox="0 0 120.55 120.55"><defs><style>.cls-1{fill:#f8a94e;}</style></defs><g id="Layer_2" data-name="Layer 2"><g id="Layer_1-2" data-name="Layer 1"><g id="pkktmT.tif"><path class="cls-1" d="M118.39,71.64Q109.77,57,101.15,42.34c-.9-1.52-1.7-1.85-3.06-1.17C94.32,43,90.57,45,86.83,46.87a1.93,1.93,0,0,0-.87,3c.47.87,1,1.72,1.5,2.6a19.92,19.92,0,0,1-11.06-.12,23.39,23.39,0,0,0-10.7-.65c-6.1,1.24-12.16,2.71-18.24,4a4.35,4.35,0,0,1-1.9,0A22.52,22.52,0,0,1,34.65,49.5a1,1,0,0,1-.22-1.34c1-1.83.71-2.6-1.17-3.56-3.35-1.71-6.71-3.4-10.07-5.1-2.17-1.09-2.82-.89-4,1.2L.67,74.14a10.33,10.33,0,0,1-.67,1v1.46A14.14,14.14,0,0,0,1.89,78c3.2,1.65,6.42,3.24,9.64,4.85,2.4,1.2,2.63,1.15,4.27-.78,1.13,2.67,2.27,5.33,3.36,8a1,1,0,0,1-.12.78,6.86,6.86,0,0,0,5.77,10.36,2.88,2.88,0,0,1,.45.13,7,7,0,0,0,8.4,7.56,7.21,7.21,0,0,0,2.67,4.61,6.87,6.87,0,0,0,5.14,1.24,6.68,6.68,0,0,0,3.14,4.81,22.55,22.55,0,0,0,2.3,1H50.8a9.94,9.94,0,0,0,4.53-2.65c.15-.18.66-.16,1-.07,7.46,2.3,14.14,1,20-4.18a2,2,0,0,1,1.08-.39,12.5,12.5,0,0,0,10.3-6,6.63,6.63,0,0,1,3-2.77,8.86,8.86,0,0,0,4-3.78,9.36,9.36,0,0,1,3.12-3.42,7.49,7.49,0,0,0,2.87-9,1.51,1.51,0,0,1,.45-2c1.31-1.2,2.55-2.48,3.9-3.8,1.07,1.5,2.34,1.18,3.77.42,3.22-1.71,6.5-3.28,9.72-5a14.07,14.07,0,0,0,2-1.47V75.1C119.83,74,119.08,72.81,118.39,71.64ZM12.82,79.1,4.63,75,22.19,43.36l8.18,4.15ZM27.39,96.34a3.27,3.27,0,0,1-4.39.23c-1.28-1.12-1.37-2.77-.21-4.34.81-1.11,1.62-2.21,2.47-3.3a3.37,3.37,0,0,1,3.89-1.14c1.25.44,2,1.59,2.24,3.31A15.29,15.29,0,0,1,30,93.66,23.74,23.74,0,0,1,27.39,96.34ZM35,103.93a3.65,3.65,0,0,1-4.09.92c-1.37-.59-1.85-1.72-2-3.26A9,9,0,0,1,30.1,99.2c2.18-2.34,4.46-4.57,6.74-6.81a3.28,3.28,0,0,1,3.81-.56,2.74,2.74,0,0,1,1.42,3.07,3.25,3.25,0,0,1-.6,1.29Q38.29,100.09,35,103.93Zm7.68,5.91a8.66,8.66,0,0,1-2.08,1.28,3.39,3.39,0,0,1-2.73-1.7,2.58,2.58,0,0,1,.17-3c2.25-2.78,4.51-5.53,6.85-8.21A2.87,2.87,0,0,1,49,98.07a2.82,2.82,0,0,1,.28,3.94C47.13,104.66,45,107.28,42.72,109.84Zm9.78,5.3c-.82,1.18-1.9,1.54-3.64,1.5-.28,0-.57,0-.85,0A2.79,2.79,0,0,1,46,112.11c2.2-2.65,4.39-5.3,6.62-7.93a4,4,0,0,1,4.59-.62A2.42,2.42,0,0,1,58,107Q55.32,111.1,52.5,115.14ZM95.55,94.26a3.85,3.85,0,0,1-4.46,0c-3.66-2.31-7.31-4.65-11-7L75,84,72.84,87.3,91.17,98.91c-1.3,2.78-5.19,3.94-8.42,2.23-3.58-1.89-7.12-3.86-10.67-5.79L69,93.68c-.65,1.21-1.23,2.26-1.87,3.44,5.62,3,11.13,6,16.65,8.9-1.05,2.06-4.68,3.79-7.63,3.23a13.55,13.55,0,0,1-3.93-1.48c-2.3-1.29-4.49-2.76-6.72-4.15a1.43,1.43,0,0,0-.32-.07l-2,3.19,8.74,5.45a16,16,0,0,1-14,2c1.19-1.81,2.38-3.49,3.42-5.24a6.34,6.34,0,0,0-3.73-9.45,23.83,23.83,0,0,0-3.76-.37,6.76,6.76,0,0,0-2.59-4.32,6.64,6.64,0,0,0-5.13-1.32,6.79,6.79,0,0,0-4.28-5.44,7.18,7.18,0,0,0-6.92.88c-1-2.76-2.72-4.67-5.69-5.14s-5.32.54-7.35,3.11c-1.14-3.3-2.22-6.38-3.24-9.47a1.42,1.42,0,0,1,.16-1Q25.31,64.6,31.9,52.78c0-.06.12-.1.16-.14,1.6,1.22,3.13,2.54,4.82,3.6s3.56,1.88,5.48,2.87c-.12.34-.27.79-.43,1.23l-4.6,12.27c-.84,2.25-.11,3.29,2.32,3.3,2.15,0,4.3,0,6.44,0a9.56,9.56,0,0,0,9.65-7,1,1,0,0,1,1.09-.84c2.14-.13,4.28-.37,6.42-.5a3.47,3.47,0,0,1,1.72.31A176.77,176.77,0,0,1,95.31,87.45a6,6,0,0,1,1.87,2.82A3.48,3.48,0,0,1,95.55,94.26Zm1.84-10.18A189.72,189.72,0,0,0,70.74,66.49l1.4-.36c-.18-1.21-.37-2.39-.58-3.74-1.44.21-2.81.46-4.2.61-4,.42-8,.86-12.06,1.19-2.07.18-2.47.41-3,2.46-1,4-2.8,5.37-6.87,5.37-1.17,0-2.34,0-3.62,0,.09-.37.13-.63.22-.88,1.27-3.41,2.53-6.82,3.84-10.21a1.65,1.65,0,0,1,.9-.93c6.3-1.48,12.59-3,18.91-4.34a20.43,20.43,0,0,1,9.85.52,24.68,24.68,0,0,0,13.18.09.93.93,0,0,1,1.27.49q6.47,11,13,22.08C101.15,80.56,99.33,82.26,97.39,84.08ZM107.7,79.2,90.23,49.51l8.18-4.15,17.48,29.69Z"/><path class="cls-1" d="M76.1.61C75.29.38,74.46.2,73.65,0H69.76c-1,.28-2,.52-3,.85A15.91,15.91,0,0,0,60.32,5c-.52-.46-1-.89-1.48-1.3A15.69,15.69,0,0,0,51.45.24,4.27,4.27,0,0,1,50.8,0H46.91c-.23.07-.45.17-.68.22A15.31,15.31,0,0,0,34.29,9.64c-2.81,6.52-.85,14.69,4.85,19.67C45.6,35,52.21,40.44,58.76,46a2,2,0,0,0,3,0q9.78-8.26,19.54-16.57a17.25,17.25,0,0,0,4.85-6.88C89.92,13.2,85.36,3.27,76.1.61ZM83,19.76a13.66,13.66,0,0,1-4.21,6.7c-6,5.16-12.11,10.27-18.17,15.4-.09.07-.2.13-.41.26-4.75-4-9.45-8-14.14-12-1.49-1.26-3-2.48-4.44-3.78-4.53-4.11-6-10.74-3.5-15.84A11.78,11.78,0,0,1,56.74,7c.71.66,1.36,1.38,2.08,2a1.92,1.92,0,0,0,2.92,0c.45-.4.86-.85,1.29-1.28,4.28-4.26,10-5.11,14.86-2.2S84.7,14.1,83,19.76Z"/></g></g></g></svg>