<svg xmlns="http://www.w3.org/2000/svg" viewBox="0 0 105.9 106.05"><defs><style>.cls-1{fill:#f8a94e;}</style></defs><g id="Layer_2" data-name="Layer 2"><g id="Layer_1-2" data-name="Layer 1"><g id="teTy8m.tif"><path class="cls-1" d="M105.9,49.63V56c-.27,2-.43,4-.81,5.91-3.78,19.45-14.83,33.19-33.24,40.33-17.33,6.73-33.94,4.3-49.38-6.06-.17-.12-.34-.24-.51-.34a1.23,1.23,0,0,0-.31-.06c.33,1.2.66,2.35,1,3.51a1.68,1.68,0,0,1-1.09,2.3,1.66,1.66,0,0,1-2.06-1.37c-.83-2.84-1.65-5.68-2.45-8.54-.41-1.49.23-2.35,1.75-2.42,3-.13,5.93-.26,8.89-.35,1.49,0,2.45,1.19,1.76,2.32a2.34,2.34,0,0,1-1.55.94c-1.53.18-3.08.18-4.92.26.82.59,1.43,1,2.07,1.48,10,6.71,21,9.81,32.94,8.3,20.72-2.62,35-13.93,42-33.61,4.77-13.42,3.32-26.65-3.32-39.28-.23-.42-.48-.83-.7-1.27a1.66,1.66,0,0,1,.56-2.33,1.62,1.62,0,0,1,2.34.78c1.51,3.24,3.1,6.45,4.36,9.79a43.25,43.25,0,0,1,2.55,12.5A5.42,5.42,0,0,0,105.9,49.63Z"/><path class="cls-1" d="M87.11,16.58c-2.92.13-5.85.23-8.78.35a1.74,1.74,0,0,1-1.88-1A1.62,1.62,0,0,1,78,13.64c1.57-.09,3.15-.14,5-.23-.64-.47-1.08-.82-1.54-1.14A49.67,49.67,0,0,0,5,40.43,48.52,48.52,0,0,0,9.5,76.92c.17.3.35.59.5.91a1.67,1.67,0,0,1-.62,2.32,1.62,1.62,0,0,1-2.27-.77c-1.25-2.49-2.6-4.95-3.59-7.54A52.89,52.89,0,0,1,40.2,1.56C43,.88,45.83.63,48.64.18c.27,0,.53-.12.79-.18h6.83c1.87.26,3.74.47,5.6.78A52.05,52.05,0,0,1,83.36,9.6c.24.17.5.32.93.59-.37-1.35-.7-2.51-1-3.66a1.66,1.66,0,1,1,3.17-.89c.83,2.84,1.65,5.68,2.44,8.53C89.3,15.65,88.65,16.51,87.11,16.58Z"/><path class="cls-1" d="M77.85,49.83a1.6,1.6,0,0,0-1.5-1.68,21.83,21.83,0,0,0-3.16-.5,3,3,0,0,1-3.34-2.57,1.41,1.41,0,0,1,.2-1.39q1.38-1.81,2.67-3.68a9.15,9.15,0,0,0,.67-1.33,6.21,6.21,0,0,0-.72-1.25c-1.36-1.41-2.76-2.8-4.17-4.17A1.68,1.68,0,0,0,66,33.08a18.14,18.14,0,0,0-2.49,1.83c-1.31,1.28-2.66,1.52-4.16.47a2,2,0,0,1-.8-1c-.34-1.62-.56-3.26-.83-4.89a1.56,1.56,0,0,0-1.61-1.45c-2.1,0-4.21,0-6.31,0a1.56,1.56,0,0,0-1.63,1.42,21.67,21.67,0,0,0-.52,3.26A3,3,0,0,1,45.16,36a1.5,1.5,0,0,1-1.49-.18c-1.25-1-2.55-1.89-3.85-2.79a1.64,1.64,0,0,0-2.4.2Q35.3,35.3,33.25,37.4A1.67,1.67,0,0,0,33,39.81a16.9,16.9,0,0,0,1.83,2.5,3.12,3.12,0,0,1,.54,4.27,1.27,1.27,0,0,1-1,.8c-1.61.22-3.2.52-4.8.77A1.63,1.63,0,0,0,28,49.9q0,3,0,6.1a1.64,1.64,0,0,0,1.56,1.74,26.6,26.6,0,0,0,3.16.5A3,3,0,0,1,36,60.75a1.5,1.5,0,0,1-.21,1.48c-.94,1.23-1.84,2.5-2.73,3.76a1.69,1.69,0,0,0,.17,2.5c1.38,1.4,2.76,2.79,4.17,4.16a1.65,1.65,0,0,0,2.41.18A18.87,18.87,0,0,0,42.34,71c1.3-1.23,2.58-1.58,4.18-.56.47.31.79.48.87,1.09.21,1.61.52,3.2.77,4.8a1.6,1.6,0,0,0,1.67,1.51q3.11.06,6.2,0a1.65,1.65,0,0,0,1.72-1.59,24.7,24.7,0,0,0,.5-3.16,3,3,0,0,1,2.54-3.24,1.38,1.38,0,0,1,1.39.16c1.26,1,2.55,1.88,3.85,2.79a1.67,1.67,0,0,0,2.42-.13c1.43-1.39,2.84-2.81,4.24-4.24A1.68,1.68,0,0,0,72.83,66,19.7,19.7,0,0,0,71,63.53a3,3,0,0,1-.54-4.18c.3-.5.52-.78,1.11-.86,1.61-.21,3.2-.51,4.8-.77A1.6,1.6,0,0,0,77.85,56C77.88,54,77.88,51.9,77.85,49.83Zm-5.79,5.23-2.55.41A2,2,0,0,0,67.76,57a32.33,32.33,0,0,1-1.5,3.61,2,2,0,0,0,.16,2.21c1,1.35,2,2.72,3,4.11L67,69.41c-1.36-1-2.71-1.92-4-2.91a2.09,2.09,0,0,0-2.48-.19,20,20,0,0,1-3.32,1.38,2.19,2.19,0,0,0-1.71,2c-.17,1.36-.45,2.72-.62,4.08-.08.56-.31.73-.86.76-2.68.1-2.68.11-3.13-2.55-.15-.85-.28-1.7-.41-2.55a2,2,0,0,0-1.53-1.74,35.46,35.46,0,0,1-3.6-1.5,2,2,0,0,0-2.22.17c-1.33,1-2.68,1.93-4,2.89a.59.59,0,0,1-.18,0l-2.3-2.52c.9-1.24,1.84-2.59,2.83-3.9a2.1,2.1,0,0,0,.17-2.48A22.21,22.21,0,0,1,38.15,57a2,2,0,0,0-1.82-1.56c-1.4-.21-2.78-.47-4.18-.64-.6-.08-.81-.31-.83-.91-.08-2.66-.1-2.66,2.49-3.09l2.65-.43a2,2,0,0,0,1.67-1.46,30.83,30.83,0,0,1,1.5-3.61A2,2,0,0,0,39.44,43c-1-1.32-1.94-2.67-2.89-4l2.57-2.42c1.15.83,2.51,1.76,3.81,2.76a2.15,2.15,0,0,0,2.57.16,21,21,0,0,1,3.33-1.37,2.1,2.1,0,0,0,1.61-1.9c.19-1.33.42-2.65.63-4,0-.18,0-.4.08-.51.82-.92,1.91-.28,2.87-.4.23,0,.7.39.75.67.29,1.38.49,2.78.68,4.17a2.17,2.17,0,0,0,1.68,2,24.19,24.19,0,0,1,3.42,1.42,2,2,0,0,0,2.3-.16c1.35-1,2.72-2,4.11-3l2.37,2.58c-.84,1.17-1.74,2.5-2.73,3.76a2.24,2.24,0,0,0-.21,2.75,18.6,18.6,0,0,1,1.33,3.23,2.11,2.11,0,0,0,1.88,1.64c1.36.19,2.71.46,4.08.62.63.08.88.27.9,1C74.64,54.62,74.66,54.63,72.06,55.06Z"/><path class="cls-1" d="M78.83,80c-.56,2.27-1.21,4.52-1.91,6.75a1.45,1.45,0,0,1-1.91,1A1.51,1.51,0,0,1,73.82,86a10.79,10.79,0,0,1,.26-1.31c-2.68,1.27-5.33,2.78-8.15,3.8a37.75,37.75,0,0,1-50.24-29,37,37,0,0,1,4.19-24.86,5.64,5.64,0,0,1,.31-.53,1.62,1.62,0,0,1,2.21-.72,1.66,1.66,0,0,1,.68,2.3c-.91,2-2,3.88-2.7,5.9C13.17,61.5,26.27,83.67,47.26,87a34.26,34.26,0,0,0,23.9-4.73c.43-.26.84-.55,1.47-1-.86-.06-1.46-.08-2.06-.15a1.66,1.66,0,0,1-1.64-1.76,1.63,1.63,0,0,1,1.77-1.51c2.2,0,4.41.13,6.61.25A1.48,1.48,0,0,1,78.83,80Z"/><path class="cls-1" d="M86,71.3c-.1.18-.2.36-.31.54a1.64,1.64,0,0,1-2.29.7,1.67,1.67,0,0,1-.58-2.33c.9-1.93,1.93-3.81,2.65-5.81A34.55,34.55,0,0,0,58.05,18.79a34.19,34.19,0,0,0-23.72,5.07c-.29.18-.56.38-1,.72.91.06,1.56.07,2.2.16A1.65,1.65,0,0,1,37,26.44,1.6,1.6,0,0,1,35.34,28c-2.27,0-4.55-.12-6.82-.25a1.48,1.48,0,0,1-1.44-1.95c.56-2.23,1.2-4.45,1.89-6.65a1.46,1.46,0,0,1,1.89-1,1.49,1.49,0,0,1,1.22,1.77,16.84,16.84,0,0,1-.34,1.65l1.42-.85c21.75-13.55,51-1.35,56.63,23.62A37.44,37.44,0,0,1,86,71.3Z"/><path class="cls-1" d="M53,42A11,11,0,1,0,63.9,52.94,11,11,0,0,0,53,42Zm-.13,18.59a7.64,7.64,0,1,1,7.71-7.65A7.68,7.68,0,0,1,52.88,60.58Z"/></g></g></g></svg>