<svg xmlns="http://www.w3.org/2000/svg" viewBox="0 0 86.77 118.71"><defs><style>.cls-1{fill:#f8a94e;}</style></defs><g id="Layer_2" data-name="Layer 2"><g id="Layer_1-2" data-name="Layer 1"><g id="weX65b.tif"><path class="cls-1" d="M86.69,84.25A51.84,51.84,0,0,1,83,102.19a12.85,12.85,0,0,0-.76,4c-.1,3.39-.06,6.8,0,10.2A2.27,2.27,0,0,1,81,118.71H79.8a2.7,2.7,0,0,1-1.14-2.48c0-3.55,0-7.11,0-10.66a12.18,12.18,0,0,1,.77-4.06A54.06,54.06,0,0,0,83.29,81c-.06-10.35,0-20.71,0-31.06a5.42,5.42,0,1,0-10.84,0c0,1.89,0,3.78,0,5.68,0,1.31-.61,2-1.66,2.07S69,57,68.94,55.67c0-4,0-7.89,0-11.83a5.31,5.31,0,0,0-4.65-5.12,5.37,5.37,0,0,0-5.93,3.9,8.44,8.44,0,0,0-.21,2.19c0,3.44,0,6.87,0,10.31A6.67,6.67,0,0,1,58,56.39a1.57,1.57,0,0,1-1.64,1.34,1.55,1.55,0,0,1-1.67-1.31A6.32,6.32,0,0,1,54.63,55c0-4.56,0-9.12,0-13.68a5.4,5.4,0,1,0-10.8-.1c0,4.63,0,9.27,0,13.91a5.18,5.18,0,0,1-.13,1.37,1.7,1.7,0,0,1-3.3-.27,8.89,8.89,0,0,1,0-1.27q0-18.72,0-37.44a5.53,5.53,0,0,0-3-5.37,5.37,5.37,0,0,0-7.87,4.6c-.07,3.67,0,7.34,0,11V45a4.88,4.88,0,0,1-.09,1.27,1.61,1.61,0,0,1-1.71,1.28A1.64,1.64,0,0,1,26,46a3.29,3.29,0,0,1,0-.7c0-9.43,0-18.86,0-28.28a8.9,8.9,0,1,1,17.8.23c0,5.1,0,10.2,0,15.3V34a9.24,9.24,0,0,1,7.71-1.44,9.11,9.11,0,0,1,5.87,5,8.87,8.87,0,0,1,9.09-1.88c3.3,1.15,5.17,3.62,5.92,7.09a9.06,9.06,0,0,1,7.8-1.52,8.75,8.75,0,0,1,6.55,8.31C86.77,61.15,86.82,72.7,86.69,84.25Z"/><path class="cls-1" d="M37.41,116.42a2.31,2.31,0,0,1-1.21,2.29H35a2.63,2.63,0,0,1-1.14-2.47c0-4,0-7.95,0-12-.77-.25-1.5-.47-2.21-.73a22.53,22.53,0,0,1-11.22-8.59Q11,81.23,1.71,67.48a9.17,9.17,0,0,1,1.8-12.57,9.2,9.2,0,0,1,12.67,1c3,3.14,5.88,6.36,8.81,9.55a10.69,10.69,0,0,1,.67.91l.27-.17c0-.37.05-.73.05-1.1V53.61c0-1.35.66-2.14,1.74-2.13s1.73.79,1.74,2.14V68a2.81,2.81,0,0,1-1.73,2.87,2.77,2.77,0,0,1-3.32-.93q-5.35-5.79-10.68-11.59a5.65,5.65,0,0,0-5.55-1.89,5.78,5.78,0,0,0-3.54,9.15c4.2,6.2,8.45,12.37,12.68,18.56,1.9,2.77,3.81,5.54,5.69,8.32a19.69,19.69,0,0,0,12,8.38A2.78,2.78,0,0,1,37.39,104C37.4,108.15,37.37,112.28,37.41,116.42Z"/><path class="cls-1" d="M45,4.72c-.48.88-1.39,1-2.52.64a32.28,32.28,0,0,0-5.6-1.72C28.6,2.34,20.28,8.8,19.24,17.09a16.49,16.49,0,0,0,1.45,9.24c.58,1.22.32,2.2-.66,2.66s-1.86,0-2.48-1.19C11.8,16.27,19.3,2,32.06.22c.3,0,.59-.15.89-.22h4.17c1.81.52,3.62,1,5.42,1.56A7.44,7.44,0,0,1,44,2.24,1.76,1.76,0,0,1,45,4.72Z"/><path class="cls-1" d="M10.23,33c-1,.41-1.85,0-2.39-1.18a29.77,29.77,0,0,1,0-25c.36-.77.89-1.39,1.74-1.23a2.37,2.37,0,0,1,1.49,1A2.12,2.12,0,0,1,11,8.29a26.47,26.47,0,0,0,0,22.19A1.76,1.76,0,0,1,10.23,33Z"/><path class="cls-1" d="M64.84,19.64a29.16,29.16,0,0,1-2.69,12.13C61.6,33,60.66,33.45,59.69,33s-1.26-1.4-.71-2.67a26.24,26.24,0,0,0,0-22c-.55-1.24-.25-2.19.76-2.64s1.87,0,2.44,1.27A29.87,29.87,0,0,1,64.84,19.64Z"/><path class="cls-1" d="M54.33,19.74a18.24,18.24,0,0,1-1.91,8C51.82,29,51,29.46,50,29s-1.27-1.4-.7-2.65A15.72,15.72,0,0,0,47.87,10.1C47.1,9,47.18,8,48.09,7.35s1.85-.35,2.64.77A19.22,19.22,0,0,1,54.33,19.74Z"/></g></g></g></svg>