<svg xmlns="http://www.w3.org/2000/svg" viewBox="0 0 57.89 66.18"><defs><style>.cls-1{fill:#5c8deb;}</style></defs><g id="Layer_2" data-name="Layer 2"><g id="Layer_1-2" data-name="Layer 1"><g id="NvoYYx.tif"><path class="cls-1" d="M57.55,27.59a6.46,6.46,0,0,0-5.25-4.82l-.51-.1a.4.4,0,0,1-.13-.06c-.16-1.34-.26-2.67-.47-4a21.68,21.68,0,0,0-3.76-9A22.4,22.4,0,0,0,38.19,2,22.1,22.1,0,0,0,30.87.1a4.72,4.72,0,0,1-.64-.1H27.65C26.44.18,25.22.29,24,.56A22.22,22.22,0,0,0,13.25,6.35a21.31,21.31,0,0,0-6,10.06c-.52,2-.75,4.09-1.12,6.13-.05.13-.28.17-.5.23a6.28,6.28,0,0,0-5,4.09A11.32,11.32,0,0,0,0,30.34C0,34,0,37.62,0,41.26a17.92,17.92,0,0,0,.12,2.06,6.31,6.31,0,0,0,5.18,5.76,37.15,37.15,0,0,0,5.39.32c1.37.05,1.76-.38,1.76-1.76,0-2.8,0-5.6,0-8.4V24.58c0-1.71-.3-2-2-2H8.81c.24-7.13,3.09-12.85,9-16.69,7.06-4.6,14.47-4.75,21.69-.38,6.29,3.8,9.31,9.66,9.61,17.07-.84,0-1.59,0-2.33,0a1.24,1.24,0,0,0-1.34,1.27c0,.24,0,.48,0,.71V45.75c0,.72,0,1.43,0,2.14,0,1,.5,1.48,1.53,1.48.69,0,1.37,0,2.13,0-.08.87-.12,1.65-.25,2.44-.37,2.46-1.18,4.74-3.31,6.26-2.74,2-6,2.11-9.18,2.32,0-.44,0-.8-.1-1.16A2.31,2.31,0,0,0,34,57.11q-4.19-.09-8.39,0a2.29,2.29,0,0,0-2.23,2.33c-.05,1.44-.05,2.89,0,4.33a2.4,2.4,0,0,0,2.4,2.38q4.05.06,8.08,0a2.46,2.46,0,0,0,2.45-2.43c0-.25,0-.5,0-.78.53,0,1-.06,1.42-.12,1.75-.26,3.51-.4,5.22-.82a10,10,0,0,0,7.11-5.57,16.09,16.09,0,0,0,1.45-6.24c0-.74.32-.93,1-1.08a6.31,6.31,0,0,0,5-4.64c.16-.55.26-1.13.38-1.69V29.08C57.78,28.58,57.69,28.08,57.55,27.59ZM9.91,24.89V47a37.91,37.91,0,0,1-4.37-.49,3.85,3.85,0,0,1-3-3.45,3.47,3.47,0,0,1-.06-.45c0-4.56,0-9.11.08-13.67a3.75,3.75,0,0,1,3.26-3.74A33.19,33.19,0,0,1,9.91,24.89ZM33.74,63.64H25.88v-4h7.86ZM55.37,37.89c0,1.42,0,2.85,0,4.27-.08,2.78-1.41,4.32-4.17,4.67a24.31,24.31,0,0,1-3.2,0V25.09c1.67,0,3.36-.24,4.95.49,2,.89,2.5,2.6,2.51,4.56C55.42,32.73,55.39,35.31,55.37,37.89Z"/></g></g></g></svg>