<svg xmlns="http://www.w3.org/2000/svg" viewBox="0 0 62.01 62.02"><defs><style>.cls-1{fill:#5c8deb;}</style></defs><g id="Layer_2" data-name="Layer 2"><g id="Layer_1-2" data-name="Layer 1"><g id="IexZdz.tif"><path class="cls-1" d="M57.76,42A4.18,4.18,0,0,0,62,38.63V32.26a12,12,0,0,0-.5-1.39A4.84,4.84,0,0,0,57.14,28c-1,0-2,0-3.13,0V5.42A5,5,0,0,0,48.6,0H5.41A5,5,0,0,0,0,5.42V36.61A5,5,0,0,0,5.37,42H20V48a16.31,16.31,0,0,0-1.74.15A3.93,3.93,0,0,0,15,52c0,1,0,1.95,0,2.94A1,1,0,0,0,16.13,56Q27,56,37.88,56A1,1,0,0,0,39,54.89c0-.94,0-1.88,0-2.81A4,4,0,0,0,34.92,48c-.28,0-.55,0-.87,0V42H48.64A5,5,0,0,0,54,36.67V30.23a1.72,1.72,0,0,1,.05-.27,31,31,0,0,1,3.85.23A2.75,2.75,0,0,1,60,32.91q0,2.56,0,5.13a2,2,0,0,1-1.81,2c-2.69.27-3.85,1.37-4.23,4.07a7.32,7.32,0,0,0-3.59,1.71A6.76,6.76,0,0,0,48,50.85a39.75,39.75,0,0,0,.12,5.24,6.78,6.78,0,0,0,5.71,5.82,1.36,1.36,0,0,1,.28.11h1.76l.65-.17a7,7,0,0,0,5.36-5.67,1.72,1.72,0,0,1,.11-.29V50.14a18,18,0,0,0-.59-1.89,6.81,6.81,0,0,0-4.72-4l-.6-.15s0,0,0-.05A1.84,1.84,0,0,1,57.76,42ZM34.65,50c1.61,0,2.35.75,2.35,2.38V54H17c0-.78-.06-1.53,0-2.26A2,2,0,0,1,19.09,50c2.56,0,5.12,0,7.69,0ZM22,48V42H32V48ZM52,28H50V5.49C50,4.27,49.74,4,48.49,4h-43C4.26,4,4,4.27,4,5.51v27c0,1.23.27,1.5,1.5,1.5h43c1.24,0,1.51-.27,1.51-1.49V30h2v6.7A3,3,0,0,1,48.74,40H5.37A3,3,0,0,1,2,36.66V5.34A3,3,0,0,1,5.32,2H48.7A3,3,0,0,1,52,5.29V28ZM34.67,10c-2.65,0-5.3,0-7.94,0A4.53,4.53,0,0,0,23,11.38,4.47,4.47,0,0,0,19.45,10c-2.71,0-5.42,0-8.13,0-1,0-1.32.33-1.32,1.31V26.68c0,1,.33,1.33,1.36,1.33H19c2.18,0,2.34-.06,4.06-1.34A4.65,4.65,0,0,0,27,28c2.48,0,5,0,7.44,0,1.39,0,1.6-.23,1.6-1.64V24a10.22,10.22,0,0,1,1.53.12,2,2,0,0,1,1.48,2A4,4,0,0,0,43.06,30h4.75a.9.9,0,0,1,.16,0V32H6.05V6H48V28a1.08,1.08,0,0,1-.27.05c-1.56,0-3.12,0-4.69,0a2,2,0,0,1-2-1.91A4,4,0,0,0,36.62,22H36V11.35C36,10.32,35.68,10,34.67,10ZM34,12V26l-.51,0H26.23A2,2,0,0,1,24,23.81q0-4.81,0-9.63A2,2,0,0,1,26.18,12ZM22,14.15Q22,19,22,23.9A2,2,0,0,1,20,26c-2.58,0-5.16,0-7.75,0A2,2,0,0,1,12,26V12h7.82A2,2,0,0,1,22,14.15Zm32,32V50H50.17A4.81,4.81,0,0,1,54,46.15Zm5.51,11a5,5,0,0,1-9.5-2c0-1,0-2,0-3.1H60C59.9,53.76,60.31,55.51,59.52,57.17ZM59.86,50H56.05V46.2A4.68,4.68,0,0,1,59.86,50Z"/><rect class="cls-1" x="40.05" y="36.03" width="1.91" height="1.95"/><rect class="cls-1" x="44.04" y="36.04" width="1.92" height="1.93"/><rect class="cls-1" x="48.04" y="36.04" width="1.92" height="1.94"/><rect class="cls-1" x="14.05" y="14.02" width="5.9" height="1.95"/><rect class="cls-1" x="14.04" y="18.03" width="5.92" height="1.93"/><rect class="cls-1" x="14.04" y="22.04" width="5.93" height="1.92"/><rect class="cls-1" x="26.05" y="14.05" width="5.93" height="1.92"/><rect class="cls-1" x="26.05" y="18.03" width="5.93" height="1.92"/><rect class="cls-1" x="26.05" y="22.05" width="5.92" height="1.93"/></g></g></g></svg>