<svg xmlns="http://www.w3.org/2000/svg" viewBox="0 0 58.66 62.67"><defs><style>.cls-1{fill:#5c8deb;}</style></defs><g id="Layer_2" data-name="Layer 2"><g id="Layer_1-2" data-name="Layer 1"><g id="WITCfX.tif"><path class="cls-1" d="M44.19,12.69c-.62-.09-1.25-.16-1.88-.19a.66.66,0,0,1-.72-.53,16.25,16.25,0,0,0-.89-2.11A.64.64,0,0,1,40.8,9c.44-.48.85-1,1.25-1.5a1,1,0,0,0,0-1.4c-1-1-2-2-3-3a.93.93,0,0,0-1.34-.08,3.31,3.31,0,0,0-.58.47A2.11,2.11,0,0,1,34.31,4C33,3.48,32.46,2.82,32.54,1.47A1.46,1.46,0,0,0,31.9,0H26.74a7.34,7.34,0,0,0-.55,1.3c-.13.55-.1,1.13-.21,1.68a1,1,0,0,1-.46.54c-.71.33-1.44.64-2.18.9a.93.93,0,0,1-.75-.07C22,4,21.54,3.5,21,3.07a1,1,0,0,0-1.4.08c-1,1-2,2-3,3a1,1,0,0,0-.06,1.39c.4.49.79,1,1.22,1.46a.7.7,0,0,1,.12.94,14.46,14.46,0,0,0-.84,2,.74.74,0,0,1-.81.61,13.87,13.87,0,0,0-1.81.18c-.74.11-1,.4-1,1.11,0,1.36,0,2.72,0,4.07,0,.73.32,1.05,1.07,1.12s1.27.08,1.89.19a1,1,0,0,1,.58.49,22,22,0,0,1,.93,2.18,1,1,0,0,1-.09.76c-.37.53-.81,1-1.23,1.52a1,1,0,0,0,.05,1.44c1,1,1.94,2,2.93,2.92a.94.94,0,0,0,1.49.05c.51-.41,1-.86,1.53-1.24a.87.87,0,0,1,.69-.07c.74.27,1.44.63,2.19.89a.69.69,0,0,1,.53.67c0,.58.11,1.17.16,1.75.1,1,.37,1.2,1.34,1.2s1.85,0,2.78,0c2.13,0,2.16,0,2.27-2.1,0-.92.24-1.55,1.29-1.75.68-.12,1.37-.82,2-.71s1.17.87,1.75,1.33a1,1,0,0,0,1.59-.07c.68-.67,1.35-1.35,2-2,1.54-1.53,1.58-1.57.13-3.19-.61-.67-.83-1.2-.29-2,.4-.6.46-1.55,1-1.91s1.44-.22,2.18-.31a1,1,0,0,0,1-1.1c0-1.35,0-2.71,0-4.07C45.18,13.09,44.92,12.8,44.19,12.69Zm-.94,4.47c-.65.06-1.29.17-1.94.19a1.28,1.28,0,0,0-1.29,1,23.72,23.72,0,0,1-1.33,3.16,1.25,1.25,0,0,0,.15,1.65c.44.48.83,1,1.22,1.48l-1.91,1.84c-.42-.34-1-.77-1.49-1.23a1.23,1.23,0,0,0-1.54-.14,29.59,29.59,0,0,1-3.28,1.39,1.21,1.21,0,0,0-1,1.13c-.06.7-.13,1.39-.2,2.13H28c-.06-.65-.15-1.31-.19-2a1.31,1.31,0,0,0-1-1.3,24.57,24.57,0,0,1-3.23-1.36,1.22,1.22,0,0,0-1.53.13c-.51.44-1,.87-1.52,1.26l-1.86-1.89c.37-.46.81-1,1.28-1.56A1.19,1.19,0,0,0,20,21.62a28,28,0,0,1-1.38-3.3,1.23,1.23,0,0,0-1.2-1c-.67,0-1.35-.13-2.06-.21V14.52c.75-.08,1.49-.18,2.22-.24.58,0,.83-.38,1-.91.42-1.13.89-2.25,1.41-3.35a1.18,1.18,0,0,0-.14-1.48C19.46,8,19,7.49,18.63,7l1.92-1.85c.43.36,1,.79,1.51,1.25a1.16,1.16,0,0,0,1.47.13c1.09-.52,2.22-1,3.35-1.4A1.21,1.21,0,0,0,27.82,4c0-.66.12-1.31.19-2h2.65c.08.7.16,1.41.22,2.13a1.14,1.14,0,0,0,.9,1c1.15.44,2.3.91,3.42,1.43a1.11,1.11,0,0,0,1.36-.1l1.68-1.39L40.05,7c-.4.48-.83,1-1.29,1.55a1.23,1.23,0,0,0-.15,1.54A32.81,32.81,0,0,1,40,13.34c.2.56.45.9,1.06.95s1.43.15,2.18.23Z"/><path class="cls-1" d="M58.34,40.06a5,5,0,0,0-6.08-1.72.85.85,0,0,1-1-.17,4.13,4.13,0,0,0-4.79-.61.88.88,0,0,1-.71,0,5.6,5.6,0,0,0-6.1-.16A16.85,16.85,0,0,1,36,39.25a20.14,20.14,0,0,1-4.12.1,9.44,9.44,0,0,1-4.63-1,11.83,11.83,0,0,0-8.31-.87,12.23,12.23,0,0,0-5.63,3.23,5.63,5.63,0,0,1-2.41,1.51c-.28-1-.56-1.86-.83-2.77a1,1,0,0,0-1-.88H1a1,1,0,0,0-1,1c0,.29.05.58.08.88L1,47.79q.83,6.85,1.67,13.72c.11.94.38,1.16,1.31,1.16H15.49c1.13,0,1.48-.46,1.16-1.53-.47-1.57-1-3.15-1.46-4.77,1.65-1,3.2-2.09,4.83-3A3.18,3.18,0,0,1,21.89,53c1.95.28,3.87.71,5.81,1,2.2.37,4.39.83,6.61,1a10.08,10.08,0,0,0,6.56-1.55C46.63,49.67,52.32,45.7,58,41.77A1,1,0,0,0,58.34,40.06Zm-10.71-1a2.12,2.12,0,0,1,2.27.46L43.35,43.1l-.75-1.31C44.29,40.88,45.94,40,47.63,39.11Zm-3.54-.29c-1,.54-1.89,1-2.79,1.49a.39.39,0,0,1-.3,0c-.46-.23-.9-.47-1.38-.73C41,38.69,42.33,38.05,44.09,38.82ZM14.49,60.75h-10C3.65,54,2.83,47.27,2,40.49c.19,0,.34-.06.49-.06H7.85c.32,0,.52,0,.64.41q3,9.87,6,19.74A.61.61,0,0,1,14.49,60.75ZM52.23,43.46c-3.87,2.65-7.76,5.3-11.61,8a10.13,10.13,0,0,1-7.55,1.65c-3.5-.55-7-1.24-10.46-1.9a5.07,5.07,0,0,0-3.89.7c-1.32.87-2.67,1.69-4.1,2.6L11.42,44c1.82-.53,3-2,4.42-3A9.63,9.63,0,0,1,26,39.87a14.45,14.45,0,0,0,6.74,1.38c1.69-.07,3.39,0,5.09,0a3.94,3.94,0,0,1,3.81,2.92c-1.12,0-2.22,0-3.33,0-2.14,0-4.28.09-6.42.18a.9.9,0,0,0-1,1,1,1,0,0,0,1.19.82,48.32,48.32,0,0,1,9,0c.52,0,1,.05,1.56.06a1,1,0,0,0,1.06-.83,1.07,1.07,0,0,1,.44-.58c2.81-1.53,5.64-3.06,8.46-4.57a3.05,3.05,0,0,1,3.69.38C54.94,41.6,53.58,42.53,52.23,43.46Z"/><path class="cls-1" d="M29.37,6.37a9.48,9.48,0,1,0,9.44,9.51A9.47,9.47,0,0,0,29.37,6.37Zm0,17a7.57,7.57,0,1,1,7.55-7.62A7.62,7.62,0,0,1,29.36,23.41Z"/><path class="cls-1" d="M9.13,55.32a2.56,2.56,0,0,0-2.6,2.55,2.58,2.58,0,1,0,2.6-2.55Zm0,3.19a1,1,0,0,1-.68-.62c-.05-.15.35-.6.57-.62s.54.27.82.43a2.53,2.53,0,0,0,0,.28C9.63,58.17,9.38,58.54,9.16,58.51Z"/><path class="cls-1" d="M33.42,14.36c-1,1-2,2-3,2.94-.47.46-.92.93-1.41,1.37a.92.92,0,0,1-1.44,0c-.81-.77-1.62-1.56-2.41-2.36a.93.93,0,0,1-.07-1.39.92.92,0,0,1,1.38.05c.57.58,1.09,1.21,1.63,1.82l.42.08c1.16-1.25,2.31-2.53,3.5-3.76a1.42,1.42,0,0,1,1-.38,1,1,0,0,1,.68.61A1.31,1.31,0,0,1,33.42,14.36Z"/></g></g></g></svg>