<svg xmlns="http://www.w3.org/2000/svg" viewBox="0 0 68.02 61.52"><defs><style>.cls-1{fill:#5c8deb;}</style></defs><g id="Layer_2" data-name="Layer 2"><g id="Layer_1-2" data-name="Layer 1"><g id="JNEyG0.tif"><path class="cls-1" d="M68,8.92a4.25,4.25,0,0,0-.23-1.22C67,5.76,66.22,3.85,65.51,1.89A2.56,2.56,0,0,0,63.61,0h-5a2.39,2.39,0,0,1-.22.12.91.91,0,0,0-.65,1.09.93.93,0,0,0,1,.78c1.36,0,2.73,0,4.1,0a.77.77,0,0,1,.87.57c.6,1.62,1.24,3.21,1.9,4.9-.23,0-.42.06-.6.06H45.88c-.48,0-.65-.14-.75-.59C44.79,5.31,44.4,3.7,44,2h1.7c1.79,0,3.58,0,5.37,0,.61,0,1.19-.05,1.36-.76s-.34-1-.9-1.24H12.22a2.47,2.47,0,0,0-1.94,1.85C9.57,3.8,8.77,5.72,8,7.66a3.78,3.78,0,0,0-.25,1.28q0,6.65,0,13.28a3.59,3.59,0,0,0,0,.73.88.88,0,0,0,.9.73.9.9,0,0,0,.95-.75,3.64,3.64,0,0,0,0-.74V9.48H30.29V23.85A1.54,1.54,0,0,0,33,25.07c.92-.83,1.86-1.65,2.78-2.47l2.11-1.84,1.68,1.49,3.38,3a1.46,1.46,0,0,0,1.6.3,1.42,1.42,0,0,0,.9-1.41c0-.22,0-.45,0-.67v-14H66c0,.21,0,.35,0,.51q0,21.35,0,42.68c0,1.12-.45,1.58-1.57,1.58H47.54a5,5,0,0,1-.51-.06V54c1.88.2,3.39-.39,4.08-2.22a3.46,3.46,0,0,0-1.45-4.27c2.12-2.29,1-5.21-1.65-6.15-3.11-1.1-6.14-2.46-9.22-3.71l-5.24-2.15.68-.22c2.06-.65,4.13-1.28,6.2-1.95a3.13,3.13,0,0,0,2.34-2.88c.08-2.24-1.82-3.71-4.18-3.22-3.22.67-6.43,1.43-9.67,2-4.11.74-8.24,1.36-12.37,2a8.42,8.42,0,0,1-1.43,0c.63-1.86.27-2.63-1.42-3.32L9.34,26.19a2,2,0,0,0-2.95,1.27c-.81,2-1.6,3.93-2.41,5.89Q2,38.18,0,43V44a2.73,2.73,0,0,0,1.76,1.57c1.46.57,2.9,1.18,4.36,1.77a2,2,0,0,0,2.71-.74.6.6,0,0,1,.53-.15,10.57,10.57,0,0,1,4.76,3.13A14.5,14.5,0,0,0,20.33,54a.33.33,0,0,1,.19.23h-9c-1.41,0-1.82-.41-1.82-1.82,0-.62,0-1.24,0-1.85a1,1,0,0,0-.93-1,.94.94,0,0,0-1,1,22.8,22.8,0,0,0,0,3,3.08,3.08,0,0,0,3,2.65c2.28,0,4.56,0,6.83,0,2.44,0,4.87,0,7.31,0a3.5,3.5,0,0,1,1.15.22l11.66,4.75a3.56,3.56,0,0,0,4.35-.88A4.13,4.13,0,0,0,43,57.77a4.32,4.32,0,0,0,1.08-.13c.68-.31,1.34-.71,2-1.07a2.33,2.33,0,0,1,.9-.37c5.77,0,11.54-.07,17.32,0A3.48,3.48,0,0,0,68,52.52C68,38,68,23.46,68,8.92ZM33.77,2h7.14C42,2,42,2,42.25,3.06c.33,1.44.67,2.88,1,4.39H32.51C32.94,5.63,33.35,3.83,33.77,2ZM30.55,7.16c0,.15-.27.27-.44.34a1.41,1.41,0,0,1-.46,0H10.18c.15-.4.27-.69.38-1,.53-1.36,1-2.72,1.6-4.07A.76.76,0,0,1,12.68,2C19,2,25.33,2,31.78,2,31.36,3.77,31,5.47,30.55,7.16ZM43.49,23.07c-.23-.19-.41-.32-.58-.47l-3.67-3.25c-1.05-.92-1.65-.92-2.71,0-1.25,1.1-2.48,2.19-3.72,3.3l-.52.41V9.47h11.2ZM7.15,45.61,2,43.49c2.13-5.21,4.22-10.38,6.36-15.62L13.51,30C11.39,35.2,9.27,40.38,7.15,45.61Zm39.73,6.24L33.75,46.5c-1-.4-1.56-.29-1.81.36s.12,1,1.09,1.45q5.43,2.2,10.87,4.43a1.53,1.53,0,0,1,.8,2.44,1.44,1.44,0,0,1-1.67.5c-.9-.31-1.78-.67-2.65-1-2.85-1.15-5.69-2.32-8.54-3.48l-.3-.13c-.7-.26-1.25-.1-1.48.42s0,1.09.76,1.39l8.9,3.63c1,.41,1.45,1.08,1.25,1.9a1.43,1.43,0,0,1-1.85,1.13c-1.27-.43-2.51-1-3.76-1.47-4.91-2-9.82-4-14.74-6a11,11,0,0,1-4.49-3.19,13.66,13.66,0,0,0-5.91-4.23,4.52,4.52,0,0,1-.49-.22l4.62-11.32a21.31,21.31,0,0,0,7.09-.49c5.88-1.12,11.75-2.3,17.62-3.46a1.36,1.36,0,0,1,1.73.82c.21.72-.19,1.33-1.09,1.61-3,.93-6,1.86-9,2.77-.52.17-1,.36-1,1s.42.91.95,1.12l16.87,6.88c.94.38,1.4,1,1.34,1.68a1.58,1.58,0,0,1-2.25,1.3c-2.42-1-4.82-2-7.24-2.95-1.39-.57-2.78-1.14-4.18-1.69a1,1,0,0,0-1.29.46,1,1,0,0,0,.54,1.31c.16.08.33.14.49.21L40.63,46l7.43,3a3.86,3.86,0,0,1,.59.27,1.57,1.57,0,0,1,.65,1.91,1.52,1.52,0,0,1-1.73.91A4.3,4.3,0,0,1,46.88,51.85Z"/></g></g></g></svg>