<svg xmlns="http://www.w3.org/2000/svg" viewBox="0 0 67.45 80.94"><defs><style>.cls-1{fill:#5c8deb;}</style></defs><g id="Layer_2" data-name="Layer 2"><g id="Layer_1-2" data-name="Layer 1"><g id="u7p04Y.tif"><path class="cls-1" d="M67.41,79.22c-.22-1-1-1.1-1.84-1.1h-7c0-.1-.1-.2-.15-.3a5.92,5.92,0,0,0,.75-.53c1.58-1.52,3.18-3,4.73-4.6a7.81,7.81,0,0,0,2-8.41c-.41-1.28-.81-2.57-1.16-3.86-1.36-5-2.68-10-4-15a10.28,10.28,0,0,0-4.45-6,23.92,23.92,0,0,0-11.08-3.77,114.23,114.23,0,0,0-18.95-.39,39.67,39.67,0,0,0-10.81,1.81c-5.06,1.78-8.79,4.75-9.78,10.35,0,.21-.12.41-.17.62-1.43,5.37-2.79,10.75-4.31,16.1A8,8,0,0,0,3.4,72.76c1.6,1.52,3.23,3,4.85,4.49a8.44,8.44,0,0,0,.83.61l-.2.28c-2.28,0-4.56,0-6.85,0a1.84,1.84,0,0,0-2,1.16v1.65H66.25C67,80.61,67.61,80.17,67.41,79.22ZM36.94,37.86c-.17.48-.29.9-.46,1.3-1.8,4.43-1.8,4.43-1,9.16.16.87.27,1.75.41,2.66-.25,0-.46.06-.66.06H31.59c.35-2.16.72-4.23,1-6.31a6.14,6.14,0,0,0-.26-2.48c-.48-1.46-1.13-2.87-1.75-4.4ZM9.37,53.11q.75,9.27,1.55,18.55c.12,1.45.23,2.91.37,4.54-.3-.23-.48-.35-.64-.5C8.82,74,7,72.34,5.2,70.64a5,5,0,0,1-1.49-5.26q2.16-8.13,4.36-16.26c.13-.5.31-1,.4-1.5.7-4,3.37-6.15,6.85-7.59,3.77-1.55,7.75-1.86,11.76-2a1,1,0,0,1,.71.49c.69,1.59,1.38,3.2,2,4.83a3.6,3.6,0,0,1,0,1.6c-.29,2-.61,4-.94,6.13H11.35C9.69,51,9.24,51.48,9.37,53.11ZM55,57.81c-.54,6.52-1.11,13-1.63,19.56,0,.58-.24.77-.84.77q-18.8,0-37.6,0c-.51,0-.77-.1-.82-.68-.61-7.67-1.26-15.36-1.88-23a4.48,4.48,0,0,1,0-.54H55.31C55.22,55.21,55.13,56.51,55,57.81Zm1.25,18.26c.1-1.34.18-2.68.29-4q.8-9.27,1.58-18.54l0-.55c.06-1.41-.39-1.9-1.8-1.9-4.34,0-8.67,0-13,0H38.73c-.37-2.39-.74-4.71-1.1-7a.87.87,0,0,1,0-.36c.72-1.81,1.45-3.63,2.2-5.42a.68.68,0,0,1,.53-.23c4.25.24,8.47.59,12.38,2.51a9.81,9.81,0,0,1,5.7,6.73c1.26,5.18,2.72,10.32,4.11,15.48.24.85.53,1.69.8,2.53a5.1,5.1,0,0,1-1.19,5.26c-1.79,2-3.6,3.92-5.41,5.87Z"/><path class="cls-1" d="M48.11,8.93C45.22,2.8,40.05.31,32.84,0a40.64,40.64,0,0,0-4.79,1A14.24,14.24,0,0,0,17.8,15a19.09,19.09,0,0,0,7.77,15.32c5.11,3.94,11.37,3.76,16.41-.3a19.84,19.84,0,0,0,6.86-10.89A14.9,14.9,0,0,0,48.11,8.93ZM32.65,2.86c7.7-.54,12.65,4.46,13.45,8.81a8.05,8.05,0,0,1-7.58-2.19c-1.07-1.08-1.72-1.05-2.74.08-4.16,4.58-9.43,5.54-15,3.51C20.55,8.2,26.12,3.32,32.65,2.86ZM46.24,18.09a16.51,16.51,0,0,1-6.89,10.45,9.69,9.69,0,0,1-11.2.25c-4.07-2.44-7.43-8.15-7.52-12.78,7.43,2,12.29.19,16.62-3.94,2.65,2.32,5.82,2.87,9.47,2.34C46.56,15.72,46.5,16.93,46.24,18.09Z"/><path class="cls-1" d="M37.6,71a1.41,1.41,0,0,1-1.46,1.44c-.8,0-1.59,0-2.38,0s-1.53,0-2.3,0a1.42,1.42,0,0,1-1.53-1.37,1.4,1.4,0,0,1,1.51-1.37c1.55,0,3.12,0,4.68,0A1.39,1.39,0,0,1,37.6,71Z"/><path class="cls-1" d="M35.59,65.91a1.86,1.86,0,0,1-1.82,1.79,1.88,1.88,0,0,1-1.83-1.89,1.83,1.83,0,0,1,3.65.1Z"/></g></g></g></svg>