<svg xmlns="http://www.w3.org/2000/svg" viewBox="0 0 71.02 71.74"><defs><style>.cls-1{fill:#5c8deb;}</style></defs><g id="Layer_2" data-name="Layer 2"><g id="Layer_1-2" data-name="Layer 1"><g id="_86vuzA.tif" data-name="86vuzA.tif"><path class="cls-1" d="M68.88,27.33Q61.23,35,53.58,42.64a3.76,3.76,0,0,0-.82,1.26q-2.68,7.2-5.34,14.43a12.43,12.43,0,0,1-8.69,8.11c-3.21.92-6.41,1.84-9.63,2.72a3.31,3.31,0,0,0-1.7,1,12,12,0,0,1-1.19,1.17,1.36,1.36,0,0,1-1.95,0,1.38,1.38,0,0,1,0-2c.71-.75,1.43-1.49,2.19-2.17a2.68,2.68,0,0,1,1.07-.48q5.19-1.48,10.42-2.95a9.7,9.7,0,0,0,6.83-6.36l3.16-8.52a1.4,1.4,0,0,0,.09-.67l-.51.48c-1.83,1.83-3.65,3.67-5.5,5.49a6,6,0,0,1-9,0c-.28-.28-.54-.57-.84-.9-.34.32-.6.58-.88.81a1.39,1.39,0,0,1-2-2,6.6,6.6,0,0,1,.58-.6c2.84-2.84,5.67-5.69,8.52-8.52a2.72,2.72,0,0,0,.73-3,2.61,2.61,0,0,0-2.32-1.86,2.81,2.81,0,0,0-2.4.92c-1.84,1.86-3.71,3.68-5.53,5.55a2.45,2.45,0,0,1-2,.82,9.55,9.55,0,0,0-5.45,1.28,8.9,8.9,0,0,0-4.57,7.85,4.89,4.89,0,0,1-1.63,3.84C11,62.56,6.9,66.78,2.72,71a3.6,3.6,0,0,1-.63.54,1.33,1.33,0,0,1-1.72-.23,1.43,1.43,0,0,1-.13-1.75,6.54,6.54,0,0,1,.57-.61q6.42-6.42,12.82-12.84a1.56,1.56,0,0,0,.42-1c.12-5.57,2.73-9.47,7.85-11.66a1.52,1.52,0,0,0,.39-.32,3,3,0,0,1-.68-.37C20,41.17,18.4,39.57,16.8,38a6,6,0,0,1,0-9l8.62-8.62a5.47,5.47,0,0,1,.58-.5,1.35,1.35,0,0,1,1.73.17,1.38,1.38,0,0,1,.18,1.74,4.14,4.14,0,0,1-.56.63c-2.84,2.84-5.68,5.67-8.52,8.52a3.25,3.25,0,0,0,0,5.09l6.24,6.24a1.61,1.61,0,0,0,2.28,0c1.76-1.77,3.51-3.56,5.31-5.3A5.57,5.57,0,0,1,42,39.84,5.47,5.47,0,0,1,40.37,45c-1.87,1.86-3.73,3.74-5.61,5.59a5.34,5.34,0,0,1-.81.58c.69.64,1.15,1.16,1.71,1.58a3.11,3.11,0,0,0,3.83-.07,7.94,7.94,0,0,0,.67-.63L66.91,25.32c1.74-1.74,1.76-3.5,0-5.24l-16-16c-1.73-1.73-3.5-1.73-5.23,0l-8.57,8.57a5.58,5.58,0,0,1-.56.53,1.38,1.38,0,0,1-1.9-.09,1.4,1.4,0,0,1-.08-1.85c.11-.13.23-.24.34-.36,2.68-2.67,5.38-5.33,8-8A8.85,8.85,0,0,1,47.4,0h1.83a9.07,9.07,0,0,1,4.55,2.94C58.79,8,63.84,13,68.88,18.06,71.74,20.93,71.75,24.46,68.88,27.33Z"/><path class="cls-1" d="M61.9,23.44c-.61.65-1.25,1.27-1.88,1.89L47.73,37.61c-.19.2-.39.49-.63.54a2.29,2.29,0,0,1-1.37,0c-.38-.17-.59-.69-.94-1.14a9.39,9.39,0,0,1,.87-1.28q7-7,14-14a2.83,2.83,0,0,1,.25-.24,1.37,1.37,0,0,1,2,0A1.4,1.4,0,0,1,61.9,23.44Z"/><path class="cls-1" d="M48.58,10.13a5,5,0,1,0,5,4.95A5,5,0,0,0,48.58,10.13Zm0,7.13a2.13,2.13,0,0,1-2.14-2.18,2.19,2.19,0,0,1,2.14-2.15,2.23,2.23,0,0,1,2.2,2.18A2.18,2.18,0,0,1,48.54,17.26Z"/><path class="cls-1" d="M32.46,27.8a3.32,3.32,0,0,1-.53.87c-1.46,1.51-3,3-4.45,4.47a1.43,1.43,0,0,1-2.07.12,1.38,1.38,0,0,1,.06-2c1.5-1.54,3-3,4.55-4.56a1.34,1.34,0,0,1,1.6-.34A1.43,1.43,0,0,1,32.46,27.8Z"/><path class="cls-1" d="M32.59,16.63A1.34,1.34,0,0,1,31.18,18a1.36,1.36,0,0,1-1.35-1.4,1.38,1.38,0,1,1,2.76.07Z"/></g></g></g></svg>