<svg xmlns="http://www.w3.org/2000/svg" viewBox="0 0 58.26 69.96"><defs><style>.cls-1{fill:#5c8deb;}</style></defs><g id="Layer_2" data-name="Layer 2"><g id="Layer_1-2" data-name="Layer 1"><g id="pxJu9A.tif"><path class="cls-1" d="M52.06.07S52,0,52,0H6.32a8.12,8.12,0,0,0-4,2A7.13,7.13,0,0,0,0,6.94c0,.25,0,.5,0,.75Q0,35,0,62.27A7.31,7.31,0,0,0,3.62,69a7,7,0,0,0,3.84,1H50.75a7.26,7.26,0,0,0,7.42-6.13,10.33,10.33,0,0,0,.09-1.76V8C58.26,3.64,56.26,1.09,52.06.07Zm3.3,62.09c0,3.1-1.77,4.9-4.85,4.9H7.69A4.42,4.42,0,0,1,3,63.39a6.46,6.46,0,0,1-.07-1.16V7.79c0-3.11,1.77-4.89,4.86-4.89H50.51c3.08,0,4.85,1.78,4.85,4.89Z"/><path class="cls-1" d="M23.29,23.3A14.58,14.58,0,1,0,37.88,37.7,14.6,14.6,0,0,0,23.29,23.3ZM14.14,44.94c-2.12-2.27-3.37-7-1.69-11.29a11.5,11.5,0,0,1,9.42-7.25v3.11c0,2.41,0,4.82,0,7.23a1.24,1.24,0,0,1-.28.8Q18,41.22,14.25,44.88A.39.39,0,0,1,14.14,44.94Zm15.15,3A11.56,11.56,0,0,1,16.08,47a3.37,3.37,0,0,0,.64-.42c2.46-2.44,4.89-4.89,7.35-7.33a2.23,2.23,0,0,0,.71-1.69c0-3.47,0-6.93,0-10.39v-.73c4.14.07,8.58,3.95,9.8,8.48A11.71,11.71,0,0,1,29.29,47.9Z"/><path class="cls-1" d="M49.51,59.64a1.42,1.42,0,0,1-1.3,1.55,3.21,3.21,0,0,1-.54,0H10.6c-1.18,0-1.83-.51-1.84-1.45A1.39,1.39,0,0,1,10,58.33a7.67,7.67,0,0,1,.83,0H29.21q9.28,0,18.57,0C48.85,58.31,49.45,58.79,49.51,59.64Z"/><path class="cls-1" d="M49.51,24.77a1.44,1.44,0,0,1-1.61,1.46H45.17c-.94,0-1.86,0-2.8,0a1.48,1.48,0,0,1-1.58-1.44,1.46,1.46,0,0,1,1.56-1.45c1.87,0,3.74,0,5.6,0A1.4,1.4,0,0,1,49.51,24.77Z"/><path class="cls-1" d="M49.51,33.55A1.46,1.46,0,0,1,47.87,35H45.14c-.92,0-1.82,0-2.73,0A1.48,1.48,0,0,1,40.8,33.5a1.45,1.45,0,0,1,1.59-1.42h5.53A1.41,1.41,0,0,1,49.51,33.55Z"/><path class="cls-1" d="M49.51,42.27A1.43,1.43,0,0,1,48,43.72h-5.6a1.45,1.45,0,1,1,0-2.9H48A1.4,1.4,0,0,1,49.51,42.27Z"/><path class="cls-1" d="M49.51,51A1.43,1.43,0,0,1,48,52.46h-5.6a1.45,1.45,0,1,1,0-2.89c.94,0,1.86,0,2.8,0s1.86,0,2.8,0A1.4,1.4,0,0,1,49.51,51Z"/></g></g></g></svg>