<svg xmlns="http://www.w3.org/2000/svg" viewBox="0 0 162.01 159.14"><defs><style>.cls-1{fill:#f8a94e;}</style></defs><g id="Layer_2" data-name="Layer 2"><g id="Layer_1-2" data-name="Layer 1"><g id="_7bP9eM.tif" data-name="7bP9eM.tif"><path class="cls-1" d="M158.76,67.81a49.44,49.44,0,0,1-5.36-1.35,4.18,4.18,0,0,1-2-1.48c-1.14-1.63-2-3.43-3.13-5.11-1.67-2.62-4.12-2.63-5.79,0-1,1.54-2,3.11-2.83,4.74a3.58,3.58,0,0,1-2.73,2.05c-1.81.33-3.59.83-5.37,1.3-2.92.79-3.65,3-1.78,5.38a27,27,0,0,0,2.33,2.78c2,1.87,2.9,4,2.17,6.75a20.9,20.9,0,0,0-.31,3.46c-.3,3.37,1.65,4.84,4.82,3.59,1.86-.73,3.67-1.6,5.55-2.27a3.33,3.33,0,0,1,2.07,0c2,.71,3.88,1.63,5.85,2.37,2.87,1.07,4.7-.32,4.5-3.38-.14-2.15-.38-4.3-.44-6.46a3.36,3.36,0,0,1,.66-2c1.63-2.12,3.36-4.15,5-6.22v-1.9A4.72,4.72,0,0,0,158.76,67.81ZM151.9,84.68c-4.37-2.59-8.58-3-12.83.22,0-2.66.51-5.09-.14-7.15s-2.48-3.81-3.78-5.68c2.09-.67,4.56-.89,6.28-2.15s2.65-3.57,4.19-5.79c1.59,5.09,5,7.59,10.28,7.8C151.89,75.42,150.44,79.49,151.9,84.68Z"/><path class="cls-1" d="M162,23.23v1.58a12.62,12.62,0,0,1-2.72,1.64c-11.87,3.43-19,11.56-22.9,22.91-.14.4-.21.82-.36,1.21a2.35,2.35,0,1,1-4.52-1.32,38.66,38.66,0,0,1,5.06-11.34,36.31,36.31,0,0,1,21.7-16.06C160,21.4,161.14,21.74,162,23.23Z"/><path class="cls-1" d="M122.51,94.21H66.09A3.72,3.72,0,0,1,67.46,93q14.9-8.31,29.79-16.63c4-2.21,5-6.13,2.88-10.11q-2.19-4-4.46-8a7,7,0,0,0-10-2.79c-3.74,2.05-7.45,4.15-11.18,6.22-.48.27-1,.5-1.76.9l.87-2.15a23.77,23.77,0,0,0,1.78-12.66C73.81,37.6,62.85,31.42,53.49,35.55c-1.54.67-2.13,1.79-1.64,3.1s1.76,1.81,3.39,1.32a16.56,16.56,0,0,1,3.81-.88c7.39-.37,12.82,6,11.74,13.68a29.22,29.22,0,0,1-6.14,13.68,21.93,21.93,0,0,1-3.49,3c-1.3-2.05-2.26-3.81-3.47-5.39a2.23,2.23,0,0,1-.56-2.4c1-2.65,2-5.3,3.11-7.91.44-1.08.63-2.2-.31-2.89a3.71,3.71,0,0,0-2.57-.53c-.57.09-1.19.89-1.46,1.51-1.33,3-2.54,6-3.74,8.84l-6.31,1.44a3.5,3.5,0,0,1-.08-.62c-.12-5.33.44-10.52,3-15.34.82-1.55.47-2.88-.79-3.56s-2.58-.23-3.35,1.35a36.71,36.71,0,0,0-2.17,5.23,36.88,36.88,0,0,0-1.25,14.55c.15,1.53-.83,1.8-1.73,2.41a1.71,1.71,0,0,1-2.24-.16A55.49,55.49,0,0,0,32,62.65c-5.71-3.08-11.7-5.17-18.31-3.95C7.25,59.9,2.74,63.61.79,69.9S.53,81.67,5.2,86.22c3.12,3,7,4.53,11.24,5.37,1,.2,2,.36,3.31.61l-1.72,1c-3.91,2.18-7.84,4.32-11.72,6.55a6.89,6.89,0,0,0-2.78,9.66C5,112.23,6.65,115,8.21,117.82a6.27,6.27,0,0,0,5.24,3.59,10.49,10.49,0,0,0,4.95-1.11c4.94-2.55,9.76-5.36,14.92-8.23v2.06q0,17.72,0,35.42c0,6.2,3.36,9.58,9.58,9.58h77.17c6.13,0,9.44-3.36,9.44-9.51q0-24.21,0-48.4C129.52,96.27,127.45,94.21,122.51,94.21ZM82.94,62.44c1.65-.92,3.29-1.86,5-2.76s2.75-.58,3.69,1.06q2.28,4,4.46,8c.79,1.46.55,2.59-.84,3.37C87,76.74,78.7,81.33,70.28,86l-7-12.61ZM59.1,75.73l7,12.61c-7.13,4-14.21,7.91-21.4,11.93l-7-12.61ZM34.84,74.12q7.11-4.11,14.35-8a4,4,0,0,1,5.38,1.57c.76,1.19,1.41,2.46,2.22,3.88l-21.4,12c-.78-1.41-1.52-2.62-2.14-3.89A4.08,4.08,0,0,1,34.84,74.12ZM12.72,85.52c-4.49-2-7.56-5.23-7.89-10.35-.42-6.48,4.72-11.75,11.56-12.05,4.57-.21,8.71,1.25,12.68,3.31,1.53.8,3,1.75,4.34,2.54l-4.95,4.85c-2.85-.5-5.94-1.1-9-1.55-1.9-.27-3,.51-3.21,2S17.05,76.67,19,77c2.69.47,5.37,1,8,1.61a2.48,2.48,0,0,1,1.26,1.29c1,1.91,1.85,3.88,2.94,6.22A20.33,20.33,0,0,1,27,87.38C22.12,87.76,17.28,87.55,12.72,85.52Zm3.65,30.55c-2.28,1.26-3.14,1-4.43-1.31s-2.73-4.86-4.07-7.31c-.93-1.72-.67-2.77,1-3.69C17,99.18,25.2,94.63,33.55,90c2.35,4.23,4.63,8.31,7,12.52-.39.26-.74.54-1.13.75Zm73.94,38.22H72.49V131.94c0-2-.84-3.07-2.39-3.06S67.75,130,67.75,132q0,10.28,0,20.55v1.87H65.88q-11.38,0-22.76,0c-3.84,0-5-1.2-5-5,0-12.81,0-25.62,0-38.43a2.28,2.28,0,0,1,1.35-2.34c5.41-2.94,10.76-6,16.17-8.93A6.41,6.41,0,0,1,58.38,99c3-.1,6.09,0,9.28,0,0,.68.08,1.24.08,1.79,0,6,0,11.92,0,17.87,0,.43,0,.85,0,1.27a2.34,2.34,0,0,0,2.37,2.43,2.28,2.28,0,0,0,2.35-2.43c0-3.32,0-6.64,0-10V99H90.31Zm34.46-4.23c0,2.8-1.27,4.28-3.91,4.3-8.38.06-16.75,0-25.13,0a1.63,1.63,0,0,1-.42-.14V99c.41,0,.72-.07,1-.08,8.85,0,17.7,0,26.55,0,1.45,0,1.92.55,1.91,2C124.77,117.29,124.79,133.67,124.77,150.06Z"/><path class="cls-1" d="M112.66,13.37c-2.28-.62-5-.63-6.75-1.94s-2.67-3.94-4-6c-1.79-2.82-4.25-2.79-6,.08-1,1.61-1.87,3.3-3,4.85a4.2,4.2,0,0,1-2,1.5c-2,.63-4.08,1-6.1,1.59-2.65.76-3.33,2.94-1.62,5.12,1.2,1.53,2.43,3.05,3.74,4.49a3.58,3.58,0,0,1,1,3.12c-.22,1.56-.27,3.15-.39,4.73h0l-.06.94c-.22,3.34,1.58,4.67,4.74,3.46a34.73,34.73,0,0,0,4.08-1.7,4.82,4.82,0,0,1,5,0,32.12,32.12,0,0,0,4.36,1.83c2.89,1.08,4.81-.4,4.57-3.48-.17-2.11-.42-4.2-.5-6.3a3.38,3.38,0,0,1,.65-2c1.23-1.63,2.61-3.16,3.9-4.76C116.47,16.35,115.8,14.23,112.66,13.37Zm-7.25,9.75c-.64,2-.14,4.45-.14,7.12-4.19-2.84-8.41-2.9-12.79-.14,1.36-5.17,0-9.22-4-12.66,5.27-.3,8.71-2.77,10.28-7.81,1.51,2.17,2.47,4.46,4.17,5.74s4.09,1.46,6.28,2.16C107.87,19.36,106.07,21.06,105.41,23.12Z"/><path class="cls-1" d="M136.63,0a11.84,11.84,0,1,0,11.92,11.77A11.85,11.85,0,0,0,136.63,0Zm.06,18.93a7.09,7.09,0,1,1,7.11-7.12A7.09,7.09,0,0,1,136.69,18.93Z"/><path class="cls-1" d="M120.23,52.6c-.2,8.3-.81,16.56-4.13,24.3a46.55,46.55,0,0,1-4.45,7.4,2.29,2.29,0,0,1-3.46.47,2.26,2.26,0,0,1-.2-3.38c4.1-4.82,5.6-10.65,6.55-16.69a101.88,101.88,0,0,0,.64-23c-.05-.66-.1-1.57.27-2a3.86,3.86,0,0,1,2.33-1.2,2,2,0,0,1,2,2.07c.2,2,.35,4.1.42,6.15S120.23,50.65,120.23,52.6Z"/></g></g></g></svg>