<svg xmlns="http://www.w3.org/2000/svg" viewBox="0 0 132.05 148.68"><defs><style>.cls-1{fill:#f8a94e;}</style></defs><g id="Layer_2" data-name="Layer 2"><g id="Layer_1-2" data-name="Layer 1"><g id="uVltkf.tif"><path class="cls-1" d="M128.84,57.91c-2.47-2.38-4.94-4.78-7.32-7.24a3.63,3.63,0,0,1-.83-2c-.13-1.25,0-2.52-.06-3.77a2,2,0,0,0-2-2,2,2,0,0,0-2.24,1.83,7,7,0,0,0-.06,1.45c0,6.87,0,13.74,0,20.61a3,3,0,0,1-1,2.41q-10.52,10.43-21,20.91c-5.55,5.54-11.11,11.06-16.63,16.63a1.49,1.49,0,0,1-2.2.3c-1.73-1-3.53-2-5.34-2.92a8.93,8.93,0,0,0-8.5.1c-1.76.91-3.51,1.85-5.21,2.86a1.42,1.42,0,0,1-2.09-.29Q35.57,87.9,16.69,69.11a2.91,2.91,0,0,1-.94-2.28c0-11.76,0-23.52,0-35.28,0-4.25,1.81-6.05,6.11-6.05H75.59q17.64,0,35.28,0c3.4,0,5.4,2,5.43,5.42,0,1.54,0,3.09,0,4.64a2.15,2.15,0,0,0,2.26,2.29,2.11,2.11,0,0,0,2.06-2.32c0-1.45,0-2.9,0-4.35,0-6.16-3.89-10-10.08-10-5.95,0-11.91,0-17.86,0a3.56,3.56,0,0,1-2.24-.91Q82.63,12.65,74.91,5C72.82,2.87,70.73.83,67.78,0H64.29c-2.89.83-5,2.8-7,4.86C52.15,10,47,15,41.85,20a3.55,3.55,0,0,1-2.79,1.13c-5.86-.06-11.71,0-17.57,0-6.18,0-10.06,3.88-10.08,10,0,5.8,0,11.61,0,17.42a3.4,3.4,0,0,1-.87,2.11c-2.28,2.37-4.62,4.69-7,6.93A10.57,10.57,0,0,0,0,65.92c.08,7.6,0,15.2,0,22.79C0,91,.65,92,2.12,92s2.26-1,2.26-3.34c0-7.6,0-15.19,0-22.79,0-.78.12-1.56.19-2.4l46.3,46.58L4.38,135.64v-2q0-16.56,0-33.1a6.86,6.86,0,0,0-.17-1.87A1.94,1.94,0,0,0,2,97.26,1.93,1.93,0,0,0,.1,99a7,7,0,0,0-.07,1.3q0,19.15,0,38.32c0,6.29,3.85,10.09,10.16,10.09h78.4c2.26,0,3.27-.65,3.29-2.14s-1-2.22-3.35-2.22H10.72c-.58,0-1.17,0-1.74,0a4.56,4.56,0,0,1-4.29-3.82c.44-.25.9-.52,1.36-.77,18.8-10.34,37.63-20.64,56.39-31a6.72,6.72,0,0,1,7.2,0Q97.42,124,125.27,139.29l2.22,1.24a4.91,4.91,0,0,1-5.14,3.78H100.28a7,7,0,0,0-1.45.05,2.16,2.16,0,0,0,0,4.23,5.09,5.09,0,0,0,1.3.07q11,0,22.07,0c5.91,0,9.85-3.88,9.86-9.8q0-36.66,0-73.31A10.05,10.05,0,0,0,128.84,57.91ZM57.6,10.67c1.61-1.67,3.28-3.29,5-4.87,1.95-1.83,4.67-2.07,6.57-.26C74.43,10.55,79.6,15.7,85.05,21H47.73C50.93,17.65,54.24,14.14,57.6,10.67Zm-46.27,53L7.81,59.92l3.52-3.45Zm109.41-7.52,3.6,3.73-3.6,3.44Zm6.75,79.35L81.15,110.06l46.34-46.6Z"/><path class="cls-1" d="M86.76,52.35C83.4,43,74.55,37.4,64.38,38a21.94,21.94,0,0,0-9,40.95,22.23,22.23,0,0,0,9.8,2.84,2.23,2.23,0,0,0,2.59-2,2.17,2.17,0,0,0-2.18-2.36L64,77.3A17.57,17.57,0,0,1,48.91,56.6C50.56,47,60.37,40.58,70,42.69c8.46,1.86,16.81,11.1,12.08,22.1A7.47,7.47,0,0,1,79.47,68c-2.43,1.59-4.42.37-4.43-2.52,0-3.34,0-6.68,0-10,0-2.27,0-4.55,0-6.82a2,2,0,0,0-1.91-2.16,2.11,2.11,0,0,0-2.38,1.84c-.07.35-.11.71-.17,1.09-6.39-3-12.23-1-14.74,5a13.52,13.52,0,0,0,.72,12.16,12.23,12.23,0,0,0,2.43,3c3.58,3.27,7.49,3.18,12.44-.22A6.54,6.54,0,0,0,78,72.9,8.79,8.79,0,0,0,85.33,68C88,63.05,88.73,57.78,86.76,52.35Zm-18,13.28a4.55,4.55,0,0,1-7.19.39,9.31,9.31,0,0,1-.78-11.49,5.35,5.35,0,0,1,5.3-2.29,5,5,0,0,1,4,3.63,27.45,27.45,0,0,1,.82,3.64A10.57,10.57,0,0,1,68.74,65.63Z"/></g></g></g></svg>