<svg xmlns="http://www.w3.org/2000/svg" viewBox="0 0 72.99 73.37"><defs><style>.cls-1{fill:#f8a94e;}</style></defs><g id="Layer_2" data-name="Layer 2"><g id="Layer_1-2" data-name="Layer 1"><g id="VuSggT.tif"><path class="cls-1" d="M72.87,9.51a1.47,1.47,0,0,0-1.56-.88l-3.79,0h-3V7.81c0-2,0-4,0-5.93a1.86,1.86,0,0,0-1-1.88h-.86c-.3.26-.63.5-.91.78C59.17,3.39,56.59,6,54,8.59a2.17,2.17,0,0,0-.68,1.65c0,2.34,0,4.68,0,7a1.28,1.28,0,0,1-.13.75c-.46.56-1,1.07-1.46,1.56C43.89,12.83,35,10.22,25,12.08A30.67,30.67,0,0,0,.34,37.91c-1.35,10,1.33,18.87,8.49,26,9.29,9.22,20.47,11.79,32.76,7.35A30.62,30.62,0,0,0,59,29.63a46,46,0,0,0-2.7-4.78,1.33,1.33,0,0,0-1.93-.46,1.4,1.4,0,0,0-.39,2c.13.22.28.44.42.66a27.46,27.46,0,0,1,4,20.78A28.1,28.1,0,1,1,37.8,15.18a27.33,27.33,0,0,1,11.75,6.26l-6,6-.22-.17A19.32,19.32,0,0,0,27.45,23a19.67,19.67,0,1,0,22.7,15.84,34.84,34.84,0,0,0-1.81-5.39,1.32,1.32,0,0,0-1.84-.74,1.39,1.39,0,0,0-.69,1.92c.09.21.21.43.31.64a16.41,16.41,0,0,1,1.34,9.9A16.9,16.9,0,1,1,34.93,26.05a16.16,16.16,0,0,1,6.64,3.37l-6,6a8,8,0,0,0-6.12-1.33,8,8,0,0,0-6.78,6.35,8,8,0,0,0,3.13,8.68,8.25,8.25,0,0,0,9.34.48,8.11,8.11,0,0,0,4.09-7.18A1.32,1.32,0,0,0,38.09,41a1.34,1.34,0,0,0-1.53.89,3.86,3.86,0,0,0-.11.84,5.63,5.63,0,1,1-2.7-5.07c-.43.36-.85.67-1.23,1-.92.9-1.84,1.8-2.72,2.74a1.36,1.36,0,0,0,0,1.93,1.4,1.4,0,0,0,1.94,0c.18-.16.34-.33.51-.5Q43.54,31.67,54.79,20.4A1.62,1.62,0,0,1,56,19.89c2.29,0,4.58.05,6.87,0a2.35,2.35,0,0,0,1.44-.59c2.73-2.67,5.4-5.39,8.09-8.1A1.44,1.44,0,0,0,72.87,9.51ZM56.11,14.89c0-1.38,0-2.76,0-4.14a.78.78,0,0,1,.21-.49C58.1,8.53,59.88,6.81,61.72,5a15.51,15.51,0,0,0,0,2.26,3.88,3.88,0,0,1-1.52,3.78c-1.41,1.2-2.64,2.6-3.95,3.91ZM66.88,12.8c-1.26,1.26-2.53,2.52-3.76,3.81a1.55,1.55,0,0,1-1.26.51c-1.18,0-2.36,0-3.55,0l-.19-.28a5.33,5.33,0,0,0,.86-.61c1.45-1.41,2.86-2.87,4.32-4.27a1.67,1.67,0,0,1,1-.45c1.21-.06,2.43,0,3.64,0a1.15,1.15,0,0,1,.14.17C67.7,12,67.28,12.4,66.88,12.8Z"/></g></g></g></svg>