<svg xmlns="http://www.w3.org/2000/svg" viewBox="0 0 63.32 62.38"><defs><style>.cls-1{fill:#f8a94e;}</style></defs><g id="Layer_2" data-name="Layer 2"><g id="Layer_1-2" data-name="Layer 1"><g id="_534xQf.tif" data-name="534xQf.tif"><path class="cls-1" d="M4.86,39.65c-.74.25-1.49.48-2.23.72-1.38.45-1.93.24-2.63-1V38.5a2.34,2.34,0,0,1,1.66-1.33c.72-.19,1.41-.45,2.12-.67a1.7,1.7,0,0,1,2.33,1A1.68,1.68,0,0,1,4.86,39.65Z"/><path class="cls-1" d="M63.32,38.5v.86c-.7,1.25-1.25,1.46-2.63,1-.79-.26-1.57-.5-2.35-.77a1.66,1.66,0,0,1-1.16-2.08,1.68,1.68,0,0,1,2.18-1.09,19.63,19.63,0,0,1,2.74.93A5.18,5.18,0,0,1,63.32,38.5Z"/><path class="cls-1" d="M58.29,24.59A4.19,4.19,0,0,0,56,17.35C51.55,16.7,47.1,16,42.63,15.41a1.46,1.46,0,0,1-1.24-.93c-2-4-3.93-8-5.89-12A4.25,4.25,0,0,0,33.14.28a4.17,4.17,0,0,0-5.29,2.18q-3,6-5.94,12.07a1.45,1.45,0,0,1-1.21.89c-4.38.62-8.76,1.29-13.14,1.9a4.2,4.2,0,0,0-2.45,7.35c3.19,3.08,6.35,6.19,9.53,9.27a1.46,1.46,0,0,1,.48,1.48c-.77,4.31-1.52,8.63-2.22,13A5.79,5.79,0,0,0,13,50.69a4.12,4.12,0,0,0,6,2.46q6-3.1,11.91-6.27a1.47,1.47,0,0,1,1.55,0c2.25,1.21,4.51,2.38,6.77,3.57,1.79.93,3.56,1.9,5.37,2.79a3.86,3.86,0,0,0,4.3-.4,3.93,3.93,0,0,0,1.62-4c-.76-4.51-1.52-9-2.31-13.52a1.32,1.32,0,0,1,.45-1.3Q53.47,29.31,58.29,24.59ZM44.9,36.05c.78,4.34,1.5,8.69,2.26,13,.07.44.08.82-.31,1.1s-.77.11-1.15-.09C41.77,48,37.84,45.94,33.89,43.9a17.17,17.17,0,0,0-2.23-.8,17.55,17.55,0,0,0-2.22.79c-3.93,2-7.84,4.11-11.76,6.17-.38.2-.77.43-1.2.13s-.38-.76-.3-1.22c.77-4.43,1.51-8.85,2.27-13.27a4.3,4.3,0,0,0-1.36-4L7.53,22.35a2,2,0,0,1-.42-.46.82.82,0,0,1,.68-1.22c2.22-.34,4.44-.65,6.66-1l6.91-1a4.38,4.38,0,0,0,3.5-2.6c1.88-3.86,3.8-7.72,5.7-11.57a1.91,1.91,0,0,1,.32-.6c.23-.22.53-.51.81-.52a1,1,0,0,1,.74.51c.45.78.82,1.61,1.22,2.42,1.6,3.23,3.21,6.45,4.77,9.69a4.6,4.6,0,0,0,3.84,2.71c4.32.59,8.64,1.25,13,1.88.43.06.89.1,1,.61s-.16.84-.5,1.17c-3.13,3.05-6.24,6.12-9.39,9.14A4.67,4.67,0,0,0,44.9,36.05Z"/><path class="cls-1" d="M33.31,59.21c0,.56,0,1.12,0,1.67a1.61,1.61,0,0,1-1.66,1.5A1.59,1.59,0,0,1,30,60.85q-.07-1.64,0-3.27a1.58,1.58,0,0,1,1.63-1.53,1.6,1.6,0,0,1,1.65,1.5C33.34,58.1,33.31,58.66,33.31,59.21Z"/><path class="cls-1" d="M15.85,7.48a1.62,1.62,0,0,1-2.3-.39c-.63-.81-1.23-1.65-1.81-2.5a1.57,1.57,0,0,1-.05-1.75A1.82,1.82,0,0,1,13.4,2a4.21,4.21,0,0,1,1.07.75,27.74,27.74,0,0,1,1.76,2.39A1.65,1.65,0,0,1,15.85,7.48Z"/><path class="cls-1" d="M51.48,4.74c-.58.83-1.16,1.65-1.79,2.44a1.56,1.56,0,0,1-1.89.49A1.91,1.91,0,0,1,46.67,6.1a6.44,6.44,0,0,1,.44-1c.53-.78,1.09-1.54,1.66-2.3a1.67,1.67,0,1,1,2.71,1.94Z"/></g></g></g></svg>