<svg xmlns="http://www.w3.org/2000/svg" viewBox="0 0 44.31 44.31"><defs><style>.cls-1{fill:#f8a94e;}</style></defs><g id="Layer_2" data-name="Layer 2"><g id="Layer_1-2" data-name="Layer 1"><g id="Gjp7Do.tif"><path class="cls-1" d="M44,18.33A21.81,21.81,0,0,0,34.39,3.71,21.09,21.09,0,0,0,21.74,0,21.69,21.69,0,0,0,5.55,7.51,21.2,21.2,0,0,0,.21,19.15,21.57,21.57,0,0,0,4.52,35.52a21.64,21.64,0,0,0,13.06,8.3c.91.2,1.85.28,2.77.41l.42.08h2.77c.81-.11,1.63-.19,2.43-.34A21.87,21.87,0,0,0,41.21,33.42a21.13,21.13,0,0,0,3-9.55c0-.11,0-.22.07-.33V20.77C44.2,20,44.12,19.14,44,18.33ZM8.71,6.34c.77-.64,1.61-1.21,2.43-1.8a.54.54,0,0,1,.45,0c1.58,1,3.16,1.89,4.71,2.9A8.34,8.34,0,0,1,19.19,11a3.26,3.26,0,0,1,.25,1.29c0,1,0,1.93,0,2.94-.74-.11-1.37-.19-2-.31a.71.71,0,0,1-.36-.33L13.49,9a2.37,2.37,0,0,0-.22-.33.65.65,0,0,0-.89-.13.64.64,0,0,0-.27.86,2.44,2.44,0,0,0,.24.41Q15.2,14.2,18,18.63a4.75,4.75,0,0,1,.59,1.5A1.31,1.31,0,0,1,18,21.57a1.44,1.44,0,0,1-1.71,0,4.16,4.16,0,0,1-1-1A71.75,71.75,0,0,0,9.76,14a3.58,3.58,0,0,0-2.13-.94A5.49,5.49,0,0,1,4.8,11.77c-.09-.08-.16-.17-.24-.25a1,1,0,0,1-.11-.15A19.61,19.61,0,0,1,8.71,6.34ZM7.39,17.44a3.52,3.52,0,0,0,.45,1.27,18.2,18.2,0,0,0,1.07,1.67.37.37,0,0,1-.08.58.82.82,0,0,1-1.38-.2c-.67-1.3-1.29-2.62-1.91-4a1.12,1.12,0,0,1,0-.7c.22-.64.51-1.27.77-1.92l1.22.29a11.51,11.51,0,0,0-.12,1.15A11.07,11.07,0,0,0,7.39,17.44ZM8.75,16.3a12.37,12.37,0,0,0,.11-1.25l2.4,2.69-1.11,1.94C9.49,18.6,8.49,17.72,8.75,16.3Zm-5-3.57,1.3,1c-.16.4-.32.82-.5,1.24a3.31,3.31,0,0,0,0,3C5,19,5.52,20,6,21a2.43,2.43,0,0,0,2.43,1.63c-.08.16-.12.28-.18.38-.37.65-.76,1.29-1.13,1.94a.67.67,0,0,0,.27,1Q9.7,27.34,12,28.66a.68.68,0,1,0,.68-1.18c-1.16-.69-2.32-1.36-3.47-2l-.54-.32,3.61-6.22c.66.88,1.27,1.74,1.91,2.57a4,4,0,0,0,2.58,1.74A2.94,2.94,0,0,0,20,19.87l-.07-.5.76.41a.68.68,0,1,0,.65-1.18c-.76-.44-1.54-.85-2.29-1.31a5.06,5.06,0,0,1-.73-.66s.05-.08.07-.13l2,.31,2.86.47a.74.74,0,0,0,1-.57c.06-.4-.19-.72-.7-.81-.78-.14-1.56-.29-2.34-.39-.38,0-.43-.2-.42-.52,0-.87,0-1.73.08-2.6A4.71,4.71,0,0,0,20.28,10,10.29,10.29,0,0,0,16.59,5.9l-3.4-2.07-.38-.23A20.69,20.69,0,0,1,36.25,7L6.91,36.2A20.48,20.48,0,0,1,3.72,12.73ZM37,36.67A20.62,20.62,0,0,1,8,37.3L37.36,8.05A20.64,20.64,0,0,1,37,36.67Z"/><path class="cls-1" d="M39.39,19.65,37.05,31.39c-.13.63-.4.83-1,.73-1.14-.18-2.28-.35-3.41-.57-.32-.06-.43,0-.56.29L29,37.37c-.36.67-.66.75-1.32.36L17.05,31.58l-.11-.07a.69.69,0,1,1,.7-1.17l3.59,2.07,6.29,3.64.53.29c1.74-3.16,3.49-6.3,5.24-9.47l-.39-.24q-3.36-1.87-6.7-3.77c-.19-.11-.43-.29-.47-.47a.86.86,0,0,1,.18-.7.89.89,0,0,1,.69-.14,2.64,2.64,0,0,1,.76.4c2.31,1.28,4.61,2.58,6.9,3.87.7.39.77.64.38,1.36l-1.68,3,2.83.48c.72-3.59,1.43-7.16,2.15-10.77l-3.62-.63-4-.7a.69.69,0,0,1-.62-.79.7.7,0,0,1,.88-.56l8.16,1.44C39.36,18.8,39.51,19,39.39,19.65Z"/></g></g></g></svg>