<svg xmlns="http://www.w3.org/2000/svg" viewBox="0 0 43.74 34.49"><defs><style>.cls-1{fill:#f8a94e;}</style></defs><g id="Layer_2" data-name="Layer 2"><g id="Layer_1-2" data-name="Layer 1"><g id="_4kW8tM.tif" data-name="4kW8tM.tif"><path class="cls-1" d="M42.44,16.32h-26l-.05-.18a4.46,4.46,0,0,0-4.13-3.26,4.29,4.29,0,0,0-4.21,3.17c-.1.31-.27.27-.48.27H1.22a2,2,0,0,0-.59.07.9.9,0,0,0-.62,1,.91.91,0,0,0,.74.83,4.35,4.35,0,0,0,.51,0H7.5a.53.53,0,0,1,.62.44,4.36,4.36,0,0,0,4.08,3,4.26,4.26,0,0,0,4.1-3A.57.57,0,0,1,17,18.2h25.5a1.16,1.16,0,0,0,1.27-.7V17A1.29,1.29,0,0,0,42.44,16.32ZM12.19,19.78a2.49,2.49,0,0,1-2.47-2.52,2.5,2.5,0,1,1,2.47,2.52Z"/><path class="cls-1" d="M43,3.49a2.88,2.88,0,0,0-.59-.05H25.84c-.33,0-.49-.07-.6-.41A4.3,4.3,0,0,0,22.42.22C22.18.13,21.94.07,21.7,0H20.59a1.13,1.13,0,0,1-.24.08A4.23,4.23,0,0,0,17,3a.53.53,0,0,1-.62.44H1.34a3.28,3.28,0,0,0-.63.05A.92.92,0,0,0,0,4.43a.9.9,0,0,0,.8.87,5,5,0,0,0,.55,0c5,0,10,0,15,0a.56.56,0,0,1,.65.46,4.37,4.37,0,0,0,4.1,3,4.28,4.28,0,0,0,4.08-3,.55.55,0,0,1,.64-.47c5.49,0,11,0,16.49,0h.55a.89.89,0,0,0,.81-.85A.88.88,0,0,0,43,3.49ZM21.17,6.93a2.5,2.5,0,0,1-2.54-2.5A2.46,2.46,0,0,1,21.12,2a2.49,2.49,0,1,1,.05,5Z"/><path class="cls-1" d="M42.59,29.17H35.12c-.39,0-.58-.07-.72-.49a4.35,4.35,0,0,0-4.11-3,4.26,4.26,0,0,0-4.07,3.07c-.11.33-.26.39-.57.39H1.35a3.32,3.32,0,0,0-.55,0,.91.91,0,0,0-.8.86A.9.9,0,0,0,.71,31a2.64,2.64,0,0,0,.63.05H25.56a.52.52,0,0,1,.62.43,4.39,4.39,0,0,0,4.13,3,4.28,4.28,0,0,0,4.08-3.06.44.44,0,0,1,.53-.38h7.47a2.55,2.55,0,0,0,.55,0,.89.89,0,0,0,.74-.91C43.68,29.52,43.28,29.18,42.59,29.17Zm-12.3,3.49a2.5,2.5,0,1,1,2.49-2.5A2.48,2.48,0,0,1,30.29,32.66Z"/></g></g></g></svg>