<svg xmlns="http://www.w3.org/2000/svg" viewBox="0 0 38.94 44.53"><defs><style>.cls-1{fill:#f8a94e;}</style></defs><g id="Layer_2" data-name="Layer 2"><g id="Layer_1-2" data-name="Layer 1"><g id="L2KnY9.tif"><path class="cls-1" d="M38.89,19.67a4.18,4.18,0,0,0-2.48-3.93,13.82,13.82,0,0,0-1.64-.56c-.13-1-.21-2.1-.42-3.13a14.72,14.72,0,0,0-4-7.44,14.37,14.37,0,0,0-6.75-4C22.55.33,21.44.2,20.35,0H18.61c-1.09.2-2.2.33-3.28.6a14.47,14.47,0,0,0-6.75,4,14.63,14.63,0,0,0-4,7.44c-.22,1-.29,2.09-.43,3.13a14.59,14.59,0,0,0-1.71.61A4.26,4.26,0,0,0,.09,19.24c0,.11-.06.22-.09.33V28.7c0,.17.07.33.09.51A4.27,4.27,0,0,0,3.59,33a28.8,28.8,0,0,0,3.72.22c.78,0,1.08-.3,1.08-1.07q0-8,0-15.91c0-.79-.3-1.08-1.07-1.08H5.92c.23-5.22,2.43-9.26,7-11.77A12.88,12.88,0,0,1,27,4a13.17,13.17,0,0,1,6,11.21H31.53a.87.87,0,0,0-1,1V32.28c0,.65.34.93,1,.95H33c-.05.57-.09,1.09-.16,1.6a5.93,5.93,0,0,1-2.6,4.51,8.64,8.64,0,0,1-3.41,1.09c-.8.11-1.6.15-2.41.23a7.55,7.55,0,0,0-.06-.78,1.57,1.57,0,0,0-1.52-1.46c-1.87,0-3.74,0-5.61,0A1.54,1.54,0,0,0,15.73,40c0,.95,0,1.91,0,2.87a1.61,1.61,0,0,0,1.67,1.63c1.78,0,3.57,0,5.35,0a1.67,1.67,0,0,0,1.67-1.66c0-.16,0-.33,0-.4,1.56-.25,3-.4,4.49-.74A6.7,6.7,0,0,0,33.68,38a11,11,0,0,0,1-4.25c0-.43.17-.57.58-.65a4.18,4.18,0,0,0,3.6-4C39,25.93,39,22.8,38.89,19.67ZM6.67,16.76V31.61a22.64,22.64,0,0,1-2.77-.24c-1.46-.32-2.2-1.39-2.22-3.1s0-3.56,0-5.35c0-1.14,0-2.29.08-3.42A2.66,2.66,0,0,1,4.1,16.93,23.76,23.76,0,0,1,6.67,16.76Zm16,25.85a.37.37,0,0,1-.27.23h-5V40.12h5.32C22.73,41,22.74,41.79,22.72,42.61Zm14.56-21.7c0,2.51,0,5-.06,7.52a2.92,2.92,0,0,1-3,3.11c-.63.05-1.27,0-1.94,0V16.89c.7,0,1.39-.05,2.06,0a2.94,2.94,0,0,1,2.92,3A8.32,8.32,0,0,1,37.28,20.91Z"/></g></g></g></svg>