<svg xmlns="http://www.w3.org/2000/svg" viewBox="0 0 41.77 43.14"><defs><style>.cls-1{fill:#f8a94e;}</style></defs><g id="Layer_2" data-name="Layer 2"><g id="Layer_1-2" data-name="Layer 1"><g id="lurpHD.tif"><path class="cls-1" d="M39.75,25.3v-.52c0-1.72,0-3.45,0-5.17a2.9,2.9,0,0,0-1-2.25.73.73,0,0,1-.18-.42c0-.31,0-.62-.05-.92a2.09,2.09,0,0,0-2-1.67h-.48l.25-.4c.51-.76,1-1.51,1.54-2.26a2,2,0,0,0-.53-2.82L24.87.39A2,2,0,0,0,22,1.05q-5.21,7.62-10.4,15.27a.81.81,0,0,1-.78.42c-.82,0-1.64,0-2.51,0,.12-1.17.22-2.28.33-3.4s.24-2.4.35-3.6a.68.68,0,0,1,.46-.66,4.09,4.09,0,0,0,1.86-1.53.54.54,0,0,1,.59-.27c1.43.16,2.85.29,4.28.43.5,0,.8-.13.85-.52s-.22-.64-.75-.7L11.8,6.05a1.43,1.43,0,0,0-1.42.64,3.71,3.71,0,0,1-1.7,1.38,1.43,1.43,0,0,0-.92,1.3c-.23,2.25-.45,4.49-.67,6.74-.07.69-.08.7-.83.56l.31-3.17q.4-4.12.82-8.24c.07-.64.34-.86,1-.8l9.17.9c.51,0,.84-.15.87-.55s-.25-.62-.75-.67l-9-.9A2.06,2.06,0,0,0,6.14,5.29c-.27,2.92-.57,5.84-.85,8.76,0,.08,0,.16-.07.3H3.9a2.11,2.11,0,0,0-2.3,2.27.53.53,0,0,1-.29.52A2.59,2.59,0,0,0,0,19.45Q0,29.92,0,40.38a2.71,2.71,0,0,0,2.08,2.68l.18.08h35.2l.23-.09a2.72,2.72,0,0,0,2-2.66c0-1.77,0-3.53,0-5.29v-.53a1.65,1.65,0,0,0,2-1V26.29A1.66,1.66,0,0,0,39.75,25.3Zm-3.32-9.71c.67,0,1,.43.88,1.13H34.64l-.2,0c.25-.36.47-.7.72-1,0-.05.17-.06.27-.06Zm-23.38.72,9.87-14.5c.46-.66.79-.73,1.47-.27l12,8.2c.67.46.73.79.27,1.46-1.14,1.68-2.29,3.36-3.43,5.05-.37.54-.48.58-1.22.4.56-.81,1.1-1.62,1.65-2.43a3.89,3.89,0,0,0,.35-.58A1.35,1.35,0,0,0,34,12.39a3.71,3.71,0,0,1-.41-2.2A1.33,1.33,0,0,0,33,8.91L26.41,4.43A1.33,1.33,0,0,0,25,4.36a4,4,0,0,1-2.29.41,1.47,1.47,0,0,0-1.4.77q-2.43,3.6-4.9,7.2L14,16.25c-.37.54-.48.58-1.21.41C12.9,16.54,13,16.42,13.05,16.31ZM24.31,12.1a5.06,5.06,0,0,0-5.95,4.24c0,.29-.13.4-.44.39-.88,0-1.75,0-2.7,0,.11-.19.18-.3.26-.42C17.73,13,20,9.68,22.24,6.36A.67.67,0,0,1,23,6a4.23,4.23,0,0,0,2.37-.45.56.56,0,0,1,.65.05C28,7,30,8.37,32,9.73a.6.6,0,0,1,.3.63,4.62,4.62,0,0,0,.47,2.45.7.7,0,0,1,0,.55c-.69,1.05-1.4,2.08-2.11,3.1-.07.11-.19.25-.3.25-.64,0-1.28,0-1.94,0A5.14,5.14,0,0,0,24.31,12.1Zm2.83,4.61H19.6c-.15-1.58,1.62-3.33,3.48-3.46A3.81,3.81,0,0,1,27.14,16.71ZM3.81,15.59H5.12c0,.33,0,.63-.09.91a.32.32,0,0,1-.23.21c-.64,0-1.28,0-1.94,0C2.81,15.93,3.11,15.6,3.81,15.59Zm-2.54,3.6A1.45,1.45,0,0,1,2.63,18c.14,0,.28,0,.42,0H36.69c1.28,0,1.82.53,1.82,1.81v1.37H1.26C1.26,20.47,1.22,19.82,1.27,19.19ZM38.45,40.78a1.38,1.38,0,0,1-1.27,1.11,3,3,0,0,1-.42,0q-16.89,0-33.77,0a2.23,2.23,0,0,1-1.11-.28,1.35,1.35,0,0,1-.57-.82,16,16,0,0,1,0-2.09H4.4c.49,0,.74-.22.75-.61s-.25-.61-.74-.61H1.27v-15H38.48v2.84H38c-1.83,0-3.66,0-5.48,0a4.6,4.6,0,0,0-4.41,3.65,4.65,4.65,0,0,0,4.68,5.65c1.72,0,3.43,0,5.14,0h.53v2.89H8.92a4.13,4.13,0,0,0-.5,0,.57.57,0,0,0-.55.59.56.56,0,0,0,.53.6,2.79,2.79,0,0,0,.5,0H38.47A20.47,20.47,0,0,1,38.45,40.78Zm2.09-7.86c0,.33-.08.46-.44.46-1.27,0-2.53,0-3.79,0s-2.44,0-3.66,0a3.42,3.42,0,0,1-.76-6.76,4.24,4.24,0,0,1,1-.1H40c.38,0,.51.1.5.5C40.52,29,40.53,30.94,40.54,32.92Z"/><path class="cls-1" d="M32.82,27.45a2.49,2.49,0,1,0,2.48,2.49A2.49,2.49,0,0,0,32.82,27.45Zm0,3.74a1.26,1.26,0,0,1,0-2.52A1.31,1.31,0,0,1,34.09,30,1.28,1.28,0,0,1,32.8,31.19Z"/></g></g></g></svg>