<svg xmlns="http://www.w3.org/2000/svg" viewBox="0 0 46.11 38.34"><defs><style>.cls-1{fill:#f8a94e;}</style></defs><g id="Layer_2" data-name="Layer 2"><g id="Layer_1-2" data-name="Layer 1"><g id="FvbskH.tif"><path class="cls-1" d="M36.58,4.16a2.9,2.9,0,0,0-2.5-2.71,2.84,2.84,0,0,0-3.15,2,2.06,2.06,0,0,1-.75,1.12,22.64,22.64,0,0,1-13,5.11c-2.38.18-4.77.16-7.15.29a19.1,19.1,0,0,0-5.64,1.08,6.08,6.08,0,0,0-4.2,4.48c-.09.36-.15.73-.22,1.09v2c0,.13.07.25.09.39A5.74,5.74,0,0,0,3,23.49c.57.32,1.21.54,1.79.83a2.94,2.94,0,0,1,.87.6,9.16,9.16,0,0,1,1.74,3,20.93,20.93,0,0,1,1.17,6.16,4.13,4.13,0,0,0,3.81,4.21c1,.08,1.93,0,2.89,0a1.81,1.81,0,0,0,.56-.12,2.31,2.31,0,0,0-.58-4.5c-.46,0-.74-.2-.79-.68-.11-1.18-.22-2.35-.34-3.57,2.21-.38,4-1.32,4.45-3.79.82.16,1.59.28,2.35.46a22.13,22.13,0,0,1,9.41,4.67,1.66,1.66,0,0,1,.58.92,2.9,2.9,0,0,0,5.69-.9V4.43A2.53,2.53,0,0,0,36.58,4.16ZM15,35c.69.06,1.08.45,1.05,1s-.45.9-1.12.91S13.64,37,13,37A2.83,2.83,0,0,1,9.91,34,21.18,21.18,0,0,0,8.82,28C8.46,27,8,26,7.56,25c1.24.11,2.54.21,3.83.36.14,0,.32.21.36.36.36,1.42.75,2.84,1,4.27.2,1.06.23,2.15.36,3.22A1.94,1.94,0,0,0,15,35Zm-1.14-7c-.24-.87-.47-1.72-.71-2.57h4C17.12,26.83,15.6,28,13.86,28.07Zm16.89,1.29A25.15,25.15,0,0,0,15.4,24.09V16.72c0-.53-.26-.82-.7-.8s-.64.3-.64.81c0,1.87,0,3.75,0,5.62v1.7H12.48a28.21,28.21,0,0,1-6.9-.9c-.31-.09-.62-.21-.93-.32a4.76,4.76,0,0,1-3.27-4.51,12.43,12.43,0,0,1,.1-2.2,4.54,4.54,0,0,1,3-3.6,13.81,13.81,0,0,1,4.27-1c1.75-.17,3.5-.26,5.33-.4v1.42c0,.45,0,.91,0,1.35a.69.69,0,0,0,.7.68.68.68,0,0,0,.64-.69c0-.72,0-1.44,0-2.16v-.53A25.16,25.16,0,0,0,30.75,5.9Zm4.49-22V30.75A1.57,1.57,0,0,1,34,32.45a1.55,1.55,0,0,1-1.87-1.3,3.53,3.53,0,0,1,0-.46q0-13.05,0-26.11a2.84,2.84,0,0,1,.06-.71,1.56,1.56,0,0,1,1.72-1.08,1.52,1.52,0,0,1,1.31,1.44C35.25,5.26,35.24,6.3,35.24,7.34Z"/><path class="cls-1" d="M44.23,1.34,40.1,5.47a1.26,1.26,0,0,1-.31.26.57.57,0,0,1-.8-.14,1.35,1.35,0,0,1-.08-.78c0-.13.19-.25.31-.37,1.31-1.31,2.62-2.63,3.94-3.93A7.64,7.64,0,0,1,43.78,0h.27C44.72.4,44.77.8,44.23,1.34Z"/><path class="cls-1" d="M46.11,17.62c0,.42-.3.68-.86.68h-6c-.52,0-.83-.27-.83-.68s.32-.67.85-.67h5.94C45.79,17,46.1,17.2,46.11,17.62Z"/><path class="cls-1" d="M44.37,35.05a.7.7,0,0,1-1-.12c-1.43-1.41-2.84-2.84-4.27-4.26a.64.64,0,0,1-.19-.84c.11-.2.36-.31.57-.49a4.81,4.81,0,0,1,.58.39L44.3,34A.7.7,0,0,1,44.37,35.05Z"/></g></g></g></svg>