<svg xmlns="http://www.w3.org/2000/svg" viewBox="0 0 81.05 65.85"><defs><style>.cls-1{fill:#f8a94e;}</style></defs><g id="Layer_2" data-name="Layer 2"><g id="Layer_1-2" data-name="Layer 1"><g id="_1cZKmu.tif" data-name="1cZKmu.tif"><path class="cls-1" d="M80.61,17.89l-.13-.24c-2.85-5-5.71-9.94-8.52-14.94A5,5,0,0,0,68.86,0H12.19a5.07,5.07,0,0,0-3.1,2.71C6.24,7.79,3.33,12.83.44,17.89c-.13.22-.29.42-.44.63v1.74c.13.54.24,1.07.39,1.6a10.88,10.88,0,0,0,4.14,6,1.11,1.11,0,0,1,.55,1q0,17,0,33.91c0,.2,0,.41,0,.63-.88.22-2-.33-2.45.94-.23.71.26,1.12.73,1.5H77.73c.47-.38,1-.82.71-1.49-.17-.36-.64-.61-1-.87-.1-.07-.31,0-.46,0H76V62.7Q76,45.83,76,29a1.2,1.2,0,0,1,.55-1.11,10.77,10.77,0,0,0,4.39-7.14,2.49,2.49,0,0,1,.14-.44V18.52C80.91,18.31,80.74,18.11,80.61,17.89ZM67.23,63.42H54.47V59.57H67.23ZM54.46,57.06V35.43H67.2V57.06Zm19.09,6.36H69.64V34.86c0-1.54-.3-1.84-1.84-1.84h-14c-1.46,0-1.75.29-1.75,1.76V63.41H7.51V29.49c5.7,1.42,10.16-.34,13.35-5.43,2.22,3.72,5.42,5.9,9.82,5.9s7.6-2.14,9.84-5.93C42.77,27.8,46,30,50.35,30S58,27.82,60.2,24a11.21,11.21,0,0,0,13.35,5.45ZM22.21,20.19h17c-.26,4-4.27,7.47-8.59,7.41A8.47,8.47,0,0,1,22.21,20.19Zm19.68,0h17c-.28,4.08-4.3,7.51-8.63,7.42S42,24,41.89,20.18Zm33.26,5.73a8.27,8.27,0,0,1-9,.77,8.34,8.34,0,0,1-4.7-6.54h7.83c1,0,1.56-.4,1.59-1.14s-.57-1.23-1.6-1.23H12.08c-.24,0-.48,0-.72,0A1.22,1.22,0,0,0,10.15,19a1.18,1.18,0,0,0,1.26,1.14c2.4,0,4.8,0,7.21,0h.83c.11,3.77-4.17,7.49-8.47,7.46s-8.52-3.73-8.4-7.46H6.11a1.16,1.16,0,0,0,1.31-1,1.18,1.18,0,0,0-1.26-1.37c-.92,0-1.84,0-2.88,0,.17-.32.27-.55.4-.77,2.57-4.51,5.16-9,7.71-13.53a2,2,0,0,1,1.91-1.1H67.76a1.79,1.79,0,0,1,1.78.91c2.65,4.67,5.33,9.34,8,14l.24.48H75a1.23,1.23,0,0,0-1.32.91,1.17,1.17,0,0,0,1.23,1.45c1.18,0,2.37,0,3.71,0A8.34,8.34,0,0,1,75.15,25.91Z"/><path class="cls-1" d="M81.05,18.52c-.14-.21-.31-.41-.44-.63l-.13-.24Z"/><path class="cls-1" d="M46.29,33H13.14c-1.38,0-1.73.34-1.73,1.72v23c0,1.37.36,1.73,1.73,1.73H46.3c1.42,0,1.77-.34,1.77-1.78V34.78C48.07,33.33,47.75,33,46.29,33Zm-.67,24H13.83V35.44H45.62Z"/></g></g></g></svg>