<svg xmlns="http://www.w3.org/2000/svg" viewBox="0 0 76.24 80.51"><defs><style>.cls-1{fill:#f8a94e;}</style></defs><g id="Layer_2" data-name="Layer 2"><g id="Layer_1-2" data-name="Layer 1"><g id="LaV2oD.tif"><path class="cls-1" d="M56.11,39.4a47.58,47.58,0,0,0-9.56-17.86A36,36,0,0,0,36,12.42a12.38,12.38,0,0,0-7.38-1.81,5.69,5.69,0,0,0-4.73,3.23q-6,12.22-12.06,24.44a3.19,3.19,0,0,1-1,1.15C8.7,40.9,6.54,42.3,4.43,43.77A9.77,9.77,0,0,0,0,52,10.44,10.44,0,0,0,10.76,62.54a10.3,10.3,0,0,0,5.15-1.64l.56.8L27,77.23a7.17,7.17,0,0,0,2.85,2.53,18.61,18.61,0,0,0,2.05.75h1.42a3.12,3.12,0,0,1,.43-.15,6.18,6.18,0,0,0,5.15-5.53,6.41,6.41,0,0,0-1.23-4.61Q33,63.38,28.39,56.52l-.52-.79c.33-.06.55-.11.78-.13Q39.81,54.72,51,53.83a5.67,5.67,0,0,0,3.11-1.23,7.46,7.46,0,0,0,2.6-4.55A18.75,18.75,0,0,0,56.11,39.4Zm-42,19a6.89,6.89,0,0,1-9.66-2.16A6.88,6.88,0,0,1,6,46.49c2-1.46,4.15-2.84,6.27-4.28L20.36,54.1c-.21.16-.39.3-.58.43C17.89,55.82,16,57.14,14.1,58.37ZM35.17,72.05a3.29,3.29,0,1,1-5.44,3.66L20.17,61.64c-.55-.8-1.09-1.61-1.67-2.47,1.5-1,2.9-2,4.32-2.93a1.28,1.28,0,0,1,1.92.42Q30,64.36,35.17,72.05Zm3.1-20.3L24,52.89a1,1,0,0,1-1-.5c-2.69-4-5.4-8-8.08-12a1.18,1.18,0,0,1-.13-1c2.63-5.44,5.3-10.85,8-16.27a1.33,1.33,0,0,1,.14-.19A49.1,49.1,0,0,0,42.1,51.42Zm15.26-4.94a5.08,5.08,0,0,1-1.43,2.84,3.65,3.65,0,0,1-3.52,1.07,16.72,16.72,0,0,1-7-3.63,45.42,45.42,0,0,1-15.23-23,15.64,15.64,0,0,1-.42-1.92c-.13-.88-.2-1.77-.3-2.7.05-.67.07-1.39.18-2.09.49-2.86,2.49-4.17,5.32-3.5a17.53,17.53,0,0,1,6.59,3.42A44.63,44.63,0,0,1,48.46,29.64a36.12,36.12,0,0,1,4.83,11.23A14.69,14.69,0,0,1,53.53,46.81Z"/><path class="cls-1" d="M76.24,32.39v.79a1.78,1.78,0,0,1-2.36,1.13L62,32.19c-.93-.17-1.48-.69-1.52-1.46a1.42,1.42,0,0,1,1-1.54,2.35,2.35,0,0,1,1.15-.05c4.06.71,8.13,1.41,12.17,2.2C75.33,31.45,75.76,32,76.24,32.39Z"/><path class="cls-1" d="M71,14.68q-5.22,3.45-10.47,6.85a3.67,3.67,0,0,1-.82.34A1.6,1.6,0,0,1,58,20.81,1.5,1.5,0,0,1,58.72,19c2.38-1.58,4.77-3.14,7.16-4.71,1.12-.74,2.23-1.48,3.35-2.2a1.6,1.6,0,0,1,2.36.32A1.58,1.58,0,0,1,71,14.68Z"/><path class="cls-1" d="M54.4,1.82q-.59,5.72-1.19,11.43a1.51,1.51,0,0,1-1.66,1.5A1.54,1.54,0,0,1,50.14,13c.31-3,.62-6.13.94-9.23.07-.76.15-1.51.23-2.27a1.56,1.56,0,1,1,3.09.32Z"/><path class="cls-1" d="M42.23,40.76a3.6,3.6,0,0,1-1,.6A1.54,1.54,0,0,1,40,38.6,5.37,5.37,0,0,0,42.2,35a5.32,5.32,0,0,0-7.75-5.46c-.21.1-.41.25-.62.35a1.55,1.55,0,0,1-1.58-2.66,7.86,7.86,0,0,1,3.92-1.42c4.41,0,7.58,2.24,8.77,5.65A8.4,8.4,0,0,1,42.23,40.76Z"/></g></g></g></svg>