<svg xmlns="http://www.w3.org/2000/svg" viewBox="0 0 82.24 82.23"><defs><style>.cls-1{fill:#f8a94e;}</style></defs><g id="Layer_2" data-name="Layer 2"><g id="Layer_1-2" data-name="Layer 1"><g id="MrjIhq.tif"><path class="cls-1" d="M80.81,65.26C79.55,60,78.32,54.7,77.06,49.43a9.62,9.62,0,0,0-7.9-7.68C65.55,41,62,40.16,58.35,39.36c-1.1-.25-1.42-.73-1.53-1.83a2.64,2.64,0,0,1,1.24-2.64,13.07,13.07,0,0,0,5.2-10.15c0-.34,0-.69,0-1a1.27,1.27,0,0,1,.09-.2,4.31,4.31,0,0,0,3.39-1.61,4,4,0,0,0,.86-2.77c-.1-2.14-1.73-3.63-4.35-3.89v-.84q0-4,0-7.95A6,6,0,0,0,58.36.11.84.84,0,0,1,58.15,0H41.61a.72.72,0,0,1-.22.1,6,6,0,0,0-4.93,6.3c0,2,0,4,0,5.94V15.2c-2.83.41-4.3,1.8-4.37,4A4,4,0,0,0,33,21.92a4.26,4.26,0,0,0,3.5,1.59c0,.37,0,.68,0,1A13.16,13.16,0,0,0,42,35.2,1.62,1.62,0,0,1,42.89,37a2.8,2.8,0,0,0,0,.41c0,1.26-.37,1.74-1.59,2-3.37.76-6.72,1.57-10.1,2.22-4.41.85-7.41,3.21-8.5,7.66-1.71,7.06-3.36,14.14-5,21.21A4.41,4.41,0,0,0,21,76.13c2.1.63,4.19,1.28,6.33,1.93,0,.46,0,.88,0,1.31a2.73,2.73,0,0,0,2.88,2.86H69.38a2.6,2.6,0,0,0,2.78-1.73,5.28,5.28,0,0,0,.23-1.73c0-.56.18-.78.71-.93,1.67-.47,3.3-1.08,5-1.5a5.17,5.17,0,0,0,4.15-3.75V71C81.76,69.08,81.26,67.17,80.81,65.26ZM63.28,17.77a1.63,1.63,0,0,1,1.94,1.54c0,1-.72,1.73-1.94,1.71ZM36.43,21a1.29,1.29,0,0,1-1.56-.63,2.56,2.56,0,0,1-.17-1.7,1.53,1.53,0,0,1,1.73-1Zm2.44,3.49c0-2.25,0-4.49,0-6.72l5.07-.91c.26-.05.52-.13.78-.2a1.27,1.27,0,0,0,1-1.54c-.19-.68-.84-1-1.69-.8-1.1.24-2.19.5-3.29.7-.6.12-1.21.14-1.92.21V13.34q0-3.57,0-7.14a3.58,3.58,0,0,1,3.77-3.79q7.23,0,14.46,0a3.58,3.58,0,0,1,3.75,3.5c.06,2.89,0,5.78,0,8.81-.32-.15-.58-.24-.81-.37a11.49,11.49,0,0,1-4.32-4.1c-.86-1.37-1.85-1.5-3.13-.51-1.06.82-2.16,1.57-3.26,2.32-.74.51-1,1.12-.63,1.75a1.23,1.23,0,0,0,1.88.31c1.1-.7,2.17-1.45,3.33-2.22a14.25,14.25,0,0,0,6.59,5.34.63.63,0,0,1,.34.44c-.08,3,.16,6.09-.35,9a10.76,10.76,0,0,1-11.82,8.59A11,11,0,0,1,38.87,24.49ZM45.29,37a14,14,0,0,0,9.15,0,4.27,4.27,0,0,0,1.64,4c-2.74,3.08-8.92,3.6-12.47,0A4.38,4.38,0,0,0,45.29,37ZM27.72,75.64c-2.15-.62-4.29-1.26-6.42-2a2,2,0,0,1,1.11-3.87c1.61.37,3.21.76,4.91,1.17a6.15,6.15,0,0,0,1.34,4.54A2.74,2.74,0,0,1,27.72,75.64ZM70,78.35c0,1.8,0,1.46-1.46,1.46q-18.91,0-37.83,0c-.83,0-1.12-.26-1-1a1.34,1.34,0,0,0,0-.4c-.1-.75.17-1,1-1,6.36,0,12.74,0,19.11,0s12.85,0,19.27,0C69.84,77.39,70,77.64,70,78.35ZM68.08,47.46a7.64,7.64,0,0,0-1.59-.12q-16.63,0-33.25,0c-3.71,0-5.92,2.24-5.92,6,0,1.75,0,3.48,0,5.22,0,1.09.41,1.66,1.18,1.68s1.22-.57,1.22-1.64c0-1.84,0-3.69,0-5.54A3,3,0,0,1,33,49.75H66.78A3,3,0,0,1,70,53q0,9.39,0,18.79A3,3,0,0,1,66.76,75H33a3,3,0,0,1-3.22-3.23c0-2.27,0-4.55,0-6.83,0-1-.45-1.54-1.24-1.51s-1.16.55-1.16,1.51c0,1.15,0,2.3,0,3.49-2.17-.23-4.14-1.29-6.42-1,.37-1.61.75-3.18,1.12-4.75,1-4.32,2-8.64,3.07-13a7,7,0,0,1,5.48-5.46c3.28-.78,6.58-1.47,9.87-2.16a1.21,1.21,0,0,1,1,.27,11.73,11.73,0,0,0,17,0,1.24,1.24,0,0,1,.95-.26c3.27.68,6.54,1.37,9.79,2.14a6.9,6.9,0,0,1,5.51,5.34c1.41,5.76,2.75,11.54,4.12,17.31a2.84,2.84,0,0,1,.05.29l-6.35,1.28v-1c0-4.79,0-9.58,0-14.37A5.46,5.46,0,0,0,68.08,47.46ZM78.36,73.71c-2.1.67-4.22,1.31-6.34,1.93a3.3,3.3,0,0,1-1-.08,6.3,6.3,0,0,0,1.38-4.06.83.83,0,0,1,.5-.62c1.44-.39,2.89-.72,4.35-1a2,2,0,0,1,1.08,3.88Z"/><path class="cls-1" d="M27.29,22.57a5.12,5.12,0,0,0-5.36-5.42H5.39A5.11,5.11,0,0,0,0,22.54v9.07a5.17,5.17,0,0,0,5.5,5.47c3.05,0,6.1,0,9.15,0a1.55,1.55,0,0,1,1.43.65c.52.7,1.12,1.36,1.7,2a1.74,1.74,0,0,0,2.08.58,1.81,1.81,0,0,0,1.2-1.81c0-.44,0-.89,0-1.38.32,0,.55,0,.79,0a5.18,5.18,0,0,0,5.44-5.45C27.31,28.61,27.3,25.59,27.29,22.57Zm-2.41,9.12a2.78,2.78,0,0,1-3,3h-.65c-1.84,0-2.3.38-2.66,2.24-.34-.4-.68-.73-1-1.11a2.75,2.75,0,0,0-2.5-1.14c-3.18,0-6.36,0-9.55,0a2.8,2.8,0,0,1-3.14-3.1v-9a2.75,2.75,0,0,1,3-3H21.89a2.74,2.74,0,0,1,3,3Q24.9,27.12,24.88,31.69Z"/><path class="cls-1" d="M49.84,57.13a5.81,5.81,0,1,0,5.79,5.8A5.75,5.75,0,0,0,49.84,57.13Zm0,9.2a3.4,3.4,0,0,1-.05-6.79,3.4,3.4,0,0,1,.05,6.79Z"/><path class="cls-1" d="M52.68,31.63c-.9.37-1.86.6-2.82.9-1-.3-1.91-.52-2.79-.87a1.12,1.12,0,0,1-.66-1.58,1.15,1.15,0,0,1,1.68-.56,4,4,0,0,0,3.56,0,1.17,1.17,0,0,1,1.64.52A1.15,1.15,0,0,1,52.68,31.63Z"/><path class="cls-1" d="M45.14,22.51a1.1,1.1,0,0,1-1.07,1.09,1.07,1.07,0,0,1-1.26-1,14.55,14.55,0,0,1,0-2.8,1.06,1.06,0,0,1,1.25-1A1.12,1.12,0,0,1,45.15,20c0,.42,0,.85,0,1.28h0C45.15,21.71,45.18,22.11,45.14,22.51Z"/><path class="cls-1" d="M56.89,22.63a1,1,0,0,1-1.17,1,1.06,1.06,0,0,1-1.13-1,10.29,10.29,0,0,1,0-1.36,12.34,12.34,0,0,1,0-1.36,1.07,1.07,0,0,1,1.14-1,1,1,0,0,1,1.16,1A18.56,18.56,0,0,1,56.89,22.63Z"/><path class="cls-1" d="M21.09,24.66c0,.79-.5,1.22-1.52,1.22-2,0-4,0-5.93,0s-4,0-5.94,0c-1,0-1.49-.41-1.51-1.15s.54-1.25,1.53-1.25q5.93,0,11.87,0C20.54,23.48,21.08,23.92,21.09,24.66Z"/><path class="cls-1" d="M21.09,29.48c0,.79-.5,1.22-1.52,1.22-2,0-4,0-5.93,0s-4,0-5.94,0c-1,0-1.49-.41-1.51-1.16s.54-1.24,1.53-1.24q5.93,0,11.87,0C20.54,28.3,21.08,28.74,21.09,29.48Z"/></g></g></g></svg>