<svg xmlns="http://www.w3.org/2000/svg" viewBox="0 0 66.67 64.01"><defs><style>.cls-1{fill:#f8a94e;}</style></defs><g id="Layer_2" data-name="Layer 2"><g id="Layer_1-2" data-name="Layer 1"><g id="l2tImS.tif"><path class="cls-1" d="M63,23.66c-1.56-.26-3.16-.25-4.74-.39-2.58-.23-3-.66-3.45-3.19,0-.19,0-.39-.07-.59a19.33,19.33,0,0,0-5.31-12.3C45.06,2.71,40-.18,33.47,0c-3.69.1-7.38,0-11.07.07a32.36,32.36,0,0,0-5.2.5A20.54,20.54,0,0,0,6.73,5.82l0,0,0,0L6.57,6,6.51,6l-.33.33h0a12.73,12.73,0,0,0-2,2.24h0A20.65,20.65,0,0,0,0,21.05c0,7.3,0,14.6,0,21.9a21.14,21.14,0,0,0,.61,4.82,21.52,21.52,0,0,0,21,16.17c7.78.09,15.56.1,23.33,0a23.76,23.76,0,0,0,6.54-1C60.24,60.2,66.23,52.6,66.43,44.13c.12-5.36.17-10.71.24-16.07C66.7,25.4,65.67,24.1,63,23.66Zm.6,19.2C63.73,54.24,54,60.62,46.3,61c-8.75.37-17.54.32-26.29,0-9.38-.32-17.1-8.71-17.13-18.07,0-7.26-.06-14.53,0-21.79a17.35,17.35,0,0,1,.9-5.35A52.71,52.71,0,0,1,6.51,10h0A20.89,20.89,0,0,0,8.59,8h0L9,7.64a16.61,16.61,0,0,1,9.66-4.46c3.16-.3,6.34-.36,9.51-.38a45.41,45.41,0,0,1,8.42.33c4.68.85,8.45,3.52,11.6,7a13.12,13.12,0,0,1,3.38,7.08,47.22,47.22,0,0,0,.88,5A4.76,4.76,0,0,0,57.05,26c1.54.11,3.09.13,4.64.24,1.73.13,2.14.58,2.11,2.3C63.74,33.34,63.56,38.1,63.61,42.86Z"/><polygon class="cls-1" points="6.18 6.36 6.18 6.36 6.18 6.36 6.18 6.36"/><path class="cls-1" d="M6.51,6l-.33.33Z"/><path class="cls-1" d="M44.28,38Q33.35,38,22.4,38a6.81,6.81,0,0,0-2.1.31,5,5,0,0,0-3.48,5.42,5.13,5.13,0,0,0,5.11,4.43c3.8,0,7.61,0,11.41,0s7.53,0,11.3,0a5.17,5.17,0,0,0,5.16-4.07C50.45,40.75,48,38,44.28,38Zm.25,7.32c-3.77,0-7.54,0-11.31,0-3.61,0-7.22,0-10.83,0a3.59,3.59,0,0,1-2-.62,2.07,2.07,0,0,1,.69-3.61,5,5,0,0,1,1.64-.21H43.93c.24,0,.48,0,.72,0a2.24,2.24,0,1,1-.12,4.46Z"/><path class="cls-1" d="M33.76,16c-4.07-.17-8.17-.17-12.24,0a5.08,5.08,0,0,0-4.76,5.16A5.18,5.18,0,0,0,22,26c1.87,0,3.73,0,5.59,0s3.73,0,5.59,0a5.15,5.15,0,0,0,5.26-4.91A4.93,4.93,0,0,0,33.76,16ZM33,23.17c-1.82,0-3.64,0-5.46,0s-3.56,0-5.34,0a2.35,2.35,0,0,1-2.59-2.07,2.37,2.37,0,0,1,2.47-2.35q5.52-.08,11,0A2.26,2.26,0,0,1,35.6,21,2.31,2.31,0,0,1,33,23.17Z"/></g></g></g></svg>