<svg xmlns="http://www.w3.org/2000/svg" viewBox="0 0 108.42 96.22"><defs><style>.cls-1{fill:#f8a94e;}</style></defs><g id="Layer_2" data-name="Layer 2"><g id="Layer_1-2" data-name="Layer 1"><g id="jIhSCM.tif"><path class="cls-1" d="M100.8,96.22H7.62A6.13,6.13,0,0,0,7,96a9,9,0,0,1-7-8.93Q0,49.86,0,12.65c0-.51,0-1,0-1.52A11.38,11.38,0,0,1,6.82,1c2.23-1.08,4.63-1,7-1,1.75,0,2.28.52,2.28,2.26V17H92.29V15.72c0-4.57,0-9.14,0-13.71,0-1.39.61-2,2-2,1,0,2,0,2.93,0a11.5,11.5,0,0,1,10.69,8.14c.18.62.34,1.24.51,1.86V88.38c-.08.27-.17.55-.24.82a8.94,8.94,0,0,1-5.75,6.51C101.9,95.91,101.34,96.05,100.8,96.22ZM16.13,20.47V79.19c0,2.11-.41,2.5-2.55,2.52-1.82,0-3.64-.06-5.44.13a5,5,0,0,0-4.41,3.68,5.3,5.3,0,0,0,1.21,5.56,6.22,6.22,0,0,0,5,1.76H98.48c.29,0,.58,0,.87,0a5.56,5.56,0,1,0-.11-11.12c-1.45,0-2.9,0-4.35,0-2.21,0-2.61-.39-2.61-2.58V20.47ZM95.75,3.53V78.35c3.23,0,6.42-.36,9.24,1.9V12.08c0-.5,0-1,0-1.52A8,8,0,0,0,95.75,3.53Zm-83,74.82v-75a22.46,22.46,0,0,0-3.07.31C5.76,4.56,3.43,7.7,3.43,12V79c0,.34,0,.68.07,1.24C6.3,78,9.49,78.37,12.71,78.35Z"/><path class="cls-1" d="M58.13,1.27c6.74,0,13.49,0,20.23,0a5.54,5.54,0,0,1,5.75,4.6A5.54,5.54,0,0,1,79,12.44c-2.64.1-5.28.05-7.93.05-10.88,0-21.76,0-32.63,0A10.21,10.21,0,0,1,35.25,12c-3.17-1-6.29-2.19-9.44-3.28-.88-.31-1.61-.77-1.6-1.8s.68-1.42,1.55-1.72C29.24,4,32.7,2.68,36.18,1.44a3.51,3.51,0,0,1,1.17-.14H58.13ZM38.78,9.1h32V4.71h-32Zm35.63,0c1.49,0,2.87.05,4.24,0A2.17,2.17,0,0,0,80.79,7a2.15,2.15,0,0,0-2.1-2.29c-1.4-.08-2.8,0-4.28,0ZM31,6.91,35.19,8.4v-3Z"/><path class="cls-1" d="M82.07,61.64V81.23c0,1.85-.53,2.36-2.41,2.36-1.63,0-3.27.11-4.89,0-2.13-.17-4.73,1-6.28-.6s-.45-4.16-.56-6.29c-.13-2.61,0-5.22,0-7.93H61.07v1.32c0,3.73,0,7.47,0,11.2,0,1.81-.52,2.32-2.33,2.32H49.16c-1.73,0-2.28-.54-2.28-2.28q0-9,0-18.05V61.68c-.77.62-1.36,1.12-2,1.59-1,.8-2.05.79-2.69,0s-.48-1.73.5-2.55q10.19-8.51,20.38-17a1.77,1.77,0,0,1,2.71,0q10.2,8.49,20.38,17c1,.84,1.16,1.83.46,2.63a1.77,1.77,0,0,1-2.61,0C83.46,62.81,82.88,62.32,82.07,61.64ZM78.59,80.13a4.88,4.88,0,0,0,.06-.52c0-6.71,0-13.42,0-20.13A1.89,1.89,0,0,0,78,58.25c-4.24-3.59-8.51-7.14-12.77-10.69-.24-.2-.51-.37-.77-.56-4.6,3.84-9.14,7.61-13.66,11.43a1.77,1.77,0,0,0-.47,1.21c0,6.53,0,13.06,0,19.59,0,.31,0,.61.06.9h7.33V78.87c0-3.84,0-7.69,0-11.53,0-1.45.59-2,2.05-2H69.1c1.6,0,2.15.54,2.15,2.15q0,5.72,0,11.43v1.25Z"/><path class="cls-1" d="M36.59,56.71V81.2c0,1.9-.49,2.39-2.36,2.39H23.45c-1.53,0-2.12-.57-2.12-2.09V31.77c0-1.56.59-2.13,2.2-2.14H34.41c1.6,0,2.17.58,2.18,2.16ZM33.22,69c-.9,0-1.62,0-2.35,0A1.71,1.71,0,0,1,29,67.36a1.73,1.73,0,0,1,1.88-1.68c.75,0,1.5,0,2.28,0V61.86c-.86,0-1.65,0-2.44,0a1.66,1.66,0,1,1,0-3.32c.79,0,1.58,0,2.42,0V54.72H32c-.4,0-.8,0-1.2,0a1.67,1.67,0,1,1,0-3.34c.79,0,1.57,0,2.38,0V47.58c-.83,0-1.59,0-2.34,0a1.69,1.69,0,1,1,0-3.37c.76,0,1.51,0,2.33,0V40.44H32c-.4,0-.8,0-1.2,0A1.77,1.77,0,0,1,29,38.7,1.75,1.75,0,0,1,30.9,37c.75,0,1.49,0,2.24,0V33.11H24.79v47h8.33v-4c-.89,0-1.69,0-2.48,0A1.64,1.64,0,0,1,29,74.49a1.61,1.61,0,0,1,1.57-1.64c.64-.06,1.31,0,2-.07.25,0,.65-.36.67-.57C33.26,71.21,33.22,70.19,33.22,69Z"/><path class="cls-1" d="M49.72,37.32c.63.42,1.13.7,1.58,1a1.68,1.68,0,0,1-1.82,2.83c-2.3-1.37-4.6-2.76-6.86-4.2a1.65,1.65,0,0,1,0-2.89c2.23-1.42,4.49-2.8,6.76-4.15a1.66,1.66,0,0,1,2.38.51,1.68,1.68,0,0,1-.62,2.36c-.41.29-.84.54-1.49,1H79.22c-.65-.43-1.15-.71-1.6-1.05a1.67,1.67,0,0,1,1.77-2.83c2.34,1.39,4.66,2.8,7,4.26a1.64,1.64,0,0,1,0,2.83c-2.25,1.45-4.55,2.84-6.86,4.2a1.65,1.65,0,0,1-2.36-.59,1.67,1.67,0,0,1,.71-2.32c.41-.28.84-.55,1.46-1Z"/></g></g></g></svg>