<svg xmlns="http://www.w3.org/2000/svg" viewBox="0 0 112.07 115.6"><defs><style>.cls-1{fill:#f8a94e;}</style></defs><g id="Layer_2" data-name="Layer 2"><g id="Layer_1-2" data-name="Layer 1"><g id="XjY424.tif"><path class="cls-1" d="M58.53,0A61.72,61.72,0,0,1,64.9,1.4c2.34.75,4.57,1.85,7,2.87L70,7.42C62.12,3,54,2.14,45.68,5.68A25.3,25.3,0,0,0,31.6,20.18c-5.35,13.56,1.55,27.5,12.09,32.71V37l-1.52-.18a6.13,6.13,0,0,1-5.3-5.51c-.14-4.51,0-9,0-13.62H40.2v5.07h3.57V17.69h3.48V22.8h3.53V17.71h3.45c0,.36.05.75.05,1.15q0,5.48,0,11,0,6.42-6.35,7.13l-.6.1c0,.31-.06.6-.06.9,0,5.23,0,10.46,0,15.7,0,.38.26,1,.54,1.11a26,26,0,0,0,16.94-.12V39.26C60,37.64,58,34.86,57.84,29.85A17.35,17.35,0,0,1,60.11,20a14.32,14.32,0,0,1,.84-1.2c3.2-4,8.21-4,11.24.06,3.49,4.73,4,10,2.11,15.54A7.4,7.4,0,0,1,69.11,39c-.32.09-.77.53-.77.81,0,4.25,0,8.5,0,12.76,0,.06.06.12.09.19,5.3-2.15,12.9-9.83,13.79-20.45.78-9.24-2.52-16.87-9.55-23l1.5-1.86c.22-.25.45-.49.72-.81A30,30,0,0,1,85.69,26.4H103c.92,3.65,1.82,7.22,2.71,10.79,1.49,5.94,3.15,11.85,4.4,17.84,1,4.59.49,9.08-2.78,12.87a2.39,2.39,0,0,0-.43,1.42c0,6.25,0,12.5,0,18.75v1.31h-3.48V78.8H71.91V98h31.48v-5h3.45v19h5.23v3.5H0v-3.4H5.19v-1.35q0-20.73,0-41.45a2.94,2.94,0,0,0-.61-1.7,13.28,13.28,0,0,1-2.93-7.77,26,26,0,0,1,1.07-8.12c2.09-8.15,4.1-16.33,6.14-24.5.06-.25.14-.5.24-.85H26.24a61.25,61.25,0,0,1,1.6-6.18C32.16,8.71,40.45,2,52.69.2a8.44,8.44,0,0,0,.87-.2Zm9.69,112.08V78.8H43.86v33.28Zm-28-14V78.81H8.72V98Zm5.33-31.77a12.49,12.49,0,0,1-21.08,0c-4.05,5.5-9.32,7.1-15.73,4.78v4.17h94.59V71c-6.49,2.35-11.69.67-15.74-4.79C85,70,81.53,72,77,72a12.22,12.22,0,0,1-10.44-5.85A12.42,12.42,0,0,1,45.54,66.26ZM86.07,30c.9,8.21,1.79,16.31,2.68,24.45h17.66L100.29,30ZM11.78,30,5.68,54.38h17.6L26,30Zm28.38,82.13V101.73H8.74v10.36Zm31.73-10.41v10.4h31.43v-10.4ZM26.46,58c-.08.53-.18,1-.21,1.41a8.82,8.82,0,0,0,7.66,9,8.72,8.72,0,0,0,9.72-7.26c.15-1.08.07-2.18.17-3.27a1.25,1.25,0,0,0-.86-1.37A29.57,29.57,0,0,1,29.05,42.43l-.74-1.53-1.5,13.6h8.12V58Zm62.78,0c0,4.19,1.17,7.66,5.1,9.54a8.28,8.28,0,0,0,9.13-.93c2.83-2.15,3.74-5.12,3.36-8.61Zm-20.82,0a9,9,0,0,0,4.43,9.36,8.77,8.77,0,0,0,9.82-.91,8.06,8.06,0,0,0,2.79-8.45Zm-63.12,0a8.78,8.78,0,0,0,13.91,8.66,8.66,8.66,0,0,0,3.29-8.66ZM71.89,29.51c-.16-3.4-.65-6.13-2.39-8.44s-4.17-2.39-5.8-.05A12.88,12.88,0,0,0,62,32.82c.64,2,2.31,3,4.57,3s4-1,4.65-3A23,23,0,0,0,71.89,29.51ZM47.31,58.34c-.29,3.77.87,6.8,4,8.79a8.33,8.33,0,0,0,9.47-.06c3.1-2,4.2-5,4-8.75A30.2,30.2,0,0,1,47.31,58.34Zm3.44-31.83H40.25v1c0,1,0,2,0,3a2.9,2.9,0,0,0,3,2.89c1.53,0,3.08,0,4.61,0a2.77,2.77,0,0,0,2.85-2.52C50.86,29.46,50.75,28,50.75,26.51Zm33,14.88A33.16,33.16,0,0,1,73,54.38H85.21Z"/><path class="cls-1" d="M50.86,91.15H54.2V98H50.86Z"/><path class="cls-1" d="M57.87,98V91.18h3.31V98Z"/><path class="cls-1" d="M14.5,82.74h3.33v3.41H14.5Z"/><path class="cls-1" d="M24.86,82.75v3.39H21.53V82.75Z"/><path class="cls-1" d="M28.52,86.11V82.77h3.35v3.34Z"/></g></g></g></svg>