<svg xmlns="http://www.w3.org/2000/svg" viewBox="0 0 102.33 102.37"><defs><style>.cls-1{fill:#f8a94e;}</style></defs><g id="Layer_2" data-name="Layer 2"><g id="Layer_1-2" data-name="Layer 1"><g id="mQoHry.tif"><path class="cls-1" d="M29.77,0H71a3.36,3.36,0,0,0,.42.22A5,5,0,0,1,75,5c0,.59,0,1.18,0,1.78l.6.13a5.12,5.12,0,0,1,4.54,5.42c0,1.47,0,2.93,0,4.4s-.65,2-2.09,2.09h-1.5c-.74,6.32-1.46,12.53-2.19,18.8a3.26,3.26,0,0,1,2.39,3.27,1.15,1.15,0,0,0,.27.09l6.09,0c1.52,0,2.13.6,2.16,2.1,0,1,0,1.92,0,2.82.17.08.23.13.28.13l4.5,0c2.62,0,3.7,1.09,3.71,3.7v4.83H95.6a3.12,3.12,0,0,1,3.23,3.91c-.38,2.36-.73,4.73-1.09,7.1L93.63,92.34c-.33,2.16-.66,4.33-1,6.61,2.51,0,4.9,0,7.29,0a2.38,2.38,0,0,1,2.41,1.22v1a2.45,2.45,0,0,1-2.42,1.22q-48.76,0-97.54,0a4.42,4.42,0,0,1-1.09-.08,1.65,1.65,0,0,1-1.17-2.18A1.74,1.74,0,0,1,1.91,99H7a11.76,11.76,0,0,1-3.53-7.43c-.14-2-.08-4-.07-6A3.4,3.4,0,0,1,6.92,81.9l1.6-.08c0-1.68,0-3.25,0-4.81a1,1,0,0,0-.58-.74A6.89,6.89,0,0,1,3.4,69.91a6.78,6.78,0,0,1,4.49-6.35c.25-.11.6-.4.6-.62,0-1.62,0-3.25,0-4.95H7a3.43,3.43,0,0,1-3.62-3.65c0-.79,0-1.6,0-2.39A18.54,18.54,0,0,1,14.09,36a19.92,19.92,0,0,1,9.8-1.84c.62,0,1.23,0,1.95,0L24.05,18.77c-.69,0-1.25,0-1.81,0-.83-.06-1.64-.41-1.66-1.29a36.7,36.7,0,0,1,.21-7c.42-2.36,2.39-3.38,4.78-3.65,0-.58,0-1.15,0-1.71C25.71,2.35,27.29.8,29.77,0ZM47.85,58.08c.06.5.09.93.16,1.35Q51,78.72,53.92,98c.12.79.4.95,1.12.95q16.59,0,33.18,0c.31,0,.63,0,1-.06,2.09-13.67,4.17-27.23,6.25-40.8a5.3,5.3,0,0,0-5.72,3,31.29,31.29,0,0,1-3.12,5.2c-3.43,4.24-8.11,6.1-13.45,6.48a19.78,19.78,0,0,1-12.4-2.94,18.11,18.11,0,0,1-7-8.33A5.13,5.13,0,0,0,47.85,58.08ZM73.11,18.84H27.54c0,.42,0,.78.07,1.14.51,4.29,1.07,8.58,1.5,12.89.1,1,.43,1.29,1.43,1.28,7.29,0,14.58,0,21.88,0a18.85,18.85,0,0,1,11.49,3.64c.47.34.93.71,1.43,1.09,1.51-2,3.68-1,5.61-1.39C71.67,31.28,72.39,25.11,73.11,18.84ZM62.11,41a13.23,13.23,0,0,0-8.91-3.39c-10.46,0-20.92-.13-31.37,0-6.37.1-10.93,3.34-13.68,9.08a15.52,15.52,0,0,0-1.32,7.85H47.75V51.3c0-2.39,1.15-3.52,3.57-3.53h5c0-1.27,0-2.43,0-3.59A3,3,0,0,1,59.55,41ZM49.67,92.81c-2.2,1.39-2.27,1.38-4.15-.49C43.4,90.2,41.31,88.05,39.14,86a2.4,2.4,0,0,0-1.54-.64c-9.92,0-19.85,0-29.78,0-.32,0-.64,0-1.15.07a45.92,45.92,0,0,0,.46,7c.88,4.13,4.3,6.54,8.74,6.54q16.85,0,33.68,0h1.07ZM23.94,15.3h52.8V12.85c0-2.16-.47-2.63-2.64-2.63H26.45a2.74,2.74,0,0,0-1.36.17c-.47.28-1,.78-1.1,1.24A29.86,29.86,0,0,0,23.94,15.3ZM12,63.13c1.88,0,3.71,0,5.53,0a4.17,4.17,0,0,1,3.29,1.35c1.31,1.38,2.68,2.69,4,4L29,72.66c2-2,4-4,5.93-5.92,4.25-4.19,2.77-3.55,8.65-3.61h1.6L44.35,58H12ZM47.23,76.82H12v5.07h1.26c8.13,0,16.25,0,24.38,0a5,5,0,0,1,3.9,1.6c1.78,1.89,3.66,3.69,5.5,5.52.22.23.47.43.69.64C49,88.52,49,88.52,48.8,87.06s-.44-3-.68-4.55C47.83,80.61,47.53,78.72,47.23,76.82ZM68.2,41V67.75a3,3,0,0,0,0,.8c.06.21.26.53.41.55,1.54.13,3.09.21,4.65.31V41ZM29,6.75H71.51c.37-2.39-.21-3.34-2-3.34q-19.19,0-38.38,0c-1.48,0-2.09.65-2.12,2.16ZM76.82,44.41V68.9c1.55-.82,2.92-1.54,4.3-2.24a1.42,1.42,0,0,0,.77-1.46c0-6.59,0-13.19,0-19.78v-1ZM64.71,68V44.43H59.79a1.52,1.52,0,0,0-.08.33q0,9.65,0,19.29a1.19,1.19,0,0,0,.21.73A13,13,0,0,0,64.71,68Zm-40.1,5.32c0-.17,0-.25-.06-.29-2.06-2.08-4.13-4.16-6.21-6.21a1.21,1.21,0,0,0-.79-.3c-2.5,0-5,0-7.5,0a3.33,3.33,0,0,0-3,2.21,3.13,3.13,0,0,0,1.08,3.66,5.33,5.33,0,0,0,2.66.88c4.33.09,8.66,0,13,0Zm8.49-.06H46.69l-1-6.75c-1.88,0-3.71,0-5.53,0a.83.83,0,0,0-.51.25C37.5,68.92,35.39,71,33.1,73.3ZM85.34,61.8l.18.05c.22-.41.46-.8.64-1.22A9.39,9.39,0,0,1,90,55.82a.77.77,0,0,0,.36-.53c0-1.91,0-3.82,0-5.76h-5ZM56.24,51.25H51.19v3.53c1,.55,1.94,1,2.83,1.58s1.67,1.23,2.22,1.64Z"/><path class="cls-1" d="M80.14,86.35a9.37,9.37,0,1,1-9.33-9.58A9.42,9.42,0,0,1,80.14,86.35Zm-3.4-.18a6,6,0,1,0-6,6A6,6,0,0,0,76.74,86.17Z"/><path class="cls-1" d="M22.89,46.06c-.3,0-.64,0-1-.07a1.55,1.55,0,0,1-1.43-1.53,1.51,1.51,0,0,1,1.32-1.71,9,9,0,0,1,2.37,0,1.55,1.55,0,0,1,1.35,1.69A1.61,1.61,0,0,1,24,46C23.65,46.05,23.29,46,22.89,46.06Z"/><path class="cls-1" d="M43.47,46h-.6c-1.21,0-1.92-.68-1.92-1.7a1.73,1.73,0,0,1,1.84-1.69,8,8,0,0,1,1.69,0A1.63,1.63,0,0,1,46,44.46,1.61,1.61,0,0,1,44.37,46c-.3,0-.6,0-.9,0Z"/><path class="cls-1" d="M33.18,49.48c-.28,0-.65,0-1-.08a1.58,1.58,0,0,1-1.44-1.62,1.52,1.52,0,0,1,1.41-1.64,9,9,0,0,1,2.08,0,1.62,1.62,0,0,1,1.55,1.73,1.64,1.64,0,0,1-1.61,1.59C33.87,49.47,33.56,49.46,33.18,49.48Z"/></g></g></g></svg>