<svg xmlns="http://www.w3.org/2000/svg" viewBox="0 0 96.83 96.8"><defs><style>.cls-1{fill:#f8a94e;}</style></defs><g id="Layer_2" data-name="Layer 2"><g id="Layer_1-2" data-name="Layer 1"><g id="fEkeUb.tif"><path class="cls-1" d="M47.48,0h1.89c.86.44,1.76.82,2.57,1.34Q72.73,14.41,93.52,27.48a6.73,6.73,0,0,1,3.31,3.91v1.7a5,5,0,0,1-2.37,3.26,1.41,1.41,0,0,0-.86,1.53q0,25.89,0,51.79c0,4.51-2.63,7.13-7.17,7.13H10.27a8.4,8.4,0,0,1-1.51-.08A6.46,6.46,0,0,1,3.26,90q0-19.75,0-39.5c0-4.22,0-8.44,0-12.67a1.52,1.52,0,0,0-.76-1.4A7,7,0,0,1,.41,34c-1-2.19-.1-4.53,2.1-5.93q7.26-4.59,14.55-9.14a1.38,1.38,0,0,0,.75-1.35c0-3.15,0-6.3,0-9.45a3.07,3.07,0,0,1,3-3.21c2.8-.06,5.61-.06,8.41,0a3.12,3.12,0,0,1,3.06,3c0,.39,0,.79,0,1.37,1.54-1,2.91-1.85,4.3-2.69Zm.86,93.58H86.43c2.78,0,4-1.19,4-4q0-25.53,0-51A2.48,2.48,0,0,0,89,36.08q-20-12.45-39.81-25a1.25,1.25,0,0,0-1.58,0q-10.77,6.83-21.57,13.6C20,28.5,13.84,32.39,7.68,36.18a2.18,2.18,0,0,0-1.23,2.19Q6.51,64,6.48,89.6c0,2.79,1.18,4,3.95,4ZM93.61,32.47a2.27,2.27,0,0,0-1.41-2Q71.14,17.24,50.1,4a2.7,2.7,0,0,0-3.34,0Q28,15.84,9.22,27.63,6.78,29.16,4.34,30.7c-1.09.69-1.41,1.56-.88,2.43s1.48,1,2.56.33l.4-.25Q26.67,20.45,46.92,7.68a2.46,2.46,0,0,1,3,0Q70.12,20.44,90.36,33.14a7.36,7.36,0,0,0,1,.57A1.61,1.61,0,0,0,93.61,32.47ZM21.1,8.12v8.22c2.61-1.64,5.11-3.21,7.6-4.8a.77.77,0,0,0,.37-.49c0-1,0-1.93,0-2.93Z"/><path class="cls-1" d="M42.57,71.84c-.86-.82-1.54-1.52-2.3-2.13a2.09,2.09,0,0,0-1.12-.3,10.81,10.81,0,0,1-10-11.36,7,7,0,0,1,2.57-4.88A1.81,1.81,0,0,0,32.29,52c.09-1,0-2,0-2.93,0-.63-.18-.84-.79-1a11.28,11.28,0,1,1,5.29-21.92l1.05.29C40,22,43.43,19.41,48.43,19.41S56.84,22,59,26.49a11.38,11.38,0,0,1,10.8,1.64,10.88,10.88,0,0,1,4.28,7,11.41,11.41,0,0,1-9.52,13.22c0,1.3,0,2.62,0,3.93a.75.75,0,0,0,.18.42c4.24,5,4,11.2-.59,15.83-1.64,1.65-3.29,3.3-5,4.93a9.08,9.08,0,0,1-.95.7c.69.61,1.23,1,1.71,1.52,2.13,2.11,4.25,4.22,6.35,6.36a4.84,4.84,0,1,1-6.86,6.81c-2.37-2.35-4.72-4.73-7.07-7.1a6.31,6.31,0,0,1-.6-.81c-.38.35-.6.56-.83.76a4.77,4.77,0,0,1-4.82,1.11,1,1,0,0,0-1.22.3Q42.07,86,39.2,88.78a4.88,4.88,0,1,1-6.85-6.93q4.59-4.62,9.24-9.2C41.84,72.41,42.12,72.21,42.57,71.84ZM71,37.05a8.16,8.16,0,0,0-1.7-4.91A8.06,8.06,0,0,0,59.13,30c-1.11.58-1.85.58-2.37-.13a4.33,4.33,0,0,1-.57-1.38,8,8,0,0,0-9.57-5.65,7.79,7.79,0,0,0-6,5.9c-.32,1.17-.87,1.76-1.72,1.66a4.45,4.45,0,0,1-1.31-.49,7.83,7.83,0,0,0-8.77.94,7.74,7.74,0,0,0-2.69,8.4,8,8,0,0,0,9.17,5.62,61.38,61.38,0,0,1,24.12-.49,21.76,21.76,0,0,0,4.17.7A8,8,0,0,0,71,37.05ZM49.11,65a2.26,2.26,0,0,0,.42-.28Q55.26,59,61,53.32a1,1,0,0,0,.34-.62c0-1.54,0-3.08,0-4.7A66.84,66.84,0,0,0,35.6,48v3.58a2.05,2.05,0,0,0,.31.07,10.92,10.92,0,0,1,11,10.49,1.16,1.16,0,0,0,.23.68C47.77,63.58,48.46,64.3,49.11,65Zm14-9.27c-.3.29-.55.52-.79.77L52,66.85,35.18,83.58c-.23.23-.46.44-.67.68a1.73,1.73,0,0,0-.08,2.46,1.69,1.69,0,0,0,2.44-.17l7-6.92a1.66,1.66,0,0,1,2.58-.24,1.66,1.66,0,0,0,2.38-.12c4.56-4.53,9.15-9,13.63-13.64A7.93,7.93,0,0,0,63.16,55.74ZM44.55,69.5,47,67.17c-.93-.89-1.89-1.72-2.71-2.66a2.68,2.68,0,0,1-.65-1.66,7.69,7.69,0,0,0-6.4-7.92,4,4,0,0,0-4.92,4.47,7.62,7.62,0,0,0,7.46,6.75,3,3,0,0,1,2.65,1.09C43.09,68,43.84,68.75,44.55,69.5ZM54,78.87l7.67,7.62a1.66,1.66,0,0,0,2.5.19,1.68,1.68,0,0,0-.24-2.49c-2.16-2.17-4.32-4.32-6.47-6.49-.4-.39-.74-.83-1.13-1.27Z"/></g></g></g></svg>