<svg xmlns="http://www.w3.org/2000/svg" viewBox="0 0 123.51 123.46"><defs><style>.cls-1{fill:#f8a94e;}</style></defs><g id="Layer_2" data-name="Layer 2"><g id="Layer_1-2" data-name="Layer 1"><g id="sHVtkw.tif"><path class="cls-1" d="M123.51,52.81c-1,1.37-2,2.77-3.06,4.12-.72.91-1.54,1.75-2.31,2.62-2.37,2.66-3.73,2.92-7,1.22V118.4c0,3.56-1.49,5.06-5,5.06H17.38c-3.53,0-5-1.5-5-5.09V60.74l-.91.52a4,4,0,0,1-5.08-.66c-1.84-2-3.63-4-5.36-6.05-1.61-1.91-1.26-4.32.8-6Q10.57,41.21,19.35,34q19.49-16.16,39-32.31A25.94,25.94,0,0,1,60.81,0h1.93a27.9,27.9,0,0,1,2.48,1.63Q76.65,11.07,88,20.55l4.6,3.79V16.89c0-2.89,1.67-4.55,4.58-4.56h9.16c3.19,0,4.8,1.62,4.8,4.83q0,10.72,0,21.45a2.08,2.08,0,0,0,.83,1.84c2.93,2.38,5.86,4.76,8.71,7.24a30.57,30.57,0,0,1,2.8,3.19Zm-16.44,66.48V117.7q0-29.52,0-59.06a2.93,2.93,0,0,0-1.22-2.52Q84.28,38.27,62.74,20.34c-.72-.6-1.15-.65-1.9,0Q39.12,38.39,17.34,56.41a2.11,2.11,0,0,0-.88,1.82q0,30,0,59.91v1.15ZM9.27,57.69c.29-.21.52-.37.73-.55l49.82-41.3c1.57-1.29,2.31-1.32,3.8-.09l40,33.17,10.65,8.82,5.15-5.81L61.8,4.12,4.16,51.9ZM107,36.26V16.52H96.75c0,3.64,0,7.21,0,10.77a1.21,1.21,0,0,0,.4.8C100.37,30.77,103.59,33.43,107,36.26Z"/><path class="cls-1" d="M55.46,46.5c-2.81-4.55-2.4-8.84,1.09-11.71A8.23,8.23,0,0,1,68.06,46.47l2.88,4.08q6.56,9.3,13.11,18.61a2.37,2.37,0,0,0,1.72,1.1q6.48,1.08,12.92,2.3a6,6,0,0,1,5.07,7.11c-1.44,8.55-3,17.08-4.48,25.62-.15.87-.28,1.74-.46,2.61A6.17,6.17,0,0,1,91.38,113q-20.76-3.65-41.5-7.35c-8.3-1.46-16.61-2.9-24.91-4.39A6,6,0,0,1,19.8,94c1.43-8.51,3-17,4.46-25.5.14-.79.27-1.58.41-2.37.7-3.86,3.62-6,7.49-5.37,3.33.54,6.66,1.1,10,1.79A2.31,2.31,0,0,0,45,61.48c3.21-4.72,6.54-9.35,9.83-14ZM31.33,64.84c-1.5-.06-2.33.53-2.55,1.79Q26.31,80.57,23.89,94.5c-.3,1.73.3,2.51,2.1,2.83,4.74.85,9.49,1.67,14.23,2.5l39,6.88c4.23.74,8.45,1.51,12.69,2.24,1.62.28,2.59-.33,2.86-1.8q2.44-13.8,4.85-27.62c.34-1.93-.23-2.69-2.13-3-4.15-.75-8.3-1.47-12.45-2.2L40.34,66.43ZM78.73,69c-.06-.25-.06-.34-.11-.4Q71.87,59,65.07,49.44c-.19-.26-.78-.33-1.18-.34-1.39,0-2.79.13-4.16,0a1.24,1.24,0,0,0-1.45.59C55.2,54.06,52.09,58.44,49,62.83c-.16.23-.29.47-.53.84ZM65.88,41.11a4.11,4.11,0,0,0-8.21,0,4.11,4.11,0,1,0,8.21,0Z"/><path class="cls-1" d="M34.06,84.12l-1,5.59c-.27,1.52-1.15,2.32-2.38,2.16s-2-1.23-1.69-2.82q1.34-7.71,2.72-15.41a2.15,2.15,0,0,1,2.84-2c1.86.31,3.72.63,5.58,1A6.23,6.23,0,0,1,45.32,78,6.14,6.14,0,0,1,42,84.23c-.62.32-.79.6-.56,1.29C42,87.27,42.48,89,43,90.82a2.05,2.05,0,0,1-1.24,2.74A2,2,0,0,1,39.08,92c-.62-2-1.26-3.89-1.74-5.88-.29-1.2-.85-1.8-2.09-1.78A6.65,6.65,0,0,1,34.06,84.12Zm.7-4.05c1.5.25,2.86.54,4.24.7a2,2,0,0,0,.67-4c-1.35-.31-2.72-.5-4.17-.75Z"/><path class="cls-1" d="M68.69,89.21c-.38,2.16-.78,4.32-1.14,6.48a2.39,2.39,0,0,1-1.47,2.16,2,2,0,0,1-2.64-2.39c.37-2.57.86-5.13,1.31-7.7s.92-5.21,1.38-7.82c.26-1.48.93-2.23,2.05-2.28s1.81.6,2.22,2c.81,2.69,1.61,5.38,2.42,8.06a3.09,3.09,0,0,0,.22.41c.43-2.41.84-4.65,1.24-6.89.3-1.61,1.16-2.35,2.48-2.13s1.85,1.3,1.57,2.89Q77,89.32,75.74,96.66c0,.27-.13.54-.17.82a2,2,0,0,1-2,1.89,2,2,0,0,1-2.14-1.74l-2.19-7.37c-.1-.35-.21-.69-.32-1Z"/><path class="cls-1" d="M53.73,79.28l-.69,4,4.86.87c.43.08.87.14,1.29.26a2,2,0,0,1-.85,4c-2-.32-3.93-.68-6-1.05l-.73,4,5.42,1a8,8,0,0,1,.82.17,2,2,0,0,1,1.54,2.37,1.9,1.9,0,0,1-2.21,1.6q-4.27-.64-8.52-1.5a1.88,1.88,0,0,1-1.45-2.31q1.4-8.06,2.85-16.11a2,2,0,0,1,2.58-1.72c2.57.44,5.13.9,7.7,1.37a2.08,2.08,0,0,1,1.95,2.41c-.19,1.21-1.18,1.86-2.63,1.64s-3.08-.53-4.62-.8C54.62,79.4,54.23,79.36,53.73,79.28Z"/><path class="cls-1" d="M86.11,85c-1.37-.25-2.71-.49-4-.75a2,2,0,0,1,.63-4q6.11,1,12.21,2.14a2,2,0,1,1-.71,4c-1.27-.16-2.54-.41-4-.65-.31,1.69-.63,3.36-.93,5-.51,2.89-1,5.77-1.51,8.66-.26,1.5-1.17,2.3-2.41,2.12s-1.91-1.17-1.65-2.72c.73-4.35,1.52-8.69,2.28-13C86.05,85.52,86.07,85.29,86.11,85Z"/></g></g></g></svg>