<svg xmlns="http://www.w3.org/2000/svg" viewBox="0 0 106.04 119.51"><defs><style>.cls-1{fill:#f8a94e;}</style></defs><g id="Layer_2" data-name="Layer 2"><g id="Layer_1-2" data-name="Layer 1"><g id="qR9cPz.tif"><path class="cls-1" d="M62.35,119.51l-6.23-3.17c-3.31,3.17-7.84,2.45-10-1.68-4.56.75-6.58-.34-8.18-4.47a6.1,6.1,0,0,1-6.67-4.85c-3,.15-5.36-1-6.44-4s.56-5.24,2.53-7.69c-.67,0-1.12-.13-1.42,0a7,7,0,0,1-7.11-.37c-1.06-.64-2.15-1.25-3.2-1.91A3.77,3.77,0,0,1,14.24,86Q21.6,73.51,29,61a3.8,3.8,0,0,1,5.44-1.39c1.18.67,2.35,1.36,3.51,2.08a6.66,6.66,0,0,1,3.34,6.13,1.38,1.38,0,0,0,.84,1.46,5.63,5.63,0,0,0,4.72.4c1.13-.41,2.26-.84,3.37-1.31a8.9,8.9,0,0,1,8.38.55,2.86,2.86,0,0,0,2.51.26c1.45-.44,3-.69,4.4-1.13a9,9,0,0,1,6.36.43,21.27,21.27,0,0,0,3.49,1.3,19.91,19.91,0,0,0,3.28.19c-.62-2.86-.39-5.36,1.64-7.08a28.66,28.66,0,0,1,5.9-3.66c1.68-.81,3.49.13,4.59,2L102.5,81c1,1.61,1.91,3.2,2.85,4.82a3.87,3.87,0,0,1-1.46,5.69c-1.13.68-2.26,1.36-3.41,2a5.85,5.85,0,0,1-4.71.76c-1.54-.5-2.49.3-3.6,1,1.6,2.45,1.86,4.92.08,7.3s-4,2.79-6.72,2.06c-1,3.7-3.35,5.53-7.36,5.1a6,6,0,0,1-8.92,4.6,6.33,6.33,0,0,1-4.8,5.13Zm3.28-36.17c-1.39,3.12-3.57,5-6.89,5.19a3.76,3.76,0,0,1-4.28-4c0-1.59,0-3.19,0-4.78-.05-2.82-.13-5.64,2-7.94a4.52,4.52,0,0,0-3.83-.5q-1.83.59-3.6,1.32a9.19,9.19,0,0,1-5.69.74,33,33,0,0,1-3.54-1.22L28.7,90.89a9.6,9.6,0,0,0,1.45,0,18.17,18.17,0,0,1,2.24-.53,5.92,5.92,0,0,1,5.41,2.79c3.93-3.11,8.74-1.5,10.08,3.16,4.93-.16,7.58,3.72,6.51,7.92,4.42,1.43,5.76,5.29,3.91,9.14,1.25.75,2.49,1.53,3.78,2.24a2.34,2.34,0,0,0,3.33-.8,2.39,2.39,0,0,0-1-3.31c-.78-.5-1.6-.95-2.4-1.43-1.61-1-2.07-1.88-1.45-2.91s1.64-1.06,3.26-.11c2.37,1.41,4.73,2.84,7.12,4.21a2.35,2.35,0,0,0,3.28-.74,2.4,2.4,0,0,0-.86-3.34c-.29-.19-.6-.36-.9-.54L65,102.18a1.61,1.61,0,0,1-.92-2,2.56,2.56,0,0,1,1.46-1.26c.44-.14,1.11.21,1.59.49,3.63,2.12,7.23,4.27,10.84,6.4,1.52.89,2.93.64,3.66-.6s.29-2.58-1.24-3.49c-3.27-2-6.55-3.88-9.83-5.83a17.31,17.31,0,0,1-1.59-1,1.65,1.65,0,0,1-.55-2.26,1.7,1.7,0,0,1,2.3-.73,8.21,8.21,0,0,1,.91.52c4.75,2.81,9.49,5.64,14.26,8.41a4,4,0,0,0,2.06.58,2.06,2.06,0,0,0,2-1.85,2.42,2.42,0,0,0-1.4-2.68L75.33,89.09Zm25.76,8.25-.63-1.11Q88.23,86.22,85.71,82c-.49-.81-.6-1.74.2-2.31a3,3,0,0,1,2-.26c.38.07.72.65,1,1.07C90.6,83.29,92.26,86.14,94,89A3.41,3.41,0,0,0,99,90.31c.87-.5,1.71-1.09,2.61-1.53s.9-.88.41-1.69Q95,75.27,88,63.43c-.17-.3-.37-.58-.62-1-1.19.69-2.32,1.34-3.45,2-2.19,1.31-2.62,3.09-1.32,5.32.6,1,1.26,2.06,1.82,3.13a1.72,1.72,0,0,1-.65,2.33,1.77,1.77,0,0,1-2.36-.59,6.82,6.82,0,0,1-.66-1.1c-.26-.57-.61-.66-1.2-.46A7.31,7.31,0,0,1,73.65,73c-3.77-2.07-7.48-1.85-11.31-.42a7,7,0,0,1-.79.2A4.41,4.41,0,0,0,58,77.29c0,1.6,0,3.19,0,4.79V85a3.34,3.34,0,0,0,3.35-1.32,8.38,8.38,0,0,0,1.15-3.08c.32-1.62,1.39-2.25,2.85-1.48l.71.41Q77.05,86,88.1,92.54a1.76,1.76,0,0,0,1.32.24A11.74,11.74,0,0,0,91.39,91.59ZM17,88.15l3.4,2c2.31,1.35,4,.93,5.39-1.35q3.32-5.56,6.6-11.13c1.61-2.71,3.22-5.41,4.8-8.13.91-1.57.89-3.16-.34-4.17a48.45,48.45,0,0,0-4.59-3C27.16,71.08,22.14,79.56,17,88.15ZM44.4,97.69a2.51,2.51,0,0,0-1.57-2.48,2.25,2.25,0,0,0-2.78.86c-1.58,2.15-3.14,4.33-4.69,6.52-1,1.35-.81,2.79.32,3.6s2.53.56,3.52-.8c1.53-2.1,3-4.21,4.53-6.34A7.66,7.66,0,0,0,44.4,97.69Zm4.27,2c-.58.33-1.34.53-1.71,1-1.79,2.34-3.51,4.74-5.17,7.17a2.34,2.34,0,0,0,3.74,2.77c1.8-2.38,3.58-4.79,5.21-7.28A2.47,2.47,0,0,0,48.67,99.71ZM30.4,102a5.48,5.48,0,0,0,1.65-.92,34.45,34.45,0,0,0,2.71-3.76,2.25,2.25,0,0,0-.67-3,2.27,2.27,0,0,0-3.14.33,31.58,31.58,0,0,0-2.63,3.68A2.48,2.48,0,0,0,30.4,102Zm25.21,7.65A7.1,7.1,0,0,0,54.27,108a1.87,1.87,0,0,0-2.47.25,19.54,19.54,0,0,0-2.37,3.28,2,2,0,0,0,.49,2.46,2.25,2.25,0,0,0,2.45.6C53.45,114.26,55.58,111.31,55.61,109.62Z"/><path class="cls-1" d="M82.17,23.51h-6.8c-1.32,0-2.64,0-4,0a9,9,0,0,1-9.22-9.23c0-3.12,0-6.23,0-9.34V3.52H9.5c-3.79,0-6,2.21-6,6q0,45.86,0,91.71c0,3.88,2.18,6,6.08,6.06H26.28c.35,0,.7,0,1,0a1.73,1.73,0,0,1,.19,3.43,14.84,14.84,0,0,1-2.21.06q-7.87,0-15.75,0c-5.79,0-9.55-3.77-9.56-9.57V9.55C0,3.74,3.75,0,9.58,0Q35.36,0,61.14,0a8.1,8.1,0,0,1,6,2.5q8,8.07,16.08,16.09a7.86,7.86,0,0,1,2.42,5.85q0,14.41,0,28.82a4.12,4.12,0,0,1,0,.93,1.65,1.65,0,0,1-1.8,1.47,1.62,1.62,0,0,1-1.64-1.52,7.49,7.49,0,0,1,0-1.16V23.51Zm-3-3.64L65.85,6.57c0,2.91-.15,6,.06,9.16a4.69,4.69,0,0,0,4.21,4.09C73.17,20,76.23,19.87,79.14,19.87Z"/><path class="cls-1" d="M42.84,46.48H15.09a9.16,9.16,0,0,1-1.05,0,1.64,1.64,0,0,1-1.55-1.62,1.62,1.62,0,0,1,1.23-1.76A4,4,0,0,1,14.87,43H70.74a4.07,4.07,0,0,1,1.26.14,1.73,1.73,0,0,1-.35,3.34,7.49,7.49,0,0,1-1.16,0Z"/><path class="cls-1" d="M42.86,32.19H70.62c.42,0,1-.13,1.25.08.51.43,1.18,1,1.2,1.6s-.61,1.23-1.11,1.66c-.28.25-.89.16-1.35.16H14.51c-1.25,0-2-.73-2-1.77s.79-1.73,2.06-1.73H42.86Z"/><path class="cls-1" d="M28.52,23.51H15a5.28,5.28,0,0,1-1.26-.11,1.71,1.71,0,0,1,.17-3.34A9.14,9.14,0,0,1,15.19,20H41.88c1.85,0,2.74.59,2.71,1.79s-.89,1.73-2.67,1.73Z"/></g></g></g></svg>