<svg xmlns="http://www.w3.org/2000/svg" viewBox="0 0 126.13 129.79"><defs><style>.cls-1{fill:#f8a94e;}</style></defs><g id="Layer_2" data-name="Layer 2"><g id="Layer_1-2" data-name="Layer 1"><g id="NglU8F.tif"><path class="cls-1" d="M74,0,109.5,23.55q6,3.94,11.92,7.91c1.64,1.1,1.8,1.94.7,3.62-1.76,2.65-3.51,5.3-5.28,7.94-1.1,1.63-1.88,1.79-3.5.73L110,41.58a2.73,2.73,0,0,0-.39-.11V77.65a30.59,30.59,0,0,1,4.73-2.08,9.36,9.36,0,0,1,10.33,4.31,9.64,9.64,0,0,1-.81,11.19,16.48,16.48,0,0,1-1.21,1.3c-9.48,9.48-19,18.93-28.42,28.46a14.64,14.64,0,0,1-11,4.53c-18.86,0-37.72,0-56.58,0h-2c0,.81,0,1.51,0,2.21-.06,1.49-.71,2.22-2.17,2.22q-10.16,0-20.32,0c-1.44,0-2.26-.81-2.21-2S.8,126,2.27,126c5.63,0,11.27,0,16.9,0h1.6V77.61H2.85c-.54,0-1.25.1-1.58-.19A3,3,0,0,1,.1,75.54c0-.55.74-1.21,1.3-1.62.34-.24,1-.12,1.47-.12H21.68c2.62,0,3,.38,3,3,0,.44.05.89.08,1.38H37.38V41.34c-1.35.88-2.57,1.71-3.82,2.51-1.43.91-2.28.76-3.22-.63q-2.82-4.19-5.57-8.4c-.9-1.38-.71-2.3.68-3.22L72.21.55c.3-.2.62-.37.93-.55ZM24.78,121.43c.36,0,.58.08.8.08H84.07a9.76,9.76,0,0,0,7.18-3.08q14.52-14.59,29.1-29.13c2.56-2.57,2.69-6.13.35-8.52s-6-2.31-8.61.29q-9.16,9.14-18.3,18.33a3.28,3.28,0,0,0-.81,1.35c-1.42,4.88-4.92,7.52-10,7.52q-13,0-25.91,0c-2.06,0-3-.6-3-1.93s.92-1.88,3-1.88H83.26a5.85,5.85,0,1,0,0-11.68c-7.09,0-14.18,0-21.27,0a4,4,0,0,1-3.34-1.39c-1.57-1.77-3.23-3.46-4.93-5.1a13.87,13.87,0,0,0-9.25-4.15C38,82,31.54,82.1,25.08,82.1c-.07,0-.15.08-.3.16ZM92.63,95.17c4.27-4.29,8.42-8.42,12.52-12.61a2.44,2.44,0,0,0,.52-1.58c0-13.72,0-27.44,0-41.16a1.85,1.85,0,0,0-.93-1.77q-15.12-10-30.18-20a1.64,1.64,0,0,0-2.15,0q-15.06,10.07-30.19,20a2,2,0,0,0-1,1.89q0,18.41,0,36.8c0,.48,0,1,.07,1.39a2.48,2.48,0,0,0,.44.09c.27,0,.55,0,.82,0a19.38,19.38,0,0,1,14.7,6.29c1.1,1.15,2.25,2.25,3.29,3.46A2.73,2.73,0,0,0,63,89c6.27,0,12.55.09,18.81,0C86.69,88.8,90.41,90.44,92.63,95.17Zm-60-55.34c.45-.28.76-.46,1.06-.66l37.68-25c2-1.36,2.19-1.36,4.24,0L113.1,39c.41.27.83.51,1.29.8L118.23,34c-.35-.27-.62-.5-.92-.7Q95.86,19.08,74.42,4.82c-.88-.58-1.37-.25-2,.19l-42,27.88L28.78,34Z"/><path class="cls-1" d="M73.46,73.13A15.81,15.81,0,1,1,89.35,57.35,15.86,15.86,0,0,1,73.46,73.13Zm.1-28.59A12.79,12.79,0,1,0,86.33,57.38,12.79,12.79,0,0,0,73.56,44.54Z"/></g></g></g></svg>