<svg xmlns="http://www.w3.org/2000/svg" viewBox="0 0 157.75 120.93"><defs><style>.cls-1{fill:#f8a94e;}</style></defs><g id="Layer_2" data-name="Layer 2"><g id="Layer_1-2" data-name="Layer 1"><g id="gacAsf.tif"><path class="cls-1" d="M157.75,98.88l-.63,2.18c-1.77,6.3-6.5,9.57-13.48,9.32-6-.21-10.55-4.17-11.84-10.19a8.62,8.62,0,0,1,.59-5.71c2.84-6.09,5.5-12.26,8.37-18.72-4.77-1.54-9.4-3.31-14.19-4.48-3.83-.94-7.73-.2-11.42,1.26-2.83,1.13-5.64,2.3-8.58,3.5.23.55.49,1.19.77,1.82,2.46,5.55,4.87,11.12,7.41,16.62a8.37,8.37,0,0,1,.65,5.39C114,106.93,108.46,111,101,110.34a12.62,12.62,0,0,1-11.57-12.7,6.64,6.64,0,0,1,.66-2.5c2.59-5.9,5.23-11.79,7.85-17.68l.58-1.38c-1.83-1-3.66-1.83-5.31-2.94a2.59,2.59,0,0,1,2.85-4.32c3.71,2.7,7.65,2.61,11.7,1.1,1.85-.69,3.59-1.65,5.45-2.26,2.48-.82,5-1.43,7.72-2.17,0-1.43,0-3.06,0-4.69,0-1.82,1.05-3,2.59-3s2.6,1.15,2.64,3c0,1.63,0,3.27,0,5.14,5.11,0,9.34,2.66,13.9,4.26,3.8,1.34,7.52,1.18,10.93-1.31a2.35,2.35,0,0,1,3.48.55,2.31,2.31,0,0,1-.31,3.49c-1.71,1.21-3.62,2.14-5.61,3.28,3,6.67,6.09,13.53,9.17,20.4ZM109,94.54l-6.43-14.45-6.4,14.45Zm42,0-6.42-14.43c-2.23,5-4.28,9.68-6.39,14.43Zm-13.63,5.39c.68,3.55,3.89,5.52,8.21,5.18,3.32-.26,6-2.56,6.11-5.18Zm-27.6.07H95.33c.74,3.27,3.46,5.14,7.31,5.12S109.1,103.2,109.77,100Z"/><path class="cls-1" d="M39.45,15.78c0-2.65,0-5.06,0-7.46C39.48,3.4,42.8,0,47.68,0Q65.76,0,83.83,0A7.87,7.87,0,0,1,92,8.19c0,2.45,0,4.91,0,7.59h30.91c5.23,0,8.51,3.28,8.52,8.51,0,6.41-.11,12.81,0,19.21.1,4-1.67,6.65-5.21,8.07-3.24,1.3-6.59,2.32-9.92,3.38q-15.56,4.94-31.13,9.81c-2.28.72-4-.55-3.78-2.72.14-1.38,1.09-1.9,2.26-2.27l24.87-7.86,13.28-4.21c.62-.2,1.22-.48,1.84-.7a3.44,3.44,0,0,0,2.54-3.82c-.14-6.24,0-12.48,0-18.72,0-2.6-.84-3.43-3.45-3.43H8.72c-2.62,0-3.45.83-3.45,3.42q0,9.45,0,18.89c0,2.49.35,3,2.84,3.89,3.16,1.06,6.35,2,9.53,3,9.86,3.1,19.72,6.18,29.55,9.35a4.82,4.82,0,0,1,2.62,1.92,2.83,2.83,0,0,1-.57,2.62,3.28,3.28,0,0,1-2.76.63c-6.5-1.92-13-4-19.42-6s-13-4.1-19.54-6.2a20.09,20.09,0,0,1-3.75-1.61A7.08,7.08,0,0,1,0,44.45c0-6.9,0-13.8,0-20.69a7.86,7.86,0,0,1,8.06-8c9.8,0,19.6,0,29.41,0Zm47.32-.08V8.78c0-2.71-.81-3.51-3.53-3.51H47.61c-1.43,0-2.68.58-2.78,2-.2,2.81-.06,5.63-.06,8.44Z"/><path class="cls-1" d="M56.17,120.89q-20.94,0-41.89,0c-5.91,0-9-3.1-9-9V61.64a10.28,10.28,0,0,1,0-1.47A2.49,2.49,0,0,1,7.8,57.82a2.55,2.55,0,0,1,2.69,2.34,12.79,12.79,0,0,1,0,1.64v50.08c0,3,.74,3.76,3.79,3.76H97.92c.44,0,.88,0,1.32,0,2.1,0,3.25,1,3.24,2.63s-1.17,2.62-3.27,2.62Q77.7,120.91,56.17,120.89Z"/><path class="cls-1" d="M55.22,64.72c0-3,0-6,0-9,0-2.17,1-3.12,3.09-3.13,5,0,10,0,14.93,0,2,0,3,1,3,3,0,6.07.07,12.14,0,18.2a10.5,10.5,0,0,1-21-.09C55.18,70.73,55.22,67.72,55.22,64.72Zm5.26-6.83c0,5.27,0,10.39,0,15.52a5.25,5.25,0,1,0,10.49,0c0-3.93,0-7.86,0-11.79V57.89Z"/><path class="cls-1" d="M126.19,115.66c3.51,0,6.79,0,10.06,0,1.46,0,2.61.47,3,2a2.53,2.53,0,0,1-2.63,3.27c-3.78,0-7.56,0-11.33,0q-7.15,0-14.29,0c-2.19,0-3.25-.86-3.26-2.58s1.1-2.66,3.21-2.67c3.27,0,6.54,0,10,0V80.07a9.92,9.92,0,0,1,0-1.64,2.37,2.37,0,0,1,2.45-2.19,2.43,2.43,0,0,1,2.68,2.13,8.13,8.13,0,0,1,.06,1.64q0,16.83,0,33.65Z"/></g></g></g></svg>