<svg xmlns="http://www.w3.org/2000/svg" viewBox="0 0 122.02 121.93"><defs><style>.cls-1{fill:#f8a94e;}</style></defs><g id="Layer_2" data-name="Layer 2"><g id="Layer_1-2" data-name="Layer 1"><g id="dwlb4q.tif"><path class="cls-1" d="M52,0c2.67.83,4.51,2.46,4.93,5.34a21.2,21.2,0,0,1,0,2.78h1.48c7.58,0,15.17,0,22.76,0a2.72,2.72,0,0,1,1.73.72q12.14,12,24.18,24.18a2.24,2.24,0,0,1,.68,1.39q.06,15,0,30a4.5,4.5,0,0,1-.06.53h-4V36.63H79.35V12.27H57v1.35q0,24.3,0,48.61c0,4.51-2.39,6.9-6.91,6.9H18.41v48.74h85.26V93.63h4v28.3H14.28V69.13h-4c-1.35,0-2.7,0-4,0A6.06,6.06,0,0,1,0,62.87c0-7.23,0-14.46,0-21.69V7.47C0,3.1,1,1.58,5,0ZM4.06,34.68q0,13.82,0,27.63c0,2.12.64,2.76,2.77,2.76H50.08c2.19,0,2.81-.64,2.81-2.85V7c0-2.27-.62-2.89-2.9-2.89H7c-2.34,0-2.93.6-2.93,3Zm96.16-2.22L83.47,15.74V32.46Z"/><path class="cls-1" d="M122,70.07a10.34,10.34,0,0,1-3.22,4.85Q102.39,91.27,86,107.65a8.06,8.06,0,0,1-2.21,1.54c-3.08,1.48-6.2,2.85-9.28,4.3a2.11,2.11,0,0,1-2.92-3,.93.93,0,0,1,.05-.1c1.61-3.45,2.8-7.19,4.93-10.27s5.12-5.39,7.76-8q13.43-13.44,26.87-26.86a6.25,6.25,0,0,1,8-1.11A7,7,0,0,1,122,68.4ZM77.5,107.66c2.52-1.31,5-2.1,7-4.1C92.11,95.73,99.91,88,107.67,80.29a7,7,0,0,1,1-.72l-3-3.16a10.15,10.15,0,0,1-.81,1c-7.38,7.39-14.7,14.84-22.18,22.11A20.43,20.43,0,0,0,77.5,107.66Zm35.65-38.55L115.92,72c.84-1,2.35-1.67,1.85-3.29a2.44,2.44,0,0,0-1.48-1.45C114.69,66.87,114,68.28,113.15,69.11Zm-4.24,4.14,2.74,2.91,1.15-1L110,72.21Z"/><path class="cls-1" d="M67.1,94.19c-.61,11.57-10,20.24-21.26,19.69a20.35,20.35,0,0,1,1.88-40.66C58.89,73.85,67.68,83.36,67.1,94.19Zm-4-.63a16.27,16.27,0,1,0-16.32,16.27A16.32,16.32,0,0,0,63.05,93.56Z"/><path class="cls-1" d="M73.27,59H97.56V63H73.27Z"/><path class="cls-1" d="M73.27,46.66V42.78H97.56v3.88Z"/><path class="cls-1" d="M73.24,54.8V50.91H97.56V54.8Z"/><path class="cls-1" d="M97.53,71.16H73.3v-4H97.53Z"/><path class="cls-1" d="M69.09,63h-4V59.08h4Z"/><path class="cls-1" d="M69.09,42.79v3.89h-4V42.79Z"/><path class="cls-1" d="M69.08,50.89V54.8H65.15V50.89Z"/><path class="cls-1" d="M65.14,71.12v-3.9h3.92v3.9Z"/><path class="cls-1" d="M6.2,6.18H50.75v14H6.2ZM46.71,10.3H10.29v5.84H46.71Z"/><path class="cls-1" d="M48.82,57c0,.71,0,1.43,0,2.14A4,4,0,0,1,45,63a35.88,35.88,0,0,1-4.52,0,3.91,3.91,0,0,1-3.86-4c0-1.34,0-2.7,0-4a4,4,0,0,1,3.94-4.09,38.37,38.37,0,0,1,4.29,0,4.05,4.05,0,0,1,4,4.11c0,.67,0,1.35,0,2ZM44.68,58.9V55h-3.9V58.9Z"/><path class="cls-1" d="M34.57,56.93c0,.63,0,1.27,0,1.9a4,4,0,0,1-4,4.19,41.43,41.43,0,0,1-4.17,0,4,4,0,0,1-4-4.23c0-1.27,0-2.54,0-3.81a4,4,0,0,1,3.9-4.14,36,36,0,0,1,4.41,0A4,4,0,0,1,34.57,55C34.58,55.66,34.57,56.29,34.57,56.93Zm-8.06-2v3.94h3.91V55Z"/><path class="cls-1" d="M20.32,57c0,.63,0,1.27,0,1.9a4,4,0,0,1-4,4.14,38.67,38.67,0,0,1-4.17,0,4,4,0,0,1-4-4.16c0-1.27,0-2.54,0-3.81a4.07,4.07,0,0,1,4.1-4.21c1.27-.06,2.54,0,3.81,0a4.05,4.05,0,0,1,4.28,4.25C20.33,55.72,20.32,56.35,20.32,57Zm-4.13-2H12.26v3.9h3.93Z"/><path class="cls-1" d="M28.51,22.39c.72,0,1.43,0,2.15,0a4,4,0,0,1,3.89,3.77c.06,1.54.07,3.1,0,4.64a3.94,3.94,0,0,1-3.78,3.74c-1.51.07-3,.06-4.53,0a4,4,0,0,1-3.83-3.94c0-1.39,0-2.78,0-4.17a4,4,0,0,1,4.09-4.05c.67,0,1.35,0,2,0Zm-2,4.08v4h3.87v-4Z"/><path class="cls-1" d="M22.4,42.67c0-.75,0-1.51,0-2.26a3.89,3.89,0,0,1,3.64-3.74,44.45,44.45,0,0,1,4.76,0,3.91,3.91,0,0,1,3.75,3.88c0,1.39,0,2.78,0,4.17a4,4,0,0,1-4,4.1c-1.43.06-2.86.07-4.29,0a4,4,0,0,1-3.93-4.11c0-.67,0-1.35,0-2Zm4.1,2h3.95V40.77H26.5Z"/><path class="cls-1" d="M42.68,22.39c.67,0,1.35,0,2,0a4,4,0,0,1,4.11,3.93q.11,2.14,0,4.29a4,4,0,0,1-4.1,4c-1.35,0-2.7,0-4.05,0a4,4,0,0,1-4-4q-.06-2.08,0-4.17a4,4,0,0,1,4.13-4C41.41,22.37,42,22.38,42.68,22.39Zm2,8.05V26.53H40.8v3.91Z"/><path class="cls-1" d="M20.3,28.44c0,.8,0,1.59,0,2.38a3.94,3.94,0,0,1-3.79,3.73c-1.51.05-3,.05-4.53,0a4,4,0,0,1-3.81-3.72,37.81,37.81,0,0,1,0-4.64,4,4,0,0,1,4-3.79c1.3,0,2.61,0,3.92,0a4,4,0,0,1,4.24,4.15c0,.63,0,1.27,0,1.9Zm-4.11-1.91H12.28v3.91h3.91Z"/><path class="cls-1" d="M36.66,42.6c0-.79,0-1.59,0-2.38a3.83,3.83,0,0,1,3.56-3.54,44.89,44.89,0,0,1,4.64,0,4,4,0,0,1,3.94,4q.09,2.09,0,4.17a4.07,4.07,0,0,1-4.15,4q-1.9,0-3.81,0a4.06,4.06,0,0,1-4.22-4.19c0-.68,0-1.35,0-2Zm8,2.09V40.78H40.76v3.91Z"/><path class="cls-1" d="M20.32,42.7c0,.68,0,1.35,0,2a4,4,0,0,1-4.07,4.09c-1.35,0-2.7,0-4,0a4.07,4.07,0,0,1-4.06-4.13q0-2,0-3.93a4,4,0,0,1,4-4.11c1.34,0,2.7,0,4.05,0a4,4,0,0,1,4.09,4.17C20.33,41.43,20.32,42.07,20.32,42.7Zm-4.13-1.92h-3.9v3.9h3.9Z"/><path class="cls-1" d="M44.79,83.37v-2h4v2.12c3.1.88,5.64,2.21,6.15,5.94-1.33,0-2.54,0-3.75,0-.15,0-.32-.19-.45-.32a5.84,5.84,0,0,0-7.16-.8c-1.1.77-1.17,1.69,0,2.28a9.29,9.29,0,0,0,3.27.88A11.31,11.31,0,0,1,52,92.9c3.89,2.38,3.93,7,.05,9.36a26.19,26.19,0,0,1-3.14,1.42l-.11,2H45c0-.06-.14-.13-.13-.18.22-1.5-.47-2.12-1.89-2.59a5.83,5.83,0,0,1-4.32-5.28c1.29,0,2.47,0,3.65,0a.94.94,0,0,1,.56.34,5.9,5.9,0,0,0,7.18.76c1.08-.77,1.12-1.72-.1-2.29a10.4,10.4,0,0,0-3.39-.87A10.67,10.67,0,0,1,41.35,94c-3.66-2.44-3.62-6.85.12-9.17A27.47,27.47,0,0,1,44.79,83.37Z"/></g></g></g></svg>