<svg xmlns="http://www.w3.org/2000/svg" viewBox="0 0 127.4 127.45"><defs><style>.cls-1{fill:#f8a94e;}</style></defs><g id="Layer_2" data-name="Layer 2"><g id="Layer_1-2" data-name="Layer 1"><g id="q73BL3.tif"><path class="cls-1" d="M28.79,127.45c.1-2.71-.43-5.5,1.15-8.22H27.38c-3.85,0-7.75.25-11.54-.24A18,18,0,0,1,.17,98.38Q2.83,78.22,22.38,72.43a6.65,6.65,0,0,0,1.22-.76c-5.73-2.12-8.82-6-9.24-11.93-.51-.09-1-.18-1.57-.29a8.18,8.18,0,0,1-6-11,3.32,3.32,0,0,0,.11-1.82,20.78,20.78,0,0,1,8.52-22.39,2.21,2.21,0,0,0,1.11-2.17c0-5.13,0-10.27,0-15.41,0-4.1,2.55-6.66,6.64-6.66q20.09,0,40.18,0c4,0,6.58,2.58,6.59,6.59v32c0,4.08-2.57,6.62-6.68,6.63H56.91c-1.89,0-2.72,1.27-2,3.14a8,8,0,0,1-1.68,8.68,8.32,8.32,0,0,1-5.86,2.6c-.42,5.89-3.41,9.83-9.09,11.9.28.31.45.66.69.73a30.89,30.89,0,0,1,10.39,4.77c0-1.72,0-3.2,0-4.68,0-6.27,4.4-10.7,10.64-10.7q22.22,0,44.43,0c6.25,0,10.65,4.42,10.66,10.69q0,14,0,28A10.27,10.27,0,0,1,104.47,111h-11c.25,1.28.43,2.45.73,3.59.06.23.53.48.84.51,4.83.59,7.74,3.85,7.76,8.74v3.6Zm63.76-20.61c4.41,0,8.77.17,13.12,0a5.82,5.82,0,0,0,5.27-5.85q.07-14.58,0-29.15a6,6,0,0,0-6-6q-22.73,0-45.45,0a6,6,0,0,0-6,6q-.07,14.56,0,29.15a6.07,6.07,0,0,0,5.91,6c1.32,0,2.65,0,4,0h8.5c.85-4.15,1.68-8.2,2.5-12.24H90.06c.43,2.1.83,4.11,1.24,6.12S92.13,104.78,92.55,106.84Zm-35,4c-5.64-1.61-8.45-6-8.22-11.79.21-5.22.06-10.44,0-15.66a2,2,0,0,0-.41-1.37,23.88,23.88,0,0,0-9.75-5.38c-1.8,5.39-4.22,7.59-8.27,7.61s-6.46-2.12-8.37-7.61c-.36.1-.72.19-1.08.31A25.51,25.51,0,0,0,4.18,99.42c-.53,8.19,4.56,14.72,12.49,15.56a109.39,109.39,0,0,0,11,.14h5.14v-5.88c-4-.52-8-.95-11.88-1.56a9.78,9.78,0,0,1-7.88-6.4c-1.16-2.83-.61-5.78-.69-8.7h4.09c0,1.55,0,3,0,4.52,0,3.77,2.15,6.22,5.87,6.68q8.65,1.08,17.31,2.13c4.78.59,8.2,3.43,9.32,7.77.11.45.2.9.31,1.35h8.23Zm-2-69.73c2.69,0,5.25,0,7.81,0a2.13,2.13,0,0,0,2.44-2.44V6.61c0-1.68-.76-2.45-2.42-2.45H23.05c-1.74,0-2.47.75-2.47,2.53q0,7,0,14c0,.29,0,.57.06.92a11.18,11.18,0,0,1,2.05-.48c4-.2,8.09-.47,12.14-.49a19.74,19.74,0,0,1,13.08,4.82A21.08,21.08,0,0,1,55.52,41.15Zm-28.68,2c-.11-.48-.18-.94-.31-1.38A3.19,3.19,0,0,0,21.32,40a6.71,6.71,0,0,0-2.79,5.52c0,4.7,0,9.4,0,14.11a8.17,8.17,0,0,0,8.13,8.2q4.17.06,8.34,0a8.16,8.16,0,0,0,8.16-8.17c.05-5.43,0-10.87,0-16.3a4,4,0,0,0-4.83-4.2l.85,4H35c-.44-3.07-2.07-4.34-4.89-4l.82,4ZM47.32,43l3.8,1A16.54,16.54,0,0,0,37.34,25,70.23,70.23,0,0,0,27,24.72a16.79,16.79,0,0,0-16.08,12.4A14.1,14.1,0,0,0,10.56,44l3.9-.94a31,31,0,0,1,2.34-4.25,8.88,8.88,0,0,1,7.66-3.87c4.62.16,9.24,0,13.86,0C43.54,35,46.76,37.86,47.32,43ZM33,123.26H98.59a4,4,0,0,0-4.32-4q-12.7,0-25.42,0H37.39A4.06,4.06,0,0,0,33,123.26ZM86.69,98.68c-2.85,0-5.54,0-8.23,0-.72,0-.81.36-.92.92-.56,2.81-1.15,5.61-1.72,8.41-.48,2.33-.93,4.66-1.41,7H90C88.9,109.57,87.81,104.19,86.69,98.68ZM30.86,72c-.86,0-1.71,0-2.56,0a1.19,1.19,0,0,0-.89.45,6.94,6.94,0,0,0-.54,4.61,4.09,4.09,0,0,0,3.9,3.13,4,4,0,0,0,4-3.11,7.76,7.76,0,0,0,.07-2.92C34.45,72,34.38,72,32.14,72Zm30.85,43.15c2.66,0,5.17,0,7.68,0a1.16,1.16,0,0,0,.9-.58c.29-1.1.46-2.24.69-3.42H61.71ZM45,115.06c-.39-3.32-3.61-5.41-7.88-5.16v5.16Zm2.35-59.59a4.05,4.05,0,1,0,0-8.1Zm-33-8.11a4.11,4.11,0,0,0-4.06,4.46c.16,1.81,2.08,4,4.06,3.54Z"/><path class="cls-1" d="M127.4,40.38c-.88,2.35-2.28,4.18-4.9,4.72a8.89,8.89,0,0,1-1.79.15h-40c-4.11,0-6.68-2.54-6.68-6.62q0-16,0-32C74,2.59,76.56.05,80.67.05c13,0,25.93.08,38.89,0,3.85,0,6.54,1.2,7.84,4.93ZM100.82,4.16H80.92c-2.18,0-2.82.64-2.82,2.82V38.32c0,2.18.64,2.82,2.82,2.82h39.54c2.19,0,2.83-.64,2.83-2.82V7c0-2.19-.64-2.83-2.82-2.83Z"/><path class="cls-1" d="M24.74,12.29v-4H61.56v4Z"/><path class="cls-1" d="M45.29,20.51v-4H61.56v4Z"/><path class="cls-1" d="M22.72,55.59h3.44A23.39,23.39,0,0,0,28.74,59a3.71,3.71,0,0,0,2.4.63c2,0,3.36-1.49,3.88-4h3.91c.43,4-3.41,8-7.8,8.14C26.49,63.87,22.48,60,22.72,55.59Z"/><path class="cls-1" d="M26.73,49.43a2,2,0,0,1-4.09-.13,2,2,0,0,1,2.1-2A2.08,2.08,0,0,1,26.73,49.43Z"/><path class="cls-1" d="M39.05,49.4a2,2,0,1,1-2-2.08A2.07,2.07,0,0,1,39.05,49.4Z"/><path class="cls-1" d="M82.26,37V24.77H98.54V37Zm4.08-4.1h8.1V28.92h-8.1Z"/><path class="cls-1" d="M119.12,8.34v3.95H82.29V8.34Z"/><path class="cls-1" d="M82.24,20.49V16.58H119.1v3.91Z"/><path class="cls-1" d="M119.11,28.76H102.84v-4h16.27Z"/><path class="cls-1" d="M102.81,36.94V33h16.27v3.95Z"/></g></g></g></svg>