<svg xmlns="http://www.w3.org/2000/svg" viewBox="0 0 120.31 120.37"><defs><style>.cls-1{fill:#f8a94e;}</style></defs><g id="Layer_2" data-name="Layer 2"><g id="Layer_1-2" data-name="Layer 1"><g id="ORUVMF.tif"><path class="cls-1" d="M80.84,0a17.77,17.77,0,0,1,2.6,1,7.86,7.86,0,0,1,4.24,6.85c.06,1.61,0,3.22.06,4.82a2.86,2.86,0,0,0,.71,1.7A12.89,12.89,0,0,1,92,25.49a2,2,0,0,0,.39,1.33C94.2,29,96,31.05,97.85,33.16c2.52,2.93,2.54,5.82,0,8.76S93,47.69,90.46,50.56a4.64,4.64,0,0,1-6.51.69,4.54,4.54,0,0,1-.43-6.6c2-2.36,4-4.69,6.07-7.08L86.53,34a12.94,12.94,0,0,1-14,0l-3.08,3.57c2,2.34,4,4.66,6,7a4.56,4.56,0,0,1,1.26,3.65,4.26,4.26,0,0,1-3.1,3.88,4.36,4.36,0,0,1-4.82-1.29c-2.71-3.09-5.4-6.21-8-9.36a5.85,5.85,0,0,1,.07-7.76c1.9-2.28,3.88-4.51,5.8-6.78a1.62,1.62,0,0,0,.46-1.1,13.13,13.13,0,0,1,1.83-9.28c-.49,0-.84-.08-1.2-.08h-28a2.24,2.24,0,0,0-2.39,2.36q0,24.9,0,49.82a1.66,1.66,0,0,0,.6,1.29,14.81,14.81,0,0,1,8.63,11.47H57.54V58c0-2.11.46-2.59,2.52-2.59h39c2,0,2.48.51,2.48,2.51V81.36c1,.14,1.88.24,2.79.4a19.42,19.42,0,0,1-.92,38.38,23.86,23.86,0,0,1-3,.19H44.56a7.38,7.38,0,0,1-.94,0,1.7,1.7,0,0,1-1.63-1.8,1.65,1.65,0,0,1,1.61-1.69,9.26,9.26,0,0,1,1.18,0q28,0,56,0A15.91,15.91,0,0,0,102.2,85c-.7-.05-1.4-.08-2.11-.08H20.21C12.65,85,6.69,89,4.39,95.76a15.92,15.92,0,0,0,14.89,21c5.52,0,11,0,16.57,0,.39,0,.9-.13,1.14.07a3.75,3.75,0,0,1,1.34,1.56c.25.83-.32,1.48-1.14,1.8a1.25,1.25,0,0,1-.46.09c-6.62-.06-13.26.27-19.84-.28-8.56-.71-15.39-7.72-16.66-16.2A9.12,9.12,0,0,0,0,103V98.72a2.7,2.7,0,0,0,.2-.54A19.08,19.08,0,0,1,6.92,86,19.42,19.42,0,0,1,17.8,81.48l.25-1a14.09,14.09,0,0,1,8-10.27,1.63,1.63,0,0,0,1.06-1.77c0-6.38,0-12.76,0-19.15a4.54,4.54,0,0,1,.15-1.38A1.57,1.57,0,0,1,29,46.69a1.59,1.59,0,0,1,1.54,1.5,9.25,9.25,0,0,1,0,1.18V68.71h3.2V19.56h-3.2V40.37a7.91,7.91,0,0,1,0,1.29A1.6,1.6,0,0,1,29,43.06a1.57,1.57,0,0,1-1.78-1,4.62,4.62,0,0,1-.19-1.49q0-10.76,0-21.5a2.3,2.3,0,0,0-.73-1.85A8.34,8.34,0,1,1,38.07,5.32,2.45,2.45,0,0,0,40,6.1c9.64,0,19.27-.06,28.9,0,1.72,0,2.85-.14,3.64-2,1-2.37,3.28-3.45,5.7-4.1Zm6.29,59v1.36c0,2.66,0,5.32,0,8,0,1.8-1.09,2.53-2.79,1.94-1.18-.42-2.36-.84-3.52-1.31a2.92,2.92,0,0,0-2.47,0c-1.1.49-2.26.85-3.4,1.26-2,.72-3,0-3-2.15,0-1.76,0-3.52,0-5.28V59H61.14V81.35h36.8V59ZM21.56,81.34H42.94a10.86,10.86,0,0,0-10.81-9.1C26.86,72.32,22,76.47,21.56,81.34Zm67.07-58a9.09,9.09,0,1,0-9.06,9.13A9.06,9.06,0,0,0,88.63,23.36ZM71.31,12.78V9.7H40.49v3.08ZM32.13,16A4.8,4.8,0,0,0,37,11.22,4.85,4.85,0,1,0,32.13,16Zm52-4.46c0-1.29,0-2.46,0-3.62A4.63,4.63,0,0,0,80,3.55,4.5,4.5,0,0,0,75.1,7a26,26,0,0,0,0,4.6A13.33,13.33,0,0,1,84.16,11.58ZM83.54,59h-8v7.34a7,7,0,0,1,8,0Zm5.7-27.45a1.26,1.26,0,0,0,.09.26c.91,1.08,1.83,2.15,2.74,3.22,1.59,1.87,1.59,3.23,0,5.09l-5.82,6.76c-.48.56-.67,1.22,0,1.6a1.58,1.58,0,0,0,1.49-.25c2.66-3,5.25-6,7.84-9.06a2.17,2.17,0,0,0,.22-2.84c-1.7-2.17-3.55-4.24-5.38-6.41ZM68.66,29.94c-1.83,2.15-3.65,4.19-5.36,6.32a2.39,2.39,0,0,0,.37,3.11c2.47,2.89,5,5.76,7.42,8.65.51.58,1.07,1.06,1.78.46s.27-1.25-.22-1.82Q69.77,43.33,66.91,40c-1.45-1.7-1.46-3.11,0-4.82l3-3.54Z"/><path class="cls-1" d="M60.23,93.33a7.26,7.26,0,1,1-7.33,7.17A7.29,7.29,0,0,1,60.23,93.33Zm-.07,11a3.72,3.72,0,0,0,.05-7.44,3.72,3.72,0,1,0-.05,7.44Z"/><path class="cls-1" d="M29.66,100.93a7.22,7.22,0,1,1-7.17-7.3A7.2,7.2,0,0,1,29.66,100.93Zm-10.9-.07a3.69,3.69,0,1,0,3.74-3.68A3.69,3.69,0,0,0,18.76,100.86Z"/><path class="cls-1" d="M90.66,100.87a7.22,7.22,0,1,1,7.2,7.25A7.25,7.25,0,0,1,90.66,100.87Zm3.53-.05A3.69,3.69,0,1,0,98,97.18,3.7,3.7,0,0,0,94.19,100.82Z"/><path class="cls-1" d="M34.07,100.54a7.24,7.24,0,1,1,7.2,7.3A7.26,7.26,0,0,1,34.07,100.54Zm3.53,0a3.7,3.7,0,1,0,3.75-3.69A3.75,3.75,0,0,0,37.6,100.55Z"/><path class="cls-1" d="M86.25,100.63a7.24,7.24,0,1,1-7.18-7.31A7.27,7.27,0,0,1,86.25,100.63Zm-3.53,0A3.71,3.71,0,1,0,79,104.3,3.74,3.74,0,0,0,82.72,100.67Z"/><path class="cls-1" d="M79.6,17.36a6,6,0,1,1-6.09,6A6,6,0,0,1,79.6,17.36Zm2.44,6a2.5,2.5,0,0,0-5-.07,2.5,2.5,0,1,0,5,.07Z"/></g></g></g></svg>