<svg xmlns="http://www.w3.org/2000/svg" viewBox="0 0 125.4 125.4"><defs><style>.cls-1{fill:#f8a94e;}</style></defs><g id="Layer_2" data-name="Layer 2"><g id="Layer_1-2" data-name="Layer 1"><g id="_8bYyxc.tif" data-name="8bYyxc.tif"><path class="cls-1" d="M50.7,0a3,3,0,0,1,1,2.49q0,23.21,0,46.41v1.49H68.18V49c0-6.45,0-12.9,0-19.34a4.18,4.18,0,0,1,1.57-3.39A54.87,54.87,0,0,1,87.37,15.71a81.77,81.77,0,0,1,28.3-4.92c1.51,0,2.07.53,2.11,2,0,.37,0,.74,0,1.11V122.25c1.74,0,3.44,0,5.13,0a2.9,2.9,0,0,1,2.49,1v2.2H0v-2.2a2.93,2.93,0,0,1,2.49-1c1.9.06,3.81,0,5.84,0v-1.68q0-59,0-118A2.84,2.84,0,0,1,9.31,0Zm63.86,14c-.49,0-.93,0-1.37,0a78.81,78.81,0,0,0-19.54,3A55.94,55.94,0,0,0,72.17,28.25a2.37,2.37,0,0,0-.87,2q0,45.32,0,90.62v1.31H81.37V107.33c0-1.9.48-2.37,2.41-2.38q9.24,0,18.49,0c1.85,0,2.3.48,2.3,2.34q0,6.79,0,13.59v1.31h10ZM48.42,50.46V3.25H11.57v118.9h6.24v-1.42c0-4.49,0-9,0-13.47,0-1.89.41-2.3,2.32-2.31q4.59,0,9.18,0c1.76,0,2.26.51,2.26,2.26,0,4.53,0,9.06,0,13.59v1.36H38V53.06c0-2.23.38-2.6,2.65-2.6Zm-7.21,3.22v68.5h26.9V53.68ZM84.6,108.12v14h16.73v-14Zm-63.6,0v14h7.33v-14Z"/><path class="cls-1" d="M94,53.42c0,.61,0,1.23,0,1.83a1.51,1.51,0,0,1-1.58,1.53,1.49,1.49,0,0,1-1.53-1.57c0-1.22,0-2.44,0-3.65a1.55,1.55,0,0,1,3.1-.09A15.86,15.86,0,0,1,94,53.42Z"/><path class="cls-1" d="M101.19,53.29a16,16,0,0,1,0-1.83A1.5,1.5,0,0,1,102.81,50a1.45,1.45,0,0,1,1.48,1.48,33.66,33.66,0,0,1,0,3.89,1.44,1.44,0,0,1-1.52,1.44,1.47,1.47,0,0,1-1.54-1.43,15.72,15.72,0,0,1,0-2.06Z"/><path class="cls-1" d="M94,64.12c0,.61,0,1.23,0,1.83a1.55,1.55,0,0,1-3.1-.08q-.06-1.83,0-3.66a1.45,1.45,0,0,1,1.53-1.55A1.48,1.48,0,0,1,94,62.18C94.05,62.82,94,63.47,94,64.12Z"/><path class="cls-1" d="M94,74.75a14.09,14.09,0,0,1,0,2,1.47,1.47,0,0,1-1.65,1.43,1.45,1.45,0,0,1-1.43-1.53q-.08-1.89,0-3.78a1.46,1.46,0,0,1,1.47-1.5A1.44,1.44,0,0,1,94,72.68a14.29,14.29,0,0,1,0,2.07Z"/><path class="cls-1" d="M104.32,74.73c0,.61,0,1.22,0,1.83a1.5,1.5,0,0,1-1.53,1.57,1.45,1.45,0,0,1-1.57-1.51,31.61,31.61,0,0,1,0-3.77,1.48,1.48,0,0,1,1.58-1.53,1.52,1.52,0,0,1,1.53,1.58C104.35,73.51,104.32,74.12,104.32,74.73Z"/><path class="cls-1" d="M104.31,32.05c0,.61,0,1.22,0,1.83a1.5,1.5,0,0,1-1.56,1.54A1.45,1.45,0,0,1,101.21,34a33.65,33.65,0,0,1,0-3.89,1.44,1.44,0,0,1,1.61-1.46,1.47,1.47,0,0,1,1.48,1.49C104.36,30.75,104.31,31.4,104.31,32.05Z"/><path class="cls-1" d="M101.19,42.7c0-.65,0-1.31,0-2a1.55,1.55,0,0,1,3.1,0q.09,1.89,0,3.78a1.45,1.45,0,0,1-1.57,1.51,1.49,1.49,0,0,1-1.54-1.56c0-.6,0-1.22,0-1.82Z"/><path class="cls-1" d="M101.18,96.08c0-.6,0-1.22,0-1.82a1.52,1.52,0,0,1,1.54-1.58,1.48,1.48,0,0,1,1.57,1.53,36.47,36.47,0,0,1,0,3.77,1.54,1.54,0,0,1-3.08,0,18.1,18.1,0,0,1,0-2Z"/><path class="cls-1" d="M104.29,64.14a15.85,15.85,0,0,1,0,2,1.45,1.45,0,0,1-1.47,1.36,1.41,1.41,0,0,1-1.58-1.36,31.72,31.72,0,0,1,0-4,1.42,1.42,0,0,1,1.53-1.42,1.47,1.47,0,0,1,1.54,1.43,20.21,20.21,0,0,1,0,2.06Z"/><path class="cls-1" d="M90.87,96.05c0-.61,0-1.22,0-1.83a1.49,1.49,0,0,1,1.44-1.53A1.39,1.39,0,0,1,93.93,94a28.71,28.71,0,0,1,0,4.25,1.34,1.34,0,0,1-1.55,1.23,1.42,1.42,0,0,1-1.46-1.36,20.4,20.4,0,0,1,0-2.07Z"/><path class="cls-1" d="M94,32.09a16,16,0,0,1,0,1.83,1.55,1.55,0,0,1-3.1-.1c0-1.22,0-2.44,0-3.66A1.54,1.54,0,0,1,94,30a15.7,15.7,0,0,1,0,2.06Z"/><path class="cls-1" d="M90.88,42.68c0-.65,0-1.3,0-2,.08-.9.68-1.55,1.51-1.41a2.12,2.12,0,0,1,1.48,1.26,18.78,18.78,0,0,1,0,4.24,1.36,1.36,0,0,1-1.65,1.25,1.42,1.42,0,0,1-1.38-1.44C90.84,44,90.88,43.33,90.88,42.68Z"/><path class="cls-1" d="M104.31,85.43a17.91,17.91,0,0,1,0,1.94,1.48,1.48,0,0,1-1.53,1.45,1.44,1.44,0,0,1-1.54-1.42,31.56,31.56,0,0,1,0-4A1.4,1.4,0,0,1,102.8,82a1.46,1.46,0,0,1,1.49,1.46A18.1,18.1,0,0,1,104.31,85.43Z"/><path class="cls-1" d="M90.87,85.38c0-.61,0-1.22,0-1.83A1.46,1.46,0,0,1,92.31,82,1.42,1.42,0,0,1,94,83.44a29.81,29.81,0,0,1,0,4,1.41,1.41,0,0,1-1.58,1.37,1.48,1.48,0,0,1-1.48-1.49c0-.65,0-1.3,0-2Z"/><path class="cls-1" d="M81.05,74.72a20.42,20.42,0,0,1,0-2.07,1.37,1.37,0,0,1,1.47-1.33A1.34,1.34,0,0,1,84,72.62a37.66,37.66,0,0,1,0,4.25,1.32,1.32,0,0,1-1.51,1.26,1.37,1.37,0,0,1-1.46-1.34C81,76.1,81.05,75.41,81.05,74.72Z"/><path class="cls-1" d="M84.15,53.43c0,.69,0,1.39-.11,2.07a1.38,1.38,0,0,1-1.51,1.28,1.36,1.36,0,0,1-1.46-1.34c-.06-1.38-.07-2.76,0-4.13A1.35,1.35,0,0,1,82.53,50,1.37,1.37,0,0,1,84,51.25a19.81,19.81,0,0,1,0,2.18Z"/><path class="cls-1" d="M84.05,42.64a17.6,17.6,0,0,1,0,2.18,1.49,1.49,0,0,1-3-.08c-.07-1.37-.06-2.75,0-4.13a1.36,1.36,0,0,1,1.47-1.33A1.38,1.38,0,0,1,84,40.57c.08.68.07,1.38.1,2.07Z"/><path class="cls-1" d="M81,96c0-.61,0-1.22,0-1.83a1.42,1.42,0,0,1,1.45-1.49A1.36,1.36,0,0,1,84.05,94c.06,1.38.06,2.76,0,4.13a1.31,1.31,0,0,1-1.47,1.3,1.38,1.38,0,0,1-1.52-1.4c0-.68,0-1.37,0-2.06Z"/><path class="cls-1" d="M84.06,85.46a20.2,20.2,0,0,1,0,2.06,1.37,1.37,0,0,1-1.49,1.3,1.36,1.36,0,0,1-1.48-1.32c-.06-1.38-.06-2.76,0-4.13A1.32,1.32,0,0,1,82.51,82,1.34,1.34,0,0,1,84,83.27c.11.72.08,1.46.12,2.19Z"/><path class="cls-1" d="M81.05,64c0-.66,0-1.31,0-2a1.36,1.36,0,0,1,1.46-1.34A1.32,1.32,0,0,1,84,61.94a41,41,0,0,1,0,4.15,1.36,1.36,0,0,1-1.58,1.35A1.38,1.38,0,0,1,81.05,66c0-.69,0-1.38,0-2.07Z"/><path class="cls-1" d="M41.09,32a12.67,12.67,0,0,1,0,1.95,1.44,1.44,0,0,1-1.61,1.35A1.4,1.4,0,0,1,38,33.87,30,30,0,0,1,38,30a1.38,1.38,0,0,1,1.48-1.34,1.4,1.4,0,0,1,1.54,1.27,14.29,14.29,0,0,1,0,2.07Z"/><path class="cls-1" d="M38,42.17c0-.61-.05-1.23,0-1.84a1.45,1.45,0,0,1,1.53-1.44,1.41,1.41,0,0,1,1.55,1.4,26.63,26.63,0,0,1,0,3.79,1.44,1.44,0,0,1-1.51,1.46A1.51,1.51,0,0,1,38,44c-.05-.6,0-1.22,0-1.83Z"/><path class="cls-1" d="M38,21.62c0-.57,0-1.15,0-1.71a1.49,1.49,0,0,1,1.55-1.56,1.42,1.42,0,0,1,1.54,1.42,26.63,26.63,0,0,1,0,3.79A1.42,1.42,0,0,1,39.55,25,1.49,1.49,0,0,1,38,23.45C37.94,22.84,38,22.23,38,21.62Z"/><path class="cls-1" d="M27.69,52.39c0-.61-.05-1.22,0-1.83a1.43,1.43,0,0,1,1.43-1.4,1.33,1.33,0,0,1,1.57,1.21,20.81,20.81,0,0,1-.06,4.25,1.82,1.82,0,0,1-1.43,1.11,2.31,2.31,0,0,1-1.46-1.29,5.59,5.59,0,0,1-.05-2Z"/><path class="cls-1" d="M30.84,62.81a5.06,5.06,0,0,1-.15,1.93A2.54,2.54,0,0,1,29.2,66a1.33,1.33,0,0,1-1.5-1.41c-.06-1.26-.06-2.53,0-3.79a1.52,1.52,0,0,1,3-.09,15.87,15.87,0,0,1,0,2.07Z"/><path class="cls-1" d="M27.68,73c0-.61,0-1.23,0-1.83a1.47,1.47,0,0,1,1.53-1.45A1.36,1.36,0,0,1,30.72,71a30,30,0,0,1,0,4,1.4,1.4,0,0,1-1.62,1.33,1.48,1.48,0,0,1-1.43-1.55c0-.61,0-1.22,0-1.83Z"/><path class="cls-1" d="M27.69,83.28a5.16,5.16,0,0,1,0-1.93A2.59,2.59,0,0,1,29.17,80a1.25,1.25,0,0,1,1.54,1.21,31.77,31.77,0,0,1,0,4.14,1.35,1.35,0,0,1-1.53,1.27,1.46,1.46,0,0,1-1.49-1.48c0-.61,0-1.23,0-1.84Z"/><path class="cls-1" d="M27.69,21.56a16,16,0,0,1,0-1.83,1.41,1.41,0,0,1,1.44-1.37,1.33,1.33,0,0,1,1.55,1.23,27.25,27.25,0,0,1,0,4.14A1.34,1.34,0,0,1,29.18,25a1.45,1.45,0,0,1-1.49-1.47c-.05-.65,0-1.3,0-2Z"/><path class="cls-1" d="M27.68,42.17c0-.61,0-1.23,0-1.84a1.42,1.42,0,0,1,1.4-1.43,1.36,1.36,0,0,1,1.63,1.28,27,27,0,0,1,0,4,1.39,1.39,0,0,1-1.61,1.33A1.45,1.45,0,0,1,27.69,44c0-.61,0-1.22,0-1.83Z"/><path class="cls-1" d="M27.69,31.85c0-.61-.05-1.23,0-1.83a1.41,1.41,0,0,1,1.43-1.39,1.31,1.31,0,0,1,1.56,1.21,20.81,20.81,0,0,1-.05,4.25c-.07.45-.9,1-1.45,1.13-.82.16-1.38-.47-1.48-1.3a17.86,17.86,0,0,1,0-2.07Z"/><path class="cls-1" d="M27.68,93.51c0-.61,0-1.22,0-1.83.07-.9.66-1.57,1.49-1.44a2.13,2.13,0,0,1,1.49,1.26,19,19,0,0,1,0,4.13,1.22,1.22,0,0,1-1.54,1.18,2.57,2.57,0,0,1-1.42-1.37,5.16,5.16,0,0,1,0-1.93Z"/><path class="cls-1" d="M17.86,72.9a18.29,18.29,0,0,1,0-2,1.28,1.28,0,0,1,1.52-1.23c.54.12,1.32.73,1.39,1.21a22,22,0,0,1,0,4.14,1.33,1.33,0,0,1-1.52,1.27A1.39,1.39,0,0,1,17.85,75c0-.69,0-1.38,0-2.07Z"/><path class="cls-1" d="M20.85,83.35c0,.65,0,1.31,0,2a1.37,1.37,0,0,1-1.51,1.3,1.36,1.36,0,0,1-1.47-1.34c-.05-1.34-.06-2.68,0-4a1.37,1.37,0,0,1,1.5-1.31,1.38,1.38,0,0,1,1.48,1.34c0,.69,0,1.39,0,2.08Z"/><path class="cls-1" d="M20.85,93.6c0,.65,0,1.3,0,2a1.37,1.37,0,0,1-1.49,1.31,1.34,1.34,0,0,1-1.48-1.32,38.5,38.5,0,0,1,0-4,1.35,1.35,0,0,1,1.48-1.32,1.38,1.38,0,0,1,1.49,1.32C20.9,92.21,20.85,92.91,20.85,93.6Z"/><path class="cls-1" d="M17.84,62.61c0-.61,0-1.23,0-1.83a1.39,1.39,0,0,1,1.45-1.36,1.33,1.33,0,0,1,1.53,1.26,21.89,21.89,0,0,1,0,4.13A2,2,0,0,1,19.39,66a1.26,1.26,0,0,1-1.51-1.23,20,20,0,0,1,0-2.19Z"/><path class="cls-1" d="M20.87,42.25c0,.61,0,1.22,0,1.83a1.41,1.41,0,0,1-1.49,1.45,1.37,1.37,0,0,1-1.53-1.4c-.05-1.3-.05-2.61,0-3.91a1.34,1.34,0,0,1,1.47-1.32,1.35,1.35,0,0,1,1.51,1.27,20.62,20.62,0,0,1,0,2.08Z"/><path class="cls-1" d="M20.86,21.69c0,.65.05,1.3,0,1.95A1.37,1.37,0,0,1,19.4,25a1.36,1.36,0,0,1-1.54-1.38c-.07-1.3-.06-2.6,0-3.9a1.35,1.35,0,0,1,1.45-1.35,1.38,1.38,0,0,1,1.54,1.38c.06.64,0,1.3,0,2Z"/><path class="cls-1" d="M17.86,52.36a15.85,15.85,0,0,1,0-2,1.25,1.25,0,0,1,1.53-1.2c.54.13,1.31.73,1.38,1.2a21.2,21.2,0,0,1,0,4.14,1.23,1.23,0,0,1-1.51,1.21,2.23,2.23,0,0,1-1.39-1.23A6.52,6.52,0,0,1,17.86,52.36Z"/><path class="cls-1" d="M17.83,31.91c0-.61,0-1.22,0-1.83a1.39,1.39,0,0,1,1.48-1.45A1.36,1.36,0,0,1,20.85,30c.06,1.3.06,2.6,0,3.9a1.34,1.34,0,0,1-1.46,1.34,1.39,1.39,0,0,1-1.53-1.4c-.05-.64,0-1.3,0-1.95Z"/><path class="cls-1" d="M51.64,64.8c0,.66,0,1.31,0,2a1.51,1.51,0,0,1-1.56,1.55,1.47,1.47,0,0,1-1.55-1.55c-.05-1.34-.06-2.69,0-4a1.46,1.46,0,0,1,1.55-1.54,1.48,1.48,0,0,1,1.56,1.54A20.42,20.42,0,0,1,51.64,64.8Z"/><path class="cls-1" d="M48.51,76.32c0-.65,0-1.31,0-1.95A1.51,1.51,0,0,1,50,72.77a1.47,1.47,0,0,1,1.59,1.51,33.8,33.8,0,0,1,0,4.15A1.42,1.42,0,0,1,50,79.88a1.44,1.44,0,0,1-1.46-1.49,20.42,20.42,0,0,1,0-2.07Z"/><path class="cls-1" d="M48.51,111.07c0-.65,0-1.3,0-1.95a1.5,1.5,0,0,1,1.55-1.56A1.44,1.44,0,0,1,51.61,109a37.84,37.84,0,0,1,0,4.26,1.41,1.41,0,0,1-1.54,1.42,1.47,1.47,0,0,1-1.55-1.54C48.46,112.46,48.51,111.76,48.51,111.07Z"/><path class="cls-1" d="M48.52,99.51a20.4,20.4,0,0,1,0-2.07A1.46,1.46,0,0,1,50,96a1.4,1.4,0,0,1,1.56,1.39,22.86,22.86,0,0,1-.06,4.38,2.18,2.18,0,0,1-1.45,1.31c-.86.19-1.44-.49-1.55-1.36a20,20,0,0,1,0-2.19Z"/><path class="cls-1" d="M60.75,87.93c0,.69,0,1.39,0,2.08a1.45,1.45,0,0,1-1.47,1.49,1.34,1.34,0,0,1-1.54-1.25,44.5,44.5,0,0,1,0-4.62,1.33,1.33,0,0,1,1.53-1.25,1.44,1.44,0,0,1,1.48,1.48C60.78,86.55,60.75,87.24,60.75,87.93Z"/><path class="cls-1" d="M48.52,87.89c0-.69-.05-1.38,0-2.07a1.48,1.48,0,0,1,1.53-1.45,1.44,1.44,0,0,1,1.55,1.42,40.36,40.36,0,0,1,0,4.26,1.45,1.45,0,0,1-1.52,1.46A1.51,1.51,0,0,1,48.52,90c-.05-.69,0-1.38,0-2.08Z"/><path class="cls-1" d="M60.75,111.09c0,.74,0,1.47,0,2.2a1.4,1.4,0,0,1-1.42,1.39,1.31,1.31,0,0,1-1.57-1.2,27.64,27.64,0,0,1,.06-4.73c0-.45.89-1,1.44-1.15a1.31,1.31,0,0,1,1.48,1.3c.07.72,0,1.46,0,2.19Z"/><path class="cls-1" d="M60.76,64.69c0,.7,0,1.39,0,2.08a1.45,1.45,0,0,1-1.42,1.54A1.36,1.36,0,0,1,57.73,67a37.7,37.7,0,0,1,0-4.51,1.35,1.35,0,0,1,1.62-1.28,1.39,1.39,0,0,1,1.39,1.42c0,.69,0,1.38,0,2.07Z"/><path class="cls-1" d="M60.76,99.55c0,.65,0,1.3,0,2a1.47,1.47,0,0,1-1.49,1.6,1.39,1.39,0,0,1-1.56-1.38,40,40,0,0,1,0-4.38A1.37,1.37,0,0,1,59.29,96a1.42,1.42,0,0,1,1.46,1.48c0,.69,0,1.39,0,2.08Z"/><path class="cls-1" d="M60.75,76.38c0,.7,0,1.39,0,2.08a1.39,1.39,0,0,1-1.39,1.42,1.35,1.35,0,0,1-1.62-1.28,37.53,37.53,0,0,1,0-4.5,1.36,1.36,0,0,1,1.6-1.32,1.44,1.44,0,0,1,1.42,1.53c0,.69,0,1.38,0,2.07Z"/></g></g></g></svg>