<svg xmlns="http://www.w3.org/2000/svg" viewBox="0 0 113.47 113.34"><defs><style>.cls-1{fill:#f8a94e;}</style></defs><g id="Layer_2" data-name="Layer 2"><g id="Layer_1-2" data-name="Layer 1"><g id="f9jMQa.tif"><path class="cls-1" d="M113.47,87.89c-1.4,1.6-2.27,1.63-3.78.12l-7.93-7.92c-.27-.28-.56-.54-.78-.74L71.64,108.64c.36.37.79.8,1.19,1.25a1.92,1.92,0,0,1,0,2.66,1.82,1.82,0,0,1-2.65,0c-1-.88-1.87-1.81-2.74-2.77a1.72,1.72,0,0,1,0-2.54,13.73,13.73,0,0,1,1.21-1.08L47.43,84.83c-1.75,1.7-3.7,3.51-5.53,5.43A2.75,2.75,0,0,0,41.54,92,20.77,20.77,0,1,1,21.26,71.83a3.25,3.25,0,0,0,2.61-1c1.58-1.64,3.24-3.21,5-5-.88-.85-1.7-1.62-2.5-2.4a7.28,7.28,0,0,1-2.15-7.64,7.18,7.18,0,0,1,5.89-5.29c.19,0,.38-.1.57-.16,0,0,0-.06.07-.09-.5-4.86.91-7.08,5.86-9.23-2.4-5.61,1.88-11.71,8.62-10.61.08-.28.17-.57.24-.87a7.2,7.2,0,0,1,5-5.58A7.13,7.13,0,0,1,58,25.64c1.61,1.5,3.13,3.1,4.69,4.65.27.27.56.53.88.82,2.61-2.61,5.2-5.14,7.7-7.75a2.73,2.73,0,0,0,.6-1.81A20.74,20.74,0,0,1,89.59.22a20.27,20.27,0,0,1,10.2,1.09c1.77.67,2.07,2.14.72,3.5Q95.32,10,90.06,15.22a2,2,0,0,0-.7,2c.32,1.74.48,3.5.79,5.24a1.19,1.19,0,0,0,.78.78c1.7.3,3.43.45,5.13.78a2.14,2.14,0,0,0,2.14-.79c3.31-3.36,6.65-6.69,10-10q2.76-2.76,4,.95A20.69,20.69,0,0,1,92.6,41.46,4.23,4.23,0,0,0,89,43a7,7,0,0,1-1.33,1c1.43,2.3,2.79,4.18,3.83,6.22,1.55,3,1.45,6.47,1.89,9.77.41,3.12.67,6.26,1.23,9.34a15,15,0,0,0,3.86,7.32,9.7,9.7,0,0,1,1-1.34,1.79,1.79,0,0,1,2.81-.07q5.33,5.26,10.59,10.59a6.72,6.72,0,0,1,.62.86Zm-82-19.4c-1.58,1.57-3.12,3-4.5,4.54a7.67,7.67,0,0,1-6.27,2.59A16.91,16.91,0,0,0,4,95.58c1.6,8.55,9.6,14.75,18,13.91,9.37-.95,16-8.19,15.74-17.39a6.79,6.79,0,0,1,2.1-5.28Q53.44,73.31,67,59.72a6.51,6.51,0,0,1,.77-.72,1.87,1.87,0,0,1,2.63,2.59,7.22,7.22,0,0,1-.79.87L56.05,76,50.4,81.62l21.15,21.22L95.46,79a19.79,19.79,0,0,1-4.73-9.88c-.57-3.73-1-7.49-1.33-11.24-.33-3.55-1-7-3.54-9.65-3-3.11-6-6.12-9.07-9.11a3.6,3.6,0,0,0-5-.12c-3.27,3.13-6.44,6.35-9.61,9.57a1.66,1.66,0,0,0,.13,2.61,9.07,9.07,0,0,0,3.22,1.52c2,.42,3.54-.52,5-1.78a5.63,5.63,0,0,1,7.72,8.19c-.48.52-1,1-1.48,1.52a9.38,9.38,0,0,0,.09,13.19c.49.52,1,1,1.46,1.54a1.79,1.79,0,0,1-.21,2.55,1.71,1.71,0,0,1-2.45,0c-4.22-3.7-6.2-8.21-4.93-13.87a14.59,14.59,0,0,1,4.61-7.38,1.9,1.9,0,0,0,.19-2.83,2,2,0,0,0-2.76.07,14.59,14.59,0,0,1-2.52,1.72,9.34,9.34,0,0,1-9.07-.47l-4.11,2.3a7.45,7.45,0,0,1-.39,6.83A7.65,7.65,0,0,1,51,68a21.71,21.71,0,0,1-.23,3.54,7.48,7.48,0,0,1-12.54,3.7C36,73.1,33.81,70.82,31.5,68.49ZM95.85,4.15c-.6-.11-1-.21-1.36-.25C84.51,3,76,10,75.72,20a10,10,0,0,1-3.67,8c-1.34,1.15-2.51,2.49-3.77,3.74-.69.68-1.4,1.34-2,1.93l2.68,2.68c4.15-3,7.76-2.67,11.42,1L85,42l1.55-1.88a6.89,6.89,0,0,1,5.85-2.4A16.83,16.83,0,0,0,109,24.9a17.16,17.16,0,0,0,.19-7.36c-.42.39-.7.64-1,.91-2.84,2.83-5.7,5.65-8.5,8.52a3,3,0,0,1-2.86.93c-2.64-.42-5.28-.78-7.93-1.15-1.65-.24-2.13-.72-2.37-2.4-.35-2.57-.68-5.14-1.11-7.7a3.22,3.22,0,0,1,1-3.17C89.58,10.48,92.6,7.39,95.85,4.15ZM34.39,48.51l-.28.17a13.9,13.9,0,0,0,1.65,2.71c3.75,3.87,7.58,7.65,11.4,11.46,1.78,1.79,4.06,1.92,5.64.36s1.5-3.88-.35-5.74c-2.38-2.4-4.78-4.79-7.17-7.18-1.5-1.5-3-3-4.52-4.49a3.63,3.63,0,0,0-4.14-.75A3.72,3.72,0,0,0,34.39,48.51ZM47.46,69.67a10.68,10.68,0,0,0-1.37-2.49q-5.93-6.08-12-12a3.76,3.76,0,0,0-5.31,5.33c.95,1,1.94,2,2.91,2.93Q36.24,68,40.79,72.5a3.68,3.68,0,0,0,4.24.78A4.25,4.25,0,0,0,47.46,69.67Zm7.95-15.86.15-.25a9.19,9.19,0,0,0,1-.17C58,53,58.23,52.51,58,51.07a28.24,28.24,0,0,1,.06-2.9,2.06,2.06,0,0,0-.28-1.32Q52.08,41,46.24,35.26a3.83,3.83,0,0,0-5.5,0A3.73,3.73,0,0,0,41,40.61c3.9,3.94,7.8,7.87,11.77,11.73A11.79,11.79,0,0,0,55.41,53.81ZM66.07,39.05,56,28.94a7.66,7.66,0,0,0-.79-.72,3.76,3.76,0,0,0-3.57-.59,3.66,3.66,0,0,0-1.48,6.11c3.44,3.56,7,7,10.49,10.52.07.07.2.08.15.06Z"/><path class="cls-1" d="M23.68,105l-2.16-.59c-2.81-.74-5.61-1.5-8.42-2.22a2.48,2.48,0,0,1-2-1.93c-.83-3.23-1.71-6.45-2.58-9.66a2.42,2.42,0,0,1,.69-2.57q3.58-3.51,7.09-7.08a2.35,2.35,0,0,1,2.55-.69c3.21.9,6.44,1.76,9.66,2.59a2.37,2.37,0,0,1,1.9,1.85q1.26,4.91,2.62,9.78A2.29,2.29,0,0,1,32.39,97c-2.42,2.41-4.82,4.85-7.27,7.23A6.17,6.17,0,0,1,23.68,105Zm-.86-4.13a5.07,5.07,0,0,0,.8-.52c1.68-1.65,3.37-3.3,5-5A1.69,1.69,0,0,0,29,94.1q-.84-3.5-1.86-6.93a1.66,1.66,0,0,0-1-1c-2.29-.68-4.61-1.3-6.93-1.86a1.48,1.48,0,0,0-1.2.31C16.3,86.32,14.6,88,13,89.75A1.57,1.57,0,0,0,12.56,91c.58,2.36,1.22,4.71,1.88,7.05a1.17,1.17,0,0,0,.59.75C17.55,99.49,20.09,100.16,22.82,100.91Z"/></g></g></g></svg>