<svg xmlns="http://www.w3.org/2000/svg" viewBox="0 0 107.2 107.21"><defs><style>.cls-1{fill:#f8a94e;}</style></defs><g id="Layer_2" data-name="Layer 2"><g id="Layer_1-2" data-name="Layer 1"><g id="CZoizn.tif"><path class="cls-1" d="M10.47,107.21a6.27,6.27,0,0,1-1.17-1.62c-.31-1,.6-2,1.8-2.08.58-.05,1.17,0,1.8,0V92.41H10c-3.18,0-4.49-1.32-4.5-4.52,0-2.06,0-4.12,0-6.18,0-2.62,1.47-4,4.11-4.06,2,0,4,0,6.26,0-.36-.34-.54-.52-.74-.68C8.57,71.38,6,64.29,8.12,55.92s8-13.39,16.58-15a20.18,20.18,0,0,1,3.65-.25c17.06,0,34.12-.08,51.18,0a19.46,19.46,0,0,1,17.41,10A20.2,20.2,0,0,1,92,77c-.18.14-.35.3-.74.64h5.85c3.25,0,4.53,1.29,4.53,4.58q0,3,0,6c0,2.78-1.41,4.19-4.17,4.21-1,0-2.08,0-3.24,0v11c1.42.23,3.14-.37,3.66,1.57.28,1.06-.43,1.67-1.17,2.23H80.82c-1.16-.73-1.51-1.39-1.25-2.36s1-1.34,2.32-1.36h1.18v-11h-59v10.94c1.35.2,3-.37,3.53,1.52.29,1.09-.35,1.78-1.26,2.26ZM95.88,59.14a8.1,8.1,0,0,0,0-.86c-.94-7.46-8.22-13.88-15.8-13.89q-19.72,0-39.46,0c-.29,0-.58,0-1,0,1.07,1,2.1,1.89,3,2.87a2.19,2.19,0,0,0,1.8.79q12.41,0,24.81,0a8.71,8.71,0,0,1,1.25.05A1.73,1.73,0,0,1,72.05,50a1.75,1.75,0,0,1-1.59,1.77,8.84,8.84,0,0,1-1.15,0H45.85a20.7,20.7,0,0,1,0,18.49H69.31a7.49,7.49,0,0,1,1.25.07,1.74,1.74,0,0,1,1.49,1.85,1.78,1.78,0,0,1-1.62,1.75,11,11,0,0,1-1.15,0c-8,0-16,0-24,0a3.57,3.57,0,0,0-3.16,1.31,26.12,26.12,0,0,1-2.6,2.44h1.38c12.84,0,25.68.07,38.52,0,6.7-.05,11.7-3.21,14.87-9.14a12.77,12.77,0,0,0,1.6-5.64H65.49a7.19,7.19,0,0,1-1,0A1.79,1.79,0,0,1,62.85,61a1.72,1.72,0,0,1,1.44-1.79,6.18,6.18,0,0,1,1.36-.09H95.88Zm2.05,22.27H9.32v7.26H97.93Zm-70.21-37A16.64,16.64,0,1,0,44.37,61,16.6,16.6,0,0,0,27.72,44.38Zm-11,48.09v10.94h3.56V92.47Zm73.79,11V92.5H86.94v10.94Z"/><path class="cls-1" d="M107.2,28.28a2.48,2.48,0,0,1-2.5,1.31c-5.27,0-10.54-.09-15.81,0a4.85,4.85,0,0,1-4.74-2.4c-.23-.38-.54-.71-.83-1.11a3.28,3.28,0,0,0-.61.26c-2,1.39-4.09,1.36-6.39,1.07-8.64-1.12-17.3-2.1-26-3.14L24.81,21.23,2.9,18.64c-.45-.06-.91-.1-1.35-.2A1.77,1.77,0,0,1,.07,16.2c1.1-4,2.21-7.92,3.42-11.85a3.42,3.42,0,0,1,3.4-2.47c.42,0,.84,0,1.26,0H78.7a2.67,2.67,0,0,0,1.92-.72A4.43,4.43,0,0,1,83.21.06C90.5,0,97.79,0,105.09,0a2.41,2.41,0,0,1,2.11,1.27V9c-.51.6-1,1.18-1.52,1.8a1.36,1.36,0,0,0-.33.77q0,3.2,0,6.39a1.32,1.32,0,0,0,.3.8c.48.61,1,1.18,1.55,1.76ZM79.49,5.63c-.39,0-.66-.08-.93-.08q-35.39,0-70.76,0a1,1,0,0,0-1.12.89C6,9,5.21,11.58,4.48,14.16c-.08.28-.13.57-.2.91l10.53,1.24c0-.59,0-1,0-1.49a1.83,1.83,0,1,1,3.65,0c0,.61,0,1.23,0,1.89l11.1,1.32c0-.54,0-.91,0-1.29a1.86,1.86,0,1,1,3.71,0c0,.54,0,1.09,0,1.71l9.17,1.09c0-.35,0-.62.06-.9a1.86,1.86,0,1,1,3.71,0c0,.44,0,.88,0,1.37l9.11,1.1c.35-2,.81-2.68,1.89-2.64,2,.07,1.92,1.63,2,3.09l9.13,1.08c.06-.35.08-.59.13-.82a1.82,1.82,0,0,1,3.61.23c0,.54-.12,1.1.77,1.17q2.7.22,5.4.63a3.83,3.83,0,0,0,2.84-1c-1.56-1.24-1.62-2.86-1.59-4.6.06-3.83,0-7.67,0-11.51Zm3.66-1.84c0,3.14,0,6.2,0,9.26,0,2.23-.48,4.63.2,6.64s2.58,3.66,3.9,5.5a1.59,1.59,0,0,0,1.47.73c4.57,0,9.14,0,13.7,0,.31,0,.62,0,1-.06,0-1.05.06-2.05,0-3a1.73,1.73,0,0,0-.58-1.06,2.91,2.91,0,0,1-1.21-2.32c0-3.07,0-6.14,0-9.2a2.74,2.74,0,0,1,1.27-2.39,1.09,1.09,0,0,0,.51-.68c.06-1.1,0-2.21,0-3.36Z"/><path class="cls-1" d="M55.47,62.83c-.63,0-1.26,0-1.89,0a1.86,1.86,0,0,1-1.83-1.78,1.77,1.77,0,0,1,1.64-1.84,34.54,34.54,0,0,1,4.07,0,1.72,1.72,0,0,1,1.65,1.91,1.75,1.75,0,0,1-1.76,1.71C56.72,62.86,56.09,62.83,55.47,62.83Z"/><path class="cls-1" d="M79.4,73.92c-.63,0-1.26,0-1.89,0a1.8,1.8,0,0,1-1.72-1.76,1.73,1.73,0,0,1,1.62-1.85,34.12,34.12,0,0,1,4.17,0,1.69,1.69,0,0,1,1.56,1.88,1.78,1.78,0,0,1-1.65,1.72c-.7,0-1.4,0-2.09,0Z"/><path class="cls-1" d="M79.49,51.74c-.66,0-1.33,0-2,0A1.79,1.79,0,0,1,75.79,50a1.73,1.73,0,0,1,1.63-1.84,39.47,39.47,0,0,1,4.07,0,1.7,1.7,0,0,1,1.65,1.8,1.76,1.76,0,0,1-1.77,1.81c-.62,0-1.25,0-1.88,0Z"/><path class="cls-1" d="M14.81,61a12.92,12.92,0,1,1,13,12.9A12.9,12.9,0,0,1,14.81,61Zm12.92,9.19A9.24,9.24,0,1,0,18.47,61,9.23,9.23,0,0,0,27.73,70.22Z"/><path class="cls-1" d="M86.83,14.77A20,20,0,0,1,87,11.86a5.53,5.53,0,0,1,10.94.77,35.56,35.56,0,0,1,0,4.38,5.53,5.53,0,0,1-11.05-.35c0-.63,0-1.26,0-1.89Zm7.4,0c0-.66,0-1.33,0-2a1.8,1.8,0,0,0-1.78-1.7,1.73,1.73,0,0,0-1.82,1.64,39.66,39.66,0,0,0,0,4.08,1.7,1.7,0,0,0,1.81,1.64,1.76,1.76,0,0,0,1.79-1.68C94.27,16.13,94.23,15.46,94.23,14.8Z"/><path class="cls-1" d="M27.73,55.48A5.52,5.52,0,0,1,33.27,61a5.54,5.54,0,1,1-11.08,0A5.51,5.51,0,0,1,27.73,55.48ZM29.55,61a1.82,1.82,0,1,0-1.85,1.82A1.81,1.81,0,0,0,29.55,61Z"/></g></g></g></svg>