<svg xmlns="http://www.w3.org/2000/svg" viewBox="0 0 111.22 111.19"><defs><style>.cls-1{fill:#f8a94e;}</style></defs><g id="Layer_2" data-name="Layer 2"><g id="Layer_1-2" data-name="Layer 1"><g id="diBTcR.tif"><path class="cls-1" d="M0,49.31c.81-2.27,2.47-3,4.81-3,6.62.07,13.24,0,19.86,0,.81,0,1.27-.07,1.47-1.05C26.48,43.6,28,42.63,30,42.62H43.49c-1.63-4.16-.54-8.4-1-12.62-1.25-.06-2.51-.1-3.76-.17a5.43,5.43,0,0,1-5.36-5.45c0-.83,0-1.66,0-2.49a5.46,5.46,0,0,1,5.44-5.37c1.22,0,2.44,0,3.78,0,0-2,0-3.89,0-5.73a36.13,36.13,0,0,1,.16-4.54A7.21,7.21,0,0,1,49.8,0C54.9,0,60,0,65.1.05a7.35,7.35,0,0,1,7.18,7.38c0,2.31,0,4.63,0,6.94v1.28h1.26l30.6-.78a12.91,12.91,0,0,1,2.49.1,5.44,5.44,0,0,1,4.54,5.32c0,1.91,0,3.83,0,5.75a5.43,5.43,0,0,1-5.47,5.45c-6.15-.07-12.3-.26-18.45-.41l-13.78-.36H72.39c-.44,4,.62,8-1,11.91h35.27c3.2,0,4.54,1.35,4.54,4.56,0,5.72,0,11.43,0,17.15,0,2.81-1.46,4.26-4.29,4.26-3.4,0-6.81,0-10.21,0-.94,0-1.27.33-1.57,1.17a30.59,30.59,0,0,0,.94,23c.39.93.83,1.85,1.16,2.8a1.09,1.09,0,0,0,1.29.82c1.08-.05,2.16,0,3.4,0v-3.2c0-1.41,0-2.82,0-4.23a1.84,1.84,0,0,1,1.88-1.85A1.81,1.81,0,0,1,105.6,89c0,2,0,4,0,6.08v1.28c.74,0,1.35,0,1.95,0a3.59,3.59,0,0,1,3.6,3.48c.06,2.61.06,5.21,0,7.82,0,1.82-1.27,2.81-2.8,3.49H28.67c-1.39-.72-2.63-1.62-2.67-3.35-.07-2.71-.11-5.43,0-8.13a3.5,3.5,0,0,1,3.63-3.32c.59,0,1.19,0,1.86,0V95.15c0-2,0-3.91,0-5.86,0-1.34.77-2.2,1.88-2.18s1.79.84,1.82,2.13v7.08c.39,0,.67.06.95.07,3.43,0,3.36,0,4.73-3.13,3.41-7.8,4-15.68,1-23.74-.25-.69-.53-1-1.28-.94-3.55,0-7.09,0-10.64,0-1.92,0-3.46-.94-3.83-2.57-.23-1-.7-1.17-1.61-1.19-4.74-.09-9.48-.23-14.06-1.63s-8-4.27-9.58-9C.58,53.19.31,52.11,0,51.05ZM29.73,64.8h77.69V46.4H29.73Zm15.82,3.85a36.29,36.29,0,0,1,1.92,14,46.1,46.1,0,0,1-3.81,13.62H93.57c-4.25-9-5.39-18.16-1.91-27.64Zm23-45.51q0-7.59,0-15.19c0-2.75-1.48-4.22-4.22-4.23H50.57c-2.76,0-4.25,1.47-4.25,4.2q0,15.24,0,30.49c0,2.78,1.44,4.2,4.22,4.21H64.22c3,0,4.36-1.38,4.37-4.39Zm38.85,77H29.74v7.29h77.7ZM72.36,19.39V27l20.32.49c0-1.07,0-2,0-2.94,0-1.45.72-2.3,1.88-2.27s1.8.86,1.82,2.24c0,1,0,2,0,3h3.71V25.74c0-2.59.49-3.5,1.87-3.47s1.83.92,1.83,3.43v2.05l1.12.06c2,0,2.58-.57,2.58-2.57,0-1.41,0-2.82,0-4.23,0-1.85-.66-2.5-2.48-2.46L88.2,19ZM25.84,50.14H3.78c.78,5.64,3.52,8.79,9,9.76,3.68.66,7.45.82,11.18,1.18.63.06,1.27,0,2,0,0-3.55,0-7,0-10.41A3.8,3.8,0,0,0,25.84,50.14Zm16.7-29.95c-.63,0-1.2,0-1.77,0-4.12-.14-3.69,1-3.68,4,0,.18,0,.42,0,.53.43.49.84,1.24,1.36,1.34a27.83,27.83,0,0,0,4,.25Z"/><path class="cls-1" d="M0,27.16A2.6,2.6,0,0,1,2.56,26c1,.05,1.95,0,2.92,0a1.81,1.81,0,0,1,1.91,1.79,1.79,1.79,0,0,1-1.91,1.89,16.92,16.92,0,0,1-3.56,0A6.2,6.2,0,0,1,0,28.47Z"/><path class="cls-1" d="M25.94,12c0-3.22,0-6.43,0-9.64A2,2,0,0,1,27.29.11,1.78,1.78,0,0,1,29.55,1.4a5.57,5.57,0,0,1,.1,1.29q0,9.38,0,18.75c0,.21,0,.43,0,.65a1.9,1.9,0,0,1-1.83,2A1.87,1.87,0,0,1,26,22C25.92,18.68,25.94,15.32,25.94,12Z"/><path class="cls-1" d="M12.89,10.87a9.78,9.78,0,0,1,1.61,1.05c2.32,2.27,4.61,4.57,6.9,6.87,1,1,1.05,2.08.28,2.87s-1.93.72-2.94-.28l-7-7a1.65,1.65,0,0,1-.46-2.14A8.71,8.71,0,0,1,12.89,10.87Z"/><path class="cls-1" d="M17.49,29.67c-1.41,0-2.82,0-4.23,0s-2.11-.74-2.14-1.81S11.93,26,13.28,26q4.34,0,8.67,0c1.31,0,2.11.72,2.14,1.8s-.8,1.87-2.16,1.9S19,29.67,17.49,29.67Z"/><path class="cls-1" d="M9.39,7.63C9,8.09,8.68,8.81,8.15,9A2.17,2.17,0,0,1,6.27,8.8a49.54,49.54,0,0,1-4-4,1.76,1.76,0,0,1,.16-2.44A1.74,1.74,0,0,1,4.8,2.28C6.2,3.58,7.53,5,8.85,6.33A4.47,4.47,0,0,1,9.39,7.63Z"/><path class="cls-1" d="M69.5,53.75h-22c-.36,0-.73,0-1.09,0A1.8,1.8,0,0,1,44.5,51.9a1.84,1.84,0,0,1,1.87-1.85c.33,0,.65,0,1,0H91.64a6.51,6.51,0,0,1,1.4.09A1.72,1.72,0,0,1,94.48,52a1.68,1.68,0,0,1-1.54,1.68,8.09,8.09,0,0,1-1.3.06Z"/><path class="cls-1" d="M37,53.72c-.65,0-1.3.05-2,0a1.74,1.74,0,0,1-1.69-1.77A1.7,1.7,0,0,1,35,50.1a29.58,29.58,0,0,1,4.21,0,1.67,1.67,0,0,1,1.55,1.79,1.75,1.75,0,0,1-1.67,1.79,20.2,20.2,0,0,1-2.06,0Z"/></g></g></g></svg>