<svg xmlns="http://www.w3.org/2000/svg" viewBox="0 0 112.07 105.48"><defs><style>.cls-1{fill:#f8a94e;}</style></defs><g id="Layer_2" data-name="Layer 2"><g id="Layer_1-2" data-name="Layer 1"><g id="ZPQGJL.tif"><path class="cls-1" d="M23.76,105.48c-2-1.35-1.86-3.58-2.38-5.69H15.13c-2.55,0-5.1,0-7.65,0A7.16,7.16,0,0,1,0,92.28C0,84,0,75.69,0,67.4Q0,51.26,0,35.14C0,29.9,2.89,27,8.11,27H96.54c5.09,0,8,2.87,8,7.94q0,20.29,0,40.6V77.4l3.85-2.87c1.71-1.27,2.51-1.14,3.67.6v30.35H91L89.19,103l-2.82,2.52Zm77-26.22V35.94c-1.37,2.62-2.49,5.31-3.78,7.91A4.58,4.58,0,0,1,95,45.78c-2.66,1.29-5.39,2.44-8.12,3.58A1.46,1.46,0,0,0,85.84,51c.06,2.46,0,4.92,0,7.39,0,1.58-.66,2.25-2.23,2.27q-4.3,0-8.61,0c-1.49,0-2.14-.68-2.2-2.19,0-.88,0-1.77,0-2.87l-2,.85C65.2,58.88,59.56,61.32,54,63.82a3.79,3.79,0,0,1-3.38,0c-5.23-2.33-10.5-4.58-15.76-6.86-.36-.15-.73-.26-1.21-.44,0,.58,0,1,0,1.39,0,2.21-.54,2.74-2.73,2.74-2.65,0-5.29,0-7.93,0-1.73,0-2.39-.66-2.41-2.4,0-2.14,0-4.29,0-6.43a1.36,1.36,0,0,0-1-1.52c-2.61-1.08-5.13-2.39-7.79-3.29A7.84,7.84,0,0,1,6.15,41.3,45.22,45.22,0,0,0,3.9,36c-.08.51-.12.64-.12.77q0,27.89,0,55.77c0,2.23,1.41,3.57,3.77,3.59,4.65,0,9.3,0,13.94,0a1.47,1.47,0,0,0,1.07-.37c1.66-2.45,4.18-3.21,6.89-3.68,5.61-1,11.26-1.73,16.79-3,9.79-2.25,18.55-6.43,25-14.49a2.59,2.59,0,0,1,1.76-.8c5.42-.06,10.84-.07,16.26,0a3.14,3.14,0,0,1,2,1.09c1,1.15,1.67,2.49,2.55,3.71a1.63,1.63,0,0,0,1,.69C96.82,79.3,98.73,79.26,100.73,79.26Zm-2-48.33H5.86C7.49,34.77,9,38.41,10.58,42a.92.92,0,0,0,.44.49c3.1,1.36,6.22,2.7,9.36,4.07.43-2.5.76-2.78,3.15-2.79,2.59,0,5.19,0,7.79,0,1.68,0,2.28.66,2.29,2.35,0,2.05,0,4.1,0,6.17,6.07,2.64,12.08,5.25,18.1,7.83a1.8,1.8,0,0,0,1.27,0q9.51-4.11,19-8.3a1.66,1.66,0,0,0,.79-1.2c.1-1.31,0-2.64,0-4,0-2.34.49-2.84,2.79-2.85,2.46,0,4.92,0,7.38,0,1.44,0,2.62.23,3,1.88a14.81,14.81,0,0,1,2.1-.88c4.21-1,6.7-3.7,7.93-7.83A49,49,0,0,1,98.68,30.93Zm9.55,48.41c-1.5,1.11-2.73,2.11-4,3a4,4,0,0,1-2,.69c-2.78.08-5.56,0-8.34,0a2.52,2.52,0,0,1-2.36-1.31,36.5,36.5,0,0,0-2.38-3.5,2.25,2.25,0,0,0-1.51-.81c-4.28-.06-8.57,0-12.85,0a1.7,1.7,0,0,0-1.86,1.24c1.49,1.11,3,2.19,4.39,3.3,1.14.87,1.37,1.89.71,2.82s-1.74,1-2.89.21c-.26-.18-.5-.39-.76-.58l-4.23-3.13-2.27,2c1.44,1.09,2.82,2.11,4.19,3.15s1.56,2,.79,3-1.79.9-3,0L64.66,85.5,62.26,87c.94.71,1.74,1.31,2.53,1.93a1.86,1.86,0,1,1-2.24,2.95c-1.12-.78-2.16-1.68-3.31-2.41a1.93,1.93,0,0,0-1.55-.2,82.43,82.43,0,0,1-20.12,5.32c-3.19.5-6.4,1-9.54,1.64-2.29.51-3,2-2.72,4.31.12.94.49,1.18,1.39,1.18,19.17,0,38.35,0,57.52,0a2.52,2.52,0,0,0,1.53-.63c1.4-1.3,2.74-2.67,4.06-4.05.71-.73,1.6-1.21,2.41-.64a3.54,3.54,0,0,1,1.09,2.13,17,17,0,0,1,0,3.12h14.87ZM76.61,56.76h5.45V47.65H76.61Zm-46.81,0V47.64H24.41V56.8Z"/><path class="cls-1" d="M56,9.22a6.54,6.54,0,1,1-13.08,0A6.54,6.54,0,0,1,56,9.22ZM49.55,12a2.69,2.69,0,0,0,2.69-2.83A2.72,2.72,0,0,0,49.42,6.5a2.77,2.77,0,0,0-2.71,2.84A2.74,2.74,0,0,0,49.55,12Z"/><path class="cls-1" d="M93.1,10c.89,1.28,3.07,2.34,1.29,4.09s-2.78-.57-4-1.32c-1.26.84-2.29,3.1-4.06,1.29s.5-2.82,1.32-4c-2-2.46-2.32-3.31-1.31-4.1,2-1.56,2.83.53,4,1.36,2.4-2,3.21-2.28,4.12-1.36S95.16,7.63,93.1,10Z"/><path class="cls-1" d="M71.86,2a2,2,0,1,1,2,2A2,2,0,0,1,71.86,2Z"/></g></g></g></svg>