<svg xmlns="http://www.w3.org/2000/svg" viewBox="0 0 98.02 98.03"><defs><style>.cls-1{fill:#f8a94e;}</style></defs><g id="Layer_2" data-name="Layer 2"><g id="Layer_1-2" data-name="Layer 1"><g id="m783jb.tif"><path class="cls-1" d="M98,9c-.08.27-.16.54-.23.81a8,8,0,0,1-8.18,6,1.33,1.33,0,0,0-.93.25c-1.48,1.41-2.91,2.87-4.4,4.35C91.58,30.21,94.3,41.07,92,53A38.89,38.89,0,0,1,79.11,75.29a40,40,0,0,1-50.84,1.49L19.18,86a14.69,14.69,0,0,0,7.14,2.85,24,24,0,0,0,3.06.16H71.21c.35,0,.7,0,1.05,0a1.41,1.41,0,0,1,.19,2.77,3.74,3.74,0,0,1-1,.08H28.62a18.61,18.61,0,0,1-11.27-3.63l-.57-.41C15.45,88.9,14.2,90,12.84,91c-3.05,2.2-6.14,4.34-9.24,6.47a2.15,2.15,0,0,1-3-.1q-1.2-1.19-.12-3a93.93,93.93,0,0,1,9.78-13.23c-.87-.78-1.77-1.53-2.59-2.35a5.19,5.19,0,0,1,3-8.86,4.84,4.84,0,0,1,4.21,1.39c.81.8,1.52,1.71,2.2,2.49l4.14-4.13-.36-.53a39.71,39.71,0,0,1-8-22.53c0-1.14.43-1.81,1.32-1.87s1.44.54,1.56,1.74c.16,1.71.35,3.42.54,5.13a2,2,0,0,0,.18.4,48.47,48.47,0,0,1,14-14.53,14.29,14.29,0,0,0-5.78-2.43,14,14,0,0,0-7,.41,1.55,1.55,0,0,0-.87.92c-.3,1-.45,2.05-.67,3.08s-.86,1.57-1.68,1.42a1.47,1.47,0,0,1-1.13-1.89C15.88,24.4,24,14,37.65,8.33c13.87-5.72,27.09-3.88,39.27,5l.62.45c1.51-1.51,3-3,4.51-4.53a.9.9,0,0,0,.14-.62c-.07-4.48,2.2-7.4,6.57-8.47A1.51,1.51,0,0,0,89,0h2.29l1,.32a7.87,7.87,0,0,1,5.33,5.14c.14.41.26.83.4,1.24ZM78,18A40.25,40.25,0,0,0,71.4,13a2.74,2.74,0,0,0-2.49-.28A44.62,44.62,0,0,0,38.25,51a43.78,43.78,0,0,0,8,30,2,2,0,0,0,1.27.81c2.16.2,4.33.3,6.49.39a21.39,21.39,0,0,0,2.25-.16l-.67-.73a37.52,37.52,0,0,1-1.47-50.45,68.7,68.7,0,0,1,6.41-6,1.36,1.36,0,0,1,2.11.19,1.49,1.49,0,0,1-.42,2.1c-.17.14-.35.27-.53.4A34.82,34.82,0,0,0,59,80.82a1.83,1.83,0,0,0,2,.56c2.33-.77,4.68-1.47,7.25-2.27C56.21,71.48,52.49,57.44,56.4,46.69c4.87-13.42,14.95-19.34,29.14-19.17-1-1.47-1.87-3-2.89-4.37-2-2.8-2.08-2.78-5.5-2.19a36.63,36.63,0,0,0-9,2.76c-1.09.49-2.09.06-2.25-.93A1.52,1.52,0,0,1,67,21.09,38.38,38.38,0,0,1,78,18ZM58.34,49.26C70.13,50.47,78.12,56.39,83,67.12c1.32-2.4,2.49-4.58,3.7-6.74a1.45,1.45,0,0,0-.13-1.66A35.07,35.07,0,0,0,76.3,48.14a33.49,33.49,0,0,0-14.24-5.46,1.1,1.1,0,0,0-.92.33C60.18,45,59.3,47.11,58.34,49.26Zm4.76-9.39a38.25,38.25,0,0,1,25.18,16.2,37.08,37.08,0,0,0,1.55-8.43,1.77,1.77,0,0,0-.57-1.51,43.29,43.29,0,0,0-16.1-10.72c-4.29-1.59-2.88-1.91-6.76,1.18A44.15,44.15,0,0,0,63.1,39.87ZM38.84,36.23a.83.83,0,0,0-.25.09,44.33,44.33,0,0,0-20.9,19.45,1.38,1.38,0,0,0-.08,1C18.7,59.3,19.84,61.75,21,64.2a3.06,3.06,0,0,0,.38.48,2.21,2.21,0,0,0,.13-.24A37.61,37.61,0,0,1,35.64,46a1.32,1.32,0,0,0,.51-.64C37.06,42.34,37.94,39.29,38.84,36.23ZM75.72,74.46,75.06,74a21.07,21.07,0,0,1-10-18.42c0-2.14,0-2.19-2.06-2.65-1.62-.36-3.28-.56-4.94-.84a21.28,21.28,0,0,0,.11,7.4A24.58,24.58,0,0,0,70.76,77.1a1,1,0,0,0,.85,0C73,76.3,74.28,75.41,75.72,74.46Zm-52-52.34A28,28,0,0,1,42,30.56l4.14-5.79A34,34,0,0,0,30.45,16.1a1.3,1.3,0,0,0-1,.32c-1.2,1-2.38,2.12-3.51,3.23C25.2,20.38,24.56,21.19,23.75,22.12Zm5.41,51.82.27-.2A28,28,0,0,1,35,60.18a2,2,0,0,0,.31-1c.06-2.87.09-5.74.12-8.6a6.56,6.56,0,0,0,0-.71l-.55.43a35,35,0,0,0-10.92,16,2.4,2.4,0,0,0,.57,2.88C26.06,70.69,27.6,72.33,29.16,73.94Zm10.65-41.4c-.19-.21-.37-.43-.58-.62A25.26,25.26,0,0,0,23.94,25c-1.74-.18-2.71.29-3.39,1.85-.79,1.82-1.72,3.58-2.62,5.4a2.1,2.1,0,0,0,.4.1,17.92,17.92,0,0,1,14.4,3.24,1,1,0,0,0,.83,0C35.63,34.63,37.68,33.6,39.81,32.54ZM48,22.62l5.2-4.74a43.12,43.12,0,0,0-11.13-8,1.2,1.2,0,0,0-.89.06c-2.47,1.09-4.92,2.22-7.37,3.35a4.74,4.74,0,0,0-.68.51A37.83,37.83,0,0,1,48,22.62Zm30,49.77c.7-.72,1.37-1.45,2.09-2.12a1.16,1.16,0,0,0,.31-1.43A25,25,0,0,0,68.83,55.19c-.24-.13-.5-.22-.78-.34A18.35,18.35,0,0,0,78.05,72.39ZM46.35,8.67l9.32,7.23L66,10.5A37,37,0,0,0,46.35,8.67Zm43.74-5.8a5.09,5.09,0,0,0-5,5.05,5,5,0,1,0,5-5Zm-47.53,78A48.11,48.11,0,0,1,35.89,63.9a24.8,24.8,0,0,0-3.71,11.64.93.93,0,0,0,.35.68A35.38,35.38,0,0,0,42.56,80.84Zm45.93-46c-.38-1.12-.76-2.07-1-3A1.39,1.39,0,0,0,86,30.65a58.29,58.29,0,0,0-6.48.05,50.77,50.77,0,0,0-6,1.36c2.28,1.3,4.47,2.36,6.68,3.4a.77.77,0,0,0,.54,0A21.67,21.67,0,0,1,88.49,34.84ZM16.81,83.77l8.88-9-2.38-2.43L14.2,81.24ZM4.64,93l.38.35L14.62,86l-2.57-2.65C9.57,86.58,7.11,89.8,4.64,93Zm10.7-17.08-2.12-2.2a5.41,5.41,0,0,0-.5-.44,2.29,2.29,0,0,0-3,.13,2.18,2.18,0,0,0-.29,3A34.44,34.44,0,0,0,12.12,79ZM82.3,18l3.2-3.19-2.35-2.32L80,15.63Zm7.6,24.57c-.23-1.57-.41-2.92-.66-4.27a.86.86,0,0,0-.59-.54c-1.51,0-3,0-4.7,0Z"/></g></g></g></svg>