<svg xmlns="http://www.w3.org/2000/svg" viewBox="0 0 126.56 110.25"><defs><style>.cls-1{fill:#f8a94e;}</style></defs><g id="Layer_2" data-name="Layer 2"><g id="Layer_1-2" data-name="Layer 1"><g id="opMAzB.tif"><path class="cls-1" d="M32.63,0l6.28,1.21c2,.39,2.72,1.44,2.41,3.43C41.15,5.81,41,7,40.74,8.24l9.19,1.64c1.21.22,2.43.41,3.64.66s2,1.08,1.8,2.19-1.1,1.65-2.44,1.42c-4.1-.7-8.19-1.42-12.28-2.13-.16,0-.31,0-.59-.07l-1.68,9.47c.31.12.6.26.9.35L50.68,25c.12,0,.24.05.36.09,1.37.42,2,1.3,1.61,2.45S51.38,29,50,28.62c-2.18-.59-4.35-1.22-6.53-1.82l-5.75-1.59c-.39,2.18-.78,4.3-1.15,6.42q-2.91,16.47-5.79,33a7.23,7.23,0,0,0,.08,2.78c1.8,7.65,3.65,15.28,5.49,22.92.07.28.17.55.29,1L40.5,89.5,38.69,76.74c-.29-2-.6-4-.85-6-.21-1.59.34-2.47,1.53-2.6s1.94.62,2.15,2.16q1.14,8.13,2.3,16.26c.06.4.17.79.27,1.26,2.85-1.44,5.39.46,8.16.62l7.58-20.83c-1.16.09-2.14.18-3.12.23A3.2,3.2,0,0,1,53.18,65c-.24-2.13-.43-4.26-.55-6.4a3.22,3.22,0,0,1,3.26-3.67c3.86-.34,7.72-.66,11.57-1,.38,0,1-.27,1.06-.56.78-1.92,1.46-3.89,2.22-6-.57,0-1,.08-1.38.09a1.89,1.89,0,0,1-2.11-1.78,1.85,1.85,0,0,1,1.85-1.91c5.41-.5,10.82-1,16.24-1.46.94-.08,1.88-.2,2.83-.24a1.84,1.84,0,0,1,2.06,1.67,1.75,1.75,0,0,1-1.87,2c-1.61-.08-2.22.7-2.62,2.09s-1,2.94-1.64,4.61l6.83-.59c.94-.08,1.88-.17,2.83-.22a6.2,6.2,0,0,1,4.83,1.8q4.69,4.65,9.34,9.36a1.85,1.85,0,0,1,.15,2.83,1.92,1.92,0,0,1-2.76-.21c-2.92-2.9-5.84-5.81-8.72-8.76a3.94,3.94,0,0,0-3.41-1.28c-11.07,1-22.14,2-33.22,3-1.14.11-2.29.2-3.63.31l.47,5.52,8.07-.67L88.63,61.3c.53,0,1.07-.07,1.59-.15a5.14,5.14,0,0,1,4.69,1.63q11.36,11.44,22.77,22.84c.32.32.65.62.9.87l4-4c-2.35-2.33-4.81-4.76-7.25-7.2-1.2-1.19-2.41-2.37-3.58-3.59a1.85,1.85,0,1,1,2.62-2.59c1.16,1.11,2.28,2.26,3.41,3.4,2.24,2.24,4.5,4.47,6.71,6.75.77.78,1.41,1.68,2.11,2.52v1.73a15.16,15.16,0,0,1-1.28,1.78c-1.3,1.37-2.65,2.7-4,4-1.7,1.65-3.43,1.65-5.1,0-.63-.62-1.2-1.3-2-2.11l-1.28,3.53a25.33,25.33,0,0,1,1.93,3.45c1.11,3,2.08,6.15,3.1,9.23s1,3,4.12,3c.37,0,.82-.1,1.1.07.55.34,1.28.76,1.43,1.29s-.25,1.26-.51,1.86c-.12.25-.5.38-.76.57H0v-2.72a3.14,3.14,0,0,1,2.83-1.09,26.63,26.63,0,0,0,3.46,0,1.33,1.33,0,0,0,1-.63q1.62-4.27,3.11-8.59c.38-1.12-1-2.58-2.22-2.35s-2.5.52-3.75.74A1.91,1.91,0,0,1,2,94.19,1.89,1.89,0,0,1,3.65,92c1.17-.26,2.35-.45,3.51-.73,1.79-.43,3.49-.52,4.95,1.09.26-.65.45-1.14.64-1.63a3.11,3.11,0,0,1,2.47-2.2c2.9-.27,5.84-.69,8.73.55-1.52-6.31-3-12.58-4.55-18.85a14,14,0,0,1-.79-4.09,73.94,73.94,0,0,1,1.33-7.78,1.73,1.73,0,0,1,2.18-1.47A1.75,1.75,0,0,1,23.52,59c-.11.85-.32,1.7-.41,2.56-.22,1.94-.89,4-.5,5.8,1.47,7,3.28,13.93,5,20.89.51,2.1,1,4.21,1.56,6.42l4-1.84c0-.29-.06-.45-.09-.61-2-8.2-4-16.39-5.93-24.59A7.25,7.25,0,0,1,27,64.85c1.82-10.5,3.69-21,5.54-31.49l1.6-9.16L29.92,23c-.26,1.42-.51,2.75-.75,4.08q-2,11.43-4,22.86C24.92,51.31,24.1,52,23,51.89s-1.71-1-1.54-2.5c0-.33.12-.65.17-1,.23-1.37.46-2.74.69-4.17-.43-.1-.74-.19-1.06-.25-2.14-.39-4.3-.74-6.44-1.16s-2.8-1.48-2.44-3.52q1-5.79,2-11.55c.54-2.9,1.44-3.47,4.38-2.92,2.22.41,4.44.78,6.77,1.18l.68-4-7.12-2c-1.94-.55-3.89-1.07-5.82-1.63-.89-.25-1.55-.92-1.37-1.79a3.16,3.16,0,0,1,1.3-1.71c.33-.23,1,0,1.54.1,4,1.08,8,2.2,12.14,3.34l1.49-8.41c-.4-.11-.67-.2-1-.25-3.89-.69-7.78-1.36-11.68-2-1.5-.26-2.21-1.06-2-2.27S14.89,3.74,16.39,4c1.18.18,2.35.4,3.53.61L29.07,6.2c.2-1.07.47-2,.55-3A3.48,3.48,0,0,1,31.89,0ZM55.84,89.43C59,90.2,62,91,65,91.64a1.9,1.9,0,0,0,1.38-.48C68,89.8,69.53,88.4,71,86.94a4.33,4.33,0,0,1,4.21-1.09c4.46,1,8.92,1.94,13.39,2.87a4.35,4.35,0,0,1,3.1,2.2c.57,1,1.24,2,1.78,3a1.06,1.06,0,0,0,1.38.59c4.31-.91,8.62-1.75,12.92-2.68a2,2,0,0,0,1.14-1c.73-1.79,1.31-3.64,2-5.43a1.28,1.28,0,0,0-.4-1.59q-9.11-9.08-18.15-18.19a2.29,2.29,0,0,0-2.08-.7c-3.32.34-6.64.61-10,.91-5.16.46-10.33.91-15.49,1.41a1.62,1.62,0,0,0-1.18.73C61.08,75,58.49,82.17,55.84,89.43Zm34.37,6c-1.08-1.11-1.09-2.79-2.77-3.15-4.22-.89-8.44-1.82-12.67-2.67a2.06,2.06,0,0,0-1.52.42c-1.57,1.32-3.1,2.71-4.59,4.13a4.45,4.45,0,0,1-4.53,1.15q-8.37-2.09-16.78-4.06a3.43,3.43,0,0,0-2,.18c-5.44,2.42-10.86,4.91-16.29,7.37-2.3,1-3.84.5-5-1.72a35.13,35.13,0,0,1-1.74-3.4A2.44,2.44,0,0,0,19.52,92c-3.36.12-3.39,0-4.44,3.31a2,2,0,0,0,.19,1.54q3.06,4.5,6.26,8.88a2,2,0,0,0,1.38.74q27.36,0,54.73,0a1.34,1.34,0,0,0,1.41-.88c1.15-2.37,2.37-4.7,3.53-7.07a3.64,3.64,0,0,1,2.82-2.13C86.93,96.12,88.45,95.77,90.21,95.4Zm24.84,11c-1.31-3.9-2.57-7.68-3.84-11.45l-24.44,5a1.48,1.48,0,0,0-.93.49c-1,1.94-2,3.91-3,6ZM23,40.53,25,29.69,18.09,28.5l-1.9,10.82ZM72.48,53.42c2.47-.21,4.72-.39,7-.62a1,1,0,0,0,.71-.52c.75-2,1.45-3.91,2.22-6-2.43.23-4.71.42-7,.67a1,1,0,0,0-.7.52C73.94,49.35,73.26,51.28,72.48,53.42ZM36.28,11.24l-4.18-.71-1.55,8.81,4.22,1.17c.53-3,1-5.82,1.54-8.7A2.41,2.41,0,0,0,36.28,11.24ZM13.2,100.38l-2.15,6h6.38ZM33.25,4l-.46,2.88L37,7.6l.52-2.86Z"/><path class="cls-1" d="M93.37,78.44a6.74,6.74,0,1,1-6.73-6.67A6.81,6.81,0,0,1,93.37,78.44Zm-6.73,3.08a3,3,0,1,0-3-3A3.07,3.07,0,0,0,86.64,81.52Z"/><path class="cls-1" d="M46.91,96.05c1.77.2,3.51.28,5.2.6,2.85.54,4.44,2.57,5.34,5.13a2.19,2.19,0,0,1-.8,1.93c-.5.3-1.4,0-2.12-.12-.13,0-.27-.21-.33-.36-1.49-4.08-5.13-3.15-8.18-3.36-.79-.06-1.66.8-2.48,1.26s-1.46.93-2.25,1.29a1.65,1.65,0,0,1-2.23-.74,1.55,1.55,0,0,1,.3-2.23,59.61,59.61,0,0,1,5.52-3.21A5.45,5.45,0,0,1,46.91,96.05Z"/></g></g></g></svg>