<svg xmlns="http://www.w3.org/2000/svg" viewBox="0 0 111.66 111.63"><defs><style>.cls-1{fill:#f8a94e;}</style></defs><g id="Layer_2" data-name="Layer 2"><g id="Layer_1-2" data-name="Layer 1"><g id="wAc3Gf.tif"><path class="cls-1" d="M4,111.63a14.54,14.54,0,0,1-2.82-1.91,4.36,4.36,0,0,1-.66-5,4.62,4.62,0,0,1,4.27-2.89c2.4-.07,4.8,0,7.2,0h1.27V70.65c0-1.75.53-2.57,1.65-2.57s1.63.83,1.63,2.59v31.09H26V71.06c0-1.92.46-2.38,2.37-2.38H83.18c1.83,0,2.32.49,2.32,2.32v30.76h9.62V61.11H16.6c-.28,1.23.37,3.15-1.72,3.16s-1.48-1.9-1.74-3.22H9.86c-2,0-2.57-.79-2.08-2.67Q11.05,46,14.34,33.56c.8-3,.81-3,3.93-3H30.89V3.41c0-2.61.79-3.4,3.36-3.4H61.94A4.84,4.84,0,0,1,63,.05a1.52,1.52,0,0,1,1.36,1.59A1.53,1.53,0,0,1,63,3.24a4.93,4.93,0,0,1-1.09,0H34.23V45.71H77.49V3.28H76.3c-2,0-4.07,0-6.11,0a1.57,1.57,0,0,1-1.7-1.59A1.45,1.45,0,0,1,69.91.05c2.9-.06,5.81-.06,8.71,0a2.29,2.29,0,0,1,2.13,2.13,9.45,9.45,0,0,1,.06,1.41q0,12.71,0,25.4v1.53h13.9c1.55,0,1.94.31,2.34,1.85q3.41,12.93,6.82,25.88c.54,2.05,0,2.79-2.12,2.79H98.55v40.77h1.13c2,0,3.93.09,5.88,0,3-.17,5.11,1,6.1,3.95v2a5.76,5.76,0,0,1-3.92,3.93H90.08c-.64-.62-1.22-1.29-.82-2.26s1.28-1,2.2-1H106c1.64,0,2.45-.55,2.43-1.66s-.8-1.61-2.47-1.61H5.77a6.42,6.42,0,0,0-1,0,1.62,1.62,0,0,0,0,3.22,8,8,0,0,0,1.2,0H83.25c.93,0,1.77.11,2.14,1.1s-.24,1.64-1,2.18Zm7.37-53.91h88.93a1.76,1.76,0,0,0,0-.28c-2-7.65-4.05-15.29-6-22.94-.18-.7-.56-.71-1.1-.71H81.71a7.66,7.66,0,0,0-.89.09c0,4.07,0,8.06,0,12.06,0,2.23-.89,3.11-3.1,3.11H34c-2.21,0-3.1-.88-3.1-3.11,0-3.64,0-7.27,0-10.9,0-.39,0-.78-.06-1.25-4.29,0-8.5,0-12.71,0-.23,0-.57.47-.65.77-1,3.54-1.89,7.08-2.83,10.62C13.55,49.37,12.46,53.5,11.34,57.72ZM40.24,72v29.73h31V72Zm-3.43,29.77V72H29.32v29.73Zm45.35,0V72h-7.5v29.72Z"/><path class="cls-1" d="M61.71,29.92c0,1.34,0,2.64,0,3.93,0,1.78-.83,2.64-2.58,2.67q-3.27.07-6.54,0c-1.76,0-2.56-.9-2.59-2.66,0-1.23,0-2.47,0-3.7a1.19,1.19,0,0,0-.12-.32H46c-1.84,0-2.67-.84-2.69-2.67q0-3.21,0-6.42A2.32,2.32,0,0,1,46,18.14c1.3,0,2.6,0,4,0V14.5c0-2.33.71-3,3.07-3,2,0,4,0,6,0,1.83,0,2.63.84,2.65,2.7,0,1.26,0,2.53,0,4h3.82c2,0,2.84.8,2.86,2.83s0,4.14,0,6.21c0,1.83-.85,2.65-2.67,2.68h-3.6C62,29.86,62,29.88,61.71,29.92Zm3.36-8.33c-.12-.08-.17-.15-.24-.15L61,21.4c-1.77,0-2.56-.82-2.58-2.62,0-1.29,0-2.59,0-4H53.27v3.73c0,2.14-.73,2.85-2.9,2.85H46.68v5.18h4c1.78,0,2.58.81,2.59,2.6,0,1.33,0,2.65,0,4h5.17c0-1.39,0-2.69,0-4,0-1.8.81-2.59,2.59-2.61h4Z"/></g></g></g></svg>