<svg xmlns="http://www.w3.org/2000/svg" viewBox="0 0 90.55 90.78"><defs><style>.cls-1{fill:#f8a94e;}</style></defs><g id="Layer_2" data-name="Layer 2"><g id="Layer_1-2" data-name="Layer 1"><g id="F2VOSf.tif"><path class="cls-1" d="M90.55,80.53c-.17.61-.32,1.22-.5,1.83a11.67,11.67,0,0,1-21.53,2.19c-.15-.29-.31-.57-.52-1-.84,1.35-1.57,2.65-2.41,3.86A7.31,7.31,0,0,1,52.41,85a6.64,6.64,0,0,1,.75-5.2C55.75,75.52,58.31,71.19,61,67a7.26,7.26,0,0,1,12.67.85l.3.58A11.73,11.73,0,0,1,90.36,77c0,.2.13.39.19.59Zm-13,7.1c3.63,1.08,8.21-1.7,9.61-5.72s-.57-9-4.2-10.49C81.13,76.81,79.34,82.19,77.52,87.63Zm-2.81-.82,5.43-16.3a7.53,7.53,0,0,0-5.49.89,1.74,1.74,0,0,0-.34.71,26.41,26.41,0,0,1-1.18,3c-.8,1.49-1.77,2.91-2.64,4.37a1.59,1.59,0,0,0-.27.92A8.55,8.55,0,0,0,74.71,86.81ZM58.79,76.16c-1.15,1.9-2.31,3.65-3.31,5.5a4.36,4.36,0,0,0,7.22,4.75c1.31-1.77,2.39-3.72,3.6-5.64Zm1.52-2.5,7.53,4.61c1.14-1.94,2.37-3.76,3.33-5.72a4.19,4.19,0,0,0-1.89-5.42,4.29,4.29,0,0,0-5.64,1.2C62.47,70,61.44,71.84,60.31,73.66Z"/><path class="cls-1" d="M90.55,28a2,2,0,0,1-2,1c-1.68-.05-3.36,0-5,0-1.27,0-1.76-.52-1.76-1.79q0-11.94,0-23.88c0-1.32.5-1.83,1.81-1.83,1.62,0,3.23,0,4.85,0a2.21,2.21,0,0,1,2.12.93Zm-3-2V4.44h-2.8V26Z"/><path class="cls-1" d="M90.55,35.15H58.41V32.22H90.55Z"/><path class="cls-1" d="M30.14,19c1.25.08,2.38.07,3.47.25A9.4,9.4,0,0,1,41.13,25c2.76,6.56,5.37,13.2,8,19.83a4.77,4.77,0,0,1-2.71,6.12,4.82,4.82,0,0,1-6.3-2.5c-1.11-2.5-2.12-5-3.17-7.58A2.6,2.6,0,0,0,36.4,40v9.73H33.51a6.41,6.41,0,0,1-.06-.67c0-5.49,0-11,0-16.47a2.25,2.25,0,0,1,.61-1.51c.76-.71,1.8-.28,2.29.87C37.67,35,39,38.11,40.24,41.2,41,43.08,41.81,45,42.6,46.85a2,2,0,0,0,2.6,1.33,2,2,0,0,0,1-2.82Q42.47,36,38.71,26.62A7.21,7.21,0,0,0,31.8,22H17.52a7.22,7.22,0,0,0-6.9,4.66Q6.84,36,3.12,45.37a2,2,0,1,0,3.62,1.47q3-7.25,6-14.5c.12-.28.17-.67.39-.81.47-.32,1.07-.76,1.52-.67s.83.74,1.16,1.2c.13.19,0,.54,0,.81,0,7.38.09,14.76,0,22.14-.06,3.35-.5,6.69-.78,10q-.77,9-1.57,18c-.06.76-.15,1.52-.18,2.28a2.27,2.27,0,0,0,2,2.48,2.24,2.24,0,0,0,2.43-2c.38-2.44.68-4.89,1-7.34q1.47-10.73,2.93-21.46a1.46,1.46,0,0,1,1.61-1.4c.89,0,1.77,0,2.66,0a1.46,1.46,0,0,1,1.59,1.42Q29,67.12,30.34,77.18c.39,2.81.75,5.62,1.15,8.42A2.32,2.32,0,0,0,34,87.83a2.27,2.27,0,0,0,2-2.68c-.35-4.43-.74-8.87-1.13-13.3s-.8-9-1.22-13.57a2.35,2.35,0,0,0-.44-1.15c-2-2.62-4.12-5.21-6.15-7.84a1,1,0,0,0-1.21-.41,5.14,5.14,0,0,1-6.25-3.8,5.16,5.16,0,1,1,10.08-2.25,4.81,4.81,0,0,1-.49,3.45.84.84,0,0,0,.07,1.12C35.15,54.83,41,62.28,46.91,69.7a1.81,1.81,0,0,0,1.21.56c1.91,0,3.82,0,5.78,0v2.93h-1c-1.89,0-3.78,0-5.67,0a2.27,2.27,0,0,1-2-1c-2.47-3.18-5-6.32-7.47-9.48-.19-.24-.39-.46-.74-.89l.44,5.24c.52,5.92,1,11.84,1.55,17.77a5.21,5.21,0,0,1-8.6,4.57,5.68,5.68,0,0,1-1.78-3.7Q26.78,72.66,25,59.58c-.05-.34-.14-.67-.21-1H24.5c-.18,1.33-.38,2.66-.56,4-1.09,7.94-2.15,15.88-3.28,23.81a5.16,5.16,0,0,1-10.25-1c.24-3.93.63-7.84,1-11.76.46-5.41,1.13-10.8,1.35-16.22.24-5.78,0-11.58,0-17.3,0,.06-.14.24-.22.43-1.1,2.61-2.16,5.24-3.29,7.84a4.79,4.79,0,0,1-5,2.89,4.69,4.69,0,0,1-4.15-3.8A5.28,5.28,0,0,1,.3,44.68c2.55-6.56,5.08-13.12,7.84-19.59,1.66-3.91,4.9-5.85,9.15-6,.58,0,1.16,0,1.74,0l.16-.07a10.23,10.23,0,0,1-4.74-9.23A9.78,9.78,0,0,1,17.8,2.64,10.27,10.27,0,1,1,30.14,19Zm-5.46-16A7.32,7.32,0,1,0,32,10.29,7.32,7.32,0,0,0,24.68,2.94Zm2.17,41.12a2.19,2.19,0,1,0-2.34,2.06A2.2,2.2,0,0,0,26.85,44.06Z"/><path class="cls-1" d="M70.05,19V11c0-1.31.52-1.82,1.83-1.83h5.21c1.2,0,1.74.54,1.74,1.73q0,8.17,0,16.36c0,1.2-.51,1.72-1.73,1.73-1.77,0-3.53,0-5.3,0-1.25,0-1.74-.53-1.75-1.81Zm3-6.91V26h2.83V12.13Z"/><path class="cls-1" d="M42,16.94,39.64,15.3a6.81,6.81,0,0,1,.36-.62c2.21-3.1,4.44-6.19,6.63-9.3a2.11,2.11,0,0,1,1.91-1c2.35,0,4.69,0,7,0a1,1,0,0,0,1.09-.68A5,5,0,0,1,62.92,1a5.15,5.15,0,0,1,3.42,5.77A5.1,5.1,0,0,1,61,11a4.77,4.77,0,0,1-4.31-2.91,1.11,1.11,0,0,0-1.24-.74c-1.95,0-3.9,0-5.85,0A1.36,1.36,0,0,0,48.36,8c-1.9,2.72-3.84,5.41-5.77,8.11Zm19.3-8.89a2.2,2.2,0,0,0,2.2-2.2,2.19,2.19,0,0,0-4.38,0A2.2,2.2,0,0,0,61.26,8.05Z"/><path class="cls-1" d="M58.34,22.79c0-1.4,0-2.8,0-4.2,0-1.2.54-1.73,1.73-1.74,1.8,0,3.59,0,5.39,0a1.47,1.47,0,0,1,1.66,1.62c0,3,0,5.91,0,8.87A1.46,1.46,0,0,1,65.48,29c-1.82,0-3.65,0-5.48,0-1.14,0-1.65-.55-1.66-1.71C58.33,25.78,58.34,24.28,58.34,22.79Zm3-3V26h2.83V19.82Z"/></g></g></g></svg>