<svg xmlns="http://www.w3.org/2000/svg" viewBox="0 0 104.98 105.4"><defs><style>.cls-1{fill:#f8a94e;}</style></defs><g id="Layer_2" data-name="Layer 2"><g id="Layer_1-2" data-name="Layer 1"><g id="kebBZF.tif"><path class="cls-1" d="M70.28,0l9.37,5L78,8.11c-2.69-1.42-5.29-2.81-7.91-4.17a3.36,3.36,0,0,0-1.43-.41q-14.66,0-29.31,0c-.22,0-.44,0-.65,0,.22,3,3.1,6,6.39,6.73a11.64,11.64,0,0,0,2.5.24c6,0,12,0,18,0a4.79,4.79,0,0,1,2.43.75c3.17,2,6.29,4.13,9.4,6.25.46.31,1,.79,1.11,1.25A2.63,2.63,0,0,1,78,20.66c-.61.69-1.45.51-2.2,0l-7.57-5.05-1.45-.94a4.61,4.61,0,0,0-.31,6,82,82,0,0,0,7.58,8.22c3.82,3.48,8.55,4.13,13.57,3.48a109.15,109.15,0,0,1,16.86-.8l.48.06v3.37a5.17,5.17,0,0,1-.81.08c-6.12-.25-12.2.42-18.28.93A18.85,18.85,0,0,1,70.19,30.2c-2.07-2.12-4-4.35-6-6.59a8.56,8.56,0,0,1-1.69-8.72c.08-.24.15-.48.26-.84H59.58c-4.24,0-8.49,0-12.73,0A12.16,12.16,0,0,1,35,2.87,2.76,2.76,0,0,1,36,0Z"/><path class="cls-1" d="M36.63,43.92v3.49H33.24V58H45.07c1.51,0,2.14.63,2.15,2.14,0,3.91,0,7.83,0,11.83H57.76V60.25c0-1.7.59-2.28,2.33-2.28H71.76V47.43H60c-1.59,0-2.2-.62-2.21-2.19V33.45H47.22v5.16c0,2.23,0,4.46,0,6.7,0,1.45-.64,2.1-2,2.12h-4.9V44h3.44V42.73c0-3.55,0-7.1,0-10.65,0-1.59.61-2.21,2.17-2.21q6.59,0,13.17,0c1.63,0,2.22.61,2.22,2.28,0,3.87,0,7.75,0,11.77H62.5c3.51,0,7,0,10.54,0,1.67,0,2.28.59,2.29,2.21q0,6.59,0,13.18c0,1.56-.62,2.17-2.21,2.17-3.51,0-7,0-10.54,0h-1.3v2.26c0,3.22,0,6.44,0,9.66,0,1.5-.64,2.13-2.15,2.13q-6.65,0-13.28,0c-1.5,0-2.13-.63-2.13-2.15,0-3.91,0-7.82,0-11.9H42.5c-3.55,0-7.1,0-10.65,0-1.57,0-2.19-.62-2.19-2.19q0-6.59,0-13.18c0-1.58.61-2.18,2.19-2.19S35,43.92,36.63,43.92Z"/><path class="cls-1" d="M0,91.35V87.83c2.34,0,4.63.07,6.92,0a8.1,8.1,0,0,1,4.27,1.07q11.63,6.25,23.34,12.37a5.51,5.51,0,0,0,2.48.61c9.33,0,18.66,0,28,0h1.29a5,5,0,0,0-.09-.76,8.6,8.6,0,0,0-8.1-6.26c-2.41,0-4.82,0-7.3,0V91.15c3.46.21,6.94.06,10.26.72,5.15,1,8.88,6,9,11.23,0,1.64-.58,2.3-2.19,2.3-10.72,0-21.45,0-32.17,0a4.62,4.62,0,0,1-2-.6C25.56,100.52,17.5,96.22,9.4,92a5.85,5.85,0,0,0-2.48-.61C4.66,91.29,2.4,91.35,0,91.35Z"/><path class="cls-1" d="M38.26,90.78a5,5,0,0,0,0-6.47c-2.09-2.44-4.19-4.9-6.49-7.14a15.07,15.07,0,0,0-12.32-4.34c-6.08.53-12.15,1.2-18.28,1-.36,0-.72,0-1.15,0V70.32a5.43,5.43,0,0,1,.67,0c6.41.26,12.77-.55,19.15-1a18.43,18.43,0,0,1,14.84,5.79c2.1,2.14,4.08,4.4,6,6.67,2.43,2.81,2.78,6,1.44,9.55h5v3.53c-2.95,0-5.86,0-8.78,0a2.22,2.22,0,0,1-1.08-.48l-9.86-6.56C26.29,87,26,86,26.58,85.11s1.62-1,2.79-.26Z"/><path class="cls-1" d="M34.09,14.6l1.57,3.22c-.31.19-.57.36-.85.51Q13.48,30.24,13.9,54.66a49.11,49.11,0,0,0,.76,5.87c.13.9.25,1.77-.62,2.38a2.05,2.05,0,0,1-2.36-.16c-2.75-1.51-5.52-3-8.28-4.5-.28-.15-.56-.32-.9-.52l1.64-3,6.36,3.4C9.18,38.55,17,24.14,34.09,14.6Z"/><path class="cls-1" d="M56.22,19.46l-.43,3.48c-20.67-2.49-38.71,17.78-31.57,39.6l-3.3,1.16c-3.46-11.23-2.13-21.67,4.95-31C33.4,22.75,43.68,18.6,56.22,19.46Z"/><path class="cls-1" d="M48.78,85.93l.4-3.48C60,83.22,69,79.74,75.77,71.3s8.13-18,5-28.43l3.32-1.16c3.64,12.13,1.84,23.16-6.38,32.75C70.17,83.24,60.36,86.81,48.78,85.93Z"/><path class="cls-1" d="M72.73,89.86,71.07,86.8c2-1.45,4.13-2.7,5.93-4.27Q95.06,66.75,90,43.26c-.19-.89-.45-1.84.43-2.39a2.21,2.21,0,0,1,1.89-.2c2.88,1.66,5.67,3.46,8.56,5.26l-1.86,3L94.29,46C96.22,65.11,89.1,79.64,72.73,89.86Z"/><path class="cls-1" d="M81.54,10l1.62-3.06c.39.19.73.34,1.07.52,3.84,2,7.67,4.09,11.53,6.09a4.93,4.93,0,0,0,2.07.5c2.36.06,4.73,0,7.15,0v3.52c-1.73,0-3.45-.12-5.14,0a12.25,12.25,0,0,1-7.49-1.82C88.86,13.73,85.22,11.93,81.54,10Z"/></g></g></g></svg>