<svg xmlns="http://www.w3.org/2000/svg" viewBox="0 0 102.78 99.36"><defs><style>.cls-1{fill:#f8a94e;}</style></defs><g id="Layer_2" data-name="Layer 2"><g id="Layer_1-2" data-name="Layer 1"><g id="htHpKS.tif"><path class="cls-1" d="M102.78,96.76c-.84,1.94-2.32,2.61-4.42,2.6-14.28,0-28.55,0-42.83,0-2.89,0-4.14-1.26-4.15-4.18V90c0-2.83.69-3.75,3.43-4.51,0-1.55,0-3.11,0-4.68,0-1.4.63-2,2-2q10,0,19.91,0c1.24,0,2,.71,2,1.73S78,82.2,76.7,82.2H58.32v3.42h1.13c7.24,0,14.49,0,21.73,0A3,3,0,0,0,83,85a16.05,16.05,0,0,0,5.51-16.84C86.91,61.37,82.64,57,75.85,55.28a2.05,2.05,0,0,0-.42,0c0,.34-.06.68-.06,1,0,2.32,0,4.64,0,7a3.41,3.41,0,0,1-3.57,3.57q-5,0-10,0a3.41,3.41,0,0,1-3.59-3.56q0-10.11,0-20.23c0-2,1.08-3.2,3.42-3.68,0-1.53,0-3.09,0-4.65s.6-2.12,2.15-2.13h6.1c1.39,0,2,.64,2,2.05s0,3.13,0,4.68c2.85.76,3.19,1.3,3.49,5.46a26.37,26.37,0,0,1,20.9,15.08c4.28,8.58,4.15,17.22-.6,25.79,2.66.19,5.7-.79,7,2.6Zm-47.92-.93H99.27V89.11H54.86Zm32.41-10.2c1.31,0,2.38,0,3.44,0a1.37,1.37,0,0,0,1.38-.73A22.75,22.75,0,0,0,95.24,66.6,23.93,23.93,0,0,0,75.73,48.25,22.14,22.14,0,0,0,72,48a1.61,1.61,0,0,0-1.76,1.63c0,1,.53,1.56,1.66,1.73.39,0,.78,0,1.18.07A20.62,20.62,0,0,1,91.92,76.7,21.56,21.56,0,0,1,87.27,85.63ZM61.71,63.3H71.88V54.85c-3.07-.49-5-2.31-5-5a6.94,6.94,0,0,1,1-3.19,5,5,0,0,1,4-2.21v-1.6H61.71Zm6.74-23.93V36H65.17v3.33Z"/><path class="cls-1" d="M31.47,0a5.5,5.5,0,0,1,4.25,3.63,5.05,5.05,0,0,1-3.27,6.31A5.13,5.13,0,0,1,26,6.86,5.07,5.07,0,0,1,28.89.44c.42-.17.86-.29,1.29-.44Zm-.6,6.82a1.75,1.75,0,0,0,1.66-1.75,1.71,1.71,0,0,0-3.41.08A1.75,1.75,0,0,0,30.87,6.82Z"/><path class="cls-1" d="M54.81,49.32a6,6,0,0,1,.88.4,1.65,1.65,0,0,1,.74,2,1.47,1.47,0,0,1-1.66,1.21,8.05,8.05,0,0,1-2.76-1,2.26,2.26,0,0,1-.6-1.68c0-7,0-13.91,0-20.87,0-3,0-6,0-9,0-1.5.34-1.86,1.79-2.36,1.15-.39,2.25-.94,3.37-1.41V16.1a8.89,8.89,0,0,0-1.76-1.05,27.85,27.85,0,0,0-17,0A8.42,8.42,0,0,0,36,16.12l0,.43c1.08.47,2.13,1,3.24,1.38,1.64.56,1.92.85,1.92,2.59V50c0,1.7-.25,2-1.82,2.56q-13.42,5-15.19,19.27a1.21,1.21,0,0,0,.43,1,25,25,0,0,0,8.31,2.65A7.33,7.33,0,0,0,39,73.31a20,20,0,0,0,1.62-1.7C43.83,67.64,48,66.24,53,67A34,34,0,0,1,68.62,73.5a4.63,4.63,0,0,1,.88.77,1.68,1.68,0,0,1-2,2.58,4.6,4.6,0,0,1-.79-.54,29.91,29.91,0,0,0-15.86-6.06,7.24,7.24,0,0,0-6.28,2.3c-.54.57-1.09,1.13-1.6,1.73-3.46,4.1-7.86,5.35-13,4.14-1.93-.46-3.79-1.19-6-1.9a47,47,0,0,0,2.11,6.33c4.23,8.63,11.26,12.94,20.87,13,.43,0,.86,0,1.29,0a1.67,1.67,0,0,1,.15,3.33,22.25,22.25,0,0,1-3.74.06,25.36,25.36,0,0,1-19.42-11c-.48-.68-.93-.54-1.54-.4-7.11,1.61-13.45.28-18.49-5.21-8-8.74-7.24-23.86,6-30.08a1.56,1.56,0,0,0,1-1.68c0-5.81,0-11.63,0-17.44a1.17,1.17,0,0,0-.81-1.28c-1.53-.67-2.87-1.62-2.83-3.5s1.41-2.85,3-3.42a20.85,20.85,0,0,1,14.64,0,3.88,3.88,0,0,1,.58.28c1.26.71,2.33,1.61,2.32,3.2a3.37,3.37,0,0,1-2.34,3.17c-1.14.46-1.33,1.15-1.32,2.26.06,5.63,0,11.27,0,16.91a1.29,1.29,0,0,0,.93,1.41c1.08.44,2.09,1.06,3.2,1.65a27.26,27.26,0,0,1,7.71-4.59c.24-.1.38-.7.38-1.06q0-11.67,0-23.34a6.15,6.15,0,0,1,0-1c.3-2,0-3.64-2.41-4.19a3.79,3.79,0,0,1-1.54-1.11,3.46,3.46,0,0,1,.11-5.36,12.38,12.38,0,0,1,6.32-2.68,29.7,29.7,0,0,1,15,.77,10.91,10.91,0,0,1,3.34,1.84,3.41,3.41,0,0,1,0,5.61,25.69,25.69,0,0,1-3,1.77c-.3.18-.67.56-.67.86Q54.8,35.5,54.81,49.32ZM12.34,28.84c.5.21.95.43,1.41.59,1.71.56,1.89.79,1.89,2.58V52.66c0,1.61-.26,2-1.76,2.5A15,15,0,0,0,3.78,66.65c-.54,2.49-.62,1.85,1.4,2.78.52.23,1.06.41,1.6.6,3,1,5.54.55,7.6-2,.31-.39.68-.73,1-1.09a7.62,7.62,0,0,1,6.1-2.56c.69,0,.87-.32,1.16-.82,1.26-2.14,2.58-4.24,3.88-6.36l.46-.72C25.74,56,24.57,55.47,23.38,55A1.82,1.82,0,0,1,22,53.18q0-10.91,0-21.82a1.77,1.77,0,0,1,1.38-1.8c.63-.2,1.25-.44,2-.69C22.48,26.87,15.14,26.87,12.34,28.84Zm8.88,39c-2,0-3.15,1.22-4.19,2.46-2.85,3.42-6.43,4.24-10.59,3.16-.88-.22-1.73-.53-2.62-.82C5.32,82,15.56,87.08,22.94,84.43A25.68,25.68,0,0,1,21.22,67.84Z"/><path class="cls-1" d="M20.6,8.61a5.17,5.17,0,0,1,5.08,5.14,5.14,5.14,0,0,1-10.27-.1A5.18,5.18,0,0,1,20.6,8.61Zm1.65,5.13a1.7,1.7,0,1,0-1.77,1.64A1.75,1.75,0,0,0,22.25,13.74Z"/></g></g></g></svg>