<svg xmlns="http://www.w3.org/2000/svg" viewBox="0 0 84.8 107.86"><defs><style>.cls-1{fill:#f8a94e;}</style></defs><g id="Layer_2" data-name="Layer 2"><g id="Layer_1-2" data-name="Layer 1"><g id="BPv58J.tif"><path class="cls-1" d="M52,0c.32.13.63.27.95.38a5.37,5.37,0,0,1,3.55,3.08C57,5,58,5.15,59.29,5.07s2.74,0,4.11,0c1.15,0,1.83.62,1.82,1.58s-.68,1.56-1.84,1.57c-1.82,0-3.65,0-5.47,0a.87.87,0,0,0-1,.66,6.58,6.58,0,0,1-6.52,4.39c-4.88,0-9.76,0-14.63,0A25.33,25.33,0,0,0,30.6,63.38a31.94,31.94,0,0,0,5.52.61c2.73.11,5.47,0,8.24,0,.34-1-.1-1.31-1-1.51A33.11,33.11,0,0,1,21.43,46.66,32.56,32.56,0,0,1,16.8,30.14c0-1.27,0-2.53,0-3.8a4.62,4.62,0,0,1,4.38-4.75,11.23,11.23,0,0,1,1.16,0H60.54a6.05,6.05,0,0,1,1.35.1,1.41,1.41,0,0,1,1.18,1.53,1.45,1.45,0,0,1-1.35,1.49,10.54,10.54,0,0,1-1.26,0H22.57c-2.37,0-2.56.26-2.63,2.68A31.56,31.56,0,0,0,23.1,43.11,30,30,0,0,0,44,59.41c2.5.57,3.27,1.45,3.75,4.61h5a19.38,19.38,0,0,1,.93-2.79,3.85,3.85,0,0,1,2.84-1.8,30.39,30.39,0,0,0,24.22-30c0-.91,0-1.83,0-2.74,0-1.45-.51-2-2-2H69.62c-.35,0-.81.11-1-.07a3.25,3.25,0,0,1-1.22-1.37,1.3,1.3,0,0,1,1-1.59,4,4,0,0,1,1.14-.12h9.16c3.33,0,5.13,1.89,5.21,5.24.16,6.12-.64,12.05-3.44,17.58a33.12,33.12,0,0,1-22.8,18c-.79.19-1.79.2-1.39,1.61.5,0,1,0,1.54,0a1.45,1.45,0,0,1,1.49,1.47A1.49,1.49,0,0,1,58,67.14a3.36,3.36,0,0,1-.84,0c-6.95,0-13.9,0-20.84,0A28.87,28.87,0,0,1,8.3,46c-4.42-16,6.29-32.8,22.64-35.45a38,38,0,0,1,5.55-.43c4.66,0,9.33,0,14,0A3.45,3.45,0,0,0,54.09,6a3.35,3.35,0,0,0-3.24-2.79c-2.77-.05-5.54-.08-8.31,0a3.92,3.92,0,0,0-2.24,1A6.71,6.71,0,0,1,35.81,5.9a32.75,32.75,0,0,0-15.3,61.67A33.93,33.93,0,0,0,36.39,71.4q17.58,0,35.16,0a5.58,5.58,0,1,1,.09,11.15c-4.73,0-9.47,0-14.21,0H56.24V86.7c.3,0,.6.07.9.07,4.78,0,9.55,0,14.32,0a9.94,9.94,0,0,0,9.83-7.53,9.76,9.76,0,0,0-9.09-12c-2.21,0-4.42,0-6.63,0-1.28,0-2-.65-2-1.65s.76-1.52,2-1.5a69.09,69.09,0,0,1,8.4.24,12.65,12.65,0,0,1,10.63,11,3.37,3.37,0,0,0,.19.59v2.1a2,2,0,0,0-.16.49c-.5,5.73-5.79,11.71-13.82,11.52-4.49-.1-9,0-13.47,0H56.24c-.15,1,.54,1.07,1.08,1.25a13.5,13.5,0,0,1,9.38,12.88,3.55,3.55,0,0,1-3.64,3.78q-12.73,0-25.47,0a3.54,3.54,0,0,1-3.61-3.7,13.56,13.56,0,0,1,9.41-13c.54-.17,1.23-.26,1-1.21-1.18-.14-2.92.39-3-1.52-.1-2.15,1.82-1.49,3-1.75V82.63a6.22,6.22,0,0,0-.66-.07c-8.11,0-16.21,0-24.31,0a8.44,8.44,0,0,0-8.19,7.71,8.17,8.17,0,0,0,7,8.92,51.4,51.4,0,0,0,7.45.16,2,2,0,0,0,2.06-2.2,2.07,2.07,0,0,0-2.28-2c-1.82,0-3.65,0-5.47,0-2.71,0-4.62-1.82-4.58-4.3s1.89-4.12,4.6-4.13H35a6,6,0,0,1,.74,0,1.47,1.47,0,0,1,1.34,1.4,1.41,1.41,0,0,1-1,1.61,4,4,0,0,1-1.25.13H20.47c-.79,0-1.73-.2-1.83,1-.06.78.51,1.09,1.9,1.09,1.65,0,3.3,0,4.95,0A5.24,5.24,0,0,1,31,97.22a5.3,5.3,0,0,1-5.36,5.34c-2.1,0-4.21.06-6.31,0a11.56,11.56,0,0,1,.06-23.12c7.93-.07,15.86,0,23.79,0h1.29V74.56c-2.53,0-5,0-7.44,0a38.52,38.52,0,0,1-10.2-1.19,35.76,35.76,0,0,1-26.65-38,34.58,34.58,0,0,1,12.1-23.65,35.67,35.67,0,0,1,23.55-9,4.1,4.1,0,0,0,1.79-.46C38.89,1.56,40.15.76,41.42,0ZM47.66,74.61V89.49c0,2.76-.78,3.83-3.41,4.71a10.39,10.39,0,0,0-7.1,9.38c0,.8.14,1.13,1,1.13q12.15,0,24.31,0c.83,0,1.09-.24,1.07-1.08a10.45,10.45,0,0,0-7.18-9.45C53.82,93.34,53,92.24,53,89.54V74.61Zm8.55,4.77c5.31,0,10.52,0,15.73,0a2.22,2.22,0,0,0,2.12-1.62c.57-1.65-.64-3.17-2.55-3.18-4.84,0-9.67,0-14.5,0a7.53,7.53,0,0,0-.8.09Z"/><path class="cls-1" d="M45,47.2H40.56a2,2,0,0,1-2.27-2.28q0-3,0-6a2,2,0,0,1,2.28-2.27H45c0-.68,0-1.3,0-1.91-.12-5,.16-4.92,4.88-4.85,1.16,0,2.32,0,3.48,0a2,2,0,0,1,2.23,2.2c0,1.46,0,2.94,0,4.55H59.9c1.78,0,2.48.69,2.49,2.49s0,3.79,0,5.69c0,1.66-.74,2.37-2.38,2.38l-4,0a2.08,2.08,0,0,0-.38.12c0,1.22,0,2.51,0,3.79,0,2.24-.57,2.82-2.77,2.82-1.86,0-3.72,0-5.58,0A2,2,0,0,1,45,51.74C45,50.27,45,48.8,45,47.2Zm7.32,3.55a1.08,1.08,0,0,0,.1-.29c0-1.33,0-2.66,0-4,0-1.7.75-2.4,2.47-2.42h4.29V40.69c0-.27-.05-.54-.08-.89h-4c-2,0-2.63-.68-2.64-2.68,0-1.32,0-2.64,0-4.07H48.19v4.08c0,2-.65,2.66-2.63,2.67h-4V44h4.18c1.78,0,2.47.71,2.48,2.5,0,1.39,0,2.78,0,4.21Z"/></g></g></g></svg>