<svg xmlns="http://www.w3.org/2000/svg" viewBox="0 0 116.28 110.7"><defs><style>.cls-1{fill:#f8a94e;}</style></defs><g id="Layer_2" data-name="Layer 2"><g id="Layer_1-2" data-name="Layer 1"><g id="RT9Con.tif"><path class="cls-1" d="M17.94,0c.4.11.8.21,1.19.33a5.85,5.85,0,0,1,4.2,5.59A5.88,5.88,0,0,1,19,11.52a5.69,5.69,0,0,1-6.46-2.6c-.47-.83-.88-.84-1.59-.46a5.59,5.59,0,0,0-3.19,5c-.06,8.32,0,16.65,0,25a1.63,1.63,0,0,0,.1.34h5.8C13.08,45.32,14.47,51.05,20,55a16.57,16.57,0,0,0,11.14,3.07,16.1,16.1,0,0,0,12.09-6.06c3.07-3.85,3.56-8.39,3.27-13.18h3.8c0-.37.1-.65.1-.94,0-7.94,0-15.89-.11-23.84,0-3.11-1.53-5.22-4.08-5.89a17.07,17.07,0,0,1-1.93,2.19A5.69,5.69,0,0,1,35.91,9.1a5.77,5.77,0,1,1,10-5.76,1.94,1.94,0,0,0,1,.93c4.79,1.54,7.29,4.91,7.32,10.09,0,7.84.05,15.67.07,23.5,0,.27,0,.53,0,.92H58c1.58,12.35-5.54,25.8-21.17,30.11,0,1.47.1,3,0,4.47a19.52,19.52,0,0,1-.73,4.44,5,5,0,0,1-4.39,3.59,3.55,3.55,0,0,0-.52.15C29.88,93.18,36.4,103.83,47,106.31c7.62,1.79,14-.63,19.19-6.41,4-4.48,5.57-9.87,5.57-15.79,0-12.3,0-24.6,0-36.9a17.24,17.24,0,0,1,7.63-14.93C87,27,97.19,29.42,102,37.58a19.19,19.19,0,0,1,2.63,9.85c0,1,0,2,0,3.16a13.55,13.55,0,0,1,10.09,7.29A13,13,0,0,1,115.92,67a13.56,13.56,0,0,1-26.65-1.09,13.74,13.74,0,0,1,11.45-15.42c.3-4.38-.08-8.61-2.9-12.26C92.13,30.89,81.5,32,77.19,40.41a15,15,0,0,0-1.61,7q0,18.39,0,36.79A27.46,27.46,0,0,1,69,102.57a23.15,23.15,0,0,1-35.3-.08,27.44,27.44,0,0,1-6.55-18.27,8.67,8.67,0,0,1,0-1.14c.13-1.07-.09-1.63-1.37-1.87-2.5-.45-4.17-2.93-4.35-6.21-.11-2,0-4,0-6-1.7-.63-3.36-1.12-4.91-1.86C7.36,62.75,1.61,55.8.17,45.6A1.43,1.43,0,0,0,0,45.19V38.83H3.87V37.32c0-7.74,0-15.49,0-23.23a9.68,9.68,0,0,1,7.35-9.8c.3-.09.71-.25.81-.49A6.4,6.4,0,0,1,17,0ZM4,42.74A20.66,20.66,0,0,0,8.49,56.07C15.73,64.85,25.1,67.65,36,65a23.25,23.25,0,0,0,17.3-15.81,18.11,18.11,0,0,0,1-6.4H50.44C50,53.33,42.49,61,32,62a20.5,20.5,0,0,1-14.09-3.65A19.16,19.16,0,0,1,9.65,42.74Zm98.76,30.94A9.68,9.68,0,1,0,93.05,64,9.75,9.75,0,0,0,102.71,73.68Zm-77.61-4c.11,2,.15,4,.37,6,.15,1.32.85,1.79,2.17,1.81,1,0,2,0,3.06,0a1.65,1.65,0,0,0,1.82-1.37c.27-2.17.39-4.36.56-6.5ZM19.33,5.89A1.89,1.89,0,0,0,17.51,4a1.94,1.94,0,0,0-2,1.89,1.92,1.92,0,0,0,1.85,1.91A1.86,1.86,0,0,0,19.33,5.89Zm23.28,0A2,2,0,0,0,40.8,4a1.9,1.9,0,0,0-2,1.86,1.85,1.85,0,0,0,1.79,1.93A1.91,1.91,0,0,0,42.61,5.93Z"/><path class="cls-1" d="M102.53,69.79a5.73,5.73,0,0,1-5.6-6,5.81,5.81,0,0,1,5.89-5.56,5.88,5.88,0,0,1,5.7,5.9A5.82,5.82,0,0,1,102.53,69.79Zm.22-3.88A1.92,1.92,0,0,0,104.62,64a2,2,0,0,0-2-1.92,1.9,1.9,0,0,0,.09,3.8Z"/></g></g></g></svg>