<svg xmlns="http://www.w3.org/2000/svg" viewBox="0 0 92.74 92.74"><defs><style>.cls-1{fill:#e8932e;}</style></defs><g id="Layer_2" data-name="Layer 2"><g id="Layer_1-2" data-name="Layer 1"><g id="MZreFt.tif"><path class="cls-1" d="M29.38,0h2l.89.4c3.29,1.42,4,6,1.12,8A3.15,3.15,0,0,0,32,11.69a5.67,5.67,0,0,1,0,1.09,1.85,1.85,0,0,0,.69,1.65c1.61,1.55,3.15,3.17,4.76,4.71a2.87,2.87,0,0,1,1,2.39c-.06,1.32,0,2.64,0,4h6.39c0-2,0-4,0-5.9a1,1,0,0,0-.64-1.07,4.58,4.58,0,0,1-2.55-3.91,4.79,4.79,0,1,1,7.19,3.84c-.29.18-.76.42-.77.64,0,2.12,0,4.24,0,6.36h6.39c0-1.47-.08-2.9,0-4.31a3.42,3.42,0,0,1,.75-1.84,21.25,21.25,0,0,1,3.18-3.18,5.92,5.92,0,0,0,2.46-6A1.34,1.34,0,0,0,60.05,9,4.75,4.75,0,0,1,58.3,2.25,5.89,5.89,0,0,1,61.36,0h2a1.13,1.13,0,0,0,.23.17A4.6,4.6,0,0,1,67.11,4.3a4.69,4.69,0,0,1-2.67,4.84A1.17,1.17,0,0,0,64,10c0,1.33.06,2.67,0,4a3.37,3.37,0,0,1-.76,1.83c-1.63,1.76-3.37,3.41-5.06,5.11-.2.21-.5.46-.51.7-.05,1.31,0,2.63,0,4,.9,0,1.67.05,2.43,0,5.47-.42,7.55,1.79,7.16,7.1-.06.81,0,1.63,0,2.5,5.33,0,10.52,0,15.71,0a1.27,1.27,0,0,0,.83-.63,4.8,4.8,0,0,1,5.62-2.33,5.24,5.24,0,0,1,3.42,3.59v2a3.29,3.29,0,0,0-.21.42,4.67,4.67,0,0,1-4.19,3.34,4.53,4.53,0,0,1-4.66-2.62c-.28-.56-.65-.55-1.12-.55H68.07c-.28,0-.57,0-.91.06v6.33c2,0,4,0,5.85,0a1.1,1.1,0,0,0,1.15-.68A4.77,4.77,0,0,1,83,47.64a4.65,4.65,0,0,1-4,3.48,4.81,4.81,0,0,1-4.82-2.37c-.18-.3-.49-.74-.75-.74-2.06-.07-4.11,0-6.2,0v6.31a.88.88,0,0,0,.25.07c5.12,0,10.25,0,15.38,0a1.25,1.25,0,0,0,.84-.62,4.85,4.85,0,0,1,5.53-2.37A5.31,5.31,0,0,1,92.74,55v2a3.42,3.42,0,0,0-.21.43,4.66,4.66,0,0,1-4.19,3.33,4.73,4.73,0,0,1-4.7-2.59,1.44,1.44,0,0,0-1.08-.54c-4.82,0-9.65,0-14.47,0-.29,0-.58,0-.93,0v4.14c0,3.48-1.91,5.39-5.35,5.4H57.56c0,1.17-.06,2.23,0,3.28a2.63,2.63,0,0,0,.61,1.45c1.63,1.71,3.36,3.32,5,5a3.37,3.37,0,0,1,.76,1.84,30.28,30.28,0,0,1,0,3.69,1.21,1.21,0,0,0,.73,1.31A4.68,4.68,0,0,1,67,89.32a5.24,5.24,0,0,1-3.59,3.42h-2l-.89-.39c-3.28-1.43-4-6-1.12-8a3.18,3.18,0,0,0,1.42-3.28,6.69,6.69,0,0,0,0-1.19,3.33,3.33,0,0,0-.62-1.45c-1.63-1.72-3.36-3.33-5-5.07a3.25,3.25,0,0,1-.75-1.83c-.11-1.42,0-2.85,0-4.36H48c0,2,0,4,0,5.9a1,1,0,0,0,.64,1.07A4.57,4.57,0,0,1,51.15,78,4.79,4.79,0,1,1,44,74.15c.27-.15.69-.38.69-.59.05-2.11,0-4.23,0-6.4H38.38c0,1.53,0,2.89,0,4.26a2.54,2.54,0,0,1-.83,2,39.46,39.46,0,0,1-3.14,3.07,5.91,5.91,0,0,0-2.47,6,1.33,1.33,0,0,0,.75,1.21,4.61,4.61,0,0,1,1.58,6.85,12.82,12.82,0,0,1-2.9,2.12h-2l-.89-.39c-3.24-1.41-4-5.87-1.2-7.94a3.46,3.46,0,0,0,1.5-3.54,8.58,8.58,0,0,1,0-2.09,3.88,3.88,0,0,1,.76-1.84c1.63-1.75,3.37-3.41,5.06-5.11.2-.2.5-.45.51-.69,0-1.31,0-2.63,0-4H30.94c-3.44,0-5.35-1.93-5.36-5.4v-4.2c-5.33,0-10.51,0-15.7,0a1.26,1.26,0,0,0-.84.63,4.81,4.81,0,0,1-5.62,2.33A5.26,5.26,0,0,1,0,57V55a2.79,2.79,0,0,0,.19-.33A4.63,4.63,0,0,1,4.41,51.2a4.73,4.73,0,0,1,4.7,2.6,1.4,1.4,0,0,0,1.07.54c4.83,0,9.66,0,14.49,0,.29,0,.57,0,.83,0V48c-1.94,0-3.81,0-5.67,0a1.23,1.23,0,0,0-1.29.78A4.66,4.66,0,0,1,13.17,51a4.79,4.79,0,1,1,5.4-7c.18.31.49.74.76.75,2.05.06,4.11,0,6.19,0V38.48c-.09,0-.12-.08-.15-.08-5.16,0-10.32,0-15.48,0-.31,0-.71.39-.89.7a4.75,4.75,0,0,1-7.65.94A12.48,12.48,0,0,1,0,37.78v-2a3.42,3.42,0,0,0,.21-.43A4.67,4.67,0,0,1,4.4,32a4.52,4.52,0,0,1,4.65,2.62c.29.55.65.55,1.12.55H24.65c.29,0,.58,0,.93-.06,0-.92.06-1.79,0-2.64-.41-5.11,1.89-7.3,6.86-6.91.89.07,1.78,0,2.75,0,0-1.2,0-2.29,0-3.38a2.17,2.17,0,0,0-.54-1.28c-1.65-1.72-3.4-3.37-5-5.12A3.28,3.28,0,0,1,28.82,14a29.7,29.7,0,0,1,0-3.89A1,1,0,0,0,28.15,9a4.69,4.69,0,0,1-2.36-5.59A5.26,5.26,0,0,1,29.38,0Zm-.6,46.27V61.76c0,1.7.5,2.2,2.2,2.2H61.76c1.7,0,2.2-.5,2.2-2.2V31c0-1.7-.5-2.2-2.2-2.2H31c-1.7,0-2.2.5-2.2,2.2ZM30.42,3.2A1.6,1.6,0,1,0,32,4.81,1.61,1.61,0,0,0,30.42,3.2Zm31.93,0A1.59,1.59,0,1,0,64,4.76,1.59,1.59,0,0,0,62.35,3.21ZM46.38,16a1.59,1.59,0,1,0-1.6-1.55A1.6,1.6,0,0,0,46.38,16Zm-40,20.79a1.6,1.6,0,1,0-1.57,1.6A1.62,1.62,0,0,0,6.39,36.77ZM88,38.37a1.62,1.62,0,0,0,1.56-1.6A1.6,1.6,0,1,0,88,38.37ZM14.43,44.78A1.59,1.59,0,1,0,16,46.39,1.6,1.6,0,0,0,14.43,44.78ZM78.34,48a1.59,1.59,0,1,0-1.58-1.57A1.6,1.6,0,0,0,78.34,48ZM4.79,57.56A1.6,1.6,0,1,0,3.2,56,1.62,1.62,0,0,0,4.79,57.56Zm83.18,0A1.6,1.6,0,1,0,86.35,56,1.62,1.62,0,0,0,88,57.56ZM48,78.39a1.59,1.59,0,1,0-1.61,1.55A1.6,1.6,0,0,0,48,78.39ZM32,87.94a1.59,1.59,0,1,0-1.56,1.6A1.6,1.6,0,0,0,32,87.94Zm30.39,1.6A1.6,1.6,0,1,0,60.77,88,1.6,1.6,0,0,0,62.36,89.54Z"/></g></g></g></svg>