<svg xmlns="http://www.w3.org/2000/svg" viewBox="0 0 86.39 86.39"><defs><style>.cls-1{fill:#e8932e;}</style></defs><g id="Layer_2" data-name="Layer 2"><g id="Layer_1-2" data-name="Layer 1"><g id="QwQqWL.tif"><path class="cls-1" d="M86.39,48.93,62,49H25.94V30.59A16.51,16.51,0,0,1,19,28.69c-.32-.17-.64-.35-1-.55-1.44-.89-1.76-.95-3.66-.71v4.29H0V0H14.34V2.69a5.92,5.92,0,0,0,3.78-.39C19.83,1.51,21.56.77,23.29,0H44a.88.88,0,0,0,.3.13A13,13,0,0,1,51.9,4c2.29,2.32,4.61,4.6,6.9,6.92a1.77,1.77,0,0,0,1.4.57c5.56,0,11.12,0,16.68,0l9.51,0ZM55.21,11.46c-.27-.29-.45-.5-.64-.69C53,9.24,51.49,7.73,50,6.18a10.59,10.59,0,0,0-8-3.32c-5.68,0-11.36,0-17,.05a7,7,0,0,0-3,.71C19.62,4.79,17.33,6,14.57,5.73l-.12,0V24.47c.71,0,1.35.05,2,0a3.76,3.76,0,0,1,2.35.7A23.79,23.79,0,0,0,22.53,27a23.3,23.3,0,0,0,3.4.76c0-2.38,0-4.51,0-6.64,0-.23-.34-.51-.58-.67-1.05-.67-2.12-1.3-3.26-2L24,16.15a8,8,0,0,0,5.87,2.35,8.33,8.33,0,0,0,5.66-2.68c2.8,2.81,5.54,5.55,8.29,8.29a2.9,2.9,0,1,0,4.11-4.05l-3.22-3.22L38,10.17,40,8c1,1,1.92,2,2.92,2.93a2,2,0,0,0,1.23.52c3.4,0,6.8,0,10.2,0C54.59,11.5,54.83,11.48,55.21,11.46Zm25.39,13V36c-2.07-.11-4,.18-5.48,1.7a6.68,6.68,0,0,0-1.69,5.46H38.85a6.58,6.58,0,0,0-1.66-5.47A6.76,6.76,0,0,0,31.75,36V24.45c2.38.2,4.44-.31,5.9-2.23l-2.48-2.47a11,11,0,0,1-6.31,1.63V46H83.48V14.44H46.56l-.16.2c.72.66,1.46,1.29,2.13,2a2,2,0,0,0,1.54.65c7.43,0,14.85,0,22.27,0h1.1a6.63,6.63,0,0,0,1.69,5.52A6.45,6.45,0,0,0,80.6,24.45Zm-10,15.87a8.84,8.84,0,0,1,7.13-7.13c0-1.85,0-3.62,0-5.39,0-.48-.2-.59-.62-.69a8.57,8.57,0,0,1-5.9-5c-.27-.61-.43-1.27-.64-1.91H51.41a5.94,5.94,0,0,1-.19,4.64c4.65-2.5,8-2.25,10.52.72A7.28,7.28,0,0,1,53.22,37a7.13,7.13,0,0,1-3.9-4.31,7.49,7.49,0,0,1,.55-6c-3.38,2.07-5.82,1.76-8.53-.94-.5-.51-1-1-1.56-1.53a8.91,8.91,0,0,1-5.16,3v6l.61.18a8.39,8.39,0,0,1,6.18,6.08c.22.76.54.87,1.21.86h28ZM2.93,2.91V28.75h8.52V2.91ZM60.46,30.27a4.32,4.32,0,0,0-8.63-.07,4.38,4.38,0,0,0,4.33,4.37A4.33,4.33,0,0,0,60.46,30.27Z"/><path class="cls-1" d="M43.7,86.39c-3.42-1.07-6.23-3.28-9.26-5.06-6.55-3.83-13-7.76-19.54-11.67a5.75,5.75,0,1,1,5.71-10c4.7,2.52,9.39,5.07,14.08,7.61l.53.26c.94-2.52,3-3.43,5.42-4,4.89-1.24,9.75-2.64,14.65-3.89a22.14,22.14,0,0,1,4.15-.54c1.57-.09,3.15,0,4.73,0a8,8,0,0,1,4.63,1.29c1,.63,2,1.21,3.17,1.9V57.54H86.39V86.39H72.05L72,84.31l-5.81,2.08ZM57.94,70.73c-.13.09-.17.13-.22.14C52.48,72.27,47.27,73.76,42,75c-3.28.79-5.71-.74-6.93-4a1.31,1.31,0,0,0-.6-.63q-7.54-4.09-15.12-8.17a2.89,2.89,0,1,0-2.82,5c8.63,5.17,17.25,10.35,25.9,15.46a5.7,5.7,0,0,0,2.71.74c6.58.06,13.16,0,19.74,0a5.83,5.83,0,0,0,1.89-.33c1.55-.56,3.08-1.22,4.63-1.8a.78.78,0,0,0,.61-.84c0-4.78,0-9.56,0-14.34a1.11,1.11,0,0,0-.41-.81c-1.6-1-3.21-2-4.85-2.89a3.2,3.2,0,0,0-1.5-.51,42.44,42.44,0,0,0-7.57.13c-3.47.59-6.86,1.69-10.28,2.59-2.47.65-4.94,1.3-7.4,2a2.93,2.93,0,0,0-2.15,3.51,2.77,2.77,0,0,0,3.44,2c3-.72,5.93-1.52,8.88-2.3l7.07-1.87ZM75,60.51V83.45h8.51V60.51Z"/></g></g></g></svg>