<svg xmlns="http://www.w3.org/2000/svg" viewBox="0 0 81.38 81.38"><defs><style>.cls-1{fill:#e8932e;}</style></defs><g id="Layer_2" data-name="Layer 2"><g id="Layer_1-2" data-name="Layer 1"><g id="ByfGiW.tif"><path class="cls-1" d="M9,0c1.52.57,2.85,1.44,3.07,3.16.27,2.19.64,4.47-1.26,6.31a15,15,0,0,1,3.84,4.63,14.2,14.2,0,0,1,1.63,6.51c0,1.35,0,2.71,0,4.06,0,.29-.29.58-.49.83a1.25,1.25,0,0,1-.44.24c-1.92,1-1.88,1-2.1,3.12-.33,3.25-.71,6.5-1.07,9.76a6.34,6.34,0,0,1-.14.68H4.22l-.66-5.79c-.23-2.13-.45-4.27-.72-6.39a1.07,1.07,0,0,0-.5-.68C1.58,26,.78,25.65,0,25.26v-6.1a2.84,2.84,0,0,0,.15-.47,14.19,14.19,0,0,1,4.12-8.14c.38-.37.78-.72,1.18-1.09-1.93-2-1.57-4.41-1.12-6.72C4.62,1.26,5.92.5,7.29,0Zm.65,36.58c.41-3.73.81-7.38,1.24-11,0-.31.26-.79.49-.84,2.12-.55,2.51-2,2.2-3.9a4.1,4.1,0,0,1,0-.5,11.6,11.6,0,0,0-4.76-9,.92.92,0,0,0-1.32,0,12,12,0,0,0-4.8,9.55c-.08,1.85.16,3.22,2.18,3.74a1,1,0,0,1,.53.74c.22,1.62.38,3.25.56,4.88.23,2.09.47,4.18.7,6.29ZM9.49,5.24h0c0-.42,0-.84,0-1.26A1.34,1.34,0,0,0,8.14,2.72,1.31,1.31,0,0,0,6.8,4a22.25,22.25,0,0,0,0,2.45A1.54,1.54,0,0,0,8.1,7.79,1.57,1.57,0,0,0,9.48,6.43,11.81,11.81,0,0,0,9.49,5.24Z"/><path class="cls-1" d="M81.38,25.26c-.9.46-2.08.72-2.62,1.45s-.38,1.87-.49,2.85c-.33,2.86-.64,5.72-1,8.58,0,.36-.1.73-.16,1.14H69.32c-.21-1.88-.43-3.75-.64-5.63-.24-2.16-.46-4.32-.72-6.48,0-.25-.29-.49-.46-.72a.38.38,0,0,0-.22-.11c-1.91-.49-2.31-1.74-2.23-3.62.12-2.78.18-5.52,1.43-8.09a14.7,14.7,0,0,1,4.06-5.12C67.85,5.83,68.67,1.72,72.4,0h1.69c1.93.72,3.2,2,3.22,4.14,0,1.9.29,3.87-1.4,5.29,3,2.81,4.26,4.79,5,7.86.16.62.29,1.24.43,1.87ZM74.74,36.58c.35-3.07.81-6.06,1-9.07.1-1.84.54-3.18,2.46-3.72.22-.06.45-.48.47-.74,0-.9,0-1.81,0-2.71a11.57,11.57,0,0,0-4.75-9,.92.92,0,0,0-1.32,0,12.07,12.07,0,0,0-4.82,9.8c0,1.77.27,3,2.09,3.47a1.18,1.18,0,0,1,.63.85c.18,1.11.26,2.24.39,3.36.28,2.57.58,5.14.87,7.74ZM74.59,5.2c0-.42,0-.84,0-1.26A1.33,1.33,0,0,0,73.2,2.72a1.27,1.27,0,0,0-1.29,1.22,19.42,19.42,0,0,0,0,2.53,1.53,1.53,0,0,0,1.33,1.32,1.57,1.57,0,0,0,1.34-1.32C74.62,6.05,74.59,5.63,74.59,5.2Z"/><path class="cls-1" d="M0,61.21c.14-.63.27-1.26.43-1.88A14.49,14.49,0,0,1,5.5,51.5C3.6,49.84,4,47.63,4.14,45.56a4,4,0,0,1,4.26-3.5A4.07,4.07,0,0,1,12.2,46c0,.79,0,1.59,0,2.38a4.37,4.37,0,0,1-1.4,3.12l.64.58a14.19,14.19,0,0,1,4.82,10.54c0,1.35,0,2.71,0,4.07,0,.46-.12.77-.56.89-1.92.51-2.48,1.78-2.59,3.71C13,74.66,12.42,78,12,81.38H4.24c-.38-3.29-.75-6.59-1.14-9.88-.12-1,0-2.12-.54-2.81S.88,67.75,0,67.31ZM9.63,78.63c.36-3.13.8-6.17,1-9.24.12-1.74.55-3,2.37-3.51.25-.07.51-.56.54-.87a20.82,20.82,0,0,0,0-2.62,11.56,11.56,0,0,0-4.74-9,.91.91,0,0,0-1.32,0,12.06,12.06,0,0,0-4.83,9.8c-.05,1.76.27,2.95,2.1,3.46a1.21,1.21,0,0,1,.62.85c.19,1.11.27,2.24.39,3.36q.44,3.86.87,7.75ZM9.48,47.26c0-.42,0-.85,0-1.26a1.32,1.32,0,0,0-1.37-1.23A1.26,1.26,0,0,0,6.81,46a19.42,19.42,0,0,0,0,2.53,1.54,1.54,0,0,0,1.32,1.34,1.58,1.58,0,0,0,1.36-1.31C9.52,48.11,9.48,47.69,9.48,47.26Z"/><path class="cls-1" d="M69.34,81.38c-.45-4-.91-8-1.33-11.94-.06-.56-.23-.94-.76-1.07-1.9-.48-2.34-1.71-2.19-3.55.16-2,0-4.12.64-6.12.85-2.75,2.06-4.57,4.87-7.21-1.81-1.57-1.44-3.71-1.36-5.74a4.05,4.05,0,0,1,8.06-.11,12.31,12.31,0,0,1,0,3.21,14,14,0,0,1-1.07,2.69l-.23,0a3.68,3.68,0,0,0,.33.35,14.17,14.17,0,0,1,5,9,1.85,1.85,0,0,0,.15.39v6.1c-.7.35-1.4.72-2.11,1a1.2,1.2,0,0,0-.79,1.13c-.42,4-.89,7.94-1.34,11.9Zm5.4-2.73c.41-3.68.8-7.3,1.23-10.91,0-.36.28-.92.54-1,2-.55,2.5-1.88,2.16-3.74a6.43,6.43,0,0,1,0-.76,11.61,11.61,0,0,0-4.79-8.86.88.88,0,0,0-1.25,0,12,12,0,0,0-4.85,9.87c0,1.74.27,2.91,2.06,3.4a1.17,1.17,0,0,1,.66.83c.28,2.18.49,4.37.73,6.56.17,1.53.36,3.06.54,4.6Zm-.15-31.39c0-.42,0-.85,0-1.26a1.32,1.32,0,0,0-1.37-1.23A1.26,1.26,0,0,0,71.92,46a16.44,16.44,0,0,0,0,2.53,1.53,1.53,0,0,0,1.32,1.34,1.56,1.56,0,0,0,1.35-1.31C74.62,48.11,74.59,47.68,74.59,47.26Z"/><path class="cls-1" d="M54.94,20.6l5.85,5.83c-.93,1.53-1.93,3.1-2.85,4.72a1.94,1.94,0,0,0-.11,1.22,3.9,3.9,0,0,0,4,3.45,20.42,20.42,0,0,1,3.32.78c0,2.62,0,5.19,0,7.76,0,.19-.32.49-.54.55-1.64.43-3.3.78-4.93,1.22a1.87,1.87,0,0,0-.9.73,4,4,0,0,0,.35,5.32,19.73,19.73,0,0,1,1.69,2.7l-5.86,5.87c-1.48-.9-3.07-1.91-4.7-2.86a1.79,1.79,0,0,0-1.08-.1,4,4,0,0,0-3.56,4.05,11.64,11.64,0,0,1-.65,2.71.89.89,0,0,1-.65.53c-2.37,0-4.74,0-7.12,0-.49,0-.6-.23-.69-.64-.38-1.65-.76-3.3-1.2-4.93a1.44,1.44,0,0,0-.7-.83c-2.72-1.24-2.73-1.22-5.3.35l-2.83,1.74L20.59,55c.92-1.52,1.87-3.12,2.87-4.68A1.52,1.52,0,0,0,23.58,49a4,4,0,0,0-3.94-3.39,13.79,13.79,0,0,1-2.79-.66c-.23-.07-.55-.36-.55-.55,0-2.57,0-5.14,0-7.76,1.82-.44,3.59-.89,5.37-1.29a1.58,1.58,0,0,0,1.1-.88,4,4,0,0,0-.4-5.19,22.53,22.53,0,0,1-1.78-2.84l5.87-5.81c1.5.92,3.1,1.93,4.73,2.86a1.93,1.93,0,0,0,1.22.1c2.21-.39,3.24-1.76,3.43-4a22.32,22.32,0,0,1,.78-3.28h8.19c.44,1.81.9,3.6,1.3,5.42a1.48,1.48,0,0,0,.85,1,4,4,0,0,0,5.19-.38A21.24,21.24,0,0,1,54.94,20.6Zm-.23,3.33c-1.47.89-2.85,1.72-4.2,2.58a1.2,1.2,0,0,1-1.25.11c-1.53-.67-3.06-1.31-4.62-1.91a1.32,1.32,0,0,1-.89-1.08C43.41,22.1,43,20.57,42.66,19H38.72c-.39,1.61-.73,3.18-1.15,4.73a1.52,1.52,0,0,1-.74.87c-1.57.71-3.17,1.36-4.77,2A1.42,1.42,0,0,1,31,26.53c-1.28-.72-2.51-1.53-3.78-2.27a.87.87,0,0,0-.77,0c-.86.77-1.67,1.59-2.51,2.41.89,1.47,1.71,2.85,2.58,4.21a1.2,1.2,0,0,1,.11,1.25q-1,2.32-1.94,4.69a1.2,1.2,0,0,1-1,.8c-1.57.35-3.12.73-4.68,1.1v3.94c1.61.38,3.18.72,4.73,1.15a1.53,1.53,0,0,1,.87.75c.69,1.54,1.35,3.1,1.94,4.69a1.64,1.64,0,0,1-.09,1.21c-.7,1.26-1.5,2.46-2.22,3.71a.84.84,0,0,0,0,.77c.77.87,1.59,1.67,2.42,2.52,1.44-.88,2.8-1.68,4.12-2.54a1.37,1.37,0,0,1,1.48-.1c1.42.62,2.85,1.24,4.3,1.78a1.49,1.49,0,0,1,1.07,1.23c.32,1.51.71,3,1.07,4.51h4c.38-1.6.72-3.17,1.14-4.72a1.57,1.57,0,0,1,.75-.87q2.31-1.05,4.69-2a1.66,1.66,0,0,1,1.22.09c1.26.7,2.46,1.5,3.7,2.22a.86.86,0,0,0,.78,0c.86-.76,1.67-1.59,2.51-2.41-.85-1.4-1.62-2.71-2.45-4A1.57,1.57,0,0,1,54.85,49c.64-1.38,1.22-2.79,1.75-4.22a1.51,1.51,0,0,1,1.23-1.07c1.51-.32,3-.71,4.51-1.07V38.71c-1.6-.38-3.17-.72-4.72-1.15a1.48,1.48,0,0,1-.87-.74c-.71-1.56-1.37-3.16-2-4.76A1.45,1.45,0,0,1,54.85,31c.72-1.27,1.5-2.52,2.29-3.75a.63.63,0,0,0-.11-.94C56.25,25.55,55.52,24.76,54.71,23.93Z"/><path class="cls-1" d="M62.56,16.68,60.82,18.6a30.09,30.09,0,0,0-40.26,0l-1.71-1.87C29.48,6.13,49.69,4.53,62.56,16.68Z"/><path class="cls-1" d="M60.8,62.76l1.74,1.91c-11.36,11.12-31.48,11.67-43.71,0l1.75-1.93a29.94,29.94,0,0,0,40.22,0Z"/><path class="cls-1" d="M40.72,51.54A10.85,10.85,0,1,1,51.54,40.69,10.86,10.86,0,0,1,40.72,51.54ZM32.55,40.66a8.14,8.14,0,1,0,8.17-8.11A8.16,8.16,0,0,0,32.55,40.66Z"/></g></g></g></svg>