<svg xmlns="http://www.w3.org/2000/svg" viewBox="0 0 85.17 80.97"><defs><style>.cls-1{fill:#e8932e;}</style></defs><g id="Layer_2" data-name="Layer 2"><g id="Layer_1-2" data-name="Layer 1"><g id="FtZZMY.tif"><path class="cls-1" d="M78.34,0a4.58,4.58,0,0,1,3.28,3.42,7.52,7.52,0,0,1,.11,1.5V43.15c0,.46-.06.86.51,1.18a5.35,5.35,0,0,1,2.89,5.58,5.44,5.44,0,0,1-3.78,4.76c-4,1.5-8.1,3-12.14,4.44-5.53,2-11.07,4-16.59,6a20.8,20.8,0,0,1-11.77.68,12.92,12.92,0,0,0-9.71,1.53c-.15.09-.29.2-.49.34.15.24.27.46.42.67.93,1.34.82,1.91-.54,2.87l-8.63,6-4.61,3.22a1.51,1.51,0,0,1-2.48-.46Q7.62,69.82.46,59.58a1.53,1.53,0,0,1,.44-2.5l13.45-9.42c1.08-.75,1.73-.63,2.49.42L18.19,50l.15.1.69-.44q4-2.54,8-5.09a1.37,1.37,0,0,0,.41-.68,2.13,2.13,0,0,0,0-.62c0-12.59,0-25.19,0-37.78,0-2.68.84-4.55,3.43-5.46ZM47.42,11.5H30.3V43.15l.88-.25a28.55,28.55,0,0,1,12.88-1.1c4.37.68,8.73,1.47,13.09,2.25,1.8.32,3.69.38,5.22,1.62.15.13.46.07.7.07h8.84a3.08,3.08,0,0,0,1-.18c2-.68,3.91-1.39,5.87-2.09v-32H61.72v6.94a1.42,1.42,0,0,1-.87,1.43,1.39,1.39,0,0,1-1.63-.33c-.24-.22-.47-.46-.7-.69l-4-4c-1.5,1.51-3,2.95-4.39,4.41a1.57,1.57,0,0,1-1.81.6c-.8-.31-1-1-.94-1.74C47.44,16,47.42,13.76,47.42,11.5ZM28.9,65.3a1.37,1.37,0,0,0,.33-.11A15.8,15.8,0,0,1,41.37,63a16.12,16.12,0,0,0,7.53.19c2.48-.69,4.92-1.58,7.35-2.45q12-4.34,24-8.72a2.84,2.84,0,0,0,2-3.73,2.87,2.87,0,0,0-3.88-1.65q-6.7,2.43-13.4,4.9a1.46,1.46,0,0,0-.76.64,5.78,5.78,0,0,1-6.86,3.46c-2.19-.41-4.39-.78-6.59-1.17L42.33,53l.49-2.8,7.54,1.33c2.69.47,5.38,1,8.08,1.39a2.77,2.77,0,0,0,3.16-2.37,2.84,2.84,0,0,0-2.17-3.22c-.29-.08-.59-.12-.88-.17-1.87-.34-3.75-.68-5.62-1-3.31-.56-6.61-1.28-9.94-1.64-8.87-1-16.29,2.42-23,8.05ZM3.43,58.81c4.39,6.29,8.74,12.51,13.11,18.74l11.7-8.2L15.13,50.61ZM47.37,8.56V2.86H42.5c-3.51,0-7,0-10.54,0-.85,0-1.57.32-1.63,1.18-.11,1.5,0,3,0,4.53ZM61.74,8.5H78.87c0-1.25,0-2.46,0-3.68,0-1.52-.44-2-2-2H62.61c-.28,0-.57,0-.87,0ZM50.33,15.18c1.08-1.12,2-2.08,2.92-3s1.65-1,2.65,0,1.86,1.88,2.9,2.94V2.93H50.33Z"/></g></g></g></svg>