<svg xmlns="http://www.w3.org/2000/svg" viewBox="0 0 84.01 84.01"><defs><style>.cls-1{fill:#e8932e;}</style></defs><g id="Layer_2" data-name="Layer 2"><g id="Layer_1-2" data-name="Layer 1"><g id="FQ7Pxx.tif"><path class="cls-1" d="M39.73,0h4.38c.19.05.39.12.58.15A26.55,26.55,0,0,1,67.57,19.21a5.2,5.2,0,0,0,.21.55l.4,0a14,14,0,0,1,15.44,10.6c.15.61.26,1.24.39,1.87V35c-.05.19-.12.38-.16.58A13.8,13.8,0,0,1,73.61,47.12c-2.19.67-4.45.47-6.69.48-1.74,0-3.48,0-5.15,0-.09.11-.13.13-.13.15,0,1.37,0,2.74,0,4.11a4.15,4.15,0,0,1-3.27,4l-.87.19v5.53h.81c4.63,0,9.27,0,13.91,0a.94.94,0,0,0,1.07-.71,5.5,5.5,0,0,1,5.44-3.49,5.58,5.58,0,0,1,5,3.84c.08.24.2.47.29.7v2.1c-.09.23-.21.46-.29.7a5.59,5.59,0,0,1-5,3.84,5.45,5.45,0,0,1-5.4-3.41c-.27-.69-.64-.79-1.28-.79-5.22,0-10.44,0-15.65,0-1.26,0-1.74-.5-1.75-1.75s0-2.63,0-3.94V56.05H51.86V67.21H62.74c1.15,0,1.65.52,1.67,1.65s0,2.28,0,3.41a.82.82,0,0,0,.64.94,5.56,5.56,0,0,1,3.57,5.39,5.62,5.62,0,0,1-3.93,5.15l-.62.26H62s-.07-.1-.12-.11c-2.77-.94-4.33-2.68-4.41-5.13a5.49,5.49,0,0,1,3.8-5.67.64.64,0,0,0,.36-.4c0-.88,0-1.77,0-2.69H50.8c-1.31,0-1.79-.48-1.79-1.8V56.07H43.46V70.15c3.09,1.33,4.58,3.69,4.07,6.38a5.6,5.6,0,0,1-10.94.52c-.75-2.94.53-5.18,4-6.93v-14H35c0,4.08,0,8.11,0,12.13,0,1.32-.47,1.8-1.78,1.8H22.4c0,.78,0,1.48,0,2.17s.14.84.72,1.07A5.51,5.51,0,0,1,26.6,78.6a5.59,5.59,0,0,1-3.84,5.12c-.24.08-.47.2-.71.29H20s-.07-.1-.11-.11c-2.78-.94-4.28-2.68-4.43-5.12s1.09-4.34,3.8-5.68a.92.92,0,0,0,.38-.65c0-1.14,0-2.27,0-3.41,0-1.37.47-1.83,1.85-1.83H32.16V56.06H29.4c0,2.18,0,4.3,0,6.42,0,1.49-.43,1.93-1.92,1.93-5.21,0-10.43,0-15.65,0a.93.93,0,0,0-1.06.71,5.54,5.54,0,0,1-5.36,3.5A5.6,5.6,0,0,1,.29,64.76c-.08-.24-.19-.47-.29-.7V62a2.53,2.53,0,0,0,.18-.37,5.63,5.63,0,0,1,5.14-4.17,5.52,5.52,0,0,1,5.51,3.65c.2.5.47.55.91.55H25.82c.25,0,.5,0,.75,0V56.08c-3-.59-4.17-2-4.17-5.07V47.6c-2,0-3.92,0-5.81,0A16.77,16.77,0,0,1,.66,35.43c-.27-1-.44-1.92-.66-2.87V29.05a2.08,2.08,0,0,0,.15-.39A16.74,16.74,0,0,1,17.63,14,1.27,1.27,0,0,0,19,13.29,26.12,26.12,0,0,1,35.47.84C36.87.48,38.31.28,39.73,0ZM23.43,32.15a4.89,4.89,0,0,1-1-3.57c0-1.54,0-3.09,0-4.64a4.17,4.17,0,0,1,4.37-4.33H57.23A4.19,4.19,0,0,1,61.61,24c0,1.51,0,3,0,4.55a5,5,0,0,1-1,3.65c1.45,2.43,1.45,8.52,0,11.32.9,1.34.9,1.34,2.5,1.34,2.34,0,4.67,0,7,0a11.19,11.19,0,0,0,4-21.61,10.86,10.86,0,0,0-6.52-.52c-1.54.35-2,.06-2.39-1.43,0-.11-.06-.23-.08-.34a23.63,23.63,0,0,0-21.91-18c-10-.3-17.53,4.12-22.4,12.93-.62,1.12-.94,1.25-2.24,1.16a19.45,19.45,0,0,0-3.66,0,13.94,13.94,0,0,0-1.07,27.46,61.07,61.07,0,0,0,7.05.39c1.14.08,2.05-.07,2.46-1.28,0,0,0-.11,0-.16C22,41.13,22,34.6,23.43,32.15ZM42,30.8H57c1.27,0,1.77-.48,1.78-1.72,0-1.66,0-3.33,0-5,0-1.18-.52-1.68-1.73-1.68q-15.09,0-30.19,0c-1.19,0-1.68.51-1.68,1.72,0,1.6,0,3.21,0,4.81,0,1.42.45,1.86,1.89,1.86ZM42,33.61H27c-1.27,0-1.76.48-1.76,1.73,0,1.63,0,3.26,0,4.9,0,1.26.48,1.76,1.72,1.76H57c1.29,0,1.76-.49,1.77-1.81V35.64c0-1.62-.4-2-2-2Zm0,19.6H57.06c1.25,0,1.74-.5,1.75-1.75,0-1.67,0-3.33,0-5,0-1.14-.52-1.66-1.67-1.66H26.87c-1.15,0-1.65.51-1.66,1.66,0,1.6,0,3.21,0,4.81s.44,1.93,1.93,1.93Zm-36.38,7A2.8,2.8,0,1,0,8.4,63,2.81,2.81,0,0,0,5.63,60.22Zm72.76,5.59a2.83,2.83,0,0,0,2.82-2.76,2.8,2.8,0,1,0-2.82,2.76ZM42,78.41a2.8,2.8,0,1,0-2.82-2.75A2.82,2.82,0,0,0,42,78.41Zm-18.23,0a2.8,2.8,0,1,0-2.73,2.85A2.81,2.81,0,0,0,23.8,78.36Zm42,.08A2.8,2.8,0,1,0,63,81.21,2.82,2.82,0,0,0,65.81,78.44Z"/><path class="cls-1" d="M28,27.94V25.26H44.76v2.68Z"/><path class="cls-1" d="M50.37,25.25v2.69H47.66V25.25Z"/><path class="cls-1" d="M55.94,28H53.28V25.26h2.66Z"/><path class="cls-1" d="M44.77,36.45v2.69H28.06V36.45Z"/><path class="cls-1" d="M47.64,39.14V36.46h2.72v2.68Z"/><path class="cls-1" d="M53.25,39.15v-2.7h2.69v2.7Z"/><path class="cls-1" d="M28.05,50.35v-2.7H44.74v2.7Z"/><path class="cls-1" d="M50.34,50.38H47.66V47.65h2.68Z"/><path class="cls-1" d="M56,47.66v2.68h-2.7V47.66Z"/></g></g></g></svg>