<svg xmlns="http://www.w3.org/2000/svg" viewBox="0 0 74.55 74.55"><defs><style>.cls-1{fill:#e8932e;}</style></defs><g id="Layer_2" data-name="Layer 2"><g id="Layer_1-2" data-name="Layer 1"><path class="cls-1" d="M37.32,15.29a22,22,0,1,0-.07,44h0a22,22,0,1,0,.07-44ZM56.57,38.65A18.78,18.78,0,0,1,54,47l-7.8-2.32.51-6Zm-12.5,0-.48,5.78a58.34,58.34,0,0,0-6.38-.36,54.14,54.14,0,0,0-6.24.36l-.5-5.78ZM30.48,35.89,31,30.13a57.26,57.26,0,0,0,6.35.36,55,55,0,0,0,6.27-.36l.49,5.76Zm15.2-8.75a25,25,0,0,0-3.36-8.58c2.92.5,7.83,3.73,10,6.64A28.35,28.35,0,0,1,45.68,27.14Zm-6.27-8c2,2.4,2.9,5.33,3.63,8.4a50.27,50.27,0,0,1-5.82.34h0a47.26,47.26,0,0,1-5.7-.34l0-.09c.08-.39.16-.75.25-1.1a19.65,19.65,0,0,1,2.28-5.72,9.82,9.82,0,0,1,1.81-2.13,2.07,2.07,0,0,1,1.37-.59,2.49,2.49,0,0,1,1.49.6A4.27,4.27,0,0,1,39.41,19.13Zm-7.22-.52a25.51,25.51,0,0,0-3.32,8.53,27.25,27.25,0,0,1-6.67-1.95A19.76,19.76,0,0,1,32.19,18.61ZM18,35.92a18.8,18.8,0,0,1,2.58-8.37l7.79,2.33-.51,6Zm9.86,2.73.51,6L20.55,47A18.94,18.94,0,0,1,18,38.65Zm1,8.76a25.58,25.58,0,0,0,3.33,8.52,19.63,19.63,0,0,1-10-6.57A27.78,27.78,0,0,1,28.86,47.41Zm3.37,2.35c-.22-.7-.41-1.44-.59-2.15l-.15-.55a34.52,34.52,0,0,1,5.83-.37A35.42,35.42,0,0,1,43,47a21.5,21.5,0,0,1-2,5.78,12.91,12.91,0,0,1-1.76,2.66,2.81,2.81,0,0,1-2,1.16h0a3,3,0,0,1-2.08-1.15A14.84,14.84,0,0,1,32.23,49.76Zm10.12,6.18a25.13,25.13,0,0,0,3.32-8.53,27,27,0,0,1,6.68,1.94A19.61,19.61,0,0,1,42.35,55.94Zm4.36-20-.52-6.12c.3-.08.61-.15.91-.21,1-.23,2-.46,2.94-.75s1.91-.63,2.9-1l1-.36a18.87,18.87,0,0,1,2.64,8.43Z"/><path class="cls-1" d="M69.14,49.42c0-1,0-2.08,0-3.12A1.24,1.24,0,0,0,67.85,45h0a1.28,1.28,0,0,0-1.32,1.27,3.92,3.92,0,0,0,0,.48V53.5a13.05,13.05,0,0,1-13,13H46.54c-1.23,0-1.54.69-1.58,1.27a1.19,1.19,0,0,0,.29.93,1.8,1.8,0,0,0,1.31.45h4.32c1,0,1.93,0,2.76,0a15.81,15.81,0,0,0,9.64-3.41,15.25,15.25,0,0,0,5.4-8.61,26.48,26.48,0,0,0,.5-4.42c0-.65.08-1.33.14-2l0-.44-.22,0Z"/><path class="cls-1" d="M5.39,25c0,1.05,0,2.14,0,3.22a1.67,1.67,0,0,0,.72,1.22.94.94,0,0,0,.52.14,1.28,1.28,0,0,0,.89-.33A2,2,0,0,0,8,28c0-1.64,0-3.31,0-4.92V21.1A13,13,0,0,1,21.09,8h6.85c1.47,0,1.64-.92,1.64-1.32a1.23,1.23,0,0,0-.33-.91A1.78,1.78,0,0,0,28,5.4H23.64L21,5.4a15.56,15.56,0,0,0-15.1,12,28,28,0,0,0-.49,4.36c0,.65-.07,1.32-.13,2l0,.44.21,0C5.39,24.49,5.39,24.73,5.39,25Z"/><path class="cls-1" d="M46.6,8h7.08A13.06,13.06,0,0,1,66.51,21c0,2.33,0,4.7,0,7v.09a1.31,1.31,0,0,0,1.33,1.47h0a1.24,1.24,0,0,0,.93-.36,1.35,1.35,0,0,0,.36-1c0-.94,0-1.89,0-2.82a60.41,60.41,0,0,0-.22-6.71,15.32,15.32,0,0,0-12.28-13,34.82,34.82,0,0,0-4.06-.38c-.6,0-1.22-.06-1.83-.11l-.44,0,0,.18H48.41c-.83,0-1.48,0-2.08,0a1.68,1.68,0,0,0-1.22.74,1.31,1.31,0,0,0,.21,1.41A2.06,2.06,0,0,0,46.6,8Z"/><path class="cls-1" d="M28.25,66.51H21A13,13,0,0,1,8,53.43c0-2,0-4,0-6v-.9c0-1-.49-1.61-1.29-1.61H6.67c-.58,0-1.28.33-1.28,1.57v2.52c0,1.52,0,3.09,0,4.64A15.5,15.5,0,0,0,17,68.55a27.92,27.92,0,0,0,4.7.63c.7,0,1.43.11,2.13.19l.44,0,0-.26h3.95a1.25,1.25,0,0,0,1.37-1.25A1.28,1.28,0,0,0,28.25,66.51Z"/><path class="cls-1" d="M37.33,61.14h0a6.71,6.71,0,0,0-.09,13.41h0a6.75,6.75,0,0,0,4.79-2,6.62,6.62,0,0,0,2-4.76A6.72,6.72,0,0,0,37.33,61.14Zm-.07,10.77A4,4,0,0,1,34.4,70.7a4,4,0,0,1-1.19-2.86,4.08,4.08,0,0,1,4-4.07h0a4.06,4.06,0,0,1,4.06,4.09A4.11,4.11,0,0,1,37.26,71.91Z"/><path class="cls-1" d="M67.84,30.55h0a6.73,6.73,0,0,0,0,13.45h0a6.73,6.73,0,0,0,0-13.45Zm4.07,6.73a4.09,4.09,0,0,1-4.08,4.06h0a4.07,4.07,0,0,1,0-8.13h0A4.07,4.07,0,0,1,71.91,37.28Z"/><path class="cls-1" d="M6.74,44a6.73,6.73,0,0,0,0-13.45h0A6.73,6.73,0,0,0,6.68,44Zm0-2.66a4.08,4.08,0,0,1-4.08-4.05,4,4,0,0,1,1.18-2.88,4.1,4.1,0,0,1,2.91-1.2h0a4.07,4.07,0,0,1,0,8.13Z"/><path class="cls-1" d="M37.28,13.4h0a6.68,6.68,0,1,0-4.78-2A6.67,6.67,0,0,0,37.29,13.4ZM33.21,6.71a4.06,4.06,0,0,1,4-4.08h0a4,4,0,0,1,2.88,1.22,4,4,0,0,1,1.19,2.89,4.07,4.07,0,0,1-8.13,0Z"/></g></g></svg>