<svg xmlns="http://www.w3.org/2000/svg" viewBox="0 0 92.83 92.83"><defs><style>.cls-1{fill:#e8932e;}</style></defs><g id="Layer_2" data-name="Layer 2"><g id="Layer_1-2" data-name="Layer 1"><g id="_0epdI0.tif" data-name="0epdI0.tif"><path class="cls-1" d="M0,81.77V10.88a4.91,4.91,0,0,0,.17-.5,12.26,12.26,0,0,1,9-10C9.71.25,10.3.14,10.88,0h5.44c3,1.22,3.8,2.38,3.8,5.69v16H21q19.16,0,38.33,0a2.09,2.09,0,0,0,1.31-.58Q70,11.76,79.26,2.41A8.79,8.79,0,0,1,82.67,0h1.82a7.38,7.38,0,0,1,3.38,2.28c.84.9,1.71,1.77,2.61,2.62a7.52,7.52,0,0,1,2.35,3.44v1.81a9.08,9.08,0,0,1-2.54,3.55c-2.39,2.34-4.75,4.73-7.11,7.1-.23.22-.43.46-.79.85,2,0,3.74,0,5.51,0a4.58,4.58,0,0,1,4,2,13,13,0,0,1,.88,1.75V89A5.23,5.23,0,0,1,89,92.83H11.24a3,3,0,0,0-.51-.16A12.57,12.57,0,0,1,.44,83.51C.26,82.94.15,82.35,0,81.77Zm20.12-57V66c0,3.35-1.86,5.2-5.22,5.22-1.18,0-2.36,0-3.53.07a9.22,9.22,0,0,0-8.16,10.4,9.58,9.58,0,0,0,9.86,8.09h74.6c1.55,0,2.07-.52,2.07-2.06V26.77c0-1.49-.52-2-2-2-2.54,0-5.08,0-7.61,0a1.89,1.89,0,0,0-1.51.62C74,30,69.41,34.56,64.83,39.17a6,6,0,0,1-3.51,1.91,65.63,65.63,0,0,1-7.12.65c-6.86.09-13.72,0-20.57,0h-1.1v17H69.62v-1c0-2.21,0-4.41,0-6.62a1.54,1.54,0,0,1,1.52-1.59,1.56,1.56,0,0,1,1.55,1.56c0,.12,0,.24,0,.36q0,11.28,0,22.57a4.23,4.23,0,0,1-.11,1.07c-.42,1.52-1.6,2.3-3.47,2.3H39.3a3.46,3.46,0,0,1-1.16-.15,1.38,1.38,0,0,1-1-1.55,1.4,1.4,0,0,1,1.25-1.35,5.43,5.43,0,0,1,1,0H49.45V61.92h-17V82.7c0,.3,0,.61,0,.91A1.47,1.47,0,0,1,31,85.06a1.5,1.5,0,0,1-1.61-1.38,6.88,6.88,0,0,1,0-.91v-41c-1.57,0-3,0-4.46,0a1.54,1.54,0,0,1-1.72-1.47,1.59,1.59,0,0,1,1.71-1.61c.27,0,.54,0,.81,0H51c.24-2.37.45-4.61.71-6.85a6,6,0,0,1,1.9-3.72c1.06-1,2.1-2.1,3.29-3.29ZM3.09,72c1.24-.86,2.39-1.78,3.65-2.51C9.19,68,11.93,68,14.66,68.06c2,0,2.37-.39,2.37-2.39V5.51c0-.28,0-.55,0-.82A1.55,1.55,0,0,0,15.4,3.1c-.84,0-1.69,0-2.54,0-5.8,0-9.77,4-9.77,9.8V72Zm60.3-36L80.05,19.35l-6.47-6.51L56.91,29.51ZM52.64,74.2H69.56V61.93H52.64ZM87.05,12.52c.74-.73,1.49-1.43,2.19-2.18a1.51,1.51,0,0,0,0-2.27c-1.49-1.53-3-3.05-4.55-4.53a1.42,1.42,0,0,0-2-.07c-.84.73-1.6,1.54-2.35,2.27Zm-2.43,2.39L78,8.27l-2,2,6.62,6.64ZM54.76,32.06c-.19,1.81-.39,3.57-.57,5.34-.07.7.23,1.28,1,1.23,1.87-.12,3.74-.36,5.62-.55Z"/></g></g></g></svg>