<svg xmlns="http://www.w3.org/2000/svg" viewBox="0 0 92.83 92.83"><defs><style>.cls-1{fill:#e8932e;}</style></defs><g id="Layer_2" data-name="Layer 2"><g id="Layer_1-2" data-name="Layer 1"><g id="tnpuwT.tif"><path class="cls-1" d="M0,73.79V18a1.83,1.83,0,0,0,.13-.24c1-3.25,3-4.76,6.38-4.76H45.77l.06-.25c-.5-.48-1-.94-1.49-1.43a2.31,2.31,0,0,1,0-3.65c.91-.93,1.82-1.85,2.75-2.75a2.32,2.32,0,0,1,3.59,0,5.14,5.14,0,0,1,.69.71A1.42,1.42,0,0,0,53.66,6a3.12,3.12,0,0,1,.74-.34c1.83-.74,1.87-.74,1.82-2.66A2.76,2.76,0,0,1,58,0h5.44c2.47,1,1.59,3.19,1.82,5a6.56,6.56,0,0,1,1.61.61c1.65,1.16,2.83.74,4-.77a2.16,2.16,0,0,1,3.42,0c1,.94,1.94,1.91,2.88,2.88a2.29,2.29,0,0,1,0,3.52c-.51.54-1,1.06-1.71,1.75h1.23c3.26,0,6.52,0,9.78,0a5.83,5.83,0,0,1,5.16,2.48A15.25,15.25,0,0,1,92.83,18V73.79c-1.66,4-3,4.9-7.4,4.9h-29l1,11.35a.94.94,0,0,1,.33,0c1.48,0,3,0,4.44,0,.9,0,1.61.58,1.47,1.33a4.74,4.74,0,0,1-.84,1.39h-33c-.55-.49-1.11-1-.79-1.83s1-.92,1.78-.9c1.39,0,2.77,0,4.4,0l1-11.41H25.78c-1.42,0-2-.39-2.06-1.32S24.34,76,25.8,76H85.88c.33,0,.66,0,1,0a3.22,3.22,0,0,0,3.22-3.24c0-1.36,0-2.71,0-4.07V67.07H2.72v5.18C2.72,74.72,4,76,6.46,76H18.34c1,0,1.59.53,1.6,1.34a1.38,1.38,0,0,1-1.57,1.37c-4.2,0-8.4,0-12.6,0a5.9,5.9,0,0,1-5.43-4C.24,74.4.12,74.1,0,73.79Zm75.48-44c.58.54,1.25,1.11,1.85,1.75a2.23,2.23,0,0,1,0,3.25c-1,1.06-2,2.08-3.07,3.08a2.24,2.24,0,0,1-3.32,0c-.5-.47-1-1-1.49-1.45a1,1,0,0,0-.82-.15c-1,.35-1.91.75-2.83,1.19a1.08,1.08,0,0,0-.54.73c-.08.68,0,1.39,0,2.08a2.27,2.27,0,0,1-2.36,2.34q-2.13,0-4.26,0a2.29,2.29,0,0,1-2.37-2.33c0-.3,0-.6,0-.91,0-1.69,0-1.68-1.57-2.3-.78-.31-1.61-1-2.29-.87s-1.23,1.09-1.84,1.67a2.27,2.27,0,0,1-3.39,0Q45.67,36.44,44.26,35a2.27,2.27,0,0,1,0-3.51c.59-.6,1.25-1.12,1.75-1.55-.54-1.37-1-2.47-1.43-3.54a1.12,1.12,0,0,0-.75-.54c-.69-.08-1.39,0-2.08,0a2.25,2.25,0,0,1-2.33-2.27c0-.5,0-1,0-1.59H9.78c-1.32,0-1.4.08-1.4,1.37v40c0,.31,0,.63,0,1h76V23.32c0-.25.08-.54,0-.72a1.43,1.43,0,0,0-.72-.64,8.9,8.9,0,0,0-1.64,0c0,.58,0,1,0,1.48a2.26,2.26,0,0,1-2.41,2.38c-.66,0-1.33-.05-2,0a1.08,1.08,0,0,0-.75.53C76.4,27.43,76,28.53,75.48,29.83ZM46.46,33l2.44,2.73c.57-.58,1.09-1.12,1.63-1.65a2.38,2.38,0,0,1,3.12-.46c1.11.53,2.25,1,3.41,1.42A2.39,2.39,0,0,1,59,37.52c0,.77,0,1.55,0,2.3h3.57c0-.82,0-1.58,0-2.33A2.38,2.38,0,0,1,64.35,35c1.18-.43,2.36-.91,3.5-1.44a2.36,2.36,0,0,1,3.11.49c.55.54,1.06,1.12,1.45,1.54l2.71-2.52c-.56-.52-1.13-1-1.66-1.55A2.37,2.37,0,0,1,73,28.41a34.79,34.79,0,0,0,1.38-3.33,2.48,2.48,0,0,1,2.73-2c.72,0,1.43,0,2.16,0V19.57H77a2.45,2.45,0,0,1-2.62-1.9C74,16.49,73.5,15.32,73,14.18a2.39,2.39,0,0,1,.48-3c.55-.55,1.12-1.08,1.63-1.57L72.53,7c-.51.52-1,1.07-1.56,1.6a2.4,2.4,0,0,1-3.12.49c-1.17-.55-2.37-1-3.59-1.48a2.34,2.34,0,0,1-1.74-2.35c0-.81,0-1.62,0-2.47H59c0,.84,0,1.62,0,2.39a2.34,2.34,0,0,1-1.76,2.44c-1.24.47-2.46,1-3.67,1.52a2.31,2.31,0,0,1-2.89-.43c-.58-.57-1.1-1.2-1.61-1.76L46.45,9.42c0,.05,0,.08,0,.1.55.56,1.1,1.12,1.64,1.69a2.38,2.38,0,0,1,.43,2.91q-.82,1.8-1.53,3.66a2.39,2.39,0,0,1-2.43,1.78c-.77,0-1.55,0-2.36,0v3.52h1.25c.39,0,.79,0,1.18,0A2.36,2.36,0,0,1,47,24.85q.7,1.86,1.53,3.66a2.38,2.38,0,0,1-.47,3C47.51,32,46.91,32.54,46.46,33ZM5.66,64.26V23.12c0-2.6,1.31-3.91,3.89-3.91H39.31c.61-2,1.12-2.36,3.16-2.36a9.91,9.91,0,0,1,1.09,0c.89.12,1.15-.33,1.13-1.14-.26,0-.47,0-.68,0H6.39C4,15.68,2.72,17,2.72,19.39v44c0,.29,0,.58,0,.91ZM39.07,78.73l-1,11.34H54.76c-.34-3.8-.67-7.57-1-11.34ZM82.16,19.21h1.21c2.45,0,3.79,1.34,3.8,3.82v41.2h2.94V19.47c0-2.54-1.23-3.79-3.77-3.8H77.55c-.26,0-.52,0-.77.06,0,.92.4,1.24,1.23,1.12a8.17,8.17,0,0,1,1,0C81,16.85,81.55,17.21,82.16,19.21Z"/><path class="cls-1" d="M46.41,70.14c1,0,2,0,3,0a1.34,1.34,0,0,1,1.47,1.36,1.35,1.35,0,0,1-1.42,1.34q-3,0-6,0A1.37,1.37,0,0,1,42,71.51a1.34,1.34,0,0,1,1.47-1.36C44.42,70.13,45.42,70.14,46.41,70.14Z"/><path class="cls-1" d="M31.54,57.17c0,.61,0,1.15,0,1.69a2.08,2.08,0,0,1-2.07,2.19c-1.11.05-2.23.05-3.35,0a2,2,0,0,1-2.05-2.25,1.91,1.91,0,0,0-1.5-2.27,1.59,1.59,0,0,0-2.06.43c-1.27,1.39-2.35,1.35-3.69,0-.62-.62-1.25-1.23-1.86-1.86a2.1,2.1,0,0,1,0-3.2c.35-.37.76-.7,1.14-1.05-.33-.83-.59-1.59-.94-2.31a.87.87,0,0,0-.61-.36c-.42-.06-.85,0-1.27,0a2.05,2.05,0,0,1-2.13-2.12c-.05-1.11-.05-2.23,0-3.35a1.91,1.91,0,0,1,2.09-2c1.43.13,2.17-.36,2.45-1.73a3.55,3.55,0,0,1,.57-1,12.8,12.8,0,0,1-1.4-1.13,2,2,0,0,1,0-3c.73-.77,1.48-1.52,2.24-2.24a2,2,0,0,1,3.1,0,1.92,1.92,0,0,0,2.74.53c.79-.38,1.13-.7,1.1-1.61-.08-2.08.65-2.75,2.75-2.75.79,0,1.57,0,2.36,0a2.14,2.14,0,0,1,2.37,2.35c0,.51,0,1,0,1.52l.28.13c1.38.74,2.63,1.21,3.85-.44a1.76,1.76,0,0,1,2.61.09c.86.79,1.7,1.63,2.49,2.5a1.94,1.94,0,0,1-.19,3,1.89,1.89,0,0,0-.54,2.66c.4.82.75,1.16,1.68,1.12,2-.08,2.69.7,2.69,2.64,0,.85,0,1.69,0,2.54,0,1.48-.81,2.4-2.28,2.3a2,2,0,0,0-2.25,1.53,1.49,1.49,0,0,0,.42,2c1.44,1.35,1.4,2.36,0,3.76-.64.64-1.26,1.3-1.93,1.92a1.91,1.91,0,0,1-3,0c-.9-1-1.75-1.26-2.89-.52A5.5,5.5,0,0,1,31.54,57.17ZM13.92,43.36v2.1h1.3a2.17,2.17,0,0,1,2.43,1.82c.29.82.65,1.62,1,2.41a2.07,2.07,0,0,1-.43,2.78,7.56,7.56,0,0,1-1,.77L18.78,55c.28-.34.5-.63.75-.89,1.15-1.15,1.76-1.22,3.22-.49a20.18,20.18,0,0,0,2.26.92,2.17,2.17,0,0,1,1.74,2.32c0,.47,0,.93,0,1.46h2.07V56.94a2.18,2.18,0,0,1,1.77-2.38c.88-.31,1.73-.7,2.58-1.09a2,2,0,0,1,2.57.37c.39.37.71.79,1,1.11l1.72-1.62a8.32,8.32,0,0,1-1-.76,2.19,2.19,0,0,1-.47-3,25.69,25.69,0,0,0,1-2.5,2.07,2.07,0,0,1,2.15-1.59c.5,0,1,0,1.57,0,0-.45,0-.78,0-1.1s0-.64,0-1H40.47a2.22,2.22,0,0,1-2.58-1.87,21.65,21.65,0,0,0-1-2.33,2.11,2.11,0,0,1,.41-2.79,8.41,8.41,0,0,1,1.11-.81l-1.68-1.67c-.33.36-.66.75-1,1.11a2.09,2.09,0,0,1-2.5.38c-1-.43-1.93-.83-2.91-1.21a2.08,2.08,0,0,1-1.48-2.05c0-.53,0-1.06,0-1.64H26.76c0,.56,0,1,0,1.4A2.22,2.22,0,0,1,25,34.27c-.88.31-1.73.7-2.57,1.08A2.09,2.09,0,0,1,19.82,35c-.39-.36-.76-.73-1.08-1l-1.58,1.53c.33.26.69.5,1,.79a2.19,2.19,0,0,1,.47,3,24.94,24.94,0,0,0-1,2.51,2.1,2.1,0,0,1-2.14,1.6Z"/><path class="cls-1" d="M50.2,21.86a10.83,10.83,0,0,1,1.59-6.11c.57-.92,1.3-1.16,2-.71s.81,1.21.27,2.14a7.84,7.84,0,1,0,7.84-3.56,13,13,0,0,0-3,.13c-1.08.14-1.77-.12-2-.93s.27-1.5,1.36-1.75a10.54,10.54,0,1,1,3.91,20.68C55.79,32.63,50.15,27.68,50.2,21.86Z"/><path class="cls-1" d="M55.27,21.29a5.47,5.47,0,1,1,5.41,5.53A5.48,5.48,0,0,1,55.27,21.29Zm2.72.05a2.75,2.75,0,1,0,2.73-2.78A2.77,2.77,0,0,0,58,21.34Z"/><path class="cls-1" d="M20.6,44.4a7.2,7.2,0,1,1,7.18,7.22A7.21,7.21,0,0,1,20.6,44.4Zm11.66,0a4.47,4.47,0,1,0-4.49,4.5A4.51,4.51,0,0,0,32.26,44.4Z"/></g></g></g></svg>