<svg xmlns="http://www.w3.org/2000/svg" viewBox="0 0 59.88 98.94"><defs><style>.cls-1{fill:#e8932e;}</style></defs><g id="Layer_2" data-name="Layer 2"><g id="Layer_1-2" data-name="Layer 1"><g id="QrCOET.tif"><path class="cls-1" d="M0,57.2A18.78,18.78,0,0,1,.81,55,7.25,7.25,0,0,1,7.55,50.7a7.7,7.7,0,0,1,7.05,4.14c1,1.74,1.75,3.59,2.8,5.39V22.46a6.76,6.76,0,1,1,13.52-.28c0,6.09,0,12.17,0,18.26v1.05c5-1,7.32,0,9.39,4.1a6.73,6.73,0,0,1,7.25.62c2.29,1.71,2.9,4.15,2.66,7a7.6,7.6,0,0,1,4.54-.43,6.6,6.6,0,0,1,5.1,6.08c0,4.72,0,9.47-.37,14.17a45.51,45.51,0,0,1-5.31,17.23,14.49,14.49,0,0,0-2,6.86c0,.93-.66,1.41-1.35,1.85H18.75c-.68-.45-1.34-.94-1.34-1.86A13.34,13.34,0,0,0,15,89.89,164.45,164.45,0,0,1,0,59.52ZM48.34,95c.33-1.2.56-2.34,1-3.42a28.79,28.79,0,0,1,1.48-3.13,42.89,42.89,0,0,0,4.85-15.67c.4-4.51.34-9.06.4-13.6a2.81,2.81,0,0,0-2.88-2.78,2.91,2.91,0,0,0-2.88,2.81c0,1,0,2,0,3a1.92,1.92,0,0,1-1.91,1.91,2,2,0,0,1-1.94-1.89c0-.25,0-.51,0-.77,0-3.22,0-6.44,0-9.66a3,3,0,0,0-1.16-2.53,2.7,2.7,0,0,0-3-.29,2.81,2.81,0,0,0-1.64,2.64c0,2.22,0,4.44,0,6.67a1.89,1.89,0,0,1-1.94,2,1.94,1.94,0,0,1-1.9-1.92c0-.26,0-.52,0-.77,0-3.23,0-6.45,0-9.67a2.89,2.89,0,0,0-1.19-2.51,2.72,2.72,0,0,0-3-.25,2.82,2.82,0,0,0-1.6,2.66c0,3.48,0,7,0,10.44a1.9,1.9,0,0,1-1.89,2,2,2,0,0,1-2-2c0-.29,0-.58,0-.87q0-17.21,0-34.4c0-.35,0-.71,0-1.06a2.93,2.93,0,0,0-2.53-2.65,2.86,2.86,0,0,0-3.07,2,5.84,5.84,0,0,0-.18,1.62q0,22.65,0,45.31a9.38,9.38,0,0,1,0,1.06,1.83,1.83,0,0,1-1.55,1.74,1.75,1.75,0,0,1-2-1c-.31-.56-.59-1.15-.86-1.73-1.85-3.85-3.68-7.72-5.55-11.57a4.11,4.11,0,0,0-5.19-1.91,3.84,3.84,0,0,0-1.89,5A172.21,172.21,0,0,0,17.58,86.78c1.59,2.58,3.22,5.12,3.55,8.25Z"/><path class="cls-1" d="M23.77,0a2.53,2.53,0,0,1,1.38,2.61c-.07,2.25,0,4.5,0,6.74,0,1.38-.8,2.26-2,2.24a2,2,0,0,1-1.89-2.22c0-2.25.05-4.5,0-6.75A2.6,2.6,0,0,1,22.61,0Z"/><path class="cls-1" d="M13.48,9.53c-.44.54-.77,1.28-1.31,1.51a2.24,2.24,0,0,1-1.94-.15c-2-1.86-4-3.83-5.88-5.83a1.81,1.81,0,0,1,.18-2.53,1.88,1.88,0,0,1,2.69,0C9.07,4.35,10.88,6.17,12.67,8A7.28,7.28,0,0,1,13.48,9.53Z"/><path class="cls-1" d="M42.71,3.8a7.72,7.72,0,0,1-.87,1.53c-1.75,1.81-3.52,3.58-5.32,5.34a1.93,1.93,0,1,1-2.71-2.74c1.74-1.77,3.5-3.51,5.26-5.26a1.75,1.75,0,0,1,2.27-.46A7.38,7.38,0,0,1,42.71,3.8Z"/><path class="cls-1" d="M49.7,81.43c-.06.18-.17.58-.32,1a44.64,44.64,0,0,1-5.16,9.35,1.9,1.9,0,0,1-2.75.65A1.88,1.88,0,0,1,41,89.6a45.8,45.8,0,0,0,5-9.12,1.89,1.89,0,0,1,2.26-1.21A2,2,0,0,1,49.7,81.43Z"/><path class="cls-1" d="M52.18,73.83a1.93,1.93,0,0,1-2,1.91,1.93,1.93,0,1,1,.13-3.85A1.94,1.94,0,0,1,52.18,73.83Z"/></g></g></g></svg>