<svg xmlns="http://www.w3.org/2000/svg" viewBox="0 0 88.19 96.39"><defs><style>.cls-1{fill:#e8932e;}</style></defs><g id="Layer_2" data-name="Layer 2"><g id="Layer_1-2" data-name="Layer 1"><g id="JelM7C.tif"><path class="cls-1" d="M49.54,0c2.67.88,5.33,1.78,8,2.64l27.3,8.69c1.41.44,1.72.88,1.72,2.4V51.66c0,1.5-.31,1.91-1.76,2.37q-17.37,5.53-34.74,11a3.85,3.85,0,0,1-2.18,0Q30.5,59.58,13.15,54c-1.48-.47-1.76-.85-1.76-2.46V13.73c0-1.57.29-1.94,1.8-2.42L47.57.37c.29-.1.56-.25.84-.37Zm22,19L65.44,21c-2.32.74-2.32.75-2.32,3.19v7.17L64.38,31c1.24-.37,2.12-.06,2.45.87s-.18,1.82-1.43,2.24l-3,.94c-1.65.51-2.56-.15-2.57-1.87,0-3.1,0-6.21,0-9.32,0-.32,0-.65-.05-1.05-2.84.9-5.57,1.8-8.33,2.62-.71.21-.89.54-.88,1.25,0,7.15,0,14.3,0,21.46a7,7,0,0,1-.09,1.21,1.49,1.49,0,0,1-1.6,1.3,1.47,1.47,0,0,1-1.51-1.28,7.09,7.09,0,0,1-.1-1.22c0-7.15,0-14.3,0-21.46,0-.78-.26-1-1-1.28q-12.14-3.81-24.27-7.7a13,13,0,0,1-1.59-.56,1.49,1.49,0,0,1-.87-1.87,1.48,1.48,0,0,1,1.72-1.14,5.75,5.75,0,0,1,1.09.25c8.57,2.72,17.13,5.46,25.7,8.16a2.94,2.94,0,0,0,1.61,0c1.75-.5,3.47-1.08,5.2-1.64.27-.08.54-.19,1-.37-.39-.14-.53-.2-.67-.24Q40.71,15.62,26.12,11a2.26,2.26,0,0,0-1.26,0c-3.08,1-6.15,2-9.23,2.89a1.13,1.13,0,0,0-1,1.3q0,17.4,0,34.82a1.19,1.19,0,0,0,1,1.37q15.27,4.8,30.53,9.69c.34.11.69.2,1.15.33,0-1.11,0-2.08,0-3s0-2.07.09-3.1A1.43,1.43,0,0,1,49,54a1.47,1.47,0,0,1,1.57,1.32,7.08,7.08,0,0,1,.09,1.22c0,1.61,0,3.23,0,4.93.4-.1.68-.16.94-.25Q67,56.27,82.46,51.37c.68-.21.83-.55.83-1.2q0-16.85,0-33.69V15.36c-.43.12-.76.19-1.09.29-2,.64-4,1.35-6.09,1.9-1.06.28-1.32.78-1.29,1.83.07,3.35,0,6.71,0,10.07,0,.72-.07,1.48-.8,1.77a24.33,24.33,0,0,1-3.66,1.16,1.39,1.39,0,0,1-1.69-1.13,1.48,1.48,0,0,1,.85-1.87c.48-.23,1-.32,1.49-.56a1,1,0,0,0,.52-.7C71.58,25.14,71.57,22.17,71.57,19Zm-3.88-2.21a6.32,6.32,0,0,0-.67-.28q-14.59-4.67-29.18-9.3a1.35,1.35,0,0,0-.73-.1c-2,.59-3.92,1.22-6.08,1.9.33.13.43.18.54.21L61,18.64a1.39,1.39,0,0,0,.72.07C63.67,18.12,65.59,17.5,67.69,16.83ZM42.75,5.33c.32.13.43.19.55.23l29.36,9.33c.21.07.45.19.63.13,2-.6,4-1.24,6.11-1.91A3.1,3.1,0,0,0,79,12.9L49.45,3.5a1.42,1.42,0,0,0-.73-.07C46.78,4,44.85,4.66,42.75,5.33Z"/><path class="cls-1" d="M47.09,96.39a30.4,30.4,0,0,1-4.79-.87c-3.55-1.2-7-2.59-10.54-4-1.84-.71-3.65-1.5-5.53-2.28-.07.29-.14.52-.18.76a1.52,1.52,0,0,1-1.6,1.42q-6.49,0-13,0a1.7,1.7,0,0,1-1.72-1.64H2.87c-.41,0-.82,0-1.23,0a1.61,1.61,0,1,1,0-3.22c2.11,0,4.21,0,6.31,0h1.8c0-.53,0-1,0-1.45,0-1.13.65-1.79,1.63-1.78S13,84,13,85.18c0,1,0,1.94,0,3h9.75V68.66h-9.7c0,.36,0,.69,0,1,0,2.82,0,5.65,0,8.47a1.71,1.71,0,0,1-1.1,1.79,1.62,1.62,0,0,1-2.14-1.66c0-2.29,0-4.58,0-6.87V70.28c-.39,0-.72,0-1,0-2.26,0-4.52,0-6.78,0-1.26,0-2-.61-1.95-1.65S.7,67,1.93,67c2.57,0,5.14,0,7.78,0,.27-1.42,1.25-1.69,2.51-1.67,3.85,0,7.71,0,11.57,0,1.78,0,2.32.53,2.32,2.29,0,5.71,0,11.42,0,17.13A1.2,1.2,0,0,0,27,86.07c4.44,1.79,8.83,3.72,13.3,5.44A24.29,24.29,0,0,0,58.1,91.4c8.23-3.1,16.45-6.25,24.67-9.39a2.88,2.88,0,0,0,2.12-3.14A2.69,2.69,0,0,0,81,76.82c-3.93,1.65-7.86,3.28-11.75,5a17.42,17.42,0,0,1-7.39,1.52c-5.65-.06-11.29,0-16.94,0-1.63,0-2.47-.59-2.43-1.69s.83-1.6,2.43-1.6H63a5.41,5.41,0,0,0,1.4-.11,2.43,2.43,0,0,0,1.73-2.6,2.53,2.53,0,0,0-2.27-2.16c-.65,0-1.32,0-2,0-3.42,0-6.84,0-10.26,0a12.74,12.74,0,0,1-5.83-1.26,36.06,36.06,0,0,0-16.07-3.66c-1.19,0-1.93-.64-1.94-1.6S28.48,67,29.65,67a36.58,36.58,0,0,1,16.16,3.35A15.32,15.32,0,0,0,53,71.92c3.19-.1,6.4.11,9.59-.06,3.49-.18,6.75,1.64,6.88,6.27l2.86-1.19c2.51-1.06,5-2.17,7.53-3.18A5.9,5.9,0,0,1,88,77.94a5.8,5.8,0,0,1-3.1,6.63c-3.18,1.38-6.45,2.57-9.7,3.8-6,2.27-11.94,4.55-17.95,6.71a38.06,38.06,0,0,1-5.13,1.12l-.91.19Z"/><path class="cls-1" d="M21.18,45c0,.82.05,1.63,0,2.44a1.61,1.61,0,0,1-3.21,0c-.07-1.66-.07-3.32,0-5a1.62,1.62,0,0,1,1.65-1.59,1.66,1.66,0,0,1,1.59,1.65,2.72,2.72,0,0,1,0,.28V45Z"/><path class="cls-1" d="M24.49,46.56c0-.81,0-1.62,0-2.44a1.61,1.61,0,0,1,3.21,0q0,2.45,0,4.89a1.61,1.61,0,1,1-3.21,0C24.46,48.19,24.49,47.38,24.49,46.56Z"/></g></g></g></svg>