<svg xmlns="http://www.w3.org/2000/svg" viewBox="0 0 93.02 93.02"><defs><style>.cls-1{fill:#f8a94e;}</style></defs><g id="Layer_2" data-name="Layer 2"><g id="Layer_1-2" data-name="Layer 1"><g id="elbiwP.tif"><path class="cls-1" d="M37.21,77.52h0Z"/><path class="cls-1" d="M92.38,14a7.54,7.54,0,0,0-7-4.67c-2.57-.08-5.15,0-7.92,0,.42-4.31-.26-8-5.18-9.31H70.16c-.3.12-.58.25-.88.35a6.18,6.18,0,0,0-4.16,5.72c0,1,0,2.06,0,3.16H52.67c.42-4.24-.27-8-5.19-9.23H45.35c-.29.12-.58.25-.87.35a6.15,6.15,0,0,0-4.16,5.72c0,1,0,2.06,0,3.23H27.86c.42-4.31-.27-8-5.18-9.3H20.54a.65.65,0,0,1-.22.16c-3.27,1-4.81,3.12-4.82,6.51V9.3H8.41C3.22,9.3,0,12.51,0,17.68V78.43c0,5.18,3.22,8.39,8.4,8.39H45.9c1.68,0,3.36,0,5,0A1.57,1.57,0,0,0,52.7,85.3c0-.94-.67-1.55-1.8-1.58H8.27C5,83.72,3.1,81.83,3.1,78.56V31.06H89.92v4.87q0,10.51,0,21A1.69,1.69,0,0,0,91,58.82c.94.34,1.5-.27,2-.87V15.89A17,17,0,0,0,92.38,14ZM68.22,6.4a3.11,3.11,0,1,1,6.2,0c0,1.48,0,3,0,4.45s0,3,0,4.46a3.1,3.1,0,1,1-6.19,0Q68.2,10.86,68.22,6.4Zm-24.8,0a3.1,3.1,0,1,1,6.19,0c0,1,0,2.09,0,3.14,0,.44,0,.88,0,1.31s0,.84,0,1.25c0,1.1,0,2.2,0,3.3a3.1,3.1,0,1,1-6.19,0Q43.39,10.86,43.42,6.36Zm-24.81,0a3.1,3.1,0,1,1,6.19,0c0,1.48,0,3,0,4.46s0,3,0,4.55a3.1,3.1,0,1,1-6.19,0Q18.58,10.86,18.61,6.35Zm71.3,21.49H3.11c0-3.75,0-7.43,0-11.11a4.45,4.45,0,0,1,4.14-4.28c2.7-.12,5.41,0,8.23,0,0,1,0,2,0,2.92a6.2,6.2,0,1,0,12.4,0V12.45h12.4v2.77a6.21,6.21,0,1,0,12.4,0c0-.9,0-1.8,0-2.76H65.12c0,1,0,2,0,3a6.2,6.2,0,1,0,12.4,0c0-1,0-1.94,0-3h2.13c1.91,0,3.81,0,5.72,0a4.55,4.55,0,0,1,4.52,4.32C90,20.41,89.91,24.09,89.91,27.84Z"/><path class="cls-1" d="M92.85,70.29a20.21,20.21,0,1,0-1,9.27c.53-1.53.8-3.17,1.18-4.75V70.93A3.55,3.55,0,0,1,92.85,70.29ZM73,89.92a17.05,17.05,0,1,1,17-17.07A17.07,17.07,0,0,1,73,89.92Z"/><path class="cls-1" d="M24.8,41.83a3.09,3.09,0,0,0-3.11-3.07c-1,0-2.06,0-3.09,0s-2.07,0-3.1,0a3.06,3.06,0,0,0-3.09,3.07q0,2.32,0,4.65a3.06,3.06,0,0,0,3.05,3.11q3.15.06,6.3,0a3,3,0,0,0,3-3C24.83,45,24.83,43.41,24.8,41.83Zm-3.14,4.63H15.58V41.93h6.08Z"/><path class="cls-1" d="M43.4,41.86a3.06,3.06,0,0,0-3.07-3.09c-2.06,0-4.13,0-6.19,0A3.06,3.06,0,0,0,31,41.91c0,1.51,0,3,0,4.55a3.09,3.09,0,0,0,3.12,3.15c1,0,2.07,0,3.1,0s2.07,0,3.1,0a3.07,3.07,0,0,0,3.07-3.1Q43.45,44.19,43.4,41.86Zm-3.14,4.61H34.18V41.92h6.08Z"/><path class="cls-1" d="M62,41.86a3.06,3.06,0,0,0-3.08-3.09c-2.07,0-4.13,0-6.2,0a3.05,3.05,0,0,0-3.11,3.14q0,2.28,0,4.56a3.09,3.09,0,0,0,3.12,3.14c1,0,2.07,0,3.1,0s2,0,3,0A3.09,3.09,0,0,0,62,46.51Q62.06,44.19,62,41.86Zm-3.15,4.58H52.78V41.9h6.08Z"/><path class="cls-1" d="M80.61,41.9a3.07,3.07,0,0,0-3.13-3.13c-2,0-4.07,0-6.1,0a3,3,0,0,0-3.15,3.1c0,1.55,0,3.1,0,4.65a3.08,3.08,0,0,0,3.08,3.09h6.1a3.08,3.08,0,0,0,3.2-3.16C80.64,44.93,80.64,43.41,80.61,41.9Zm-3.14,4.54H71.39V41.9h6.08Z"/><path class="cls-1" d="M24.8,55.77a3,3,0,0,0-3-3q-3.14-.06-6.29,0a3,3,0,0,0-3.07,3.09q0,2.32,0,4.65a3.08,3.08,0,0,0,3.07,3.1c1,0,2.07,0,3.1,0s2.07,0,3.1,0a3.08,3.08,0,0,0,3.12-3.05Q24.85,58.14,24.8,55.77ZM21.63,60.4H15.55V55.86h6.08Z"/><path class="cls-1" d="M43.4,55.74a3,3,0,0,0-3-3c-2.09,0-4.2,0-6.29,0a3,3,0,0,0-3,3c0,1.58,0,3.17,0,4.75a3.07,3.07,0,0,0,3.09,3.07c1,0,2.07,0,3.1,0s2.13,0,3.2,0a3,3,0,0,0,3-3C43.44,59,43.44,57.35,43.4,55.74ZM40.24,60.4H34.13V55.89h6.11Z"/><path class="cls-1" d="M24.79,69.7a3,3,0,0,0-3-3q-3.15-.06-6.3,0a3,3,0,0,0-3.05,3.11c0,1.54,0,3.09,0,4.64a3.08,3.08,0,0,0,3.09,3.08c1,0,2.06,0,3.1,0s2.07,0,3.1,0a3.08,3.08,0,0,0,3.1-3.06C24.83,72.87,24.83,71.28,24.79,69.7Zm-3.13,4.67H15.58V69.83h6.08Z"/><path class="cls-1" d="M43.4,69.7a3,3,0,0,0-3-3q-3.15-.06-6.3,0a3,3,0,0,0-3,3c0,1.58,0,3.17,0,4.75a3.07,3.07,0,0,0,3.09,3.07c.71,0,1.42,0,2.12,0h2.9l1.27,0a3,3,0,0,0,3-3C43.44,72.93,43.44,71.31,43.4,69.7Zm-3.13,4.65h-6.1V69.82h6.1Z"/><path class="cls-1" d="M60.46,54.26a1.54,1.54,0,0,1-1.64,1.54c-2,0-4,0-6,0V60.4a4.73,4.73,0,0,1,.62.25,1.43,1.43,0,0,1,.82,1.69,1.49,1.49,0,0,1-1.53,1.22,3.08,3.08,0,0,1-3-2.92c-.06-1.64-.05-3.29,0-4.94a3,3,0,0,1,3-3c2.07,0,4.13,0,6.2,0A1.54,1.54,0,0,1,60.46,54.26Z"/><path class="cls-1" d="M84.31,68c0,.35-.42.71-.71,1L71.28,81.31c-1.18,1.17-1.84,1.17-3,0-2-2-4-3.9-5.87-5.91a2.38,2.38,0,0,1-.65-1.68c.17-1.27,1.68-1.59,2.69-.61,1.55,1.51,3.07,3,4.6,4.58.22.22.46.43.73.69l.8-.75Q76,72.22,81.39,66.81c.29-.29.64-.69,1-.72a2.17,2.17,0,0,1,1.55.34A2.22,2.22,0,0,1,84.31,68Z"/></g></g></g></svg>