<svg xmlns="http://www.w3.org/2000/svg" viewBox="0 0 102.12 102.1"><defs><style>.cls-1{fill:#f8a94e;}</style></defs><g id="Layer_2" data-name="Layer 2"><g id="Layer_1-2" data-name="Layer 1"><g id="_5C4kfb.tif" data-name="5C4kfb.tif"><path class="cls-1" d="M101.31,42.16C98.2,26,89.37,13.9,74.94,6A48.05,48.05,0,0,0,54.83.16,4.05,4.05,0,0,1,54.06,0h-6a4.05,4.05,0,0,1-.77.16A47.45,47.45,0,0,0,27.18,6C10.41,15.36,1.28,29.72.1,48.92A46.66,46.66,0,0,0,6,75c9.37,16.73,23.73,25.83,42.89,27A47.37,47.37,0,0,0,75,96.09c14.39-7.92,23.2-20,26.3-36.16.37-2,.54-3.93.81-5.9v-6C101.85,46.09,101.68,44.1,101.31,42.16ZM51.08,97.66A46.62,46.62,0,1,1,97.69,51.05,46.69,46.69,0,0,1,51.08,97.66Z"/><path class="cls-1" d="M76.88,76.9c-1.06,1-2.21.84-3.62-.57Q61.65,64.73,50.05,53.15a3.76,3.76,0,0,1-1.21-2.91c0-3.25,0-6.51,0-9.76,0-3.43,0-6.85,0-10.27a2.19,2.19,0,0,1,3-2.29,2.23,2.23,0,0,1,1.43,2.29v6.18c0,4.29,0,8.57,0,12.86a2,2,0,0,0,.65,1.56Q65.15,62,76.34,73.21C77.78,74.66,78,75.86,76.88,76.9Z"/><path class="cls-1" d="M53.27,13.9c0,1.63-.72,2.59-2,2.68a2.68,2.68,0,0,1-.49,0c-1.29-.16-1.93-1.13-1.9-2.88,0-1.48.74-2.42,2-2.53C52.34,11,53.28,12.06,53.27,13.9Z"/><path class="cls-1" d="M16.58,51.34c-.15,1.27-1.1,1.92-2.77,1.91s-2.51-.71-2.64-2c-.15-1.52.9-2.46,2.74-2.45,1.64,0,2.59.71,2.69,2A2.68,2.68,0,0,1,16.58,51.34Z"/><path class="cls-1" d="M89.85,52.93a3.48,3.48,0,0,1-3.41-.12,2,2,0,0,1-.88-2.15c.18-1.21,1.13-1.83,2.75-1.82s2.58.75,2.66,2A2,2,0,0,1,89.85,52.93Z"/><path class="cls-1" d="M53.27,88.4c0,1.49-.75,2.41-2,2.53-1.52.15-2.45-.9-2.44-2.75,0-1.63.72-2.58,2-2.68a2.68,2.68,0,0,1,.49,0C52.66,85.68,53.3,86.65,53.27,88.4Z"/><path class="cls-1" d="M27.39,25.2a2.23,2.23,0,0,1-2.15,2.17,3.61,3.61,0,0,1-3-3,2.34,2.34,0,0,1,2.17-2.19A3.63,3.63,0,0,1,27.39,25.2Z"/><path class="cls-1" d="M79.9,24.44a3.66,3.66,0,0,1-3,2.93,2.21,2.21,0,0,1-2.2-2.11,3.62,3.62,0,0,1,2.92-3.05A2.34,2.34,0,0,1,79.9,24.44Z"/><path class="cls-1" d="M27.39,76.9a3.61,3.61,0,0,1-3,3,2.34,2.34,0,0,1-2.16-2.2,3.63,3.63,0,0,1,3-3A2.22,2.22,0,0,1,27.39,76.9Z"/></g></g></g></svg>