<svg xmlns="http://www.w3.org/2000/svg" viewBox="0 0 88.57 79.82"><defs><style>.cls-1{fill:#5c8deb;}</style></defs><g id="Layer_2" data-name="Layer 2"><g id="Layer_1-2" data-name="Layer 1"><path class="cls-1" d="M88.55,17.9a2.43,2.43,0,0,0-.2-1C86,11.75,83.53,6.57,81.17,1.36A2,2,0,0,0,79.08,0Q44.3,0,9.51,0a2,2,0,0,0-2.1,1.35C5,6.56,2.61,11.73.23,16.93A2.5,2.5,0,0,0,0,18c0,2.79,0,5.6,0,8.41A7.56,7.56,0,0,0,3.22,32.9a1.61,1.61,0,0,1,.44,1.15q0,21.74,0,43.49c0,.31,0,.61,0,.91a1.19,1.19,0,0,0,1.22,1.22c.33,0,.67,0,1,0H50.62c.38,0,.77.09,1.16.13H73.55a7.64,7.64,0,0,1,1-.13h8.23c1.77,0,2-.25,2-2q0-21.66,0-43.31a1.9,1.9,0,0,1,.84-1.73,6.91,6.91,0,0,0,3-5.7C88.58,23.93,88.56,20.92,88.55,17.9ZM8.43,5.05c.82-2,1.91-2.59,4.08-2.58,21.75.1,43.52.07,65.29,0a1.42,1.42,0,0,1,1.56,1c1.79,4,3.63,7.91,5.45,11.86.15.3.27.61.44,1h-82C5.05,12.53,6.91,8.86,8.43,5.05Zm65.29,14.7q0,3.51,0,7A4.85,4.85,0,1,1,64,26.73q0-3.37,0-6.75c0-.29,0-.59,0-.93h9.58A5.72,5.72,0,0,1,73.72,19.75Zm-12.29-.69c0,2.79,0,5.51,0,8.25a2.47,2.47,0,0,1-.1.53,4.84,4.84,0,0,1-5.4,3.74,4.75,4.75,0,0,1-4.17-4.77c0-2.46,0-4.93,0-7.4a2.54,2.54,0,0,1,.06-.35Zm-12.31.83c0,2.29,0,4.57,0,6.84a4.84,4.84,0,1,1-9.67,0c0-2.28,0-4.56,0-6.84,0-.27,0-.54,0-.86h9.56C49.07,19.37,49.12,19.64,49.12,19.89Zm-22-.84H36.8v5c0,.91,0,1.82,0,2.74a4.71,4.71,0,0,1-4.47,4.84,4.85,4.85,0,0,1-5.2-4.33,6.91,6.91,0,0,1,0-.91C27.1,24,27.11,21.55,27.11,19.05Zm-2.62,8.38a4.72,4.72,0,0,1-4.84,4.19,4.78,4.78,0,0,1-4.79-4.36c-.09-2.71,0-5.41,0-8.19h9.68C24.52,21.9,24.61,24.68,24.49,27.43ZM2.56,27c-.06-2.61,0-5.22,0-7.93h9.67c0,.33,0,.63,0,.92,0,2.28,0,4.56,0,6.85a4.83,4.83,0,0,1-4.83,4.81A4.78,4.78,0,0,1,2.56,27ZM72.05,77H53.18V44.35H72.05Zm10.12.07H74.64V43.67c0-1.59-.32-1.9-1.93-1.9H52.59c-1.71,0-2,.26-2,1.95V77.11H6.29v-43a7.59,7.59,0,0,0,7.23-3.18,7.61,7.61,0,0,0,6.18,3.21,7.38,7.38,0,0,0,6.12-3.21A7.6,7.6,0,0,0,32,34.15,7.46,7.46,0,0,0,38.11,31a7.56,7.56,0,0,0,12.32,0,7.59,7.59,0,0,0,12.29.06A7.58,7.58,0,0,0,75,31a7.62,7.62,0,0,0,7.15,3.14ZM86,26.73a4.86,4.86,0,1,1-9.72-.06c0-2.52,0-5,0-7.62h9.66a4.56,4.56,0,0,1,.08.57C86,22,86.05,24.36,86,26.73Z"/><path class="cls-1" d="M43.66,41.11H13.31c-1.57,0-1.94.36-1.94,1.93V67c0,1.63.34,2,2,2,5,0,10.06,0,15.09,0s10.17,0,15.26,0c1.46,0,1.84-.39,1.84-1.85V43C45.55,41.48,45.17,41.11,43.66,41.11ZM43,66.37H14V43.71H43Z"/></g></g></svg>