<svg xmlns="http://www.w3.org/2000/svg" viewBox="0 0 52.57 84.19"><defs><style>.cls-1{fill:#5c8deb;}</style></defs><g id="Layer_2" data-name="Layer 2"><g id="Layer_1-2" data-name="Layer 1"><g id="dYMjPc.tif"><path class="cls-1" d="M51.09,34.29c2-2.8,2-4.36,0-6.59,1.7-2.35,1.95-4.13.64-5.83-2-2.63-4.48-2-7.07-.63v-1c0-5.07-.06-10.14,0-15.21,0-2.46-.75-4.19-3.14-5H11C9.1.72,7.88,2,7.89,4.12V9.21c-.84,0-1.63,0-2.41,0-1,0-1.53.49-1.54,1.5q0,3.12,0,6.24a1.34,1.34,0,0,0,1.5,1.47H7.88c0,1.73,0,3.39,0,5,0,.18-.25.38-.41.52a10.66,10.66,0,0,0-1.25,1.16A29.07,29.07,0,0,0,.41,38c-.15,1-.28,2-.41,3.08v6.24c.16,1.42.25,2.83.5,4.22A35.58,35.58,0,0,0,4.71,63.75,15.58,15.58,0,0,0,6,65.64,1.32,1.32,0,0,1,6.3,67q-1.56,6-3,12.09a3.94,3.94,0,0,0,4,5.12q8.86,0,17.73,0a5.51,5.51,0,0,0,5.6-4.4c.58-2.35,1.13-4.73,1.66-7.11a1.35,1.35,0,0,1,1-1.16A10.29,10.29,0,0,0,40,65a18.06,18.06,0,0,0,.6-3.54c.1-.7.1-1.42.16-2.13.49-.14,1-.22,1.43-.38a3.87,3.87,0,0,0,2.52-3.61q0-2.18,0-4.35a.75.75,0,0,1,.52-.8c1.46-.61,2.9-1.27,4.34-1.93,3.35-1.49,4-4.62,1.54-7.42a4.51,4.51,0,0,0,1.5-3.25A4.41,4.41,0,0,0,51.09,34.29ZM7.85,15.72H6.62V11.88H7.85ZM37.46,64.07c-1.11,3.37-3.76,5-7.14,5.47a15.4,15.4,0,0,1-2.45,0c-1,0-1.58.42-1.62,1.23s.48,1.32,1.48,1.4l1.84.13a4.34,4.34,0,0,1-.06.64C29,75,28.57,77,28.09,79a3,3,0,0,1-3.16,2.53q-8.79,0-17.58,0c-1.32,0-1.86-.67-1.53-2q1.35-5.46,2.74-10.9a3.15,3.15,0,0,1,.17-.43c3.15,2,6.83,1.8,10.26,2.54a1.3,1.3,0,0,0,.41-2.57c-1.92-.34-3.82-.7-5.75-.93A8.26,8.26,0,0,1,8.09,64a24.93,24.93,0,0,1-4.21-9.36,38.41,38.41,0,0,1-.42-18.3,26.09,26.09,0,0,1,4.9-9.68c.71-1,1.61-.83,2,.31A8.15,8.15,0,0,1,11,29.91c-.18,2.69-.57,5.38-.9,8.23l-.87-.68a1.31,1.31,0,1,0-1.71,2c.82.75,1.71,1.45,2.52,2.23A18.52,18.52,0,0,1,15.83,52,13.15,13.15,0,0,1,15,59.19c-.12.28-.26.55-.35.83a1.3,1.3,0,0,0,.75,1.7,1.25,1.25,0,0,0,1.64-.66c.24-.46.37-1,.62-1.44a.85.85,0,0,1,.56-.41c6.57,0,13.13,0,19.94,0A28.21,28.21,0,0,1,37.46,64.07ZM42,55.3a1.26,1.26,0,0,1-1.27,1.26H19.16l-.69,0a17.37,17.37,0,0,0-.64-7.32,22.14,22.14,0,0,0-4.91-8.35,1.47,1.47,0,0,1-.42-1.32c.38-2.6.74-5.21,1.08-7.81a10.35,10.35,0,0,0-1.19-6.59,3.71,3.71,0,0,0-1.32-1.29,1,1,0,0,1-.57-1c0-6.16,0-12.32,0-18.49,0-1.25.45-1.7,1.67-1.7H40.34c1.27,0,1.71.44,1.71,1.74,0,5.76,0,11.51,0,17.26a1,1,0,0,1-.73,1.08,4.5,4.5,0,0,0-3,3,4.26,4.26,0,0,0,1.27,4.48c-2,2.61-2,4.22,0,6.6-2,2.57-2,4.19,0,6.58A4.43,4.43,0,0,0,42,51.05C42,52.46,42.07,53.89,42,55.3Zm7.1-9.81c-2.06,1-4.16,1.91-6.27,2.8a1.59,1.59,0,0,1-2-.92,1.52,1.52,0,0,1,.54-2c2.13-1,4.32-2,6.49-2.91a.61.61,0,0,1,.26,0,1.66,1.66,0,0,1,1.68,1.24A1.49,1.49,0,0,1,49.13,45.49Zm-7.62-6.78c2.06-1,4.16-1.93,6.27-2.81a1.59,1.59,0,0,1,2,.9,1.51,1.51,0,0,1-.52,2c-2.13,1-4.31,2-6.48,2.92a.66.66,0,0,1-.27,0,1.65,1.65,0,0,1-1.69-1.23A1.49,1.49,0,0,1,41.51,38.71Zm7.62-6.37c-2.06,1-4.16,1.91-6.27,2.79a1.58,1.58,0,0,1-2-.91,1.53,1.53,0,0,1,.54-2c2.13-1,4.32-1.95,6.49-2.91a.9.9,0,0,1,.26,0,1.68,1.68,0,0,1,1.68,1.25A1.49,1.49,0,0,1,49.13,32.34Zm.1-6.65c-2.14,1-4.32,1.95-6.49,2.91a.61.61,0,0,1-.26,0,1.67,1.67,0,0,1-1.69-1.25,1.5,1.5,0,0,1,.74-1.83q3.09-1.48,6.27-2.8a1.58,1.58,0,0,1,2,.92A1.53,1.53,0,0,1,49.23,25.69Z"/><path class="cls-1" d="M27.58,6.58a1.31,1.31,0,0,1-1.39,1.31c-.84,0-1.69,0-2.54,0s-1.7,0-2.55,0a1.32,1.32,0,1,1,0-2.63c1.7,0,3.4,0,5.09,0A1.31,1.31,0,0,1,27.58,6.58Z"/><path class="cls-1" d="M28.9,52.59a1.3,1.3,0,0,1-1.28,1.33c-.47,0-.93,0-1.4,0s-.87,0-1.31,0a1.3,1.3,0,0,1,0-2.6c.9,0,1.81,0,2.72,0A1.27,1.27,0,0,1,28.9,52.59Z"/><path class="cls-1" d="M32.84,6.57c0,.9-.63,1.33-2,1.33s-2-.42-2-1.31.61-1.33,1.94-1.33S32.83,5.66,32.84,6.57Z"/></g></g></g></svg>