<svg xmlns="http://www.w3.org/2000/svg" viewBox="0 0 73.7 74.92"><defs><style>.cls-1{fill:#5c8deb;}</style></defs><g id="Layer_2" data-name="Layer 2"><g id="Layer_1-2" data-name="Layer 1"><g id="Bi3H2a.tif"><path class="cls-1" d="M62.39,7.44H60V6.6a3.79,3.79,0,0,0-4.09-4.11H6.51a3.75,3.75,0,0,0-4,3.93q0,19.83,0,39.64a3.8,3.8,0,0,0,2.8,3.79l-.59,2.3C2.63,51.89.6,49.75.15,47.37c0-.18-.1-.36-.15-.55V5.56c.05-.16.11-.32.14-.47A6.05,6.05,0,0,1,3.44.72a17.18,17.18,0,0,1,2-.72H57.05c.42.12.85.23,1.26.37A6.35,6.35,0,0,1,62.39,7.44Z"/><path class="cls-1" d="M72.84,68.54,62,57.67c-.17-.19-.41-.53-.34-.7.43-1.09.93-2.17,1.45-3.32h1.83V51.17h-1.4a17.43,17.43,0,0,0-1-8.7,2.47,2.47,0,0,1-.09-.86c0-3.61,0-7.21,0-10.83V30H59.94v7.5c-.63-.56-1.36-1.15-2-1.8a1.68,1.68,0,0,1-.43-1c0-3,0-5.95,0-8.92V25H55v8.51c-.7-.33-1.3-.65-1.92-.9a.75.75,0,0,1-.59-.85c.05-1,0-1.9,0-2.84V20.67c0-.3.12-.69-.4-.69H50V31.59l-2.52-.35V22.52H45v8.72l-2.53.35V27.52H40c0,.28,0,.52,0,.75,0,1.2,0,2.4,0,3.59,0,.21-.09.53-.24.6-.69.38-1.43.69-2.27,1.07V26.25H35v.82c0,2.54,0,5.08,0,7.61,0,.24,0,.57-.1.7-.78.78-1.61,1.51-2.42,2.25V28.75H30v.85c0,3.83,0,7.66,0,11.49a12.21,12.21,0,0,1-.34,2.14c-.27,1.42-.64,2.84-.81,4.29a34.71,34.71,0,0,0,0,3.69H12.6v2.48H29.45A17.55,17.55,0,0,0,56.28,63l.55.54L67.58,74.3c.83.82,1.42.83,2.25,0,1-1,2-2,3-3C74,70.15,74,69.68,72.84,68.54ZM46.26,63.66a15,15,0,1,1,14.94-15A15,15,0,0,1,46.26,63.66Zm22.48,8.06L58.33,61.3c.55-.59,1.13-1.25,1.85-2L70.57,69.89Z"/><path class="cls-1" d="M70,55.86a6.58,6.58,0,0,1-1.56,4.44c-.61-.54-1.21-1-1.87-1.64,1-1.08.94-2.4.94-3.72q0-19.09,0-38.18c0-2.81-1.46-4.28-4.28-4.28H14.31c-2.82,0-4.28,1.45-4.28,4.28V55.67c0,2.81,1.47,4.26,4.3,4.26H30V62.4l-.75,0H14.07A6.23,6.23,0,0,1,7.7,57.57a9.92,9.92,0,0,1-.17-1.89v-39c0-3.33,1.8-5.79,4.77-6.52A8.45,8.45,0,0,1,14.18,10H63.33a6.24,6.24,0,0,1,6.61,6.59Q70,36.22,70,55.86Z"/><rect class="cls-1" x="20.08" y="33.74" width="2.39" height="14.92"/><rect class="cls-1" x="25.05" y="37.49" width="2.42" height="11.16"/><rect class="cls-1" x="15.07" y="41.26" width="2.43" height="7.39"/><path class="cls-1" d="M46.25,36.21A12.48,12.48,0,1,0,58.7,48.75,12.46,12.46,0,0,0,46.25,36.21Zm.06,22.44a9.88,9.88,0,0,1-8.71-4.91H54.85A9.8,9.8,0,0,1,46.31,58.65Zm-9.63-7.48c-1.12-2.82-.1-7.6,3.26-10.17v7.65h2.49c0-.24,0-.5,0-.75,0-2.6,0-5.18,0-7.76,0-.57.17-.84.71-1s1.13-.27,1.8-.43v9.9h2.5V38.92c.13-.05.17-.09.21-.08,2.3.31,2.3.31,2.3,2.59v7.21h2.47V41.07c3,1.88,4.54,6.83,3.35,10.1Z"/></g></g></g></svg>