<svg xmlns="http://www.w3.org/2000/svg" viewBox="0 0 59.26 71.15"><defs><style>.cls-1{fill:#5c8deb;}</style></defs><g id="Layer_2" data-name="Layer 2"><g id="Layer_1-2" data-name="Layer 1"><g id="pxJu9A.tif"><path class="cls-1" d="M53,.07A.75.75,0,0,1,52.83,0H6.43A8.24,8.24,0,0,0,2.34,2,7.19,7.19,0,0,0,0,7.06c0,.25,0,.51,0,.77q0,27.74,0,55.5a7.43,7.43,0,0,0,3.68,6.79,7.14,7.14,0,0,0,3.91,1h44a7.38,7.38,0,0,0,7.55-6.23,9.73,9.73,0,0,0,.1-1.79V8.1C59.26,3.7,57.22,1.11,53,.07Zm3.36,63.15c0,3.15-1.81,5-4.94,5H7.83A4.5,4.5,0,0,1,3,64.47,6.68,6.68,0,0,1,3,63.29V7.92C3,4.76,4.76,3,7.9,3H51.37c3.13,0,4.94,1.81,4.94,5Z"/><path class="cls-1" d="M23.68,23.69A14.84,14.84,0,1,0,38.52,38.34,14.86,14.86,0,0,0,23.68,23.69Zm-9.3,22c-2.16-2.3-3.43-7.15-1.72-11.48a11.69,11.69,0,0,1,9.58-7.37V30c0,2.45,0,4.91,0,7.36a1.23,1.23,0,0,1-.28.81c-2.47,2.5-5,5-7.46,7.46A.39.39,0,0,1,14.38,45.7Zm15.41,3a11.75,11.75,0,0,1-13.43-1,3.25,3.25,0,0,0,.64-.43c2.5-2.48,5-5,7.48-7.45a2.27,2.27,0,0,0,.72-1.73c0-3.52,0-7,0-10.56v-.74c4.21.07,8.72,4,10,8.62A11.9,11.9,0,0,1,29.79,48.72Z"/><path class="cls-1" d="M50.35,60.66A1.45,1.45,0,0,1,49,62.24a3.33,3.33,0,0,1-.55,0H10.78c-1.2,0-1.86-.53-1.87-1.48a1.39,1.39,0,0,1,1.28-1.45,7.91,7.91,0,0,1,.84,0H29.7q9.45,0,18.89,0C49.68,59.31,50.29,59.79,50.35,60.66Z"/><path class="cls-1" d="M50.35,25.19a1.46,1.46,0,0,1-1.63,1.48H45.94c-.95,0-1.9,0-2.85,0a1.48,1.48,0,1,1,0-2.94c1.91,0,3.8,0,5.7,0A1.43,1.43,0,0,1,50.35,25.19Z"/><path class="cls-1" d="M50.35,34.12a1.47,1.47,0,0,1-1.66,1.45H43.13a1.48,1.48,0,1,1,0-3h5.63A1.43,1.43,0,0,1,50.35,34.12Z"/><path class="cls-1" d="M50.35,43a1.45,1.45,0,0,1-1.57,1.47c-1.91,0-3.8,0-5.7,0a1.48,1.48,0,1,1,0-3h5.7A1.43,1.43,0,0,1,50.35,43Z"/><path class="cls-1" d="M50.35,51.89a1.45,1.45,0,0,1-1.58,1.47h-5.7a1.51,1.51,0,0,1-1.59-1.49,1.49,1.49,0,0,1,1.61-1.45c.95,0,1.9,0,2.85,0s1.89,0,2.85,0A1.42,1.42,0,0,1,50.35,51.89Z"/></g></g></g></svg>