<svg xmlns="http://www.w3.org/2000/svg" viewBox="0 0 71.6 75.67"><defs><style>.cls-1{fill:#5c8deb;}</style></defs><g id="Layer_2" data-name="Layer 2"><g id="Layer_1-2" data-name="Layer 1"><g id="G7jXuZ.tif"><path class="cls-1" d="M71.53,73.77c-.19-.72-.81-1-1.89-1.07H66.89V36.77c0-3.56,0-7.14,0-10.71,0-2.77-1.6-4.36-4.34-4.37-2.17,0-4.34,0-6.5,0a5.69,5.69,0,0,0-2.07.4,4,4,0,0,0-2.27,4q0,22.79,0,45.58v.93H43.48v-.93q0-12.15,0-24.29C43.48,44.61,41.87,43,39,43H32.67a5.72,5.72,0,0,0-1.24.1,4,4,0,0,0-3.15,4.24v25.3H20.06v-.94c0-4,0-7.94,0-11.9,0-2.8-1.62-4.4-4.4-4.4-2.07,0-4.14.09-6.21,0A4.22,4.22,0,0,0,4.86,60c.11,3.94,0,7.88,0,11.82v.72c-.09.09-.11.12-.13.12-1.06,0-2.11,0-3.17,0s-1.85.89-1.5,1.84c.15.43.64.74,1,1.11H70.52C71.47,75.07,71.75,74.54,71.53,73.77ZM17.08,72.49a.52.52,0,0,1-.06.18H7.88c0-.27,0-.51,0-.74v-12c0-1.25.28-1.53,1.52-1.53h6.49c.84,0,1.24.32,1.24,1.12Q17.11,66,17.08,72.49Zm23.45-.15a3.26,3.26,0,0,1,0,.34H31.24V47.54c0-1.28.29-1.58,1.54-1.58h6.43c.94,0,1.32.36,1.32,1.28Zm23.4-.12c0,.13,0,.25,0,.45H54.68V26.24c0-1.38.21-1.6,1.58-1.6h6.28c1.08,0,1.39.29,1.39,1.35Z"/><path class="cls-1" d="M66.9,9.77a1.5,1.5,0,0,1-2.08,1.6,1.61,1.61,0,0,1-.88-1.65c0-1.23,0-2.46,0-3.69V5.09c-.31.3-.49.46-.66.64Q56.07,12.9,48.9,20.09c-1.41,1.41-1.91,1.4-3.33,0l-4.85-4.87c-.23.23-.45.42-.65.63L15.68,40.2a5.52,5.52,0,0,1-.77.69,1.44,1.44,0,0,1-2-2,4,4,0,0,1,.57-.66q12.9-12.91,25.8-25.81c1.08-1.1,1.76-1.09,2.87,0l5,4.94a.1.1,0,0,0,.07,0C52,12.63,56.81,7.83,61.67,3H57.36c-.35,0-.7,0-1,0a1.49,1.49,0,0,1-1.45-1.49A1.5,1.5,0,0,1,56.35,0h8.57c1.45,0,2,.49,2,1.94C66.9,4.56,66.87,7.16,66.9,9.77Z"/><path class="cls-1" d="M10.61,44.81a1.47,1.47,0,0,1-1.45,1.47A1.45,1.45,0,0,1,7.7,44.83a1.46,1.46,0,1,1,2.91,0Z"/></g></g></g></svg>