<svg xmlns="http://www.w3.org/2000/svg" viewBox="0 0 68.5 61.51"><defs><style>.cls-1{fill:#5c8deb;}</style></defs><g id="Layer_2" data-name="Layer 2"><g id="Layer_1-2" data-name="Layer 1"><g id="E9MUIC.tif"><path class="cls-1" d="M65.59,9.66a36.85,36.85,0,0,0-4.92,3.08c-2.82,2.13-5.53,4.41-8.29,6.64-.17.13-.35.27-.49.4-.77-1.51-1.42-3.06-2.29-4.47C44,6.19,35.88,1,25.19.1A27.84,27.84,0,0,0,5,6.54,12.42,12.42,0,0,0,.21,14a9.93,9.93,0,0,0,3,9.62c1.08,1,2.29,1.83,3.44,2.75A5.69,5.69,0,0,1,9,29.43a4.78,4.78,0,0,1-1.54,5c-.88.76-1.81,1.46-2.73,2.16a10.49,10.49,0,0,0-4.4,6.32A11.43,11.43,0,0,0,3.53,53.58a25.33,25.33,0,0,0,10.41,6.31,27.56,27.56,0,0,0,6.82,1.5,2.11,2.11,0,0,1,.38.12h3.62c1.21-.17,2.41-.3,3.62-.52a30.49,30.49,0,0,0,18.7-11.11,30,30,0,0,0,6.54-15.62,7.17,7.17,0,0,0,.13-1.72,3.28,3.28,0,0,1,1.08-2.65,152.89,152.89,0,0,0,11-13.63c1-1.46,1.8-3.09,2.69-4.65V10.54C67.74,9.32,66.89,9,65.59,9.66ZM47.16,45.38A27.9,27.9,0,0,1,28,58.49,25.71,25.71,0,0,1,6.89,53.24a10.34,10.34,0,0,1-4.11-6A7.51,7.51,0,0,1,5.27,39.4c1.06-.89,2.19-1.69,3.26-2.57,2.81-2.29,3.78-5.35,2.73-8.5a8.06,8.06,0,0,0-2.8-3.75c-.88-.72-1.78-1.41-2.69-2.08A8.13,8.13,0,0,1,4.21,11a17.88,17.88,0,0,1,6.51-5.33A26,26,0,0,1,26,2.67,27.91,27.91,0,0,1,46.54,15.24a56.06,56.06,0,0,1,3.06,5.92c.17.32.1.53-.18.79Q41.79,29,34.18,36.1a1.13,1.13,0,0,1-.62.32c-5,.69-7.68,3.73-8.55,8.57-.19,1.07-.46,2.14-.74,3.18a2.92,2.92,0,0,1-2.78,2.39,1.17,1.17,0,0,0-1.16,1A1.12,1.12,0,0,0,21,52.94c4.34,1.6,8.76,2.33,13.23.65,3.81-1.44,5.93-4.43,7-8.21a4.86,4.86,0,0,1,1.21-2.08c2.67-2.8,5.3-5.65,8-8.48l.59-.62A26.87,26.87,0,0,1,47.16,45.38ZM34.3,39.19c1.53,1.5,3,3,4.52,4.55a.83.83,0,0,1,.12.69c-1.55,5.7-5.6,7.9-11,7.52-.86-.06-1.72-.22-2.73-.34,1.64-1.92,1.86-4.2,2.36-6.37.12-.48.24-1,.37-1.42.82-3,2.9-4.42,5.82-4.84A.72.72,0,0,1,34.3,39.19Zm6.23,2.61c-.17-.14-.28-.23-.37-.32l-4-3.84C45.4,28.78,54.6,20.18,65,12.88,57.78,23.34,49.21,32.6,40.53,41.8Z"/><path class="cls-1" d="M14.43,39.74A5.52,5.52,0,1,0,20,45.27,5.56,5.56,0,0,0,14.43,39.74Zm0,8.5a3,3,0,1,1,3-3A3,3,0,0,1,14.42,48.24Z"/><path class="cls-1" d="M27.59,8.16a5.52,5.52,0,1,0,5.56,5.53A5.59,5.59,0,0,0,27.59,8.16Zm0,8.51a3,3,0,1,1,0-6,3.06,3.06,0,0,1,3,3A3.07,3.07,0,0,1,27.61,16.67Z"/><path class="cls-1" d="M13,12.4A5.5,5.5,0,1,0,18.39,18,5.49,5.49,0,0,0,13,12.4Zm-.14,8.46a3,3,0,1,1,3-2.94A3,3,0,0,1,12.85,20.86Z"/><path class="cls-1" d="M40.14,17a5.51,5.51,0,1,0,5.5,5.55A5.55,5.55,0,0,0,40.14,17Zm0,8.49a3,3,0,0,1-3-3,3,3,0,1,1,3,3Z"/></g></g></g></svg>