<svg xmlns="http://www.w3.org/2000/svg" viewBox="0 0 70.85 73.01"><defs><style>.cls-1{fill:#5c8deb;}</style></defs><g id="Layer_2" data-name="Layer 2"><g id="Layer_1-2" data-name="Layer 1"><g id="hEM6m1.tif"><path class="cls-1" d="M70.76,38.87a34.78,34.78,0,0,1-8.47,20.71A35.16,35.16,0,0,1,51.68,68l-1.48.75,4.52,1c1.34.32,2,1.48,1.28,2.48A4.67,4.67,0,0,1,55,73h-.86l-5.31-1.28c-1.51-.35-3-.67-4.52-1a1.61,1.61,0,0,1-1.1-2.6q2.41-4,4.87-8a1.61,1.61,0,0,1,2-.84,1.49,1.49,0,0,1,1,1.68,3.19,3.19,0,0,1-.39,1c-.77,1.28-1.56,2.55-2.42,4a6,6,0,0,0,.62-.21C58.94,60.8,65.15,52.93,67.12,42A32.05,32.05,0,0,0,41.58,4.91c-2-.38-4.06-.44-6.09-.62a1.59,1.59,0,0,1-1.5-1,1.35,1.35,0,0,1,.29-1.64,2.48,2.48,0,0,1,1.41-.53A32.84,32.84,0,0,1,47.82,3.3,34.92,34.92,0,0,1,67.64,21.74,34.44,34.44,0,0,1,70.76,38.87Z"/><path class="cls-1" d="M37,70.33a1.63,1.63,0,0,1-1.84,1.56,32.43,32.43,0,0,1-8.45-1.09C14.38,67.37,6,59.61,1.82,47.49A35.18,35.18,0,0,1,12.64,9.42,35.94,35.94,0,0,1,19.9,4.69c.21-.1.42-.22.8-.42l-4.5-1C15,3,14.41,2.14,14.69,1.16A1.61,1.61,0,0,1,16.59,0q5.09,1.11,10.14,2.3a1.57,1.57,0,0,1,1,2.42c-1.64,2.72-3.31,5.44-5,8.13a1.6,1.6,0,0,1-2.23.6,1.62,1.62,0,0,1-.46-2.32c.8-1.34,1.63-2.67,2.43-4L22.37,7c-1.3.71-2.65,1.34-3.89,2.13a31.32,31.32,0,0,0-13.79,18C1.42,38.25,3.52,48.47,11,57.36A31.14,31.14,0,0,0,34.06,68.64c.4,0,.81,0,1.21.06C36.37,68.76,37.07,69.4,37,70.33Z"/><path class="cls-1" d="M48.23,20.36a20.56,20.56,0,0,1-.64,2.33q-4.64,15-9.28,30.05a2.07,2.07,0,0,1-1.06,1.52A1.61,1.61,0,0,1,35,52.61a6,6,0,0,1,.17-.67Q40.1,36,45,20.05c.34-1.09,1-1.56,1.89-1.41A1.48,1.48,0,0,1,48.23,20.36Z"/><path class="cls-1" d="M15.52,42H22.6v2.81H11.27a6.26,6.26,0,0,1,2.07-4.91c1.22-1.11,2.56-2.11,3.84-3.17a13.27,13.27,0,0,0,1.45-1.36,2.88,2.88,0,0,0,.62-2.73,2.15,2.15,0,0,0-2-1.68A2.09,2.09,0,0,0,15,32.31a12.43,12.43,0,0,0-.39,1.7h-3A5,5,0,0,1,16,28.24a6.22,6.22,0,0,1,4.45.88,5.34,5.34,0,0,1,.59,8.2c-1,.93-2.2,1.65-3.29,2.49-.8.62-1.56,1.27-2.34,1.91C15.43,41.8,15.48,41.88,15.52,42Z"/><path class="cls-1" d="M33.28,38.52V28.14c-1.05,0-2,0-3,0a1,1,0,0,0-1,.59C27.62,31.5,26,34.32,24.21,37c-.9,1.34-.69,2.68-.71,4.15h6.58v3.63H33.3V41.16h1.83V38.52Zm-3.27,0H25.92C27.29,36.23,28.6,34,30,31.7Z"/><path class="cls-1" d="M58.77,32.12a22.36,22.36,0,0,0-5,11.75c0,.29-.11.59-.17.93H50.24a24.71,24.71,0,0,1,5.83-13.4H47.92V28.54H59.61A4.56,4.56,0,0,1,58.77,32.12Z"/></g></g></g></svg>