<svg xmlns="http://www.w3.org/2000/svg" viewBox="0 0 73.92 75.34"><defs><style>.cls-1{fill:#5c8deb;}</style></defs><g id="Layer_2" data-name="Layer 2"><g id="Layer_1-2" data-name="Layer 1"><g id="_1kl9Js.tif" data-name="1kl9Js.tif"><path class="cls-1" d="M14.82,54.07h0Z"/><path class="cls-1" d="M73.9,13.94a7.14,7.14,0,0,0-.39-2.34,6,6,0,0,0-5.63-4c-2.07,0-4.14,0-6.28,0,0-.92,0-1.76,0-2.6a4.72,4.72,0,0,0-2.2-4.1,11.38,11.38,0,0,0-2-.85H55.75c-.14.06-.27.13-.41.18A4.91,4.91,0,0,0,51.75,4.9c0,.85,0,1.7,0,2.59H41.88V5.93c0-3.47-.9-4.78-4.15-5.93H36c-.13.06-.26.13-.4.18A4.89,4.89,0,0,0,32,4.9c0,.85,0,1.7,0,2.59H22.18V5.93c0-3.47-.92-4.78-4.16-5.93h-1.7c-.13.06-.26.13-.4.18a4.9,4.9,0,0,0-3.59,4.73c0,.85,0,1.7,0,2.64H9.92a42.85,42.85,0,0,0-4.68.1,5.89,5.89,0,0,0-5.12,5,.93.93,0,0,1-.12.27V65c.06.16.12.33.17.5a6.51,6.51,0,0,0,4.37,4.64,6.52,6.52,0,0,0,2.12.24H40c.23,0,.47,0,.69,0a1.19,1.19,0,0,0,1.17-1.12c.14-1-.44-1.49-1.64-1.49H6.65c-2.71,0-4.18-1.47-4.18-4.18V25.16h69V46.22c0,1,.47,1.53,1.23,1.53s1.23-.56,1.23-1.54Q73.93,30.09,73.9,13.94ZM54.22,5.09a2.44,2.44,0,0,1,1.59-2.46,2.21,2.21,0,0,1,2.64.67,3.89,3.89,0,0,1,.65,1.9c.11,1.22,0,2.45,0,3.69s0,2.41,0,3.62a2.46,2.46,0,1,1-4.92,0C54.2,10,54.2,7.56,54.22,5.09Zm-19.72,0a2.45,2.45,0,0,1,1.8-2.56,2.3,2.3,0,0,1,2.66,1,3.84,3.84,0,0,1,.44,1.67c.06,1.23,0,2.46,0,3.7s0,2.35,0,3.53a2.46,2.46,0,1,1-4.92,0C34.48,10.06,34.48,7.59,34.5,5.12ZM14.8,5a2.43,2.43,0,0,1,2.39-2.5,2.37,2.37,0,0,1,2.49,2.31c.07,2.72.06,5.45,0,8.16a2.39,2.39,0,0,1-2.49,2.15,2.48,2.48,0,0,1-2.4-2.34V8.82C14.79,7.54,14.75,6.26,14.8,5ZM71.43,22.61H2.5c0-.27,0-.52,0-.76V14.22c0-2.75,1.47-4.2,4.24-4.2h5.61c0,.87,0,1.68,0,2.49a4.93,4.93,0,1,0,9.85,0c0-.8,0-1.6,0-2.46H32c0,.9,0,1.81,0,2.73a4.91,4.91,0,0,0,9.62,1.27,7.88,7.88,0,0,0,.21-1.82c0-.71,0-1.43,0-2.19h9.87c0,.88,0,1.8,0,2.71a4.9,4.9,0,0,0,7,4.31,4.76,4.76,0,0,0,2.83-4.27c0-.89,0-1.79,0-2.79h6a3.59,3.59,0,0,1,3.81,3.52C71.51,16.54,71.43,19.54,71.43,22.61Z"/><path class="cls-1" d="M57.92,42.68c-8.63-.07-16,7.3-16,16.2a16,16,0,1,0,32,0C73.9,49.94,66.43,42.59,57.92,42.68ZM58,72.88A13.78,13.78,0,0,1,44.35,59.12,13.55,13.55,0,1,1,71.45,59,13.78,13.78,0,0,1,58,72.88Z"/><path class="cls-1" d="M19.69,45.09a2.4,2.4,0,0,0-2.41-2.4c-.82,0-1.64,0-2.46,0s-1.69,0-2.54,0a2.4,2.4,0,0,0-2.41,2.4c0,1.33,0,2.66,0,4a2.41,2.41,0,0,0,2.38,2.37q2.54.06,5.07,0a2.4,2.4,0,0,0,2.38-2.37C19.74,47.75,19.73,46.42,19.69,45.09ZM17.21,49H12.38V45.34h4.83Z"/><path class="cls-1" d="M32.07,42.69c-1.67,0-3.33,0-5,0a2.39,2.39,0,0,0-2.41,2.39c0,1.3,0,2.62,0,3.93a2.43,2.43,0,0,0,2.44,2.45c.83,0,1.65,0,2.47,0s1.64,0,2.47,0A2.43,2.43,0,0,0,34.48,49q0-2,0-3.93A2.4,2.4,0,0,0,32.07,42.69ZM32,49H27.14v-3.6H32Z"/><path class="cls-1" d="M19.62,56a2.28,2.28,0,0,0-2.34-1.94h-5a2.4,2.4,0,0,0-2.41,2.33c-.05,1.33-.06,2.66,0,4a2.38,2.38,0,0,0,2.37,2.43q2.54.06,5.07,0A2.1,2.1,0,0,0,19.54,61,29.55,29.55,0,0,0,19.62,56Zm-2.43,4.17H12.36V56.58h4.83Z"/><path class="cls-1" d="M34.39,56a2.27,2.27,0,0,0-2.31-1.89c-.84,0-1.69,0-2.53,0s-1.69,0-2.54,0a2.4,2.4,0,0,0-2.35,2.3c-.05,1.33-.05,2.67,0,4a2.4,2.4,0,0,0,2.42,2.46c1.67,0,3.34,0,5,0A2.12,2.12,0,0,0,34.32,61,30.41,30.41,0,0,0,34.39,56ZM32,60.2H27.14V56.6H32Z"/><path class="cls-1" d="M19.7,33.83a2.42,2.42,0,0,0-2.42-2.39c-1.67,0-3.33,0-5,0a2.4,2.4,0,0,0-2.41,2.4c0,1.31,0,2.62,0,3.92a2.44,2.44,0,0,0,2.45,2.45c.8,0,1.59,0,2.39,0s1.74,0,2.61,0a2.42,2.42,0,0,0,2.38-2.36C19.74,36.51,19.73,35.16,19.7,33.83Zm-2.51,3.86H12.35V33.94h4.84Z"/><path class="cls-1" d="M32,31.43c-1.62,0-3.23,0-4.85,0a2.43,2.43,0,0,0-2.5,2.48c0,1.28,0,2.57,0,3.84a2.44,2.44,0,0,0,2.44,2.46c.83,0,1.65,0,2.47,0s1.64,0,2.47,0a2.43,2.43,0,0,0,2.45-2.44c0-1.28,0-2.57,0-3.85A2.43,2.43,0,0,0,32,31.43Zm0,6.27H27.15V33.94H32Z"/><path class="cls-1" d="M46.76,31.43c-1.62,0-3.23,0-4.85,0a2.43,2.43,0,0,0-2.48,2.5c0,1.25,0,2.51,0,3.77A2.46,2.46,0,0,0,42,40.21h4.77a2.45,2.45,0,0,0,2.52-2.53c0-1.24,0-2.47,0-3.71A2.45,2.45,0,0,0,46.76,31.43Zm0,6.26H41.94V33.94h4.84Z"/><path class="cls-1" d="M61.5,31.43c-1.59,0-3.17,0-4.76,0A2.44,2.44,0,0,0,54.21,34c0,1.23,0,2.47,0,3.7a2.46,2.46,0,0,0,2.59,2.55h4.69a2.45,2.45,0,0,0,2.56-2.57c0-1.21,0-2.42,0-3.62A2.46,2.46,0,0,0,61.5,31.43Zm.06,6.26H56.72V33.94h4.84Z"/><path class="cls-1" d="M48,43.91a1.46,1.46,0,0,1-1.27,1.38H41.92v3.62c.14.06.31.12.46.2a1.14,1.14,0,0,1,.69,1.39,1.19,1.19,0,0,1-1.24,1,2.43,2.43,0,0,1-2.38-2.27c-.06-1.41-.06-2.83,0-4.23a2.33,2.33,0,0,1,2.22-2.26c1.71-.06,3.43,0,5.15,0A1.2,1.2,0,0,1,48,43.91Z"/><path class="cls-1" d="M66.57,55.78l0,0-9.81,10c-1,1-1.51,1-2.56,0s-2.36-2.35-3.52-3.54a18.58,18.58,0,0,1-1.32-1.48,1.18,1.18,0,0,1,.06-1.67,1.14,1.14,0,0,1,1.66,0c.74.67,1.44,1.38,2.13,2.1s1.44,1.58,2.28,2.5c.89-1,1.68-1.88,2.52-2.73q3.4-3.45,6.84-6.86c.7-.69,1.4-.75,2-.18S67.22,55.1,66.57,55.78Z"/></g></g></g></svg>