<svg xmlns="http://www.w3.org/2000/svg" viewBox="0 0 72.19 82.25"><defs><style>.cls-1{fill:#5c8deb;}</style></defs><g id="Layer_2" data-name="Layer 2"><g id="Layer_1-2" data-name="Layer 1"><g id="UoJxC9.tif"><path class="cls-1" d="M68.25.42A4.54,4.54,0,0,0,66.32,0Q36.13,0,5.93,0A6,6,0,0,0,.06,5.4,9.65,9.65,0,0,0,0,6.6Q0,32.37,0,58.16c0,3,1.65,5.08,4.41,5.54a5.71,5.71,0,0,0,1.43,0A1.15,1.15,0,0,0,7,62.53a1.19,1.19,0,0,0-1.19-1.16,7.54,7.54,0,0,1-1.72-.28,2.5,2.5,0,0,1-1.62-2.2c0-.33,0-.65,0-1q0-25.54,0-51.08a6.46,6.46,0,0,1,.24-2A3.86,3.86,0,0,1,6.82,2.28a3.93,3.93,0,0,1,3.4,3.62c0,.4,0,.8,0,1.2V77.86c0,2.24.5,2.87,2.67,3.4,1.29.32,2.57.66,3.86,1h1.28a13.42,13.42,0,0,1,10.6,0h1.29c1.73-.43,3.46-.89,5.19-1.28a2.46,2.46,0,0,1,1.09.16c1.45.36,2.88.75,4.33,1.12h1.28c1.73-.43,3.45-.89,5.19-1.28a2.68,2.68,0,0,1,1.1.16c1.44.36,2.87.75,4.31,1.12h1.29a14,14,0,0,1,10.75,0H65.6l4.34-1.1a2.5,2.5,0,0,0,2.25-2.83V6.68A6.39,6.39,0,0,0,68.25.42ZM69.78,78.7a43.83,43.83,0,0,1-4.62,1.06,5.67,5.67,0,0,1-2.42-.49,10.59,10.59,0,0,0-7.28,0,6.43,6.43,0,0,1-4.61,0,10.34,10.34,0,0,0-7.35,0,6.37,6.37,0,0,1-4.53,0,10.4,10.4,0,0,0-7.37,0,6.53,6.53,0,0,1-4.59,0c-.26-.09-.54-.11-.78-.19a8.13,8.13,0,0,0-5.73,0,8.85,8.85,0,0,1-6.25,0,12.58,12.58,0,0,0-1.61-.41V77.54q0-35.19,0-70.36A7.5,7.5,0,0,0,11.33,2.3c.34,0,.56,0,.78,0H65.28a4.16,4.16,0,0,1,4.5,4.51Z"/><path class="cls-1" d="M50.09,46.38A1.11,1.11,0,0,1,49,47.55a5.77,5.77,0,0,1-.72,0H18.43a5.79,5.79,0,0,1-.72,0,1.2,1.2,0,0,1,0-2.38,4.36,4.36,0,0,1,.72,0H48.32a4.42,4.42,0,0,1,.73,0A1.12,1.12,0,0,1,50.09,46.38Z"/><path class="cls-1" d="M50.09,56.3a1.1,1.1,0,0,1-.89,1.25,4.3,4.3,0,0,1-1,.07c-5,0-9.92,0-14.86,0H18.61c-.24,0-.49,0-.72,0a1.24,1.24,0,0,1-1.28-1.27,1.18,1.18,0,0,1,1.3-1.13c2,0,4,0,6,0H48.19a6.68,6.68,0,0,1,.89,0A1.07,1.07,0,0,1,50.09,56.3Z"/><path class="cls-1" d="M50.09,36.25a1.1,1.1,0,0,1-1,1.24,5.14,5.14,0,0,1-.88,0H18.52a4.53,4.53,0,0,1-1-.09,1.09,1.09,0,0,1-.87-1.18,1.1,1.1,0,0,1,1-1.11,6.05,6.05,0,0,1,.95,0H48.16c.28,0,.58,0,.88,0A1.1,1.1,0,0,1,50.09,36.25Z"/><path class="cls-1" d="M50.11,66.44c0,.74-.54,1.2-1.47,1.2-3.9,0-7.82,0-11.72,0H18.46a4.3,4.3,0,0,1-.8,0,1.19,1.19,0,0,1-.1-2.34,3.69,3.69,0,0,1,.88,0H48.62C49.55,65.25,50.1,65.7,50.11,66.44Z"/><path class="cls-1" d="M24.44,15.25l.28-.24a3.28,3.28,0,0,0,.88-3.53,2.4,2.4,0,0,0-2.41-1.87c-1.41-.09-2.82-.09-4.25-.08-.62,0-.93.32-.93,1q0,5.25,0,10.5c0,.7.32,1,.95,1A35.56,35.56,0,0,0,23.23,22a3.63,3.63,0,0,0,2.05-1A4,4,0,0,0,24.44,15.25Zm-4.12-3.77c.66,0,1.3,0,1.92,0a1.28,1.28,0,0,1,1.27,1.45,1.27,1.27,0,0,1-1.28,1.43c-.61,0-1.22,0-1.91,0Zm3.23,7.87c-.78,1.3-2.11.55-3.26.77v-4c1.1.13,2.33-.45,3.17.57A2.27,2.27,0,0,1,23.55,19.35Z"/><path class="cls-1" d="M61,15.26a8.82,8.82,0,0,1-.93-.45.74.74,0,0,1-.36-.5c0-.85,0-1.7,0-2.69a10.26,10.26,0,0,1,1.36.46c.6.27,1.08.29,1.41-.37a1,1,0,0,0-.6-1.49A15,15,0,0,0,60,9.72c-.39-.36-.69-.82-.9-.78s-.56.47-.82.74a2.61,2.61,0,0,1-.83.36,3.05,3.05,0,0,0-2.25,2.65,3,3,0,0,0,1.74,3.22c.37.19.79.33,1.16.53.17.08.38.28.39.42,0,1,0,2,0,3.32-.79-.45-1.37-.82-2-1.12-.3-.15-.79-.33-1-.19a1.4,1.4,0,0,0-.58,1A1.54,1.54,0,0,0,55.52,21a29.84,29.84,0,0,0,2.82,1.26c.2.19.51.66.71.62s.53-.48.79-.74L59.72,22l.54-.15a3.4,3.4,0,0,0,2.6-3A3.34,3.34,0,0,0,61,15.26Zm-2.41-1c-.74-.21-1.32-.52-1.29-1.33s.59-1,1.29-1.12Zm1,5.74V17c.78.33,1.28.77,1.24,1.62S60.28,19.78,59.54,20Z"/><path class="cls-1" d="M39,21.08c0,.7-.33,1-1,1-1.64,0-3.27,0-4.9,0-.94,0-1.13-.21-1.13-1.15q0-5.1,0-10.2c0-.89.29-1.17,1.12-1.17s1.09.27,1.11,1.17V20.1c1.35,0,2.58,0,3.81,0C38.71,20.07,39,20.41,39,21.08Z"/><path class="cls-1" d="M47.32,21.06c0,.7-.3,1-1,1-1.61,0-3.21,0-4.81,0-1.06,0-1.24-.19-1.24-1.21V10.72c0-.9.27-1.19,1.1-1.2s1.13.28,1.13,1.22V20.1c1.32,0,2.55,0,3.78,0C47,20.07,47.31,20.33,47.32,21.06Z"/><path class="cls-1" d="M29.89,10.54c0,3.49,0,7,0,10.5,0,.73-.33,1-1.13,1s-1.09-.25-1.09-1c0-1.76,0-3.53,0-5.29s0-3.47,0-5.21c0-.74.33-1,1.11-1S29.89,9.8,29.89,10.54Z"/><path class="cls-1" d="M63.65,46.34c0,.72-.53,1.21-1.39,1.22H54.8c-.86,0-1.4-.5-1.39-1.22a1.23,1.23,0,0,1,1.35-1.18c2.52,0,5,0,7.55,0A1.22,1.22,0,0,1,63.65,46.34Z"/><path class="cls-1" d="M63.65,56.4a1.27,1.27,0,0,1-1.4,1.22c-1.25,0-2.51,0-3.77,0s-2.4,0-3.6,0c-.92,0-1.48-.52-1.47-1.24s.56-1.16,1.45-1.16h7.37C63.11,55.22,63.65,55.69,63.65,56.4Z"/><path class="cls-1" d="M63.65,36.34a1.26,1.26,0,0,1-1.43,1.19q-3.69,0-7.37,0a1.27,1.27,0,0,1-1.44-1.19c0-.73.55-1.21,1.48-1.22,1.23,0,2.45,0,3.68,0s2.41,0,3.62,0C63.11,35.13,63.68,35.61,63.65,36.34Z"/></g></g></g></svg>