<svg xmlns="http://www.w3.org/2000/svg" viewBox="0 0 84.89 74.92"><defs><style>.cls-1{fill:#5c8deb;}</style></defs><g id="Layer_2" data-name="Layer 2"><g id="Layer_1-2" data-name="Layer 1"><g id="TFTwrq.tif"><path class="cls-1" d="M84.3,20.26a7.28,7.28,0,0,0-7.22-4.42q-23.08,0-46.17,0l-1,0A7.14,7.14,0,0,0,23.08,23q-.07,15,0,30a6.94,6.94,0,0,0,3.53,6.11,7.71,7.71,0,0,0,4.21,1c10.61,0,21.21,0,31.82,0A2.49,2.49,0,0,1,64.9,61.1C66,62.6,67.17,64,68.32,65.47c2.22,2.81,4.44,5.64,6.68,8.45,1,1.25,2.61,1.36,3.46.16A3.18,3.18,0,0,0,79,72.39Q79,66.68,79,61c0-.72.15-1,.89-1.27a7.06,7.06,0,0,0,4.88-5.28,4.84,4.84,0,0,1,.17-.54V22A15.46,15.46,0,0,0,84.3,20.26ZM82.4,52.39a4.74,4.74,0,0,1-4.55,5.18c-1,.12-1.37.52-1.37,1.69q0,5.68,0,11.35v.88l-.19.05-9-11.43c-.19-.24-.39-.47-.57-.72a4.15,4.15,0,0,0-3.76-1.83c-8.89,0-17.79,0-26.69,0H30.6a4.75,4.75,0,0,1-5.06-5.1v-29a4.76,4.76,0,0,1,5.11-5.14H77.3a4.75,4.75,0,0,1,5.1,5.15Z"/><path class="cls-1" d="M54.13,11.19a1.23,1.23,0,1,1-2.45,0c0-1.45,0-2.88,0-4.31A4,4,0,0,0,47.32,2.5H6.87A4,4,0,0,0,2.49,6.88V32.06a4,4,0,0,0,3.8,4.28,1.31,1.31,0,0,1,1.34,1.53q0,4.77,0,9.53v1l2.59-3.28q2.88-3.65,5.75-7.28a3.42,3.42,0,0,1,2.24-1.44,1.25,1.25,0,0,1,1.48.89,1.32,1.32,0,0,1-.86,1.5,3,3,0,0,0-1,.77C14.89,43.26,12,47,9.06,50.61a3,3,0,0,1-1.5,1.06,2,2,0,0,1-2.41-2.11c0-3.28,0-6.57,0-9.85v-1a2.3,2.3,0,0,0-.39-.14A6.47,6.47,0,0,1,0,32.18Q0,19.54,0,6.91A6.46,6.46,0,0,1,5.42.11.76.76,0,0,0,5.64,0H48.58A15.64,15.64,0,0,1,50.5.69a6.07,6.07,0,0,1,3.57,5.13C54.21,7.6,54.15,9.41,54.13,11.19Z"/><path class="cls-1" d="M74.93,28.08a1.17,1.17,0,0,1-1.07,1.09,5.75,5.75,0,0,1-.83,0H34.91a5.75,5.75,0,0,1-.83,0A1.17,1.17,0,0,1,33,28.07a1.12,1.12,0,0,1,.84-1.27,3.55,3.55,0,0,1,1-.09q19.14,0,38.28,0a3.43,3.43,0,0,1,.91.06A1.16,1.16,0,0,1,74.93,28.08Z"/><path class="cls-1" d="M74.93,46.85a1.12,1.12,0,0,1-.84,1.26,3.21,3.21,0,0,1-1,.1H34.83a3.17,3.17,0,0,1-.82-.06,1.22,1.22,0,0,1,.17-2.42,7.66,7.66,0,0,1,.83,0H73a5.89,5.89,0,0,1,.84,0A1.14,1.14,0,0,1,74.93,46.85Z"/><path class="cls-1" d="M74.94,37.48c0,.84-.59,1.21-1.89,1.21H35a7,7,0,0,1-.91,0,1.21,1.21,0,0,1,0-2.41,4.68,4.68,0,0,1,.84,0H73C74.35,36.21,75,36.61,74.94,37.48Z"/></g></g></g></svg>