<svg xmlns="http://www.w3.org/2000/svg" viewBox="0 0 85.71 84.33"><defs><style>.cls-1{fill:#5c8deb;}</style></defs><g id="Layer_2" data-name="Layer 2"><g id="Layer_1-2" data-name="Layer 1"><g id="Ww6zyN.tif"><path class="cls-1" d="M81.67,57.55c-8.11.06-16.24,0-24.35,0h-1v-6.2H74a2.85,2.85,0,0,0,3.2-3.21V3.24C77.15,1.08,76.06,0,73.88,0H27.11a3.62,3.62,0,0,0-.74,0A1.17,1.17,0,0,0,25.28,1.3a1.15,1.15,0,0,0,1.14,1.2,7,7,0,0,0,.92,0H73.62c.68,0,1,.06,1,.92q0,22.26,0,44.52c0,.74-.23.92-1,.92q-30.91,0-61.84,0c-.8,0-1-.26-1-1q0-22.17,0-44.34c0-.8.19-1,1-1,2.93,0,5.86,0,8.79,0h.59c.9,0,1.46-.52,1.45-1.27A1.29,1.29,0,0,0,21.33,0h-9.7C9.48,0,8.4,1.09,8.4,3.27V48.11c0,2.2,1.07,3.26,3.31,3.26H29.22v6.2h-1q-12.26,0-24.51,0C1.26,57.59,0,58.82,0,61.24c0,6.33.05,12.66,0,19,0,2,.62,3.4,2.53,4.1H19.61s.05-.1.09-.12a1.22,1.22,0,0,0,.67-1.54,1.32,1.32,0,0,0-1.45-.87c-5.08,0-10.15,0-15.23,0-1,0-1.15-.14-1.16-1.17V61.32c0-1.11.12-1.23,1.26-1.23q39.08,0,78.13,0c1.17,0,1.27.11,1.27,1.31V80.29c0,1.51,0,1.52-1.47,1.52H25a2.3,2.3,0,0,0-.91,0c-.39.21-.89.48-1,.84s.13.86.29,1.28c.05.15.26.25.41.37h59.4a3.92,3.92,0,0,0,2.51-2.51V60.06C85,58.17,83.62,57.54,81.67,57.55Zm-28,0H31.83v-6.1H53.69Z"/><path class="cls-1" d="M83.2,84.33a4,4,0,0,0,2.51-2.51v2.51Z"/><path class="cls-1" d="M69.42,5.78H16.05c-1.6,0-1.89.29-1.89,1.92v36c0,1.64.31,2,2,2H69.41c1.66,0,2-.3,2-1.93q0-18,0-36C71.36,6.05,71.1,5.78,69.42,5.78ZM68.8,43H16.74V8.34H68.8Z"/><path class="cls-1" d="M61.14,70.89a1.13,1.13,0,0,1-1,1.26,4.8,4.8,0,0,1-1,.06H15.52a5.45,5.45,0,0,1-.91,0,1.15,1.15,0,0,1-1.06-1.28,1.12,1.12,0,0,1,1.09-1.16,7.07,7.07,0,0,1,.92,0H59.12a6.77,6.77,0,0,1,1,0A1.13,1.13,0,0,1,61.14,70.89Z"/><path class="cls-1" d="M73.49,66.06A4.9,4.9,0,1,0,78.38,71,4.87,4.87,0,0,0,73.49,66.06Zm0,7.28A2.39,2.39,0,1,1,75.87,71,2.36,2.36,0,0,1,73.5,73.34Z"/></g></g></g></svg>