<svg xmlns="http://www.w3.org/2000/svg" viewBox="0 0 44.54 36.59"><defs><style>.cls-1{fill:#5c8deb;}</style></defs><g id="Layer_2" data-name="Layer 2"><g id="Layer_1-2" data-name="Layer 1"><g id="Xrnnl0.tif"><path class="cls-1" d="M24.84,23.53Q19.61,28.82,14.3,34.07a8.29,8.29,0,0,1-11.7.2A8.08,8.08,0,0,1,.1,29.48c0-.14-.06-.28-.1-.42V27.41c.12-.55.22-1.1.38-1.64a8.3,8.3,0,0,1,2.15-3.52L13.07,11.72a8.49,8.49,0,0,1,4.14-2.33,1.58,1.58,0,0,1,2,1.12,1.53,1.53,0,0,1-1.15,1.93A6.56,6.56,0,0,0,15,14.29c-3.39,3.42-6.82,6.83-10.22,10.24a5.14,5.14,0,0,0-.6,6.83,5.06,5.06,0,0,0,7.49.8c3.82-3.68,7.55-7.46,11.27-11.26a4.81,4.81,0,0,0,1.18-4.48A3,3,0,0,1,24,15.34a1.52,1.52,0,0,1,1.52-1.23,1.55,1.55,0,0,1,1.56,1.24A8.26,8.26,0,0,1,24.84,23.53Z"/><path class="cls-1" d="M42.37,13.86c-1.13,1.3-2.41,2.47-3.63,3.69L31.4,24.89a8.79,8.79,0,0,1-4.1,2.33,1.57,1.57,0,0,1-1.7-.46,1.49,1.49,0,0,1-.31-1.58,1.39,1.39,0,0,1,1-1,6.75,6.75,0,0,0,3.34-2.06c3.33-3.36,6.7-6.69,10-10a5.15,5.15,0,0,0-7-7.59c-.95.87-1.84,1.8-2.75,2.72l-8,8a5.25,5.25,0,0,0-1.55,5.18,1.6,1.6,0,1,1-3.11.63c-.05-.28-.13-.56-.17-.85a8.3,8.3,0,0,1,1.51-5.95,10,10,0,0,1,1-1.22q5.2-5.23,10.44-10.45A8.64,8.64,0,0,1,36.62,0a7.93,7.93,0,0,1,7.16,5A7.89,7.89,0,0,1,42.37,13.86Z"/></g></g></g></svg>