<svg xmlns="http://www.w3.org/2000/svg" viewBox="0 0 79.52 79.58"><defs><style>.cls-1{fill:#5c8deb;}</style></defs><g id="Layer_2" data-name="Layer 2"><g id="Layer_1-2" data-name="Layer 1"><g id="_50FIJK.tif" data-name="50FIJK.tif"><path class="cls-1" d="M78.93,28.52a6,6,0,0,0-5.53-3.61c-1.66-.05-3.31,0-5.06,0V24c0-3.73,0-7.46,0-11.18A2.54,2.54,0,0,0,65.46,10H60.89c0-1.71-.1-3.36,0-5,.24-3.33-1.53-5-5-5C45,.12,34,.09,23.07,0c-2.67,0-4.64,1.66-4.45,4.51.11,1.77,0,3.56,0,5.47H14.07a2.54,2.54,0,0,0-2.88,2.85q0,5.55,0,11.1v1c-1.53,0-3,0-4.5,0a8.71,8.71,0,0,0-2.22.27,6.13,6.13,0,0,0-4.46,6c0,5.85,0,11.7,0,17.55,0,3.15,0,6.32,0,9.47a6.21,6.21,0,0,0,6.42,6.42c4,0,8,0,12,0l.27,0v.79c0,3.1.08,6.21,0,9.32-.09,2.32.72,4,3,4.74H57.93a4,4,0,0,0,2.86-3,5.62,5.62,0,0,0,.09-1.16c0-3.29,0-6.58,0-9.85v-1h12a6.19,6.19,0,0,0,6.48-5.08.72.72,0,0,1,.11-.19V30.18A14.81,14.81,0,0,0,78.93,28.52Zm-18-16h4.87V24.86H61ZM21.13,4.24c0-1.32.38-1.71,1.7-1.71H56.74c1.24,0,1.66.41,1.66,1.61V24.87H21.16c0-.26,0-.5,0-.75Zm-7.41,8.27H18.6V24.84H13.72ZM58.4,75.32c0,1.41-.37,1.77-1.8,1.77H22.92c-1.44,0-1.79-.36-1.79-1.78V54.78H58.4ZM77,58.11a3.73,3.73,0,0,1-4,4.07H60.9V54.73H63c1,0,1.62-.45,1.63-1.24S64,52.24,63,52.24H16.47c-1,0-1.55.46-1.55,1.24s.56,1.24,1.55,1.25H18.4a.8.8,0,0,1,.2,0v7.4h-12a3.75,3.75,0,0,1-4.07-4.06V31.48A3.76,3.76,0,0,1,6.6,27.39q33.17,0,66.31,0A3.75,3.75,0,0,1,77,31.47Q77,44.79,77,58.11Z"/><path class="cls-1" d="M54.65,59.7a1.17,1.17,0,0,1-1.06,1.22,4.24,4.24,0,0,1-.71,0h-25a4.07,4.07,0,0,1-.7,0,1.24,1.24,0,0,1,0-2.45,4.19,4.19,0,0,1,.71,0h25a4.11,4.11,0,0,1,.7,0A1.18,1.18,0,0,1,54.65,59.7Z"/><path class="cls-1" d="M54.66,65.88a1.22,1.22,0,0,1-1.13,1.26c-.23,0-.47,0-.69,0H27.91a4.86,4.86,0,0,1-.77,0,1.21,1.21,0,0,1-1-1.26,1.18,1.18,0,0,1,1.06-1.16,3.26,3.26,0,0,1,.77,0H52.86a3.19,3.19,0,0,1,.69,0A1.19,1.19,0,0,1,54.66,65.88Z"/><path class="cls-1" d="M54.65,72.12a1.16,1.16,0,0,1-1.06,1.22,3.3,3.3,0,0,1-.7,0h-25a3.34,3.34,0,0,1-.71,0,1.16,1.16,0,0,1-1.07-1.22,1.18,1.18,0,0,1,1.07-1.22,4.07,4.07,0,0,1,.7,0h25a4.24,4.24,0,0,1,.71,0A1.17,1.17,0,0,1,54.65,72.12Z"/></g></g></g></svg>