<svg xmlns="http://www.w3.org/2000/svg" viewBox="0 0 71.57 71.56"><defs><style>.cls-1{fill:#5c8deb;}</style></defs><g id="Layer_2" data-name="Layer 2"><g id="Layer_1-2" data-name="Layer 1"><g id="FBAYGK.tif"><path class="cls-1" d="M17,71.56H0v-17c.19-.2.36-.51.59-.58A2.69,2.69,0,0,1,2,53.85c.65.2.8.82.8,1.46V68.8h1c4.09,0,8.18,0,12.27,0,.79,0,1.51.08,1.81,1S17.57,71.08,17,71.56Z"/><path class="cls-1" d="M17.88,1.38a1.37,1.37,0,0,1-1.36,1.38c-.77,0-1.54,0-2.31,0H2.76v.94c0,4.1,0,8.19,0,12.28,0,.8-.1,1.51-1,1.82S.48,17.59,0,17V.87A2.15,2.15,0,0,1,2,0c4.63,0,9.27,0,13.91,0,.19,0,.4,0,.6,0A1.38,1.38,0,0,1,17.88,1.38Z"/><path class="cls-1" d="M71.57,69.57a2.2,2.2,0,0,1-.88,2H54.52c-.18-.18-.47-.32-.52-.52a2.9,2.9,0,0,1-.15-1.44c.18-.65.81-.8,1.46-.8,4.15,0,8.3,0,12.45,0h1V55.72a6.62,6.62,0,0,1,0-.77,1.37,1.37,0,0,1,2.73,0c0,.58,0,1.15,0,1.73C71.55,61,71.53,65.27,71.57,69.57Z"/><path class="cls-1" d="M59.26,35.69h-.1c0,1.32,0,2.64,0,4,0,1-.53,1.64-1.36,1.64s-1.38-.61-1.38-1.62c0-2.18,0-4.35,0-6.53A20.5,20.5,0,0,0,38.81,12.65c-7.53-1.1-13.86,1.43-18.89,7.17-.22.26-.42.54-.64.8a1.37,1.37,0,1,1-2.13-1.73,22.65,22.65,0,0,1,6.16-5.67A23.4,23.4,0,0,1,58.94,29.86C59.2,31.77,59.15,33.74,59.26,35.69Z"/><path class="cls-1" d="M42.65,33.26q0,4.52,0,9c0,1.1-.48,1.73-1.33,1.76s-1.41-.63-1.41-1.76V33.34a4.14,4.14,0,1,0-8.26,0c0,1.55,0,3.09,0,4.64,0,3.3.11,6.59-.85,9.8a21.85,21.85,0,0,1-5.33,9.1,1.37,1.37,0,0,1-1.78.34,1.27,1.27,0,0,1-.62-1.54,1.94,1.94,0,0,1,.49-.79,19,19,0,0,0,5.35-14c-.05-2.55,0-5.1,0-7.65a6.88,6.88,0,1,1,13.75,0Z"/><path class="cls-1" d="M44.23,18.72c-.36.78-1.09,1-2,.59A14.68,14.68,0,0,0,28.11,20a14.64,14.64,0,0,0-7.46,12.76c0,1.48,0,3,0,4.46H20.5c0,2,.15,4,0,6A10.5,10.5,0,0,1,16.68,50a1.38,1.38,0,0,1-1.91-2c.44-.49.94-.93,1.35-1.44a7.7,7.7,0,0,0,1.76-4.92c0-2.81,0-5.61,0-8.42A17.87,17.87,0,0,1,36.52,15.17a16.92,16.92,0,0,1,6.8,1.65C44.25,17.26,44.59,18,44.23,18.72Z"/><path class="cls-1" d="M48.15,31.38c0,1-.45,1.58-1.26,1.64s-1.39-.46-1.49-1.41a9.33,9.33,0,0,0-3.09-6.24A9.18,9.18,0,0,0,32,23.59a9.21,9.21,0,0,0-5.87,8.74c0,1.51,0,3,0,4.56,0,1-.52,1.63-1.35,1.64s-1.38-.61-1.39-1.61,0-1.89,0-3.25a14.29,14.29,0,0,1,.66-5.52,12.41,12.41,0,0,1,24.07,2.9C48.14,31.16,48.15,31.27,48.15,31.38Z"/><path class="cls-1" d="M52.29,52.4a2,2,0,0,1-1,1.24c-1.16.46-2-.49-1.71-1.81.33-1.68.78-3.35.95-5,.24-2.4.33-4.8.36-7.2,0-2.81.06-5.62-.16-8.42a14.17,14.17,0,0,0-4.1-8.69A2.14,2.14,0,0,1,46,21.08,1.48,1.48,0,0,1,46.9,20a2,2,0,0,1,1.52.44A16.64,16.64,0,0,1,52.63,27a18,18,0,0,1,1,5.9v5.76A48.61,48.61,0,0,1,52.29,52.4Z"/><path class="cls-1" d="M71.54,1.48q0,7.47,0,15a1.36,1.36,0,0,1-1.37,1.46,1.38,1.38,0,0,1-1.37-1.53c0-4.19,0-8.37,0-12.55v-1H57.86c-.92,0-1.83,0-2.75,0a1.37,1.37,0,0,1-1.44-1.39A1.35,1.35,0,0,1,55.14,0h15A1.33,1.33,0,0,1,71.54,1.48Z"/><path class="cls-1" d="M48.16,40.62a38,38,0,0,1-5.64,20.91,5.43,5.43,0,0,1-.32.51,1.36,1.36,0,0,1-1.81.43,1.34,1.34,0,0,1-.5-1.86c.5-.93,1.07-1.83,1.55-2.76a35,35,0,0,0,4-16c0-1.49,0-3,0-4.46,0-1,.57-1.62,1.4-1.6s1.33.61,1.34,1.57S48.16,39.54,48.16,40.62Z"/><path class="cls-1" d="M35.92,49.57c-.78,2.17-1.86,4.23-2.85,6.32a1.16,1.16,0,0,1-1.5.67,2.13,2.13,0,0,1-1-1,1.47,1.47,0,0,1,.23-1.12,25.57,25.57,0,0,0,3.64-14.35c-.08-2.23,0-4.48,0-6.71,0-1.08.51-1.71,1.37-1.71s1.37.64,1.37,1.72c0,1.6,0,3.21,0,5.57A28.53,28.53,0,0,1,35.92,49.57Z"/><path class="cls-1" d="M42.07,48.33c-.48,1.55-.91,3.12-1.46,4.66a31,31,0,0,1-5.56,9.6c-.75.89-1.76.92-2.31.09A1.45,1.45,0,0,1,33,60.8a28.81,28.81,0,0,0,5.28-9.36c.4-1.16.66-2.37,1-3.54a1.37,1.37,0,0,1,1.6-1.1A1.54,1.54,0,0,1,42.07,48.33Z"/><path class="cls-1" d="M16.64,25.3a25.92,25.92,0,0,0-1.12,4c-.27,2.15-.29,4.33-.37,6.49-.05,1.32,0,2.63,0,4a1.38,1.38,0,1,1-2.74,0c0-1.37,0-2.74,0-4.71a25.14,25.14,0,0,1,1.55-10.36l.15-.4a1.38,1.38,0,0,1,1.85-.9A1.41,1.41,0,0,1,16.64,25.3Z"/><path class="cls-1" d="M26.13,43a16,16,0,0,1-4,9.24c-.77.88-1.62,1.7-2.46,2.52a1.39,1.39,0,0,1-2.05.09,1.35,1.35,0,0,1,.09-2c.53-.59,1.1-1.16,1.66-1.74a13.3,13.3,0,0,0,3.85-8.2l0-.26a1.43,1.43,0,0,1,1.58-1.34C25.69,41.37,26.17,42,26.13,43Z"/><path class="cls-1" d="M31,58.51a3.4,3.4,0,0,1-.36.85A16.81,16.81,0,0,1,29,61a1.22,1.22,0,0,1-1.72-.16A1.17,1.17,0,0,1,27,59.19a8,8,0,0,1,1.76-1.73,1.72,1.72,0,0,1,1.42,0C30.58,57.63,30.76,58.18,31,58.51Z"/><path class="cls-1" d="M51,56.6A5.42,5.42,0,0,1,50.43,58a1.16,1.16,0,0,1-1.61.55c-.45-.24-.73-.8-1-1.17a15.14,15.14,0,0,1,.74-1.8,1.24,1.24,0,0,1,1.65-.52A1.22,1.22,0,0,1,51,56.6Z"/></g></g></g></svg>