<svg xmlns="http://www.w3.org/2000/svg" viewBox="0 0 67.19 86.18"><defs><style>.cls-1{fill:#5c8deb;}</style></defs><g id="Layer_2" data-name="Layer 2"><g id="Layer_1-2" data-name="Layer 1"><g id="_2xih8s.tif" data-name="2xih8s.tif"><path class="cls-1" d="M65.82,17.1Q50.07,8.74,34.37.33a2.29,2.29,0,0,0-2.44,0Q16.72,8.74,1.51,17.09A8.43,8.43,0,0,0,0,18.46V43.22c.16,1.48.3,3,.49,4.42A46.2,46.2,0,0,0,11.88,72.4,48.67,48.67,0,0,0,30.79,85.34c.58.24,1.14.56,1.71.84h1l5.37-2.38a46.59,46.59,0,0,0,28.3-43.14c0-7.1,0-14.2,0-21.3A2.28,2.28,0,0,0,65.82,17.1ZM63.94,40.77C63.5,58.15,55.64,71.1,40.4,79.49c-2.22,1.23-4.64,2.12-7,3.15a1.05,1.05,0,0,1-.7,0,47.65,47.65,0,0,1-16-9.86A43.39,43.39,0,0,1,3.85,48.37,75.08,75.08,0,0,1,3.26,36.2V32.49c0-4,0-8,0-12a1.08,1.08,0,0,1,.65-1.11Q18.22,11.61,32.5,3.74a1.24,1.24,0,0,1,1.38,0L63.26,19.41A1.11,1.11,0,0,1,64,20.55C64,27.29,64.1,34,63.94,40.77Z"/><path class="cls-1" d="M49.34,36.53c-1.48,1.24-3,2.45-4.5,3.67L30.17,52.15c-.16.13-.31.25-.47.36a1.6,1.6,0,0,1-2.49-.26Q23.07,47.42,19,42.59a1.63,1.63,0,0,1,0-2.4,1.65,1.65,0,0,1,2.44.32c2.43,2.82,4.84,5.67,7.35,8.61l5.85-4.76q6.24-5.07,12.47-10.14a2.71,2.71,0,0,1,1-.57,1.5,1.5,0,0,1,1.75.86A1.55,1.55,0,0,1,49.34,36.53Z"/></g></g></g></svg>