<svg xmlns="http://www.w3.org/2000/svg" viewBox="0 0 60.58 66.7"><defs><style>.cls-1{fill:#5c8deb;}</style></defs><g id="Layer_2" data-name="Layer 2"><g id="Layer_1-2" data-name="Layer 1"><g id="U7KgKk.tif"><path class="cls-1" d="M58.18,47.48c-.79-.6-1.59-1.18-2.38-1.79a4.37,4.37,0,0,1-1.68-2.79c-1-6.27-2-12.56-3.12-18.82-1.43-8.27-6.09-13.91-14-16.84a.86.86,0,0,1-.69-1A6,6,0,0,0,31.68.22l-1-.22h-.85a1.93,1.93,0,0,1-.34.11,6,6,0,0,0-5.29,6,1,1,0,0,1-.81,1.14c-7.47,2.8-12.16,8.11-13.68,16C8.51,29.6,7.6,36,6.55,42.41a5,5,0,0,1-2.06,3.5c-.78.56-1.57,1.14-2.32,1.75a5.34,5.34,0,0,0-2,5.54,5.52,5.52,0,0,0,5.74,4.41c4.4,0,8.8,0,13.2,0,.55,0,.75.16.87.72a10.57,10.57,0,0,0,20.68,0c.12-.55.31-.72.87-.72q6.67,0,13.34,0a5.57,5.57,0,0,0,3.35-10.13ZM30.2,3.1a2.93,2.93,0,0,1,3.06,3.09H27.32A2.9,2.9,0,0,1,30.2,3.1Zm.9,60.51a7.49,7.49,0,0,1-8.17-6H37.57C37.57,60.32,34.28,63.35,31.1,63.61ZM57.4,52.85a2.52,2.52,0,0,1-2.65,1.71H6a2.86,2.86,0,0,1-2.32-.84,2.46,2.46,0,0,1,.21-3.55,11.56,11.56,0,0,1,1.63-1.25c2.6-1.64,3.76-4,4.21-7,.92-6.27,1.81-12.55,3.14-18.73C14.42,16,19,11.43,26.16,9.65A17.71,17.71,0,0,1,47.8,23.46c.87,4.38,1.48,8.81,2.21,13.22.39,2.28.74,4.57,1.15,6.85a7.19,7.19,0,0,0,2.62,4.41c.83.68,1.7,1.29,2.55,1.94A2.54,2.54,0,0,1,57.4,52.85Z"/></g></g></g></svg>