<svg xmlns="http://www.w3.org/2000/svg" viewBox="0 0 58.99 60.45"><defs><style>.cls-1{fill:#5c8deb;}</style></defs><g id="Layer_2" data-name="Layer 2"><g id="Layer_1-2" data-name="Layer 1"><g id="KmrME0.tif"><path class="cls-1" d="M56.86,0H2.06A6.88,6.88,0,0,0,.62.94c-.88,1-.8,2.18.1,3.45Q10.37,18,20,31.59a11.35,11.35,0,0,1,1.21,2.59,5.15,5.15,0,0,1,.13,1.58V57.48a2.85,2.85,0,0,0,.79,2.27,2.63,2.63,0,0,0,3,.44c3.52-1.36,7-2.7,10.57-4a2.5,2.5,0,0,0,2-2.84c0-5.8,0-11.6,0-17.41A7.25,7.25,0,0,1,39,31.49Q48.52,18.16,58,4.78A17.13,17.13,0,0,0,59,3V2A3,3,0,0,0,56.86,0ZM55,3.68q-9.27,13-18.52,26.07a10.09,10.09,0,0,0-2,6.11c0,5.61,0,11.22,0,16.82a.74.74,0,0,1-.58.84q-4.47,1.68-8.93,3.39c-.18.07-.36.11-.64.2v-.8c0-6.81,0-13.62,0-20.43a10.29,10.29,0,0,0-2-6.22Q13.21,16.72,4,3.74c-.14-.19-.27-.38-.44-.63H55.38C55.23,3.33,55.13,3.5,55,3.68Z"/><path class="cls-1" d="M59,2a3,3,0,0,0-2.12-2H59Z"/></g></g></g></svg>