<svg xmlns="http://www.w3.org/2000/svg" viewBox="0 0 96.14 59.35"><defs><style>.cls-1{fill:#5c8deb;}</style></defs><g id="Layer_2" data-name="Layer 2"><g id="Layer_1-2" data-name="Layer 1"><g id="qHPgid.tif"><path class="cls-1" d="M96,39.45Q94.15,28.82,84,25.17l-1-.31a3.7,3.7,0,0,1,0-.62,20.71,20.71,0,0,0-.06-8A20.42,20.42,0,0,0,63.79,0,20,20,0,0,0,45.85,9.22a.82.82,0,0,1-1.11.4,20.89,20.89,0,0,0-4.11-.93,16,16,0,0,0-16,9.29c-.26.55-.54.59-1.08.58a38.42,38.42,0,0,0-6.07,0,20.49,20.49,0,0,0,3.33,40.74c11.36,0,22.72,0,34.08,0,7.92,0,15.83,0,23.74,0a17.42,17.42,0,0,0,16.9-12.78c.28-1,.43-2,.65-3V40A3.68,3.68,0,0,1,96,39.45ZM81.8,55.2a16.27,16.27,0,0,1-3.63.37c-9.57,0-19.14,0-28.72,0H20.82a16.77,16.77,0,0,1-3.39-33.25,18.12,18.12,0,0,1,7.26.23,2,2,0,0,0,2.72-1.51,12.35,12.35,0,0,1,17.53-7.3c1.52.76,2.37.5,3.16-1A16.69,16.69,0,0,1,79.31,17,16.31,16.31,0,0,1,79,25.17c-.58,2-.08,2.78,2,3.14A13.72,13.72,0,0,1,81.8,55.2Z"/><path class="cls-1" d="M96,39.45Q94.15,28.82,84,25.17l-1-.31a3.7,3.7,0,0,1,0-.62,20.71,20.71,0,0,0-.06-8A20.42,20.42,0,0,0,63.79,0,20,20,0,0,0,45.85,9.22a.82.82,0,0,1-1.11.4,20.89,20.89,0,0,0-4.11-.93,16,16,0,0,0-16,9.29c-.26.55-.54.59-1.08.58a38.42,38.42,0,0,0-6.07,0,20.49,20.49,0,0,0,3.33,40.74c11.36,0,22.72,0,34.08,0,7.92,0,15.83,0,23.74,0a17.42,17.42,0,0,0,16.9-12.78c.28-1,.43-2,.65-3V40A3.68,3.68,0,0,1,96,39.45ZM81.8,55.2a16.27,16.27,0,0,1-3.63.37c-9.57,0-19.14,0-28.72,0H20.82a16.77,16.77,0,0,1-3.39-33.25,18.12,18.12,0,0,1,7.26.23,2,2,0,0,0,2.72-1.51,12.35,12.35,0,0,1,17.53-7.3c1.52.76,2.37.5,3.16-1A16.69,16.69,0,0,1,79.31,17,16.31,16.31,0,0,1,79,25.17c-.58,2-.08,2.78,2,3.14A13.72,13.72,0,0,1,81.8,55.2Z"/></g></g></g></svg>