<svg xmlns="http://www.w3.org/2000/svg" viewBox="0 0 86.04 88.75"><defs><style>.cls-1{fill:#5c8deb;}</style></defs><g id="Layer_2" data-name="Layer 2"><g id="Layer_1-2" data-name="Layer 1"><g id="VnrGrw.tif"><path class="cls-1" d="M86,49.76c0-.91-.47-1.42-1.25-1.44s-1.3.52-1.34,1.46c0,.24,0,.47,0,.7V77.6c0,5.14-3.38,8.52-8.51,8.52H47.62c-5.18,0-8.58-3.39-8.58-8.56v-36C39,36.36,42.45,33,47.62,33s10.11,0,15.16,0c4.16,0,8.32,0,12.48,0a8,8,0,0,1,8.16,8.1c0,1.1,0,2.2,0,3.29a1.31,1.31,0,0,0,1.31,1.34A1.28,1.28,0,0,0,86,44.32c0-1,0-2,0-2.94a10.64,10.64,0,0,0-11-11H62.46v-1c0-3.83,0-7.64,0-11.45a3.42,3.42,0,0,0-1.11-2.73c-4.71-4.64-9.37-9.34-14.05-14C47,.73,46.54.37,46.14,0H5.92c-.16.05-.31.12-.48.16A6.79,6.79,0,0,0,.12,5.78,18.73,18.73,0,0,0,0,9.05a1.27,1.27,0,0,0,1.27,1.36,1.29,1.29,0,0,0,1.3-1.33c.05-.55,0-1.1,0-1.65,0-3.12,1.71-4.83,4.8-4.83h37v.93c0,2.46,0,4.92,0,7.37a6.86,6.86,0,0,0,7.18,7.2h8.24V30.35h-1c-3.82,0-7.63,0-11.44,0a11.56,11.56,0,0,0-2.49.25,10.59,10.59,0,0,0-8.44,10.44q0,18,0,36.05v1l-.69,0H7a4.69,4.69,0,0,1-1.12-.12,4.28,4.28,0,0,1-3.25-4.53q0-29.19,0-58.39A4.2,4.2,0,0,0,2.53,14a1.19,1.19,0,0,0-1.34-1A1.21,1.21,0,0,0,0,14.22c0,.22,0,.46,0,.69V73.39a8.21,8.21,0,0,0,.12,1.72,6.84,6.84,0,0,0,7,5.67q14.43,0,28.86,0c.6,0,.89.13,1.09.75a10.42,10.42,0,0,0,9.58,7.17c9.76.07,19.52.09,29.28,0A10.43,10.43,0,0,0,86,78.71C86.07,69.06,86,59.41,86,49.76ZM50.65,15.42A4,4,0,0,1,47,11.63C47,9.32,47,7,47,4.86L57.59,15.45C55.38,15.45,53,15.54,50.65,15.42Z"/><path class="cls-1" d="M75.26,54.34h-14c-4.72,0-9.42,0-14.13,0-2.43,0-3.73,1.32-3.73,3.77V77.6c0,2.75,1.48,4.19,4.24,4.19H74.9c2.72,0,4.19-1.44,4.19-4.15V58.16C79.09,55.59,77.84,54.34,75.26,54.34ZM51.45,79.19c-1.48,0-2.89,0-4.3,0A1.07,1.07,0,0,1,46,78.05c0-1.46,0-2.94,0-4.47h5.48ZM46,70.87v-5.6h5.4v5.6Zm5.42-8.32H46c0-1.66,0-3.28,0-4.92a1,1,0,0,1,.73-.65c1.55-.06,3.11,0,4.7,0Zm8.43,16.6H54.16V73.53h5.72Zm0-8.32H54.17V65.24h5.71Zm0-8.28H54.15V57H59.9ZM71,65.28h5.43v5.56H71ZM62.62,57h5.67v5.56H62.62Zm0,8.31h5.72v5.57H62.59Zm5.73,13.87H62.63V73.56h5.69Zm8.1-.81c0,.31-.65.79-1,.81-1.42.1-2.87,0-4.38,0V73.57h5.45C76.46,75.14,76.52,76.74,76.42,78.34Zm.07-15.8H71.07V57c1.6,0,3.19,0,4.79,0,.22,0,.59.43.6.68C76.51,59.29,76.49,60.88,76.49,62.54Z"/><path class="cls-1" d="M75.15,37.28H47.35a3.73,3.73,0,0,0-4,3.95c0,1.85,0,3.7,0,5.54a3.35,3.35,0,0,0,3.71,3.69H75.66A3.25,3.25,0,0,0,79.09,47c0-1.93,0-3.87,0-5.8A3.69,3.69,0,0,0,75.15,37.28Zm.23,10.6c-4.71,0-9.41,0-14.12,0h-14c-1.11,0-1.25-.13-1.25-1.24,0-1.77,0-3.53,0-5.28,0-1.07.39-1.45,1.48-1.45H75c1.15,0,1.5.34,1.5,1.49,0,1.79,0,3.58,0,5.37C76.52,47.57,76.2,47.88,75.38,47.88Z"/><path class="cls-1" d="M20.31,33.78l-1,.29c0,.62,0,1.26,0,1.88a1.27,1.27,0,0,1-1.23,1.39A1.31,1.31,0,0,1,16.73,36c0-.56,0-1.14,0-1.8a9.9,9.9,0,0,1-5.13-1.73c-.87-.61-.95-1.78-.07-2.19a1.76,1.76,0,0,1,1.49.06,8.43,8.43,0,0,0,5.22,1.24A4.77,4.77,0,0,0,22.76,26a3.67,3.67,0,0,0-2.5-3c-1.33-.55-2.69-1-4-1.61a20.42,20.42,0,0,1-1.91-1,5.19,5.19,0,0,1-2.67-5.79,5.74,5.74,0,0,1,4.22-4.9c.73-.21.9-.53.84-1.19a4.09,4.09,0,0,1,.08-1.21,1.17,1.17,0,0,1,1.34-1c.65,0,1.21.47,1.11,1.1-.26,1.65.58,2.15,2,2.44A5.57,5.57,0,0,1,23.21,11a1.26,1.26,0,0,1,.33,1.82,1.28,1.28,0,0,1-1.85.25,5.61,5.61,0,0,0-4.77-.94A3.62,3.62,0,0,0,14.17,16a2.38,2.38,0,0,0,1.35,2.16c1.84.87,3.72,1.71,5.6,2.5a6.55,6.55,0,0,1,4.05,4.21A7.4,7.4,0,0,1,20.31,33.78Z"/><path class="cls-1" d="M31.65,43.43c0,.82-.59,1.28-1.69,1.28H9.09c-1.09,0-1.67-.47-1.67-1.31s.6-1.29,1.69-1.29H30C31.06,42.11,31.66,42.6,31.65,43.43Z"/><path class="cls-1" d="M31.64,50.29a1.21,1.21,0,0,1-1,1.3,3.07,3.07,0,0,1-.86,0H9.31a4,4,0,0,1-.6,0,1.29,1.29,0,0,1,0-2.58c.37,0,.75,0,1.13,0H29.76a5.11,5.11,0,0,1,.78,0A1.22,1.22,0,0,1,31.64,50.29Z"/><path class="cls-1" d="M22.21,57.24a1.29,1.29,0,0,1-1.41,1.31c-2,0-4,0-6.06,0H8.94c-1,0-1.66-.67-1.49-1.56a1.19,1.19,0,0,1,1.29-1H20.86A1.26,1.26,0,0,1,22.21,57.24Z"/></g></g></g></svg>