<svg xmlns="http://www.w3.org/2000/svg" viewBox="0 0 61.61 67.28"><defs><style>.cls-1{fill:#5c8deb;}</style></defs><g id="Layer_2" data-name="Layer 2"><g id="Layer_1-2" data-name="Layer 1"><g id="esc8Rg.tif"><path class="cls-1" d="M61.59,35.88c0-4.41-2.34-7.27-6.63-8.15,0-.29,0-.6,0-.89a51,51,0,0,0-.41-7.13C52.64,9.92,46.78,3.62,37.21.79A40.72,40.72,0,0,0,32.91,0H29.49a2.24,2.24,0,0,1-.37.1,21.77,21.77,0,0,0-6.79,1.64A23.45,23.45,0,0,0,7.93,19.29,37.76,37.76,0,0,0,7.51,27v.86c-.31,0-.5,0-.7,0A6.63,6.63,0,0,0,.06,34.27C0,38.1,0,41.93.05,45.77a6.39,6.39,0,0,0,6.07,6.12c2.05.09,4.11,0,6.16,0,1.33,0,1.87-.55,1.87-1.88V30.27a6.86,6.86,0,0,0,0-.91,1.64,1.64,0,0,0-1.78-1.55H10.76c.08-2.34,0-4.59.27-6.79A20.15,20.15,0,0,1,29.92,3.41C37.7,3,43.81,6.13,48.25,12.51c3.18,4.58,3.63,9.78,3.33,15.14,0,0,0,.07-.12.16H50A1.45,1.45,0,0,0,48.45,29a4,4,0,0,0-.16,1.15q0,10,0,20a1.61,1.61,0,0,0,1.83,1.86h1.53C49.71,55.17,44,58,41,57.33A8.24,8.24,0,0,0,24.65,59a8.37,8.37,0,0,0,7.43,8.17c4,.54,7.67-2.13,8.92-6.5l.51,0a16.65,16.65,0,0,0,7.74-2.19,17.46,17.46,0,0,0,6.19-6.21,1.08,1.08,0,0,1,.87-.56c3.49-.51,5.28-2.59,5.29-6.11C61.6,42.37,61.61,39.13,61.59,35.88ZM10.8,31.13V48.57c-1.6,0-3.18.1-4.73,0a3.09,3.09,0,0,1-2.72-3.12c0-3.57,0-7.13,0-10.7A3.4,3.4,0,0,1,7,31.13ZM33,63.93a5.1,5.1,0,0,1-5-5,4.9,4.9,0,1,1,9.8.14A4.82,4.82,0,0,1,33,63.93Zm25.27-18.3a2.59,2.59,0,0,1-2.69,2.95,6.77,6.77,0,0,1-.78,0H51.65V31.19a28.13,28.13,0,0,1,3.9,0,3.1,3.1,0,0,1,1.64,1.19,5,5,0,0,1,1.08,3.3C58.26,39,58.27,42.33,58.27,45.63Z"/></g></g></g></svg>