<svg xmlns="http://www.w3.org/2000/svg" viewBox="0 0 88.21 70.56"><defs><style>.cls-1{fill:#5c8deb;}</style></defs><g id="Layer_2" data-name="Layer 2"><g id="Layer_1-2" data-name="Layer 1"><g id="mOduDP.tif"><polygon class="cls-1" points="8.79 67.58 8.79 70.56 0 70.56 0 61.79 2.91 61.79 2.91 67.58 8.79 67.58"/><path class="cls-1" d="M8.75,0V2.92H3V8.77H0V1A1.81,1.81,0,0,1,1.82,0C4.11,0,6.39,0,8.75,0Z"/><path class="cls-1" d="M88.21,68.6a1.92,1.92,0,0,1-1,2H79.41V67.63h5.83V61.78h3v1.14C88.19,64.82,88.16,66.7,88.21,68.6Z"/><rect class="cls-1" x="14.74" y="8.87" width="4.32" height="41.01"/><rect class="cls-1" x="55.91" y="8.9" width="4.3" height="41"/><rect class="cls-1" x="29.46" y="8.88" width="4.27" height="41.02"/><rect class="cls-1" x="70.62" y="8.88" width="4.27" height="41.02"/><rect class="cls-1" x="42.69" y="8.87" width="2.83" height="48.39"/><rect class="cls-1" x="7.43" y="8.88" width="2.83" height="48.38"/><rect class="cls-1" x="77.94" y="8.88" width="2.83" height="48.39"/><rect class="cls-1" x="64.73" y="8.88" width="2.83" height="41.02"/><rect class="cls-1" x="50.03" y="8.9" width="2.82" height="41"/><path class="cls-1" d="M26.47,9.8V49.9H23.58V8.83c.83,0,1.62,0,2.42,0,.16,0,.36.26.46.44S26.47,9.63,26.47,9.8Z"/><rect class="cls-1" x="36.79" y="8.88" width="2.84" height="40.99"/><path class="cls-1" d="M88.18,8.78H85.29V3H79.44V0c2.53,0,5,0,7.5,0a1.2,1.2,0,0,1,1.22,1.23C88.2,3.76,88.18,6.25,88.18,8.78Z"/><rect class="cls-1" x="13.3" y="52.94" width="2.82" height="4.31"/><rect class="cls-1" x="19.16" y="52.94" width="2.82" height="4.31"/><rect class="cls-1" x="25.02" y="52.96" width="2.84" height="4.3"/><rect class="cls-1" x="60.34" y="52.96" width="2.83" height="4.3"/><rect class="cls-1" x="66.19" y="52.94" width="2.83" height="4.31"/><rect class="cls-1" x="72.08" y="52.95" width="2.83" height="4.32"/><rect class="cls-1" x="30.9" y="52.97" width="2.83" height="4.3"/><rect class="cls-1" x="36.78" y="52.97" width="2.83" height="4.29"/><rect class="cls-1" x="48.58" y="52.93" width="2.81" height="4.31"/><rect class="cls-1" x="54.47" y="52.94" width="2.82" height="4.29"/></g></g></g></svg>