<svg xmlns="http://www.w3.org/2000/svg" viewBox="0 0 85.3 77.16"><defs><style>.cls-1{fill:#5c8deb;}</style></defs><g id="Layer_2" data-name="Layer 2"><g id="Layer_1-2" data-name="Layer 1"><g id="JNEyG0.tif"><path class="cls-1" d="M85.27,11.19A4.94,4.94,0,0,0,85,9.66c-.93-2.44-1.93-4.84-2.82-7.28A3.22,3.22,0,0,0,79.78,0H73.45a2.34,2.34,0,0,1-.27.15,1.13,1.13,0,0,0-.81,1.37,1.16,1.16,0,0,0,1.26,1c1.71,0,3.43,0,5.15,0a.94.94,0,0,1,1.08.71c.75,2,1.56,4,2.39,6.14-.3,0-.53.07-.76.07-8,0-16,0-24,0-.59,0-.8-.17-.93-.74-.43-2-.92-4-1.41-6.19h2.13c2.24,0,4.49,0,6.73,0,.77,0,1.49-.06,1.71-.95S65.33.28,64.62,0H15.32A3.09,3.09,0,0,0,12.9,2.33C12,4.76,11,7.17,10.08,9.61a4.65,4.65,0,0,0-.31,1.61c0,5.55,0,11.1,0,16.65a4.59,4.59,0,0,0,.06.91,1.08,1.08,0,0,0,1.13.91,1.11,1.11,0,0,0,1.19-.94,4.66,4.66,0,0,0,0-.92V11.89H38v18a1.93,1.93,0,0,0,3.41,1.54c1.16-1.05,2.33-2.07,3.48-3.11L47.53,26c.74.64,1.42,1.25,2.11,1.86l4.24,3.75a1.81,1.81,0,0,0,2,.38A1.78,1.78,0,0,0,57,30.26c0-.28,0-.56,0-.83V11.89H82.78c0,.26,0,.44,0,.64q0,26.76,0,53.53c0,1.4-.56,2-2,2H59.62A4.72,4.72,0,0,1,59,68c0-.07,0-.14,0-.21,2.37.25,4.25-.48,5.12-2.78s0-4-1.81-5.36c2.65-2.87,1.26-6.53-2.07-7.71-3.91-1.38-7.71-3.09-11.57-4.66l-6.57-2.69.85-.28c2.59-.81,5.18-1.6,7.77-2.44a3.92,3.92,0,0,0,2.94-3.61c.1-2.81-2.28-4.66-5.24-4-4,.84-8.06,1.79-12.13,2.53-5.15.93-10.33,1.7-15.51,2.51a11.87,11.87,0,0,1-1.8,0c.79-2.32.34-3.3-1.77-4.16l-5.47-2.23c-1.78-.72-3-.21-3.71,1.59L5,41.83,0,54v1.16a3.4,3.4,0,0,0,2.2,2c1.84.71,3.65,1.48,5.47,2.22a2.48,2.48,0,0,0,3.4-.92.76.76,0,0,1,.67-.2,13.31,13.31,0,0,1,6,3.93,18.13,18.13,0,0,0,7.78,5.64.39.39,0,0,1,.24.29H14.46c-1.77,0-2.28-.52-2.28-2.28,0-.78,0-1.56,0-2.32A1.22,1.22,0,0,0,11,62.17a1.18,1.18,0,0,0-1.21,1.21,31.09,31.09,0,0,0,.05,3.74,3.85,3.85,0,0,0,3.8,3.32c2.86,0,5.72,0,8.58,0,3.05,0,6.1,0,9.15,0a4.2,4.2,0,0,1,1.45.28l14.63,6a4.44,4.44,0,0,0,5.44-1.1c.61-.73.8-1.29,1-3.14a4.68,4.68,0,0,0,1.35-.18c.86-.37,1.68-.89,2.52-1.33a3,3,0,0,1,1.13-.47c7.24,0,14.48-.08,21.72,0a4.35,4.35,0,0,0,4.65-4.62C85.25,47.64,85.28,29.42,85.27,11.19ZM42.35,2.5h9c1.37,0,1.37,0,1.68,1.34l1.28,5.5H40.78C41.31,7.06,41.82,4.8,42.35,2.5ZM38.32,9c0,.19-.35.34-.55.42a1.66,1.66,0,0,1-.59,0H12.77c.19-.49.33-.86.47-1.24.67-1.7,1.32-3.41,2-5.1a1,1,0,0,1,.66-.54c7.94,0,15.86,0,24,0C39.33,4.73,38.85,6.86,38.32,9Zm16.22,20c-.28-.24-.51-.4-.72-.6-1.55-1.35-3.08-2.71-4.61-4.07-1.31-1.16-2.06-1.16-3.39,0l-4.67,4.13-.65.53V11.88h14ZM9,57.2,2.45,54.54c2.66-6.53,5.29-13,8-19.58l6.51,2.65ZM58.79,65,42.32,58.31c-1.24-.5-2-.36-2.26.46s.14,1.32,1.36,1.82q6.82,2.76,13.64,5.55a1.91,1.91,0,0,1,1,3.06,1.79,1.79,0,0,1-2.09.63c-1.13-.39-2.23-.84-3.33-1.29l-10.7-4.37L39.56,64c-.88-.33-1.57-.13-1.86.52s0,1.36,1,1.74c3.72,1.53,7.43,3,11.15,4.55,1.27.52,1.82,1.36,1.58,2.39a1.81,1.81,0,0,1-2.33,1.42c-1.59-.54-3.15-1.21-4.72-1.84-6.15-2.5-12.31-5-18.48-7.52a13.6,13.6,0,0,1-5.63-4A17.16,17.16,0,0,0,12.81,56c-.18-.07-.34-.16-.61-.28,2-4.79,3.88-9.5,5.8-14.21a26.21,26.21,0,0,0,8.89-.61C34.26,39.49,41.63,38,49,36.55a1.68,1.68,0,0,1,2.16,1c.27.91-.23,1.67-1.36,2-3.76,1.17-7.51,2.33-11.28,3.48-.64.21-1.23.45-1.28,1.22s.54,1.14,1.19,1.4l21.16,8.63c1.18.48,1.76,1.22,1.68,2.11a2,2,0,0,1-2.81,1.63c-3-1.22-6.06-2.47-9.09-3.71-1.74-.71-3.48-1.42-5.24-2.11a1.19,1.19,0,0,0-1.62.57,1.22,1.22,0,0,0,.68,1.64c.2.1.41.19.62.27L51,57.63l9.31,3.81a4.56,4.56,0,0,1,.75.34,2,2,0,0,1,.81,2.39,1.92,1.92,0,0,1-2.16,1.15A4.54,4.54,0,0,1,58.79,65Z"/></g></g></g></svg>