<svg xmlns="http://www.w3.org/2000/svg" viewBox="0 0 68.6 82.32"><defs><style>.cls-1{fill:#5c8deb;}</style></defs><g id="Layer_2" data-name="Layer 2"><g id="Layer_1-2" data-name="Layer 1"><g id="u7p04Y.tif"><path class="cls-1" d="M68.56,80.57c-.23-1-1-1.11-1.88-1.11H59.55a2.92,2.92,0,0,0-.14-.31,8.61,8.61,0,0,0,.76-.54c1.61-1.55,3.23-3.09,4.81-4.69a7.92,7.92,0,0,0,2.08-8.55c-.42-1.3-.82-2.61-1.18-3.92-1.38-5.1-2.72-10.2-4.1-15.29a10.55,10.55,0,0,0-4.53-6.08A24.34,24.34,0,0,0,46,36.26a114.94,114.94,0,0,0-19.28-.4,40.73,40.73,0,0,0-11,1.84c-5.14,1.81-8.94,4.83-9.94,10.52,0,.22-.13.42-.18.64C4.14,54.32,2.76,59.79,1.21,65.23A8.15,8.15,0,0,0,3.46,74c1.62,1.54,3.28,3,4.93,4.56a8.9,8.9,0,0,0,.85.63c-.07.09-.13.19-.21.29-2.32,0-4.64,0-7,0A1.86,1.86,0,0,0,0,80.64v1.68H67.38C68.14,82,68.76,81.53,68.56,80.57Zm-31-42.07c-.17.5-.3.92-.47,1.32-1.83,4.51-1.83,4.51-1,9.33.16.88.27,1.77.42,2.7-.26,0-.47.06-.68.06H32.13c.35-2.2.73-4.3,1-6.42A6.16,6.16,0,0,0,32.84,43c-.49-1.49-1.15-2.92-1.78-4.48ZM9.53,54q.76,9.43,1.57,18.87c.13,1.47.24,3,.38,4.62-.3-.24-.49-.36-.65-.51C9,75.28,7.12,73.58,5.29,71.84A5.08,5.08,0,0,1,3.77,66.5C5.23,61,6.72,55.47,8.2,50c.14-.52.32-1,.41-1.53.71-4,3.44-6.25,7-7.71,3.83-1.58,7.89-1.9,12-2.08a1,1,0,0,1,.72.5c.71,1.62,1.4,3.25,2,4.9a3.74,3.74,0,0,1,0,1.63c-.3,2.06-.63,4.11-1,6.24H11.54C9.85,51.91,9.39,52.35,9.53,54ZM56,58.79c-.56,6.63-1.13,13.26-1.66,19.9-.05.59-.25.79-.85.79q-19.11,0-38.25,0c-.51,0-.78-.11-.83-.7C13.76,71,13.1,63.15,12.47,55.34a4.42,4.42,0,0,1,0-.54H56.25C56.16,56.15,56.07,57.47,56,58.79Zm1.27,18.58c.1-1.37.18-2.73.29-4.09q.81-9.44,1.61-18.86l0-.56c.07-1.44-.4-1.93-1.83-1.93h-18c-.37-2.44-.75-4.79-1.12-7.15a.92.92,0,0,1,0-.37c.74-1.84,1.47-3.68,2.24-5.51a.68.68,0,0,1,.53-.23c4.33.24,8.62.6,12.6,2.55a10,10,0,0,1,5.8,6.84c1.28,5.28,2.77,10.5,4.18,15.74.24.87.53,1.72.81,2.58a5.2,5.2,0,0,1-1.21,5.35c-1.82,2-3.67,4-5.5,6Z"/><path class="cls-1" d="M48.93,9.09C46,2.85,40.74.32,33.4,0a44.51,44.51,0,0,0-4.87,1A14.51,14.51,0,0,0,18.1,15.28,19.38,19.38,0,0,0,26,30.86c5.19,4,11.56,3.83,16.68-.29a20.16,20.16,0,0,0,7-11.09A15.06,15.06,0,0,0,48.93,9.09ZM33.21,2.91c7.82-.55,12.86,4.54,13.67,9a8.18,8.18,0,0,1-7.7-2.23c-1.1-1.1-1.75-1.07-2.79.08-4.23,4.66-9.59,5.63-15.27,3.58C20.9,8.34,26.56,3.38,33.21,2.91ZM47,18.4A16.82,16.82,0,0,1,40,29a9.86,9.86,0,0,1-11.39.25C24.49,26.8,21.07,21,21,16.29c7.56,2,12.5.18,16.91-4,2.69,2.37,5.91,2.92,9.63,2.39C47.35,16,47.29,17.22,47,18.4Z"/><path class="cls-1" d="M38.24,72.24a1.44,1.44,0,0,1-1.49,1.47c-.81,0-1.62,0-2.42,0s-1.55,0-2.33,0a1.45,1.45,0,0,1-1.56-1.39A1.42,1.42,0,0,1,32,70.92c1.58,0,3.16,0,4.75,0A1.41,1.41,0,0,1,38.24,72.24Z"/><path class="cls-1" d="M36.2,67a1.9,1.9,0,0,1-1.86,1.82,1.91,1.91,0,0,1-1.86-1.92,1.86,1.86,0,0,1,3.72.1Z"/></g></g></g></svg>