<svg xmlns="http://www.w3.org/2000/svg" viewBox="0 0 92.59 77.63"><defs><style>.cls-1{fill:#5c8deb;}</style></defs><g id="Layer_2" data-name="Layer 2"><g id="Layer_1-2" data-name="Layer 1"><g id="_8Y21XD.tif" data-name="8Y21XD.tif"><path class="cls-1" d="M88.29,0h-84A5.82,5.82,0,0,0,0,4.29v57.1a2.39,2.39,0,0,1,.16.32,5.21,5.21,0,0,0,5.32,4h30c-.27,1.4-.51,2.71-.82,4a.88.88,0,0,1-.7.45c-1.75,0-3.49,0-5.24,0-1.34,0-1.85.53-1.86,1.86v3.65c0,1.45.5,2,1.95,2h35c1.35,0,1.87-.53,1.87-1.86s0-2.61,0-3.93A1.51,1.51,0,0,0,64,70.16c-1.67,0-3.36,0-5,0-.83,0-1.14-.22-1.24-1-.15-1.13-.43-2.24-.67-3.46H86.83c3.61,0,5.76-2.13,5.76-5.73V6.41C92.59,2.65,91.73,1.38,88.29,0ZM5.92,3H86.64c2.22,0,3,.74,3,3V53.7H3V5.88C3,3.73,3.75,3,5.92,3ZM62.68,73.2v1.38H29.91V73.2Zm-25-3.09c.28-1.36.52-2.67.81-4a.83.83,0,0,1,.64-.44q7.17,0,14.35,0a.82.82,0,0,1,.63.44c.3,1.3.54,2.61.8,4Zm51.91-9.55a2.22,2.22,0,0,1-2.18,2.13c-.27,0-.56,0-.84,0H6c-2.35,0-3-.71-3-3.06V56.79h86.6C89.59,58.08,89.63,59.32,89.58,60.56Z"/><path class="cls-1" d="M49.27,59.73a1.46,1.46,0,0,1-1.41,1.45c-.53,0-1.06,0-1.58,0s-1,0-1.5,0a1.47,1.47,0,0,1-1.46-1.5,1.44,1.44,0,0,1,1.4-1.46c1.06,0,2.12,0,3.18,0A1.44,1.44,0,0,1,49.27,59.73Z"/></g></g></g></svg>