<svg xmlns="http://www.w3.org/2000/svg" viewBox="0 0 75.32 75.33"><defs><style>.cls-1{fill:#5c8deb;}</style></defs><g id="Layer_2" data-name="Layer 2"><g id="Layer_1-2" data-name="Layer 1"><g id="urkIAj.tif"><path class="cls-1" d="M50.21,28.86a1.57,1.57,0,0,1-1.54,1.72,1.62,1.62,0,0,1-1.58-1.82V8.31c0-3.23-1.94-5.17-5.17-5.17q-16.82,0-33.62,0A4.78,4.78,0,0,0,3.12,8.32V43.24l.58-.51C5,41.47,6.23,40.2,7.51,38.94a4.78,4.78,0,0,1,7,0c1.45,1.43,2.86,2.89,4.32,4.36.26-.24.46-.42.64-.61C24.3,37.85,29.14,33,34,28.14a4.84,4.84,0,0,1,7.33,0l2,2a1.58,1.58,0,1,1-2.19,2.25C40.45,31.7,39.75,31,39,30.27a1.67,1.67,0,0,0-2.73,0L20.38,46.19c-1.21,1.21-1.88,1.21-3.08,0l-4.94-4.94a1.68,1.68,0,0,0-2.74,0c-2,2-4,4-6,6.05a1.71,1.71,0,0,0-.46,1.07c0,2.06,0,4.12,0,6.18a4.73,4.73,0,0,0,5.05,5.07H28.4c1.43,0,2.21.58,2.18,1.62s-.77,1.55-2.17,1.55H8.54C4,62.8,1.16,60.57.09,56.11a1.13,1.13,0,0,0-.09-.2V6.78c.12-.42.23-.84.36-1.25A7.75,7.75,0,0,1,7.67,0Q25.12,0,42.54,0a7.65,7.65,0,0,1,7.64,7.58C50.26,14.7,50.21,21.78,50.21,28.86Z"/><path class="cls-1" d="M75.06,51.57A20.4,20.4,0,1,0,49.19,74.48c1.33.38,2.72.58,4.08.85h3.38c.7-.11,1.4-.22,2.09-.35A20.41,20.41,0,0,0,75.06,51.57ZM54.47,72.2A17.27,17.27,0,1,1,72.2,55.4C71.8,65,63.83,72.59,54.47,72.2Z"/><path class="cls-1" d="M15.69,15.72A6.27,6.27,0,1,0,22,22,6.26,6.26,0,0,0,15.69,15.72Zm0,9.4A3.14,3.14,0,1,1,18.84,22,3.18,3.18,0,0,1,15.66,25.12Z"/><path class="cls-1" d="M65.92,54.93a1.58,1.58,0,0,1-1.53,1.57,6,6,0,0,1-.6,0H56.51v7.06c0,.27,0,.55,0,.81a1.59,1.59,0,0,1-1.57,1.54,1.54,1.54,0,0,1-1.53-1.56c0-2.29,0-4.6,0-6.9v-1H45.77c-1.12,0-1.81-.63-1.8-1.6s.67-1.53,1.78-1.53c2.25,0,4.5,0,6.76,0h.87V52.5q0-3.34,0-6.69c0-1.16.56-1.83,1.52-1.84s1.59.69,1.6,1.87v7.54c.3,0,.55,0,.81,0,2.36,0,4.7,0,7.06,0A1.53,1.53,0,0,1,65.92,54.93Z"/></g></g></g></svg>