<svg xmlns="http://www.w3.org/2000/svg" viewBox="0 0 81.62 82.45"><defs><style>.cls-1{fill:#5c8deb;}</style></defs><g id="Layer_2" data-name="Layer 2"><g id="Layer_1-2" data-name="Layer 1"><g id="_86vuzA.tif" data-name="86vuzA.tif"><path class="cls-1" d="M79.15,31.4Q70.36,40.19,61.57,49a4.37,4.37,0,0,0-.94,1.45Q57.54,58.73,54.5,67a14.31,14.31,0,0,1-10,9.32Q39,77.94,33.45,79.48a3.74,3.74,0,0,0-2,1.15A14.66,14.66,0,0,1,30.12,82a1.6,1.6,0,0,1-2.24-2.28c.81-.86,1.64-1.71,2.51-2.5a3.36,3.36,0,0,1,1.23-.55q6-1.71,12-3.39A11.15,11.15,0,0,0,51.45,66c1.2-3.26,2.42-6.52,3.63-9.79a1.54,1.54,0,0,0,.1-.77c-.19.19-.39.36-.58.56q-3.15,3.15-6.32,6.31a6.94,6.94,0,0,1-10.36,0c-.32-.32-.61-.66-1-1-.39.36-.69.67-1,.92A1.59,1.59,0,0,1,33.76,62a1.61,1.61,0,0,1-.06-2.13,8.9,8.9,0,0,1,.67-.7l9.79-9.79A3.12,3.12,0,0,0,45,46a3,3,0,0,0-2.66-2.13A3.22,3.22,0,0,0,39.58,45c-2.12,2.13-4.27,4.23-6.36,6.38a2.84,2.84,0,0,1-2.27.94,11,11,0,0,0-6.26,1.46,10.24,10.24,0,0,0-5.26,9,5.64,5.64,0,0,1-1.87,4.41C12.68,71.9,7.93,76.74,3.13,81.54a3.63,3.63,0,0,1-.73.63,1.53,1.53,0,0,1-2-.27,1.63,1.63,0,0,1-.14-2,6.22,6.22,0,0,1,.65-.71c4.92-4.92,9.84-9.82,14.73-14.75a1.79,1.79,0,0,0,.49-1.1c.14-6.4,3.13-10.88,9-13.4a1.86,1.86,0,0,0,.45-.36,4.23,4.23,0,0,1-.79-.43c-1.85-1.84-3.69-3.67-5.52-5.53a6.91,6.91,0,0,1,0-10.29q5-5,9.91-9.9a5.25,5.25,0,0,1,.66-.59A1.59,1.59,0,0,1,32.08,25a4,4,0,0,1-.64.72l-9.78,9.79c-1.89,1.89-1.9,4,0,5.85l7.17,7.17a1.84,1.84,0,0,0,2.62,0c2-2,4-4.08,6.1-6.08a6.39,6.39,0,0,1,10.74,3.31,6.28,6.28,0,0,1-1.88,6C44.24,53.88,42.11,56,40,58.16a6.43,6.43,0,0,1-.93.67c.79.73,1.32,1.33,1.95,1.81a3.59,3.59,0,0,0,4.41-.08,8.74,8.74,0,0,0,.77-.72L76.89,29.1c2-2,2-4,0-6Q67.73,13.89,58.53,4.69c-2-2-4-2-6,0q-4.94,4.93-9.86,9.84a6.13,6.13,0,0,1-.63.62,1.6,1.6,0,0,1-2.27-2.23,5,5,0,0,1,.38-.41c3.08-3.08,6.18-6.13,9.21-9.24A10.19,10.19,0,0,1,54.47,0h2.1c2.18.45,3.72,1.85,5.23,3.38C67.56,9.2,73.36,15,79.15,20.75,82.44,24.05,82.45,28.11,79.15,31.4Z"/><path class="cls-1" d="M71.13,26.94c-.7.75-1.43,1.45-2.15,2.17L54.85,43.23c-.22.22-.45.56-.72.61a2.66,2.66,0,0,1-1.58,0c-.43-.19-.68-.79-1.08-1.31a10.92,10.92,0,0,1,1-1.47Q60.51,33,68.58,25a2.5,2.5,0,0,1,.29-.27,1.57,1.57,0,0,1,2.3,0A1.61,1.61,0,0,1,71.13,26.94Z"/><path class="cls-1" d="M55.83,11.64a5.72,5.72,0,1,0,5.7,5.69A5.78,5.78,0,0,0,55.83,11.64Zm0,8.2a2.44,2.44,0,0,1-2.46-2.51,2.51,2.51,0,0,1,2.46-2.47,2.55,2.55,0,0,1,2.52,2.5A2.51,2.51,0,0,1,55.79,19.84Z"/><path class="cls-1" d="M37.3,32a4.31,4.31,0,0,1-.61,1c-1.68,1.73-3.4,3.44-5.11,5.13a1.64,1.64,0,0,1-2.37.15,1.59,1.59,0,0,1,.06-2.37c1.73-1.76,3.48-3.49,5.23-5.23a1.51,1.51,0,0,1,1.83-.39A1.62,1.62,0,0,1,37.3,32Z"/><path class="cls-1" d="M37.45,19.11a1.55,1.55,0,0,1-1.62,1.53A1.57,1.57,0,0,1,34.28,19a1.59,1.59,0,1,1,3.17.08Z"/></g></g></g></svg>