<svg xmlns="http://www.w3.org/2000/svg" xmlns:xlink="http://www.w3.org/1999/xlink" viewBox="0 0 245.55 245.55"><defs><style>.cls-1{fill:none;}.cls-2{fill:#5b80be;}.cls-3{fill:url(#çÓ_È_Ó·_ÁÂ_ËÂÌÚ_11);}.cls-4{fill:url(#çÓ_È_Ó·_ÁÂ_ËÂÌÚ_12);}.cls-5{fill:#3f3f3f;}.cls-6{fill:#55a65c;}.cls-7{fill:#1d3c90;}.cls-8{fill:#5ea37c;}.cls-9{fill:#51a775;}.cls-10{fill:#54a760;}.cls-11{fill:#579c59;}.cls-12{clip-path:url(#clip-path);}.cls-13{fill:url(#linear-gradient);}</style><linearGradient id="çÓ_È_Ó·_ÁÂ_ËÂÌÚ_11" x1="51.68" y1="193.87" x2="193.87" y2="51.68" gradientUnits="userSpaceOnUse"><stop offset="0" stop-color="#cbcbcb"/><stop offset="1" stop-color="#fff"/></linearGradient><radialGradient id="çÓ_È_Ó·_ÁÂ_ËÂÌÚ_12" cx="81.88" cy="182.39" r="186.82" gradientUnits="userSpaceOnUse"><stop offset="0" stop-color="#fff"/><stop offset="0.31" stop-color="#fafafa"/><stop offset="0.71" stop-color="#eaeaea"/><stop offset="1" stop-color="#dadada"/></radialGradient><clipPath id="clip-path"><path class="cls-1" d="M113.41,71.44l-2.06,4.32h-6.29l-2.15,4.62h20l-2.55,6.29h-10L108,91.27H95l-2.35,5.41h24.16l-2.65,6.71h-8.94l-2.06,4.09H95.35l-2,5h32.21a17.77,17.77,0,0,0,16.42-11l6.39-15.44,3.4-8.22,2.66-6.41H113.41Z"/></clipPath><linearGradient id="linear-gradient" x1="-1112.22" y1="-3545.84" x2="-1111.29" y2="-3545.84" gradientTransform="translate(74480.13 237245.29) scale(66.88)" gradientUnits="userSpaceOnUse"><stop offset="0" stop-color="#53a668"/><stop offset="0.21" stop-color="#51a36f"/><stop offset="0.52" stop-color="#4c9a83"/><stop offset="0.88" stop-color="#448ba4"/><stop offset="1" stop-color="#4186b0"/></linearGradient></defs><g id="Layer_2" data-name="Layer 2"><g id="Layer_1-2" data-name="Layer 1"><rect class="cls-2" width="245.55" height="245.55" rx="122.77"/><rect class="cls-3" x="22.23" y="22.23" width="201.08" height="201.08" rx="100.54"/><rect class="cls-4" x="24.81" y="24.81" width="195.93" height="195.93" rx="97.96"/><path class="cls-5" d="M102.15,139v7.95a4.35,4.35,0,0,1-.37,1.68,4.46,4.46,0,0,1-.4.73,4.51,4.51,0,0,1-.61.76,7.56,7.56,0,0,1-.88.72,6.5,6.5,0,0,1-1.15.61l0,0h0a2.45,2.45,0,0,1-1.32.18v-1.76a1.18,1.18,0,0,0,.7,0l.39-.18a3.28,3.28,0,0,0,.37-.22,4.41,4.41,0,0,0,.61-.46,3,3,0,0,0,.42-.48,3.68,3.68,0,0,0,.28-.45,2.4,2.4,0,0,0,.25-1v-8Z"/><path class="cls-5" d="M117.51,139v6a1.13,1.13,0,0,1-.09.45,1.16,1.16,0,0,1-.59.59,1,1,0,0,1-.43.09h-3.94v-3.66a4,4,0,0,0-8.07,0v1.36a4.07,4.07,0,0,0,.72,2.3,4,4,0,0,0,2.85,1.7,3.44,3.44,0,0,0,.46,0h2.25a2.13,2.13,0,0,1-.3.69,2.58,2.58,0,0,1-.49.55,2.32,2.32,0,0,1-.66.35,2.13,2.13,0,0,1-.76.13h-2.73v1.74h2.73a3.89,3.89,0,0,0,1.45-.27,4.25,4.25,0,0,0,1.21-.73,4,4,0,0,0,.87-1.09,3.83,3.83,0,0,0,.46-1.37h4a2.7,2.7,0,0,0,1.1-.22,2.89,2.89,0,0,0,1.53-1.52,2.8,2.8,0,0,0,.22-1.12v-6Zm-6.76,7.18h-2.68l-.15,0a2.32,2.32,0,0,1-1.82-2.27v-1.36a2.33,2.33,0,0,1,4.65,0Z"/><path class="cls-5" d="M140.47,138.48a4,4,0,0,0-4,4v1.35a4,4,0,0,0,.73,2.3h-13.1a1.07,1.07,0,0,1-.43-.09,1.16,1.16,0,0,1-.59-.59,1.08,1.08,0,0,1-.09-.44v-9.51H121.2v9.51a2.79,2.79,0,0,0,.23,1.11,2.73,2.73,0,0,0,.62.91,3,3,0,0,0,.91.61,2.7,2.7,0,0,0,1.1.22h16.41a4.06,4.06,0,0,0,4-4v-1.35a4,4,0,0,0-4-4m2.33,5.39a2.34,2.34,0,0,1-2,2.3,1.94,1.94,0,0,1-.34,0,1.88,1.88,0,0,1-.34,0,2.33,2.33,0,0,1-2-2.3v-1.35a2.33,2.33,0,0,1,4.66,0Z"/><path class="cls-5" d="M93.09,148.14a4,4,0,0,1-4-4v-1.35a4,4,0,0,1,8,0v1.35a4,4,0,0,1-4,4m0-7.71a2.35,2.35,0,0,0-2.35,2.34v1.35a2.35,2.35,0,1,0,4.69,0v-1.35a2.34,2.34,0,0,0-2.34-2.34"/><path class="cls-5" d="M139.47,136.15a1.08,1.08,0,1,0,1.08-1.08,1.08,1.08,0,0,0-1.08,1.08"/><path class="cls-5" d="M118.18,136.62a1.08,1.08,0,1,0,1.07-1.08,1.08,1.08,0,0,0-1.07,1.08"/><path class="cls-5" d="M115.54,136.62a1.08,1.08,0,1,0,1.08-1.08,1.08,1.08,0,0,0-1.08,1.08"/><path class="cls-5" d="M93.21,136.15a1.08,1.08,0,1,0,1.08-1.08,1.07,1.07,0,0,0-1.08,1.08"/><path class="cls-5" d="M90.57,136.15a1.08,1.08,0,1,0,1.08-1.08,1.08,1.08,0,0,0-1.08,1.08"/><polygon class="cls-5" points="90.6 157.76 90.6 161.32 96.06 161.32 96.06 162.76 90.6 162.76 90.6 168.23 88.86 168.23 88.86 156.21 96.81 156.21 96.81 157.76 90.6 157.76"/><path class="cls-5" d="M109.16,160.8v5a2.23,2.23,0,0,0,.12,1c.1.17.35.26.74.26a2.73,2.73,0,0,0,.73-.1l.11,0v1.42h-.08a7.83,7.83,0,0,1-1.08.07q-1.42,0-1.86-.72a2,2,0,0,1-.24-.91c0-.25,0-.84,0-1.75V160.8h-1.45v-1.34h1.45v-1.82l1.58-.66v2.48h1.7v1.34Z"/><path class="cls-5" d="M119.4,160.5a3.92,3.92,0,0,0-3.06-1.29,4.06,4.06,0,0,0-3.35,1.48,5,5,0,0,0-1,3.15,4.92,4.92,0,0,0,1.08,3.29,4.48,4.48,0,0,0,6.1.29,4.82,4.82,0,0,0,1.3-3.59,4.77,4.77,0,0,0-1.11-3.33m-1.4,6a2.27,2.27,0,0,1-1.69.65,2.42,2.42,0,0,1-1.88-.78,4.31,4.31,0,0,1,0-5,2.43,2.43,0,0,1,1.86-.77,2.3,2.3,0,0,1,1.8.79,4.38,4.38,0,0,1-.12,5.1"/><path class="cls-5" d="M129.22,160.5a4,4,0,0,0-3.06-1.29,4,4,0,0,0-3.35,1.48,5.57,5.57,0,0,0,.11,6.44,4,4,0,0,0,3.22,1.35,4,4,0,0,0,2.88-1.06,5.56,5.56,0,0,0,.2-6.92m-1.4,6a2.28,2.28,0,0,1-1.69.65,2.39,2.39,0,0,1-1.88-.78,4.31,4.31,0,0,1,0-5,2.41,2.41,0,0,1,1.86-.77,2.33,2.33,0,0,1,1.8.79,3.67,3.67,0,0,1,.76,2.46,3.63,3.63,0,0,1-.88,2.64"/><path class="cls-5" d="M136.92,159.21v1.66h-.1l-.44,0a2.43,2.43,0,0,0-1.8.73,2.87,2.87,0,0,0-.72,1.7,14.48,14.48,0,0,0-.07,1.54v3.43H132.2v-8.77h1.49V161a3.22,3.22,0,0,1,1.63-1.52,4.12,4.12,0,0,1,1.51-.24Z"/><path class="cls-5" d="M144.7,161.26a2.09,2.09,0,0,0-.57-1.17,3.73,3.73,0,0,0-2.73-.88,4,4,0,0,0-2.74.85,2.89,2.89,0,0,0-.95,2.18v.09h1.55v-.08a2.15,2.15,0,0,1,.36-1.1,2.11,2.11,0,0,1,1.66-.57c1.23,0,1.83.46,1.83,1.4a1,1,0,0,1-.16.6q-.24.33-1.26.45l-1.43.18a5.71,5.71,0,0,0-1.23.32,2.59,2.59,0,0,0-.82,4.34,3.09,3.09,0,0,0,2,.61,4.05,4.05,0,0,0,2.95-1.18v1.09h1.56v-6.12c0-.58,0-.91,0-1m-1.54,3.7a2.71,2.71,0,0,1-.06.67,1.74,1.74,0,0,1-.69.91,2.92,2.92,0,0,1-1.8.59,1.77,1.77,0,0,1-1.18-.35,1.19,1.19,0,0,1-.43-1,1.09,1.09,0,0,1,.67-1.06,5.73,5.73,0,0,1,1.69-.38,10.47,10.47,0,0,0,1.18-.17,2.41,2.41,0,0,0,.62-.23Z"/><path class="cls-5" d="M104.6,161.13A2,2,0,0,0,104,160a3.82,3.82,0,0,0-2.74-.87,4,4,0,0,0-2.74.85,2.88,2.88,0,0,0-.94,2.17v.09h1.55v-.08a2.1,2.1,0,0,1,.37-1.09,2.07,2.07,0,0,1,1.65-.58c1.24,0,1.84.46,1.84,1.4a1.07,1.07,0,0,1-.16.6,1.92,1.92,0,0,1-1.27.46l-1.43.17a5.87,5.87,0,0,0-1.23.32,2.42,2.42,0,0,0-1.66,2.42,2.35,2.35,0,0,0,.85,1.92,3.06,3.06,0,0,0,2,.61,4,4,0,0,0,3-1.18v1.09h1.57v-6.12c0-.58,0-.91,0-1m-1.54,3.7a2.81,2.81,0,0,1-.06.68,1.75,1.75,0,0,1-.68.91,2.94,2.94,0,0,1-1.8.58,1.75,1.75,0,0,1-1.18-.35,1.17,1.17,0,0,1-.44-1,1.1,1.1,0,0,1,.68-1.07,5.72,5.72,0,0,1,1.68-.37c.58-.07,1-.13,1.19-.18a2.21,2.21,0,0,0,.61-.23Z"/><path class="cls-6" d="M166.23,86.1l-12.39,31a17.44,17.44,0,0,1-16.16,11h-25.4l18-42h34.45Z"/><path class="cls-7" d="M161,77.87l-12.37,31a17.39,17.39,0,0,1-16.13,11H107.2l18-42h34.37Z"/><polygon class="cls-8" points="91.88 80.34 100.91 80.34 102.09 78.22 93.05 78.22 91.88 80.34"/><polygon class="cls-9" points="97.91 87.17 105.73 87.17 106.75 84.97 98.94 84.97 97.91 87.17"/><polygon class="cls-10" points="83.86 94.13 91.67 94.13 92.69 91.57 84.87 91.57 83.86 94.13"/><polygon class="cls-11" points="91.59 103.9 97.47 103.9 98.24 101.62 92.36 101.62 91.59 103.9"/><polygon class="cls-11" points="79.16 111.43 91.01 111.43 91.89 109.19 80.03 109.19 79.16 111.43"/><polygon class="cls-11" points="81.05 122.97 98.13 122.97 99.26 120.67 82.18 120.67 81.05 122.97"/><g class="cls-12"><rect class="cls-13" x="92.69" y="71.44" width="61.77" height="41.04"/></g></g></g></svg>