<svg xmlns="http://www.w3.org/2000/svg" xmlns:xlink="http://www.w3.org/1999/xlink" viewBox="0 0 245.55 245.55"><defs><style>.cls-1{fill:none;}.cls-2{fill:#5b80be;}.cls-3{fill:url(#çÓ_È_Ó·_ÁÂ_ËÂÌÚ_11);}.cls-4{fill:url(#çÓ_È_Ó·_ÁÂ_ËÂÌÚ_12);}.cls-5{fill:#3f3f3f;}.cls-6{clip-path:url(#clip-path);}.cls-7{fill:url(#linear-gradient);}.cls-8{clip-path:url(#clip-path-2);}.cls-9{fill:url(#linear-gradient-2);}.cls-10{clip-path:url(#clip-path-3);}.cls-11{fill:url(#linear-gradient-3);}.cls-12{clip-path:url(#clip-path-4);}.cls-13{fill:url(#linear-gradient-4);}.cls-14{clip-path:url(#clip-path-5);}.cls-15{fill:url(#linear-gradient-5);}.cls-16{clip-path:url(#clip-path-6);}.cls-17{fill:url(#linear-gradient-6);}.cls-18{clip-path:url(#clip-path-7);}.cls-19{fill:url(#linear-gradient-7);}.cls-20{clip-path:url(#clip-path-8);}.cls-21{fill:url(#linear-gradient-8);}.cls-22{clip-path:url(#clip-path-9);}.cls-23{fill:url(#linear-gradient-9);}.cls-24{clip-path:url(#clip-path-10);}.cls-25{fill:url(#linear-gradient-10);}.cls-26{clip-path:url(#clip-path-11);}.cls-27{fill:url(#linear-gradient-11);}.cls-28{clip-path:url(#clip-path-12);}.cls-29{fill:url(#linear-gradient-12);}.cls-30{clip-path:url(#clip-path-13);}.cls-31{fill:url(#linear-gradient-13);}.cls-32{clip-path:url(#clip-path-14);}.cls-33{fill:url(#linear-gradient-14);}.cls-34{clip-path:url(#clip-path-15);}.cls-35{fill:url(#linear-gradient-15);}.cls-36{clip-path:url(#clip-path-16);}.cls-37{fill:url(#linear-gradient-16);}.cls-38{clip-path:url(#clip-path-17);}.cls-39{fill:url(#linear-gradient-17);}.cls-40{clip-path:url(#clip-path-18);}.cls-41{fill:url(#linear-gradient-18);}.cls-42{clip-path:url(#clip-path-19);}.cls-43{fill:url(#linear-gradient-19);}.cls-44{clip-path:url(#clip-path-20);}.cls-45{fill:url(#linear-gradient-20);}.cls-46{clip-path:url(#clip-path-21);}.cls-47{fill:url(#linear-gradient-21);}.cls-48{clip-path:url(#clip-path-22);}.cls-49{fill:url(#linear-gradient-22);}.cls-50{clip-path:url(#clip-path-23);}.cls-51{fill:url(#linear-gradient-23);}.cls-52{clip-path:url(#clip-path-24);}.cls-53{fill:url(#linear-gradient-24);}</style><linearGradient id="çÓ_È_Ó·_ÁÂ_ËÂÌÚ_11" x1="51.68" y1="193.87" x2="193.87" y2="51.68" gradientUnits="userSpaceOnUse"><stop offset="0" stop-color="#cbcbcb"/><stop offset="1" stop-color="#fff"/></linearGradient><radialGradient id="çÓ_È_Ó·_ÁÂ_ËÂÌÚ_12" cx="81.88" cy="182.39" r="186.82" gradientUnits="userSpaceOnUse"><stop offset="0" stop-color="#fff"/><stop offset="0.31" stop-color="#fafafa"/><stop offset="0.71" stop-color="#eaeaea"/><stop offset="1" stop-color="#dadada"/></radialGradient><clipPath id="clip-path"><rect class="cls-1" x="84.79" y="72.64" width="39.93" height="0.76" transform="translate(-22.93 71.7) rotate(-34.29)"/></clipPath><linearGradient id="linear-gradient" x1="-815.28" y1="-3517.33" x2="-814.39" y2="-3517.33" gradientTransform="matrix(-99.35, 0, 0, 99.35, -80853.57, 349522.6)" gradientUnits="userSpaceOnUse"><stop offset="0" stop-color="#62b24f"/><stop offset="0.46" stop-color="#51b9b3"/><stop offset="1" stop-color="#0093d2"/></linearGradient><clipPath id="clip-path-2"><rect class="cls-1" x="85.52" y="70.81" width="31.99" height="0.76" transform="translate(-22.47 69.85) rotate(-34.42)"/></clipPath><linearGradient id="linear-gradient-2" x1="-815.28" y1="-3517.32" x2="-814.39" y2="-3517.32" gradientTransform="matrix(-99.35, 0, 0, 99.35, -80855.42, 349520.34)" xlink:href="#linear-gradient"/><clipPath id="clip-path-3"><rect class="cls-1" x="86.37" y="69.42" width="22.29" height="0.75" transform="translate(-22.38 67.22) rotate(-34.37)"/></clipPath><linearGradient id="linear-gradient-3" x1="-815.28" y1="-3517.32" x2="-814.38" y2="-3517.32" gradientTransform="matrix(-99.35, 0, 0, 99.35, -80853.11, 349500.65)" xlink:href="#linear-gradient"/><clipPath id="clip-path-4"><rect class="cls-1" x="87.52" y="68.99" width="9.27" height="0.76" transform="translate(-23.09 64.58) rotate(-34.59)"/></clipPath><linearGradient id="linear-gradient-4" x1="-815.28" y1="-3517.31" x2="-814.38" y2="-3517.31" gradientTransform="matrix(-99.35, 0, 0, 99.35, -80854.74, 349499.8)" xlink:href="#linear-gradient"/><clipPath id="clip-path-5"><polygon class="cls-1" points="138.01 90.52 138 90.51 132.66 94.16 132.66 94.17 105.15 112.92 105.72 113.75 101.98 116.37 102.28 116.79 94.32 122.34 94.75 122.96 103.53 116.83 106.43 114.8 134.37 95.75 133.8 94.91 138.72 91.55 138.44 91.14 156.39 78.91 155.96 78.28 138.01 90.52"/></clipPath><linearGradient id="linear-gradient-5" x1="-815.28" y1="-3517.37" x2="-814.38" y2="-3517.37" gradientTransform="matrix(-99.35, 0, 0, 99.35, -80825.61, 349536.56)" xlink:href="#linear-gradient"/><clipPath id="clip-path-6"><polygon class="cls-1" points="139.53 93.55 139.53 93.54 133.8 97.44 133.81 97.45 107.19 115.61 107.75 116.43 103.75 119.23 104.03 119.63 96.22 125.09 96.67 125.71 104.46 120.25 104.47 120.26 108.46 117.47 108.46 117.48 135.18 99.26 134.6 98.43 140.24 94.59 139.95 94.17 156.36 82.98 155.94 82.36 139.53 93.55"/></clipPath><linearGradient id="linear-gradient-6" x1="-815.28" y1="-3517.38" x2="-814.39" y2="-3517.38" gradientTransform="matrix(-99.36, 0, 0, 99.36, -80831.1, 349574.08)" xlink:href="#linear-gradient"/><clipPath id="clip-path-7"><polygon class="cls-1" points="140.99 96.62 140.99 96.62 136.25 99.84 136.25 99.85 109.08 118.38 109.64 119.21 105.97 121.77 106.26 122.17 98.38 127.69 98.81 128.31 106.69 122.79 106.69 122.8 110.35 120.25 110.36 120.26 137.54 101.72 136.97 100.88 141.69 97.66 141.42 97.25 156.34 87.07 155.91 86.45 140.99 96.62"/></clipPath><linearGradient id="linear-gradient-7" x1="-815.28" y1="-3517.38" x2="-814.39" y2="-3517.38" gradientTransform="matrix(-99.35, 0, 0, 99.35, -80825.18, 349561.86)" xlink:href="#linear-gradient"/><clipPath id="clip-path-8"><polygon class="cls-1" points="143.23 99.17 143.23 99.16 138.53 102.36 138.53 102.37 111.05 121.03 111.63 121.88 106.95 125.15 107.23 125.56 100.73 130.11 101.17 130.73 108.6 125.54 108.6 125.53 113.59 122.05 140.05 104.08 139.48 103.24 143.94 100.2 143.65 99.79 156.31 91.16 155.89 90.54 143.23 99.17"/></clipPath><linearGradient id="linear-gradient-8" x1="-815.28" y1="-3517.38" x2="-814.38" y2="-3517.38" gradientTransform="matrix(-99.35, 0, 0, 99.35, -80818.34, 349547.69)" xlink:href="#linear-gradient"/><clipPath id="clip-path-9"><polygon class="cls-1" points="145.99 101.35 145.98 101.33 140.84 104.84 140.84 104.84 117 121.1 117.57 121.92 111.93 125.87 112.22 126.28 103.42 132.43 103.85 133.05 113.43 126.35 118.28 122.97 118.28 122.97 142.27 106.62 141.69 105.78 146.69 102.38 146.41 101.97 156.29 95.23 155.87 94.6 145.99 101.35"/></clipPath><linearGradient id="linear-gradient-9" x1="-815.28" y1="-3517.38" x2="-814.38" y2="-3517.38" gradientTransform="matrix(-99.35, 0, 0, 99.35, -80815.9, 349551.28)" xlink:href="#linear-gradient"/><clipPath id="clip-path-10"><polygon class="cls-1" points="152.1 101.54 151.96 101.33 145.93 105.44 122.85 121.18 123.43 122.02 117.21 126.37 117.5 126.78 106.58 134.41 107.02 135.03 118.7 126.86 124.7 122.66 147.21 107.32 146.63 106.49 152.66 102.38 152.31 101.86 152.53 102.17 156.27 99.52 155.84 98.9 152.1 101.54"/></clipPath><linearGradient id="linear-gradient-10" x1="-815.28" y1="-3517.39" x2="-814.38" y2="-3517.39" gradientTransform="matrix(-99.35, 0, 0, 99.35, -80813.36, 349554.84)" xlink:href="#linear-gradient"/><clipPath id="clip-path-11"><polygon class="cls-1" points="152.2 105.25 152.2 105.23 148.8 107.55 148.79 107.55 135.22 116.81 135.8 117.64 130.06 121.66 130.34 122.08 109.65 136.55 110.08 137.16 131.59 122.13 136.63 118.61 136.62 118.6 150.07 109.43 149.51 108.59 152.91 106.28 152.62 105.87 156.18 103.44 155.76 102.82 152.2 105.25"/></clipPath><linearGradient id="linear-gradient-11" x1="-815.28" y1="-3517.39" x2="-814.38" y2="-3517.39" gradientTransform="matrix(-99.35, 0, 0, 99.35, -80810.98, 349558.26)" xlink:href="#linear-gradient"/><clipPath id="clip-path-12"><polygon class="cls-1" points="152.88 109 152.81 108.9 149.6 111.07 149.6 111.07 138.83 118.42 139.4 119.26 134.38 122.76 134.67 123.18 112.86 138.43 113.29 139.04 136.22 123.02 136.22 123.01 140.63 119.94 150.88 112.95 150.32 112.12 153.51 109.94 153.16 109.42 155.6 107.75 155.32 107.33 152.88 109"/></clipPath><linearGradient id="linear-gradient-12" x1="-815.28" y1="-3517.4" x2="-814.38" y2="-3517.4" gradientTransform="matrix(-99.35, 0, 0, 99.35, -80812.19, 349577.68)" xlink:href="#linear-gradient"/><clipPath id="clip-path-13"><polygon class="cls-1" points="109.57 73.35 109.56 73.34 104.47 76.82 104.47 76.81 92.19 85.18 92.76 86.02 89.84 88.06 90.14 88.47 88.01 89.97 88.44 90.59 91.08 88.74 94.15 86.59 105.74 78.69 105.17 77.86 110.27 74.39 109.99 73.98 127.16 62.27 126.73 61.65 109.57 73.35"/></clipPath><linearGradient id="linear-gradient-13" x1="-815.28" y1="-3517.33" x2="-814.38" y2="-3517.33" gradientTransform="matrix(-99.35, 0, 0, 99.35, -80846.48, 349508.33)" xlink:href="#linear-gradient"/><clipPath id="clip-path-14"><polygon class="cls-1" points="113.07 75.06 113.05 75.03 109.1 77.72 93.84 88.12 94.42 88.96 91.8 90.79 92.08 91.21 87.98 94.08 88.42 94.7 93.01 91.49 93.01 91.49 96.03 89.37 110.37 79.6 109.8 78.77 113.76 76.06 113.49 75.68 132.18 62.83 131.75 62.21 113.07 75.06"/></clipPath><linearGradient id="linear-gradient-14" x1="-815.28" y1="-3517.34" x2="-814.38" y2="-3517.34" gradientTransform="matrix(-99.35, 0, 0, 99.35, -80844.22, 349511.14)" xlink:href="#linear-gradient"/><clipPath id="clip-path-15"><polygon class="cls-1" points="116.24 76.93 116.22 76.9 111.84 79.89 111.86 79.9 95.5 91.05 96.08 91.9 92.54 94.37 92.83 94.78 87.95 98.19 88.39 98.81 93.69 95.1 97.71 92.3 113.31 81.65 112.73 80.8 116.93 77.94 116.66 77.55 136.81 63.69 136.38 63.06 116.24 76.93"/></clipPath><linearGradient id="linear-gradient-15" x1="-815.28" y1="-3517.34" x2="-814.38" y2="-3517.34" gradientTransform="matrix(-99.35, 0, 0, 99.35, -80842.03, 349514.02)" xlink:href="#linear-gradient"/><clipPath id="clip-path-16"><polygon class="cls-1" points="119.11 78.99 119.12 79.01 114.96 81.84 97.15 94 97.73 94.84 93.66 97.69 93.95 98.1 87.99 102.26 88.42 102.89 95.3 98.08 99.68 95.02 116.26 83.71 115.69 82.87 120.11 79.85 119.82 79.42 141.4 64.88 140.97 64.25 119.11 78.99"/></clipPath><linearGradient id="linear-gradient-16" x1="-815.28" y1="-3517.35" x2="-814.38" y2="-3517.35" gradientTransform="matrix(-99.35, 0, 0, 99.35, -80839.62, 349517.06)" xlink:href="#linear-gradient"/><clipPath id="clip-path-17"><polygon class="cls-1" points="122.87 80.53 122.87 80.52 117.89 83.91 117.89 83.92 98.81 96.93 99.37 97.76 95.72 100.31 96.02 100.73 88.33 106.09 88.77 106.71 97.27 100.78 97.26 100.78 100.09 98.8 100.09 98.81 119.2 85.77 118.63 84.93 123.58 81.56 123.3 81.15 145 66.36 144.57 65.73 122.87 80.53"/></clipPath><linearGradient id="linear-gradient-17" x1="-815.28" y1="-3517.35" x2="-814.38" y2="-3517.35" gradientTransform="matrix(-99.35, 0, 0, 99.35, -80837.54, 349520.11)" xlink:href="#linear-gradient"/><clipPath id="clip-path-18"><polygon class="cls-1" points="126.34 82.22 126.34 82.21 120.54 86.17 120.54 86.17 100.46 99.86 101.03 100.71 97.59 103.11 97.88 103.53 89.01 109.72 89.44 110.34 99.17 103.55 99.16 103.55 102.39 101.3 122.15 87.82 121.58 86.99 127.05 83.26 126.77 82.85 149.06 67.65 148.63 67.02 126.34 82.22"/></clipPath><linearGradient id="linear-gradient-18" x1="-815.28" y1="-3517.35" x2="-814.38" y2="-3517.35" gradientTransform="matrix(-99.35, 0, 0, 99.35, -80835.26, 349523)" xlink:href="#linear-gradient"/><clipPath id="clip-path-19"><polygon class="cls-1" points="131.54 82.83 131.53 82.82 126.22 86.45 126.22 86.46 101.99 102.88 102.57 103.73 98.25 106.75 98.54 107.17 89.97 113.15 90.41 113.77 99.71 107.28 99.71 107.27 104.33 104.04 127.67 88.22 127.09 87.38 132.25 83.86 131.97 83.45 152.66 69.34 152.24 68.71 131.54 82.83"/></clipPath><linearGradient id="linear-gradient-19" x1="-815.28" y1="-3517.36" x2="-814.38" y2="-3517.36" gradientTransform="matrix(-99.35, 0, 0, 99.35, -80832.9, 349525.99)" xlink:href="#linear-gradient"/><clipPath id="clip-path-20"><polygon class="cls-1" points="133.62 85.41 133.61 85.4 128.43 88.93 128.43 88.93 102.53 106.58 103.11 107.42 98.72 110.48 99.01 110.9 91.19 116.37 91.62 116.99 100.29 110.93 100.28 110.93 104.38 108.07 129.71 90.8 129.14 89.97 134.32 86.44 134.04 86.03 155.94 71.1 155.52 70.47 133.62 85.41"/></clipPath><linearGradient id="linear-gradient-20" x1="-815.28" y1="-3517.36" x2="-814.38" y2="-3517.36" gradientTransform="matrix(-99.35, 0, 0, 99.35, -80830.69, 349528.88)" xlink:href="#linear-gradient"/><clipPath id="clip-path-21"><polygon class="cls-1" points="135.27 88.34 135.26 88.33 130.32 91.7 103.28 110.14 103.85 110.97 99.76 113.82 100.07 114.26 92.62 119.41 93.05 120.03 101.11 114.45 101.09 114.43 104.56 112.01 104.56 112.01 131.59 93.58 131.03 92.74 135.97 89.37 135.69 88.96 156.41 74.84 155.99 74.21 135.27 88.34"/></clipPath><linearGradient id="linear-gradient-21" x1="-815.28" y1="-3517.37" x2="-814.39" y2="-3517.37" gradientTransform="matrix(-99.35, 0, 0, 99.35, -80832.6, 349550.43)" xlink:href="#linear-gradient"/><clipPath id="clip-path-22"><rect class="cls-1" x="112.12" y="127.15" width="45.58" height="0.76" transform="translate(-48.71 100.16) rotate(-34.91)"/></clipPath><linearGradient id="linear-gradient-22" x1="-815.21" y1="-3517.38" x2="-814.32" y2="-3517.38" gradientTransform="matrix(-99.21, 0, 0, 99.21, -80689.63, 349092.89)" xlink:href="#linear-gradient"/><clipPath id="clip-path-23"><polygon class="cls-1" points="118.98 143.1 119.41 143.72 150.91 121.82 150.48 121.2 118.98 143.1"/></clipPath><linearGradient id="linear-gradient-23" x1="-815.31" y1="-3517.32" x2="-814.42" y2="-3517.32" gradientTransform="matrix(-99.21, 0, 0, 99.21, -80697.02, 349091.39)" xlink:href="#linear-gradient"/><clipPath id="clip-path-24"><rect class="cls-1" x="128.84" y="134.59" width="16.85" height="0.75" transform="translate(-52.56 102.97) rotate(-34.95)"/></clipPath><linearGradient id="linear-gradient-24" x1="-815.31" y1="-3517.32" x2="-814.42" y2="-3517.32" gradientTransform="matrix(-99.21, 0, 0, 99.21, -80695.37, 349094.25)" xlink:href="#linear-gradient"/></defs><g id="Layer_2" data-name="Layer 2"><g id="Layer_1-2" data-name="Layer 1"><rect class="cls-2" width="245.55" height="245.55" rx="122.77"/><rect class="cls-3" x="22.23" y="22.23" width="201.08" height="201.08" rx="100.54"/><rect class="cls-4" x="24.81" y="24.81" width="195.93" height="195.93" rx="97.96"/><path class="cls-5" d="M70.74,152.91h-.9a.59.59,0,0,1-.31-.5.28.28,0,0,1,.24-.32h.06c.19,0,.33.13.36.37h.5c0-.6-.38-.91-.87-.91a.77.77,0,0,0-.81.7v.1a.82.82,0,0,0,.22.56h-.31v.54h1.82Z"/><path class="cls-5" d="M72.29,155c0,.41-.16.75-.7.75H68.4a.89.89,0,0,1-.92-.83v-1.45h-1v1.36a1.91,1.91,0,0,0,1.85,2H72a1.32,1.32,0,0,0,1.35-1.29v-5h-1Z"/><path class="cls-5" d="M75.07,156.89a.88.88,0,0,1-.84.92h-.51v1.05h.44a1.94,1.94,0,0,0,2-1.88V152.4H75.07Z"/><path class="cls-5" d="M87.62,157.51a.63.63,0,0,0-.08,1.26h.08a.63.63,0,0,0,.08-1.26h-.08"/><path class="cls-5" d="M91.87,155.33a.4.4,0,0,1-.36.41H90.29c-.19,0-.4-.06-.92-1.23-.91-2-2.35-2.72-4-2.12v1c1.37-.53,2.18,0,2.84,1.3a7.59,7.59,0,0,0,.58,1.09h-4a.56.56,0,0,1-.58-.54v-1.06a2,2,0,0,0-1.91-2h-.18a2,2,0,0,0-2,1.91v1.11a.57.57,0,0,1-.53.59h-.8a.38.38,0,0,1-.38-.38v-4.91h-1v5.25a1.08,1.08,0,0,0,1.06,1.09h1.11a1.45,1.45,0,0,0,1.19-.58,2.37,2.37,0,0,0,1.52.55,1.81,1.81,0,0,0,1.31-.6,1.41,1.41,0,0,0,1.22.62h7.07a1.07,1.07,0,0,0,1.09-1.05v-5.28h-1Zm-8.74-.57a.93.93,0,0,1-.9,1,1.35,1.35,0,0,1-1.09-.5v-1.08a.91.91,0,0,1,.85-1h.2a.91.91,0,0,1,1,.86.17.17,0,0,1,0,.1Z"/><rect class="cls-5" x="94.16" y="150.45" width="1.05" height="6.33"/><path class="cls-5" d="M98.41,152.14h-.1a2,2,0,0,0-2,1.9v.73a2,2,0,0,0,1.93,2h1.1v.17c0,.74-.55,1.14-2.36.82v1c2.22.52,3.41-.26,3.41-1.54v-3.06a1.94,1.94,0,0,0-1.89-2h-.09m.93,3.59H98.25a1,1,0,0,1-.89-.95v-.65a.91.91,0,0,1,.85-1h.2a.9.9,0,0,1,.94.86v1.7Z"/><path class="cls-5" d="M104.41,151.4a.63.63,0,1,0-.64-.64.64.64,0,0,0,.63.64Z"/><path class="cls-5" d="M106.19,151.4a.63.63,0,0,0,0-1.25.63.63,0,1,0,0,1.25"/><path class="cls-5" d="M109.71,157.81a.64.64,0,1,0,0,1.27.64.64,0,0,0,.63-.64h0a.64.64,0,0,0-.63-.63"/><path class="cls-5" d="M113.84,157.65a.63.63,0,1,0,.6.59.64.64,0,0,0-.6-.59"/><path class="cls-5" d="M114.25,155.69v-3.22h-1v2.86a.37.37,0,0,1-.36.41h-1.91c-.53,0-.7-.33-.7-.74v-2.52h-1.06V155a.62.62,0,0,1-.69.71h-.72a.55.55,0,0,1-.59-.53.06.06,0,0,1,0-.06v-3H105.1a1.94,1.94,0,0,0-2,1.9v.73a2,2,0,0,0,1.93,2,1.84,1.84,0,0,0,1.42-.58,1.64,1.64,0,0,0,1.3.6h.72a1.5,1.5,0,0,0,1.22-.51,1.48,1.48,0,0,0,1.09.51h2.36a1.07,1.07,0,0,0,1.09-1.06Zm-8.1-.49a1.3,1.3,0,0,1-1.08.5.9.9,0,0,1-.89-.94h0v-.62a.88.88,0,0,1,.83-.95h1.14Z"/><path class="cls-5" d="M112.06,157.65a.63.63,0,1,0-.08,1.26h.08a.63.63,0,0,0,0-1.26"/><path class="cls-5" d="M122.92,151.6a.64.64,0,0,0,.63-.64.64.64,0,0,0-1.27,0,.64.64,0,0,0,.64.64"/><path class="cls-5" d="M126.7,155.33a.38.38,0,0,1-.35.41h-1.07v-.8c0-1.87-.77-2.74-2.32-2.74a3.66,3.66,0,0,0-2.59,1.5v-1h-1v3.08h-1.45V152.4h-1v4.49a.87.87,0,0,1-.83.92h-.54v1.05h.46a1.92,1.92,0,0,0,2-1.88v-.19h8.78a1.08,1.08,0,0,0,1.08-1.08v-5.26h-1Zm-2.42.41h-3.91v-1a3.39,3.39,0,0,1,2.47-1.46c.82,0,1.43.49,1.43,1.7Z"/><rect class="cls-5" x="128.99" y="150.45" width="1.05" height="6.33"/><path class="cls-5" d="M133.24,152.14h-.1a1.93,1.93,0,0,0-2,1.9.14.14,0,0,0,0,.09v.64a2,2,0,0,0,1.93,2h1.09v.17c0,.74-.55,1.14-2.35.82v1c2.21.52,3.4-.26,3.4-1.54v-3.06a1.94,1.94,0,0,0-1.89-2h-.09m.93,3.59h-1.09a1,1,0,0,1-.89-.95v-.65a.91.91,0,0,1,.85-1h.2a.9.9,0,0,1,.94.86v1.7Z"/><path class="cls-5" d="M141,151.53a.64.64,0,0,0,.6-.67.65.65,0,0,0-.6-.6.63.63,0,0,0-.59.67.64.64,0,0,0,.59.6"/><path class="cls-5" d="M139.22,151.53a.64.64,0,0,0,.63-.64.63.63,0,1,0-.64.64Z"/><path class="cls-5" d="M140,152.13h-.14a1.94,1.94,0,0,0-2,1.94v.77a1.93,1.93,0,0,0,1.91,1.94h.26a1.87,1.87,0,0,0,1.86-1.87h0v-.83a1.93,1.93,0,0,0-1.93-1.94Zm.89,2.82a.77.77,0,0,1-.76.78h-.27a.91.91,0,0,1-.89-.9v-.76a.86.86,0,0,1,.84-.89,0,0,0,0,1,.05,0H140a.85.85,0,0,1,.89.83V155Z"/><path class="cls-5" d="M153,151.57a.62.62,0,0,0,.64-.62.64.64,0,0,0-1.27,0h0a.63.63,0,0,0,.63.63"/><path class="cls-5" d="M155.2,155.33a.39.39,0,0,1-.36.41h-1.25V152.4h-1.06v4.49a.86.86,0,0,1-.82.92h-.54v1.05h.45a1.94,1.94,0,0,0,2-1.88v-.2h1.57a1.06,1.06,0,0,0,1.08-1.05v-5.28h-1Z"/><rect class="cls-5" x="157.49" y="150.45" width="1.05" height="6.33"/><path class="cls-5" d="M162.72,151.4a.63.63,0,1,0,0-1.26.62.62,0,0,0-.63.62.64.64,0,0,0,.63.64Z"/><path class="cls-5" d="M164.51,151.4a.63.63,0,0,0,0-1.25.63.63,0,1,0,0,1.25"/><path class="cls-5" d="M168.74,151.08h-1a.6.6,0,0,1-.33-.52.29.29,0,0,1,.25-.33h.06a.4.4,0,0,1,.39.38h.53a.88.88,0,0,0-.92-1,.8.8,0,0,0-.87.72v.13a.89.89,0,0,0,.22.58h-.33v.59h2Z"/><path class="cls-5" d="M170.34,157.63a.63.63,0,1,0,.63.63h0a.64.64,0,0,0-.63-.63"/><path class="cls-5" d="M172.13,157.63a.64.64,0,0,0-.64.63.63.63,0,0,0,.63.63.64.64,0,0,0,.64-.63h0a.64.64,0,0,0-.63-.63"/><path class="cls-5" d="M175.56,152.29v.53a1.64,1.64,0,0,0-1.26,1.59v.48a1.24,1.24,0,0,0,.32.84h-2c-.53,0-.7-.33-.7-.74v-2.51h-1.06V155a.62.62,0,0,1-.69.71h-1.12c-.53,0-.7-.33-.7-.74v-2.51h-1V155c0,.41-.15.75-.69.75h-.53a.56.56,0,0,1-.59-.53v-3.08h-2.08a1.94,1.94,0,0,0-2,1.9v.73a2,2,0,0,0,1.94,2,1.83,1.83,0,0,0,1.41-.58,1.68,1.68,0,0,0,1.3.61h.54a1.56,1.56,0,0,0,1.23-.52,1.49,1.49,0,0,0,1.07.52h1.25a1.54,1.54,0,0,0,1.22-.52,1.53,1.53,0,0,0,1.09.52h5.82a2,2,0,0,0,2-2h0v-.63c0-1.49-1.9-2.6-4.72-1.91m-11.1,2.91a1.3,1.3,0,0,1-1.08.5.9.9,0,0,1-.89-.94h0v-.62a.89.89,0,0,1,.83-.95h1.14Zm12.5.54h-.91a.92.92,0,0,1-.86-.88v-.4a.89.89,0,0,1,1.76-.14.66.66,0,0,1,0,.14Zm1.33,0h-.44v-1.26a1.35,1.35,0,0,0-1.07-1.4c1.38-.13,2.41.4,2.44,1.12v.6a.94.94,0,0,1-.93.94"/><path class="cls-5" d="M150.61,155.05a1.73,1.73,0,0,1-1.73,1.73h-4.72a1.07,1.07,0,0,1-1.09-1.05v-5.28h1.05v4.88a.38.38,0,0,0,.35.41h4.35a.77.77,0,0,0,.76-.79v0c0-.57-.43-.86-1-.86h-2.72l-.2-.78,1.6-2.83,1,.38L147,153h1.59a2,2,0,0,1,2,2Z"/><polygon class="cls-5" points="70.27 166 70.27 166.83 66.44 166.83 66.44 166.17 68.92 162.5 66.59 162.5 66.59 161.68 70.17 161.68 70.17 162.35 67.71 166 70.27 166"/><path class="cls-5" d="M71.38,163.77l-.16-.61c1.23-.51,2.9-.55,2.9,1.07v2.59H73.2v-.47a1.6,1.6,0,0,1-1.19.52,1,1,0,0,1-1-.92v-.12c0-.85.84-1.44,2.22-1.38v-.21c0-.9-1-.8-1.83-.47m.45,2c0,.3.25.46.56.46a1.17,1.17,0,0,0,.82-.36V165c-.94-.1-1.38.39-1.38.76"/><path class="cls-5" d="M79.26,163.77l-.16-.61c1.22-.51,2.88-.55,2.88,1.07v2.59h-.91v-.47a1.58,1.58,0,0,1-1.19.52,1,1,0,0,1-1-.92v-.12c0-.85.84-1.44,2.23-1.38v-.21c0-.9-1-.8-1.83-.47m.45,2c0,.3.25.46.55.46a1.15,1.15,0,0,0,.82-.36V165c-.94-.1-1.37.39-1.37.76"/><path class="cls-5" d="M84,165.85a.35.35,0,0,0,.31.38h.08a1.32,1.32,0,0,0,.34,0v.66a4.37,4.37,0,0,1-.72.06c-.7,0-.92-.36-.92-1v-2.12h-.48l.12-.69h.36v-.92L84,162v1.14h.77l-.12.69H84Z"/><path class="cls-5" d="M86.14,168.08h-.55a9.16,9.16,0,0,0,.3-1.63l0-.27h.68l0,.26a7.75,7.75,0,0,1-.42,1.64"/><polygon class="cls-5" points="90.22 162.5 90.22 166.83 89.23 166.83 89.23 162.5 87.82 162.5 87.82 161.68 91.63 161.68 91.63 162.5 90.22 162.5"/><path class="cls-5" d="M92.78,163.77l-.16-.61c1.22-.51,2.89-.55,2.89,1.06v2.6H94.6v-.48a1.61,1.61,0,0,1-1.19.53,1,1,0,0,1-1-.93v-.11c0-.86.83-1.45,2.22-1.39v-.2c0-.9-1-.8-1.83-.47m.45,2c0,.3.24.46.56.46a1.13,1.13,0,0,0,.81-.36V165c-.94-.1-1.37.39-1.37.76"/><polygon class="cls-5" points="97.36 163.04 97.9 163.85 98.21 164.41 98.53 163.83 99.06 163.04 100.01 163.04 98.78 164.89 100.05 166.84 98.96 166.84 98.43 166.03 98.11 165.46 97.79 166.04 97.28 166.83 96.27 166.83 97.55 164.89 96.28 163.04 97.36 163.04"/><path class="cls-5" d="M102.78,163.77l-.16-.61c1.22-.51,2.88-.55,2.88,1.06v2.6h-.91v-.48a1.59,1.59,0,0,1-1.19.53,1,1,0,0,1-1-.93v-.11c0-.86.84-1.45,2.23-1.39v-.2c0-.9-1-.8-1.83-.47m.45,2c0,.3.24.46.56.46a1.15,1.15,0,0,0,.81-.36V165c-.93-.1-1.37.39-1.37.76"/><path class="cls-5" d="M106.49,166.82V163h.91v.35a2,2,0,0,1,1.23-.43c.76,0,1.14.44,1.14,1.23v2.62h-.91v-2.32c0-.42-.19-.65-.62-.65a1.44,1.44,0,0,0-.84.35v2.62Z"/><path class="cls-5" d="M112.11,166.88c-1,0-1.46-.85-1.46-2s.51-2,1.51-2a1.31,1.31,0,0,1,1,.43v-1.71h.91v5.17h-.91v-.39a1.44,1.44,0,0,1-1,.45m.33-3.21c-.54,0-.84.44-.84,1.23s.3,1.24.84,1.24a1.06,1.06,0,0,0,.7-.26v-2a1.27,1.27,0,0,0-.7-.25"/><path class="cls-5" d="M119,166.91c-1.65,0-2.33-1.08-2.33-2.65s.68-2.65,2.33-2.65a4.17,4.17,0,0,1,1.74.39v.76a5.69,5.69,0,0,0-1.63-.33c-1,0-1.44.62-1.44,1.83s.49,1.83,1.44,1.83a5.69,5.69,0,0,0,1.63-.33v.76a4.21,4.21,0,0,1-1.74.39"/><path class="cls-5" d="M125,163v3.81h-.91v-.37a1.88,1.88,0,0,1-1.24.44c-.76,0-1.13-.44-1.13-1.22V163h.91v2.34c0,.42.19.65.62.65a1.6,1.6,0,0,0,.84-.34V163Z"/><path class="cls-5" d="M125.85,166.61v-.68a3.32,3.32,0,0,0,1.31.32c.57,0,.72-.27.72-.46s-.37-.41-.78-.56-1.18-.43-1.18-1.18.58-1.25,1.65-1.25a2.76,2.76,0,0,1,1.29.31v.67a2.06,2.06,0,0,0-1.05-.3c-.6,0-.84.27-.84.49s.4.44.86.61,1.11.43,1.11,1.11-.67,1.25-1.59,1.25a3.53,3.53,0,0,1-1.5-.33"/><path class="cls-5" d="M130.82,165.85a.33.33,0,0,0,.3.38h.08a1.27,1.27,0,0,0,.34,0v.66a4.25,4.25,0,0,1-.71.06c-.71,0-.93-.36-.93-1v-2.12h-.48l.12-.69h.37v-.92l.91-.22v1.14h.77l-.13.69h-.64Z"/><path class="cls-5" d="M132.2,164.9c0-1.11.55-2,1.77-2a1.73,1.73,0,0,1,1.77,2c0,1.12-.56,2-1.77,2s-1.77-.86-1.77-2m.84,0c0,.74.3,1.32.93,1.32s.91-.58.91-1.32-.28-1.32-.91-1.32-.93.58-.93,1.32"/><path class="cls-5" d="M142.24,164.19v2.62h-.92v-2.32c0-.42-.19-.65-.62-.65a1.42,1.42,0,0,0-.83.36,1.37,1.37,0,0,1,0,.29v2.33H139v-2.33c0-.42-.19-.65-.61-.65a1.32,1.32,0,0,0-.82.35v2.62h-.91V163h.91v.5a1.62,1.62,0,0,1,1.21-.58,1,1,0,0,1,1,.62,1.83,1.83,0,0,1,1.32-.62c.77,0,1.15.44,1.15,1.23"/><path class="cls-5" d="M143.1,166.61v-.68a3.37,3.37,0,0,0,1.32.32c.56,0,.71-.27.71-.46s-.36-.41-.78-.56-1.17-.43-1.17-1.18.57-1.25,1.64-1.25a2.76,2.76,0,0,1,1.29.31v.67a2.06,2.06,0,0,0-1.05-.3c-.59,0-.84.27-.84.49s.41.44.86.61,1.11.43,1.11,1.11-.67,1.25-1.59,1.25a3.59,3.59,0,0,1-1.5-.33"/><path class="cls-5" d="M149.85,165.59l-.4,1.24h-1l1.92-5.19h.82l1.86,5.19h-1l-.41-1.24Zm.18-.74h1.46l-.72-2.17Z"/><path class="cls-5" d="M157.09,163v3.81h-.91v-.37a1.86,1.86,0,0,1-1.23.44c-.77,0-1.14-.44-1.14-1.22V163h.91v2.34c0,.42.19.65.62.65a1.6,1.6,0,0,0,.84-.34V163Z"/><path class="cls-5" d="M159.15,165.85a.34.34,0,0,0,.3.38h.08a1.32,1.32,0,0,0,.34,0v.66a4.37,4.37,0,0,1-.72.06c-.7,0-.92-.36-.92-1v-2.12h-.48l.12-.69h.37v-.92l.91-.22v1.14h.76l-.12.69h-.64Z"/><path class="cls-5" d="M163.89,164.19v2.62H163v-2.32c0-.42-.19-.63-.56-.64a1.52,1.52,0,0,0-.9.34v2.62h-.91v-5.13h.91v1.67a2,2,0,0,1,1.15-.43,1.15,1.15,0,0,1,1.23,1.27"/><path class="cls-5" d="M164.76,164.9a1.73,1.73,0,0,1,1.77-2c1.22,0,1.77.86,1.77,2s-.55,2-1.77,2-1.77-.86-1.77-2m.84,0c0,.74.3,1.32.93,1.32s.91-.58.91-1.32-.28-1.32-.91-1.32-.93.58-.93,1.32"/><path class="cls-5" d="M169.2,166.82V163h.91v.71a1.43,1.43,0,0,1,1.29-.71v.71a1.38,1.38,0,0,0-1.28.7v2.38Z"/><path class="cls-5" d="M172,162.22a.48.48,0,1,1,.48.48.49.49,0,0,1-.48-.48m.95,4.6h-.92v-3.69H173Z"/><path class="cls-5" d="M175.28,165.85a.35.35,0,0,0,.3.38h.09a1.32,1.32,0,0,0,.34,0v.66a4.37,4.37,0,0,1-.72.06c-.7,0-.92-.36-.92-1v-2.12h-.48l.12-.69h.36v-.92l.91-.22v1.14h.77l-.12.69h-.65Z"/><polygon class="cls-5" points="180.3 163.04 178.47 168.19 177.6 168.19 177.99 167.1 176.48 163.05 177.51 163.05 178.41 165.99 179.32 163.04 180.3 163.04"/><polygon class="cls-5" points="78.26 166.81 77.19 166.81 75.99 165.07 75.99 166.81 75.08 166.81 75.08 161.68 75.99 161.68 75.99 164.6 77.12 162.95 78.14 162.95 76.78 164.78 78.26 166.81"/><g class="cls-6"><rect class="cls-7" x="84.58" y="53.3" width="40.35" height="39.45" transform="translate(-22.1 87.65) rotate(-41.46)"/></g><g class="cls-8"><rect class="cls-9" x="85.27" y="55.31" width="32.48" height="31.76" transform="translate(-21.7 85.05) rotate(-41.46)"/></g><g class="cls-10"><rect class="cls-11" x="86.08" y="58.62" width="22.85" height="22.36" transform="translate(-21.78 82.06) rotate(-41.46)"/></g><g class="cls-12"><rect class="cls-13" x="87.18" y="64.49" width="9.94" height="9.75" transform="translate(-22.83 78.4) rotate(-41.46)"/></g><g class="cls-14"><rect class="cls-15" x="87.3" y="63.33" width="76.1" height="74.58" transform="translate(-35.21 108.22) rotate(-41.46)"/></g><g class="cls-16"><rect class="cls-17" x="89.41" y="67.88" width="73.77" height="72.3" transform="translate(-37.23 109.7) rotate(-41.46)"/></g><g class="cls-18"><rect class="cls-19" x="91.78" y="72.5" width="71.16" height="69.75" transform="translate(-39.18 111.23) rotate(-41.46)"/></g><g class="cls-20"><rect class="cls-21" x="94.39" y="77.17" width="68.27" height="66.93" transform="translate(-41.04 112.82) rotate(-41.46)"/></g><g class="cls-22"><rect class="cls-23" x="97.31" y="81.92" width="65.08" height="63.82" transform="translate(-42.83 114.51) rotate(-41.46)"/></g><g class="cls-24"><rect class="cls-25" x="100.85" y="86.98" width="61.15" height="59.97" transform="translate(-44.51 116.34) rotate(-41.46)"/></g><g class="cls-26"><rect class="cls-27" x="104.11" y="91.72" width="57.61" height="56.55" transform="translate(-46.14 118.08) rotate(-41.46)"/></g><g class="cls-28"><rect class="cls-29" x="107.72" y="97.16" width="53.02" height="52.06" transform="translate(-47.93 119.76) rotate(-41.47)"/></g><g class="cls-30"><rect class="cls-31" x="83.33" y="52.31" width="48.5" height="47.61" transform="translate(-23.44 90.31) rotate(-41.46)"/></g><g class="cls-32"><rect class="cls-33" x="82.76" y="51.65" width="54.63" height="53.61" transform="translate(-24.36 92.55) rotate(-41.46)"/></g><g class="cls-34"><rect class="cls-35" x="82.24" y="51.37" width="60.28" height="59.14" transform="translate(-25.42 94.7) rotate(-41.46)"/></g><g class="cls-36"><rect class="cls-37" x="81.89" y="51.41" width="65.61" height="64.32" transform="translate(-26.59 96.88) rotate(-41.46)"/></g><g class="cls-38"><rect class="cls-39" x="81.87" y="52.11" width="69.59" height="68.22" transform="translate(-27.85 98.85) rotate(-41.46)"/></g><g class="cls-40"><rect class="cls-41" x="82.19" y="52.57" width="73.68" height="72.22" transform="translate(-28.89 101.04) rotate(-41.46)"/></g><g class="cls-42"><rect class="cls-43" x="82.91" y="53.6" width="76.82" height="75.28" transform="translate(-30.01 103.19) rotate(-41.46)"/></g><g class="cls-44"><rect class="cls-45" x="83.9" y="54.86" width="79.33" height="77.74" transform="translate(-31.1 105.31) rotate(-41.46)"/></g><g class="cls-46"><rect class="cls-47" x="85.44" y="58.83" width="78.14" height="76.57" transform="translate(-33.1 106.78) rotate(-41.46)"/></g><g class="cls-48"><rect class="cls-49" x="111.91" y="105" width="46.01" height="45.06" transform="translate(-50.64 121.5) rotate(-41.53)"/></g><g class="cls-50"><rect class="cls-51" x="115.52" y="113.46" width="38.85" height="38" transform="translate(-53.86 122.17) rotate(-41.35)"/></g><g class="cls-52"><rect class="cls-53" x="128.53" y="126.41" width="17.48" height="17.11" transform="translate(-54.94 124.32) rotate(-41.35)"/></g></g></g></svg>