<svg xmlns="http://www.w3.org/2000/svg" xmlns:xlink="http://www.w3.org/1999/xlink" viewBox="0 0 245.55 245.55"><defs><style>.cls-1{fill:#5b80be;}.cls-2{fill:url(#çÓ_È_Ó·_ÁÂ_ËÂÌÚ_11);}.cls-3{fill:url(#çÓ_È_Ó·_ÁÂ_ËÂÌÚ_12);}.cls-4{fill:#e70505;}</style><linearGradient id="çÓ_È_Ó·_ÁÂ_ËÂÌÚ_11" x1="51.68" y1="193.87" x2="193.87" y2="51.68" gradientUnits="userSpaceOnUse"><stop offset="0" stop-color="#cbcbcb"/><stop offset="1" stop-color="#fff"/></linearGradient><radialGradient id="çÓ_È_Ó·_ÁÂ_ËÂÌÚ_12" cx="81.88" cy="182.39" r="186.82" gradientUnits="userSpaceOnUse"><stop offset="0" stop-color="#fff"/><stop offset="0.31" stop-color="#fafafa"/><stop offset="0.71" stop-color="#eaeaea"/><stop offset="1" stop-color="#dadada"/></radialGradient></defs><g id="Layer_2" data-name="Layer 2"><g id="Layer_1-2" data-name="Layer 1"><rect class="cls-1" width="245.55" height="245.55" rx="122.77"/><rect class="cls-2" x="22.23" y="22.23" width="201.08" height="201.08" rx="100.54"/><rect class="cls-3" x="24.81" y="24.81" width="195.93" height="195.93" rx="97.96"/><g id="qGElMb"><path class="cls-4" d="M151.05,106a6,6,0,0,0-4-3.61,7.43,7.43,0,0,0-3.72-.13,7,7,0,0,0-3.57,1.93,6,6,0,0,0-1.77,3.09,21.09,21.09,0,0,0-.19,2.76,2,2,0,0,1-2.47,2.15.82.82,0,0,1-.57-.39c-.43-.79-.77-1.62-1.21-2.41a7.07,7.07,0,0,0-3.22-2.78,9.14,9.14,0,0,0-3.93-.84c-2.35,0-4.7,0-7.06,0-.47,0-.94,0-1.4,0s-.63-.16-.43-.65a4.18,4.18,0,0,1,.43-.77,4.08,4.08,0,0,1,3-2c1-.12,2.07-.09,3.1-.11,1.7,0,3.39,0,5.08,0,.36,0,.49-.16.49-.48,0-.81,0-1.63,0-2.44,0-.47-.18-.63-.64-.62-2.39,0-4.77,0-7.16,0a9.36,9.36,0,0,0-5.61,1.84,8.38,8.38,0,0,0-3.06,4.54,15.43,15.43,0,0,0-.41,3.35c-.06.82,0,.82.78.82,4.12,0,8.23,0,12.34,0,1.71,0,3.28.48,4.18,2.17.3.58.17.86-.48.86H119.46v0h-9.41c-.31,0-.63,0-.94,0s-.59-.2-.54-.61a16,16,0,0,0,.24-1.81c0-2.36,0-4.71.06-7.06,0-.41-.21-.47-.54-.47-1.09,0-2.19,0-3.29,0-.65,0-.67,0-.67.66,0,2,0,4.08-.05,6.12a11.9,11.9,0,0,1-.31,2.13.93.93,0,0,1-.73.84c-.86.1-1.73.15-2.6.22-.41,0-.58-.17-.52-.57a13.9,13.9,0,0,0,.19-1.58c0-2.42,0-4.83.05-7.25,0-.44-.15-.58-.57-.57-1.1,0-2.2,0-3.3,0-.56,0-.61.05-.61.62,0,1.82,0,3.64,0,5.46a18.34,18.34,0,0,1-.29,2.66,1.44,1.44,0,0,1-1.47,1.22c-.47,0-.94,0-1.41,0-.75,0-.78,0-.78-.8v-8.34c0-.81,0-.81-.84-.82H88.2c-.73,0-.74,0-.74.74,0,3.09,0,6.19,0,9.28a14.57,14.57,0,0,1-.27,2.79,3,3,0,0,1-1.75,2.25,5.45,5.45,0,0,1-3.78.37,4.68,4.68,0,0,1-3.56-4.12,8.4,8.4,0,0,1,.36-4c.09-.24.14-.47-.18-.58l-3.47-1.16c-.35-.12-.61-.07-.71.35-.18.83-.44,1.64-.55,2.47a9.38,9.38,0,0,0,3,8.66,9,9,0,0,0,3.56,1.92,12,12,0,0,0,5.77.11c.46-.09.89-.27,1.35-.38a5.89,5.89,0,0,0,2.8-1.61,5.35,5.35,0,0,0,1.38-2.43c.19-.72.26-.73,1-.74a10.65,10.65,0,0,1,1.13,0,7.3,7.3,0,0,0,4.06-.92c.38-.2.57-.08.58.38s.16.54.54.53c1.57,0,3.14,0,4.71,0a5,5,0,0,0,1.35-.33c.39-.12.75-.32,1.14-.41.12,0,.42.17.42.26,0,.51.3.52.68.52h28.52a6.33,6.33,0,0,0,4-1.44.62.62,0,0,1,.77,0c.64.35,1.29.69,2,1a6.71,6.71,0,0,0,5.56-.31,5.76,5.76,0,0,0,2.74-2.54,6.81,6.81,0,0,0,.93-2.83A8.38,8.38,0,0,0,151.05,106Zm-3.28,2.79a3.23,3.23,0,0,1-1.37,3,3,3,0,0,1-4.45-1.33,3.43,3.43,0,0,1,.39-3.55,2.85,2.85,0,0,1,2.59-1.11A2.91,2.91,0,0,1,147.77,108.83Z"/><path class="cls-4" d="M144.59,142.62c0,.43,0,.85,0,1.28s-.11.64-.68.65c-.85,0-1.69,0-2.54,0-.6,0-.71-.11-.71-.72,0-2.54,0-5.09,0-7.63a10.24,10.24,0,0,0-.38-3.2,2.47,2.47,0,0,0-2.28-1.76,3.35,3.35,0,0,0-3.25,2.16,8.25,8.25,0,0,0-.53,3.18c0,2.41,0,4.83,0,7.24,0,.68-.07.75-.74.74-.86,0-1.73,0-2.59,0-.57,0-.61-.05-.61-.62,0-2.87,0-5.75-.05-8.62a7.73,7.73,0,0,0-.47-2.47,2.68,2.68,0,0,0-4.37-.85,4.16,4.16,0,0,0-1.44,3.09c-.09,2.93-.07,5.87-.08,8.8,0,.63,0,.66-.67.67h-2.68c-.53,0-.63-.1-.63-.63v-7.72h0q0-3.81,0-7.62c0-.6.06-.66.64-.66.91,0,1.82,0,2.73,0,.42,0,.61.15.56.59a2.36,2.36,0,0,0,0,.65,1.34,1.34,0,0,0,.14.38,1.31,1.31,0,0,0,.4-.17c.55-.39,1-.83,1.62-1.18a5.82,5.82,0,0,1,3.55-.63,4.75,4.75,0,0,1,3.78,2.46c.27.43.44.41.76,0a5.36,5.36,0,0,1,2.86-2.11,5.9,5.9,0,0,1,5.7.85,4.57,4.57,0,0,1,1.68,3.17C144.78,135.47,144.52,139.05,144.59,142.62Z"/><path class="cls-4" d="M90.19,136.25v-7.67c0-.63,0-.64-.63-.65H87.49c-1.15,0-1.14,0-1.25,1.1a.53.53,0,0,1-.18.38c-.07,0-.28,0-.37-.12a6.41,6.41,0,0,0-4.29-1.76,6.8,6.8,0,0,0-5.7,2.52,8.91,8.91,0,0,0-2,4.41,10.59,10.59,0,0,0,.33,5,8.45,8.45,0,0,0,1.77,3.07,7.56,7.56,0,0,0,3.43,2.27,6.11,6.11,0,0,0,3.94,0,14.16,14.16,0,0,0,2.1-1.12l.79-.4a3.3,3.3,0,0,1,.17.74c0,.42.14.61.57.6l2.73,0c.61,0,.64,0,.64-.63v-7.67Zm-3.94.66a1.1,1.1,0,0,1,0,.18v0s0,.1,0,.15l0,.19s0,.06,0,.08,0,.06,0,.09,0,.1,0,.16l0,.14h0a.94.94,0,0,1,0,.16.83.83,0,0,1,0,.15c0,.11-.06.21-.1.32a1,1,0,0,0,0,.1l-.08.2s0,.07,0,.1l0,.1a.31.31,0,0,1,0,.1l0,.08a.25.25,0,0,1,0,.07l-.09.15a4.28,4.28,0,0,1-4.89,1.59,4.7,4.7,0,0,1-3-4.32,5.46,5.46,0,0,1,1.21-4.08,3.74,3.74,0,0,1,2.07-1.31,4.36,4.36,0,0,1,4.93,2.11c0,.05,0,.1.07.14l.06.14a.3.3,0,0,1,0,.1l0,.11c0,.07,0,.14.07.22l0,.05v0s0,.07,0,.11l0,.15a.83.83,0,0,1,0,.15,3.62,3.62,0,0,1,.06.46.78.78,0,0,1,0,.16c0,.3,0,.61,0,.92v.26C86.27,136.6,86.26,136.76,86.25,136.91Z"/><path class="cls-4" d="M117.61,136.24v-7.67c0-.6,0-.63-.65-.64H114.7c-.92,0-1-.14-1,1a1.61,1.61,0,0,1-.17.54,2.66,2.66,0,0,1-.51-.24,6.4,6.4,0,0,0-2.65-1.45,7,7,0,0,0-5.86,1,8.61,8.61,0,0,0-2.83,3.66,11,11,0,0,0-.61,4.86,8.41,8.41,0,0,0,1.57,4.4,7.59,7.59,0,0,0,4.49,3.17,5.62,5.62,0,0,0,4-.35c.65-.31,1.25-.76,1.88-1.13a3.77,3.77,0,0,1,.59-.22c0,.17.12.34.16.51a2.06,2.06,0,0,1,0,.43c0,.34.14.47.48.46l2.78,0c.6,0,.64,0,.64-.64v-7.67Zm-4.56,3a3.88,3.88,0,0,1-2.79,2,4.19,4.19,0,0,1-3.61-.93,4.82,4.82,0,0,1-1.65-3.21,5.14,5.14,0,0,1,1.78-4.93,3.83,3.83,0,0,1,1.57-.79,4.27,4.27,0,0,1,2.93.3c1.87.94,2.51,2.53,2.44,4.67A5.09,5.09,0,0,1,113.05,139.25Z"/><path class="cls-4" d="M163.35,136.68c0-.7-.12-1.4-.2-2.1a8.08,8.08,0,0,0-1.88-4.26,7.35,7.35,0,0,0-3.88-2.51,10.32,10.32,0,0,0-4.85-.07,6.14,6.14,0,0,0-2.69,1.36,14.66,14.66,0,0,0-1.91,2.1,6.93,6.93,0,0,0-1.39,3.78,10.61,10.61,0,0,0,.25,4,8.34,8.34,0,0,0,1.53,3,7.78,7.78,0,0,0,5.26,2.95,8.72,8.72,0,0,0,6.87-1.62,5.1,5.1,0,0,0,1.66-1.9c-1-.5-1.88-1-2.78-1.43a.61.61,0,0,0-.76.12,5.51,5.51,0,0,1-1.1.78,5.1,5.1,0,0,1-5.62-.48,3.77,3.77,0,0,1-1.44-2.35c-.1-.59,0-.7.6-.7H162.7C163.26,137.33,163.38,137.25,163.35,136.68Zm-4.66-2.45h-7.52c-.59,0-.7-.2-.42-.73a4.2,4.2,0,0,1,2.18-2.15,6.41,6.41,0,0,1,2.3-.37,4.18,4.18,0,0,1,3.5,1.78,4,4,0,0,1,.42.72C159.36,134,159.18,134.23,158.69,134.23Z"/><path class="cls-4" d="M179.06,144.45a4.49,4.49,0,0,1-.59.09c-1.13,0-2.26.05-3.39,0a1.09,1.09,0,0,1-.78-.39c-1-1.34-1.91-2.71-2.85-4.07-.12-.17-.25-.33-.38-.48-.33-.39-.49-.39-.79,0l-2.37,3.43c-.25.37-.48.76-.77,1.11a1,1,0,0,1-.57.34c-1.24,0-2.48,0-3.72,0-.34,0-.36-.18-.18-.43l4-5.63a28.08,28.08,0,0,0,1.54-2.36,1,1,0,0,0-.1-.84c-1.17-1.7-2.37-3.38-3.56-5.07-.39-.54-.78-1.09-1.15-1.65s-.24-.63.3-.64c1.16,0,2.32,0,3.48,0a.76.76,0,0,1,.54.28c.69.95,1.35,1.92,2,2.88.23.32.44.65.68,1s.48.29.72-.05c.66-.91,1.3-1.84,1.94-2.77a9.91,9.91,0,0,1,.71-1,.94.94,0,0,1,.59-.3c1.14,0,2.29,0,3.43,0,.45,0,.54.19.29.56-.93,1.33-1.88,2.65-2.81,4-.65.92-1.27,1.86-1.92,2.77a1,1,0,0,0,.12,1.24l3.9,5.57C177.89,142.82,178.44,143.58,179.06,144.45Z"/><path class="cls-4" d="M102.4,128.45,100.61,131a.59.59,0,0,1-.66.22,2.5,2.5,0,0,0-3.2,1.88,10,10,0,0,0-.35,3.11c0,2.48,0,5,0,7.44,0,.86-.07.95-.93.95s-1.6,0-2.4,0c-.58,0-.7-.13-.7-.68V128.64c0-.57.11-.7.68-.7h2.68c.33,0,.45.13.45.45a7,7,0,0,0,.11.8c.41-.3.72-.51,1-.74a4,4,0,0,1,3.85-.86l1.12.35C102.57,128,102.55,128.24,102.4,128.45Z"/><path class="cls-4" d="M167.58,115.11a6.13,6.13,0,0,1-2.7,5,7.77,7.77,0,0,1-1,.58c-.49.25-.81.15-1.22-.36-.59-.73-1.16-1.47-1.74-2.21-.29-.38-.26-.48.17-.68a3,3,0,0,0,1.73-1.94,6.55,6.55,0,0,0,.32-1.69c0-3.57,0-7.15.06-10.73,0-.71,0-.74.73-.75,1.06,0,2.13,0,3.19,0,.39,0,.53.16.53.54,0,2.08,0,4.15,0,6.22h0C167.61,111.07,167.73,113.1,167.58,115.11Z"/><path class="cls-4" d="M159.28,114.57c0,.4,0,.81-.05,1.22s-.15.41-.44.4h-3.48c-.36,0-.51-.15-.51-.51,0-.52,0-1,0-1.55q0-7.48,0-15c0-.15,0-.31,0-.47,0-.38.2-.54.6-.53,1.05,0,2.1,0,3.15,0,.6,0,.66,0,.67.64,0,2.14,0,4.29,0,6.44v2h0C159.28,109.71,159.29,112.14,159.28,114.57Z"/><path class="cls-4" d="M176,115.7c0,.34-.11.5-.46.49-1.19,0-2.38,0-3.57,0-.41,0-.45-.24-.45-.55V99.18c0-1,0-1,1-1h2.78c.63,0,.66,0,.66.67v8.37h0Q176,111.48,176,115.7Z"/><path class="cls-4" d="M85.92,138.56c0-.11.07-.21.1-.32C86,138.35,86,138.45,85.92,138.56Z"/><path class="cls-4" d="M86.25,136.91c0-.15,0-.31,0-.47C86.27,136.6,86.26,136.76,86.25,136.91Z"/><path class="cls-4" d="M86.27,136.18v0c0-.31,0-.62,0-.92A7,7,0,0,1,86.27,136.18Z"/></g></g></g></svg>