<svg xmlns="http://www.w3.org/2000/svg" xmlns:xlink="http://www.w3.org/1999/xlink" viewBox="0 0 245.55 245.55"><defs><style>.cls-1{fill:#5b80be;}.cls-2{fill:url(#çÓ_È_Ó·_ÁÂ_ËÂÌÚ_11);}.cls-3{fill:url(#çÓ_È_Ó·_ÁÂ_ËÂÌÚ_12);}.cls-4{fill:#ff6500;}.cls-5{fill:#67009a;}</style><linearGradient id="çÓ_È_Ó·_ÁÂ_ËÂÌÚ_11" x1="51.68" y1="193.87" x2="193.87" y2="51.68" gradientUnits="userSpaceOnUse"><stop offset="0" stop-color="#cbcbcb"/><stop offset="1" stop-color="#fff"/></linearGradient><radialGradient id="çÓ_È_Ó·_ÁÂ_ËÂÌÚ_12" cx="81.88" cy="182.39" r="186.82" gradientUnits="userSpaceOnUse"><stop offset="0" stop-color="#fff"/><stop offset="0.31" stop-color="#fafafa"/><stop offset="0.71" stop-color="#eaeaea"/><stop offset="1" stop-color="#dadada"/></radialGradient></defs><g id="Layer_2" data-name="Layer 2"><g id="Layer_1-2" data-name="Layer 1"><rect class="cls-1" width="245.55" height="245.55" rx="122.77"/><rect class="cls-2" x="22.23" y="22.23" width="201.08" height="201.08" rx="100.54"/><rect class="cls-3" x="24.81" y="24.81" width="195.93" height="195.93" rx="97.96"/><g id="mfs986"><path class="cls-4" d="M181.9,105.56c-15.19,0-30.38,0-45.56,0a11.88,11.88,0,0,0-3.77.67,7.94,7.94,0,0,0-5.16,7.87,8.73,8.73,0,0,0,3.49,6.61c1.9,1.55,4,2.88,6,4.29a1.74,1.74,0,0,1,.94,2c-.19.79-.81,1.17-1.84,1.17-4,0-8.06,0-12.1,0-.6,0-.82-.15-.88-.64v8l7,0c3.41,0,6.83,0,10.24,0a10.06,10.06,0,0,0,3.07-.54A8,8,0,0,0,148,124.17a10.65,10.65,0,0,0-3.61-4.47c-1.72-1.29-3.52-2.47-5.29-3.7a1.63,1.63,0,0,1-.88-1.89,1.6,1.6,0,0,1,1.76-1.17h16.38a14.4,14.4,0,0,0-3.3,9.54,13.47,13.47,0,0,0,3.8,9.17,11.78,11.78,0,0,0,7.16,3.72A12.44,12.44,0,0,0,174.36,132v3.39h8.38V105.56Zm-7.63,19.35-.18.12-3.3-3.74-5.3,5.62L161,122l5.25-5.51-3.32-3.21L163,113h11.26ZM123,112.67v11c0-3.57,0-7.15,0-10.72C123,112.82,123,112.75,123,112.67Z"/><path class="cls-5" d="M150.43,148.33a3.69,3.69,0,0,0-3-2.57,3.62,3.62,0,0,0-4,1.59c-.08-.59-.13-1-.19-1.48l-.91.06v13.62h1v-5l.34.24a3.86,3.86,0,0,0,6.24-.59A6.51,6.51,0,0,0,150.43,148.33Zm-1.17,4.92a2.91,2.91,0,0,1-2.88,1.88,2.71,2.71,0,0,1-2.6-2,7.21,7.21,0,0,1,0-4.5,2.5,2.5,0,0,1,2.7-1.93,2.76,2.76,0,0,1,2.86,2.11A6.43,6.43,0,0,1,149.26,153.25Z"/><path class="cls-5" d="M131,154.86v.95h-7.83V141.68h7.51c0,.26,0,.52.06.9h-6.41v5.3h6.09v1.05h-4.53a4.52,4.52,0,0,0-1,0c-.21.06-.53.32-.54.5,0,1.76,0,3.51,0,5.43Z"/><path class="cls-5" d="M164.8,153.68a3,3,0,0,1-1.45,1.34c-2.23.88-4.27-1.06-4.11-4h7c0-.55,0-1-.07-1.49a4,4,0,0,0-2.83-3.8,4.11,4.11,0,0,0-4.61,1.94,6.84,6.84,0,0,0-.76,3.84c.14,3.33,2.6,5.22,5.66,4.32a3.61,3.61,0,0,0,2.51-2.82A1,1,0,0,0,164.8,153.68Zm-2.41-7.17c1.62,0,2.72,1.5,2.68,3.65h-5.78C159.28,148.16,160.54,146.47,162.39,146.51Z"/><path class="cls-5" d="M182.81,153.25A2.77,2.77,0,0,1,180.1,156a6.74,6.74,0,0,1-2.24-.07c-1.4-.3-2.05-1.2-2.22-2.86h1c.6,1.92,2,2.69,3.73,2a1.76,1.76,0,0,0,1.19-1.65,1.49,1.49,0,0,0-1.09-1.58c-.83-.31-1.69-.54-2.52-.86a2.8,2.8,0,0,1-1.93-1.64,2.51,2.51,0,0,1,1.23-3.2,4.64,4.64,0,0,1,3.84,0,2.18,2.18,0,0,1,1.37,2.3h-.94c-.51-1.7-1.71-2.18-3.53-1.45a1.84,1.84,0,0,0-.9,1.34,1.72,1.72,0,0,0,.8,1.31,18.42,18.42,0,0,0,2.64.95C182.2,151.07,182.92,152,182.81,153.25Z"/><path class="cls-5" d="M174.61,153a2.67,2.67,0,0,1-1.63,2.67,4.88,4.88,0,0,1-3.77.06,2.55,2.55,0,0,1-1.7-2.67h1c.32,1.94,1.89,2.63,3.82,1.84a1.68,1.68,0,0,0,1.07-1.64,1.47,1.47,0,0,0-1.07-1.51c-1.08-.39-2.19-.71-3.24-1.19a2.35,2.35,0,0,1-1.25-3.08,2.23,2.23,0,0,1,1.73-1.6,8.42,8.42,0,0,1,2.4-.16c1.49.14,2.18.95,2.41,2.62h-1a2.44,2.44,0,0,0-3.6-1.48,1.31,1.31,0,0,0-.84,1.39,2.19,2.19,0,0,0,.82,1.31,7.5,7.5,0,0,0,1.87.7c.46.16.93.28,1.38.47A2.31,2.31,0,0,1,174.61,153Z"/><path class="cls-5" d="M140.93,155.77c-.78.17-1.35.17-1.85-.58-.81-1.21-1.72-2.36-2.65-3.61l-2.33,3.36c-.69,1-.69,1-2,.84l3.67-5L132.32,146a1.49,1.49,0,0,1,1.94.75c.67,1.07,1.49,2.05,2.31,3.15.8-1.1,1.6-2.09,2.27-3.16a1.49,1.49,0,0,1,1.92-.76l-2,2.73c-.38.52-.74,1.06-1.16,1.53s-.28.68,0,1.07C138.72,152.74,139.79,154.22,140.93,155.77Z"/><path class="cls-5" d="M157.68,145.76v1c-.14,0-.25,0-.35,0a2.45,2.45,0,0,0-2.89,2.5c-.12,1.63-.08,3.28-.11,4.91,0,.51,0,1,0,1.56h-1.09v-9.89h1c0,.41.06.79.11,1.35A3.21,3.21,0,0,1,157.68,145.76Z"/></g><path class="cls-5" d="M123.48,112.9v-.23a6,6,0,0,0-.9-3,8.41,8.41,0,0,0-7.67-4.14q-22.65-.06-45.32,0a9,9,0,0,0-4.83,1.37,8.14,8.14,0,0,0-2.51,11.32,18,18,0,0,0,5.53,5.1c1,.68,2,1.34,3,2a1.44,1.44,0,0,1,.59,1.7,1.38,1.38,0,0,1-1.42,1H61v7.44H73.53a9,9,0,0,0,5.51-1.8,8.14,8.14,0,0,0,2.82-8.79,9.21,9.21,0,0,0-3.16-4.61c-1.93-1.53-4-2.88-6-4.3-.85-.61-1.12-1.17-.88-2A1.54,1.54,0,0,1,73.55,113q6.09,0,12.18,0c.25,0,.51,0,.85,0v22.42h8.51V113h5.69v22.42h8.51V112.88c1.47.11,2.84.11,4.18.32s1.55.78,1.55,2c0,6.39,0,12.77,0,19.15,0,1.12,0,1.13,1,1.13l7.4,0v-8a3,3,0,0,1,0-.32c0-1.19,0-2.39,0-3.58Z"/></g></g></svg>