<svg xmlns="http://www.w3.org/2000/svg" xmlns:xlink="http://www.w3.org/1999/xlink" viewBox="0 0 245.55 245.55"><defs><style>.cls-1{fill:#5b80be;}.cls-2{fill:url(#çÓ_È_Ó·_ÁÂ_ËÂÌÚ_11);}.cls-3{fill:url(#çÓ_È_Ó·_ÁÂ_ËÂÌÚ_12);}.cls-4{fill:#fcfdfd;}.cls-5{fill:#203d40;}.cls-6{fill:#59c3db;}</style><linearGradient id="çÓ_È_Ó·_ÁÂ_ËÂÌÚ_11" x1="51.68" y1="193.87" x2="193.87" y2="51.68" gradientUnits="userSpaceOnUse"><stop offset="0" stop-color="#cbcbcb"/><stop offset="1" stop-color="#fff"/></linearGradient><radialGradient id="çÓ_È_Ó·_ÁÂ_ËÂÌÚ_12" cx="81.88" cy="182.39" r="186.82" gradientUnits="userSpaceOnUse"><stop offset="0" stop-color="#fff"/><stop offset="0.31" stop-color="#fafafa"/><stop offset="0.71" stop-color="#eaeaea"/><stop offset="1" stop-color="#dadada"/></radialGradient></defs><g id="Layer_2" data-name="Layer 2"><g id="Layer_1-2" data-name="Layer 1"><rect class="cls-1" width="245.55" height="245.55" rx="122.77"/><rect class="cls-2" x="22.23" y="22.23" width="201.08" height="201.08" rx="100.54"/><rect class="cls-3" x="24.81" y="24.81" width="195.93" height="195.93" rx="97.96"/><g id="I5Butl"><path class="cls-4" d="M108.09,109.25l.91.54h0Z"/><path class="cls-5" d="M172.08,134.84c-1.61,4.63-5.27,6.24-9.76,6.61-.87.07-1.74.06-2.61.06q-25.41,0-50.83,0a1.89,1.89,0,0,0-2,1.16c-2.8,5.28-7.45,7.93-13.19,8.78A27.53,27.53,0,0,1,80,150.36c-6.16-2.27-9.5-6.87-10.42-13.19-.76-5.22-.27-10.49-.32-15.74,0-.05.07-.11.18-.25,2.38,1.52,4.89,2.84,7.2,4.51a52.45,52.45,0,0,0,.23,10.92c.67,3.83,2.75,6.57,6.59,7.72a20,20,0,0,0,9.6.35c4.72-.9,7.61-3.87,8.22-8.6.52-4.15.19-8.34.24-12.5V105.36l6.55,3.89.91.54h0c0,.38,0,.76,0,1.15,0,7.57,0,15.15,0,22.72,0,.92.26,1.2,1.18,1.17q2.65-.11,5.31,0c.83,0,1.07-.23,1.06-1.05,0-4.28,0-8.55,0-12.82,0-.71.17-1,.92-1,2.19.05,4.38,0,6.57,0,0,4.55,0,9.1,0,13.65,0,1,.27,1.16,1.17,1.13,2-.06,4.1,0,6.15,0,.69,0,.88-.22.87-.9,0-3.33,0-6.67,0-10,0-.73.2-1,.94-.94,2.18.05,4.37,0,6.56,0,0,3.61,0,7.22,0,10.83,0,.54-.06,1,.76,1,3.09,0,6.18,0,9.27,0,.51,0,.8-.16.79-.7,0-2.29.13-4.58-.08-6.86,0-1.15.06-2.29,0-3.43,0-.6.12-.87.8-.86,2,.05,3.95,0,5.92,0,.59,0,.78.18.77.77,0,1.17,0,2.35,0,3.53,0,2.12,0,4.24-.09,6.35,0,1,.31,1.22,1.24,1.21C163.46,134.79,167.77,134.83,172.08,134.84Z"/><path class="cls-6" d="M101.3,136.08c-.61,4.73-3.5,7.7-8.22,8.6a20,20,0,0,1-9.6-.35c-3.84-1.15-5.92-3.89-6.59-7.72a52.45,52.45,0,0,1-.23-10.92,8.16,8.16,0,0,1,2.27,1.22c1.45.82,2.83,1.76,4.28,2.59a1.33,1.33,0,0,1,.74,1.35c0,1.11,0,2.23,0,3.34a4,4,0,0,0,4,4,20,20,0,0,0,2.19,0,3.67,3.67,0,0,0,3.68-3.2,41.76,41.76,0,0,0,.11-8.94c-.15-2.31-1.71-3.76-3.63-4.89q-4.14-2.45-8.19-5a11.46,11.46,0,0,1-5.43-9.24,37,37,0,0,1,.17-9.46c.89-5.14,4.09-8.2,9.31-8.69a26,26,0,0,1,6.76.13,9.75,9.75,0,0,1,8.57,9.44c.13,1.83.13,3.68.19,5.52,0,.41.12.94-.23,1.18s-.74-.21-1.07-.41c-1.8-1.07-3.58-2.14-5.36-3.23-.41-.24-.81-.46-.8-1.09,0-4.26-2.79-5.21-6.1-4.85-2.68.28-3.93,1.75-4,4.46a40.79,40.79,0,0,0,.12,6.35,5.82,5.82,0,0,0,3,4.26c2.89,1.75,5.78,3.47,8.64,5.26a11,11,0,0,1,5.23,7.08c.06.26.09.56.37.73C101.49,127.74,101.82,131.93,101.3,136.08Z"/><path class="cls-6" d="M133,101.73a18.85,18.85,0,0,0-.87-6,9.12,9.12,0,0,0-9-6.65H110.37c-1.34,0-1.33,0-1.34,1.36,0,3.22,0,6.43,0,9.65s0,6.43,0,9.65c0,.38,0,.76,0,1.15,0,7.57,0,15.15,0,22.72,0,.92.26,1.2,1.18,1.17q2.65-.11,5.31,0c.83,0,1.07-.23,1.06-1.05,0-4.28,0-8.55,0-12.82,0-.71.17-1,.92-1,2.19.05,4.38,0,6.57,0a7.31,7.31,0,0,0,3.12-.75c3.69-1.81,5.14-5.08,5.66-8.9A62.29,62.29,0,0,0,133,101.73Zm-7.56,7.15c-.09,2.91-1.69,4.24-4.88,4.39-1,0-2.08,0-3.12,0-.7,0-.89-.29-.88-.94,0-1.14,0-2.27,0-3.4v-4.42c0-1.35,0-2.71,0-4.06,0-1.18,0-2.36,0-3.55,0-.7.18-1,.94-1,1.31.06,2.64,0,4,.06a3.89,3.89,0,0,1,3.9,3.72A65,65,0,0,1,125.43,108.88Z"/><path class="cls-6" d="M150.51,134.11c0,.54-.28.7-.79.7-3.09,0-6.18,0-9.27,0-.82,0-.76-.47-.76-1,0-3.61,0-7.22,0-10.83,0-10.85,0-21.7,0-32.55,0-1.06.27-1.39,1.34-1.32a49.05,49.05,0,0,0,5,0c1,0,1.23.3,1.23,1.24q0,17.75,0,35.47c0,1.47,0,1.48,1.44,1.48l1.77,0C150.64,129.53,150.48,131.82,150.51,134.11Z"/><path class="cls-6" d="M184.22,128.29c-1.19,2-2.39,3.91-3.56,5.88a1.3,1.3,0,0,1-1.29.66c-2.43,0-4.86,0-7.29,0-4.31,0-8.62-.05-12.93,0-.93,0-1.29-.21-1.24-1.21.09-2.11.07-4.23.09-6.35h14.92l10.73,0C184.75,127.3,184.78,127.35,184.22,128.29Z"/><path class="cls-5" d="M172.92,115.63v11.65h-7.47c0-2.18,0-4.37,0-6.55a1,1,0,0,1,.49-1c2.21-1.31,4.39-2.65,6.59-4A2.32,2.32,0,0,1,172.92,115.63Z"/><path class="cls-5" d="M125,150.08c-1.47,1.43-2.91,2.89-4.36,4.34a2.08,2.08,0,0,1-.37.28c-.17-.14-.33-.25-.48-.39-1.37-1.38-2.74-2.76-4.13-4.12-.35-.34-.4-.56,0-.92q2.13-2.07,4.21-4.2c.37-.38.59-.3.92.05,1.36,1.39,2.75,2.75,4.13,4.13C125.15,149.5,125.41,149.68,125,150.08Z"/><path class="cls-4" d="M116.56,109c0,1.13,0,2.26,0,3.4C116.56,111.21,116.56,110.08,116.56,109Z"/><path class="cls-4" d="M116.56,104.53v2.1c0-.7,0-1.4,0-2.1,0-1.35,0-2.71,0-4.06C116.56,101.82,116.55,103.18,116.56,104.53Z"/></g></g></g></svg>