<svg xmlns="http://www.w3.org/2000/svg" xmlns:xlink="http://www.w3.org/1999/xlink" viewBox="0 0 245.55 245.55"><defs><style>.cls-1{fill:#5b80be;}.cls-2{fill:url(#çÓ_È_Ó·_ÁÂ_ËÂÌÚ_11);}.cls-3{fill:url(#çÓ_È_Ó·_ÁÂ_ËÂÌÚ_12);}.cls-4{fill:#d90000;}</style><linearGradient id="çÓ_È_Ó·_ÁÂ_ËÂÌÚ_11" x1="51.68" y1="193.87" x2="193.87" y2="51.68" gradientUnits="userSpaceOnUse"><stop offset="0" stop-color="#cbcbcb"/><stop offset="1" stop-color="#fff"/></linearGradient><radialGradient id="çÓ_È_Ó·_ÁÂ_ËÂÌÚ_12" cx="81.88" cy="182.39" r="186.82" gradientUnits="userSpaceOnUse"><stop offset="0" stop-color="#fff"/><stop offset="0.31" stop-color="#fafafa"/><stop offset="0.71" stop-color="#eaeaea"/><stop offset="1" stop-color="#dadada"/></radialGradient></defs><g id="Layer_2" data-name="Layer 2"><g id="Layer_1-2" data-name="Layer 1"><rect class="cls-1" width="245.55" height="245.55" rx="122.77"/><rect class="cls-2" x="22.23" y="22.23" width="201.08" height="201.08" rx="100.54"/><rect class="cls-3" x="24.81" y="24.81" width="195.93" height="195.93" rx="97.96"/><g id="ptharb"><path class="cls-4" d="M66.68,123.72c-.47.87-.82,1.62-1.25,2.27-.12.19-.47.12-.71.12q-10.57,0-21.13,0l-.75,0v-2.38a2.58,2.58,0,0,1,.4,0H66.68Z"/><path class="cls-4" d="M202.34,132v2.38c-.23,0-.47.05-.7.05H179.12c-.11,0-.22,0-.47-.06.41-.8.74-1.54,1.15-2.18.13-.19.47-.16.71-.16h16.3Z"/><path class="cls-4" d="M64.47,127.92c-.43.83-.77,1.54-1.15,2.2-.07.12-.28.12-.42.12H43.18a2,2,0,0,1-.34-.06v-2.38c.25,0,.5,0,.74,0H63.45C63.74,127.86,64,127.89,64.47,127.92Z"/><path class="cls-4" d="M202.34,127.81v2.38c-.22,0-.43.06-.65.06H181l-.09-.17c.38-.71.74-1.44,1.15-2.1.11-.17.41-.12.62-.12h18.94C201.84,127.85,202.09,127.82,202.34,127.81Z"/><path class="cls-4" d="M62.29,132.11c-.43.81-.77,1.51-1.14,2.18a.46.46,0,0,1-.37.14H43a.83.83,0,0,1-.15,0V132l3.79,0h14.8C61.67,132,61.91,132.08,62.29,132.11Z"/><path class="cls-4" d="M202.34,123.75v2.38l-11.21,0h-7.37c-.21,0-.42,0-.77-.06.44-.81.78-1.51,1.16-2.16a.49.49,0,0,1,.41-.17q8.82,0,17.63,0A.8.8,0,0,1,202.34,123.75Z"/><path class="cls-4" d="M154.6,102.74c-.32.65-.59,1.25-.89,1.82-1.29,2.46-2.6,4.9-3.89,7.35q-2.35,4.47-4.69,9a.91.91,0,0,1-.87.61H109.58a5.36,5.36,0,0,1-.65-.08c.55-1.06,1-2,1.52-2.92,1.2-2.22,2.43-4.42,3.62-6.66,1.5-2.83,3-5.69,4.47-8.51a1,1,0,0,1,.73-.55c4.53,0,9.07-.06,13.6-.07a5.41,5.41,0,0,1,.56.07l-5.5,10.53a3.76,3.76,0,0,0,.43.08c1.86,0,3.72,0,5.58,0a.82.82,0,0,0,.59-.44c1.74-3.27,3.46-6.56,5.19-9.83a.74.74,0,0,1,.51-.41c4.69,0,9.37,0,14.06,0A1.44,1.44,0,0,1,154.6,102.74Z"/><path class="cls-4" d="M108.32,112.38a7.45,7.45,0,0,1-.67,2.52c-1,2.09-2.12,4.11-3.21,6.14a.79.79,0,0,1-.57.41q-5.66,0-11.31,0a2.35,2.35,0,0,1-.69-.14c-.62-.22-.77-.67-.41-1.42.44-.93.92-1.83,1.38-2.74s1.08-2.06,1.59-3.12c.44-.88.28-1.33-.49-1.48a4.41,4.41,0,0,0-.89-.1H65.75c.82-1.57,1.55-3,2.29-4.38.83-1.6,1.69-3.17,2.51-4.78a1,1,0,0,1,1-.67H99.16a10.39,10.39,0,0,1,5,1C106.52,104.84,108.7,108.08,108.32,112.38Z"/><path class="cls-4" d="M103,123.77c-.36.64-.63,1.16-.93,1.64A24,24,0,0,1,97.5,131a13.4,13.4,0,0,1-8.71,3.43H63.73c.2-.44.32-.73.46-1,3.11-5.94,6.23-11.86,9.33-17.81.33-.63.67-.87,1.23-.87,3.82,0,7.64,0,11.46,0a4.68,4.68,0,0,1,1,.1c.62.12.82.66.5,1.44-.26.62-.58,1.19-.88,1.78-.7,1.34-1.4,2.66-2.09,4-.49.94-.34,1.44.49,1.58a5.28,5.28,0,0,0,.89,0h16.3A5.84,5.84,0,0,1,103,123.77Z"/><path class="cls-4" d="M181.58,123.75c-.22.45-.36.79-.52,1.1-1.6,3-3.19,6.08-4.8,9.1a.89.89,0,0,1-.65.46q-11.91,0-23.82,0a6.89,6.89,0,0,1-3.86-1.14c-2-1.32-2.6-4-1.25-6.46.46-.85.87-1.76,1.35-2.6a1,1,0,0,1,.68-.51q16.15,0,32.29,0C181.15,123.71,181.3,123.73,181.58,123.75Z"/><path class="cls-4" d="M174.86,102.71c-.16.34-.26.6-.38.83l-8.33,15.88a3.24,3.24,0,0,0-.36.66,1.75,1.75,0,0,1-2,1.42c-4.51-.06-9,0-13.51,0-.21,0-.41,0-.74-.07.31-.6.55-1.09.8-1.57l7-13.35c.59-1.12,1.17-2.26,1.79-3.35a.89.89,0,0,1,.64-.47c4.87,0,9.74,0,14.6,0A5.09,5.09,0,0,1,174.86,102.71Z"/><path class="cls-4" d="M143.55,123.77a7.76,7.76,0,0,1-.32.72c-1.65,3.15-3.31,6.31-5,9.44a.89.89,0,0,1-.63.48c-4.62,0-9.24,0-13.85,0a2.8,2.8,0,0,1-.38-.06c.09-.22.14-.41.21-.56,1.68-3.21,3.35-6.43,5.05-9.63a.88.88,0,0,1,.65-.47q6.87,0,13.75,0A4.11,4.11,0,0,1,143.55,123.77Z"/><path class="cls-4" d="M122.39,123.75c-.13.3-.21.51-.32.71q-2.5,4.79-5,9.55a.76.76,0,0,1-.52.41c-4.67,0-9.33,0-14,0a2.88,2.88,0,0,1-.36-.09c.52-1,1-1.92,1.45-2.82,1.25-2.4,2.52-4.8,3.77-7.21.23-.44.48-.62.87-.61h13.59C122,123.7,122.14,123.73,122.39,123.75Z"/></g></g></g></svg>