<svg xmlns="http://www.w3.org/2000/svg" xmlns:xlink="http://www.w3.org/1999/xlink" viewBox="0 0 593.87 696.83"><defs><style>.cls-1{mask:url(#mask);filter:url(#luminosity-noclip-2);}.cls-2{mix-blend-mode:multiply;fill:url(#linear-gradient);}.cls-3{opacity:0.64;}.cls-4{mask:url(#mask-2);}.cls-5{opacity:0.3;fill:url(#linear-gradient-2);}.cls-6{fill:url(#linear-gradient-3);}.cls-7{fill:url(#linear-gradient-4);}.cls-8{fill:url(#linear-gradient-5);}.cls-9{fill:url(#linear-gradient-6);}.cls-10{fill:url(#linear-gradient-7);}.cls-11{fill:url(#linear-gradient-8);}.cls-12{fill:url(#linear-gradient-9);}.cls-13{fill:url(#linear-gradient-10);}.cls-14{fill:url(#linear-gradient-11);}.cls-15{fill:url(#linear-gradient-12);}.cls-16{fill:url(#linear-gradient-13);}.cls-17{opacity:0.43;fill:url(#linear-gradient-14);}.cls-18{fill:url(#linear-gradient-15);}.cls-19{fill:url(#linear-gradient-16);}.cls-20{fill:url(#linear-gradient-17);}.cls-21{fill:url(#linear-gradient-18);}.cls-22{fill:url(#linear-gradient-19);}.cls-23{fill:url(#linear-gradient-20);}.cls-24{fill:url(#linear-gradient-21);}.cls-25{fill:url(#linear-gradient-22);}.cls-26{fill:url(#linear-gradient-23);}.cls-27{fill:url(#linear-gradient-24);}.cls-28{fill:url(#linear-gradient-25);}.cls-29{fill:url(#linear-gradient-26);}.cls-30{fill:url(#linear-gradient-27);}.cls-31{fill:url(#linear-gradient-28);}.cls-32{fill:url(#linear-gradient-29);}.cls-33{fill:url(#linear-gradient-30);}.cls-34{fill:url(#linear-gradient-31);}.cls-35{fill:url(#linear-gradient-32);}.cls-36{fill:url(#linear-gradient-33);}.cls-37{fill:url(#linear-gradient-34);}.cls-38{fill:url(#linear-gradient-35);}.cls-39{fill:url(#linear-gradient-36);}.cls-40{fill:url(#linear-gradient-37);}.cls-41{fill:url(#linear-gradient-38);}.cls-42{fill:url(#linear-gradient-39);}.cls-43{fill:url(#linear-gradient-40);}.cls-44{fill:url(#linear-gradient-41);}.cls-45{fill:url(#linear-gradient-42);}.cls-46{fill:url(#linear-gradient-43);}.cls-47{fill:url(#linear-gradient-44);}.cls-48{fill:url(#linear-gradient-45);}.cls-49{fill:url(#linear-gradient-46);}.cls-50{fill:url(#linear-gradient-47);}.cls-51{fill:url(#linear-gradient-48);}.cls-52{fill:url(#linear-gradient-49);}.cls-53{fill:url(#linear-gradient-50);}.cls-54{fill:url(#linear-gradient-51);}.cls-55{fill:url(#linear-gradient-52);}.cls-56{fill:url(#linear-gradient-53);}.cls-57{fill:url(#linear-gradient-54);}.cls-58{fill:url(#linear-gradient-55);}.cls-59{fill:url(#linear-gradient-56);}.cls-60{fill:url(#linear-gradient-57);}.cls-61{fill:url(#linear-gradient-58);}.cls-62{fill:url(#linear-gradient-59);}.cls-63{fill:url(#linear-gradient-60);}.cls-64{fill:url(#linear-gradient-61);}.cls-65{fill:url(#linear-gradient-62);}.cls-66{fill:url(#linear-gradient-63);}.cls-67{fill:url(#linear-gradient-64);}.cls-68{fill:url(#linear-gradient-65);}.cls-69{fill:url(#linear-gradient-66);}.cls-70{fill:url(#linear-gradient-67);}.cls-71{fill:url(#linear-gradient-68);}.cls-72{fill:url(#linear-gradient-69);}.cls-73{fill:url(#linear-gradient-70);}.cls-74{fill:url(#linear-gradient-71);}.cls-75{fill:url(#linear-gradient-72);}.cls-76{fill:url(#linear-gradient-73);}.cls-77{fill:url(#linear-gradient-74);}.cls-78{fill:url(#linear-gradient-75);}.cls-79{fill:url(#linear-gradient-76);}.cls-80{fill:url(#linear-gradient-77);}.cls-81{fill:url(#linear-gradient-78);}.cls-82{fill:url(#linear-gradient-79);}.cls-83{fill:url(#linear-gradient-80);}.cls-84{fill:url(#linear-gradient-81);}.cls-85{fill:url(#linear-gradient-82);}.cls-86{fill:url(#linear-gradient-83);}.cls-87{fill:url(#linear-gradient-84);}.cls-88{fill:url(#linear-gradient-85);}.cls-89{fill:url(#linear-gradient-86);}.cls-90{fill:url(#linear-gradient-87);}.cls-91{fill:url(#linear-gradient-88);}.cls-92{fill:url(#linear-gradient-89);}.cls-93{fill:url(#linear-gradient-90);}.cls-94{fill:url(#linear-gradient-91);}.cls-95{fill:url(#linear-gradient-92);}.cls-96{fill:url(#linear-gradient-93);}.cls-97{fill:url(#linear-gradient-94);}.cls-98{fill:url(#linear-gradient-95);}.cls-99{fill:url(#linear-gradient-96);}.cls-100{fill:url(#linear-gradient-97);}.cls-101{fill:url(#linear-gradient-98);}.cls-102{fill:url(#linear-gradient-99);}.cls-103{fill:url(#linear-gradient-100);}.cls-104{fill:url(#linear-gradient-101);}.cls-105{fill:url(#linear-gradient-102);}.cls-106{fill:url(#linear-gradient-103);}.cls-107{fill:url(#linear-gradient-104);}.cls-108{fill:url(#linear-gradient-105);}.cls-109{fill:url(#linear-gradient-106);}.cls-110{fill:url(#linear-gradient-107);}.cls-111{fill:url(#linear-gradient-108);}.cls-112{fill:url(#linear-gradient-109);}.cls-113{fill:url(#linear-gradient-110);}.cls-114{fill:url(#linear-gradient-111);}.cls-115{fill:url(#linear-gradient-112);}.cls-116{fill:url(#linear-gradient-113);}.cls-117{fill:url(#linear-gradient-114);}.cls-118{fill:url(#linear-gradient-115);}.cls-119{fill:url(#linear-gradient-116);}.cls-120{fill:url(#linear-gradient-117);}.cls-121{fill:url(#linear-gradient-118);}.cls-122{fill:url(#linear-gradient-119);}.cls-123{fill:url(#linear-gradient-120);}.cls-124{fill:url(#linear-gradient-121);}.cls-125{fill:url(#linear-gradient-122);}.cls-126{fill:url(#linear-gradient-123);}.cls-127{fill:url(#linear-gradient-124);}.cls-128{fill:url(#linear-gradient-125);}.cls-129{fill:url(#linear-gradient-126);}.cls-130{fill:url(#linear-gradient-127);}.cls-131{fill:url(#linear-gradient-128);}.cls-132{fill:url(#linear-gradient-129);}.cls-133{fill:url(#linear-gradient-130);}.cls-134{fill:url(#linear-gradient-131);}.cls-135{fill:#fff;}.cls-136{fill:url(#linear-gradient-132);}.cls-137{fill:url(#linear-gradient-133);}.cls-138{fill:url(#linear-gradient-134);}.cls-139{fill:url(#linear-gradient-135);}.cls-140{fill:url(#linear-gradient-136);}.cls-141{fill:url(#linear-gradient-137);}.cls-142{fill:url(#linear-gradient-138);}.cls-143{filter:url(#luminosity-noclip);}</style><filter id="luminosity-noclip" x="42.38" y="-13435.99" width="551.49" height="32766" filterUnits="userSpaceOnUse" color-interpolation-filters="sRGB"><feFlood flood-color="#fff" result="bg"/><feBlend in="SourceGraphic" in2="bg"/></filter><mask id="mask" x="42.38" y="-13435.99" width="551.49" height="32766" maskUnits="userSpaceOnUse"><g class="cls-143"/></mask><linearGradient id="linear-gradient" x1="208.8" y1="334.48" x2="371.89" y2="636.19" gradientUnits="userSpaceOnUse"><stop offset="0" stop-color="#fff"/><stop offset="1" stop-color="#1a1a1a"/></linearGradient><filter id="luminosity-noclip-2" x="42.38" y="376.63" width="551.49" height="320.2" filterUnits="userSpaceOnUse" color-interpolation-filters="sRGB"><feFlood flood-color="#fff" result="bg"/><feBlend in="SourceGraphic" in2="bg"/></filter><mask id="mask-2" x="42.38" y="376.63" width="551.49" height="320.2" maskUnits="userSpaceOnUse"><g class="cls-1"><polygon class="cls-2" points="593.87 569.75 262.44 376.63 42.38 503.71 373.81 696.83 593.87 569.75"/></g></mask><linearGradient id="linear-gradient-2" x1="208.8" y1="334.48" x2="371.89" y2="636.19" gradientUnits="userSpaceOnUse"><stop offset="0" stop-color="#303030"/><stop offset="1" stop-color="#727272"/></linearGradient><linearGradient id="linear-gradient-3" x1="116.31" y1="277.78" x2="59.15" y2="138.91" xlink:href="#linear-gradient-2"/><linearGradient id="linear-gradient-4" x1="84.34" y1="214.96" x2="30.49" y2="238.57" xlink:href="#linear-gradient-2"/><linearGradient id="linear-gradient-5" x1="165.61" y1="153.35" x2="67.15" y2="195.93" gradientUnits="userSpaceOnUse"><stop offset="0" stop-color="#3abaf9"/><stop offset="1" stop-color="#267ebd"/></linearGradient><linearGradient id="linear-gradient-6" x1="42.38" y1="330.36" x2="593.87" y2="330.36" gradientUnits="userSpaceOnUse"><stop offset="0" stop-color="#f4d0a8"/><stop offset="1" stop-color="#eab568"/></linearGradient><linearGradient id="linear-gradient-7" x1="-15159.86" y1="117.31" x2="-15205.91" y2="230.17" gradientTransform="matrix(-1, 0, 0, 1, -14792.45, 0)" gradientUnits="userSpaceOnUse"><stop offset="0" stop-color="#303030"/><stop offset="0.51" stop-color="#676767"/><stop offset="0.82" stop-color="#fff"/><stop offset="1" stop-color="#727272"/></linearGradient><linearGradient id="linear-gradient-8" x1="-15013.38" y1="289.1" x2="-15195.35" y2="314.04" gradientTransform="matrix(-1, 0, 0, 1, -14792.45, 0)" xlink:href="#linear-gradient-2"/><linearGradient id="linear-gradient-9" x1="-15012.07" y1="288.47" x2="-15195.23" y2="313.58" gradientTransform="matrix(-1, 0, 0, 1, -14792.45, 0)" gradientUnits="userSpaceOnUse"><stop offset="0" stop-color="#c8c8c8"/><stop offset="1" stop-color="#f0f0f0"/></linearGradient><linearGradient id="linear-gradient-10" x1="-15214.26" y1="168.1" x2="-15150.34" y2="215.26" gradientTransform="matrix(-1, 0, 0, 1, -14792.45, 0)" xlink:href="#linear-gradient-2"/><linearGradient id="linear-gradient-11" x1="-15181.72" y1="111.38" x2="-15181.72" y2="219.26" gradientTransform="matrix(-1, 0, 0, 1, -14792.45, 0)" gradientUnits="userSpaceOnUse"><stop offset="0" stop-color="#82fb7c"/><stop offset="1" stop-color="#0ba2b3"/></linearGradient><linearGradient id="linear-gradient-12" x1="-15162.38" y1="265.11" x2="-15081.35" y2="324.9" xlink:href="#linear-gradient-9"/><linearGradient id="linear-gradient-13" x1="-15163.46" y1="264.14" x2="-15110.03" y2="303.56" gradientTransform="matrix(-1, 0, 0, 1, -14792.45, 0)" xlink:href="#linear-gradient-2"/><linearGradient id="linear-gradient-14" x1="-15094.89" y1="309.72" x2="-15078.24" y2="322" gradientTransform="matrix(-1, 0, 0, 1, -14792.45, 0)" xlink:href="#linear-gradient-2"/><linearGradient id="linear-gradient-15" x1="-15215.84" y1="302.44" x2="-15211.83" y2="305.39" xlink:href="#linear-gradient-9"/><linearGradient id="linear-gradient-16" x1="-15206.74" y1="297.16" x2="-15202.74" y2="300.11" xlink:href="#linear-gradient-9"/><linearGradient id="linear-gradient-17" x1="-15197.65" y1="291.88" x2="-15193.64" y2="294.84" xlink:href="#linear-gradient-9"/><linearGradient id="linear-gradient-18" x1="-15188.55" y1="286.61" x2="-15184.55" y2="289.56" xlink:href="#linear-gradient-9"/><linearGradient id="linear-gradient-19" x1="-15179.46" y1="281.33" x2="-15175.46" y2="284.29" xlink:href="#linear-gradient-9"/><linearGradient id="linear-gradient-20" x1="-15170.37" y1="276.06" x2="-15166.36" y2="279.01" xlink:href="#linear-gradient-9"/><linearGradient id="linear-gradient-21" x1="-15161.27" y1="270.78" x2="-15157.27" y2="273.74" xlink:href="#linear-gradient-9"/><linearGradient id="linear-gradient-22" x1="-15152.18" y1="265.5" x2="-15148.17" y2="268.46" xlink:href="#linear-gradient-9"/><linearGradient id="linear-gradient-23" x1="-15143.08" y1="260.23" x2="-15139.08" y2="263.18" xlink:href="#linear-gradient-9"/><linearGradient id="linear-gradient-24" x1="-15133.99" y1="254.95" x2="-15129.98" y2="257.91" xlink:href="#linear-gradient-9"/><linearGradient id="linear-gradient-25" x1="-15124.89" y1="249.68" x2="-15120.89" y2="252.63" xlink:href="#linear-gradient-9"/><linearGradient id="linear-gradient-26" x1="-15115.8" y1="244.4" x2="-15111.8" y2="247.36" xlink:href="#linear-gradient-9"/><linearGradient id="linear-gradient-27" x1="-15106.71" y1="239.12" x2="-15102.7" y2="242.08" xlink:href="#linear-gradient-9"/><linearGradient id="linear-gradient-28" x1="-15206.74" y1="307.71" x2="-15202.74" y2="310.67" xlink:href="#linear-gradient-9"/><linearGradient id="linear-gradient-29" x1="-15197.65" y1="302.44" x2="-15193.64" y2="305.39" xlink:href="#linear-gradient-9"/><linearGradient id="linear-gradient-30" x1="-15188.55" y1="297.16" x2="-15184.55" y2="300.11" xlink:href="#linear-gradient-9"/><linearGradient id="linear-gradient-31" x1="-15179.46" y1="291.88" x2="-15175.46" y2="294.84" xlink:href="#linear-gradient-9"/><linearGradient id="linear-gradient-32" x1="-15170.37" y1="286.61" x2="-15166.36" y2="289.56" xlink:href="#linear-gradient-9"/><linearGradient id="linear-gradient-33" x1="-15161.27" y1="281.33" x2="-15157.27" y2="284.29" xlink:href="#linear-gradient-9"/><linearGradient id="linear-gradient-34" x1="-15152.18" y1="276.06" x2="-15148.17" y2="279.01" xlink:href="#linear-gradient-9"/><linearGradient id="linear-gradient-35" x1="-15143.08" y1="270.78" x2="-15139.08" y2="273.74" xlink:href="#linear-gradient-9"/><linearGradient id="linear-gradient-36" x1="-15133.99" y1="265.5" x2="-15129.98" y2="268.46" xlink:href="#linear-gradient-9"/><linearGradient id="linear-gradient-37" x1="-15124.89" y1="260.23" x2="-15120.89" y2="263.18" xlink:href="#linear-gradient-9"/><linearGradient id="linear-gradient-38" x1="-15115.8" y1="254.95" x2="-15111.8" y2="257.91" xlink:href="#linear-gradient-9"/><linearGradient id="linear-gradient-39" x1="-15106.71" y1="249.68" x2="-15102.7" y2="252.63" xlink:href="#linear-gradient-9"/><linearGradient id="linear-gradient-40" x1="-15097.61" y1="244.4" x2="-15093.61" y2="247.36" xlink:href="#linear-gradient-9"/><linearGradient id="linear-gradient-41" x1="-15197.65" y1="312.99" x2="-15193.64" y2="315.94" xlink:href="#linear-gradient-9"/><linearGradient id="linear-gradient-42" x1="-15188.55" y1="307.71" x2="-15184.55" y2="310.67" xlink:href="#linear-gradient-9"/><linearGradient id="linear-gradient-43" x1="-15179.46" y1="302.44" x2="-15175.46" y2="305.39" xlink:href="#linear-gradient-9"/><linearGradient id="linear-gradient-44" x1="-15170.37" y1="297.16" x2="-15166.36" y2="300.11" xlink:href="#linear-gradient-9"/><linearGradient id="linear-gradient-45" x1="-15161.27" y1="291.88" x2="-15157.27" y2="294.84" xlink:href="#linear-gradient-9"/><linearGradient id="linear-gradient-46" x1="-15152.18" y1="286.61" x2="-15148.17" y2="289.56" xlink:href="#linear-gradient-9"/><linearGradient id="linear-gradient-47" x1="-15143.08" y1="281.33" x2="-15139.08" y2="284.29" xlink:href="#linear-gradient-9"/><linearGradient id="linear-gradient-48" x1="-15133.99" y1="276.06" x2="-15129.98" y2="279.01" xlink:href="#linear-gradient-9"/><linearGradient id="linear-gradient-49" x1="-15124.89" y1="270.78" x2="-15120.89" y2="273.74" xlink:href="#linear-gradient-9"/><linearGradient id="linear-gradient-50" x1="-15115.8" y1="265.5" x2="-15111.8" y2="268.46" xlink:href="#linear-gradient-9"/><linearGradient id="linear-gradient-51" x1="-15106.71" y1="260.23" x2="-15102.7" y2="263.18" xlink:href="#linear-gradient-9"/><linearGradient id="linear-gradient-52" x1="-15097.61" y1="254.95" x2="-15093.61" y2="257.91" xlink:href="#linear-gradient-9"/><linearGradient id="linear-gradient-53" x1="-15088.52" y1="249.68" x2="-15084.51" y2="252.63" xlink:href="#linear-gradient-9"/><linearGradient id="linear-gradient-54" x1="-15188.55" y1="318.26" x2="-15184.55" y2="321.22" xlink:href="#linear-gradient-9"/><linearGradient id="linear-gradient-55" x1="-15179.46" y1="312.99" x2="-15175.46" y2="315.94" xlink:href="#linear-gradient-9"/><linearGradient id="linear-gradient-56" x1="-15170.37" y1="307.71" x2="-15166.36" y2="310.67" xlink:href="#linear-gradient-9"/><linearGradient id="linear-gradient-57" x1="-15161.27" y1="302.44" x2="-15157.27" y2="305.39" xlink:href="#linear-gradient-9"/><linearGradient id="linear-gradient-58" x1="-15152.18" y1="297.16" x2="-15148.17" y2="300.11" xlink:href="#linear-gradient-9"/><linearGradient id="linear-gradient-59" x1="-15143.08" y1="291.88" x2="-15139.08" y2="294.84" xlink:href="#linear-gradient-9"/><linearGradient id="linear-gradient-60" x1="-15133.99" y1="286.61" x2="-15129.98" y2="289.56" xlink:href="#linear-gradient-9"/><linearGradient id="linear-gradient-61" x1="-15124.89" y1="281.33" x2="-15120.89" y2="284.29" xlink:href="#linear-gradient-9"/><linearGradient id="linear-gradient-62" x1="-15115.8" y1="276.06" x2="-15111.8" y2="279.01" xlink:href="#linear-gradient-9"/><linearGradient id="linear-gradient-63" x1="-15106.71" y1="270.78" x2="-15102.7" y2="273.74" xlink:href="#linear-gradient-9"/><linearGradient id="linear-gradient-64" x1="-15097.61" y1="265.5" x2="-15093.61" y2="268.46" xlink:href="#linear-gradient-9"/><linearGradient id="linear-gradient-65" x1="-15088.52" y1="260.23" x2="-15084.51" y2="263.18" xlink:href="#linear-gradient-9"/><linearGradient id="linear-gradient-66" x1="-15079.42" y1="254.95" x2="-15075.42" y2="257.91" xlink:href="#linear-gradient-9"/><linearGradient id="linear-gradient-67" x1="-15179.46" y1="323.54" x2="-15175.46" y2="326.49" xlink:href="#linear-gradient-9"/><linearGradient id="linear-gradient-68" x1="-15170.37" y1="318.26" x2="-15166.36" y2="321.22" xlink:href="#linear-gradient-9"/><linearGradient id="linear-gradient-69" x1="-15161.27" y1="312.99" x2="-15157.27" y2="315.94" xlink:href="#linear-gradient-9"/><linearGradient id="linear-gradient-70" x1="-15152.18" y1="307.71" x2="-15148.17" y2="310.67" xlink:href="#linear-gradient-9"/><linearGradient id="linear-gradient-71" x1="-15143.08" y1="302.44" x2="-15139.08" y2="305.39" xlink:href="#linear-gradient-9"/><linearGradient id="linear-gradient-72" x1="-15133.99" y1="297.16" x2="-15129.98" y2="300.11" xlink:href="#linear-gradient-9"/><linearGradient id="linear-gradient-73" x1="-15124.89" y1="291.88" x2="-15120.89" y2="294.84" xlink:href="#linear-gradient-9"/><linearGradient id="linear-gradient-74" x1="-15115.8" y1="286.61" x2="-15111.8" y2="289.56" xlink:href="#linear-gradient-9"/><linearGradient id="linear-gradient-75" x1="-15106.71" y1="281.33" x2="-15102.7" y2="284.29" xlink:href="#linear-gradient-9"/><linearGradient id="linear-gradient-76" x1="-15097.61" y1="276.06" x2="-15093.61" y2="279.01" xlink:href="#linear-gradient-9"/><linearGradient id="linear-gradient-77" x1="-15088.52" y1="270.78" x2="-15084.51" y2="273.74" xlink:href="#linear-gradient-9"/><linearGradient id="linear-gradient-78" x1="-15079.42" y1="265.5" x2="-15075.42" y2="268.46" xlink:href="#linear-gradient-9"/><linearGradient id="linear-gradient-79" x1="-15070.33" y1="260.23" x2="-15066.32" y2="263.18" xlink:href="#linear-gradient-9"/><linearGradient id="linear-gradient-80" x1="-15170.37" y1="328.82" x2="-15166.36" y2="331.77" xlink:href="#linear-gradient-9"/><linearGradient id="linear-gradient-81" x1="-15161.27" y1="323.54" x2="-15157.27" y2="326.49" xlink:href="#linear-gradient-9"/><linearGradient id="linear-gradient-82" x1="-15152.18" y1="318.26" x2="-15148.17" y2="321.22" xlink:href="#linear-gradient-9"/><linearGradient id="linear-gradient-83" x1="-15143.08" y1="312.99" x2="-15139.08" y2="315.94" xlink:href="#linear-gradient-9"/><linearGradient id="linear-gradient-84" x1="-15122.81" y1="297.98" x2="-15113.93" y2="304.53" xlink:href="#linear-gradient-9"/><linearGradient id="linear-gradient-85" x1="-15097.61" y1="286.61" x2="-15093.61" y2="289.56" xlink:href="#linear-gradient-9"/><linearGradient id="linear-gradient-86" x1="-15088.52" y1="281.33" x2="-15084.51" y2="284.29" xlink:href="#linear-gradient-9"/><linearGradient id="linear-gradient-87" x1="-15079.42" y1="276.06" x2="-15075.42" y2="279.01" xlink:href="#linear-gradient-9"/><linearGradient id="linear-gradient-88" x1="-15070.33" y1="270.78" x2="-15066.32" y2="273.74" xlink:href="#linear-gradient-9"/><linearGradient id="linear-gradient-89" x1="-15061.23" y1="265.5" x2="-15057.23" y2="268.46" xlink:href="#linear-gradient-9"/><linearGradient id="linear-gradient-90" x1="-15380.35" y1="-6139.54" x2="-15368.73" y2="-6076.79" gradientTransform="matrix(-1, -0.58, 0, 1, -14959.72, -2691.3)" gradientUnits="userSpaceOnUse"><stop offset="0" stop-color="#fe7f0a"/><stop offset="1" stop-color="#ffb538"/></linearGradient><linearGradient id="linear-gradient-91" x1="-15414.07" y1="-6205.89" x2="-15395.42" y2="-6105.21" xlink:href="#linear-gradient-90"/><linearGradient id="linear-gradient-92" x1="-15357.32" y1="-6143.8" x2="-15345.7" y2="-6081.06" xlink:href="#linear-gradient-90"/><linearGradient id="linear-gradient-93" x1="-15323.65" y1="-6075.53" x2="-15319.24" y2="-6051.67" xlink:href="#linear-gradient-90"/><linearGradient id="linear-gradient-94" x1="-15302.21" y1="-6076.84" x2="-15297.79" y2="-6053.02" xlink:href="#linear-gradient-90"/><linearGradient id="linear-gradient-95" x1="42.38" y1="492.7" x2="373.81" y2="492.7" gradientUnits="userSpaceOnUse"><stop offset="0" stop-color="#ce8c4a"/><stop offset="1" stop-color="#996a17"/></linearGradient><linearGradient id="linear-gradient-96" x1="373.81" y1="525.71" x2="593.87" y2="525.71" gradientUnits="userSpaceOnUse"><stop offset="0" stop-color="#ce8c4a"/><stop offset="1" stop-color="#eab568"/></linearGradient><linearGradient id="linear-gradient-97" x1="61.79" y1="418.3" x2="71.52" y2="418.3" xlink:href="#linear-gradient-95"/><linearGradient id="linear-gradient-98" x1="565.63" y1="484.63" x2="577.67" y2="484.63" xlink:href="#linear-gradient-95"/><linearGradient id="linear-gradient-99" x1="255.63" y1="571.71" x2="209.98" y2="596.03" xlink:href="#linear-gradient-2"/><linearGradient id="linear-gradient-100" x1="317.18" y1="573.58" x2="257.26" y2="605.5" xlink:href="#linear-gradient-2"/><linearGradient id="linear-gradient-101" x1="193.68" y1="470.34" x2="214.11" y2="416.63" xlink:href="#linear-gradient-2"/><linearGradient id="linear-gradient-102" x1="188.59" y1="519.92" x2="208.47" y2="423.44" xlink:href="#linear-gradient-2"/><linearGradient id="linear-gradient-103" x1="96.9" y1="315.07" x2="75.55" y2="391.73" gradientUnits="userSpaceOnUse"><stop offset="0" stop-color="#ffe94d"/><stop offset="1" stop-color="#ff9d00"/></linearGradient><linearGradient id="linear-gradient-104" x1="-275.25" y1="1468.28" x2="-288.78" y2="1495.94" gradientTransform="matrix(0.99, -0.18, 0.18, 0.98, 187.05, -1164.46)" xlink:href="#linear-gradient-103"/><linearGradient id="linear-gradient-105" x1="150.59" y1="338.4" x2="114.54" y2="467.9" gradientUnits="userSpaceOnUse"><stop offset="0" stop-color="#e53838"/><stop offset="1" stop-color="#fc2222"/></linearGradient><linearGradient id="linear-gradient-106" x1="204.72" y1="311.24" x2="199.64" y2="329.5" gradientUnits="userSpaceOnUse"><stop offset="0" stop-color="#ce8074"/><stop offset="1" stop-color="#fcab92"/></linearGradient><linearGradient id="linear-gradient-107" x1="162.53" y1="536.73" x2="242.47" y2="536.73" xlink:href="#linear-gradient-2"/><linearGradient id="linear-gradient-108" x1="207.16" y1="641.98" x2="69.18" y2="641.98" gradientUnits="userSpaceOnUse"><stop offset="0" stop-color="#e6e6e6"/><stop offset="1" stop-color="#aeaeae"/></linearGradient><linearGradient id="linear-gradient-109" x1="204.74" y1="634.53" x2="68.86" y2="634.53" gradientUnits="userSpaceOnUse"><stop offset="0" stop-color="#fff"/><stop offset="1" stop-color="#bababa"/></linearGradient><linearGradient id="linear-gradient-110" x1="1108.32" y1="-947.22" x2="1078.3" y2="-947.22" gradientTransform="translate(-964.41 1561.55) rotate(0.47)" gradientUnits="userSpaceOnUse"><stop offset="0" stop-color="#fff"/><stop offset="1" stop-color="#9d9d9d"/></linearGradient><linearGradient id="linear-gradient-111" x1="2263.33" y1="-3257.44" x2="2296.4" y2="-3257.44" gradientTransform="translate(-2845.83 3243.47) rotate(13.6)" xlink:href="#linear-gradient-110"/><linearGradient id="linear-gradient-112" x1="1103.81" y1="-976.66" x2="1082.2" y2="-976.66" xlink:href="#linear-gradient-110"/><linearGradient id="linear-gradient-113" x1="2257.71" y1="-3300.5" x2="2281.23" y2="-3300.5" gradientTransform="translate(-2845.83 3243.47) rotate(13.6)" xlink:href="#linear-gradient-110"/><linearGradient id="linear-gradient-114" x1="1111.05" y1="-1013.19" x2="1074.6" y2="-1013.19" xlink:href="#linear-gradient-110"/><linearGradient id="linear-gradient-115" x1="2241.89" y1="-3331.66" x2="2281.9" y2="-3331.66" gradientTransform="translate(-2845.83 3243.47) rotate(13.6)" xlink:href="#linear-gradient-110"/><linearGradient id="linear-gradient-116" x1="-49.43" y1="609.35" x2="-15.97" y2="483.02" gradientTransform="matrix(1, 0, 0.06, 0.97, 84.65, -49.56)" xlink:href="#linear-gradient-2"/><linearGradient id="linear-gradient-117" x1="-91.62" y1="522.66" x2="126.58" y2="522.66" gradientTransform="matrix(1, 0, 0.06, 0.97, 84.65, -49.56)" xlink:href="#linear-gradient-110"/><linearGradient id="linear-gradient-118" x1="239.68" y1="315.41" x2="205.15" y2="386.05" xlink:href="#linear-gradient-103"/><linearGradient id="linear-gradient-119" x1="294.15" y1="281.3" x2="278.1" y2="314.14" xlink:href="#linear-gradient-106"/><linearGradient id="linear-gradient-120" x1="295.93" y1="168.57" x2="548.35" y2="168.57" xlink:href="#linear-gradient-105"/><linearGradient id="linear-gradient-121" x1="683.71" y1="2316.19" x2="769.61" y2="2316.19" gradientTransform="matrix(0.7, -0.41, 0.41, 0.7, -1223.39, -1267.1)" gradientUnits="userSpaceOnUse"><stop offset="0" stop-color="#146345"/><stop offset="1" stop-color="#0ba2b3"/></linearGradient><linearGradient id="linear-gradient-122" x1="1813.85" y1="-2625.62" x2="1851.45" y2="-2625.62" gradientTransform="matrix(0.8, 0.15, -0.11, 0.8, -1481.79, 1913.42)" xlink:href="#linear-gradient-2"/><linearGradient id="linear-gradient-123" x1="1798.25" y1="-2674.69" x2="1845.06" y2="-2674.69" gradientTransform="matrix(0.8, 0.15, -0.11, 0.8, -1481.79, 1913.42)" gradientUnits="userSpaceOnUse"><stop offset="0" stop-color="#fe7f0a"/><stop offset="1" stop-color="#a55207"/></linearGradient><linearGradient id="linear-gradient-124" x1="670.23" y1="2315.92" x2="756.12" y2="2315.92" gradientTransform="matrix(0.7, -0.41, 0.41, 0.7, -1223.39, -1267.1)" xlink:href="#linear-gradient-11"/><linearGradient id="linear-gradient-125" x1="1803.09" y1="-2619.04" x2="1840.69" y2="-2619.04" gradientTransform="matrix(0.8, 0.15, -0.11, 0.8, -1481.79, 1913.42)" xlink:href="#linear-gradient-2"/><linearGradient id="linear-gradient-126" x1="1792.11" y1="-2668.5" x2="1834.3" y2="-2668.5" gradientTransform="matrix(0.8, 0.15, -0.11, 0.8, -1481.79, 1913.42)" xlink:href="#linear-gradient-90"/><linearGradient id="linear-gradient-127" x1="34977.06" y1="-1519.62" x2="35016.76" y2="-1447.36" gradientTransform="translate(-20420.04 -9342.47) rotate(26.71) scale(0.65)" gradientUnits="userSpaceOnUse"><stop offset="0" stop-color="#8c610a"/><stop offset="0.27" stop-color="#e4a663"/><stop offset="0.73" stop-color="#ffefab"/><stop offset="1" stop-color="#f8b143"/></linearGradient><linearGradient id="linear-gradient-128" x1="34957.94" y1="-1449.88" x2="35019.35" y2="-1507.29" gradientTransform="translate(-20419 -9338.28) rotate(26.71) scale(0.65)" xlink:href="#linear-gradient-127"/><linearGradient id="linear-gradient-129" x1="37679.75" y1="-891.47" x2="37741.16" y2="-948.88" gradientTransform="matrix(0.46, 0.23, -0.23, 0.46, -17186.11, -8259.29)" xlink:href="#linear-gradient-127"/><linearGradient id="linear-gradient-130" x1="359.43" y1="25.34" x2="381.45" y2="74.92" gradientTransform="matrix(1, 0, 0, 1, 0, 0)" xlink:href="#linear-gradient-127"/><linearGradient id="linear-gradient-131" x1="367.63" y1="15.33" x2="400.1" y2="77.9" gradientTransform="matrix(1, 0, 0, 1, 0, 0)" xlink:href="#linear-gradient-127"/><linearGradient id="linear-gradient-132" x1="86.82" y1="209.27" x2="51.38" y2="218.32" xlink:href="#linear-gradient-5"/><linearGradient id="linear-gradient-133" x1="188.13" y1="142.8" x2="161.73" y2="154.37" xlink:href="#linear-gradient-5"/><linearGradient id="linear-gradient-134" x1="374.29" y1="-982.06" x2="359.06" y2="-927.34" gradientTransform="matrix(0.98, 0.18, -0.18, 0.98, -391.95, 1150.31)" xlink:href="#linear-gradient-106"/><linearGradient id="linear-gradient-135" x1="368.22" y1="-1005.28" x2="352.2" y2="-947.75" gradientTransform="matrix(0.98, 0.18, -0.18, 0.98, -391.95, 1150.31)" xlink:href="#linear-gradient-2"/><linearGradient id="linear-gradient-136" x1="206.9" y1="-541.17" x2="180.31" y2="-486.77" gradientTransform="matrix(1, 0.09, -0.09, 1, -139.31, 557.31)" xlink:href="#linear-gradient-106"/><linearGradient id="linear-gradient-137" x1="190.86" y1="-562.56" x2="164.66" y2="-508.95" gradientTransform="matrix(1, 0.09, -0.09, 1, -139.31, 557.31)" xlink:href="#linear-gradient-2"/><linearGradient id="linear-gradient-138" x1="278.92" y1="173.22" x2="268.04" y2="195.48" xlink:href="#linear-gradient-106"/></defs><g id="Layer_2" data-name="Layer 2"><g id="Layer_1-2" data-name="Layer 1"><g class="cls-3"><g class="cls-4"><polygon class="cls-5" points="593.87 569.75 262.44 376.63 42.38 503.71 373.81 696.83 593.87 569.75"/></g><path class="cls-6" d="M73.77,100.93,9.67,141.32A20.71,20.71,0,0,0,.32,162.45l18,105.62a23.91,23.91,0,0,0,12.58,17.09l63.89,33,107.59-61L157.21,239.5l-40.47-49.68Z"/><path class="cls-7" d="M87,105.4l-64.1,40.4a20.7,20.7,0,0,0-9.35,21.12l17.06,96.39A23.94,23.94,0,0,0,43.18,280.4l63.88,33,107.59-61-45.17-17.62L130,194.29Z"/><path class="cls-8" d="M164.2,232.69s-10.45,23.1-40.1,33.32-41.47,5.28-41.47,5.28-1.2-19.41-11.11-51S35.39,154,37.34,135.13,120.68,71.57,134.2,76.6a12,12,0,0,1,5.09,4l0,0a8.4,8.4,0,0,1,.79,1.09,5.92,5.92,0,0,1,.35.48c7.9,11.86,11.92,39.38,13.9,68.21C157.38,194.1,164.2,232.69,164.2,232.69Z"/><polygon class="cls-9" points="593.87 363.38 262.44 170.26 42.38 297.34 373.81 490.46 593.87 363.38"/><path class="cls-10" d="M317,69.45l162.06,93.8a12.61,12.61,0,0,1,6.29,10.91V302.73c0,3.65-8.94,10.23-12.1,8.4l-162-101a7.83,7.83,0,0,1-3.91-6.78L300.85,76C300.85,71,312.75,67,317,69.45Z"/><path class="cls-11" d="M351.94,384.48,190.51,291a4.77,4.77,0,0,1,0-8.28l103-59.12a13.63,13.63,0,0,1,13.55.05l160.72,93a4.33,4.33,0,0,1,0,7.51L362.72,384.52A10.83,10.83,0,0,1,351.94,384.48Z"/><path class="cls-12" d="M351.94,384,190.51,290.59c-3.19-1.84-4.45-13.26-1.24-15.09l104.27-52.3a13.58,13.58,0,0,1,13.55.05L469.39,310c2.89,1.67,1.29,12.12-1.61,13.78L362.72,384.08A10.86,10.86,0,0,1,351.94,384Z"/><path class="cls-13" d="M309.93,73.11,472,166.92a12.61,12.61,0,0,1,6.29,10.91V306.39a4.74,4.74,0,0,1-7.11,4.1l-167-96.66a7.84,7.84,0,0,1-3.92-6.78V78.69A6.45,6.45,0,0,1,309.93,73.11Z"/><path class="cls-14" d="M473.35,177.83a7.72,7.72,0,0,0-3.83-6.65L307.46,77.38a1.49,1.49,0,0,0-.74-.21,1.53,1.53,0,0,0-1.53,1.52V207.05a2.94,2.94,0,0,0,1.45,2.52l166.71,96.49Z"/><path class="cls-15" d="M351.94,376.19,190.51,282.74a4.77,4.77,0,0,1,0-8.28l103-59.11a13.6,13.6,0,0,1,13.55.05l160.72,93a4.33,4.33,0,0,1,0,7.51L362.72,376.23A10.86,10.86,0,0,1,351.94,376.19Z"/><path class="cls-16" d="M378.38,342.23,244.76,264.89a4,4,0,0,1,0-6.86l54.53-31.41a11.27,11.27,0,0,1,11.22,0l133,77a3.59,3.59,0,0,1,0,6.22L387.3,342.26A9,9,0,0,1,378.38,342.23Z"/><path class="cls-17" d="M304.74,334.05,263.11,310a1.23,1.23,0,0,1,0-2.13l17-9.79a3.51,3.51,0,0,1,3.49,0l41.45,24a1.12,1.12,0,0,1,0,1.94l-17.53,10.09A2.79,2.79,0,0,1,304.74,334.05Z"/><path class="cls-18" d="M415.06,303.57l5.81-3.3a.79.79,0,0,1,.76,0l6.07,3.59a.24.24,0,0,1,0,.42l-5.92,3.36a.66.66,0,0,1-.61,0l-6.1-3.61A.26.26,0,0,1,415.06,303.57Z"/><path class="cls-19" d="M418.6,299l-5.92,3.36a.61.61,0,0,1-.61,0L406,298.75a.27.27,0,0,1,0-.46l5.8-3.3a.78.78,0,0,1,.77,0l6.06,3.58A.24.24,0,0,1,418.6,299Z"/><path class="cls-20" d="M409.51,293.73l-5.93,3.36a.61.61,0,0,1-.6,0l-6.11-3.6a.27.27,0,0,1,0-.47l5.81-3.29a.76.76,0,0,1,.76,0l6.07,3.59A.24.24,0,0,1,409.51,293.73Z"/><path class="cls-21" d="M400.41,288.45l-5.92,3.36a.61.61,0,0,1-.61,0l-6.1-3.61a.26.26,0,0,1,0-.46l5.81-3.3a.76.76,0,0,1,.76,0l6.06,3.58A.24.24,0,0,1,400.41,288.45Z"/><path class="cls-22" d="M391.32,283.17l-5.93,3.37a.61.61,0,0,1-.6,0l-6.11-3.61a.26.26,0,0,1,0-.46l5.81-3.29a.76.76,0,0,1,.77,0l6.06,3.58A.24.24,0,0,1,391.32,283.17Z"/><path class="cls-23" d="M382.22,277.9l-5.92,3.36a.63.63,0,0,1-.61,0l-6.1-3.61a.26.26,0,0,1,0-.46l5.81-3.3a.79.79,0,0,1,.76,0l6.07,3.59A.24.24,0,0,1,382.22,277.9Z"/><path class="cls-24" d="M373.13,272.62,367.21,276a.61.61,0,0,1-.61,0l-6.11-3.61a.26.26,0,0,1,0-.46l5.8-3.3a.78.78,0,0,1,.77,0l6.06,3.58A.24.24,0,0,1,373.13,272.62Z"/><path class="cls-25" d="M364,267.35l-5.93,3.36a.66.66,0,0,1-.61,0l-6.1-3.61a.27.27,0,0,1,0-.47l5.81-3.29a.79.79,0,0,1,.76,0l6.07,3.59A.24.24,0,0,1,364,267.35Z"/><path class="cls-26" d="M354.94,262.07,349,265.43a.61.61,0,0,1-.61,0l-6.1-3.61a.26.26,0,0,1,0-.46l5.8-3.3a.78.78,0,0,1,.77,0l6.06,3.58A.24.24,0,0,1,354.94,262.07Z"/><path class="cls-27" d="M345.85,256.79l-5.93,3.37a.61.61,0,0,1-.6,0l-6.11-3.61a.26.26,0,0,1,0-.46l5.81-3.29a.74.74,0,0,1,.76,0l6.07,3.59A.24.24,0,0,1,345.85,256.79Z"/><path class="cls-28" d="M336.75,251.52l-5.92,3.36a.61.61,0,0,1-.61,0l-6.1-3.61a.26.26,0,0,1,0-.46l5.81-3.3a.79.79,0,0,1,.76,0l6.06,3.59A.24.24,0,0,1,336.75,251.52Z"/><path class="cls-29" d="M327.66,246.24l-5.93,3.36a.59.59,0,0,1-.6,0L315,246a.26.26,0,0,1,0-.46l5.81-3.29a.76.76,0,0,1,.77,0l6.06,3.58A.24.24,0,0,1,327.66,246.24Z"/><path class="cls-30" d="M318.56,241l-5.92,3.36a.66.66,0,0,1-.61,0l-6.1-3.61a.26.26,0,0,1,0-.46l5.81-3.3a.79.79,0,0,1,.76,0l6.07,3.59A.24.24,0,0,1,318.56,241Z"/><path class="cls-31" d="M406,308.84l5.8-3.29a.76.76,0,0,1,.77,0l6.06,3.58a.24.24,0,0,1,0,.42l-5.92,3.36a.61.61,0,0,1-.61,0L406,309.3A.27.27,0,0,1,406,308.84Z"/><path class="cls-32" d="M403.44,300.27l6.07,3.59a.24.24,0,0,1,0,.42l-5.93,3.36a.64.64,0,0,1-.6,0L396.87,304a.26.26,0,0,1,0-.46l5.81-3.3A.79.79,0,0,1,403.44,300.27Z"/><path class="cls-33" d="M394.35,295l6.06,3.58a.24.24,0,0,1,0,.42l-5.92,3.36a.61.61,0,0,1-.61,0l-6.1-3.61a.26.26,0,0,1,0-.46l5.81-3.3A.76.76,0,0,1,394.35,295Z"/><path class="cls-34" d="M385.26,289.72l6.06,3.59a.24.24,0,0,1,0,.42l-5.93,3.36a.61.61,0,0,1-.6,0l-6.11-3.6a.27.27,0,0,1,0-.47l5.81-3.29A.78.78,0,0,1,385.26,289.72Z"/><path class="cls-35" d="M376.16,284.45l6.07,3.58a.24.24,0,0,1,0,.42l-5.92,3.36a.61.61,0,0,1-.61,0l-6.1-3.61a.26.26,0,0,1,0-.46l5.81-3.3A.76.76,0,0,1,376.16,284.45Z"/><path class="cls-36" d="M367.07,279.17l6.06,3.58a.24.24,0,0,1,0,.42l-5.92,3.37a.63.63,0,0,1-.61,0l-6.11-3.61a.26.26,0,0,1,0-.46l5.8-3.29A.76.76,0,0,1,367.07,279.17Z"/><path class="cls-37" d="M358,273.89l6.07,3.59a.24.24,0,0,1,0,.42l-5.93,3.36a.63.63,0,0,1-.61,0l-6.1-3.61a.26.26,0,0,1,0-.46l5.81-3.3A.79.79,0,0,1,358,273.89Z"/><path class="cls-38" d="M348.88,268.62l6.06,3.58a.24.24,0,0,1,0,.42L349,276a.61.61,0,0,1-.61,0l-6.1-3.61a.26.26,0,0,1,0-.46l5.8-3.3A.78.78,0,0,1,348.88,268.62Z"/><path class="cls-39" d="M339.78,263.34l6.07,3.59a.24.24,0,0,1,0,.42l-5.93,3.36a.64.64,0,0,1-.6,0l-6.11-3.61a.27.27,0,0,1,0-.47l5.81-3.29A.79.79,0,0,1,339.78,263.34Z"/><path class="cls-40" d="M330.69,258.07l6.06,3.58a.24.24,0,0,1,0,.42l-5.92,3.36a.61.61,0,0,1-.61,0l-6.1-3.61a.26.26,0,0,1,0-.46l5.81-3.3A.76.76,0,0,1,330.69,258.07Z"/><path class="cls-41" d="M321.6,252.79l6.06,3.59a.24.24,0,0,1,0,.41l-5.93,3.37a.61.61,0,0,1-.6,0L315,256.54a.26.26,0,0,1,0-.46l5.81-3.29A.76.76,0,0,1,321.6,252.79Z"/><path class="cls-42" d="M305.93,250.81l5.81-3.3a.79.79,0,0,1,.76,0l6.07,3.59a.24.24,0,0,1,0,.42l-5.92,3.36a.61.61,0,0,1-.61,0l-6.1-3.61A.26.26,0,0,1,305.93,250.81Z"/><path class="cls-43" d="M309.47,246.24l-5.92,3.36a.61.61,0,0,1-.61,0L296.83,246a.26.26,0,0,1,0-.46l5.8-3.29a.76.76,0,0,1,.77,0l6.06,3.58A.24.24,0,0,1,309.47,246.24Z"/><path class="cls-44" d="M396.87,314.12l5.81-3.3a.79.79,0,0,1,.76,0l6.07,3.59a.24.24,0,0,1,0,.42l-5.93,3.36a.59.59,0,0,1-.6,0l-6.11-3.61A.26.26,0,0,1,396.87,314.12Z"/><path class="cls-45" d="M400.41,309.55l-5.92,3.36a.61.61,0,0,1-.61,0l-6.1-3.61a.26.26,0,0,1,0-.46l5.81-3.29a.74.74,0,0,1,.76,0l6.06,3.58A.24.24,0,0,1,400.41,309.55Z"/><path class="cls-46" d="M385.26,300.27l6.06,3.59a.24.24,0,0,1,0,.42l-5.93,3.36a.64.64,0,0,1-.6,0L378.68,304a.26.26,0,0,1,0-.46l5.81-3.3A.81.81,0,0,1,385.26,300.27Z"/><path class="cls-47" d="M376.16,295l6.06,3.58a.24.24,0,0,1,0,.42l-5.92,3.36a.61.61,0,0,1-.61,0l-6.1-3.61a.26.26,0,0,1,0-.46l5.81-3.3A.76.76,0,0,1,376.16,295Z"/><path class="cls-48" d="M367.07,289.72l6.06,3.59a.24.24,0,0,1,0,.42l-5.92,3.36a.63.63,0,0,1-.61,0l-6.11-3.6a.27.27,0,0,1,0-.47l5.8-3.29A.78.78,0,0,1,367.07,289.72Z"/><path class="cls-49" d="M358,284.45,364,288a.24.24,0,0,1,0,.42l-5.93,3.36a.61.61,0,0,1-.61,0l-6.1-3.61a.26.26,0,0,1,0-.46l5.81-3.3A.76.76,0,0,1,358,284.45Z"/><path class="cls-50" d="M348.88,279.17l6.06,3.59a.23.23,0,0,1,0,.41L349,286.54a.63.63,0,0,1-.61,0l-6.1-3.61a.26.26,0,0,1,0-.46l5.8-3.29A.76.76,0,0,1,348.88,279.17Z"/><path class="cls-51" d="M339.78,273.89l6.07,3.59a.24.24,0,0,1,0,.42l-5.93,3.36a.61.61,0,0,1-.6,0l-6.11-3.61a.26.26,0,0,1,0-.46l5.81-3.3A.79.79,0,0,1,339.78,273.89Z"/><path class="cls-52" d="M330.69,268.62l6.06,3.58a.24.24,0,0,1,0,.42L330.83,276a.61.61,0,0,1-.61,0l-6.1-3.61a.26.26,0,0,1,0-.46l5.81-3.3A.76.76,0,0,1,330.69,268.62Z"/><path class="cls-53" d="M321.6,263.34l6.06,3.59a.24.24,0,0,1,0,.42l-5.93,3.36a.64.64,0,0,1-.6,0L315,267.1a.27.27,0,0,1,0-.47l5.81-3.29A.81.81,0,0,1,321.6,263.34Z"/><path class="cls-54" d="M312.64,265.43a.61.61,0,0,1-.61,0l-6.1-3.61a.26.26,0,0,1,0-.46l5.81-3.3a.76.76,0,0,1,.76,0l6.07,3.58a.24.24,0,0,1,0,.42Z"/><path class="cls-55" d="M296.84,256.08l5.8-3.29a.76.76,0,0,1,.77,0l6.06,3.59a.24.24,0,0,1,0,.41l-5.92,3.37a.63.63,0,0,1-.61,0l-6.11-3.61A.26.26,0,0,1,296.84,256.08Z"/><path class="cls-56" d="M300.38,251.52l-5.93,3.36a.61.61,0,0,1-.61,0l-6.1-3.61a.26.26,0,0,1,0-.46l5.81-3.3a.79.79,0,0,1,.76,0l6.07,3.59A.24.24,0,0,1,300.38,251.52Z"/><path class="cls-57" d="M387.78,319.39l5.81-3.29a.76.76,0,0,1,.76,0l6.06,3.59a.24.24,0,0,1,0,.42l-5.92,3.36a.63.63,0,0,1-.61,0l-6.1-3.6A.27.27,0,0,1,387.78,319.39Z"/><path class="cls-58" d="M391.32,314.83l-5.93,3.36a.59.59,0,0,1-.6,0l-6.11-3.61a.26.26,0,0,1,0-.46l5.81-3.3a.81.81,0,0,1,.77,0l6.06,3.59A.24.24,0,0,1,391.32,314.83Z"/><path class="cls-59" d="M382.22,309.55l-5.92,3.36a.61.61,0,0,1-.61,0l-6.1-3.61a.26.26,0,0,1,0-.46l5.81-3.29a.74.74,0,0,1,.76,0l6.06,3.58A.24.24,0,0,1,382.22,309.55Z"/><path class="cls-60" d="M366.6,307.64,360.49,304a.26.26,0,0,1,0-.46l5.8-3.3a.81.81,0,0,1,.77,0l6.06,3.59a.24.24,0,0,1,0,.42l-5.92,3.36A.66.66,0,0,1,366.6,307.64Z"/><path class="cls-61" d="M357.5,302.36l-6.1-3.61a.26.26,0,0,1,0-.46l5.81-3.3a.76.76,0,0,1,.76,0l6.07,3.58a.24.24,0,0,1,0,.42l-5.93,3.36A.61.61,0,0,1,357.5,302.36Z"/><path class="cls-62" d="M348.41,297.08l-6.1-3.6a.27.27,0,0,1,0-.47l5.8-3.29a.78.78,0,0,1,.77,0l6.06,3.59a.24.24,0,0,1,0,.42L349,297.09A.63.63,0,0,1,348.41,297.08Z"/><path class="cls-63" d="M339.32,291.81l-6.11-3.61a.26.26,0,0,1,0-.46l5.81-3.3a.76.76,0,0,1,.76,0l6.07,3.58a.24.24,0,0,1,0,.42l-5.93,3.36A.59.59,0,0,1,339.32,291.81Z"/><path class="cls-64" d="M330.22,286.53l-6.1-3.61a.26.26,0,0,1,0-.46l5.81-3.29a.74.74,0,0,1,.76,0l6.06,3.59a.23.23,0,0,1,0,.41l-5.92,3.37A.63.63,0,0,1,330.22,286.53Z"/><path class="cls-65" d="M321.13,281.26,315,277.65a.26.26,0,0,1,0-.46l5.81-3.3a.81.81,0,0,1,.77,0l6.06,3.59a.24.24,0,0,1,0,.42l-5.93,3.36A.61.61,0,0,1,321.13,281.26Z"/><path class="cls-66" d="M312,276l-6.1-3.61a.26.26,0,0,1,0-.46l5.81-3.3a.76.76,0,0,1,.76,0l6.07,3.58a.24.24,0,0,1,0,.42L312.64,276A.61.61,0,0,1,312,276Z"/><path class="cls-67" d="M302.94,270.71l-6.11-3.61a.27.27,0,0,1,0-.47l5.8-3.29a.81.81,0,0,1,.77,0l6.06,3.59a.24.24,0,0,1,0,.42l-5.92,3.36A.66.66,0,0,1,302.94,270.71Z"/><path class="cls-68" d="M293.84,265.43l-6.1-3.61a.26.26,0,0,1,0-.46l5.81-3.3a.76.76,0,0,1,.76,0l6.07,3.58a.24.24,0,0,1,0,.42l-5.93,3.36A.61.61,0,0,1,293.84,265.43Z"/><path class="cls-69" d="M291.28,256.79l-5.92,3.37a.63.63,0,0,1-.61,0l-6.1-3.61a.26.26,0,0,1,0-.46l5.8-3.29a.76.76,0,0,1,.77,0l6.06,3.59A.23.23,0,0,1,291.28,256.79Z"/><path class="cls-70" d="M378.68,324.67l5.81-3.3a.78.78,0,0,1,.77,0l6.06,3.58a.24.24,0,0,1,0,.42l-5.93,3.36a.59.59,0,0,1-.6,0l-6.11-3.61A.26.26,0,0,1,378.68,324.67Z"/><path class="cls-71" d="M382.22,320.11l-5.92,3.36a.63.63,0,0,1-.61,0l-6.1-3.6a.27.27,0,0,1,0-.47l5.81-3.29a.76.76,0,0,1,.76,0l6.06,3.59A.24.24,0,0,1,382.22,320.11Z"/><path class="cls-72" d="M366.6,318.19l-6.11-3.61a.26.26,0,0,1,0-.46l5.8-3.3a.81.81,0,0,1,.77,0l6.06,3.59a.24.24,0,0,1,0,.42l-5.92,3.36A.61.61,0,0,1,366.6,318.19Z"/><path class="cls-73" d="M357.5,312.91l-6.1-3.61a.26.26,0,0,1,0-.46l5.81-3.29a.74.74,0,0,1,.76,0l6.07,3.58a.24.24,0,0,1,0,.42l-5.93,3.36A.61.61,0,0,1,357.5,312.91Z"/><path class="cls-74" d="M348.41,307.64l-6.1-3.61a.26.26,0,0,1,0-.46l5.8-3.3a.81.81,0,0,1,.77,0l6.06,3.59a.24.24,0,0,1,0,.42L349,307.64A.66.66,0,0,1,348.41,307.64Z"/><path class="cls-75" d="M339.32,302.36l-6.11-3.61a.26.26,0,0,1,0-.46L339,295a.76.76,0,0,1,.76,0l6.07,3.58a.24.24,0,0,1,0,.42l-5.93,3.36A.59.59,0,0,1,339.32,302.36Z"/><path class="cls-76" d="M330.22,297.08l-6.1-3.6a.27.27,0,0,1,0-.47l5.81-3.29a.76.76,0,0,1,.76,0l6.06,3.59a.24.24,0,0,1,0,.42l-5.92,3.36A.63.63,0,0,1,330.22,297.08Z"/><path class="cls-77" d="M321.13,291.81,315,288.2a.26.26,0,0,1,0-.46l5.81-3.3a.78.78,0,0,1,.77,0l6.06,3.58a.24.24,0,0,1,0,.42l-5.93,3.36A.59.59,0,0,1,321.13,291.81Z"/><path class="cls-78" d="M312,286.53l-6.1-3.61a.26.26,0,0,1,0-.46l5.81-3.29a.74.74,0,0,1,.76,0l6.07,3.59a.23.23,0,0,1,0,.41l-5.92,3.37A.63.63,0,0,1,312,286.53Z"/><path class="cls-79" d="M302.94,281.26l-6.11-3.61a.26.26,0,0,1,0-.46l5.8-3.3a.81.81,0,0,1,.77,0l6.06,3.59a.24.24,0,0,1,0,.42l-5.92,3.36A.63.63,0,0,1,302.94,281.26Z"/><path class="cls-80" d="M293.84,276l-6.1-3.61a.26.26,0,0,1,0-.46l5.81-3.3a.76.76,0,0,1,.76,0l6.07,3.58a.24.24,0,0,1,0,.42L294.45,276A.61.61,0,0,1,293.84,276Z"/><path class="cls-81" d="M284.75,270.71l-6.1-3.61a.27.27,0,0,1,0-.47l5.8-3.29a.81.81,0,0,1,.77,0l6.06,3.59a.24.24,0,0,1,0,.42l-5.92,3.36A.66.66,0,0,1,284.75,270.71Z"/><path class="cls-82" d="M282.19,262.07l-5.93,3.36a.59.59,0,0,1-.6,0l-6.11-3.61a.26.26,0,0,1,0-.46l5.81-3.3a.76.76,0,0,1,.76,0l6.07,3.58A.24.24,0,0,1,282.19,262.07Z"/><path class="cls-83" d="M369.59,330l5.81-3.3a.79.79,0,0,1,.76,0l6.06,3.59a.24.24,0,0,1,0,.42L376.3,334a.66.66,0,0,1-.61,0l-6.1-3.61A.26.26,0,0,1,369.59,330Z"/><path class="cls-84" d="M360.5,324.67l5.8-3.3a.78.78,0,0,1,.77,0l6.06,3.58a.24.24,0,0,1,0,.42l-5.92,3.36a.61.61,0,0,1-.61,0l-6.11-3.61A.26.26,0,0,1,360.5,324.67Z"/><path class="cls-85" d="M351.4,319.39l5.81-3.29a.76.76,0,0,1,.76,0l6.07,3.59a.24.24,0,0,1,0,.42l-5.92,3.36a.63.63,0,0,1-.61,0l-6.1-3.6A.27.27,0,0,1,351.4,319.39Z"/><path class="cls-86" d="M342.31,314.12l5.8-3.3a.81.81,0,0,1,.77,0l6.06,3.59a.24.24,0,0,1,0,.42L349,318.19a.61.61,0,0,1-.61,0l-6.11-3.61A.27.27,0,0,1,342.31,314.12Z"/><path class="cls-87" d="M305.93,293l5.81-3.29a.76.76,0,0,1,.76,0l5.4,3.19,3.44,2a.8.8,0,0,1,.26.09l5.61,3.32,3.22,1.87a.79.79,0,0,1,.26.08l5.84,3.46,9.32,5.4a.24.24,0,0,1,0,.42l-5.93,3.36a.59.59,0,0,1-.6,0l-9.09-5.27h0l-.22-.13-8.85-5.14h0l-.43-.25-8.63-5,0,0-.64-.38-1-.56,0,0-4.47-2.64A.27.27,0,0,1,305.93,293Z"/><path class="cls-88" d="M296.84,287.74l5.8-3.3a.78.78,0,0,1,.77,0l6.06,3.58a.24.24,0,0,1,0,.42l-5.92,3.36a.61.61,0,0,1-.61,0l-6.11-3.61A.26.26,0,0,1,296.84,287.74Z"/><path class="cls-89" d="M287.74,282.46l5.81-3.29a.74.74,0,0,1,.76,0l6.07,3.59a.24.24,0,0,1,0,.41l-5.93,3.37a.63.63,0,0,1-.61,0l-6.1-3.61A.26.26,0,0,1,287.74,282.46Z"/><path class="cls-90" d="M278.65,277.19l5.8-3.3a.81.81,0,0,1,.77,0l6.06,3.59a.24.24,0,0,1,0,.42l-5.92,3.36a.63.63,0,0,1-.61,0l-6.1-3.61A.26.26,0,0,1,278.65,277.19Z"/><path class="cls-91" d="M269.55,271.91l5.81-3.3a.76.76,0,0,1,.76,0l6.07,3.58a.24.24,0,0,1,0,.42L276.26,276a.59.59,0,0,1-.6,0l-6.11-3.61A.26.26,0,0,1,269.55,271.91Z"/><path class="cls-92" d="M260.46,266.63l5.81-3.29a.79.79,0,0,1,.76,0l6.06,3.59a.24.24,0,0,1,0,.42l-5.92,3.36a.66.66,0,0,1-.61,0l-6.1-3.61A.27.27,0,0,1,260.46,266.63Z"/><polygon class="cls-93" points="396.21 232.04 412.57 241.59 412.57 202.36 396.21 192.81 396.21 232.04"/><polygon class="cls-94" points="420.11 245.41 436.48 254.96 436.48 190.18 420.11 180.63 420.11 245.41"/><polygon class="cls-95" points="373.54 218.82 389.91 228.37 389.91 176.64 373.54 167.09 373.54 218.82"/><polygon class="cls-96" points="350.88 205.61 367.25 215.15 367.25 181.15 350.88 171.6 350.88 205.61"/><polygon class="cls-97" points="328.22 192.39 344.59 201.94 344.59 178.42 328.22 168.88 328.22 192.39"/><polygon class="cls-98" points="42.38 297.34 42.38 494.93 61.79 506.24 61.79 330.36 354.4 500.86 354.4 676.74 373.81 688.05 373.81 490.46 42.38 297.34"/><path class="cls-99" d="M373.81,490.46V688.05l16.54-9.55c.19-52.63-.34-175.13-.34-175.13L577.67,398.93V570.32l16.2-9.35V363.38Z"/><polygon class="cls-100" points="61.79 330.36 61.79 506.24 71.52 500.18 71.52 336.03 61.79 330.36"/><polygon class="cls-101" points="577.67 398.93 577.67 570.32 565.63 563.37 565.63 405.63 577.67 398.93"/><path class="cls-102" d="M205.51,579.84s-5,14.75-2.25,17.14,20.47,9.32,25.59,7.51,9.94-15.36,22-21.08,6.32-24.69-16.57-12.95S205.51,579.84,205.51,579.84Z"/><path class="cls-103" d="M250.49,587.37s-2.67,19.83-1.46,20.74,17.16,12.64,22.88,11.14,27.11-22,41.56-24.69,13.25-24.1-10.54-19.28-26.5,2.41-26.5,2.41Z"/><path class="cls-104" d="M105.54,471.6c1.72-2.15,98.51-49.47,113.13-49.47s21.94,34.07,21.94,92.74v62.55s-6.88,11.61-22.8,6.88-15.49-6.88-15.49-6.88l-1.79-81.73Z"/><path class="cls-105" d="M88.2,481.56s-6.6,41.67,0,47.54,39.48,30.54,55.93,28.78,90-57.18,98-55.42,5.67,79.92,5.67,79.92.76,10.53,19.47,8.76,16.3-8.25,16.3-8.25,7.85-128.42-9.74-140.64c-29-20.19-94.58,17.18-94.58,17.18Z"/><path class="cls-106" d="M91.52,298.8s-18.53,1.13-19.85,34C70.36,365.29,62,414.18,84,418.64S91.52,298.8,91.52,298.8Z"/><path class="cls-107" d="M154,339.55l25.54-14.43s10.61-2.14,14.76,3.9,3.11,10,3.11,10L165.83,366.1Z"/><path class="cls-108" d="M75.56,314.85A19.19,19.19,0,0,1,103,300.52c12.66,6.2,30.84,10.66,47.62,19.2,19.44,9.9,36.83,23.65,39,26.15,5.52,6.2,2.25,137.77,2.25,137.77S169,519.34,127.48,512c-15.25-2.68-26-6.1-33.53-9.35a27.61,27.61,0,0,1-16.53-24.83c-.54-28.23-1.7-91.09-1.7-115C75.72,344.36,73.57,327.88,75.56,314.85Z"/><path class="cls-109" d="M197.49,334.57s3.34,2.6,11-1.79,11.42-7,11.42-7-1.72-6.5-6.68-2.55-6.77,1.88-1.9-2.42,14-5.14,11.3-7.27-8.57-4.69-22.14,1-18.92,10.32-18.92,10.32S190.48,325.22,197.49,334.57Z"/><path class="cls-110" d="M242.47,524.62,220.16,513l-57.63,36.6s5.93,15.26,19.7,9.54S242.47,524.62,242.47,524.62Z"/><path class="cls-111" d="M64.41,593.54s-1.24,12.93,6.82,15.13,9.85-1.87,9.85-1.87l38.21,25L59.12,676.48s-1.3,14.19,9.65,13.93S83,681.5,83,681.5l53.18-36.37,47.05,31.94s2.8,11.72,14.26,13.25,16.69-15,16.69-15l-57.74-45.63L198,612.5s4.59,4.84,13.25,0-1.39-14-1.39-14l-78.56,26.88Z"/><path class="cls-112" d="M111.79,628.63,60.33,672.32a3.85,3.85,0,0,0-.08,5.89l5.07,4.39a3.85,3.85,0,0,0,4.71.26l64.15-45.92a3.85,3.85,0,0,1,4.31,0L201,681.53a3.88,3.88,0,0,0,4.32,0l5.17-3.91a3.85,3.85,0,0,0,0-6.35l-45.46-41.7a3.86,3.86,0,0,1,1.4-6.95l41.62-17.36a3.86,3.86,0,0,0,1.73-6.69l-4.89-4.25a3.81,3.81,0,0,0-3.17-.89L137.1,613.07a3.81,3.81,0,0,1-1.71-.1L73.1,585.68a3.86,3.86,0,0,0-3.41.64l-3.94,3a3.86,3.86,0,0,0,1,6.66l44,26A3.86,3.86,0,0,1,111.79,628.63Z"/><path class="cls-113" d="M153.17,613.68l.15,10c0,2.48-1.69,4.93-4.95,6.79-.38.22-.78.42-1.17.6-.13.07-.27.12-.4.18l-.55.24-.25.09-.91.33c-.14,0-.27.1-.41.15l-.21.05-.61.18-.55.15h0l-.29.06a5,5,0,0,1-.5.11l-.44.1-.55.1-.41.07-.21,0c-.38.06-.76.11-1.15.15h-.21l-.93.09h-.34l-.4,0h-.39c-.28,0-.55,0-.83,0h-.32c-.39,0-.79,0-1.18,0H135l-.41,0-.65-.05-.39,0-.55-.07-.39,0-.47-.09-.72-.12-.31-.06c-.13,0-.24-.06-.36-.09-.35-.07-.69-.15-1-.25l-.1,0-.36-.08-.33-.11-.53-.16-.85-.3-.49-.19c-.29-.12-.57-.24-.86-.38l-.4-.18c-.41-.2-.81-.41-1.19-.64s-.71-.44-1-.67l-.24-.18-.26-.19-.24-.21a7.66,7.66,0,0,1-.66-.59,2,2,0,0,1-.22-.19l-.18-.2-.33-.37-.2-.23-.19-.27-.21-.3a1,1,0,0,0-.12-.16c-.1-.17-.18-.33-.27-.5a1.09,1.09,0,0,1-.08-.15l0,0c-.12-.23-.2-.45-.29-.67l0-.11L120,625c0-.11-.07-.23-.1-.34s0-.22-.06-.32l0-.21a.51.51,0,0,0,0-.13c0-.22,0-.44,0-.67v-.07l-.15-10a6.11,6.11,0,0,0,.06.86c0,.07,0,.14,0,.21a3.84,3.84,0,0,0,.16.67,1.6,1.6,0,0,1,0,.21c.1.27.21.55.34.82l.09.16c.11.21.25.43.38.65l.21.3.4.5c.1.13.22.25.33.37a4.78,4.78,0,0,0,.39.39c.21.2.43.4.66.59l.5.4.25.18c.33.23.67.46,1,.67s.78.44,1.19.64l.4.19c.28.13.57.26.86.37l.49.19c.28.11.56.21.85.3l.53.17.66.18h0l1.12.28.67.14.72.12c.29,0,.58.1.86.13l.56.07,1,.1.42,0c.47,0,.95.05,1.43.05h.23l1.22,0,.41,0c.42,0,.85,0,1.27-.09l.16,0c.47,0,.94-.11,1.4-.18l.41-.07,1-.19.5-.11.17,0,.69-.17.6-.17.63-.21c.31-.1.62-.22.91-.33l.8-.33.39-.17c.4-.19.8-.39,1.18-.6C151.48,618.61,153.14,616.16,153.17,613.68Z"/><path class="cls-114" d="M124.43,620.25c-6.54-3.87-6.52-10,.06-13.78s17.24-3.64,23.78.22,6.52,10-.06,13.78S131,624.12,124.43,620.25Z"/><path class="cls-115" d="M148.34,569.31l.11,42.49c0,1.77-1.2,3.52-3.53,4.84-.27.15-.55.29-.83.43l-.28.12c-.13,0-.25.12-.39.17l-.18.06c-.21.09-.43.16-.65.24l-.29.1-.15,0-.44.13-.38.1h0l-.21,0-.36.08-.31.07-.39.07-.29.05-.15,0-.82.11h-.15l-.66.06h-1.62l-.84,0h-.12l-.3,0-.46,0-.27,0-.39-.05-.28,0-.34-.06-.51-.09-.22,0-.26-.07c-.25,0-.49-.1-.73-.17l-.07,0-.26-.06-.23-.08-.38-.12-.6-.21-.35-.13-.61-.27-.29-.13c-.29-.15-.57-.29-.84-.45s-.51-.32-.74-.48l-.18-.13-.18-.14c-.07-.05-.11-.1-.17-.15a4.83,4.83,0,0,1-.47-.42l-.16-.13-.12-.14-.24-.27-.14-.16-.14-.2-.15-.21a.76.76,0,0,0-.08-.11c-.07-.12-.13-.24-.19-.36a.39.39,0,0,1-.06-.11l0,0a4.89,4.89,0,0,1-.2-.48.19.19,0,0,1,0-.08.83.83,0,0,1,0-.15,2.25,2.25,0,0,1-.08-.24,1.57,1.57,0,0,1,0-.23l0-.15a.29.29,0,0,1,0-.09,3.59,3.59,0,0,1,0-.47V585.9L124.41,569a4.18,4.18,0,0,0,0,.61.77.77,0,0,0,0,.15,4.05,4.05,0,0,0,.12.47.83.83,0,0,0,0,.15,3.66,3.66,0,0,0,.24.59s0,.07.06.11.17.31.27.46l.15.21.28.36.24.27.27.27c.15.15.31.28.48.42l.35.29.18.12a7.84,7.84,0,0,0,.74.48c.27.16.55.32.84.46l.29.13.61.27.35.13.6.21c.13,0,.25.09.38.12l.47.13h0l.8.2.48.1.51.09.61.09.4.05.73.07.3,0,1,0h.17c.29,0,.58,0,.86,0h.29l.9-.07h.12c.33,0,.67-.08,1-.13l.29-.05.71-.14.35-.08a.27.27,0,0,0,.12,0l.49-.12.43-.12.44-.15.65-.23.57-.24.28-.12c.28-.14.57-.28.83-.43C147.14,572.82,148.32,571.08,148.34,569.31Z"/><path class="cls-116" d="M127.9,574c-4.66-2.76-4.65-7.14,0-9.81s12.26-2.59,16.92.16,4.63,7.15-.05,9.81S132.56,576.74,127.9,574Z"/><path class="cls-117" d="M156.68,537.35l.19,28.72c0,3-2,6-6,8.22-.46.26-.94.5-1.42.73l-.48.21c-.22.1-.43.2-.66.29l-.31.11c-.35.14-.73.27-1.1.4-.17.05-.33.13-.5.18l-.26.07-.73.21-.66.18h0l-.35.07a6,6,0,0,1-.61.13c-.17,0-.34.09-.52.12s-.45.08-.68.12l-.49.08-.26,0-1.38.17h-.26l-1.12.1-.41,0-.49,0-.46,0h-1.4c-.47,0-.95,0-1.42-.05l-.21,0-.51,0-.78-.06-.47-.06-.66-.08-.48-.06-.57-.1-.87-.15-.37-.07-.44-.11c-.42-.09-.83-.18-1.24-.3l-.13,0-.44-.11-.39-.13-.64-.19-1-.37-.6-.23c-.35-.14-.7-.29-1-.45l-.49-.22c-.49-.25-1-.5-1.44-.77s-.85-.54-1.25-.82l-.3-.22a3.55,3.55,0,0,1-.31-.23c-.11-.08-.19-.17-.3-.25-.28-.23-.55-.48-.79-.72a3,3,0,0,1-.26-.22c-.08-.08-.14-.17-.22-.24s-.27-.31-.4-.46a3.22,3.22,0,0,1-.24-.28l-.24-.32c-.08-.13-.17-.24-.25-.36a1.33,1.33,0,0,0-.14-.19c-.12-.21-.23-.41-.32-.61a1.18,1.18,0,0,1-.11-.19l0,0a5.69,5.69,0,0,1-.34-.82.5.5,0,0,1,0-.13l-.07-.25c0-.14-.09-.28-.13-.41s0-.26-.06-.39l0-.26a.8.8,0,0,0,0-.15c0-.26,0-.53,0-.81v-.09L116,536.84a7.42,7.42,0,0,0,.08,1c0,.08,0,.17,0,.25a6,6,0,0,0,.2.81l.06.25c.12.33.25.66.41,1a1.74,1.74,0,0,0,.11.18c.14.27.3.53.46.8s.17.24.26.35.31.41.48.61.26.3.4.45.3.32.46.48.53.47.81.71.39.32.61.48l.3.22c.4.28.8.55,1.25.81a14.13,14.13,0,0,0,1.44.77l.48.23,1,.46.59.22c.34.13.68.25,1,.36l.64.21.8.22h0c.45.12.9.23,1.36.33l.81.17.88.16c.34.05.69.11,1,.15l.67.08c.42.05.83.09,1.25.12l.5,0c.57,0,1.15.06,1.73.07h.29c.49,0,1,0,1.47,0h.49c.51,0,1-.07,1.54-.12l.2,0c.56-.05,1.13-.14,1.69-.22l.5-.08,1.2-.23.6-.14.2,0,.83-.22.74-.2.76-.26c.37-.12.74-.25,1.1-.39l1-.4.46-.21c.49-.23,1-.47,1.43-.73C154.64,543.32,156.64,540.35,156.68,537.35Z"/><path class="cls-118" d="M121.92,545.3c-7.93-4.68-7.9-12.15.07-16.68s20.85-4.4,28.77.28,7.89,12.15-.07,16.67S129.84,550,121.92,545.3Z"/><path class="cls-119" d="M16.37,337.88l10.78,151c.67,11.09,7.5,21.31,17.85,26.72l115.17,60.14S152.73,405,135.61,390.57,16.37,337.88,16.37,337.88Z"/><path class="cls-120" d="M20,335.11A15.73,15.73,0,0,1,36.69,334l98.86,50.94c10.81,5.75,17.91,16.49,18.61,28.12l9.93,136.76c.52,8.72,10.79,14,18.14,9.37l55.86-34a5.29,5.29,0,0,1,8,4.2l.25,4.15a7,7,0,0,1-3.35,6.36l-58.84,35.44c-13.76,8.59-32.85-1.33-33.83-17.58l-9.72-133.45c-.73-12.11-8-23.32-19.17-29.5L16.37,337.88Z"/><path class="cls-121" d="M178.73,338.69c-11-1.33-22.07,9.5-18.88,28.46s67.09,62.44,80.74,58.09,49.66-90.91,49.66-90.91,1.17-12-11.9-15.15S263,328,263,328s-25.26,51.94-31.07,51.65S193.25,340.43,178.73,338.69Z"/><path class="cls-122" d="M267.27,321s-3.61-15.51,0-20.66,18.94-28.7,21.55-28.7,1.68,5.79-1.68,12a60,60,0,0,0-4.67,10.65s12.71,10.66,13.27,16.26S288.79,327,288.79,327,279.73,315.74,267.27,321Z"/><path class="cls-123" d="M548.35,135h-37l6.59,11.74-82,44.07a16.67,16.67,0,0,1-20.27-3.51L386.3,154.74a17,17,0,0,0-21.92-2.88l-68.45,44.37,3.86,6,67-43.42a12,12,0,0,1,15.41,2l30.15,33.37a20.07,20.07,0,0,0,24.4,4.23l84.64-45.5,7.32,13Z"/><path class="cls-124" d="M282.63,60.58A82.81,82.81,0,0,0,258,22a65.36,65.36,0,0,0-8.49-6.24C226.91,1.9,206,9.94,202.89,33.72S215.55,88,238.16,101.9c10.31,6.32,20.26,8.09,28.33,5.89,9.65-2.61,16.61-10.9,18.32-23.85A57.54,57.54,0,0,0,282.63,60.58ZM241.25,78.51c-10.33-6.33-17.56-20.28-16.12-31.15s11-14.54,21.31-8.2A29.18,29.18,0,0,1,250.32,42a37.91,37.91,0,0,1,11.25,17.63,26.55,26.55,0,0,1,1,10.68c-.78,5.92-4,9.71-8.37,10.9C250.51,82.21,246,81.4,241.25,78.51Z"/><path class="cls-125" d="M284.81,83.94c-1.71,13-12.33,24.11-22,26.72L254.2,81.21c4.4-1.19,7.59-5,8.37-10.9a26.55,26.55,0,0,0-1-10.68l21.06.95A57.54,57.54,0,0,1,284.81,83.94Z"/><path class="cls-126" d="M282.63,60.58,273.05,66c-1.9-6.56-19.33-34-24.61-38.56L258,22A82.81,82.81,0,0,1,282.63,60.58Z"/><path class="cls-127" d="M273.05,66A82.62,82.62,0,0,0,248.44,27.4,65,65,0,0,0,240,21.15c-22.62-13.86-43.5-5.82-46.64,18S206,93.42,228.59,107.29c10.31,6.32,20.25,8.09,28.32,5.89,9.65-2.62,16.62-10.9,18.33-23.85A57.79,57.79,0,0,0,273.05,66ZM231.67,83.9c-10.33-6.33-17.55-20.28-16.12-31.15s11-14.55,21.31-8.21a31,31,0,0,1,3.89,2.85A37.91,37.91,0,0,1,252,65a26.35,26.35,0,0,1,1,10.68c-.78,5.91-4,9.7-8.37,10.9C240.93,87.6,236.39,86.79,231.67,83.9Z"/><path class="cls-128" d="M275.24,89.33c-1.71,13-8.68,21.23-18.33,23.85L244.62,86.6c4.41-1.2,7.59-5,8.37-10.9A26.35,26.35,0,0,0,252,65l21.05.94A57.79,57.79,0,0,1,275.24,89.33Z"/><path class="cls-129" d="M273.05,66,252,65a37.91,37.91,0,0,0-11.25-17.63l7.69-20A82.62,82.62,0,0,1,273.05,66Z"/><ellipse class="cls-130" cx="391.84" cy="47.23" rx="33.69" ry="50.08" transform="translate(20.58 181.15) rotate(-26.71)"/><ellipse class="cls-131" cx="383.54" cy="51.52" rx="33.69" ry="50.08" transform="translate(17.77 177.88) rotate(-26.71)"/><ellipse class="cls-132" cx="383.55" cy="51.51" rx="26.64" ry="39.59" transform="translate(17.77 177.88) rotate(-26.71)"/><path class="cls-133" d="M403,85.91c-8.21,5.3-20,3.48-30.73-5.94C357.11,66.63,349.83,43.06,356,27.33c2.59-6.54,7.1-10.68,12.6-12.34a21,21,0,0,0-8,10.21c-6.21,15.72,1.06,39.28,16.25,52.64C385.76,85.62,395.34,88.21,403,85.91Z"/><path class="cls-134" d="M411.06,75.67a21.15,21.15,0,0,1-8,10.24c-7.69,2.3-17.27-.29-26.13-8.07-15.19-13.36-22.46-36.92-16.25-52.64a21,21,0,0,1,8-10.21c7.68-2.33,17.3.27,26.16,8.06C410,36.39,417.27,60,411.06,75.67Z"/><path class="cls-135" d="M381.65,67.2V62.46a28.45,28.45,0,0,1-7.18-6.29l1.13-2.48a25.89,25.89,0,0,0,6.76,6c3.33,2,5.58,1.37,5.58-1.31s-1.83-5.25-5.3-8.7C377.85,45,374.9,41.08,374.9,37c0-3.89,2.76-5.22,7.08-3.38V28.87l2.91,1.71v4.55a25.77,25.77,0,0,1,6.1,5.24l-1.18,2.4a23.08,23.08,0,0,0-5.91-5.07c-3.61-2.13-5-.77-5,1.11,0,2.44,1.74,4.68,5.82,8.77,4.83,4.81,7.27,8.69,7.27,12.86,0,3.71-2.58,5.67-7.41,3.62v4.88Z"/><path class="cls-136" d="M53.41,129.38c-19-2.08-24.65,13.68-16.07,48.22s16.39,69.64,24.54,73.75,78.93,34.26,78.93,34.26S137.46,273.3,144,266s12.2-8.28,12.2-8.28S90.22,227.44,86,217.67,74.26,131.66,53.41,129.38Z"/><path class="cls-137" d="M256,170.26s-6.16,1.24-9.58,11.94,0,16.52,0,16.52-62.08-17.88-69.9-24.38c-3.77-3.14-13.31-13.78-22.17-23.92-2-28.83-6-56.35-13.9-68.21,7.45,10,47.57,63.63,57.9,68.35C209.79,155.76,256,170.26,256,170.26Z"/><path class="cls-138" d="M174.8,251.35s.37,16.18-1.46,18.25a71,71,0,0,0-4.5,6.14s3.68,4.78,2.27,7.88-6.47,18.58-8.64,20-9.26,2-9.26,2l-2.62,14.15s-6.93,6.21-20.44,2.5-12.64-11-12.64-11l4.5-58.11Z"/><path class="cls-139" d="M164,259.2s8.67,2.57,13.59-3.25,5.31-24.76,1.48-26.19-16,5.7-29.55,3.66-31.38-2.69-39.17,7.17-2.62,14.19-2.62,14.19-15.58,9-2.36,26,14.59,19.61,22.9,21.41,17.71-8.1,17.25-14.69-1.27-13.95,4.54-12.87,0,8.91,4.62,11.45,8.71-8,7.21-15.51S164,259.2,164,259.2Z"/><path class="cls-140" d="M118.62,26.42s4.91,14.7,4.17,17.21a9.34,9.34,0,0,1-2.23,3.93s4.3,5.88,3.37,10.61-1.91,20-3.83,22.19-13.71,5.51-13.71,5.51l1.26,9.22s-1.94,7-13.66,9.12-19.46,0-19.46,0l-9-42.38S92.11,36.66,92.68,36,118.62,26.42,118.62,26.42Z"/><path class="cls-141" d="M90.35,38.27a40.35,40.35,0,0,0,22.06,1.92c12.17-2.41,20.34-15.11,19.08-19.39s-15.81-1.56-26.9-5.24-32.71-5.21-42.25.3a15.8,15.8,0,0,0-7.89,15.62S40.76,43,47.42,56.06s12.7,23,16.32,26.06S77.3,85.3,73.79,75.75,74.48,63.62,79,64s-.81,11.46,2.87,12.87,6.69-5.4,4.26-13.22,6.86-6.29,8-12.72S90.35,38.27,90.35,38.27Z"/><path class="cls-142" d="M251.1,173.59s11.19-4.52,18.6-3.33,14.78,1.56,14.78,1.56-1.55,7.41-9.1,4.5-.46,6.07,9.1,4.09,26.06-3,17.17,5.43-21.39,9.31-36,8.67-20.72-2.1-20.72-2.1S242.44,178.69,251.1,173.59Z"/></g></g></g></svg>