<svg xmlns="http://www.w3.org/2000/svg" viewBox="0 0 363.52 328.63"><defs><style>.cls-1,.cls-8{fill:#c46c5a;}.cls-1,.cls-10,.cls-2,.cls-3,.cls-4,.cls-5,.cls-9{fill-rule:evenodd;}.cls-2{fill:#e28775;}.cls-3{fill:#35475b;}.cls-4{fill:#db6969;}.cls-5{fill:#c3c4c4;}.cls-6{fill:#989898;}.cls-7{fill:#172433;}.cls-9{fill:#506c8c;}.cls-10{fill:#18293d;}</style></defs><g id="Layer_2" data-name="Layer 2"><g id="Layer_1-2" data-name="Layer 1"><path class="cls-1" d="M194.76,102.14,193.4,138.6h0c-22.54,39.88-45.08,38.39-67.58-3.26l8.71-43.81c6.69,11.07,17.13,19.45,29.64,20.93,11.23,1.37,22-2.85,30.59-10.32Z"/><path class="cls-1" d="M203.8,63.66a10.15,10.15,0,0,1,8.88,11.27c-.66,5.58-6.19,13.59-11.77,12.89s-9-9.71-8.38-15.28a10.14,10.14,0,0,1,11.27-8.88Z"/><path class="cls-2" d="M175.23,19.61c24,2.85,39.89,19,30.76,47.15-2.93,8.92,1.86,20.27-4.13,27.91-9.37,11.93-23.12,19.53-37.69,17.79-23.9-2.85-40.21-30.84-37.36-54.74a43.56,43.56,0,0,1,48.42-38.11Z"/><path class="cls-3" d="M140.51,56.36c-.78,10.65-.41,21.38,1.61,25.22,3.43,6.48,14.25,1.53,21.6.79,5.57-.54,16.55.82,24.31,3.59,5.29,1.86,9.46,5.2,13.83,8.71-.57,5.37-.53,17.67-4.79,21C183,126.5,141,121.26,132.38,105.49c-7.55-13.83-4.17-30.84-3.47-47.07C117.77,50.2,122.68,18.66,148,19.53c11-1.94,21.8-4.34,29-12.8,10.86-10.28,18.37-7.8,24.36.83,7.88-1.49,11.35,1.73,9.53,10.52,10.45-2.89,18,.46,18.25,10.16.25,14.29-8.79,18.37-18.29,19.07-22.54-18.82-34.84,0-56.93-13.62a45.34,45.34,0,0,1-13.38,22.67Z"/><path class="cls-1" d="M181.72,59.7,171.44,79.27l5.4,1.28,5.41,1.28c-.16-7.39-.41-14.78-.53-22.13Z"/><path class="cls-3" d="M191.25,57.59c-1.61-.7-1.11-5.44.62-5.24,5.82.7,18.66,3.43,17.84,7.14-.62,2.77-13.34.42-18.46-1.9Z"/><path class="cls-3" d="M172.14,54.66c1.73-.33,2.39-5,.62-5.2-5.82-.7-18.95-1.07-19,2.73,0,2.8,12.88,3.51,18.37,2.47Z"/><path class="cls-4" d="M152.2,69.07c3.55.33,8.58.62,10.48,3.64,1.45,2.27-1.77,7.34-4.45,7.14-4.84-.46-16.06-11.77-6-10.78Z"/><path class="cls-4" d="M202,78.82c-3.1-1.78-7.39-4.42-10.7-3.06-2.51,1-2.76,7.06-.45,8.42,4.25,2.4,19.9-.41,11.15-5.36Z"/><path class="cls-3" d="M167.1,59.91c1.61.62,2.19,3.05,1.28,5.41s-3,3.79-4.58,3.17-2.19-3-1.28-5.4,3-3.8,4.58-3.18Z"/><path class="cls-3" d="M195.05,64.2c1.65.62,2.19,3.06,1.28,5.45s-2.93,3.8-4.58,3.18-2.19-3.06-1.28-5.45,3-3.8,4.58-3.18Z"/><path class="cls-5" d="M193.4,138.6c-22.54,39.88-45.08,38.39-67.58-3.26-33.2,4.12-74.94,22.12-92.4,50.12C4.93,231.08-13.19,324.63,11.91,328.63H306.23c40.5,0,3.26-94.83-30.59-140.7-17.3-23.41-54.83-39.59-82.24-49.33Z"/><path class="cls-6" d="M217.55,195.45a2.1,2.1,0,0,1,2.31-1.82,2.06,2.06,0,0,1,1.78,2.31c-1.2,10.28-1.2,17.88-.17,24.94s3.14,13.66,6,22a2.07,2.07,0,0,1-3.92,1.32c-2.93-8.54-5-15.35-6.11-22.74s-1.16-15.32.12-26Z"/><path class="cls-6" d="M78.59,269.47A2.07,2.07,0,0,1,80.77,273a26.21,26.21,0,0,0-6,4.67,14.71,14.71,0,0,0-2.93,5.65,2.05,2.05,0,0,1-3.93-1.2,18.57,18.57,0,0,1,3.76-7.18,31,31,0,0,1,6.94-5.45Zm15.56-74.15a2,2,0,0,1,2.27-1.77,2,2,0,0,1,1.78,2.31C97,205,96.67,213,96.38,220.26c-.62,15.27-1.11,27.74-9.33,43.06,22,2.35,46.9,8.34,69.28,13.71,4.83,1.15,9.53,2.31,15.19,3.59a2.08,2.08,0,0,1-1,4c-4.09-1-9.58-2.27-15.23-3.63-23.25-5.61-49.38-11.89-71.8-13.91a2.48,2.48,0,0,1-.87-.29,2.07,2.07,0,0,1-.74-2.81c9.21-15.73,9.7-28.28,10.36-43.93.29-7.34.62-15.4,1.86-24.77Zm-19.44,66.6a2.06,2.06,0,0,1,1.77,2.31A2,2,0,0,1,74.17,266a21.33,21.33,0,0,0-8,.7,30.42,30.42,0,0,0-8.42,3.68,2.11,2.11,0,0,1-2.89-.58,2.07,2.07,0,0,1,.62-2.85,33.6,33.6,0,0,1,9.66-4.21,24.14,24.14,0,0,1,9.54-.82Z"/><path class="cls-2" d="M252,317.69,165.53,316c6.57-8.55,8.67-19.94,9.66-32,44.63,3.59,77,19.45,76.84,33.73Z"/><path class="cls-2" d="M128.29,56.19A10.13,10.13,0,0,0,117,65.07c-.66,5.53,2.81,14.61,8.38,15.27s11.07-7.3,11.77-12.88a10.16,10.16,0,0,0-8.88-11.27Z"/><path class="cls-7" d="M184.85,14.33a1,1,0,1,1,1.53,1.4,24.88,24.88,0,0,1-5.28,4.38,46.12,46.12,0,0,1-6.2,3.3,1,1,0,0,1-1.36-.54,1,1,0,0,1,.5-1.32A42.41,42.41,0,0,0,180,18.37a22.68,22.68,0,0,0,4.87-4Zm19.49,5.37a1,1,0,0,1,1.12.9,1,1,0,0,1-1,1.12c-6.36.58-11.32,2.81-16.31,5s-9.83,4.42-16.27,5.25a1,1,0,0,1-1.15-.87,1,1,0,0,1,.86-1.15c6.15-.79,11-3,15.73-5.08,5.12-2.31,10.24-4.63,17-5.2Z"/><path class="cls-8" d="M175.23,92.48c-5.44-.66-10.23-4.71-12.34-2.6-4.42,4.5,4.25,10.2,11.31,11.06s16.85-2.68,13.63-8.09c-1.57-2.56-7.19.25-12.6-.37Z"/><path class="cls-3" d="M113.55,317.53H271.92a3.44,3.44,0,0,1,3.39,3.42v4.26a3.41,3.41,0,0,1-3.39,3.42H113.55a3.4,3.4,0,0,1-3.38-3.42V321a3.44,3.44,0,0,1,3.38-3.42Z"/><path class="cls-3" d="M220,216.09H352.8c7.23,0,11.93,5.9,10.45,13.09L345.7,315.5c-1.44,7.23-8.54,13.13-15.77,13.13H197.12c-7.23,0-11.94-5.9-10.45-13.13l17.55-86.32c1.44-7.19,8.54-13.09,15.77-13.09Z"/><path class="cls-5" d="M279.36,264.72c4.21,0,6.77,3.43,5.73,7.64a10.51,10.51,0,0,1-9.57,7.64c-4.21,0-6.82-3.43-5.74-7.64a10.52,10.52,0,0,1,9.58-7.64Z"/><path class="cls-9" d="M215.69,221.75c-2,.08,1.74,4.54,3.72,4.58,46.12,1.57,92.36,1.81,138.47.25,2.73-.09-3.92-4.63-6.6-4.71-45.17-1.53-90.42-1.65-135.59-.12Z"/><path class="cls-10" d="M209.54,230.08c.58-2,4.3,2.65,4,4.71-4.13,30.26-8.75,60.61-16.89,90-.91,3.22-6.19-4.83-5.74-8.13,4-29.23,10.78-58.13,18.62-86.58Z"/></g></g></svg>