<svg xmlns="http://www.w3.org/2000/svg" xmlns:xlink="http://www.w3.org/1999/xlink" viewBox="0 0 556.42 200.52"><defs><style>.cls-1{fill:none;}.cls-2{fill:#fff;}.cls-3{fill:#55a75c;}.cls-4{fill:#5ea47c;}.cls-5{fill:#51a875;}.cls-6{fill:#54a860;}.cls-7{fill:#579d59;}.cls-8{clip-path:url(#clip-path);}.cls-9{fill:url(#linear-gradient);}.cls-10{clip-path:url(#clip-path-2);}.cls-11{fill:url(#linear-gradient-2);}.cls-12{clip-path:url(#clip-path-3);}.cls-13{fill:url(#linear-gradient-3);}.cls-14{clip-path:url(#clip-path-4);}.cls-15{fill:url(#linear-gradient-4);}.cls-16{clip-path:url(#clip-path-5);}.cls-17{fill:url(#linear-gradient-5);}.cls-18{clip-path:url(#clip-path-6);}.cls-19{fill:url(#linear-gradient-6);}.cls-20{clip-path:url(#clip-path-7);}.cls-21{fill:url(#linear-gradient-7);}.cls-22{clip-path:url(#clip-path-8);}.cls-23{fill:url(#linear-gradient-8);}.cls-24{clip-path:url(#clip-path-9);}.cls-25{fill:url(#linear-gradient-9);}.cls-26{clip-path:url(#clip-path-10);}.cls-27{fill:url(#linear-gradient-10);}.cls-28{clip-path:url(#clip-path-11);}.cls-29{fill:url(#linear-gradient-11);}.cls-30{clip-path:url(#clip-path-12);}.cls-31{fill:url(#linear-gradient-12);}.cls-32{clip-path:url(#clip-path-13);}.cls-33{fill:url(#linear-gradient-13);}.cls-34{clip-path:url(#clip-path-14);}.cls-35{fill:url(#linear-gradient-14);}.cls-36{clip-path:url(#clip-path-15);}.cls-37{fill:url(#linear-gradient-15);}.cls-38{clip-path:url(#clip-path-16);}.cls-39{fill:url(#linear-gradient-16);}.cls-40{clip-path:url(#clip-path-17);}.cls-41{fill:url(#linear-gradient-17);}.cls-42{clip-path:url(#clip-path-18);}.cls-43{fill:url(#linear-gradient-18);}.cls-44{clip-path:url(#clip-path-19);}.cls-45{fill:url(#linear-gradient-19);}.cls-46{clip-path:url(#clip-path-20);}.cls-47{fill:url(#linear-gradient-20);}.cls-48{clip-path:url(#clip-path-21);}.cls-49{fill:url(#linear-gradient-21);}.cls-50{clip-path:url(#clip-path-22);}.cls-51{fill:url(#linear-gradient-22);}.cls-52{clip-path:url(#clip-path-23);}.cls-53{fill:url(#linear-gradient-23);}.cls-54{clip-path:url(#clip-path-24);}.cls-55{fill:url(#linear-gradient-24);}.cls-56{clip-path:url(#clip-path-25);}.cls-57{fill:url(#linear-gradient-25);}</style><clipPath id="clip-path"><path class="cls-1" d="M329.3,121.36l-2.89,6h-8.78l-3,6.45h28L339,142.64h-14l-3.3,6.44H303.62l-3.28,7.55H334.1L330.4,166H317.9L315,171.73h-11l-2.74,7h45a24.84,24.84,0,0,0,22.94-15.33l8.93-21.58L383,130.32l3.71-9Z"/></clipPath><linearGradient id="linear-gradient" x1="289.69" y1="-2204.31" x2="292.57" y2="-2204.31" gradientTransform="matrix(29.96, 0, 0, -29.96, -8378.06, -65885.66)" gradientUnits="userSpaceOnUse"><stop offset="0" stop-color="#53a768"/><stop offset="0.21" stop-color="#51a46f"/><stop offset="0.51" stop-color="#4c9b83"/><stop offset="0.88" stop-color="#448da4"/><stop offset="1" stop-color="#4187b1"/></linearGradient><clipPath id="clip-path-2"><rect class="cls-1" x="462.64" y="14.64" width="52.28" height="0.99" transform="translate(76.35 277.89) rotate(-34.27)"/></clipPath><linearGradient id="linear-gradient-2" x1="341.96" y1="-2160.65" x2="344.57" y2="-2160.65" gradientTransform="translate(15759.64 -96136.95) rotate(-180) scale(44.5)" gradientUnits="userSpaceOnUse"><stop offset="0" stop-color="#62b34f"/><stop offset="0.46" stop-color="#51bab4"/><stop offset="1" stop-color="#0094d3"/></linearGradient><clipPath id="clip-path-3"><rect class="cls-1" x="463.6" y="12.24" width="41.89" height="0.99" transform="translate(77.54 275.98) rotate(-34.4)"/></clipPath><linearGradient id="linear-gradient-3" x1="341.96" y1="-2160.59" x2="344.57" y2="-2160.59" gradientTransform="translate(15757 -96136.49) rotate(-180) scale(44.5)" xlink:href="#linear-gradient-2"/><clipPath id="clip-path-4"><rect class="cls-1" x="464.71" y="10.42" width="29.18" height="0.99" transform="translate(77.49 272.44) rotate(-34.36)"/></clipPath><linearGradient id="linear-gradient-4" x1="341.97" y1="-2160.52" x2="344.57" y2="-2160.52" gradientTransform="translate(15753.86 -96130.45) rotate(-180) scale(44.5)" xlink:href="#linear-gradient-2"/><clipPath id="clip-path-5"><polygon class="cls-1" points="467.01 13.39 467.57 14.2 477.56 7.3 477 6.49 467.01 13.39"/></clipPath><linearGradient id="linear-gradient-5" x1="341.97" y1="-2160.45" x2="344.57" y2="-2160.45" gradientTransform="translate(15751.67 -96127.91) rotate(180) scale(44.5)" xlink:href="#linear-gradient-2"/><clipPath id="clip-path-6"><polygon class="cls-1" points="532.33 38.04 532.32 38.03 525.32 42.81 525.33 42.82 489.3 67.38 490.05 68.47 485.15 71.89 485.54 72.44 475.12 79.71 475.68 80.52 487.18 72.49 490.98 69.84 527.57 44.89 526.81 43.79 533.25 39.4 532.89 38.86 556.39 22.84 555.83 22.02 532.33 38.04"/></clipPath><linearGradient id="linear-gradient-6" x1="341.97" y1="-2161.28" x2="344.58" y2="-2161.28" gradientTransform="translate(15789.61 -96123.66) rotate(180) scale(44.5)" xlink:href="#linear-gradient-2"/><clipPath id="clip-path-7"><polygon class="cls-1" points="534.32 42.01 534.32 42 526.82 47.11 526.83 47.12 491.97 70.89 492.7 71.97 487.47 75.63 487.83 76.15 477.62 83.3 478.19 84.12 488.4 76.97 488.41 76.98 493.63 73.33 493.64 73.34 528.62 49.49 527.86 48.4 535.24 43.37 534.87 42.83 556.36 28.18 555.8 27.36 534.32 42.01"/></clipPath><linearGradient id="linear-gradient-7" x1="341.96" y1="-2161.33" x2="344.57" y2="-2161.33" gradientTransform="translate(15794.22 -96130.79) rotate(180) scale(44.5)" xlink:href="#linear-gradient-2"/><clipPath id="clip-path-8"><polygon class="cls-1" points="536.23 46.03 536.23 46.03 530.02 50.25 530.02 50.26 494.44 74.52 495.18 75.61 490.38 78.96 490.75 79.48 480.43 86.72 481 87.53 491.32 80.3 491.32 80.31 496.11 76.97 496.12 76.98 531.71 52.71 530.97 51.61 537.15 47.39 536.79 46.85 556.33 33.53 555.77 32.72 536.23 46.03"/></clipPath><linearGradient id="linear-gradient-8" x1="341.96" y1="-2161.39" x2="344.57" y2="-2161.39" gradientTransform="translate(15796.78 -96124.84) rotate(180) scale(44.5)" xlink:href="#linear-gradient-2"/><clipPath id="clip-path-9"><polygon class="cls-1" points="539.16 49.37 539.16 49.36 533 53.55 533.01 53.56 497.03 77.98 497.79 79.1 491.65 83.39 492.03 83.93 483.51 89.88 484.09 90.69 493.81 83.89 493.81 83.89 500.35 79.32 535 55.8 534.25 54.7 540.09 50.72 539.71 50.18 556.3 38.88 555.74 38.06 539.16 49.37"/></clipPath><linearGradient id="linear-gradient-9" x1="341.97" y1="-2161.45" x2="344.58" y2="-2161.45" gradientTransform="translate(15799.35 -96118.3) rotate(180) scale(44.5)" xlink:href="#linear-gradient-2"/><clipPath id="clip-path-10"><polygon class="cls-1" points="542.77 52.22 542.76 52.2 536.04 56.79 536.04 56.8 504.82 78.09 505.56 79.16 498.18 84.33 498.56 84.87 487.03 92.92 487.6 93.73 500.15 84.96 506.49 80.53 506.5 80.54 537.9 59.13 537.15 58.02 543.69 53.57 543.33 53.04 556.26 44.21 555.71 43.39 542.77 52.22"/></clipPath><linearGradient id="linear-gradient-10" x1="341.97" y1="-2161.51" x2="344.58" y2="-2161.51" gradientTransform="translate(15802.54 -96116.76) rotate(180) scale(44.5)" xlink:href="#linear-gradient-2"/><clipPath id="clip-path-11"><polygon class="cls-1" points="550.77 52.48 550.59 52.2 542.69 57.59 512.48 78.19 513.23 79.29 505.09 84.98 505.47 85.52 491.18 95.51 491.75 96.32 507.04 85.63 514.91 80.13 544.37 60.05 543.62 58.95 551.52 53.57 551.05 52.89 551.34 53.3 556.24 49.83 555.67 49.02 550.77 52.48"/></clipPath><linearGradient id="linear-gradient-11" x1="341.97" y1="-2161.57" x2="344.58" y2="-2161.57" gradientTransform="translate(15805.8 -96115.39) rotate(180) scale(44.5)" xlink:href="#linear-gradient-2"/><clipPath id="clip-path-12"><polygon class="cls-1" points="550.91 57.33 550.91 57.31 546.46 60.34 546.45 60.34 528.68 72.46 529.43 73.56 521.91 78.82 522.29 79.36 495.19 98.31 495.76 99.11 523.93 79.42 530.52 74.82 530.51 74.81 548.12 62.8 547.38 61.71 551.83 58.68 551.46 58.14 556.12 54.97 555.57 54.15 550.91 57.33"/></clipPath><linearGradient id="linear-gradient-12" x1="341.97" y1="-2161.63" x2="344.58" y2="-2161.63" gradientTransform="translate(15808.88 -96113.95) rotate(180) scale(44.5)" xlink:href="#linear-gradient-2"/><clipPath id="clip-path-13"><polygon class="cls-1" points="551.79 62.24 551.7 62.1 547.51 64.96 547.5 64.96 533.4 74.57 534.14 75.67 527.58 80.26 527.96 80.81 499.4 100.77 499.96 101.58 529.99 80.59 529.99 80.59 535.75 76.56 549.17 67.41 548.44 66.33 552.63 63.47 552.16 62.79 555.36 60.6 554.99 60.06 551.79 62.24"/></clipPath><linearGradient id="linear-gradient-13" x1="341.97" y1="-2161.68" x2="344.58" y2="-2161.68" gradientTransform="translate(15812.82 -96116.49) rotate(180) scale(44.5)" xlink:href="#linear-gradient-2"/><clipPath id="clip-path-14"><polygon class="cls-1" points="495.09 15.56 495.08 15.55 488.41 20.1 488.41 20.09 472.33 31.06 473.08 32.16 469.26 34.82 469.65 35.36 466.86 37.32 467.43 38.13 470.88 35.71 474.9 32.9 490.08 22.55 489.33 21.46 496.01 16.92 495.64 16.39 518.12 1.05 517.56 0.24 495.09 15.56"/></clipPath><linearGradient id="linear-gradient-14" x1="341.97" y1="-2160.73" x2="344.58" y2="-2160.73" gradientTransform="matrix(-44.5, 0, 0, -44.5, 15762.64, -96131.59)" xlink:href="#linear-gradient-2"/><clipPath id="clip-path-15"><polygon class="cls-1" points="499.67 17.8 499.64 17.76 494.47 21.29 474.5 34.9 475.25 36.01 471.82 38.4 472.2 38.95 466.82 42.7 467.4 43.51 473.41 39.31 473.41 39.31 477.37 36.54 496.13 23.74 495.39 22.66 500.57 19.12 500.23 18.62 524.69 1.78 524.12 0.98 499.67 17.8"/></clipPath><linearGradient id="linear-gradient-15" x1="341.97" y1="-2160.79" x2="344.58" y2="-2160.79" gradientTransform="translate(15765.42 -96131.24) rotate(180) scale(44.5)" xlink:href="#linear-gradient-2"/><clipPath id="clip-path-16"><polygon class="cls-1" points="503.82 20.25 503.79 20.21 498.07 24.12 498.08 24.14 476.67 38.74 477.42 39.85 472.79 43.09 473.17 43.63 466.79 48.09 467.36 48.89 474.3 44.05 479.56 40.37 499.99 26.44 499.23 25.32 504.72 21.57 504.38 21.06 530.76 2.91 530.19 2.09 503.82 20.25"/></clipPath><linearGradient id="linear-gradient-16" x1="341.97" y1="-2160.85" x2="344.58" y2="-2160.85" gradientTransform="translate(15768.32 -96130.67) rotate(180) scale(44.5)" xlink:href="#linear-gradient-2"/><clipPath id="clip-path-17"><polygon class="cls-1" points="507.57 22.95 507.59 22.97 502.15 26.69 478.83 42.59 479.59 43.7 474.26 47.42 474.64 47.97 466.83 53.42 467.4 54.24 476.4 47.94 482.14 43.94 503.85 29.13 503.1 28.03 508.89 24.08 508.51 23.51 536.76 4.47 536.21 3.64 507.57 22.95"/></clipPath><linearGradient id="linear-gradient-17" x1="341.97" y1="-2160.92" x2="344.58" y2="-2160.92" gradientTransform="translate(15771.32 -96129.98) rotate(180) scale(44.5)" xlink:href="#linear-gradient-2"/><clipPath id="clip-path-18"><polygon class="cls-1" points="512.51 24.96 512.5 24.95 505.99 29.39 505.99 29.4 481 46.44 481.74 47.53 476.96 50.87 477.35 51.42 467.28 58.43 467.86 59.24 478.98 51.48 478.97 51.47 482.67 48.89 482.67 48.89 507.7 31.82 506.95 30.73 513.43 26.31 513.07 25.78 541.47 6.4 540.92 5.59 512.51 24.96"/></clipPath><linearGradient id="linear-gradient-18" x1="341.97" y1="-2160.98" x2="344.58" y2="-2160.98" gradientTransform="translate(15774.32 -96129.15) rotate(-180) scale(44.5)" xlink:href="#linear-gradient-2"/><clipPath id="clip-path-19"><polygon class="cls-1" points="517.05 27.18 517.04 27.17 509.45 32.34 509.45 32.35 483.16 50.28 483.91 51.38 479.4 54.54 479.78 55.08 468.17 63.19 468.74 64 481.47 55.11 481.46 55.1 485.68 52.16 511.56 34.52 510.81 33.42 517.98 28.53 517.61 28 546.79 8.1 546.24 7.28 517.05 27.18"/></clipPath><linearGradient id="linear-gradient-19" x1="341.97" y1="-2161.04" x2="344.58" y2="-2161.04" gradientTransform="translate(15777.22 -96128.68) rotate(180) scale(44.5)" xlink:href="#linear-gradient-2"/><clipPath id="clip-path-20"><polygon class="cls-1" points="523.86 27.97 523.85 27.96 516.89 32.72 516.89 32.73 485.17 54.23 485.93 55.34 480.27 59.3 480.65 59.84 469.43 67.67 470 68.49 482.18 59.98 482.18 59.97 488.23 55.75 518.78 35.04 518.02 33.93 524.78 29.33 524.41 28.79 551.52 10.31 550.96 9.48 523.86 27.97"/></clipPath><linearGradient id="linear-gradient-20" x1="341.97" y1="-2161.1" x2="344.58" y2="-2161.1" gradientTransform="matrix(-44.5, 0, 0, -44.5, 15780.17, -96128.1)" xlink:href="#linear-gradient-2"/><clipPath id="clip-path-21"><polygon class="cls-1" points="526.58 31.35 526.57 31.34 519.78 35.97 519.78 35.96 485.88 59.08 486.62 60.18 480.89 64.19 481.27 64.73 471.02 71.89 471.58 72.7 482.94 64.77 482.93 64.77 488.29 61.03 521.45 38.41 520.71 37.33 527.5 32.71 527.13 32.16 555.81 12.62 555.25 11.79 526.58 31.35"/></clipPath><linearGradient id="linear-gradient-21" x1="341.97" y1="-2161.16" x2="344.58" y2="-2161.16" gradientTransform="translate(15783.12 -96127.54) rotate(-180) scale(44.5)" xlink:href="#linear-gradient-2"/><clipPath id="clip-path-22"><polygon class="cls-1" points="528.74 35.19 528.73 35.17 522.25 39.59 486.85 63.73 487.6 64.81 482.25 68.56 482.65 69.12 472.89 75.87 473.46 76.68 484.01 69.38 483.98 69.35 488.53 66.18 488.53 66.18 523.93 42.05 523.19 40.96 529.66 36.54 529.29 36.01 556.42 17.51 555.86 16.69 528.74 35.19"/></clipPath><linearGradient id="linear-gradient-22" x1="341.96" y1="-2161.22" x2="344.57" y2="-2161.22" gradientTransform="translate(15786.98 -96130.53) rotate(-180) scale(44.5)" xlink:href="#linear-gradient-2"/><clipPath id="clip-path-23"><rect class="cls-1" x="498.43" y="86.01" width="59.68" height="0.99" transform="translate(45.53 317.83) rotate(-34.9)"/></clipPath><linearGradient id="linear-gradient-23" x1="342.06" y1="-2161.76" x2="344.66" y2="-2161.76" gradientTransform="matrix(-44.44, 0, 0, -44.44, 15799.42, -95980.08)" xlink:href="#linear-gradient-2"/><clipPath id="clip-path-24"><rect class="cls-1" x="503.2" y="92.46" width="50.23" height="0.99" transform="translate(41.37 317.99) rotate(-34.78)"/></clipPath><linearGradient id="linear-gradient-24" x1="341.96" y1="-2161.94" x2="344.57" y2="-2161.94" gradientTransform="matrix(-44.44, 0, 0, -44.44, 15798.49, -95981.76)" xlink:href="#linear-gradient-2"/><clipPath id="clip-path-25"><rect class="cls-1" x="520.32" y="95.75" width="22.07" height="0.99" transform="translate(40.51 321.35) rotate(-34.9)"/></clipPath><linearGradient id="linear-gradient-25" x1="341.96" y1="-2162.01" x2="344.57" y2="-2162.01" gradientTransform="translate(15801.45 -95981.25) rotate(-180) scale(44.44)" xlink:href="#linear-gradient-2"/></defs><g id="Layer_2" data-name="Layer 2"><g id="Layer_1-2" data-name="Layer 1"><path class="cls-2" d="M172.45,130.41v18.4a10.19,10.19,0,0,1-.85,3.9,12.58,12.58,0,0,1-.93,1.69,10.48,10.48,0,0,1-1.43,1.75,15.21,15.21,0,0,1-2,1.67,16.16,16.16,0,0,1-2.67,1.43l-.09,0h0a5.49,5.49,0,0,1-3.06.41v-4.07a2.75,2.75,0,0,0,1.62-.11c.32-.13.62-.27.89-.41a7.28,7.28,0,0,0,.88-.51,11.13,11.13,0,0,0,1.4-1.07,6.91,6.91,0,0,0,1-1.11,7.51,7.51,0,0,0,.64-1,5.48,5.48,0,0,0,.59-2.4V130.41Z"/><path class="cls-2" d="M208,130.41v14a2.52,2.52,0,0,1-.2,1,2.48,2.48,0,0,1-.55.81,2.6,2.6,0,0,1-.82.56,2.42,2.42,0,0,1-1,.2h-9.12v-8.46a9.35,9.35,0,0,0-18.7,0v3.14A9.34,9.34,0,0,0,187,151h5.21a5.21,5.21,0,0,1-3.36,3.68,4.9,4.9,0,0,1-1.76.3h-6.34v4h6.34a8.9,8.9,0,0,0,3.35-.62,9.11,9.11,0,0,0,2.8-1.69,9.5,9.5,0,0,0,2-2.53,8.9,8.9,0,0,0,1-3.17h9.15a6.51,6.51,0,0,0,2.57-.51,6.75,6.75,0,0,0,3.53-3.52,6.41,6.41,0,0,0,.52-2.59v-14ZM192.37,147h-6.21a2,2,0,0,1-.35-.06,5.36,5.36,0,0,1-4.22-5.25v-3.14a5.39,5.39,0,0,1,10.78,0Z"/><path class="cls-2" d="M261.21,129.22a9.35,9.35,0,0,0-9.34,9.35v3.13a9.28,9.28,0,0,0,1.67,5.32H223.21a2.38,2.38,0,0,1-1-.2,2.6,2.6,0,0,1-.82-.56,2.86,2.86,0,0,1-.56-.81,2.64,2.64,0,0,1-.2-1v-22h-4v22a6.36,6.36,0,0,0,.53,2.57,6.48,6.48,0,0,0,1.43,2.09,6.73,6.73,0,0,0,2.11,1.43,6.43,6.43,0,0,0,2.56.51h38a9.31,9.31,0,0,0,4.51-1.16,9,9,0,0,0,2.5-2,9.28,9.28,0,0,0,2.34-6.17v-3.13a9.36,9.36,0,0,0-9.35-9.35m5.39,12.48A5.39,5.39,0,0,1,262,147a5.23,5.23,0,0,1-1.58,0,5.39,5.39,0,0,1-4.6-5.32v-3.13a5.39,5.39,0,0,1,10.78,0Z"/><path class="cls-2" d="M151.46,151.6a9.33,9.33,0,0,1-9.31-9.31v-3.13a9.31,9.31,0,0,1,18.62,0v3.13a9.33,9.33,0,0,1-9.31,9.31m0-17.87a5.44,5.44,0,0,0-5.43,5.43v3.13a5.43,5.43,0,0,0,10.86,0v-3.13a5.44,5.44,0,0,0-5.43-5.43"/><path class="cls-2" d="M258.89,123.81a2.5,2.5,0,1,0,2.5-2.5,2.5,2.5,0,0,0-2.5,2.5"/><path class="cls-2" d="M209.57,124.91a2.5,2.5,0,1,0,2.5-2.5,2.49,2.49,0,0,0-2.5,2.5"/><path class="cls-2" d="M203.46,124.91a2.5,2.5,0,1,0,2.5-2.5,2.49,2.49,0,0,0-2.5,2.5"/><path class="cls-2" d="M151.26,124.91a2.5,2.5,0,1,0,2.5-2.5,2.49,2.49,0,0,0-2.5,2.5"/><path class="cls-2" d="M145.17,124.91a2.5,2.5,0,1,0,2.5-2.5,2.49,2.49,0,0,0-2.5,2.5"/><polygon class="cls-2" points="145.69 173.87 145.69 182.13 158.35 182.13 158.35 185.46 145.69 185.46 145.69 198.12 141.66 198.12 141.66 170.29 160.09 170.29 160.09 173.87 145.69 173.87"/><path class="cls-2" d="M188.7,180.92v11.52a5.08,5.08,0,0,0,.27,2.27c.22.4.8.6,1.72.6a6.81,6.81,0,0,0,1.68-.24l.26-.08v3.27l-.18,0a19.27,19.27,0,0,1-2.52.16c-2.18,0-3.63-.56-4.3-1.66a4.74,4.74,0,0,1-.56-2.12c0-.57,0-1.94,0-4.06v-9.69h-3.35v-3.1H185v-4.23l3.68-1.52v5.75h3.93v3.1Z"/><path class="cls-2" d="M212.42,180.22a9.18,9.18,0,0,0-7.1-3,9.34,9.34,0,0,0-7.75,3.42,11.52,11.52,0,0,0-2.24,7.31,11.35,11.35,0,0,0,2.5,7.6,10.4,10.4,0,0,0,14.13.69c2-1.94,3-4.74,3-8.31a11.14,11.14,0,0,0-2.56-7.73M209.18,194a5.28,5.28,0,0,1-3.92,1.52,5.56,5.56,0,0,1-4.36-1.8,10,10,0,0,1,.06-11.56,5.64,5.64,0,0,1,4.32-1.78,5.31,5.31,0,0,1,4.16,1.81,8.39,8.39,0,0,1,1.78,5.69c0,2.67-.68,4.73-2,6.12"/><path class="cls-2" d="M235.16,180.22a9.18,9.18,0,0,0-7.1-3,9.33,9.33,0,0,0-7.75,3.42,11.52,11.52,0,0,0-2.24,7.31,11.35,11.35,0,0,0,2.5,7.6,10.4,10.4,0,0,0,14.13.69c2-1.94,3-4.74,3-8.31a11.14,11.14,0,0,0-2.56-7.73M231.92,194a5.27,5.27,0,0,1-3.92,1.52,5.57,5.57,0,0,1-4.36-1.8,10,10,0,0,1,.06-11.56A5.62,5.62,0,0,1,228,180.4a5.38,5.38,0,0,1,4.17,1.81,10.12,10.12,0,0,1-.27,11.81"/><path class="cls-2" d="M253,177.24v3.84l-.22,0c-.47,0-.81-.06-1-.06a5.67,5.67,0,0,0-4.18,1.67,6.65,6.65,0,0,0-1.66,4,29.64,29.64,0,0,0-.16,3.57v7.93h-3.69V177.83h3.46v3.48a7.45,7.45,0,0,1,3.75-3.51,9.75,9.75,0,0,1,3.51-.56Z"/><path class="cls-2" d="M271,182a4.78,4.78,0,0,0-1.3-2.72c-1.37-1.35-3.51-2-6.34-2a9.27,9.27,0,0,0-6.34,2,6.63,6.63,0,0,0-2.19,5v.21h3.58l0-.19a3.85,3.85,0,0,1,4.68-3.87c2.86,0,4.24,1.07,4.24,3.25A2.3,2.3,0,0,1,267,185c-.37.52-1.35.88-2.94,1.06l-3.3.41a13.42,13.42,0,0,0-2.86.73,5.63,5.63,0,0,0-3.85,5.6,5.49,5.49,0,0,0,2,4.46,7.07,7.07,0,0,0,4.59,1.41,9.29,9.29,0,0,0,6.84-2.73v2.53h3.62V184.32A23.34,23.34,0,0,0,271,182m-3.56,8.58a6.55,6.55,0,0,1-.14,1.56,4,4,0,0,1-1.59,2.1,6.83,6.83,0,0,1-4.17,1.36,4,4,0,0,1-2.73-.81,2.75,2.75,0,0,1-1-2.21,2.56,2.56,0,0,1,1.56-2.48,13.58,13.58,0,0,1,3.9-.86c1.34-.16,2.24-.29,2.75-.4a5.36,5.36,0,0,0,1.42-.54Z"/><path class="cls-2" d="M178.12,181.69a4.78,4.78,0,0,0-1.3-2.72c-1.37-1.35-3.51-2-6.34-2a9.22,9.22,0,0,0-6.34,2,6.67,6.67,0,0,0-2.19,5v.21h3.59l0-.19a4.69,4.69,0,0,1,.85-2.53,4.81,4.81,0,0,1,3.82-1.34c2.86,0,4.25,1.06,4.25,3.25a2.37,2.37,0,0,1-.36,1.38c-.38.52-1.36.87-2.94,1.06l-3.31.41a13.16,13.16,0,0,0-2.85.73,5.62,5.62,0,0,0-3.85,5.6,5.49,5.49,0,0,0,2,4.46,7.09,7.09,0,0,0,4.59,1.41,9.29,9.29,0,0,0,6.84-2.73v2.53h3.62V184a23.21,23.21,0,0,0-.06-2.33m-3.56,8.57a6,6,0,0,1-.14,1.56,4,4,0,0,1-1.58,2.11,6.85,6.85,0,0,1-4.17,1.36,4.08,4.08,0,0,1-2.73-.81,2.77,2.77,0,0,1-1-2.22,2.54,2.54,0,0,1,1.56-2.47,13.58,13.58,0,0,1,3.9-.86c1.34-.16,2.25-.29,2.75-.41a5.22,5.22,0,0,0,1.42-.53Z"/><path class="cls-3" d="M403.12,141.84,385.8,185.12a24.36,24.36,0,0,1-22.59,15.4H327.72l25.13-58.71H401Z"/><path class="cls-2" d="M395.87,130.35l-17.29,43.28A24.33,24.33,0,0,1,356,189H320.62l25.08-58.71h48Z"/><polygon class="cls-4" points="299.2 133.8 311.82 133.8 313.47 130.84 300.84 130.84 299.2 133.8"/><polygon class="cls-5" points="307.64 143.34 318.57 143.34 319.99 140.27 309.06 140.27 307.64 143.34"/><polygon class="cls-6" points="287.99 153.08 298.92 153.08 300.34 149.5 289.41 149.5 287.99 153.08"/><polygon class="cls-7" points="298.79 166.73 307.02 166.73 308.09 163.54 299.87 163.54 298.79 166.73"/><polygon class="cls-7" points="281.42 177.25 298 177.25 299.23 174.12 282.65 174.12 281.42 177.25"/><polygon class="cls-7" points="284.06 193.38 307.94 193.38 309.52 190.17 285.64 190.17 284.06 193.38"/><g class="cls-8"><rect class="cls-9" x="300.34" y="121.36" width="86.33" height="57.36"/></g><path class="cls-2" d="M17,30.06H13.46a2.31,2.31,0,0,1-1.26-2,1.11,1.11,0,0,1,1-1.25,1,1,0,0,1,.25,0c.77,0,1.3.51,1.44,1.44h1.95c-.18-2.33-1.47-3.56-3.42-3.56a3,3,0,0,0-3.2,2.74,3.08,3.08,0,0,0,0,.43A3.17,3.17,0,0,0,11,30.06H9.79v2.12H17Z"/><path class="cls-2" d="M23.14,38.3c0,1.63-.65,3-2.77,3H7.74A3.45,3.45,0,0,1,4.12,38a2.16,2.16,0,0,1,0-.36v-5.4H0v5.4a7.54,7.54,0,0,0,7.31,7.77H21.89a5.24,5.24,0,0,0,5.36-5.11,1,1,0,0,0,0-.25V20.34H23.14Z"/><path class="cls-2" d="M34.15,45.83a3.49,3.49,0,0,1-3.33,3.63h-2V53.6h1.77a7.61,7.61,0,0,0,7.77-7.44c0-.11,0-.22,0-.33V28.05H34.15Z"/><path class="cls-2" d="M83.8,48.27a2.49,2.49,0,0,0-.31,5h.31a2.49,2.49,0,0,0,.31-5H83.8"/><path class="cls-2" d="M100.59,39.63a1.51,1.51,0,0,1-1.39,1.62H94.37c-.76-.1-1.61-.21-3.67-4.85C87.11,28.65,81.42,25.63,74.94,28v3.77c5.4-2.09,8.6,0,11.23,5.11a29.3,29.3,0,0,0,2.3,4.32h-16a2.22,2.22,0,0,1-2.31-2.13,1.48,1.48,0,0,1,0-.21v-4A7.74,7.74,0,0,0,62.6,27h-.73A7.75,7.75,0,0,0,54,34.55v4.37a2.21,2.21,0,0,1-2.08,2.33H48.75a1.5,1.5,0,0,1-1.51-1.5V20.34H43.1V41.09a4.26,4.26,0,0,0,4.21,4.31H51.7a5.81,5.81,0,0,0,4.72-2.27,9.23,9.23,0,0,0,6,2.15,6.9,6.9,0,0,0,5.18-2.37,5.67,5.67,0,0,0,4.83,2.48h28a4.22,4.22,0,0,0,4.28-4.18.57.57,0,0,0,0-.13V20.33h-4.14ZM66,37.37a3.68,3.68,0,0,1-3.56,3.77,5.32,5.32,0,0,1-4.32-2V34.88a3.58,3.58,0,0,1,3.37-3.77h.8a3.57,3.57,0,0,1,3.77,3.36,2.8,2.8,0,0,1,0,.41Z"/><rect class="cls-2" x="109.66" y="20.34" width="4.14" height="25.05"/><path class="cls-2" d="M126.47,27h-.4a7.7,7.7,0,0,0-7.88,7.52,2.16,2.16,0,0,0,0,.36v2.56a7.82,7.82,0,0,0,7.62,7.92h4.36V46c0,2.91-2.2,4.49-9.33,3.23V53.1c8.75,2,13.47-1.05,13.47-6.09V34.88A7.68,7.68,0,0,0,126.85,27h-.38m3.7,14.22h-4.32a3.77,3.77,0,0,1-3.52-3.77V34.88a3.56,3.56,0,0,1,3.36-3.77h.8a3.54,3.54,0,0,1,3.71,3.37,2.67,2.67,0,0,1,0,.4Z"/><path class="cls-2" d="M150.21,24.09a2.5,2.5,0,1,0-2.52-2.52,2.52,2.52,0,0,0,2.52,2.52Z"/><path class="cls-2" d="M157.26,24.09a2.48,2.48,0,1,0,0-5,2.48,2.48,0,1,0,0,5"/><path class="cls-2" d="M171.18,49.46a2.51,2.51,0,0,0,0,5A2.52,2.52,0,0,0,173.7,52v0a2.55,2.55,0,0,0-2.52-2.48"/><path class="cls-2" d="M187.56,48.81a2.5,2.5,0,1,0,2.35,2.35,2.5,2.5,0,0,0-2.35-2.35"/><path class="cls-2" d="M189.17,41.08V28.34H185V39.65a1.52,1.52,0,0,1-1.41,1.62H176c-2.09,0-2.77-1.32-2.77-3v-.61a8.51,8.51,0,0,0,0-1V28.37h-4.17v10c0,1.54-.66,2.83-2.74,2.83h-2.88a2.22,2.22,0,0,1-2.33-2.11.89.89,0,0,1,0-.23V27H153a7.7,7.7,0,0,0-7.85,7.54c0,.12,0,.25,0,.37v2.49a7.8,7.8,0,0,0,7.66,7.91,7.12,7.12,0,0,0,5.61-2.3,6.47,6.47,0,0,0,5.15,2.42h2.83a6.11,6.11,0,0,0,4.85-2,6,6,0,0,0,4.28,2h9.36a4.27,4.27,0,0,0,4.32-4.21Zm-32.06-1.95a5.23,5.23,0,0,1-4.28,2,3.62,3.62,0,0,1-3.53-3.73v-2.5a3.55,3.55,0,0,1,3.31-3.77h4.5Z"/><path class="cls-2" d="M180.5,48.81a2.5,2.5,0,1,0-.3,5h.3a2.5,2.5,0,0,0,0-5"/><path class="cls-2" d="M223.46,24.88a2.5,2.5,0,1,0-2.52-2.52,2.5,2.5,0,0,0,2.52,2.52"/><path class="cls-2" d="M238.43,39.63a1.51,1.51,0,0,1-1.4,1.62h-4.21V38.08c0-7.37-3.06-10.84-9.18-10.84-4,0-7.45,2.74-10.26,5.94V29.05h-4.14V41.26h-5.71V28.06h-4.18V45.83a3.46,3.46,0,0,1-3.26,3.63H194V53.6h1.8a7.62,7.62,0,0,0,7.78-7.44V45.4h34.75a4.25,4.25,0,0,0,4.25-4.24V20.33h-4.14Zm-9.6,1.63H213.38V37.13c3.21-3.77,6.48-5.76,9.75-5.76s5.66,1.95,5.66,6.74Z"/><rect class="cls-2" x="247.49" y="20.34" width="4.14" height="25.05"/><path class="cls-2" d="M264.29,27h-.4A7.7,7.7,0,0,0,256,34.52v2.92a7.82,7.82,0,0,0,7.64,7.92H268V46c0,2.91-2.19,4.49-9.32,3.23V53.1c8.74,2,13.46-1.05,13.46-6.09V34.88A7.69,7.69,0,0,0,264.66,27h-.37M268,41.22h-4.32a3.77,3.77,0,0,1-3.53-3.77V34.88a3.57,3.57,0,0,1,3.36-3.77h.81A3.55,3.55,0,0,1,268,34.48c0,.14,0,.27,0,.4Z"/><path class="cls-2" d="M295,24.59a2.5,2.5,0,1,0-2.35-2.35A2.51,2.51,0,0,0,295,24.59"/><path class="cls-2" d="M288,24.59a2.51,2.51,0,1,0-2.52-2.54A2.49,2.49,0,0,0,288,24.59Z"/><path class="cls-2" d="M291.06,27h-.58a7.68,7.68,0,0,0-7.7,7.67v3a7.62,7.62,0,0,0,7.57,7.67h1A7.36,7.36,0,0,0,298.72,38V34.64A7.64,7.64,0,0,0,291.1,27Zm3.52,11.16a3.08,3.08,0,0,1-3,3.09h-1.05A3.57,3.57,0,0,1,287,37.65v-3a3.43,3.43,0,0,1,3.32-3.53h.79a3.42,3.42,0,0,1,3.52,3.32.74.74,0,0,1,0,.21Z"/><path class="cls-2" d="M342.64,24.77a2.51,2.51,0,1,0-2.47-2.53s0,0,0,0a2.53,2.53,0,0,0,2.48,2.51"/><path class="cls-2" d="M351.18,39.63a1.51,1.51,0,0,1-1.4,1.62h-5V28.06h-4.16V45.83a3.45,3.45,0,0,1-3.27,3.63h-2.14V53.6H337a7.62,7.62,0,0,0,7.77-7.45v-.76H351a4.24,4.24,0,0,0,4.29-4.19V20.33h-4.14Z"/><rect class="cls-2" x="360.24" y="20.34" width="4.14" height="25.05"/><path class="cls-2" d="M381,24.09a2.5,2.5,0,1,0-2.51-2.52A2.51,2.51,0,0,0,381,24.09Z"/><path class="cls-2" d="M388,24.09a2.48,2.48,0,0,0,0-5,2.48,2.48,0,1,0,0,5"/><path class="cls-2" d="M404.78,22.83H401a2.36,2.36,0,0,1-1.29-2,1.15,1.15,0,0,1,1-1.32,1,1,0,0,1,.24,0A1.54,1.54,0,0,1,402.45,21h2.12c-.17-2.52-1.58-3.78-3.66-3.78A3.16,3.16,0,0,0,397.49,20a3,3,0,0,0,0,.52,3.41,3.41,0,0,0,.87,2.31h-1.3v2.34h7.7Z"/><path class="cls-2" d="M411.11,48.74a2.5,2.5,0,1,0,2.49,2.51v0a2.54,2.54,0,0,0-2.49-2.48"/><path class="cls-2" d="M418.16,48.74a2.5,2.5,0,1,0,2.49,2.51v0a2.51,2.51,0,0,0-2.49-2.48"/><path class="cls-2" d="M431.73,27.61V29.7a6.48,6.48,0,0,0-5,6.3v1.89A5,5,0,0,0,428,41.24h-7.89c-2.08,0-2.77-1.33-2.77-3v-.62a8.51,8.51,0,0,0,0-1V28.37H413.2v10c0,1.54-.64,2.83-2.73,2.83H406c-2.12,0-2.77-1.33-2.77-3V28.37h-4.14V38.3c0,1.63-.57,3-2.73,3h-2.07A2.24,2.24,0,0,1,392,39.15V27h-8.23a7.7,7.7,0,0,0-7.85,7.54c0,.12,0,.25,0,.37v2.49a7.81,7.81,0,0,0,7.67,7.91,7.15,7.15,0,0,0,5.61-2.3,6.46,6.46,0,0,0,5.14,2.42h2.13a6.16,6.16,0,0,0,4.85-2,5.91,5.91,0,0,0,4.24,2h4.94a6.14,6.14,0,0,0,4.85-2,6,6,0,0,0,4.28,2h23.07a7.74,7.74,0,0,0,7.74-7.73h0V35.17c-.16-5.9-7.51-10.29-18.7-7.56M387.84,39.13a5.24,5.24,0,0,1-4.28,2A3.62,3.62,0,0,1,380,37.38v-2.5a3.55,3.55,0,0,1,3.31-3.77h4.5Zm49.43,2.13h-3.6a3.59,3.59,0,0,1-3.38-3.46V36.19c0-2.12,1.22-3.38,3.52-3.38a3.16,3.16,0,0,1,3.46,2.83,2.53,2.53,0,0,1,0,.55Zm5.29,0H440.8v-5a5.34,5.34,0,0,0-4.22-5.55c5.45-.54,9.55,1.59,9.65,4.43v2.38a3.71,3.71,0,0,1-3.67,3.71"/><path class="cls-2" d="M333.05,38.52a6.88,6.88,0,0,1-6.85,6.87H307.52a4.26,4.26,0,0,1-4.31-4.18V20.33h4.13V39.64a1.5,1.5,0,0,0,1.4,1.61H326a3.07,3.07,0,0,0,3-3.12V38c0-2.26-1.69-3.41-4-3.41H314.19l-.8-3.08,6.34-11.17,3.89,1.47-4.93,8.63H325a8,8,0,0,1,8,8Z"/><polygon class="cls-2" points="15.16 81.88 15.16 85.16 0 85.16 0 82.53 9.81 68.01 0.6 68.01 0.6 64.75 14.74 64.75 14.74 67.41 5.01 81.88 15.16 81.88"/><path class="cls-2" d="M19.54,73l-.63-2.41c4.86-2,11.46-2.18,11.46,4.22V85.11H26.73V83.22A6.35,6.35,0,0,1,22,85.32a3.86,3.86,0,0,1-4-3.68,3.23,3.23,0,0,1,0-.44c0-3.4,3.31-5.73,8.8-5.49v-.8c0-3.59-3.82-3.18-7.24-1.87m1.78,7.73c0,1.22,1,1.82,2.21,1.82a4.45,4.45,0,0,0,3.22-1.4V77.78c-3.69-.38-5.43,1.56-5.43,3"/><path class="cls-2" d="M50.69,73l-.63-2.41c4.83-2,11.43-2.18,11.43,4.22V85.11H57.88V83.22a6.33,6.33,0,0,1-4.72,2.1,3.86,3.86,0,0,1-4-3.68c0-.15,0-.29,0-.44,0-3.4,3.31-5.73,8.8-5.49v-.8c0-3.59-3.82-3.18-7.25-1.87m1.79,7.73c0,1.22,1,1.82,2.2,1.82a4.49,4.49,0,0,0,3.23-1.4V77.78c-3.7-.38-5.43,1.56-5.43,3"/><path class="cls-2" d="M69.6,81.24a1.37,1.37,0,0,0,1.21,1.53,1.6,1.6,0,0,0,.31,0,6.21,6.21,0,0,0,1.35-.15v2.6a19.3,19.3,0,0,1-2.83.24C66.86,85.46,66,84,66,81.58V73.19H64.08l.48-2.71H66V66.84L69.6,66v4.53h3l-.48,2.71H69.6Z"/><path class="cls-2" d="M78,90.08H75.78A42.79,42.79,0,0,0,77,83.63L77,82.56h2.68l-.12,1A32.24,32.24,0,0,1,78,90.08"/><polygon class="cls-2" points="94.1 68 94.1 85.16 90.16 85.16 90.16 68 84.58 68 84.58 64.75 99.67 64.75 99.67 68 94.1 68"/><path class="cls-2" d="M104.21,73l-.63-2.41c4.84-2,11.43-2.18,11.43,4.2V85.09H111.4V83.21a6.36,6.36,0,0,1-4.72,2.09,3.86,3.86,0,0,1-4-3.68,3.27,3.27,0,0,1,0-.44c0-3.4,3.31-5.73,8.79-5.49v-.8c0-3.57-3.76-3.16-7.24-1.85M106,80.77c0,1.22,1,1.82,2.21,1.82a4.47,4.47,0,0,0,3.22-1.4V77.78c-3.74-.38-5.43,1.56-5.43,3"/><polygon class="cls-2" points="122.34 70.14 124.47 73.33 125.68 75.57 126.97 73.28 129.06 70.14 132.83 70.14 127.94 77.48 132.98 85.17 128.65 85.17 126.55 81.99 125.3 79.7 124.04 82.02 122.02 85.16 118.02 85.16 123.09 77.46 118.06 70.14 122.34 70.14"/><path class="cls-2" d="M143.76,73l-.62-2.41c4.82-2,11.41-2.18,11.41,4.2V85.09h-3.61V83.21a6.3,6.3,0,0,1-4.71,2.09,3.85,3.85,0,0,1-4-3.68,3.23,3.23,0,0,1,0-.44c0-3.4,3.31-5.73,8.8-5.49v-.8c0-3.57-3.81-3.16-7.24-1.85m1.79,7.73c0,1.22.94,1.82,2.21,1.82a4.47,4.47,0,0,0,3.22-1.4V77.78c-3.69-.38-5.43,1.56-5.43,3"/><path class="cls-2" d="M158.44,85.09v-15H162v1.37a7.89,7.89,0,0,1,4.9-1.67c3,0,4.5,1.73,4.5,4.86V85.07h-3.61V75.88c0-1.64-.75-2.57-2.44-2.57A5.81,5.81,0,0,0,162,74.68V85.05Z"/><path class="cls-2" d="M180.68,85.34c-3.93,0-5.78-3.35-5.78-7.82s2-7.82,6-7.82a5.28,5.28,0,0,1,3.88,1.7V64.63h3.58V85.09h-3.58V83.55a5.66,5.66,0,0,1-4.09,1.79M182,72.63c-2.11,0-3.33,1.76-3.33,4.89s1.22,4.89,3.33,4.89a4.4,4.4,0,0,0,2.78-1V73.64a4.75,4.75,0,0,0-2.78-1"/><path class="cls-2" d="M207.91,85.45c-6.52,0-9.21-4.26-9.21-10.5s2.69-10.47,9.21-10.47A16.56,16.56,0,0,1,214.8,66v3a22.63,22.63,0,0,0-6.46-1.31c-3.77,0-5.71,2.45-5.71,7.25s2,7.22,5.71,7.22a22.34,22.34,0,0,0,6.46-1.29v3a16.71,16.71,0,0,1-6.89,1.52"/><path class="cls-2" d="M231.63,70.14V85.22H228V83.76a7.64,7.64,0,0,1-4.89,1.76c-3,0-4.5-1.76-4.5-4.86V70.14h3.62v9.28c0,1.64.74,2.56,2.44,2.56A5.94,5.94,0,0,0,228,80.61V70.14Z"/><path class="cls-2" d="M235.06,84.28V81.59a13.11,13.11,0,0,0,5.18,1.26c2.24,0,2.83-1.08,2.83-1.82,0-1.19-1.43-1.64-3.07-2.24-2.12-.71-4.66-1.67-4.66-4.65s2.28-5,6.52-5a11.3,11.3,0,0,1,5.1,1.22v2.66a8.47,8.47,0,0,0-4.15-1.2c-2.36,0-3.34,1.08-3.34,2,0,1.25,1.61,1.73,3.41,2.39,2.08.74,4.41,1.72,4.41,4.41,0,3.13-2.66,4.92-6.3,4.92a14.44,14.44,0,0,1-5.93-1.28"/><path class="cls-2" d="M254.71,81.24a1.37,1.37,0,0,0,1.21,1.53,1.71,1.71,0,0,0,.32,0,6,6,0,0,0,1.34-.15v2.6a19.19,19.19,0,0,1-2.83.24c-2.79,0-3.67-1.43-3.67-3.88V73.19h-1.89l.48-2.71h1.44V66.84l3.6-.89v4.53h3l-.48,2.71h-2.56Z"/><path class="cls-2" d="M260.17,77.52c0-4.41,2.2-7.82,7-7.82s7,3.41,7,7.82-2.21,7.82-7,7.82-7-3.41-7-7.82m3.34,0c0,2.92,1.17,5.21,3.68,5.21s3.59-2.29,3.59-5.21-1.1-5.22-3.59-5.22-3.68,2.3-3.68,5.22"/><path class="cls-2" d="M299.89,74.68V85.05h-3.62V75.88c0-1.64-.74-2.57-2.45-2.57a5.69,5.69,0,0,0-3.28,1.41,6.4,6.4,0,0,1,.07,1.16v9.21H287V75.88c0-1.64-.74-2.57-2.44-2.57a5.41,5.41,0,0,0-3.22,1.37V85.05h-3.61V70.14h3.61v2a6.42,6.42,0,0,1,4.77-2.29c2,0,3.37.8,4,2.47a7.35,7.35,0,0,1,5.26-2.47c3,0,4.51,1.72,4.51,4.85"/><path class="cls-2" d="M303.33,84.28V81.59a13.16,13.16,0,0,0,5.19,1.26c2.24,0,2.83-1.08,2.83-1.82,0-1.19-1.43-1.64-3.08-2.24-2.11-.71-4.64-1.67-4.64-4.65s2.26-5,6.5-5a11.3,11.3,0,0,1,5.1,1.22v2.66a8.43,8.43,0,0,0-4.14-1.2c-2.36,0-3.35,1.08-3.35,2,0,1.25,1.61,1.73,3.4,2.39,2.09.74,4.41,1.72,4.41,4.41,0,3.13-2.65,4.92-6.28,4.92a14.45,14.45,0,0,1-5.94-1.28"/><path class="cls-2" d="M330,80.24l-1.58,4.92h-3.88l7.6-20.56h3.22l7.37,20.56h-4l-1.6-4.92Zm.72-2.93h5.76l-2.83-8.59Z"/><path class="cls-2" d="M358.68,70.14V85.22h-3.61V83.76a7.63,7.63,0,0,1-4.88,1.76c-3,0-4.51-1.76-4.51-4.86V70.14h3.61v9.28c0,1.64.75,2.56,2.44,2.56a5.94,5.94,0,0,0,3.34-1.37V70.14Z"/><path class="cls-2" d="M366.8,81.24A1.37,1.37,0,0,0,368,82.77a1.82,1.82,0,0,0,.33,0,6,6,0,0,0,1.34-.15v2.6a19.19,19.19,0,0,1-2.83.24c-2.77,0-3.67-1.43-3.67-3.88V73.19h-1.88l.48-2.71h1.46V66.84l3.61-.89v4.53h3l-.47,2.71H366.8Z"/><path class="cls-2" d="M385.55,74.68V85.05h-3.61V75.88c0-1.67-.77-2.51-2.2-2.54a6.33,6.33,0,0,0-3.58,1.34V85.05h-3.61V64.75h3.61v6.6a7.85,7.85,0,0,1,4.54-1.69c2.83,0,4.85,1.68,4.85,5"/><path class="cls-2" d="M389,77.52c0-4.41,2.2-7.82,7-7.82s7,3.41,7,7.82-2.21,7.82-7,7.82-7-3.41-7-7.82m3.33,0c0,2.92,1.17,5.21,3.68,5.21s3.6-2.29,3.6-5.21-1.1-5.22-3.6-5.22-3.68,2.3-3.68,5.22"/><path class="cls-2" d="M406.59,85.09v-15h3.6V73a5.64,5.64,0,0,1,5.1-2.83V73c-2-.25-4.62,1.36-5.07,2.74v9.43Z"/><path class="cls-2" d="M417.8,66.9a1.89,1.89,0,1,1,1.89,1.89,1.89,1.89,0,0,1-1.89-1.89m3.73,18.19h-3.62V70.51h3.61Z"/><path class="cls-2" d="M430.65,81.24a1.37,1.37,0,0,0,1.19,1.53,1.82,1.82,0,0,0,.33,0,6.07,6.07,0,0,0,1.35-.15v2.6a19.07,19.07,0,0,1-2.83.24c-2.77,0-3.67-1.43-3.67-3.88V73.19h-1.88l.47-2.71H427V66.84l3.61-.89v4.53h3.05l-.48,2.71h-2.57Z"/><polygon class="cls-2" points="450.52 70.14 443.27 90.54 439.84 90.54 441.37 86.21 435.4 70.18 439.45 70.18 443.01 81.82 446.64 70.14 450.52 70.14"/><polygon class="cls-2" points="46.75 85.08 42.52 85.08 37.76 78.18 37.76 85.08 34.16 85.08 34.16 64.75 37.76 64.75 37.76 76.33 42.26 69.78 46.3 69.78 40.91 77.03 46.75 85.08"/><g class="cls-10"><rect class="cls-11" x="462.36" y="-10.69" width="52.83" height="51.65" transform="translate(112.46 327.41) rotate(-41.46)"/></g><g class="cls-12"><rect class="cls-13" x="463.28" y="-8.06" width="42.53" height="41.59" transform="translate(112.98 324.01) rotate(-41.46)"/></g><g class="cls-14"><rect class="cls-15" x="464.34" y="-3.72" width="29.91" height="29.27" transform="translate(112.89 320.09) rotate(-41.46)"/></g><g class="cls-16"><rect class="cls-17" x="465.78" y="3.96" width="13.02" height="12.77" transform="translate(111.51 315.31) rotate(-41.46)"/></g><g class="cls-18"><rect class="cls-19" x="465.93" y="2.44" width="99.64" height="97.65" transform="translate(95.31 354.35) rotate(-41.46)"/></g><g class="cls-20"><rect class="cls-21" x="468.69" y="8.4" width="96.59" height="94.67" transform="translate(92.66 356.28) rotate(-41.46)"/></g><g class="cls-22"><rect class="cls-23" x="471.8" y="14.46" width="93.17" height="91.33" transform="translate(90.09 358.28) rotate(-41.46)"/></g><g class="cls-24"><rect class="cls-25" x="475.21" y="20.56" width="89.39" height="87.63" transform="translate(87.67 360.38) rotate(-41.46)"/></g><g class="cls-26"><rect class="cls-27" x="479.04" y="26.78" width="85.22" height="83.57" transform="translate(85.33 362.58) rotate(-41.46)"/></g><g class="cls-28"><rect class="cls-29" x="483.67" y="33.41" width="80.07" height="78.52" transform="translate(83.13 364.98) rotate(-41.46)"/></g><g class="cls-30"><rect class="cls-31" x="487.94" y="39.61" width="75.43" height="74.04" transform="translate(80.99 367.26) rotate(-41.46)"/></g><g class="cls-32"><rect class="cls-33" x="492.66" y="46.74" width="69.43" height="68.17" transform="translate(78.67 369.47) rotate(-41.47)"/></g><g class="cls-34"><rect class="cls-35" x="460.74" y="-11.98" width="63.5" height="62.34" transform="translate(110.72 330.9) rotate(-41.46)"/></g><g class="cls-36"><rect class="cls-37" x="459.99" y="-12.85" width="71.53" height="70.19" transform="translate(109.51 333.83) rotate(-41.46)"/></g><g class="cls-38"><rect class="cls-39" x="459.31" y="-13.22" width="78.93" height="77.43" transform="translate(108.12 336.64) rotate(-41.46)"/></g><g class="cls-40"><rect class="cls-41" x="458.84" y="-13.17" width="85.9" height="84.22" transform="matrix(0.75, -0.66, 0.66, 0.75, 106.59, 339.51)"/></g><g class="cls-42"><rect class="cls-43" x="458.82" y="-12.25" width="91.12" height="89.33" transform="translate(104.94 342.09) rotate(-41.46)"/></g><g class="cls-44"><rect class="cls-45" x="459.24" y="-11.64" width="96.48" height="94.56" transform="translate(103.58 344.95) rotate(-41.46)"/></g><g class="cls-46"><rect class="cls-47" x="460.18" y="-10.3" width="100.59" height="98.57" transform="translate(102.11 347.77) rotate(-41.46)"/></g><g class="cls-48"><rect class="cls-49" x="461.48" y="-8.65" width="103.87" height="101.79" transform="translate(100.69 350.53) rotate(-41.46)"/></g><g class="cls-50"><rect class="cls-51" x="463.5" y="-3.44" width="102.32" height="100.26" transform="translate(98.05 352.45) rotate(-41.46)"/></g><g class="cls-52"><rect class="cls-53" x="498.15" y="57.01" width="60.24" height="58.99" transform="translate(75.44 371.98) rotate(-41.53)"/></g><g class="cls-54"><rect class="cls-55" x="502.88" y="68.08" width="50.87" height="49.76" transform="translate(70.29 372.18) rotate(-41.35)"/></g><g class="cls-56"><rect class="cls-57" x="519.91" y="85.04" width="22.89" height="22.41" transform="translate(68.87 375.01) rotate(-41.35)"/></g></g></g></svg>