<svg xmlns="http://www.w3.org/2000/svg" viewBox="0 0 181.79 141.05"><defs><style>.cls-1{fill:#e7922e;}.cls-2{fill:#979797;}</style></defs><g id="Layer_2" data-name="Layer 2"><g id="Layer_1-2" data-name="Layer 1"><g id="FTwgmm"><path class="cls-1" d="M171.09,94.05c-6.72,5-14.55,7.13-22.75,8-17.32,1.79-33.73-2.2-49.74-8.28-5.25-2-10.29-4.55-15.46-6.76a3.42,3.42,0,0,1-2.33-3.72c.1-10.61,0-21.22,0-31.83,0-.76-.08-1.53-.13-2.52H42.24V19H157.1V48.83H118.63c0,1-.11,1.75-.11,2.5,0,10.25.06,20.5-.06,30.74,0,2,.61,2.72,2.52,3,11.7,1.56,23.31,1.91,34.32-3.18,5.77-2.66,10.37-6.73,11.83-13.32a19.74,19.74,0,0,0-.92-11.74c-1-2.46-1.92-5.11-3.57-7.08-3-3.64-2.34-7.65-2.25-11.72.29,0,.48,0,.56,0,9.27,8.11,17.28,17.15,20.07,29.57C183.47,78.49,180,87.4,171.09,94.05Z"/><path class="cls-2" d="M118.56,109.56c-.17,9.55-.07,19.1-.07,28.66v2.83H80.9V138.5c0-7.91-.05-15.82,0-23.73a3.1,3.1,0,0,0-2.19-3.32C62.08,104,46.33,95.05,32.35,83.26A146.73,146.73,0,0,1,16.82,68.47C9.21,59.87,2.75,50.42.6,38.77-1.87,25.4,3.33,14.54,15.29,7.84c8.86-5,18.56-7,28.56-7.59,26.63-1.56,51.92,4.27,76.42,14.22.13.06.21.21.35.34-7.81,1.3-15.05-.78-22.4-2.82-14.5-4-29.28-6-44.36-4.4A51.94,51.94,0,0,0,36.7,12.14c-12.63,6-17.22,17.35-12.21,30.46,3.82,10,10.6,17.92,18.37,25.15a146,146,0,0,0,29.49,21,179.89,179.89,0,0,0,43.12,17C117.74,106.29,118.61,107.06,118.56,109.56Z"/></g></g></g></svg>