<svg xmlns="http://www.w3.org/2000/svg" xmlns:xlink="http://www.w3.org/1999/xlink" viewBox="0 0 800 800"><defs><style>.cls-1{isolation:isolate;}.cls-2{fill:#6280af;opacity:0.35;}.cls-3{opacity:0.26;}.cls-4,.cls-6{fill:none;stroke-miterlimit:10;}.cls-4{stroke:#a9b3b7;stroke-width:0.25px;}.cls-5{mix-blend-mode:screen;opacity:0.63;fill:url(#linear-gradient);}.cls-6{stroke:#f4a11c;stroke-width:2px;}.cls-7{font-size:23.85px;}.cls-7,.cls-8{fill:#fff;font-family:Lato-Regular, Lato Regular;}.cls-8{font-size:28.62px;}</style><linearGradient id="linear-gradient" x1="420.75" y1="676.45" x2="420.75" y2="54.7" gradientUnits="userSpaceOnUse"><stop offset="0"/><stop offset="1" stop-color="#0327aa"/></linearGradient></defs><g class="cls-1"><g id="Layer_2" data-name="Layer 2"><g id="Layer_1-2" data-name="Layer 1"><rect class="cls-2" width="800" height="800" rx="10.89"/><g class="cls-3"><rect class="cls-4" x="85.28" y="54.7" width="670.95" height="621.74"/><line class="cls-4" x1="85.28" y1="614.27" x2="756.23" y2="614.27"/><line class="cls-4" x1="85.28" y1="552.1" x2="756.23" y2="552.1"/><line class="cls-4" x1="85.28" y1="489.92" x2="756.23" y2="489.92"/><line class="cls-4" x1="85.28" y1="427.75" x2="756.23" y2="427.75"/><line class="cls-4" x1="85.28" y1="365.57" x2="756.23" y2="365.57"/><line class="cls-4" x1="85.28" y1="303.4" x2="756.23" y2="303.4"/><line class="cls-4" x1="85.28" y1="241.22" x2="756.23" y2="241.22"/><line class="cls-4" x1="85.28" y1="179.05" x2="756.23" y2="179.05"/><line class="cls-4" x1="85.28" y1="116.88" x2="756.23" y2="116.88"/><line class="cls-4" x1="672.36" y1="54.7" x2="672.36" y2="676.45"/><line class="cls-4" x1="588.49" y1="54.7" x2="588.49" y2="676.45"/><line class="cls-4" x1="504.62" y1="54.7" x2="504.62" y2="676.45"/><line class="cls-4" x1="420.75" y1="54.7" x2="420.75" y2="676.45"/><line class="cls-4" x1="336.88" y1="54.7" x2="336.88" y2="676.45"/><line class="cls-4" x1="253.01" y1="54.7" x2="253.01" y2="676.45"/><line class="cls-4" x1="169.14" y1="54.7" x2="169.14" y2="676.45"/></g><polygon class="cls-5" points="756.23 427.75 672.36 54.7 588.46 304.53 504.52 179.54 420.59 366.09 336.87 241.57 252.93 304.06 169.44 429.07 85.28 365.57 85.28 676.45 756.23 676.45 756.23 427.75"/><polyline class="cls-6" points="85.28 365.57 169.44 429.07 252.93 304.06 336.87 241.57 420.59 366.09 504.52 179.54 588.46 304.53 672.36 54.7 756.23 427.75"/><text class="cls-7" transform="translate(52.6 675.19) scale(0.62 1)">0</text><text class="cls-7" transform="translate(44.99 617.65) scale(0.62 1)">10</text><text class="cls-7" transform="translate(44.99 560.12) scale(0.62 1)">20</text><text class="cls-7" transform="translate(44.99 502.57) scale(0.62 1)">30</text><text class="cls-7" transform="translate(44.99 445.04) scale(0.62 1)">40</text><text class="cls-7" transform="translate(44.99 387.49) scale(0.62 1)">50</text><text class="cls-7" transform="translate(44.99 329.96) scale(0.62 1)">60</text><text class="cls-7" transform="translate(44.99 272.42) scale(0.62 1)">70</text><text class="cls-7" transform="translate(44.99 214.87) scale(0.62 1)">80</text><text class="cls-7" transform="translate(44.99 157.33) scale(0.62 1)">90</text><text class="cls-7" transform="translate(37.37 99.8) scale(0.62 1)">100</text><text class="cls-8" transform="translate(84.44 752.57) scale(0.62 1)">1</text><text class="cls-8" transform="translate(168.03 752.57) scale(0.62 1)">2</text><text class="cls-8" transform="translate(251.62 752.57) scale(0.62 1)">3</text><text class="cls-8" transform="translate(335.21 752.57) scale(0.62 1)">4</text><text class="cls-8" transform="translate(418.8 752.57) scale(0.62 1)">5</text><text class="cls-8" transform="translate(502.39 752.57) scale(0.62 1)">6</text><text class="cls-8" transform="translate(585.98 752.57) scale(0.62 1)">7</text><text class="cls-8" transform="translate(668.64 752.57) scale(0.62 1)">8</text><text class="cls-8" transform="translate(752.23 752.57) scale(0.62 1)">9</text></g></g></g></svg>