<svg xmlns="http://www.w3.org/2000/svg" xmlns:xlink="http://www.w3.org/1999/xlink" viewBox="0 0 376 234"><defs><style>.cls-1{isolation:isolate;}.cls-2{fill:#6280af;opacity:0.35;}.cls-3{opacity:0.26;}.cls-4,.cls-6{fill:none;stroke-miterlimit:10;}.cls-4{stroke:#a9b3b7;stroke-width:0.25px;}.cls-5{mix-blend-mode:screen;opacity:0.63;fill:url(#linear-gradient);}.cls-6{stroke:#f4a11c;stroke-width:2px;}.cls-7{font-size:6.98px;}.cls-7,.cls-8{fill:#fff;font-family:Lato-Regular, Lato Regular;}.cls-8{font-size:8.37px;}</style><linearGradient id="linear-gradient" x1="197.75" y1="197.86" x2="197.75" y2="16" gradientUnits="userSpaceOnUse"><stop offset="0"/><stop offset="1" stop-color="#0327aa"/></linearGradient></defs><g class="cls-1"><g id="Layer_2" data-name="Layer 2"><g id="Layer_1-2" data-name="Layer 1"><rect class="cls-2" width="376" height="234" rx="10.89"/><g class="cls-3"><rect class="cls-4" x="40.08" y="16" width="315.35" height="181.86"/><line class="cls-4" x1="40.08" y1="179.67" x2="355.43" y2="179.67"/><line class="cls-4" x1="40.08" y1="161.49" x2="355.43" y2="161.49"/><line class="cls-4" x1="40.08" y1="143.3" x2="355.43" y2="143.3"/><line class="cls-4" x1="40.08" y1="125.12" x2="355.43" y2="125.12"/><line class="cls-4" x1="40.08" y1="106.93" x2="355.43" y2="106.93"/><line class="cls-4" x1="40.08" y1="88.74" x2="355.43" y2="88.74"/><line class="cls-4" x1="40.08" y1="70.56" x2="355.43" y2="70.56"/><line class="cls-4" x1="40.08" y1="52.37" x2="355.43" y2="52.37"/><line class="cls-4" x1="40.08" y1="34.19" x2="355.43" y2="34.19"/><line class="cls-4" x1="316.01" y1="16" x2="316.01" y2="197.86"/><line class="cls-4" x1="276.59" y1="16" x2="276.59" y2="197.86"/><line class="cls-4" x1="237.17" y1="16" x2="237.17" y2="197.86"/><line class="cls-4" x1="197.75" y1="16" x2="197.75" y2="197.86"/><line class="cls-4" x1="158.34" y1="16" x2="158.34" y2="197.86"/><line class="cls-4" x1="118.92" y1="16" x2="118.92" y2="197.86"/><line class="cls-4" x1="79.5" y1="16" x2="79.5" y2="197.86"/></g><polygon class="cls-5" points="355.43 125.12 316.01 16 276.57 89.08 237.13 52.52 197.68 107.08 158.33 70.66 118.88 88.94 79.64 125.5 40.08 106.93 40.08 197.86 355.43 197.86 355.43 125.12"/><polyline class="cls-6" points="40.08 106.93 79.64 125.5 118.88 88.94 158.33 70.66 197.68 107.08 237.13 52.52 276.57 89.08 316.01 16 355.43 125.12"/><text class="cls-7" transform="translate(24.72 197.49)">0</text><text class="cls-7" transform="translate(21.14 180.66)">10</text><text class="cls-7" transform="translate(21.14 163.83)">20</text><text class="cls-7" transform="translate(21.14 147)">30</text><text class="cls-7" transform="translate(21.14 130.17)">40</text><text class="cls-7" transform="translate(21.14 113.34)">50</text><text class="cls-7" transform="translate(21.14 96.51)">60</text><text class="cls-7" transform="translate(21.14 79.68)">70</text><text class="cls-7" transform="translate(21.14 62.85)">80</text><text class="cls-7" transform="translate(21.14 46.02)">90</text><text class="cls-7" transform="translate(17.56 29.19)">100</text><text class="cls-8" transform="translate(39.69 220.13)">1</text><text class="cls-8" transform="translate(78.97 220.13)">2</text><text class="cls-8" transform="translate(118.26 220.13)">3</text><text class="cls-8" transform="translate(157.55 220.13)">4</text><text class="cls-8" transform="translate(196.84 220.13)">5</text><text class="cls-8" transform="translate(236.12 220.13)">6</text><text class="cls-8" transform="translate(275.41 220.13)">7</text><text class="cls-8" transform="translate(314.26 220.13)">8</text><text class="cls-8" transform="translate(353.55 220.13)">9</text></g></g></g></svg>