<svg xmlns="http://www.w3.org/2000/svg" xmlns:xlink="http://www.w3.org/1999/xlink" viewBox="0 0 159.96 160.96"><defs><style>.cls-1{fill:none;}.cls-2,.cls-8{fill:#fff;}.cls-2{opacity:0.17;}.cls-3{clip-path:url(#clip-path);}.cls-4{fill:#ea997d;}.cls-5{fill:#d87e66;}.cls-6{fill:#1a1a1a;}.cls-7{fill:#fdfafd;}.cls-9{fill:#eaeaea;}</style><clipPath id="clip-path"><circle class="cls-1" cx="79.98" cy="80.98" r="79.98"/></clipPath></defs><g id="Layer_2" data-name="Layer 2"><g id="Layer_1-2" data-name="Layer 1"><circle class="cls-2" cx="79.98" cy="79.98" r="79.98"/><g class="cls-3"><path class="cls-4" d="M80,135.24h0a17.49,17.49,0,0,0,17.5-17.5V80.5h-35v37.24A17.5,17.5,0,0,0,80,135.24Z"/><path class="cls-4" d="M108.29,61.64a8.75,8.75,0,0,0-2.14.06c.89-21.91-11-34.11-27-34.11s-27.57,13-26.95,34.12a8.45,8.45,0,0,0-2.17-.07c-5.13.45-3.38,13.63,1.13,15.8a3.49,3.49,0,0,0,2.72.27C57.38,98,65.26,105.82,79.17,105.82c13.74,0,21.51-9.19,25.1-28.18a3.39,3.39,0,0,0,2.9-.2C111.68,75.27,113.42,62.09,108.29,61.64Z"/><path class="cls-5" d="M105.84,52.7l.52,2.34s-10.8.79-13.1-13.25c0,0-6.51-3.64-14.43,3.24s-17,11.64-25,10l.12-.71,16-10,18.83-9.45,10.78,4.93Z"/><path class="cls-6" d="M108,41.09c-.64-5.42-4.75-5.11-4.75-5.11a2.08,2.08,0,0,0-.26-2.36c-1-1-1.64-.2-1.64-.2s1.8-2.51,1.06-3.07-2.64,1.17-2.64,1.17,1.79-3.83,1.27-4-3.54,2-3.54,2S90.8,14.84,69.38,15.76s-24.28,20-24.28,20c2.22-2.08,6-2.22,6-2.22a10.67,10.67,0,0,0-4.65,13.09c1.17-3.08,5.81-3.88,5.81-3.88-4.33,2.46-3.8,10.65-3.8,10.65a19.8,19.8,0,0,0,3.5.76V61L54.4,85.64A17.06,17.06,0,0,0,56,91.32a32.22,32.22,0,0,0,23.11,17.79h0a32.26,32.26,0,0,0,24.21-20.39,5.26,5.26,0,0,0,.3-1.29L106.24,61V55l.12.06S108.58,46.52,108,41.09ZM88.44,87.25A9.49,9.49,0,0,1,85,94.7a8.72,8.72,0,0,1-4.51,2l1.09-3.11H76.71l1.06,3.06A9.67,9.67,0,0,1,69.68,87V84.1s9.84-2.77,18.76,0Zm15-11.27a13.58,13.58,0,0,1-3.73,9.37c-.48.51-1,1-1.58,1.53a26,26,0,0,1-6.06,4L92,83.42a2.12,2.12,0,0,0-1.45-2A36,36,0,0,0,86,80.15a38,38,0,0,0-6-.73h0v0a38.12,38.12,0,0,0-12.35,2,2,2,0,0,0-1.38,1.92l-.05,7.56a26,26,0,0,1-6.07-4,25.41,25.41,0,0,1-2.2-2.21,12.6,12.6,0,0,1-3.11-8.35V60L56,54.26C66.66,53.3,75.18,43.7,81.73,40a12.52,12.52,0,0,1,14.14.81c0,.57.71,7.17,4.16,10.33h0L103.46,60Z"/><path class="cls-7" d="M86.47,85.43H71.53s1.29,5.7,7.1,6.16v0l.37,0,.37,0v0C85.17,91.13,86.47,85.43,86.47,85.43Z"/><path class="cls-8" d="M131.36,282.64h0s-.41-111.77-.55-151L97.5,117.85V112h-35v5.89l-26,13.83Q33.78,208.84,31.05,286s0,.11,0,.2a11,11,0,0,0-3.35.14l-47.58,3.15a21.42,21.42,0,0,0-3.77.69,19.74,19.74,0,0,0-15.08,19.21,19.65,19.65,0,0,0,.47,4.43q2.51,63.27,5,126.55l42.1-.48v0h73l15.1,0L95.3,329.65a72,72,0,0,0,15.84.15c3.76-.38,5.21-.82,6.23-1.28a23.52,23.52,0,0,0,9.39-7.65l.06-.07C136.86,307.29,131.22,282.64,131.36,282.64Z"/><polyline class="cls-9" points="75.51 112.2 75.51 191.27 75.09 191.27 75.09 112.2"/><path class="cls-9" d="M77.28,148.47a2,2,0,1,1-2-2A2,2,0,0,1,77.28,148.47Z"/><path class="cls-9" d="M77.28,133.11a2,2,0,1,1-2-2A2,2,0,0,1,77.28,133.11Z"/><path class="cls-9" d="M77.28,117.74a2,2,0,1,1-2-2A2,2,0,0,1,77.28,117.74Z"/><rect class="cls-9" x="90.42" y="158.8" width="20.66" height="1.42"/><path class="cls-8" d="M146,145.41c5.14,23.09,18.64,74.64,25.48,100.53a16.73,16.73,0,0,1-11.19,20.24h0a16.74,16.74,0,0,1-21.15-11.61l-27.3-101.21A17.53,17.53,0,0,1,125.82,132h0A17.53,17.53,0,0,1,146,145.41Z"/><path class="cls-8" d="M19.87,145.41C14.73,168.5,1.23,220.05-5.61,245.94A16.73,16.73,0,0,0,5.58,266.18h0a16.74,16.74,0,0,0,21.15-11.61L54,153.36A17.54,17.54,0,0,0,40.09,132h0A17.53,17.53,0,0,0,19.87,145.41Z"/></g></g></g></svg>