<svg xmlns="http://www.w3.org/2000/svg" xmlns:xlink="http://www.w3.org/1999/xlink" viewBox="0 0 523.08 360.74"><defs><style>.cls-1{fill:#ffc0b1;}.cls-2{fill:#e6515c;}.cls-3{fill:#a0b0c8;}.cls-4{fill:#102a54;}.cls-5{fill:#fff;}.cls-6{fill:#3c94f8;}.cls-7{fill:#80c0ff;}.cls-8{fill:#ffb841;}.cls-9{fill:#fca714;}.cls-10{clip-path:url(#clip-path);}.cls-11{fill:#0c203f;}.cls-12{fill:#f4f7fd;}.cls-13{clip-path:url(#clip-path-2);}.cls-14{fill:#cce6ff;}</style><clipPath id="clip-path"><path class="cls-1" d="M193,137.78a67,67,0,0,1-2.75-13.06l-.14-1.28-20,5c1.15,13.08,5.72,18.77,9.83,21.16l-.58,7.49a5.07,5.07,0,0,0,5.06,5.47h0a5.07,5.07,0,0,0,5-5.53l-.59-6.63a8.63,8.63,0,0,0,4.7-5.83A13,13,0,0,0,193,137.78Z"/></clipPath><clipPath id="clip-path-2"><path class="cls-2" d="M465.17,219.69l1-46.24L483,155.14l-11.84-13.41-15.31,11.33a11.61,11.61,0,0,1-6.91,2.28h-7.15a11.61,11.61,0,0,1-6.91-2.28l-14.86-11-10.9,13.59,14.83,17.8-6.84,49.61S448.74,229.85,465.17,219.69Z"/></clipPath></defs><g id="Layer_2" data-name="Layer 2"><g id="Layer_1-2" data-name="Layer 1"><path class="cls-3" d="M15.37,360.74h483.3c8.33,0,10.67-51,10.39-57a230,230,0,0,0-12.55-64.38c-17.6-49.86-66.1-73.09-117.24-71.79a149.09,149.09,0,0,0-87.69,31.56c-21.55,17-35.57,44.14-62,54.66-14.14,5.63-29.94,5.33-45,3.31-22.7-3-44.81-9.76-67.57-12.32s-47.18-.49-66.07,12.47c-15.3,10.5-25.43,27.06-30.69,44.6C18.75,306.78,11.47,360.74,15.37,360.74Z"/><path class="cls-4" d="M297.27,352.42H291.5L290,354.6l-8.55,3.2a2.93,2.93,0,0,0-1.9,2.74h18.8a1.43,1.43,0,0,0,1.4-1.75Z"/><polygon class="cls-1" points="292.43 347.81 291.5 352.42 297.27 352.42 298.52 347.94 292.43 347.81"/><path class="cls-4" d="M358.38,351.87h5.77l1.54,2.18,8.55,3.2a3,3,0,0,1,1.9,2.75h-18.8a1.44,1.44,0,0,1-1.4-1.76Z"/><polygon class="cls-1" points="363.23 347.26 364.15 351.87 358.38 351.87 357.14 347.39 363.23 347.26"/><path class="cls-1" d="M288.1,189.74l-3.7,7.85-28.25,19.16-7.49-.79.06.39a2,2,0,0,0,1.42,1.67l2.28.69-7.07,4.88a.78.78,0,0,0,.08,1.33l3.25,1.71a3.66,3.66,0,0,0,4.08-.47l5.67-4.9,30-12.32a15.22,15.22,0,0,0,4.51-2.86h0a15.28,15.28,0,0,0,3.29-4.36l3.68-7.29Z"/><path class="cls-4" d="M256.68,221.48h0c-2.25-.09-4.33-2.53-4.41-2.64a.21.21,0,0,1,0-.3.21.21,0,0,1,.31,0s2,2.4,4.1,2.47a.22.22,0,0,1,0,.44Z"/><path class="cls-1" d="M365.84,83.32l-1.94-.85a1.79,1.79,0,0,0-2.5,1.45l-1.76,7.6L359,89.07a1.44,1.44,0,0,0-2.17-.43l1.58,7.84-9.43,29.57a20.88,20.88,0,0,1-2.37,4.72L341.05,139l12.06,6.4L358.4,133a22.16,22.16,0,0,0,1.37-4.58l5.36-31L368,88.11A4,4,0,0,0,365.84,83.32Z"/><path class="cls-4" d="M363.2,96.75a.22.22,0,0,1-.21-.2c-.28-3.15-3.42-4.83-3.45-4.84a.22.22,0,0,1-.1-.29.23.23,0,0,1,.3-.1c.14.07,3.38,1.8,3.68,5.19a.22.22,0,0,1-.2.24Z"/><path class="cls-4" d="M317,121c-2.51,1.32-4.18,3.93-6.75,5.12-1.93.89-4.17.84-6.07,1.8a7.26,7.26,0,0,0-3.49,4.28c-.95,2.88-.49,6,.23,8.9a12.52,12.52,0,0,1,.6,4.4,11.62,11.62,0,0,1-2.22,4.86c-2,3-4,6-4.95,9.44s-.78,7.39,1.36,10.24a11.65,11.65,0,0,0,6.55,4,32.16,32.16,0,0,0,7.78.69c5.76,0,11.62-.12,17.1-1.89a13.62,13.62,0,0,0,4.69-2.39c2.76-2.33,3.84-6.22,3.55-9.82a34.11,34.11,0,0,1-.47-5.59c.2-2.26,1.3-4.28,1.86-6.44a13.08,13.08,0,0,0-.62-8.68,22.14,22.14,0,0,1-1.49-3.25,14,14,0,0,1-.39-3.47c-.13-4.17-1.42-8.33-4.84-11A12,12,0,0,0,317,121Z"/><path class="cls-1" d="M321.79,127.18l-.42-.1a9,9,0,0,0-11,6.91c-.4,1.94-.83,3.79-1.25,5.1a13,13,0,0,0-.58,6.77,8.65,8.65,0,0,0,4.7,5.83l-.59,6.63a5.08,5.08,0,0,0,5.05,5.53h0a5.07,5.07,0,0,0,5.06-5.47l-.58-7.49c2.5-1.46,5.18-4.14,7.15-9A11,11,0,0,0,321.79,127.18Z"/><path class="cls-4" d="M317.33,152.72a8.78,8.78,0,0,1-4.21-.84.23.23,0,0,1-.08-.3.21.21,0,0,1,.3-.07,9.12,9.12,0,0,0,4.56.76.22.22,0,0,1,.23.21.23.23,0,0,1-.21.23Z"/><path class="cls-4" d="M325.08,151.69a7.52,7.52,0,0,1-.34-4.87,41.44,41.44,0,0,1,1.6-4.71,7.72,7.72,0,0,0,.53-2.4,7.36,7.36,0,0,0-1.84-4.38,17.8,17.8,0,0,1-2.7-4,6.67,6.67,0,0,1,1-6.51,3.46,3.46,0,0,1,1.83.4,14,14,0,0,1,5.22,4.14,10.82,10.82,0,0,1,2.2,6.24,22.08,22.08,0,0,1-.77,5,31.05,31.05,0,0,1-1.3,4.79,26.29,26.29,0,0,1-2.84,4.82C327.06,151,325.93,151.14,325.08,151.69Z"/><path class="cls-4" d="M320.42,129.54c1.56-.9,3.16-2,3.7-3.75a13,13,0,0,0-15,2.9,7.29,7.29,0,0,0-1.84,3.09c-.11.41-.12.81.3,1a3.25,3.25,0,0,0,1.45.19,17.43,17.43,0,0,0,3.81-.41,22.4,22.4,0,0,0,3.68-1.14,30.38,30.38,0,0,0,3.5-1.68Z"/><path class="cls-4" d="M317.18,141.57h-.05l-1.85-.46a.91.91,0,0,1-.64-.55,1,1,0,0,1,0-.85l3-5.38a.22.22,0,0,1,.3-.08.21.21,0,0,1,.08.29l-3,5.39a.53.53,0,0,0,0,.46.54.54,0,0,0,.36.3l1.84.46a.22.22,0,0,1-.05.43Z"/><path class="cls-4" d="M319.37,135.72a1,1,0,1,0,1.27-.76A1,1,0,0,0,319.37,135.72Z"/><path class="cls-4" d="M313,133.63a1.05,1.05,0,0,0,.77,1.27,1,1,0,0,0,.5-2A1,1,0,0,0,313,133.63Z"/><path class="cls-5" d="M311.86,141.74s1.37,2.95,6.05,2.36c0,0-2.28,2.38-4.94,1.08A2.22,2.22,0,0,1,311.86,141.74Z"/><path class="cls-4" d="M323.38,135.5a.41.41,0,0,1-.36-.23c-1-1.92-2.49-1.64-2.55-1.63a.43.43,0,0,1-.49-.32.41.41,0,0,1,.32-.49,3.31,3.31,0,0,1,3.45,2.06.41.41,0,0,1-.18.56A.41.41,0,0,1,323.38,135.5Z"/><path class="cls-4" d="M316.27,132.87a.41.41,0,0,1-.36-.23c-1-1.92-2.49-1.64-2.55-1.63a.43.43,0,0,1-.49-.32.41.41,0,0,1,.32-.49,3.31,3.31,0,0,1,3.45,2.06.4.4,0,0,1-.18.56A.41.41,0,0,1,316.27,132.87Z"/><path class="cls-4" d="M305.19,228.49,288.73,348.88h13.15l24.65-100,28.74,100h11.87L348.28,225.31S322.16,217.81,305.19,228.49Z"/><polygon class="cls-6" points="311.92 158.84 328.75 154.41 338.63 225.04 308.35 228.91 311.92 158.84"/><path class="cls-7" d="M324.46,155.54s-.51,13.35.1,36.7c.32,11.94,6.83,36.68,6.83,36.68l20.05-3.42L344.24,171,356,144.09l-15.47-8.2L333,147.45a25,25,0,0,1-8.57,8.09Z"/><path class="cls-7" d="M311.91,158.84,314.77,231l-13.63,4.39,1.76-45.08-4,8.36-13.86-5.5s9.46-25.51,11-27.71S311.91,158.84,311.91,158.84Z"/><path class="cls-4" d="M302.9,190.51a.22.22,0,0,1-.22-.22v-12.7a.22.22,0,0,1,.22-.22.21.21,0,0,1,.21.22v12.7A.21.21,0,0,1,302.9,190.51Z"/><path class="cls-4" d="M344.24,171.17A.21.21,0,0,1,344,171l-1.23-10.62a.22.22,0,0,1,.19-.24.22.22,0,0,1,.24.19l1.23,10.62a.22.22,0,0,1-.19.24Z"/><path class="cls-1" d="M130.85,133.7l.69-5.23s2.91-6.31,2.74-7-5.26-5.33-6-5.4-4.62,3.85-4,5.25a3.94,3.94,0,0,0,1.92,1.89,15,15,0,0,0-.49,3.08c.18.23,1,2.94,1,2.94l-1.18,3Z"/><path class="cls-4" d="M126.24,123.45h0a.2.2,0,0,1-.15-.26l.43-1.57a.23.23,0,0,1,.27-.15.21.21,0,0,1,.15.27l-.44,1.56A.21.21,0,0,1,126.24,123.45Z"/><path class="cls-4" d="M128.43,121.89a.21.21,0,0,1-.13,0c-1.17-.86-3.09-2.26-3.37-2.41l-.07,0a.21.21,0,0,1-.06-.3.23.23,0,0,1,.14-.1c.12,0,.2,0,3.62,2.49a.23.23,0,0,1,0,.31A.2.2,0,0,1,128.43,121.89Zm-3.27-2.55a.25.25,0,0,1-.1.08A.24.24,0,0,0,125.16,119.34Zm0,0Z"/><path class="cls-4" d="M129.7,120.4a.2.2,0,0,1-.13,0c-1.18-.86-3.1-2.26-3.38-2.41l-.07,0a.21.21,0,0,1-.05-.3.19.19,0,0,1,.14-.09c.11,0,.19,0,3.61,2.49a.22.22,0,0,1,.05.31A.23.23,0,0,1,129.7,120.4Zm-3.28-2.54Zm0,0Zm0,0Zm0,0Zm0,0Zm0,0Zm0,0Z"/><path class="cls-4" d="M131,119.38a.18.18,0,0,1-.12,0c-1.18-.86-3.1-2.26-3.38-2.41l-.07,0a.22.22,0,0,1-.06-.3.25.25,0,0,1,.15-.1c.11,0,.19,0,3.61,2.5a.21.21,0,0,1,0,.3A.21.21,0,0,1,131,119.38Zm-3.27-2.55a.16.16,0,0,1-.1.08A.19.19,0,0,0,127.72,116.83Zm0,0Z"/><path class="cls-1" d="M53.53,154.88l1-5.18s-.76-6.91-.39-7.49,6.68-3.39,7.4-3.22,3.16,5.11,2.1,6.23a3.94,3.94,0,0,1-2.43,1.19,14.79,14.79,0,0,1-.5,3.08c-.24.16-1.87,2.48-1.87,2.48l.17,3.24Z"/><path class="cls-4" d="M106.36,352.42h5.77l1.54,2.18,8.54,3.2a2.92,2.92,0,0,1,1.9,2.74h-18.8a1.42,1.42,0,0,1-1.39-1.75Z"/><polygon class="cls-1" points="111.2 347.81 112.13 352.42 106.36 352.42 105.11 347.94 111.2 347.81"/><path class="cls-4" d="M66.33,352.42H60.56L59,354.6l-8.54,3.2a2.93,2.93,0,0,0-1.9,2.74h18.8a1.42,1.42,0,0,0,1.39-1.75Z"/><polygon class="cls-1" points="59.08 347.73 60.56 352.42 66.33 352.42 65.56 347.73 59.08 347.73"/><path class="cls-4" d="M98.43,228.49c-21.17-4.13-43.09-3.18-43.09-3.18l-9.75,63.94a20.72,20.72,0,0,0,.16,7.24L55.43,348,68,347.7l-4.29-52.45.11,0L77.09,248.9l24.65,100H114.9Z"/><path class="cls-2" d="M124.53,131.7l-11.16,27.75-44,1.14a13,13,0,0,0-10.5,5.12l-10.3,13.55,10.94,9.81-4.21,36.24s31.85,2.95,43.09,3.18l-1.16-51.73,20.25-3a10.27,10.27,0,0,0,6.16-3.32h0a10.22,10.22,0,0,0,2.42-4.93l6.08-32.26Z"/><path class="cls-2" d="M59.62,194.68l1.64-41.15-8.88-1.3-7.8,38.21c-.87,4.27.36,11.65,4.74,13.81C54.31,206.71,59.45,198.91,59.62,194.68Z"/><path class="cls-4" d="M61.21,146.63a.23.23,0,0,1-.19-.11l-1.18-2.08a.22.22,0,1,1,.38-.21l1.18,2.08a.21.21,0,0,1-.08.29A.2.2,0,0,1,61.21,146.63Z"/><path class="cls-1" d="M88.87,142.6a67,67,0,0,1-2.75-13.06L86,128.25l-20,5c1.15,13.08,5.72,18.76,9.83,21.16l-.58,7.49a5.07,5.07,0,0,0,5.06,5.47h0a5.08,5.08,0,0,0,5-5.53l-.59-6.63a8.65,8.65,0,0,0,4.7-5.83A13,13,0,0,0,88.87,142.6Z"/><path class="cls-4" d="M80.8,145.08a.22.22,0,0,1,0-.43l1.84-.46a.54.54,0,0,0,.36-.3.53.53,0,0,0,0-.46l-3-5.39a.21.21,0,0,1,.08-.29.22.22,0,0,1,.3.08l3,5.38a.94.94,0,0,1,0,.85.91.91,0,0,1-.64.55l-1.85.46Z"/><path class="cls-4" d="M77.78,139.14a1,1,0,1,1-1.27-.76A1,1,0,0,1,77.78,139.14Z"/><path class="cls-4" d="M85,137.14a1.05,1.05,0,0,1-.77,1.27,1,1,0,1,1,.77-1.27Z"/><path class="cls-4" d="M68.31,133.46s2,7,.63,8.5-2.49-.47-2.49-.47-4.17-6.6-.74-9.15C67.82,130.78,68.31,133.46,68.31,133.46Z"/><path class="cls-1" d="M69.32,141.25c.45,1.81-.19,3.53-1.42,3.83s-2.6-.91-3.05-2.71.18-3.53,1.42-3.84S68.87,139.44,69.32,141.25Z"/><polygon class="cls-5" points="72.81 160.5 76 169.79 81.67 167.16 75.34 160.43 72.81 160.5"/><polygon class="cls-5" points="85.19 160.11 81.67 167.16 87.03 170 87.7 160.11 85.19 160.11"/><polygon class="cls-4" points="79.8 168.03 74.22 203.87 77.83 210.73 83.3 204.72 83.3 168.03 81.67 167.16 79.8 168.03"/><path class="cls-4" d="M97.27,177a.22.22,0,0,1-.22-.22v-7a.22.22,0,0,1,.22-.22.21.21,0,0,1,.21.22v7A.21.21,0,0,1,97.27,177Z"/><path class="cls-4" d="M58.43,199l-.09,0a.21.21,0,0,1-.11-.28,29.31,29.31,0,0,0,1.92-6.29c.17-2.18.29-23.59.29-23.8a.23.23,0,0,1,.22-.22h0a.22.22,0,0,1,.22.22c0,.88-.12,21.64-.3,23.84a29.17,29.17,0,0,1-1.95,6.42A.23.23,0,0,1,58.43,199Z"/><path class="cls-4" d="M65.15,133.36a2.47,2.47,0,0,1-1-2.07,8,8,0,0,1,1.66-4.44A9,9,0,0,1,70.21,123a3,3,0,0,1,2.31,0,1.64,1.64,0,0,1,.85,2,14.2,14.2,0,0,1,8-4,5.28,5.28,0,0,1,2.06,0A2.33,2.33,0,0,1,85,122.3a1.86,1.86,0,0,1-.43,2.07,6.91,6.91,0,0,1,7.49.52,2.9,2.9,0,0,1,1,1.2,2.7,2.7,0,0,1-.71,2.63c-1.29,1.47-3.32,2-5.24,2.38a.25.25,0,0,1,.23.31.81.81,0,0,1-.24.42,7,7,0,0,1-3.69,1.77,25.33,25.33,0,0,1-11.68-.18,1,1,0,0,1,.89.68.93.93,0,0,1-.32,1,1.76,1.76,0,0,1-.94.24,10.51,10.51,0,0,1-3.12-.23A12.81,12.81,0,0,1,65.15,133.36Z"/><path class="cls-4" d="M79.51,155.5a8.71,8.71,0,0,1-3.8-.91.22.22,0,0,1-.09-.3.23.23,0,0,1,.29-.09,8.38,8.38,0,0,0,4.14.85.22.22,0,0,1,0,.43A5.43,5.43,0,0,1,79.51,155.5Z"/><path class="cls-5" d="M84.69,147.81a13,13,0,0,1-5.08,0s.17,2.22,3.12,2.22C85.26,150,84.69,147.81,84.69,147.81Z"/><path class="cls-4" d="M82.37,150.24h0c-2.81-.25-2.95-2.4-3-2.42v-.28l.27.05a10.9,10.9,0,0,0,5,0,.21.21,0,0,1,.27.14.21.21,0,0,1-.14.27,10.82,10.82,0,0,1-4.87.07c.14.52.65,1.56,2.51,1.73a.22.22,0,0,1,.2.24A.22.22,0,0,1,82.37,150.24Z"/><path class="cls-4" d="M67.69,143h0a.22.22,0,0,1-.18-.25,2.08,2.08,0,0,0-1.31-2.36.21.21,0,1,1,.12-.41c2,.58,1.62,2.81,1.62,2.84A.23.23,0,0,1,67.69,143Z"/><path class="cls-4" d="M74,138.82a.74.74,0,0,1-.53-.22.72.72,0,0,1,0-1l3.22-3.07a.72.72,0,0,1,1,0,.72.72,0,0,1,0,1l-3.22,3.06A.69.69,0,0,1,74,138.82Z"/><path class="cls-4" d="M83.12,136a7.65,7.65,0,0,1-2.06-.25.72.72,0,1,1,.41-1.39,7.25,7.25,0,0,0,3.37,0,.73.73,0,0,1,.34,1.41A8.82,8.82,0,0,1,83.12,136Z"/><path class="cls-1" d="M214,147.48l6.08-5.73,11.27-19.33,7.35,3.29-7.76,21a6.85,6.85,0,0,1-1.69,2.58l-8.53,9.11Z"/><path class="cls-8" d="M229.46,74.78V115.1a25,25,0,0,0,21,24.63v42.21h7.89V139.73a25,25,0,0,0,21-24.63V74.78Z"/><polygon class="cls-9" points="269.77 187.77 269.77 181.94 238.35 181.94 238.35 187.77 230.12 187.77 230.12 201.02 278.69 201.02 278.69 187.77 269.77 187.77"/><rect class="cls-9" x="229.46" y="80.81" width="49.89" height="9.29"/><polygon class="cls-9" points="254.4 93.01 259.35 103.03 270.4 104.63 262.4 112.43 264.29 123.44 254.4 118.24 244.52 123.44 246.41 112.43 238.41 104.63 249.46 103.03 254.4 93.01"/><path class="cls-4" d="M229.82,352.42h5.77l1.54,2.18,8.55,3.2a2.93,2.93,0,0,1,1.9,2.74h-18.8a1.42,1.42,0,0,1-1.39-1.75Z"/><polygon class="cls-1" points="234.67 347.81 235.59 352.42 229.82 352.42 228.58 347.94 234.67 347.81"/><path class="cls-4" d="M181,352.42h5.77l1.54,2.18,8.54,3.2a2.92,2.92,0,0,1,1.9,2.74h-18.8a1.42,1.42,0,0,1-1.39-1.75Z"/><polygon class="cls-1" points="186.41 347.8 186.74 352.42 180.97 352.42 180.23 347.8 186.41 347.8"/><path class="cls-6" d="M222.12,160.72,213.37,146l-17,11h-21.3a12.59,12.59,0,0,0-4.89,1,12.46,12.46,0,0,0-7.36,13.46l8.45,52.71h40.18L204,174.73Z"/><path class="cls-1" d="M193,137.78a67,67,0,0,1-2.75-13.06l-.14-1.28-20,5c1.15,13.08,5.72,18.77,9.83,21.16l-.58,7.49a5.07,5.07,0,0,0,5.06,5.47h0a5.07,5.07,0,0,0,5-5.53l-.59-6.63a8.63,8.63,0,0,0,4.7-5.83A13,13,0,0,0,193,137.78Z"/><g class="cls-10"><path class="cls-4" d="M186.19,151a8.41,8.41,0,0,1-3.25-.63.21.21,0,0,1-.11-.27.22.22,0,0,1,.27-.11,8.79,8.79,0,0,0,5.69.22.21.21,0,1,1,.14.39A9.37,9.37,0,0,1,186.19,151Z"/></g><path class="cls-4" d="M184.91,140.26a.22.22,0,0,1-.21-.16.22.22,0,0,1,.16-.27l1.85-.46a.55.55,0,0,0,.35-.3.53.53,0,0,0,0-.46l-3-5.39a.21.21,0,0,1,.08-.29.22.22,0,0,1,.3.08l3,5.39a.92.92,0,0,1,.05.84,1,1,0,0,1-.65.55l-1.85.46Z"/><path class="cls-4" d="M181.9,134.33a1.05,1.05,0,1,1-1.27-.77A1,1,0,0,1,181.9,134.33Z"/><path class="cls-4" d="M189.09,132.32a1,1,0,1,1-1.27-.76A1,1,0,0,1,189.09,132.32Z"/><path class="cls-4" d="M181.78,132.77l-4.18,1a.58.58,0,0,1-.7-.42h0a.58.58,0,0,1,.42-.69l4.18-1a.58.58,0,0,1,.7.42h0A.58.58,0,0,1,181.78,132.77Z"/><path class="cls-4" d="M189.79,130.55l-4.18,1a.58.58,0,0,1-.7-.42h0a.58.58,0,0,1,.42-.69l4.18-1a.56.56,0,0,1,.69.41h0A.58.58,0,0,1,189.79,130.55Z"/><path class="cls-4" d="M166,125.61a3.44,3.44,0,0,0,2.66,4.27c1.95.4,5.34.42,11-1.25,10.89-3.19,16.25-7.71,13.3-12.13-4.67-7-17.45,5.65-17.45,5.65S167.21,121.43,166,125.61Z"/><path class="cls-4" d="M172.42,128.65s2,7,.64,8.49-2.49-.47-2.49-.47-4.18-6.6-.74-9.15C171.93,126,172.42,128.65,172.42,128.65Z"/><path class="cls-1" d="M173.43,136.43c.45,1.81-.19,3.53-1.42,3.84s-2.6-.91-3-2.72.18-3.53,1.42-3.83S173,134.63,173.43,136.43Z"/><path class="cls-4" d="M186.24,144a4.74,4.74,0,0,1-3.5-1.44.22.22,0,0,1,.34-.27,4.54,4.54,0,0,0,4.93,1,.23.23,0,0,1,.27.14.22.22,0,0,1-.14.28A6.6,6.6,0,0,1,186.24,144Z"/><path class="cls-4" d="M211.43,224.19H171.18s-7.14,16.58,1.52,32.64L177,348.3h13.54L196,254.5l29.42,93.8H239.9Z"/><path class="cls-1" d="M242,201l-38.14-5.91-8-9.59-9.74,8,8.34,8.85a13.83,13.83,0,0,0,6.36,3.84h0a13.78,13.78,0,0,0,4,.5l34.51-.75s5.63.5,7,.75,8-5.63,8-5.63Z"/><polygon class="cls-4" points="186.48 162.07 184.72 163.31 201.49 191.21 208.1 193.26 207.18 187.67 188.25 162.76 186.48 162.07"/><polygon class="cls-5" points="179.32 157.04 186.48 162.07 182.37 164.98 177.41 157.04 179.32 157.04"/><polygon class="cls-5" points="186.48 162.07 192.48 164.41 191.95 157.04 189.47 157.04 186.48 162.07"/><path class="cls-4" d="M183.46,196l-13.89-14.67a.22.22,0,0,1,.32-.3l13.6,14.38,12.23-10.11a.21.21,0,0,1,.3,0,.2.2,0,0,1,0,.3Z"/><polygon class="cls-11" points="196.01 254.5 197.44 244.52 200.54 268.95 196.01 254.5"/><path class="cls-4" d="M204,175a.23.23,0,0,1-.22-.18l-1.47-8.16a.21.21,0,1,1,.42-.07l1.48,8.15a.22.22,0,0,1-.17.25Z"/><path class="cls-4" d="M172.23,138.26A.22.22,0,0,1,172,138s-.05-2.16-1-2.76a1.19,1.19,0,0,0-1.15,0,.22.22,0,0,1-.29-.11.23.23,0,0,1,.12-.29,1.59,1.59,0,0,1,1.55,0c1.12.73,1.17,3,1.17,3.12a.21.21,0,0,1-.21.22Z"/><rect class="cls-12" x="169.73" y="222.75" width="42.12" height="3.25" rx="1.51"/><rect class="cls-8" x="196.47" y="222.29" width="4.76" height="4.76" rx="2.21"/><rect class="cls-4" x="175.46" y="222.39" width="1.08" height="4.17" rx="0.5"/><rect class="cls-4" x="181.7" y="222.39" width="1.08" height="4.17" rx="0.5"/><rect class="cls-4" x="206.64" y="222.11" width="1.08" height="4.17" rx="0.5"/><rect class="cls-4" x="187.94" y="222.39" width="1.08" height="4.17" rx="0.5"/><path class="cls-1" d="M384.56,92.49l3.21-2.66a1.62,1.62,0,0,1,2.52.59L394,98.77l.44-2.63A2.54,2.54,0,0,1,397,94h0v11.46h0l18.66,35.62,10.93,10.58-8.84,10-9.53-10.51a22,22,0,0,1-4.36-7.21l-13-35.61-7-10.12A4.3,4.3,0,0,1,384.56,92.49Z"/><path class="cls-4" d="M390.77,103.37h0a.21.21,0,0,1-.21-.21c0-2.23,3.18-4.47,3.32-4.56a.2.2,0,0,1,.28.05.2.2,0,0,1-.05.29s-3.14,2.2-3.14,4.22A.2.2,0,0,1,390.77,103.37Z"/><path class="cls-1" d="M511.09,86.92l-3.21-2.66a1.62,1.62,0,0,0-2.52.59l-3.7,8.35-.45-2.63a2.55,2.55,0,0,0-2.51-2.13h0V99.91h0L480,135.52,469.12,146.1l8.83,10,9.54-10.51a21.83,21.83,0,0,0,4.35-7.2l13.05-35.62,7-10.11A4.29,4.29,0,0,0,511.09,86.92Z"/><path class="cls-4" d="M504.89,97.8a.21.21,0,0,1-.21-.21c0-2-3.11-4.2-3.14-4.22a.22.22,0,0,1-.05-.29.21.21,0,0,1,.29,0c.13.09,3.31,2.33,3.31,4.56A.21.21,0,0,1,504.89,97.8Z"/><path class="cls-1" d="M412.85,284.47l-1.27,11.66a39,39,0,0,0-.21,5.29l1.94,51.18,6.87.34,5.39-50.08a45.1,45.1,0,0,1,1.19-6.84l3.21-12.5Z"/><path class="cls-1" d="M431.93,280.07l5.16,14a37.29,37.29,0,0,0,2.23,4.8l24.26,44,7-2.11L452.6,293.68a13.42,13.42,0,0,1-1.14-3.66l-.22-13Z"/><path class="cls-4" d="M418.21,227.24c.78-4.62,1.28-7.55,1.28-7.55l41.39-.31c2.94,10.55-3.55,24.12-3.55,24.12l3.58,40s-19.9,6.85-33.72,7.4-18.87-5.05-18.87-5.05Z"/><path class="cls-2" d="M465.17,219.69l1-46.24L483,155.14l-11.84-13.41-15.31,11.33a11.61,11.61,0,0,1-6.91,2.28h-7.15a11.61,11.61,0,0,1-6.91-2.28l-14.86-11-10.9,13.59,14.83,17.8-6.84,49.61S448.74,229.85,465.17,219.69Z"/><g class="cls-13"><path class="cls-5" d="M420.49,180c17,.87,33.9.59,51-3.75,0,1.52.28,2.67.28,4.19-18.2,6.54-34.65,5.19-52.06,4.43C419.77,182.61,420.42,182.3,420.49,180Z"/><path class="cls-5" d="M419.76,190.48a150.63,150.63,0,0,0,49.94-3.29c-.1,1.47-.18,3-.27,4.46-5.19,2.69-11.14,3.42-17,3.85a269.39,269.39,0,0,1-32.89.43C419.5,193.94,419.94,192.46,419.76,190.48Z"/><path class="cls-4" d="M423.91,173.66h0a.2.2,0,0,1-.18-.23L424.8,165a.2.2,0,0,1,.23-.18.2.2,0,0,1,.18.23l-1.09,8.43A.21.21,0,0,1,423.91,173.66Z"/><path class="cls-4" d="M466.17,173.66h0a.2.2,0,0,1-.2-.21l.13-7.16a.21.21,0,0,1,.21-.21.22.22,0,0,1,.21.22l-.14,7.16A.2.2,0,0,1,466.17,173.66Z"/></g><path class="cls-4" d="M412.91,351.58l-11.53,4.74a5.21,5.21,0,0,0-3.2,4.22h0L422,357.68l-1.53-6.1S415.74,352.69,412.91,351.58Z"/><path class="cls-4" d="M462.81,342.15l-9.38,7.26a5.21,5.21,0,0,0-2.07,4.88h0l22.37-8.61-3-5.54S465.83,342.54,462.81,342.15Z"/><path class="cls-4" d="M435.81,128.15l-.79,8.06-4.47,9.95s2.68,3.1,9.63,3.46L443.74,130Z"/><path class="cls-1" d="M458,130.29l-19-4.72s-1.45,9.57-2.75,13.59a12.57,12.57,0,0,0-.55,6.43,8.23,8.23,0,0,0,4.46,5.52l-.56,6.29a4.81,4.81,0,0,0,4.79,5.23h0a4.8,4.8,0,0,0,4.79-5.18l-.55-7.1C452.55,148.08,456.88,142.69,458,130.29Z"/><path class="cls-4" d="M444.07,152.09a8.33,8.33,0,0,1-4-.8A.21.21,0,0,1,440,151a.2.2,0,0,1,.28-.07,8.51,8.51,0,0,0,4.33.72.21.21,0,0,1,.21.2.19.19,0,0,1-.19.21Z"/><path class="cls-4" d="M442.4,141.8h0l-1.75-.43a.89.89,0,0,1-.61-.52.92.92,0,0,1,0-.81l2.89-5.1a.21.21,0,0,1,.28-.08.2.2,0,0,1,.07.28l-2.88,5.11a.44.44,0,0,0,0,.43.48.48,0,0,0,.33.29l1.75.44a.19.19,0,0,1,.15.24A.2.2,0,0,1,442.4,141.8Z"/><path class="cls-4" d="M444.67,136.26a1,1,0,1,0,1.21-.72A1,1,0,0,0,444.67,136.26Z"/><path class="cls-4" d="M439.16,134.27a1,1,0,1,0,1.2-.72A1,1,0,0,0,439.16,134.27Z"/><path class="cls-4" d="M459.58,124.31c-2.5-2.36-4.41-3.1-5.89-2.92-14.84-8.4-25.45,7.81-15,9.44,4.92.76,7.83,0,9.53-1.1-.38,1.63-.78,5.34,2.7,7.48,4.56,2.8-3.8,14.29-3.8,14.29s1.3,2.06,13.55,3.26C460.63,154.76,467.81,132.06,459.58,124.31Z"/><path class="cls-4" d="M440.69,144.48a5.1,5.1,0,0,1-1.38-.18.21.21,0,0,1-.13-.26.2.2,0,0,1,.26-.13,5.5,5.5,0,0,0,5.23-1.52.2.2,0,0,1,.29,0,.22.22,0,0,1,0,.3A6.16,6.16,0,0,1,440.69,144.48Z"/><path class="cls-4" d="M442.1,132.67H442a8.25,8.25,0,0,0-3.15,0,.61.61,0,0,1-.74-.46.6.6,0,0,1,.46-.74,9.22,9.22,0,0,1,3.68,0,.62.62,0,0,1,.48.74A.61.61,0,0,1,442.1,132.67Z"/><path class="cls-4" d="M448.13,135.79a.6.6,0,0,1-.4-.15,8.23,8.23,0,0,0-2.76-1.52.62.62,0,1,1,.32-1.2,9.52,9.52,0,0,1,3.23,1.77.62.62,0,0,1,.08.88A.63.63,0,0,1,448.13,135.79Z"/><path class="cls-12" d="M239.9,60.46s-21.45-28.41-62.49-30.73L176,35.68S197.08,31.06,239.9,60.46Z"/><path class="cls-12" d="M233.08,67s-26.17-9.58-57.62,3.51l1.95,6.07S199.56,65.06,233.08,67Z"/><path class="cls-12" d="M267.24,60.46s15.95-34.66,53.14-35.94l3,5.21S294.37,26.49,267.24,60.46Z"/><path class="cls-12" d="M276.17,66.34S315.05,51,343,62.19l-4.39,7.89S333.64,57.4,276.17,66.34Z"/><path class="cls-12" d="M252.79,60.46,241.68,0h5.56A226.59,226.59,0,0,1,252.79,60.46Z"/><path class="cls-14" d="M158.67,100.64a1.22,1.22,0,0,1-.41-.07c-1-.36-1-1.65-1-2.9,0-.92,0-2-.44-2.11s-1.1.64-1.68,1.35c-.79,1-1.61,2-2.6,1.61s-1-1.64-1-2.89c0-.92,0-2-.44-2.12s-1.1.65-1.68,1.36c-.79,1-1.61,2-2.6,1.61s-1-1.65-1-2.89c0-.92,0-2-.44-2.12s-1.09.65-1.68,1.36c-.79,1-1.61,2-2.59,1.61s-1-1.65-1-2.9c0-.91,0-2-.43-2.11l.27-.78c1,.35,1,1.64,1,2.89,0,.92,0,2,.44,2.12s1.09-.65,1.68-1.36c.79-1,1.61-2,2.59-1.61s1,1.65,1,2.9c0,.91,0,2,.43,2.11s1.1-.65,1.68-1.36c.8-1,1.62-2,2.6-1.6s1,1.64,1,2.89c0,.92,0,2,.43,2.11s1.1-.64,1.68-1.35c.79-1,1.61-2,2.6-1.61s1,1.64,1,2.89c0,.92,0,2,.43,2.12s1.1-.65,1.68-1.36c.8-1,1.62-2,2.6-1.61l-.28.78c-.44-.15-1.09.65-1.68,1.36S159.48,100.64,158.67,100.64Z"/><path class="cls-14" d="M430.94,94.4a1,1,0,0,1-.33-.05c-.78-.28-.78-1.29-.78-2.17,0-.53,0-1.31-.23-1.4s-.73.53-1.06.93c-.56.69-1.2,1.46-2,1.18s-.78-1.28-.78-2.17c0-.52,0-1.31-.23-1.39s-.73.53-1.06.93c-.57.68-1.21,1.46-2,1.18s-.78-1.29-.77-2.17c0-.52,0-1.31-.24-1.39s-.73.52-1.06.92c-.56.69-1.2,1.46-2,1.19s-.78-1.29-.78-2.17c0-.53,0-1.31-.23-1.4l.28-.77c.78.28.78,1.28.78,2.17,0,.52,0,1.3.23,1.39s.73-.53,1.06-.93c.57-.68,1.2-1.46,2-1.18s.78,1.28.78,2.17c0,.52,0,1.31.23,1.39s.74-.52,1.07-.93c.56-.68,1.2-1.46,2-1.18s.78,1.29.78,2.17c0,.52,0,1.31.23,1.39s.73-.52,1.06-.92c.56-.69,1.2-1.46,2-1.18s.78,1.28.78,2.17c0,.52,0,1.3.23,1.39s.74-.53,1.07-.93c.56-.68,1.2-1.46,2-1.18l-.28.78c-.24-.09-.73.52-1.07.93C432.11,93.75,431.58,94.4,430.94,94.4Z"/><path class="cls-14" d="M3,183.25c-.62,0-1.17-.64-1.66-1.21-.33-.39-.85-1-1.08-.9L0,180.36c.77-.29,1.43.47,2,1.15.34.39.85,1,1.08.9s.22-.87.21-1.39c0-.89,0-1.89.73-2.19s1.43.47,2,1.14c.33.4.85,1,1.08.91s.21-.87.2-1.39c0-.89,0-1.89.74-2.19s1.43.47,2,1.14c.34.4.85,1,1.08.91s.22-.88.21-1.4c0-.88,0-1.89.73-2.18s1.43.47,2,1.14c.34.4.85,1,1.08.91s.21-.88.2-1.4c0-.89,0-1.89.74-2.18l.29.77c-.23.09-.21.87-.2,1.39,0,.89,0,1.89-.74,2.19s-1.43-.47-2-1.14c-.34-.4-.85-1-1.08-.91s-.22.88-.21,1.4c0,.88,0,1.89-.73,2.18s-1.43-.47-2-1.14c-.34-.4-.85-1-1.08-.91s-.21.88-.2,1.4c0,.88,0,1.89-.74,2.18s-1.43-.47-2-1.14c-.34-.39-.85-1-1.08-.91s-.22.88-.21,1.4c0,.89,0,1.89-.73,2.18A.91.91,0,0,1,3,183.25Z"/><path class="cls-14" d="M125.14,216.83c-.88,0-1.73-.9-2.56-1.77s-1.62-1.71-2.17-1.47l-.34-.76c1.09-.47,2.11.61,3.11,1.66.76.8,1.62,1.71,2.17,1.46s.45-1.49.37-2.59c-.1-1.44-.21-2.93.87-3.41s2.11.61,3.11,1.66c.76.8,1.62,1.7,2.17,1.46s.46-1.49.37-2.59c-.1-1.44-.21-2.93.87-3.41s2.11.61,3.11,1.65c.76.81,1.62,1.71,2.17,1.47s.46-1.49.38-2.59c-.11-1.44-.22-2.93.86-3.41s2.11.61,3.11,1.65c.76.8,1.62,1.71,2.17,1.47s.46-1.49.38-2.59c-.11-1.44-.22-2.93.87-3.41l.33.75c-.55.25-.46,1.5-.38,2.6.11,1.44.22,2.93-.87,3.4s-2.11-.6-3.1-1.65c-.76-.8-1.62-1.71-2.17-1.46s-.46,1.49-.38,2.59c.1,1.44.21,2.93-.87,3.41s-2.11-.61-3.1-1.66c-.76-.8-1.62-1.7-2.17-1.46s-.46,1.49-.38,2.59c.1,1.44.21,2.93-.87,3.41s-2.11-.61-3.1-1.65c-.76-.81-1.62-1.71-2.17-1.47s-.46,1.49-.38,2.59c.1,1.44.21,2.93-.87,3.41A1.32,1.32,0,0,1,125.14,216.83Z"/><path class="cls-14" d="M392.94,227.69a1.49,1.49,0,0,1-.36-.05c-1.14-.3-1.26-1.79-1.38-3.23-.09-1.1-.19-2.35-.77-2.51s-1.29.88-1.92,1.78c-.82,1.19-1.67,2.42-2.81,2.11s-1.27-1.79-1.38-3.23c-.09-1.1-.2-2.35-.77-2.51s-1.3.88-1.92,1.79c-.83,1.18-1.68,2.41-2.82,2.11s-1.26-1.8-1.38-3.24c-.09-1.1-.19-2.35-.77-2.5s-1.29.87-1.92,1.78c-.82,1.19-1.67,2.41-2.81,2.11s-1.27-1.8-1.38-3.24c-.09-1.1-.19-2.35-.77-2.5l.21-.8c1.14.31,1.26,1.8,1.38,3.24.09,1.1.19,2.34.77,2.5s1.29-.87,1.92-1.78c.82-1.19,1.68-2.42,2.82-2.11s1.26,1.79,1.38,3.23c.09,1.1.19,2.35.77,2.51s1.29-.88,1.92-1.78c.82-1.19,1.67-2.42,2.81-2.11s1.26,1.79,1.38,3.23c.09,1.1.19,2.35.77,2.5s1.29-.87,1.92-1.78c.82-1.18,1.67-2.41,2.82-2.11s1.26,1.8,1.38,3.24c.09,1.1.19,2.35.77,2.5s1.29-.87,1.92-1.78c.82-1.19,1.67-2.41,2.81-2.11l-.21.8c-.58-.16-1.29.87-1.92,1.78C394.66,226.59,393.9,227.69,392.94,227.69Z"/><circle class="cls-14" cx="80.92" cy="89.83" r="5.29"/><path class="cls-14" d="M381.43,140.53a2.65,2.65,0,1,1-2.65-2.65A2.65,2.65,0,0,1,381.43,140.53Z"/><circle class="cls-14" cx="457.97" cy="73.48" r="4.01" transform="matrix(0.16, -0.99, 0.99, 0.16, 312.08, 513.76)"/><circle class="cls-14" cx="329.14" cy="84.07" r="6.59"/><circle class="cls-14" cx="521.07" cy="169.96" r="2.01"/><path class="cls-14" d="M19.52,223.75a2.64,2.64,0,1,1-2.64-2.64A2.65,2.65,0,0,1,19.52,223.75Z"/><circle class="cls-14" cx="145" cy="166.47" r="2.64"/></g></g></svg>