<svg xmlns="http://www.w3.org/2000/svg" viewBox="0 0 688.07 335.8"><defs><style>.cls-1{isolation:isolate;}.cls-2{opacity:0.22;}.cls-3{fill:#a0b0c8;}.cls-11,.cls-21,.cls-4{fill:#424242;}.cls-5{fill:#a8b2cc;}.cls-6{fill:#c9d3e2;}.cls-7{fill:#1c222f;}.cls-8{fill:#404c63;}.cls-9{fill:#6394f7;}.cls-10{fill:#bcbec0;}.cls-11,.cls-21,.cls-22{mix-blend-mode:multiply;}.cls-11{opacity:0.2;}.cls-12{fill:#ddd81d;}.cls-13{fill:#ffe266;}.cls-14{fill:#828200;}.cls-15{fill:#383639;stroke:#e2a02b;stroke-width:1.47px;}.cls-15,.cls-24{stroke-miterlimit:10;}.cls-15,.cls-17{opacity:0.5;}.cls-16{fill:#fff;}.cls-18{fill:#44474c;}.cls-19{fill:#c1c1c1;}.cls-20{fill:#eff1ee;}.cls-21,.cls-22{opacity:0.4;}.cls-23{fill:#58575d;}.cls-24{fill:none;stroke:#c4c3bf;stroke-width:3.42px;opacity:0.6;}</style></defs><g class="cls-1"><g id="Layer_2" data-name="Layer 2"><g id="Layer_1-2" data-name="Layer 1"><g class="cls-2"><path class="cls-3" d="M1.58,335.8h672c11.59-.05,14.84-64.18,14.46-71.71a265.31,265.31,0,0,0-17.45-80.95c-24.47-62.7-91.92-91.91-163-90.28-43.85,1-87.46,15.11-121.93,39.69-30,21.35-49.46,55.5-86.2,68.73-19.66,7.08-41.63,6.7-62.6,4.16-31.56-3.82-62.3-12.27-94-15.48S77.28,189.34,51,205.63c-21.27,13.2-35.36,34-42.67,56.09C6.28,268-3.84,335.8,1.58,335.8Z"/></g><path class="cls-4" d="M526.32,116.18a4.06,4.06,0,0,0-4.05-4.05l-36.4-2.49c-2.24,0-5.72,1.94-5.72,4.17v78.77a4.06,4.06,0,0,0,4.05,4L522.27,194a4.05,4.05,0,0,0,4.05-4Z"/><path class="cls-5" d="M82.17,275.06a21.34,21.34,0,0,0,21.28,21.27l353,0A21.35,21.35,0,0,0,477.72,275l0-247.54A21.35,21.35,0,0,0,456.41,6.19l-353,0A21.33,21.33,0,0,0,82.14,27.51l0,247.55Z"/><path class="cls-4" d="M469.73,21.27c0-10.28-8.36-18.09-18.64-18.09l-353-.5A18.65,18.65,0,0,0,79.46,21.32l0,247.54A18.66,18.66,0,0,0,98.13,287.5l353,0a18.67,18.67,0,0,0,18.63-18.64Z"/><path class="cls-6" d="M82.12,268.86l0-247.54a16,16,0,0,1,16-16l353,0a16,16,0,0,1,16,16l0,247.55a16,16,0,0,1-16,16l-353,0a16,16,0,0,1-16-16Zm-5.27,0a21.35,21.35,0,0,0,21.28,21.28l353-.05a21.33,21.33,0,0,0,21.27-21.27l0-247.55A21.35,21.35,0,0,0,451.09,0l-353,0A21.34,21.34,0,0,0,76.82,21.32l0,247.54Z"/><rect class="cls-7" x="118.12" y="29.71" width="314.1" height="229.61" rx="4.77"/><rect class="cls-8" x="331.97" y="42.71" width="79.01" height="145.58"/><rect class="cls-9" x="331.97" y="196.67" width="79.01" height="29.53" rx="4.46"/><rect class="cls-8" x="274.38" y="48.29" width="32.01" height="32"/><rect class="cls-8" x="228.19" y="48.29" width="32.01" height="32"/><rect class="cls-8" x="182" y="48.29" width="32" height="32"/><rect class="cls-8" x="135.57" y="48.29" width="32.01" height="32"/><rect class="cls-8" x="274.38" y="103.11" width="32.01" height="32"/><rect class="cls-8" x="228.19" y="103.11" width="32.01" height="32"/><rect class="cls-8" x="182" y="103.11" width="32" height="32"/><rect class="cls-8" x="135.57" y="103.11" width="32.01" height="32"/><rect class="cls-8" x="274.38" y="158.13" width="32.01" height="32"/><rect class="cls-8" x="228.19" y="158.13" width="32.01" height="32"/><rect class="cls-8" x="182" y="158.13" width="32" height="32"/><rect class="cls-8" x="135.57" y="158.13" width="32.01" height="32"/><rect class="cls-10" x="274.38" y="87.91" width="32.01" height="5.05"/><rect class="cls-10" x="228.19" y="87.91" width="32.01" height="5.05"/><rect class="cls-10" x="182" y="87.91" width="32" height="5.05"/><rect class="cls-10" x="135.57" y="87.91" width="32.01" height="5.05"/><rect class="cls-10" x="274.38" y="142.73" width="32.01" height="5.05"/><rect class="cls-10" x="228.19" y="142.73" width="32.01" height="5.05"/><rect class="cls-10" x="182" y="142.73" width="32" height="5.05"/><rect class="cls-10" x="135.57" y="142.73" width="32.01" height="5.05"/><rect class="cls-10" x="274.38" y="197.74" width="32.01" height="5.05"/><rect class="cls-10" x="228.19" y="197.74" width="32.01" height="5.05"/><rect class="cls-10" x="182" y="197.74" width="32" height="5.05"/><rect class="cls-10" x="135.57" y="197.74" width="32.01" height="5.05"/><rect class="cls-7" x="337.36" y="48.51" width="35" height="5.46"/><rect class="cls-7" x="384.38" y="48.51" width="21.11" height="5.46"/><rect class="cls-7" x="337.36" y="62.45" width="35" height="5.46"/><rect class="cls-7" x="391.13" y="62.45" width="14.36" height="5.46"/><rect class="cls-7" x="337.36" y="76.39" width="30.28" height="5.46"/><rect class="cls-7" x="391.13" y="76.39" width="14.36" height="5.46"/><rect class="cls-7" x="337.36" y="90.33" width="20.41" height="5.46"/><rect class="cls-7" x="384.38" y="90.33" width="21.11" height="5.46"/><rect class="cls-7" x="337.36" y="103.84" width="35" height="5.46"/><rect class="cls-7" x="396.93" y="103.84" width="8.56" height="5.46"/><rect class="cls-7" x="337.36" y="117.78" width="25.42" height="5.46"/><rect class="cls-7" x="391.13" y="117.78" width="14.36" height="5.46"/><rect class="cls-7" x="337.36" y="131.72" width="15.24" height="5.46"/><rect class="cls-7" x="386.12" y="131.72" width="19.37" height="5.46"/><rect class="cls-11" x="472.71" y="120.88" width="5.09" height="63.01"/><path class="cls-12" d="M594.07,70.89V219.8a4.05,4.05,0,0,1-4.07,3.9h-3.3a3.91,3.91,0,0,0,3.91-3.9l.16-148.9a3.92,3.92,0,0,0-3.9-3.91h3.3A3.91,3.91,0,0,1,594.07,70.89Z"/><path class="cls-9" d="M591.05,219.8a3.91,3.91,0,0,1-3.91,3.9L499,223.6a3.91,3.91,0,0,1-3.9-3.91l.15-148.91a3.93,3.93,0,0,1,3.91-3.9l88.16.1a3.92,3.92,0,0,1,3.9,3.91Z"/><path class="cls-13" d="M549.53,109.28a4.08,4.08,0,0,1-4.06-4.07l0-21.29a4.07,4.07,0,0,1,4.07-4.07l21.3,0A4.1,4.1,0,0,1,574.93,84l0,21.29a4.07,4.07,0,0,1-4.07,4.06Z"/><path class="cls-14" d="M549.56,80.67h0l21.3,0A3.26,3.26,0,0,1,574.11,84l0,21.29a3.26,3.26,0,0,1-3.25,3.25h0l-21.29,0a3.26,3.26,0,0,1-3.26-3.25l0-21.29a3.26,3.26,0,0,1,3.25-3.25Zm0-1.64h0a4.9,4.9,0,0,0-4.89,4.89l0,21.29a4.89,4.89,0,0,0,4.88,4.89l21.3,0a4.9,4.9,0,0,0,4.89-4.88l0-21.29a4.89,4.89,0,0,0-4.88-4.9l-21.3,0Z"/><path class="cls-15" d="M574.09,98.19h0Z"/><path class="cls-15" d="M565.74,108.52l0-27.8Z"/><path class="cls-15" d="M554.62,108.51l0-27.8Z"/><path class="cls-15" d="M554.63,98.12l-8.34,0Z"/><path class="cls-15" d="M554.64,91,546.3,91Z"/><path class="cls-15" d="M574.1,91.07h0Z"/><rect class="cls-16" x="509.61" y="187.86" width="26.73" height="10.61" transform="translate(329.23 715.92) rotate(-89.94)"/><rect class="cls-16" x="509.64" y="155.23" width="26.72" height="10.61" transform="translate(361.94 683.37) rotate(-89.94)"/><rect class="cls-16" x="509.68" y="122.58" width="26.72" height="10.61" transform="translate(394.53 650.77) rotate(-89.93)"/><rect class="cls-16" x="509.71" y="89.94" width="26.73" height="10.61" transform="translate(427.26 618.22) rotate(-89.94)"/><g class="cls-17"><rect class="cls-18" x="487.3" y="100.76" width="43.05" height="4.08" transform="translate(405.5 611.51) rotate(-89.94)"/></g><g class="cls-17"><rect class="cls-18" x="506.75" y="128.19" width="4.08" height="18.56"/></g><rect class="cls-19" x="474.7" y="120.88" width="8.91" height="60.14"/><rect class="cls-20" x="474.7" y="120.88" width="8.91" height="55.05"/><rect class="cls-21" x="478.84" y="120.88" width="8.91" height="60.14"/><g class="cls-22"><path class="cls-23" d="M486.23,192a2.61,2.61,0,0,1-2.57-2.62V110.65a2.61,2.61,0,0,1,2.61-2.62l34.64,2.49a2.65,2.65,0,0,1,2.72,2.62v73.78a2.62,2.62,0,0,1-2.62,2.62Z"/><path class="cls-4" d="M486.2,109.46,520.81,112h.2a1.19,1.19,0,0,1,1.19,1.19v73.78a1.19,1.19,0,0,1-1.19,1.19h-.2L486.2,190.6a1.19,1.19,0,0,1-1.11-1.19V110.65a1.19,1.19,0,0,1,1.11-1.19Zm.07-2.86a4.05,4.05,0,0,0-4,4.05v78.76a4.05,4.05,0,0,0,4,4.05L521,191a4.06,4.06,0,0,0,4.06-4.05V113.14a4.06,4.06,0,0,0-4.06-4l-34.74-2.49Z"/></g><path class="cls-23" d="M523,111.07a4.06,4.06,0,0,0-4-4l-34.74-2.49a4.06,4.06,0,0,0-4.06,4v78.76a4.05,4.05,0,0,0,4.06,4L519,188.9a4.06,4.06,0,0,0,4-4.05Z"/><g class="cls-17"><path class="cls-16" d="M504.18,172h-6.26v-2a7.6,7.6,0,0,1,.09-1.5,1.64,1.64,0,0,1,.62-.9,2,2,0,0,1,1.22-.37,2.07,2.07,0,0,1,1,.21,1.69,1.69,0,0,1,.61.54,1.81,1.81,0,0,1,.3.65,7.18,7.18,0,0,1,.09,1.31v.83h2.36Zm-5.2-1.26h1.78v-.69a3.4,3.4,0,0,0-.1-1,.82.82,0,0,0-.8-.54.79.79,0,0,0-.56.2.86.86,0,0,0-.28.51,6,6,0,0,0,0,.91Z"/><path class="cls-16" d="M504.18,159.78v1.38l-1.42.54v2.51l1.42.51v1.34l-6.26-2.44v-1.33Zm-2.48,2.33-2.32.86,2.32.85Z"/><path class="cls-16" d="M504.18,156.87h-2.63l-3.63,2.29v-1.48l2.48-1.47-2.48-1.45v-1.45l3.64,2.3h2.62Z"/><path class="cls-16" d="M504.18,151.3h-6.26v-1.9l4.27-1.13-4.27-1.12v-1.9h6.26v1.17h-4.93l4.93,1.25v1.21l-4.93,1.24h4.93Z"/><path class="cls-16" d="M504.18,142.59h-6.26V138H499v3.38h1.39v-3.14h1.05v3.14h1.71v-3.5h1.05Z"/><path class="cls-16" d="M504.18,135.35h-6.26v-1.23l4.18-2.57h-4.18v-1.17h6.26v1.27l-4.08,2.52h4.08Z"/><path class="cls-16" d="M504.18,126.23H499v1.86h-1.06v-5H499V125h5.2Z"/></g><path class="cls-24" d="M454.55,151.83a5.6,5.6,0,0,1-5.6,5.6h0a5.6,5.6,0,0,1-5.6-5.6v-14a5.6,5.6,0,0,1,5.6-5.6h0a5.6,5.6,0,0,1,5.6,5.6Z"/><g class="cls-17"><path class="cls-7" d="M342,170.21h0l-1.94.93-.39-1.79,2.69-1.25h2v10.18H342Z"/><path class="cls-7" d="M347.06,178.28v-1.44l1.31-1.19c2.23-2,3.31-3.13,3.34-4.33,0-.82-.5-1.48-1.68-1.48a3.7,3.7,0,0,0-2.17.84l-.68-1.7a5.65,5.65,0,0,1,3.34-1c2.3,0,3.57,1.34,3.57,3.19s-1.24,3.07-2.71,4.39l-.94.78v0h3.84v2Z"/><path class="cls-7" d="M355.12,180.14a25.93,25.93,0,0,0,1.13-4.45l2.43-.15a22.06,22.06,0,0,1-2,4.46Z"/><path class="cls-7" d="M360.57,176.55a4.37,4.37,0,0,0,1,0,4.1,4.1,0,0,0,2-.62,3.17,3.17,0,0,0,1.28-1.88l-.05,0a2.67,2.67,0,0,1-2,.74,3.07,3.07,0,0,1-3.18-3.18,3.71,3.71,0,0,1,3.84-3.67c2.61,0,3.85,2,3.85,4.39a6.05,6.05,0,0,1-1.79,4.68,6,6,0,0,1-3.88,1.43,9.64,9.64,0,0,1-1.08,0Zm1.44-5.1a1.45,1.45,0,0,0,1.44,1.63,1.52,1.52,0,0,0,1.32-.68,1.18,1.18,0,0,0,.12-.59c0-1.08-.41-2.15-1.49-2.15C362.59,169.66,362,170.38,362,171.45Z"/><path class="cls-7" d="M369.26,176.55a4.37,4.37,0,0,0,1,0,4.1,4.1,0,0,0,2-.62,3.2,3.2,0,0,0,1.28-1.88l-.05,0a2.67,2.67,0,0,1-2,.74,3.07,3.07,0,0,1-3.18-3.18,3.71,3.71,0,0,1,3.84-3.67c2.61,0,3.85,2,3.85,4.39a5.54,5.54,0,0,1-5.67,6.11,9.64,9.64,0,0,1-1.08,0Zm1.44-5.1a1.45,1.45,0,0,0,1.44,1.63,1.52,1.52,0,0,0,1.32-.68,1.18,1.18,0,0,0,.12-.59c0-1.08-.41-2.15-1.49-2.15C371.28,169.66,370.68,170.38,370.7,171.45Z"/></g></g></g></g></svg>