<svg xmlns="http://www.w3.org/2000/svg" xmlns:xlink="http://www.w3.org/1999/xlink" viewBox="0 0 1430.5 484.28"><defs><style>.cls-1{opacity:0.84;fill:url(#linear-gradient);}.cls-117,.cls-118,.cls-119,.cls-120,.cls-121,.cls-122,.cls-2,.cls-73,.cls-75{fill:none;}.cls-3{isolation:isolate;}.cls-34,.cls-4,.cls-6{mix-blend-mode:multiply;}.cls-5,.cls-6{fill:#999;}.cls-130,.cls-131,.cls-132,.cls-133,.cls-137,.cls-138,.cls-139,.cls-140,.cls-7,.cls-8{mix-blend-mode:color-dodge;}.cls-7{fill:url(#radial-gradient);}.cls-8{fill:url(#radial-gradient-2);}.cls-9{clip-path:url(#clip-path);}.cls-10{fill:#373737;}.cls-11{fill:#8a8a8a;}.cls-12{fill:#969696;}.cls-13{fill:#2d2d2d;}.cls-14{fill:#8f8f8f;}.cls-15{fill:#b3b3b3;}.cls-16{fill:#c8c8c8;}.cls-17{fill:#bebebe;}.cls-18{fill:#3d3d3d;}.cls-19{fill:url(#linear-gradient-2);}.cls-20{fill:#333;}.cls-21{fill:#666;}.cls-22{fill:#8b8b8b;}.cls-23{fill:#cecece;}.cls-24{fill:#d9d9d9;}.cls-25{fill:url(#linear-gradient-3);}.cls-26{fill:url(#radial-gradient-3);}.cls-27{fill:url(#linear-gradient-4);}.cls-28{fill:#283344;}.cls-29{mask:url(#mask);}.cls-30{fill:#e68828;}.cls-31{fill:#864b10;}.cls-32{fill:#aa6014;}.cls-33{fill:#231f20;}.cls-34{fill:#70b9c7;}.cls-35{fill:url(#linear-gradient-5);}.cls-36{stroke:#c3d8dc;stroke-width:6px;}.cls-117,.cls-118,.cls-119,.cls-120,.cls-121,.cls-122,.cls-36,.cls-73,.cls-75{stroke-miterlimit:10;}.cls-37{fill:#94e2f1;}.cls-38{clip-path:url(#clip-path-2);}.cls-39{fill:#90dbea;}.cls-40{fill:#8dd6e5;}.cls-41{fill:#96e4f3;}.cls-42{clip-path:url(#clip-path-3);}.cls-43{fill:#96e5f4;}.cls-44{fill:#57858d;}.cls-45{clip-path:url(#clip-path-4);}.cls-46{fill:#8ad2e0;}.cls-47{clip-path:url(#clip-path-5);}.cls-48{fill:#6f9ec1;}.cls-49{clip-path:url(#clip-path-6);}.cls-50{fill:#94e0f0;}.cls-51{clip-path:url(#clip-path-7);}.cls-52{fill:#6ea8b3;}.cls-53{fill:#71acb8;}.cls-54{fill:#74b1bd;}.cls-55{fill:#77b6c2;}.cls-56{fill:#7abac7;}.cls-57{fill:#7dbfcc;}.cls-58{fill:#81c3d1;}.cls-59{fill:#84c8d6;}.cls-60{fill:#87cddb;}.cls-61{clip-path:url(#clip-path-8);}.cls-62{fill:#507981;}.cls-63{fill:#537d86;}.cls-64{fill:#56828b;}.cls-65{fill:#598790;}.cls-66{fill:#5c8c95;}.cls-67{fill:#5f909a;}.cls-68{fill:#62959f;}.cls-69{fill:#6599a4;}.cls-70{fill:#689fa9;}.cls-71{fill:#6ba3ae;}.cls-72,.cls-75{mix-blend-mode:overlay;}.cls-117,.cls-118,.cls-119,.cls-120,.cls-121,.cls-122,.cls-73{stroke:#fff;}.cls-73{stroke-width:4px;}.cls-74{fill:#fff;}.cls-75{stroke:#d4f2f9;stroke-width:4.8px;}.cls-117,.cls-119,.cls-120,.cls-121,.cls-122,.cls-75{stroke-linecap:round;}.cls-76{fill:#7daab4;}.cls-77{clip-path:url(#clip-path-9);}.cls-78{fill:#58777e;}.cls-79{fill:#5b7b83;}.cls-80{fill:#5f8088;}.cls-81{fill:#62848d;}.cls-82{fill:#658a92;}.cls-83{fill:#698e97;}.cls-84{fill:#6c929c;}.cls-85{fill:#7097a0;}.cls-86{fill:#739ba5;}.cls-87{fill:#76a0aa;}.cls-88{fill:#7aa4af;}.cls-89{fill:#93c7d3;}.cls-90{clip-path:url(#clip-path-10);}.cls-91{clip-path:url(#clip-path-11);}.cls-92{clip-path:url(#clip-path-12);}.cls-93{clip-path:url(#clip-path-13);}.cls-94{clip-path:url(#clip-path-14);}.cls-95{fill:url(#linear-gradient-6);}.cls-96{fill:#90c2ce;}.cls-97{clip-path:url(#clip-path-15);}.cls-98{fill:#80aeb9;}.cls-99{fill:#84b2be;}.cls-100{clip-path:url(#clip-path-16);}.cls-101{fill:#87b7c2;}.cls-102{fill:#8bbbc7;}.cls-103{fill:#8ec0cc;}.cls-104{fill:#91c5d1;}.cls-105{fill:#95c9d6;}.cls-106{fill:#98cedb;}.cls-107{fill:#9bd2e0;}.cls-108{fill:#9fd7e4;}.cls-109{fill:#a2dbe9;}.cls-110{fill:#a6e0ee;}.cls-111{fill:#a9e5f3;}.cls-112{fill:#b3e8f4;}.cls-113{fill:#b8e9f5;}.cls-114{fill:#bbeaf5;}.cls-115{clip-path:url(#clip-path-17);}.cls-116{mix-blend-mode:soft-light;}.cls-117,.cls-118{stroke-width:3.92px;}.cls-119{stroke-width:3.38px;}.cls-120{stroke-width:2.95px;}.cls-121{stroke-width:3.75px;}.cls-122{stroke-width:3.66px;}.cls-123{clip-path:url(#clip-path-18);}.cls-124{clip-path:url(#clip-path-19);}.cls-125{clip-path:url(#clip-path-20);}.cls-126{fill:url(#linear-gradient-7);}.cls-127{fill:#12222d;}.cls-128{fill:url(#linear-gradient-8);}.cls-129{fill:#27bde1;}.cls-130{fill:url(#radial-gradient-4);}.cls-131{fill:url(#radial-gradient-5);}.cls-132{fill:url(#radial-gradient-6);}.cls-133{fill:url(#radial-gradient-7);}.cls-134{fill:#be1e3d;}.cls-134,.cls-135,.cls-136,.cls-141,.cls-142{mix-blend-mode:screen;}.cls-135{fill:url(#radial-gradient-8);}.cls-136{fill:url(#radial-gradient-9);}.cls-137{fill:url(#radial-gradient-10);}.cls-138{fill:url(#radial-gradient-11);}.cls-139{fill:url(#radial-gradient-12);}.cls-140{fill:url(#radial-gradient-13);}.cls-141{fill:url(#radial-gradient-14);}.cls-142{fill:url(#radial-gradient-15);}.cls-143{fill:#8cb1f4;opacity:0.08;}.cls-144{fill:#c8dbf4;}.cls-145{fill:#d4e4f8;}.cls-146{fill:#9fc1f4;}.cls-147{fill:#8cb4f4;}.cls-148{fill:#9abfe2;}.cls-149{fill:#bad4f4;}.cls-150{fill:#dfebfd;}.cls-151{fill:#b7d3f3;}.cls-152{fill:#c0d8fb;}.cls-153{fill:#4680c6;}.cls-154{fill:#233862;}.cls-155{fill:#ffb27d;}.cls-156{fill:#0f2549;}.cls-157{fill:#2b478b;}.cls-158{fill:#ed975d;}.cls-159{fill:#ebf3ff;}.cls-160{fill:#ed7d2b;}.cls-161{fill:#f99746;}.cls-162{fill:#182d4f;}.cls-163{fill:#1b3051;}.cls-164{fill:#73a2e5;}</style><linearGradient id="linear-gradient" x1="392.77" y1="411.5" x2="335.19" y2="149.15" gradientUnits="userSpaceOnUse"><stop offset="0" stop-color="#231f20"/><stop offset="0.2" stop-color="#474445"/><stop offset="0.64" stop-color="#a2a1a1"/><stop offset="1" stop-color="#f1f2f2"/></linearGradient><radialGradient id="radial-gradient" cx="-1378.43" cy="19928.03" r="20.73" gradientTransform="matrix(-4.95, 2.9, -0.24, -0.17, -1936.08, 7812.99)" gradientUnits="userSpaceOnUse"><stop offset="0" stop-color="#0084bc"/><stop offset="0.07" stop-color="#006b99"/><stop offset="0.17" stop-color="#004f70"/><stop offset="0.27" stop-color="#00364e"/><stop offset="0.38" stop-color="#002331"/><stop offset="0.5" stop-color="#00131b"/><stop offset="0.63" stop-color="#00080c"/><stop offset="0.78" stop-color="#000203"/><stop offset="0.99"/></radialGradient><radialGradient id="radial-gradient-2" cx="2516.65" cy="8.12" r="12.65" gradientTransform="matrix(0, -1.34, -1.46, 0, 189.4, 3751.8)" gradientUnits="userSpaceOnUse"><stop offset="0" stop-color="#39b53f"/><stop offset="0.09" stop-color="#39b53f"/><stop offset="0.43" stop-color="#214855"/><stop offset="0.61" stop-color="#161360"/><stop offset="0.99"/></radialGradient><clipPath id="clip-path"><path class="cls-2" d="M459.78,248.67h0l.05-18.6h0Q459.8,239.37,459.78,248.67Z"/></clipPath><linearGradient id="linear-gradient-2" x1="241.7" y1="416.93" x2="275.36" y2="416.93" gradientUnits="userSpaceOnUse"><stop offset="0.53" stop-color="#ccc"/><stop offset="1" stop-color="gray"/></linearGradient><linearGradient id="linear-gradient-3" x1="174.4" y1="284.9" x2="478.6" y2="284.9" gradientUnits="userSpaceOnUse"><stop offset="0" stop-color="#006378"/><stop offset="0.09" stop-color="#04667b"/><stop offset="0.19" stop-color="#106e83"/><stop offset="0.29" stop-color="#257b90"/><stop offset="0.38" stop-color="#428ea3"/><stop offset="0.48" stop-color="#67a7bc"/><stop offset="0.58" stop-color="#93c4d9"/><stop offset="0.61" stop-color="#a4cfe4"/><stop offset="0.64" stop-color="#8bbcd5"/><stop offset="0.69" stop-color="#67a1bf"/><stop offset="0.74" stop-color="#498bad"/><stop offset="0.79" stop-color="#327a9f"/><stop offset="0.85" stop-color="#226e95"/><stop offset="0.92" stop-color="#18668f"/><stop offset="1" stop-color="#15648d"/></linearGradient><radialGradient id="radial-gradient-3" cx="394.21" cy="344.58" r="101.18" gradientUnits="userSpaceOnUse"><stop offset="0" stop-color="#a9e5f3"/><stop offset="0" stop-color="#b7deec"/><stop offset="0" stop-color="#d0d0e0"/><stop offset="0.36" stop-color="#afafb8"/><stop offset="0.78" stop-color="#8d8d90"/><stop offset="1" stop-color="gray"/></radialGradient><linearGradient id="linear-gradient-4" x1="116.41" y1="290.9" x2="515.92" y2="290.9" gradientUnits="userSpaceOnUse"><stop offset="0" stop-color="#9dcad4"/><stop offset="0.02" stop-color="#a3cdd7"/><stop offset="0.11" stop-color="#bcdae2"/><stop offset="0.2" stop-color="#d0e4eb"/><stop offset="0.32" stop-color="#deecf1"/><stop offset="0.46" stop-color="#e6f0f5"/><stop offset="0.71" stop-color="#e8f1f6"/><stop offset="0.77" stop-color="#e9ebf3"/><stop offset="0.85" stop-color="#eed8ea"/><stop offset="0.95" stop-color="#f4bbdb"/><stop offset="1" stop-color="#f8aad2"/></linearGradient><mask id="mask" x="282.94" y="200.2" width="170.17" height="272.34" maskUnits="userSpaceOnUse"><polygon class="cls-1" points="453.12 296.75 282.94 397.36 282.94 293.37 453.12 200.2 453.12 296.75"/></mask><linearGradient id="linear-gradient-5" x1="181.04" y1="304.72" x2="83.11" y2="463.12" gradientUnits="userSpaceOnUse"><stop offset="0" stop-color="#d1d3d4"/><stop offset="0.27" stop-color="#e7e8e9"/><stop offset="0.52" stop-color="#fff"/><stop offset="0.68" stop-color="#f4f4f5"/><stop offset="0.95" stop-color="#d7d8d9"/><stop offset="1" stop-color="#d1d3d4"/></linearGradient><clipPath id="clip-path-2"><path class="cls-2" d="M385.75,81.21l-20.38-7.8c.48-1,.94-2.12,1.41-3.17,1-2.11,1.82-4.26,2.72-6.39.45-1.07.85-2.16,1.28-3.23l20.38,7.8c-.43,1.07-.83,2.16-1.28,3.23-.9,2.13-1.76,4.28-2.72,6.39C386.69,79.09,386.23,80.16,385.75,81.21Z"/></clipPath><clipPath id="clip-path-3"><path class="cls-2" d="M383.52,85.92l-20.38-7.8c.26-.52.5-1.05.75-1.57l20.38,7.8C384,84.87,383.78,85.4,383.52,85.92Z"/></clipPath><clipPath id="clip-path-4"><path class="cls-2" d="M391.79,66.8,371.41,59c.22-.54.42-1.08.62-1.62.78-2.18,1.62-4.34,2.34-6.54Q377.91,40.53,380.6,30L401,37.8q-2.7,10.53-6.23,20.84c-.72,2.2-1.56,4.36-2.34,6.54C392.21,65.72,392,66.26,391.79,66.8Z"/></clipPath><clipPath id="clip-path-5"><path class="cls-2" d="M377.92,96.69l-20.38-7.8c1.14-2,2.19-4.08,3.28-6.11.53-1,1-2.08,1.55-3.11l20.38,7.8c-.52,1-1,2.08-1.55,3.11C380.11,92.61,379.06,94.68,377.92,96.69Z"/></clipPath><clipPath id="clip-path-6"><path class="cls-2" d="M352.32,133.38l-20.38-7.8c.76-.84,1.48-1.74,2.23-2.6a211.57,211.57,0,0,0,16.29-22.19c2.47-3.89,4.86-7.84,7.08-11.9l20.38,7.8c-2.22,4.06-4.6,8-7.08,11.9a211.57,211.57,0,0,1-16.29,22.19C353.81,131.64,353.08,132.54,352.32,133.38Z"/></clipPath><clipPath id="clip-path-7"><path class="cls-2" d="M268.61,190.19l-20.39-7.8c.72-.2,1.39-.4,2.05-.61l1-.32c1-.32,2-.67,3-1q3-1.08,5.94-2.31t5.88-2.58c1.95-.89,3.89-1.84,5.82-2.81a192,192,0,0,0,22.51-13.46,201.22,201.22,0,0,0,20.93-16.67c3.32-3,6.56-6.2,9.71-9.46.78-.83,1.57-1.63,2.34-2.48l20.38,7.8c-.76.85-1.56,1.65-2.34,2.48-3.14,3.26-6.39,6.42-9.71,9.46a201.22,201.22,0,0,1-20.93,16.67,192,192,0,0,1-22.51,13.46c-1.93,1-3.87,1.92-5.82,2.81s-3.91,1.77-5.88,2.58-3.95,1.59-5.94,2.31c-1,.36-2,.71-3,1l-1,.32C270,189.79,269.32,190,268.61,190.19Z"/></clipPath><clipPath id="clip-path-8"><path class="cls-2" d="M268.25,193l-20.38-7.8a1.22,1.22,0,0,1-.72-1.17,1.69,1.69,0,0,1,1.07-1.61l20.39,7.8a1.71,1.71,0,0,0-1.08,1.61A1.22,1.22,0,0,0,268.25,193Z"/></clipPath><clipPath id="clip-path-9"><path class="cls-2" d="M426.55,334.67v5.12a1.66,1.66,0,0,1-1,1.37,5.19,5.19,0,0,1-4.76,0V336a5.27,5.27,0,0,0,4.77,0A1.66,1.66,0,0,0,426.55,334.67Z"/></clipPath><clipPath id="clip-path-10"><path class="cls-2" d="M419,339.07l0,5.13a1.66,1.66,0,0,1-1,1.37,5.25,5.25,0,0,1-4.76,0v-5.13a5.21,5.21,0,0,0,4.77,0A1.66,1.66,0,0,0,419,339.07Z"/></clipPath><clipPath id="clip-path-11"><path class="cls-2" d="M411.4,343.48v5.12a1.69,1.69,0,0,1-1,1.37,5.27,5.27,0,0,1-4.77,0l0-5.12a5.25,5.25,0,0,0,4.76,0A1.68,1.68,0,0,0,411.4,343.48Z"/></clipPath><clipPath id="clip-path-12"><path class="cls-2" d="M403.82,347.88V353a1.66,1.66,0,0,1-1,1.37,5.19,5.19,0,0,1-4.76,0v-5.12a5.25,5.25,0,0,0,4.76,0A1.65,1.65,0,0,0,403.82,347.88Z"/></clipPath><clipPath id="clip-path-13"><path class="cls-2" d="M558.44,393.41l-.07-25.21a15.3,15.3,0,0,1-2.32,8l.07,25.21A15.3,15.3,0,0,0,558.44,393.41Z"/></clipPath><clipPath id="clip-path-14"><path class="cls-2" d="M578.36,419.67l-.07-25.21a12.49,12.49,0,0,1-3.57,8.48l.07,25.21A12.51,12.51,0,0,0,578.36,419.67Z"/></clipPath><linearGradient id="linear-gradient-6" x1="-1501.81" y1="390.55" x2="-1337.05" y2="390.55" gradientTransform="matrix(-1, 0, 0, 1, -915.34, 0)" gradientUnits="userSpaceOnUse"><stop offset="0.01" stop-color="#e3cbe5"/><stop offset="0.03" stop-color="#decce6"/><stop offset="0.07" stop-color="#d0cee7"/><stop offset="0.1" stop-color="#b8d1eb"/><stop offset="0.13" stop-color="#96d6ef"/><stop offset="0.17" stop-color="#6cdcf4"/><stop offset="0.17" stop-color="#66ddf5"/><stop offset="0.19" stop-color="#7ae1f6"/><stop offset="0.23" stop-color="#a9ecf9"/><stop offset="0.26" stop-color="#cef4fc"/><stop offset="0.3" stop-color="#e9fafe"/><stop offset="0.33" stop-color="#f9feff"/><stop offset="0.35" stop-color="#fff"/><stop offset="0.38" stop-color="#d1f1f9"/><stop offset="0.42" stop-color="#a5e3f2"/><stop offset="0.46" stop-color="#7ed8ed"/><stop offset="0.5" stop-color="#5ecee9"/><stop offset="0.55" stop-color="#46c6e5"/><stop offset="0.59" stop-color="#35c1e3"/><stop offset="0.64" stop-color="#2abee1"/><stop offset="0.7" stop-color="#27bde1"/><stop offset="0.76" stop-color="#2abee1"/><stop offset="0.8" stop-color="#34c1e3"/><stop offset="0.84" stop-color="#44c6e5"/><stop offset="0.87" stop-color="#5bcde8"/><stop offset="0.9" stop-color="#79d6ec"/><stop offset="0.94" stop-color="#9ee1f1"/><stop offset="0.97" stop-color="#c9eff8"/><stop offset="1" stop-color="#fafefe"/><stop offset="1" stop-color="#fff"/></linearGradient><clipPath id="clip-path-15"><path class="cls-2" d="M421.67,363l.07,19.58c0,5.14,3.37,10.28,10.09,14.18l-.07-19.58C425,373.28,421.68,368.14,421.67,363Z"/></clipPath><clipPath id="clip-path-16"><path class="cls-2" d="M586.5,437.65l-.07-19.58c0,5.21-3.41,10.43-10.25,14.38-13.61,7.86-35.8,7.86-49.31,0l.07,19.58c13.51,7.86,35.7,7.86,49.31,0C583.09,448.08,586.51,442.86,586.5,437.65Z"/></clipPath><clipPath id="clip-path-17"><path class="cls-2" d="M481.56,349.23l5.63,3.25.91-.54c16-9.22,41.87-9.22,57.84,0,11.44,6.61,14.68,16.16,9.72,24.43a42.46,42.46,0,0,1,12.21,4.53c10.46,6.05,12.67,15,6.41,21.86l1.65.95c13.41,7.74,13.41,20.41,0,28.16h0c-13.41,7.74-35.36,7.74-48.77,0L432.8,377.38c-13.41-7.74-13.41-20.41,0-28.15h0C446.21,341.49,468.15,341.49,481.56,349.23Z"/></clipPath><clipPath id="clip-path-18"><path class="cls-2" d="M508.91,388.56h0q0-12.6-.07-25.21h0Q508.87,376,508.91,388.56Z"/></clipPath><clipPath id="clip-path-19"><path class="cls-2" d="M504.43,389.63a9.22,9.22,0,0,1,4.48-1.07q0-12.6-.07-25.21a9.11,9.11,0,0,0-4.48,1.08q0,11.13.07,22.26Z"/></clipPath><clipPath id="clip-path-20"><path class="cls-2" d="M513.38,389.63q0-12.6-.07-25.21a9.15,9.15,0,0,0-4.47-1.07q0,12.6.07,25.21A9.15,9.15,0,0,1,513.38,389.63Z"/></clipPath><linearGradient id="linear-gradient-7" x1="-1456.96" y1="382.06" x2="-1392.37" y2="382.06" gradientTransform="matrix(-1, 0, 0, 1, -915.34, 0)" gradientUnits="userSpaceOnUse"><stop offset="0" stop-color="#1f5a78"/><stop offset="0.19" stop-color="#e3cbe5"/><stop offset="0.21" stop-color="#decce6"/><stop offset="0.23" stop-color="#d0cee7"/><stop offset="0.26" stop-color="#b8d1eb"/><stop offset="0.29" stop-color="#96d6ef"/><stop offset="0.32" stop-color="#6cdcf4"/><stop offset="0.32" stop-color="#66ddf5"/><stop offset="0.42" stop-color="#4eb0ca"/><stop offset="0.51" stop-color="#398ba6"/><stop offset="0.6" stop-color="#2b708d"/><stop offset="0.68" stop-color="#22607d"/><stop offset="0.74" stop-color="#1f5a78"/><stop offset="0.83" stop-color="#1f5c7a"/><stop offset="0.87" stop-color="#206482"/><stop offset="0.91" stop-color="#217090"/><stop offset="0.94" stop-color="#2283a3"/><stop offset="0.97" stop-color="#249abc"/><stop offset="0.99" stop-color="#26b6da"/><stop offset="1" stop-color="#27bde1"/></linearGradient><linearGradient id="linear-gradient-8" x1="-1451.03" y1="382.06" x2="-1398.3" y2="382.06" gradientTransform="matrix(-1, 0, 0, 1, -915.34, 0)" gradientUnits="userSpaceOnUse"><stop offset="0" stop-color="#fce37a"/><stop offset="0.62" stop-color="#e0ae3c"/><stop offset="0.92" stop-color="#d59822"/></linearGradient><radialGradient id="radial-gradient-4" cx="3296.05" cy="145.71" r="3.3" gradientTransform="matrix(-0.14, -1.41, -1.25, -0.55, 1137.32, 5146.73)" gradientUnits="userSpaceOnUse"><stop offset="0" stop-color="#66b6d7"/><stop offset="0.29" stop-color="#0084bc"/><stop offset="0.42" stop-color="#005f87"/><stop offset="0.56" stop-color="#003d57"/><stop offset="0.68" stop-color="#002331"/><stop offset="0.8" stop-color="#001016"/><stop offset="0.91" stop-color="#000406"/><stop offset="0.99"/></radialGradient><radialGradient id="radial-gradient-5" cx="3297.28" cy="154.99" r="3.3" xlink:href="#radial-gradient-4"/><radialGradient id="radial-gradient-6" cx="3298.61" cy="165.13" r="3.3" xlink:href="#radial-gradient-4"/><radialGradient id="radial-gradient-7" cx="3299.87" cy="174.62" r="3.3" xlink:href="#radial-gradient-4"/><radialGradient id="radial-gradient-8" cx="2702.54" cy="3231.2" r="3.67" gradientTransform="matrix(0.71, -0.64, -0.99, -1.47, 1788.61, 6923.74)" gradientUnits="userSpaceOnUse"><stop offset="0" stop-color="#e592cc"/><stop offset="0.29" stop-color="#d44aaa"/><stop offset="0.33" stop-color="#c2449c"/><stop offset="0.46" stop-color="#882f6d"/><stop offset="0.59" stop-color="#571e46"/><stop offset="0.71" stop-color="#311128"/><stop offset="0.82" stop-color="#160812"/><stop offset="0.91" stop-color="#060205"/><stop offset="0.99"/></radialGradient><radialGradient id="radial-gradient-9" cx="2669.78" cy="3269.51" r="3.67" xlink:href="#radial-gradient-8"/><radialGradient id="radial-gradient-10" cx="3253.81" cy="608.01" r="4.83" gradientTransform="matrix(0.14, -1.41, 1.25, -0.55, -897.56, 5305.82)" xlink:href="#radial-gradient-4"/><radialGradient id="radial-gradient-11" cx="3255.09" cy="617.59" r="4.83" gradientTransform="matrix(0.14, -1.41, 1.25, -0.55, -897.56, 5305.82)" xlink:href="#radial-gradient-4"/><radialGradient id="radial-gradient-12" cx="3256.61" cy="627.14" r="4.83" gradientTransform="matrix(0.14, -1.41, 1.25, -0.55, -897.56, 5305.82)" xlink:href="#radial-gradient-4"/><radialGradient id="radial-gradient-13" cx="3257.18" cy="635.1" r="4.83" gradientTransform="matrix(0.14, -1.41, 1.25, -0.55, -897.56, 5305.82)" xlink:href="#radial-gradient-4"/><radialGradient id="radial-gradient-14" cx="2315.67" cy="3530.28" r="7" gradientTransform="matrix(-0.71, -0.64, 0.99, -1.47, -1548.86, 7082.83)" xlink:href="#radial-gradient-8"/><radialGradient id="radial-gradient-15" cx="2284.64" cy="3566.95" r="7" gradientTransform="matrix(-0.71, -0.64, 0.99, -1.47, -1548.86, 7082.83)" xlink:href="#radial-gradient-8"/></defs><g class="cls-3"><g id="Layer_2" data-name="Layer 2"><g id="Layer_1-2" data-name="Layer 1"><g class="cls-4"><path class="cls-5" d="M479.53,379.18l5.67,3.3.92-.55c16.2-9.35,42.39-9.35,58.49,0,11.53,6.7,14.75,16.39,9.69,24.79a42.11,42.11,0,0,1,12.31,4.6c10.55,6.13,12.73,15.19,6.37,22.17l1.66,1c13.51,7.85,13.44,20.7-.16,28.56s-35.8,7.85-49.31,0l-95.11-55.27c-13.52-7.86-13.45-20.71.16-28.57S466,371.33,479.53,379.18Zm24.07,51a9.87,9.87,0,0,0,8.95,0L538,415.47c2.47-1.43,2.49-3.75,0-5.18l-26.48-15.38a9.82,9.82,0,0,0-8.94,0L477.16,409.6c-2.48,1.44-2.49,3.75,0,5.19l26.47,15.38"/></g><path class="cls-6" d="M242.18,439.11l-109.8-60.32a22.87,22.87,0,0,1-.84-39.6L372.66,193.08,518,272.94a10.79,10.79,0,0,1,.4,18.68L276.24,438.39A34.06,34.06,0,0,1,242.18,439.11Z"/><path class="cls-7" d="M74.9,442c-2.7-2,41-30.45,97.61-63.6S277.21,320,279.91,322s-41,30.45-97.61,63.6S77.6,444,74.9,442Z"/><ellipse class="cls-8" cx="177.4" cy="385.06" rx="18.46" ry="16.93" transform="translate(-44.95 24.09) rotate(-6.9)"/><g class="cls-3"><g class="cls-9"><g class="cls-3"><polyline class="cls-10" points="459.83 230.07 459.78 248.67 459.77 248.66 459.82 230.06 459.83 230.07"/></g></g></g><path class="cls-11" d="M517.65,279.75l.14-.19.29-.39.15-.23c.08-.11.16-.23.23-.35l.15-.25.19-.35c0-.08.09-.17.13-.26l.16-.34a2,2,0,0,1,.11-.26c0-.12.09-.24.13-.35l.09-.26c0-.12.07-.24.1-.36s.05-.17.07-.26,0-.25.07-.37a2,2,0,0,0,.05-.24c0-.14,0-.28,0-.42a1.36,1.36,0,0,0,0-.2c0-.21,0-.42,0-.62l.05-18.6c0,.2,0,.41,0,.62l0,.2c0,.14,0,.28,0,.42s0,.16,0,.24-.05.25-.08.37a2.5,2.5,0,0,1-.07.26c0,.12-.06.24-.1.36l-.09.26c0,.11-.08.23-.13.35s-.07.17-.11.26-.1.23-.16.35-.08.17-.13.25l-.19.35-.14.25-.23.36c0,.07-.1.15-.16.22s-.19.27-.29.4l-.14.18q-.23.28-.48.57l0,0-.5.53-.19.18-.39.36-.24.21c-.13.11-.25.22-.39.32l-.27.22-.4.3-.3.22-.47.32-.2.13c-.23.16-.48.31-.73.46l0,18.6.73-.46.2-.13.24-.16.22-.16.31-.22.39-.3.28-.22.38-.32.25-.21.38-.36.19-.18c.17-.17.34-.35.49-.52l0,0Q517.43,280,517.65,279.75Z"/><polygon class="cls-12" points="359.79 177.84 359.73 196.44 121.97 337.01 122.02 318.41 359.79 177.84"/><polygon class="cls-13" points="361.33 192.96 361.28 211.56 168.78 325.58 168.84 306.98 361.33 192.96"/><polygon class="cls-14" points="361.4 196.19 361.35 214.79 174.35 325.55 174.4 306.95 361.4 196.19"/><path class="cls-15" d="M119.22,336l-.59-.36-.34-.23-.51-.35-.38-.28-.34-.27-.36-.3-.32-.27-.38-.34-.22-.22c-.14-.13-.27-.27-.4-.41l-.16-.16c-.18-.2-.34-.39-.5-.59l-.11-.13c-.11-.15-.23-.3-.34-.46l-.15-.21-.25-.39-.14-.24c-.07-.12-.14-.24-.2-.36s-.1-.18-.14-.27-.12-.24-.17-.36l-.12-.27c0-.11-.09-.23-.13-.35s-.07-.2-.1-.31a3.37,3.37,0,0,1-.1-.34l-.09-.31-.06-.31c0-.13-.05-.26-.07-.4s0-.2,0-.3l0-.39c0-.17,0-.33,0-.49l0,18.6v.33s0,.1,0,.16,0,.26,0,.39,0,.2,0,.31,0,.26.07.39l0,.2,0,.11c0,.1.05.21.08.31s.07.23.1.34.07.21.11.31l.07.21.06.14.12.27c0,.12.11.24.17.36s.08.18.13.27l.08.15.13.21c0,.08.09.16.14.24l.25.39.15.21a.43.43,0,0,1,0,.07l.3.39.11.13c.15.19.31.38.47.56l0,0,.16.18.39.4.23.22.29.27.09.07.31.27.37.3.34.27.26.2.12.08.5.35a4,4,0,0,1,.34.23l.6.36.26.17.1.05.06-18.6Z"/><polygon class="cls-16" points="291.6 373.6 291.55 392.2 174.35 325.55 174.4 306.95 291.6 373.6"/><polygon class="cls-17" points="291.67 376.83 291.61 395.43 168.79 325.58 168.84 306.98 291.67 376.83"/><polygon class="cls-18" points="244.51 404.1 244.46 422.7 122.18 353.17 122.23 334.57 244.51 404.1"/><polygon class="cls-16" points="241.75 405.73 241.7 424.33 119.53 354.85 119.59 336.25 241.75 405.73"/><path class="cls-19" d="M275.36,405.57l-.05,18.6c-9.17,5.42-24.23,5.49-33.61.16l.05-18.6C251.14,411.06,266.19,411,275.36,405.57Z"/><path class="cls-20" d="M195.67,387.86a2.47,2.47,0,0,1-.35,1.38,1.56,1.56,0,0,1-.75.64,3,3,0,0,1-2.65-.43l-30.83-17.8a8.31,8.31,0,0,1-3.41-4.14,5.35,5.35,0,0,1-.35-1.78,2,2,0,0,1,1.1-2,3.05,3.05,0,0,1,2.66.43l30.83,17.8A7.8,7.8,0,0,1,195.67,387.86Z"/><path class="cls-21" d="M195.32,389.24a1.56,1.56,0,0,1-.75.64,3,3,0,0,1-2.65-.43l-30.83-17.8a8.31,8.31,0,0,1-3.41-4.14,1.65,1.65,0,0,1,.75-.64,3.08,3.08,0,0,1,2.66.43l30.83,17.8A8.24,8.24,0,0,1,195.32,389.24Z"/><polygon class="cls-16" points="510.1 247.24 510.04 265.84 387.76 196.3 387.81 177.7 510.1 247.24"/><path class="cls-22" d="M459.81,230.06c1,.6,1.06,1.57,0,2.17a4.16,4.16,0,0,1-3.75,0l-45.52-25.89c-1.05-.6-1.06-1.57-.05-2.17a4.15,4.15,0,0,1,3.76,0Z"/><polygon class="cls-18" points="484.16 262.81 484.11 281.41 361.28 211.56 361.33 192.96 484.16 262.81"/><polygon class="cls-17" points="478.6 262.84 478.55 281.44 361.35 214.79 361.4 196.19 478.6 262.84"/><polygon class="cls-12" points="478.6 262.84 478.55 281.44 291.55 392.2 291.6 373.6 478.6 262.84"/><path class="cls-23" d="M484.16,262.81l-192.49,114L168.84,307,361.33,193ZM174.4,307,291.6,373.6l187-110.76L361.4,196.19,174.4,307"/><polygon class="cls-14" points="484.16 262.81 484.11 281.41 291.61 395.43 291.67 376.83 484.16 262.81"/><path class="cls-24" d="M513.12,265,275.36,405.57c-9.17,5.42-24.22,5.49-33.61.16L119.59,336.25c-9.38-5.41-9.5-14.05-.39-19.44L357,176.24c9.17-5.43,24.22-5.5,33.6-.16l122.17,69.47C522.11,251,522.24,259.61,513.12,265ZM258.59,407.4a28,28,0,0,0,14-3.43L510.3,263.4c7.57-4.48,7.48-11.73-.2-16.16L387.81,177.7a28.73,28.73,0,0,0-14.08-3.3,28.19,28.19,0,0,0-14,3.44L122,318.41c-7.57,4.47-7.48,11.72.21,16.16L244.51,404.1a28.54,28.54,0,0,0,14.08,3.3"/><polygon class="cls-25" points="478.6 262.84 291.6 373.6 174.4 306.95 361.4 196.19 478.6 262.84"/><polygon class="cls-26" points="513.12 265 513.07 283.6 275.31 424.17 275.36 405.57 513.12 265"/><path class="cls-27" d="M510.3,263.4,272.54,404a28,28,0,0,1-14,3.43,28.51,28.51,0,0,1-14.08-3.3L122.23,334.57c-7.69-4.44-7.78-11.69-.21-16.16L359.78,177.83a28.29,28.29,0,0,1,14-3.43,28.73,28.73,0,0,1,14.08,3.3L510.1,247.24C517.78,251.67,517.87,258.92,510.3,263.4Z"/><path class="cls-28" d="M510.3,263.4,272.54,404a28,28,0,0,1-14,3.43,28.73,28.73,0,0,1-14.08-3.29L122.23,334.57c-7.69-4.44-7.78-11.69-.21-16.16L359.78,177.84a28.16,28.16,0,0,1,14-3.44,28.73,28.73,0,0,1,14.08,3.3L510.1,247.24C517.78,251.67,517.87,258.92,510.3,263.4Z"/><g class="cls-29"><g class="cls-3"><polygon class="cls-30" points="429.18 237.24 410.5 226.83 410.32 387.13 428.78 376.4 429.18 237.24"/><polygon class="cls-31" points="428.78 376.4 410.32 387.13 432.25 399.8 450.71 389.07 428.78 376.4"/><polygon class="cls-32" points="450.71 389.07 450.9 224.9 429.18 237.24 428.78 376.4 450.71 389.07"/></g><g class="cls-3"><polygon class="cls-30" points="386 262.19 367.32 251.78 367.14 412.09 385.6 401.36 386 262.19"/><polygon class="cls-31" points="385.6 401.36 367.14 412.09 389.07 424.75 407.53 414.02 385.6 401.36"/><polygon class="cls-32" points="407.53 414.02 407.71 249.85 386 262.19 385.6 401.36 407.53 414.02"/></g><g class="cls-3"><polygon class="cls-30" points="343.75 286.01 325.07 275.6 324.89 435.9 343.35 425.17 343.75 286.01"/><polygon class="cls-31" points="343.35 425.17 324.89 435.9 346.82 448.57 365.28 437.84 343.35 425.17"/><polygon class="cls-32" points="365.28 437.84 365.47 273.67 343.75 286.01 343.35 425.17 365.28 437.84"/></g><g class="cls-3"><polygon class="cls-30" points="302.79 309.99 284.11 299.58 283.93 459.89 302.39 449.15 302.79 309.99"/><polygon class="cls-31" points="302.39 449.15 283.93 459.89 305.86 472.55 324.32 461.82 302.39 449.15"/><polygon class="cls-32" points="324.32 461.82 324.51 297.65 302.79 309.99 302.39 449.15 324.32 461.82"/></g></g><polygon class="cls-33" points="252.85 386.12 155.8 329.73 168.34 322.49 265.4 378.88 252.85 386.12"/><path class="cls-34" d="M164,340.17c-4.48-1-19-3.37-31.71-.29-26.88,6.52-72.44,61.45-87.65,72.29-16.08,13.57-35.42,12.61-37.46,12,8.22,4.29,78.19,46.36,83.6,47.54,4.48,1,9.61,2.78,16.47.58,6.5-2.09,20.5-10.15,26.09-15,28.7-24.7,55-64.63,80.22-78.85,14.08-8,42.1.77,42.1.77S170.49,341.58,164,340.17Z"/><path class="cls-35" d="M169.9,329.11c-4.33-1.51-18.45-5.65-31.45-4.13-27.47,3.21-84.19,59.58-100.6,68.49-4.49,2.45-15.7,7.67-27.11,9.47A18.16,18.16,0,0,1,0,401.78c7.65,5.26,76,47.18,81.26,49,4.33,1.51,9.2,3.93,16.28,2.58,6.7-1.28,21.57-7.58,27.71-11.69,31.48-21,62.43-57.47,89.19-68.53,14.94-6.18,41.7,5.88,41.7,5.88S176.17,331.3,169.9,329.11Z"/><polygon points="136.11 342.15 130.74 338.14 135.87 333.25 141.48 337.43 136.11 342.15"/><line class="cls-36" x1="145.24" y1="341.85" x2="186.35" y2="369.54"/><line class="cls-36" x1="142.35" y1="346.88" x2="170.36" y2="365.74"/><polygon points="120.92 354.89 115.44 351.04 120.44 346.01 126.15 350.03 120.92 354.89"/><line class="cls-36" x1="127.5" y1="358.21" x2="168.03" y2="386.74"/><line class="cls-36" x1="131.56" y1="354.24" x2="159.18" y2="373.68"/><polygon points="104.03 367.09 98.98 362.7 104.47 358.21 109.74 362.8 104.03 367.09"/><line class="cls-36" x1="113.09" y1="368.12" x2="153.46" y2="396.86"/><line class="cls-36" x1="109.27" y1="370.67" x2="136.77" y2="390.26"/><polygon points="71.29 392.67 66.24 388.27 71.72 383.79 77 388.37 71.29 392.67"/><line class="cls-36" x1="80.35" y1="393.7" x2="120.72" y2="422.44"/><line class="cls-36" x1="76.53" y1="396.25" x2="104.03" y2="415.83"/><polygon points="52.36 407.51 47.31 403.11 52.8 398.62 58.07 403.21 52.36 407.51"/><line class="cls-36" x1="61.42" y1="408.53" x2="101.79" y2="437.28"/><line class="cls-36" x1="57.6" y1="411.08" x2="85.11" y2="430.67"/><polygon points="86.36 377.04 81.38 372.56 86.93 368.16 92.14 372.82 86.36 377.04"/><line class="cls-36" x1="90.22" y1="379.45" x2="131.81" y2="406.4"/><line class="cls-36" x1="94.37" y1="375.97" x2="122.71" y2="394.33"/><g class="cls-3"><polygon class="cls-37" points="391.16 68.42 370.78 60.62 371.41 59 391.79 66.8 391.16 68.42"/><g class="cls-3"><g class="cls-38"><g class="cls-3"><path class="cls-39" d="M385.75,81.21l-20.38-7.8c.48-1,.94-2.12,1.41-3.17,1-2.11,1.82-4.26,2.72-6.39.19-.46.38-.92.56-1.38l20.38,7.8c-.18.46-.37.92-.56,1.38-.9,2.13-1.76,4.28-2.72,6.39-.47,1-.93,2.12-1.41,3.17"/><path class="cls-40" d="M390.44,70.27l-20.38-7.8c.18-.46.35-.92.53-1.37L391,68.9c-.18.45-.35.91-.53,1.37"/><path class="cls-39" d="M391,68.9l-20.38-7.8.19-.48,20.38,7.8c-.06.16-.12.32-.19.48"/></g></g></g><polygon class="cls-41" points="384.27 84.35 363.89 76.55 365.37 73.41 385.75 81.21 384.27 84.35"/><g class="cls-3"><g class="cls-42"><g class="cls-3"><path class="cls-39" d="M383.52,85.92l-20.38-7.8c.26-.52.5-1.05.75-1.57l20.38,7.8c-.25.52-.49,1.05-.75,1.57"/></g></g></g><polygon class="cls-43" points="382.75 87.47 362.37 79.67 363.14 78.12 383.52 85.92 382.75 87.47"/><polygon class="cls-44" points="400.98 37.8 380.6 30 399.36 33.16 419.74 40.96 400.98 37.8"/><g class="cls-3"><g class="cls-45"><g class="cls-3"><path class="cls-39" d="M391.79,66.8,371.41,59c0-.11.09-.21.13-.32l20.38,7.8c0,.11-.08.21-.13.32"/><path class="cls-40" d="M391.92,66.48l-20.38-7.8c.17-.43.33-.86.49-1.3.78-2.18,1.62-4.34,2.34-6.54q1.65-4.8,3.11-9.67L397.87,49q-1.47,4.86-3.12,9.67c-.72,2.2-1.56,4.36-2.34,6.54-.16.44-.32.87-.49,1.3"/><path class="cls-46" d="M397.87,49l-20.39-7.8q1.68-5.55,3.12-11.16L401,37.8q-1.44,5.63-3.11,11.17"/></g></g></g><g class="cls-3"><g class="cls-47"><g class="cls-3"><path class="cls-39" d="M377.92,96.69l-20.38-7.8c1.14-2,2.19-4.08,3.28-6.11.53-1,1-2.08,1.55-3.11l20.38,7.8c-.52,1-1,2.08-1.55,3.11-1.09,2-2.14,4.1-3.28,6.11"/></g></g></g><polygon class="cls-41" points="395.26 36.84 374.87 29.04 397.46 0.16 417.84 7.96 395.26 36.84"/><polygon class="cls-48" points="417.84 7.96 425.54 41.93 419.74 40.96 400.98 37.8 395.26 36.84 417.84 7.96"/><g class="cls-3"><g class="cls-49"><g class="cls-3"><path class="cls-40" d="M352.32,133.38l-20.38-7.8c.76-.84,1.48-1.74,2.23-2.6l1.07-1.29,20.38,7.8-1.07,1.29c-.74.86-1.47,1.76-2.23,2.6"/><path class="cls-39" d="M355.62,129.49l-20.38-7.8a211.82,211.82,0,0,0,15.22-20.9c2.47-3.89,4.86-7.84,7.08-11.9l20.38,7.8c-2.22,4.06-4.6,8-7.08,11.9a210.21,210.21,0,0,1-15.22,20.9"/></g></g></g><polygon class="cls-37" points="350.07 135.95 329.69 128.15 331.94 125.58 352.32 133.38 350.07 135.95"/><polygon class="cls-50" points="347.76 138.46 327.38 130.66 329.69 128.15 350.07 135.95 347.76 138.46"/><g class="cls-3"><g class="cls-51"><g class="cls-3"><path class="cls-52" d="M268.61,190.19l-20.39-7.8c.72-.2,1.39-.4,2.05-.61l1-.32.34-.11,20.38,7.8-.34.11-1,.32c-.66.21-1.33.41-2,.61"/><path class="cls-53" d="M272,189.15l-20.38-7.8c.88-.29,1.76-.6,2.64-.92s1.81-.67,2.72-1l20.38,7.8c-.91.35-1.81.69-2.72,1s-1.76.63-2.64.92"/><path class="cls-54" d="M277.35,187.21,257,179.41c1.07-.41,2.15-.84,3.22-1.29s2.33-1,3.49-1.49l20.39,7.8c-1.17.51-2.33,1-3.5,1.49s-2.15.88-3.22,1.29"/><path class="cls-55" d="M284.07,184.43l-20.39-7.8,2.39-1.09c1.72-.79,3.43-1.62,5.14-2.47l20.38,7.8c-1.7.85-3.42,1.68-5.14,2.47l-2.38,1.09"/><path class="cls-56" d="M291.59,180.87l-20.38-7.8.68-.34c2.43-1.23,4.84-2.53,7.23-3.87l20.38,7.8q-3.58,2-7.23,3.87l-.68.34"/><path class="cls-57" d="M299.5,176.66l-20.38-7.8q4.11-2.33,8.14-4.86l20.38,7.8q-4,2.53-8.14,4.86"/><path class="cls-58" d="M307.64,171.8,287.26,164q3.6-2.28,7.14-4.73l1.25-.87L316,166.2l-1.26.87c-2.35,1.63-4.74,3.21-7.14,4.73"/><path class="cls-59" d="M316,166.2l-20.39-7.8q4.44-3.14,8.73-6.52l20.39,7.8q-4.31,3.39-8.73,6.52"/><path class="cls-60" d="M324.77,159.68l-20.39-7.8q4.64-3.65,9.08-7.6l20.39,7.8q-4.46,3.94-9.08,7.6"/><path class="cls-46" d="M333.85,152.08l-20.39-7.8c.63-.56,1.25-1.11,1.87-1.68q4.13-3.76,8.07-7.78l20.38,7.8q-3.94,4-8.07,7.78l-1.86,1.68"/><path class="cls-40" d="M343.78,142.62l-20.38-7.8,1.64-1.68c.78-.83,1.57-1.63,2.34-2.48l20.38,7.8c-.76.85-1.56,1.65-2.34,2.48l-1.64,1.68"/></g></g></g><g class="cls-3"><g class="cls-61"><g class="cls-3"><path class="cls-62" d="M268.25,193l-20.38-7.8a1,1,0,0,1-.41-.3l20.38,7.8a1,1,0,0,0,.41.3"/><path class="cls-63" d="M267.84,192.67l-20.38-7.8-.07-.09,20.38,7.8.07.09"/><path class="cls-64" d="M267.77,192.58l-20.38-7.8a.35.35,0,0,1,0-.08l20.38,7.8a.35.35,0,0,0,0,.08"/><path class="cls-65" d="M267.72,192.5l-20.38-7.8a.25.25,0,0,1,0-.07l20.38,7.8a.25.25,0,0,0,0,.07"/><path class="cls-66" d="M267.68,192.43l-20.38-7.8a.21.21,0,0,1,0-.07l20.38,7.8,0,.07"/><path class="cls-67" d="M267.65,192.36l-20.38-7.8,0-.07,20.38,7.8,0,.07"/><path class="cls-68" d="M267.62,192.29l-20.38-7.8a.14.14,0,0,1,0-.06l20.38,7.8s0,0,0,.06"/><path class="cls-69" d="M267.6,192.23l-20.38-7.8s0,0,0-.06l20.38,7.8s0,0,0,.06"/><path class="cls-70" d="M267.58,192.17l-20.38-7.8a.17.17,0,0,1,0-.07l20.38,7.8s0,.05,0,.07"/><path class="cls-71" d="M267.57,192.1l-20.38-7.8s0,0,0-.06l20.38,7.8s0,0,0,.06"/><path class="cls-52" d="M267.55,192l-20.38-7.8a.13.13,0,0,0,0-.06l20.39,7.8V192"/><path class="cls-53" d="M267.55,192l-20.39-7.8v-.07l20.38,7.8a.2.2,0,0,0,0,.07"/><path class="cls-54" d="M267.54,191.91l-20.38-7.8s0,0,0-.06l20.39,7.8v.06"/><path class="cls-55" d="M267.54,191.85l-20.39-7.8V184l20.38,7.8v.07"/><path class="cls-56" d="M267.53,191.78,247.15,184v-.07l20.39,7.8a.17.17,0,0,0,0,.07"/><path class="cls-57" d="M267.54,191.71l-20.39-7.8s0,0,0-.08l20.38,7.8v.08"/><path class="cls-58" d="M267.54,191.63l-20.38-7.8a.17.17,0,0,1,0-.07l20.38,7.8s0,.05,0,.07"/><path class="cls-59" d="M267.55,191.56l-20.38-7.8a.19.19,0,0,1,0-.08l20.38,7.8s0,.05,0,.08"/><path class="cls-60" d="M267.56,191.48l-20.38-7.8s0-.07,0-.1l20.38,7.8s0,.06,0,.1"/><path class="cls-46" d="M267.58,191.38l-20.38-7.8,0-.1,20.38,7.8,0,.1"/><path class="cls-40" d="M267.61,191.28l-20.38-7.8a.78.78,0,0,1,.05-.14l20.38,7.8a.58.58,0,0,0-.05.14"/><path class="cls-39" d="M267.66,191.14l-20.38-7.8a1.44,1.44,0,0,1,.28-.48l20.38,7.8a1.64,1.64,0,0,0-.28.48"/><path class="cls-40" d="M267.94,190.66l-20.38-7.8.09-.11,20.39,7.8-.1.11"/><path class="cls-46" d="M268,190.55l-20.39-7.8.08-.07,20.38,7.8-.07.07"/><path class="cls-60" d="M268.11,190.48l-20.38-7.8.07-.06,20.38,7.8-.07.06"/><path class="cls-59" d="M268.18,190.42l-20.38-7.8.06-.05,20.38,7.8-.06,0"/><path class="cls-58" d="M268.24,190.37l-20.38-7.8.06,0,20.38,7.8-.06,0"/><path class="cls-57" d="M268.3,190.33l-20.38-7.8.06,0,20.38,7.8-.06,0"/><path class="cls-56" d="M268.36,190.3,248,182.5l.06,0,20.38,7.8-.06,0"/><path class="cls-55" d="M268.42,190.27,248,182.47l.05,0,20.39,7.8-.06,0"/><path class="cls-54" d="M268.48,190.24l-20.39-7.8.06,0,20.38,7.8,0,0"/><path class="cls-53" d="M268.53,190.22l-20.38-7.8.06,0,20.38,7.8-.06,0"/><path class="cls-52" d="M268.59,190.2l-20.38-7.8h0l20.39,7.8h0"/></g></g></g><path class="cls-48" d="M401,37.8,419.74,41c-2.67,8.08-5.67,16.07-9,23.9-1,2.35-2.05,4.66-3.09,7-.25.58-.52,1.16-.8,1.73L406,75.29c-.56,1.15-1.08,2.3-1.66,3.43-1.15,2.27-2.26,4.55-3.48,6.77-.6,1.12-1.18,2.24-1.79,3.35l-1.86,3.31c-.32.55-.62,1.1-.94,1.65l-1,1.63c-.64,1.08-1.28,2.17-1.93,3.24-1.34,2.14-2.65,4.29-4,6.37-2.73,4.22-5.62,8.3-8.6,12.28a221.1,221.1,0,0,1-19.15,22.33c-.85.85-1.69,1.74-2.56,2.57l-2.58,2.51-2.63,2.45c-.87.82-1.77,1.6-2.66,2.4q-5.34,4.74-10.89,9A199.82,199.82,0,0,1,317.36,174a186.14,186.14,0,0,1-23.95,11.6q-3,1.22-6.1,2.3c-1.73.61-3.47,1.2-5.22,1.75l-.91.28c-2.05.63-4.1,1.22-6.16,1.75-1,.27-2.06.52-3.1.75s-2.05.45-3.13.64a1.13,1.13,0,0,1-1.26-1.22,1.71,1.71,0,0,1,1.08-1.61c.71-.2,1.38-.4,2-.61l1-.32c1-.32,2-.67,3-1q3-1.08,5.94-2.31t5.88-2.58c1.95-.89,3.89-1.84,5.82-2.81a192,192,0,0,0,22.51-13.46,201.22,201.22,0,0,0,20.93-16.67c3.32-3,6.57-6.2,9.71-9.46.78-.83,1.58-1.63,2.34-2.48l2.31-2.51,2.25-2.57c.76-.84,1.49-1.74,2.23-2.6a211.57,211.57,0,0,0,16.29-22.19c2.48-3.89,4.86-7.84,7.08-11.9,1.14-2,2.19-4.08,3.28-6.11.53-1,1-2.08,1.55-3.11l.77-1.55c.26-.52.5-1,.75-1.57l1.48-3.14c.48-1,.94-2.12,1.41-3.17,1-2.11,1.82-4.26,2.72-6.39.45-1.07.85-2.16,1.28-3.23l.63-1.62c.22-.54.42-1.08.62-1.62.78-2.18,1.62-4.34,2.34-6.54Q398.29,48.34,401,37.8Z"/></g><g class="cls-72"><polygon class="cls-73" points="306.89 355.46 262.33 329.74 288.81 314.45 333.37 340.17 306.89 355.46"/><path class="cls-74" d="M300.54,331.46a9.37,9.37,0,0,1-4.1,1.34,6.09,6.09,0,0,1-3.55-.77c-1-.59-1.48-1.26-1.35-2s.91-1.56,2.35-2.39a9.3,9.3,0,0,1,4.1-1.35,6.1,6.1,0,0,1,3.54.77c1.05.61,1.49,1.29,1.34,2.06S301.94,330.65,300.54,331.46Zm-2.4-1.39a5.61,5.61,0,0,0,1.78-1.3c.13-.26.05-.48-.24-.65a1.6,1.6,0,0,0-1.2-.12,8.6,8.6,0,0,0-2.19,1,5.48,5.48,0,0,0-1.78,1.3c-.14.26-.06.48.25.65a1.62,1.62,0,0,0,1.21.12A9.4,9.4,0,0,0,298.14,330.07Zm10.72,1.31,1.9,1.09L286,337.59l-1.91-1.1Zm-7.93,9.93a9.3,9.3,0,0,1-4.11,1.35,6.17,6.17,0,0,1-3.54-.77c-1-.6-1.47-1.28-1.33-2.05s.93-1.56,2.33-2.37a9.41,9.41,0,0,1,4.11-1.34,6.22,6.22,0,0,1,3.54.77c1,.59,1.46,1.26,1.34,2S302.37,340.48,300.93,341.31Zm-2.4-1.38a5.58,5.58,0,0,0,1.78-1.31c.14-.26.05-.48-.25-.65a1.62,1.62,0,0,0-1.21-.12,9.79,9.79,0,0,0-2.17,1,5.65,5.65,0,0,0-1.77,1.3c-.14.27-.07.48.23.65a1.6,1.6,0,0,0,1.22.12A9.07,9.07,0,0,0,298.53,339.93Z"/><polygon class="cls-73" points="251.82 323.67 207.27 297.95 233.75 282.66 278.31 308.38 251.82 323.67"/><path class="cls-74" d="M232.48,308.3l2.34-1.35a5.64,5.64,0,0,1-2.53-2.64l2.11-.58a5,5,0,0,0,2.34,2.51,5.33,5.33,0,0,0,5,.28c1.27-.74,1.16-1.72.14-3.11-1.44-1.9-1.84-3.36.18-4.53a8.51,8.51,0,0,1,7.24-.13l2.34-1.36,1.44.83-2.25,1.3a5.28,5.28,0,0,1,2.21,2.21l-2.12.55a4.67,4.67,0,0,0-2.13-2.14,4.6,4.6,0,0,0-4.46-.27c-1.2.7-1,1.54.24,3.19C246,305,246,306.4,244,307.59a9,9,0,0,1-7.61.16l-2.41,1.39Z"/><polygon class="cls-73" points="218.2 343.57 173.64 317.85 200.12 302.56 244.68 328.28 218.2 343.57"/><polygon class="cls-73" points="202.35 330.4 197.77 327.76 208.75 321.42 213.32 324.07 202.35 330.4"/><polygon class="cls-73" points="197.62 327.68 193.05 325.03 199.94 321.06 204.51 323.7 197.62 327.68"/><polygon class="cls-73" points="192.9 324.95 187.73 321.96 191.82 319.61 196.99 322.59 192.9 324.95"/><polygon class="cls-73" points="206.96 333.2 202.38 330.56 216.51 322.4 221.09 325.04 206.96 333.2"/><polygon class="cls-73" points="211.58 335.87 207 333.23 225.29 322.67 229.87 325.31 211.58 335.87"/><polygon class="cls-73" points="273.26 375.36 228.71 349.64 255.19 334.35 299.74 360.07 273.26 375.36"/><ellipse class="cls-73" cx="263.59" cy="354.73" rx="11.59" ry="6.69"/><path class="cls-74" d="M271.79,359.47l-8.8-4.56,8.8-4.91C276.32,352.62,276.32,356.85,271.79,359.47Z"/></g><g class="cls-3"><polygon class="cls-30" points="302.66 308.86 284.19 298.13 284.02 237.27 302.48 248 302.66 308.86"/><polygon class="cls-31" points="302.48 248 284.02 237.27 305.95 224.61 324.42 235.34 302.48 248"/><polygon class="cls-32" points="324.42 235.34 324.59 296.2 302.66 308.86 302.48 248 324.42 235.34"/></g><g class="cls-3"><polygon class="cls-30" points="343.39 285.34 324.92 274.61 324.68 190.23 343.15 200.96 343.39 285.34"/><polygon class="cls-31" points="343.15 200.96 324.68 190.23 346.61 177.57 365.08 188.3 343.15 200.96"/><polygon class="cls-32" points="365.08 188.3 365.32 272.68 343.39 285.34 343.15 200.96 365.08 188.3"/></g><g class="cls-3"><polygon class="cls-30" points="385.99 260.74 367.53 250.01 367.23 143.81 385.69 154.54 385.99 260.74"/><polygon class="cls-31" points="385.69 154.54 367.23 143.81 389.16 131.15 407.62 141.88 385.69 154.54"/><polygon class="cls-32" points="407.62 141.88 407.93 248.08 385.99 260.74 385.69 154.54 407.62 141.88"/></g><g class="cls-3"><polygon class="cls-30" points="429.27 235.76 410.8 225.03 410.41 85.86 428.87 96.59 429.27 235.76"/><polygon class="cls-31" points="428.87 96.59 410.41 85.86 432.34 73.2 450.81 83.93 428.87 96.59"/><polygon class="cls-32" points="450.81 83.93 451.2 223.1 429.27 235.76 428.87 96.59 450.81 83.93"/></g><line class="cls-75" x1="402.62" y1="351.84" x2="424.78" y2="365.16"/><line class="cls-75" x1="409.41" y1="347.89" x2="431.62" y2="360.45"/><line class="cls-75" x1="417.45" y1="342.86" x2="440.33" y2="355.99"/><line class="cls-75" x1="424.92" y1="338.46" x2="447.6" y2="351.47"/><g class="cls-3"><polygon class="cls-76" points="420.81 336.04 420.8 341.16 408.89 334.36 408.9 329.24 420.81 336.04"/><g class="cls-3"><g class="cls-77"><g class="cls-3"><path class="cls-78" d="M426.55,334.67v5.12a1.37,1.37,0,0,1-.42.95v-5.12a1.39,1.39,0,0,0,.42-.95"/><path class="cls-79" d="M426.13,335.62v5.12l-.25.22v-5.12l.25-.22"/><path class="cls-80" d="M425.88,335.84V341l-.24.16V336l.24-.16"/><path class="cls-81" d="M425.64,336v5.12l-.07,0-.17.1v-5.13l.18-.09.06,0"/><path class="cls-82" d="M425.4,336.13v5.13l-.25.11,0-5.12.24-.12"/><path class="cls-83" d="M425.16,336.25l0,5.12-.25.1v-5.13l.26-.09"/><path class="cls-84" d="M424.9,336.34v5.13l-.27.08v-5.12l.27-.09"/><path class="cls-85" d="M424.63,336.43v5.12l-.31.07,0-5.12.3-.07"/><path class="cls-86" d="M424.33,336.5l0,5.12a2,2,0,0,1-.34.06v-5.12l.35-.06"/><path class="cls-87" d="M424,336.56v5.12l-.45.05V336.6l.45,0"/><path class="cls-88" d="M423.53,336.6v5.13a5.33,5.33,0,0,1-1,0v-5.12a6.39,6.39,0,0,0,1,0"/><path class="cls-76" d="M422.55,336.58v5.12l-.16,0v-5.12l.16,0"/><path class="cls-88" d="M422.39,336.56v5.12a4.69,4.69,0,0,1-.86-.2l0-5.12a5.85,5.85,0,0,0,.85.2"/><path class="cls-87" d="M421.54,336.36l0,5.12-.37-.14v-5.12l.38.14"/><path class="cls-86" d="M421.16,336.22v5.12l-.29-.14,0-5.12.28.14"/><path class="cls-85" d="M420.88,336.08l0,5.12-.06,0V336l.07,0"/></g></g></g><path class="cls-89" d="M425.56,333.28c1.32.76,1.33,2,0,2.76a5.27,5.27,0,0,1-4.77,0l-11.9-6.8,4.75-2.76Z"/></g><g class="cls-3"><polygon class="cls-76" points="413.23 340.44 413.22 345.57 401.31 338.76 401.33 333.64 413.23 340.44"/><g class="cls-3"><g class="cls-90"><g class="cls-3"><path class="cls-78" d="M419,339.07l0,5.13a1.36,1.36,0,0,1-.42.94V340a1.38,1.38,0,0,0,.43-.95"/><path class="cls-79" d="M418.55,340v5.12a1.79,1.79,0,0,1-.25.22l0-5.12a1.7,1.7,0,0,0,.24-.22"/><path class="cls-80" d="M418.31,340.24l0,5.12a2.49,2.49,0,0,1-.24.17l0-5.13.24-.16"/><path class="cls-81" d="M418.07,340.4l0,5.13-.07,0-.17.09,0-5.12.17-.1.07,0"/><path class="cls-82" d="M417.83,340.54l0,5.12-.24.11v-5.12l.25-.11"/><path class="cls-83" d="M417.58,340.65v5.12l-.26.1,0-5.12.25-.1"/><path class="cls-84" d="M417.33,340.75l0,5.12L417,346v-5.12l.28-.08"/><path class="cls-85" d="M417.05,340.83V346l-.3.08V340.9l.3-.07"/><path class="cls-86" d="M416.75,340.9V346l-.35.06V341a2,2,0,0,0,.35-.06"/><path class="cls-87" d="M416.4,341v5.13l-.45,0V341l.45-.05"/><path class="cls-88" d="M416,341v5.12a5.33,5.33,0,0,1-1,0V341a5.38,5.38,0,0,0,1,0"/><path class="cls-76" d="M415,341v5.12l-.16,0V341l.16,0"/><path class="cls-88" d="M414.81,341v5.12a4.58,4.58,0,0,1-.85-.19v-5.13a4.78,4.78,0,0,0,.85.2"/><path class="cls-87" d="M414,340.76v5.13c-.13-.05-.26-.09-.38-.15v-5.12l.38.14"/><path class="cls-86" d="M413.58,340.62v5.12l-.28-.13v-5.13l.28.14"/><path class="cls-85" d="M413.3,340.48v5.13l-.07,0v-5.13l.07,0"/></g></g></g><path class="cls-89" d="M418,337.68c1.32.77,1.33,2,0,2.76a5.21,5.21,0,0,1-4.77,0l-11.9-6.8,4.75-2.76Z"/></g><g class="cls-3"><polygon class="cls-76" points="405.66 344.85 405.64 349.97 393.74 343.17 393.75 338.04 405.66 344.85"/><g class="cls-3"><g class="cls-91"><g class="cls-3"><path class="cls-78" d="M411.4,343.48v5.12a1.4,1.4,0,0,1-.43.95l0-5.13a1.36,1.36,0,0,0,.42-.94"/><path class="cls-79" d="M411,344.42l0,5.13-.25.22,0-5.13.25-.22"/><path class="cls-80" d="M410.73,344.64l0,5.13-.23.16v-5.12a2.49,2.49,0,0,0,.24-.17"/><path class="cls-81" d="M410.49,344.81v5.12l-.07,0-.18.09,0-5.12.17-.09.07,0"/><path class="cls-82" d="M410.25,344.94l0,5.12-.24.12v-5.13l.25-.11"/><path class="cls-83" d="M410,345.05v5.13l-.25.09v-5.12l.25-.1"/><path class="cls-84" d="M409.75,345.15v5.12l-.28.09,0-5.13.27-.08"/><path class="cls-85" d="M409.48,345.23l0,5.13-.3.07v-5.12l.31-.08"/><path class="cls-86" d="M409.17,345.31v5.12l-.35.06,0-5.12.34-.06"/><path class="cls-87" d="M408.83,345.37l0,5.12-.45,0,0-5.12.45,0"/><path class="cls-88" d="M408.38,345.41l0,5.12a6.44,6.44,0,0,1-1,0l0-5.13a5.33,5.33,0,0,0,1,0"/><path class="cls-76" d="M407.4,345.38l0,5.13-.16,0,0-5.13.16,0"/><path class="cls-88" d="M407.24,345.36l0,5.13a5.85,5.85,0,0,1-.85-.2v-5.12a4.69,4.69,0,0,0,.86.19"/><path class="cls-87" d="M406.38,345.17v5.12l-.38-.14,0-5.13c.12.06.24.1.37.15"/><path class="cls-86" d="M406,345l0,5.13-.28-.14v-5.12l.29.13"/><path class="cls-85" d="M405.72,344.89V350l-.07,0,0-5.12.06,0"/></g></g></g><path class="cls-89" d="M410.41,342.09c1.32.76,1.32,2,0,2.76a5.25,5.25,0,0,1-4.76,0L393.75,338l4.75-2.76Z"/></g><g class="cls-3"><polygon class="cls-76" points="398.08 349.25 398.06 354.37 386.16 347.57 386.18 342.45 398.08 349.25"/><g class="cls-3"><g class="cls-92"><g class="cls-3"><path class="cls-78" d="M403.82,347.88V353a1.34,1.34,0,0,1-.43.95l0-5.12a1.39,1.39,0,0,0,.42-.95"/><path class="cls-79" d="M403.4,348.83l0,5.12a2.61,2.61,0,0,1-.24.22v-5.12l.25-.22"/><path class="cls-80" d="M403.15,349.05v5.12l-.24.16v-5.12a2.5,2.5,0,0,0,.24-.16"/><path class="cls-81" d="M402.91,349.21v5.12l-.07,0-.17.1v-5.13l.17-.09.07,0"/><path class="cls-82" d="M402.67,349.34v5.13l-.25.11,0-5.12.24-.12"/><path class="cls-83" d="M402.43,349.46l0,5.12-.25.1v-5.13l.26-.09"/><path class="cls-84" d="M402.17,349.55v5.13l-.28.08,0-5.12.27-.09"/><path class="cls-85" d="M401.9,349.64l0,5.12-.3.07,0-5.12.3-.07"/><path class="cls-86" d="M401.6,349.71l0,5.12a2,2,0,0,1-.34.06v-5.12l.35-.06"/><path class="cls-87" d="M401.25,349.77v5.12l-.45.05v-5.13l.45,0"/><path class="cls-88" d="M400.8,349.81v5.13a6.38,6.38,0,0,1-1,0v-5.12a6.39,6.39,0,0,0,1,0"/><path class="cls-76" d="M399.82,349.79v5.12l-.16,0v-5.12l.16,0"/><path class="cls-88" d="M399.66,349.77v5.12a4.69,4.69,0,0,1-.86-.2l0-5.12a5.56,5.56,0,0,0,.85.2"/><path class="cls-87" d="M398.81,349.57l0,5.12-.38-.14,0-5.12.38.14"/><path class="cls-86" d="M398.43,349.43l0,5.12-.28-.14,0-5.12.28.14"/><path class="cls-85" d="M398.15,349.29l0,5.12-.06,0v-5.12l.07,0"/></g></g></g><path class="cls-89" d="M402.83,346.49c1.32.76,1.33,2,0,2.76a5.25,5.25,0,0,1-4.76,0l-11.91-6.8,4.75-2.76Z"/></g><g class="cls-3"><g class="cls-93"><g class="cls-3"><path class="cls-79" d="M556.05,376.17l.07,25.21c.31-.51.58-1,.83-1.54l-.07-25.21c-.25.51-.52,1-.83,1.54"/><path class="cls-78" d="M556.88,374.63l.07,25.21a14.77,14.77,0,0,0,1.49-6.43l-.07-25.21a14.91,14.91,0,0,1-1.49,6.43"/></g></g></g><g class="cls-3"><g class="cls-94"><g class="cls-3"><path class="cls-82" d="M574.72,402.94l.07,25.21.07-.07-.08-25.21-.06.07"/><path class="cls-81" d="M574.78,402.87l.08,25.21c.27-.31.53-.61.77-.92L575.56,402c-.25.31-.5.61-.78.92"/><path class="cls-80" d="M575.56,402l.07,25.21c.28-.37.54-.73.78-1.11l-.07-25.21c-.24.38-.5.74-.78,1.11"/><path class="cls-79" d="M576.34,400.84l.07,25.21a13.69,13.69,0,0,0,.83-1.49l-.07-25.21a13.69,13.69,0,0,1-.83,1.49"/><path class="cls-78" d="M577.17,399.35l.07,25.21a11.37,11.37,0,0,0,1.12-4.89l-.07-25.21a11.37,11.37,0,0,1-1.12,4.89"/></g></g></g><path class="cls-95" d="M481.27,348.63l5.68,3.3c.29-.19.61-.37.92-.55,16.2-9.36,42.38-9.36,58.48,0,11.54,6.7,14.76,16.39,9.7,24.79a42.11,42.11,0,0,1,12.31,4.6c10.55,6.13,12.73,15.18,6.36,22.17l1.66,1c13.52,7.86,13.45,20.71-.16,28.56s-35.79,7.86-49.31,0L431.8,377.19c-13.51-7.85-13.44-20.71.16-28.56S467.76,340.78,481.27,348.63Zm24.08,51a9.87,9.87,0,0,0,8.95,0l25.45-14.7c2.48-1.43,2.49-3.75,0-5.18l-26.47-15.39a9.87,9.87,0,0,0-8.95,0l-25.45,14.7c-2.48,1.43-2.5,3.75,0,5.18l26.47,15.39"/><polygon class="cls-96" points="431.75 377.18 431.83 396.76 526.94 452.03 526.87 432.45 431.75 377.18"/><g class="cls-3"><g class="cls-97"><g class="cls-3"><path class="cls-78" d="M421.67,363l.07,19.58a11.69,11.69,0,0,0,.31,2.69L422,365.7a11.84,11.84,0,0,1-.31-2.7"/><path class="cls-79" d="M422,365.7l.07,19.57a12.9,12.9,0,0,0,.55,1.77l-.07-19.58a13.21,13.21,0,0,1-.55-1.76"/><path class="cls-80" d="M422.53,367.46,422.6,387c.17.44.37.87.59,1.31l-.07-19.58c-.22-.44-.42-.87-.59-1.31"/><path class="cls-81" d="M423.12,368.77l.07,19.58q.29.56.63,1.11l-.07-19.58q-.35-.56-.63-1.11"/><path class="cls-82" d="M423.75,369.88l.07,19.58c.21.33.44.66.68,1l-.08-19.58c-.24-.33-.46-.66-.67-1"/><path class="cls-83" d="M424.42,370.87l.08,19.58c.22.3.45.6.7.9l-.07-19.58c-.25-.3-.48-.6-.71-.9"/><path class="cls-84" d="M425.13,371.77l.07,19.58c.23.27.47.55.72.81l-.07-19.57c-.25-.27-.49-.55-.72-.82"/><path class="cls-85" d="M425.85,372.59l.07,19.57c.24.27.5.53.77.78l-.08-19.58c-.26-.25-.52-.51-.76-.77"/><path class="cls-86" d="M426.61,373.36l.08,19.58c.24.24.5.48.77.72l-.07-19.58-.78-.72"/><path class="cls-87" d="M427.39,374.08l.07,19.58c.27.23.54.46.83.69l-.07-19.58c-.29-.23-.56-.46-.83-.69"/><path class="cls-88" d="M428.22,374.77l.07,19.58c.27.22.56.44.85.65l-.07-19.58c-.29-.21-.58-.43-.85-.65"/><path class="cls-76" d="M429.07,375.42l.07,19.58c.29.22.59.43.9.64L430,376.06c-.31-.21-.61-.42-.9-.64"/><path class="cls-98" d="M430,376.06l.07,19.58c.31.21.62.41.95.61l-.08-19.58-.94-.61"/><path class="cls-99" d="M430.91,376.67l.08,19.58.84.51-.07-19.58-.85-.51"/></g></g></g><g class="cls-3"><g class="cls-100"><g class="cls-3"><path class="cls-99" d="M526.87,432.45l.07,19.58.15.09L527,432.54l-.15-.09"/><path class="cls-101" d="M527,432.54l.07,19.58,1.06.58-.07-19.58-1.06-.58"/><path class="cls-102" d="M528.08,433.12l.07,19.58,1.1.56-.07-19.58c-.38-.18-.74-.37-1.1-.56"/><path class="cls-103" d="M529.18,433.68l.07,19.58,1.17.54-.08-19.58c-.39-.17-.78-.36-1.16-.54"/><path class="cls-104" d="M530.34,434.22l.08,19.58,1.22.52-.07-19.58-1.23-.52"/><path class="cls-105" d="M531.57,434.74l.07,19.58,1.31.5-.07-19.58-1.31-.5"/><path class="cls-106" d="M532.88,435.24l.07,19.58c.46.17.92.33,1.39.48l-.07-19.58c-.47-.15-.93-.31-1.39-.48"/><path class="cls-107" d="M534.27,435.72l.07,19.58c.48.16,1,.31,1.45.45l-.08-19.58c-.48-.14-1-.29-1.44-.45"/><path class="cls-108" d="M535.71,436.17l.08,19.58q.74.22,1.5.42l-.07-19.58c-.51-.13-1-.27-1.51-.42"/><path class="cls-109" d="M537.22,436.59l.07,19.58,1.54.37L538.75,437l-1.53-.37"/><path class="cls-110" d="M538.75,437l.08,19.58c.51.12,1,.23,1.55.33l-.07-19.58-1.56-.33"/><path class="cls-111" d="M540.31,437.29l.07,19.58,1.63.29-.08-19.58-1.62-.29"/><path class="cls-112" d="M541.93,437.58l.08,19.58,1.69.25-.08-19.58-1.69-.25"/><path class="cls-113" d="M543.62,437.83l.08,19.58c.67.09,1.35.17,2,.23l-.07-19.58c-.69-.06-1.37-.14-2-.23"/><path class="cls-114" d="M545.67,438.06l.07,19.58a60.15,60.15,0,0,0,8.6.22l-.07-19.58a60.15,60.15,0,0,1-8.6-.22"/><path class="cls-113" d="M554.27,438.28l.07,19.58,1.86-.12-.07-19.57-1.86.11"/><path class="cls-112" d="M556.13,438.17l.07,19.57,1.65-.14L557.77,438l-1.64.15"/><path class="cls-111" d="M557.77,438l.08,19.58,1.51-.18-.07-19.58-1.52.18"/><path class="cls-110" d="M559.29,437.84l.07,19.58,1.45-.21-.07-19.58-1.45.21"/><path class="cls-109" d="M560.74,437.63l.07,19.58,1.43-.25-.07-19.58-1.43.25"/><path class="cls-108" d="M562.17,437.38l.07,19.58,1.43-.28-.07-19.58c-.47.1-1,.2-1.43.28"/><path class="cls-107" d="M563.6,437.1l.07,19.58,1.41-.32L565,436.78l-1.41.32"/><path class="cls-106" d="M565,436.78l.07,19.58c.47-.11.93-.23,1.39-.36l-.07-19.58c-.46.13-.92.25-1.39.36"/><path class="cls-105" d="M566.4,436.42l.07,19.58,1.35-.38L567.75,436l-1.35.38"/><path class="cls-104" d="M567.75,436l.07,19.58,1.31-.42-.07-19.58-1.31.42"/><path class="cls-103" d="M569.06,435.62l.07,19.58,1.25-.44-.07-19.58-1.25.44"/><path class="cls-102" d="M570.31,435.18l.07,19.58c.41-.15.81-.31,1.2-.47l-.07-19.58-1.2.47"/><path class="cls-101" d="M571.51,434.71l.07,19.58c.39-.15.78-.32,1.15-.48l-.07-19.58c-.38.16-.76.33-1.15.48"/><path class="cls-99" d="M572.66,434.23l.07,19.58,1.12-.52-.07-19.57-1.12.51"/><path class="cls-98" d="M573.78,433.72l.07,19.57,1.07-.53-.07-19.58-1.07.54"/><path class="cls-76" d="M574.85,433.18l.07,19.58,1.05-.57-.07-19.58-1,.57"/><path class="cls-88" d="M575.9,432.61l.07,19.58.28-.16.74-.44L576.92,432l-.74.44-.28.16"/><path class="cls-87" d="M576.92,432l.07,19.58c.33-.2.66-.41,1-.62l-.07-19.58c-.31.21-.64.42-1,.62"/><path class="cls-86" d="M577.89,431.39,578,451l1-.67-.08-19.58c-.31.22-.63.45-1,.67"/><path class="cls-85" d="M578.85,430.72l.08,19.58c.31-.23.62-.46.91-.7L579.77,430c-.3.24-.6.47-.92.7"/><path class="cls-84" d="M579.77,430l.07,19.58c.32-.25.63-.51.93-.77l-.07-19.58c-.3.26-.61.52-.93.77"/><path class="cls-83" d="M580.7,429.25l.07,19.58c.3-.27.6-.55.88-.83l-.07-19.57-.88.82"/><path class="cls-82" d="M581.58,428.43l.07,19.57c.31-.3.61-.61.89-.92l-.07-19.58c-.28.31-.58.62-.89.93"/><path class="cls-81" d="M582.47,427.5l.07,19.58c.32-.35.61-.71.89-1.07l-.07-19.58c-.28.36-.57.72-.89,1.07"/><path class="cls-80" d="M583.36,426.43l.07,19.58a14.76,14.76,0,0,0,.9-1.27l-.07-19.58c-.28.43-.57.85-.9,1.27"/><path class="cls-79" d="M584.26,425.16l.07,19.58a15.44,15.44,0,0,0,.93-1.68l-.07-19.58a15.44,15.44,0,0,1-.93,1.68"/><path class="cls-78" d="M585.19,423.48l.07,19.58a12.67,12.67,0,0,0,1.24-5.41l-.07-19.58a12.67,12.67,0,0,1-1.24,5.41"/></g></g></g><g class="cls-72"><g class="cls-115"><g class="cls-116"><line class="cls-117" x1="530.29" y1="354.65" x2="559.34" y2="337.88"/><path class="cls-117" d="M509.84,366.46l12.11-7c-1.14-1.12-2.51-11.08-2.51-11.08L534,340"/><line class="cls-117" x1="442" y1="405.62" x2="473.61" y2="387.37"/><line class="cls-117" x1="524.75" y1="365.01" x2="565.54" y2="341.46"/><polyline class="cls-117" points="486.42 387.13 471.17 395.94 457.72 396.55"/><line class="cls-117" x1="542.04" y1="362.19" x2="565.78" y2="348.48"/><polyline class="cls-117" points="522.24 373.62 534.48 366.55 535.84 358.61"/><line class="cls-117" x1="443.09" y1="419.43" x2="483.35" y2="396.18"/><line class="cls-117" x1="551.41" y1="363.93" x2="577.94" y2="348.62"/><polyline class="cls-117" points="528.44 377.19 540.82 370.05 542.04 362.19"/><line class="cls-117" x1="460.46" y1="416.44" x2="498.82" y2="394.29"/><line class="cls-117" x1="533.71" y1="381.31" x2="584.14" y2="352.2"/><polyline class="cls-117" points="505.02 397.87 490.74 406.12 488.4 415.81 473.86 424.21"/><line class="cls-117" x1="466.8" y1="419.94" x2="481.68" y2="411.35"/><path class="cls-118" d="M547.6,363.9c-1,.59-1,1.58.07,2.19a4.2,4.2,0,0,0,3.81,0c1-.6,1-1.58-.07-2.2A4.23,4.23,0,0,0,547.6,363.9Z"/><path class="cls-118" d="M521,365c-1,.59-1,1.58.06,2.2a4.23,4.23,0,0,0,3.81,0c1-.59,1-1.58-.07-2.19A4.18,4.18,0,0,0,521,365Z"/><path class="cls-118" d="M483.29,394c-1,.59-1,1.58.06,2.19a4.2,4.2,0,0,0,3.81,0c1-.6,1-1.58-.06-2.2A4.23,4.23,0,0,0,483.29,394Z"/><path class="cls-118" d="M481.88,409c-1,.6-1,1.58.07,2.2a4.21,4.21,0,0,0,3.8,0c1-.59,1-1.58-.06-2.19A4.2,4.2,0,0,0,481.88,409Z"/><path class="cls-118" d="M374,336.25c-1,.6-1,1.58.06,2.2a4.2,4.2,0,0,0,3.81,0c1-.6,1-1.58-.06-2.2A4.23,4.23,0,0,0,374,336.25Z"/><polyline class="cls-117" points="496.58 362.19 482.72 354.19 484.02 335.29 462.23 322.71"/><polyline class="cls-117" points="471.06 339.54 457.21 331.54 458.5 312.64 436.72 300.06"/><polyline class="cls-117" points="507.38 357.5 493.52 349.5 494.82 330.6 473.04 318.03"/><polyline class="cls-117" points="631.31 395.93 617.46 387.93 584.72 388.68 562.94 376.1"/><polyline class="cls-117" points="623.2 402.17 609.35 394.17 576.61 394.92 554.82 382.34"/><polyline class="cls-117" points="635.28 416.83 621.42 408.83 588.69 409.58 566.9 397"/><line class="cls-117" x1="398.51" y1="305.57" x2="474.54" y2="349.46"/><line class="cls-117" x1="466.25" y1="351.6" x2="503.86" y2="373.32"/><polyline class="cls-117" points="484.86 369.27 456.66 352.98 454.29 344.7 401.37 314.14"/><line class="cls-117" x1="386.8" y1="312.65" x2="447.94" y2="347.95"/><polyline class="cls-117" points="487.45 377.68 450.39 356.28 448.03 348"/><line class="cls-117" x1="389.38" y1="321.06" x2="442.85" y2="351.93"/><line class="cls-119" x1="416.86" y1="343.85" x2="481.46" y2="381.14"/><polyline class="cls-117" points="461.77 376.02 409.67 345.94 406.58 337.91 383.39 324.52"/><path class="cls-118" d="M484.86,369.27c-1,.59-1,1.58.07,2.2a4.21,4.21,0,0,0,3.8,0c1-.59,1-1.58-.06-2.2A4.23,4.23,0,0,0,484.86,369.27Z"/><path class="cls-118" d="M496.85,362.35c-1,.59-1,1.58.06,2.2a4.23,4.23,0,0,0,3.81,0c1-.59,1-1.58-.06-2.2A4.23,4.23,0,0,0,496.85,362.35Z"/><path class="cls-118" d="M462.38,349.36c-1,.6-1,1.58.06,2.2a4.2,4.2,0,0,0,3.81,0c1-.6,1-1.58-.07-2.2A4.21,4.21,0,0,0,462.38,349.36Z"/><path class="cls-118" d="M462.23,376.29c-1,.6-1,1.58.07,2.2a4.21,4.21,0,0,0,3.8,0c1-.6,1-1.58-.06-2.2A4.2,4.2,0,0,0,462.23,376.29Z"/><path class="cls-118" d="M468.72,380.83c-1,.59-1,1.58.06,2.19a4.2,4.2,0,0,0,3.81,0c1-.6,1-1.58-.07-2.2A4.21,4.21,0,0,0,468.72,380.83Z"/><path class="cls-118" d="M413.16,364.61c-1,.6-1,1.58.06,2.2a4.23,4.23,0,0,0,3.81,0c1-.59,1-1.58-.06-2.19A4.2,4.2,0,0,0,413.16,364.61Z"/><path class="cls-118" d="M428.25,378.92c-1,.6-1,1.58.07,2.2a4.18,4.18,0,0,0,3.8,0c1-.6,1-1.58-.06-2.2A4.23,4.23,0,0,0,428.25,378.92Z"/><path class="cls-118" d="M413,341.61c-1,.6-1,1.58.06,2.2a4.23,4.23,0,0,0,3.81,0c1-.6,1-1.58-.07-2.2A4.18,4.18,0,0,0,413,341.61Z"/><polyline class="cls-117" points="468.78 383.02 463.46 386.1 415.9 358.64 398.79 358.47 356.52 334.07"/><polyline class="cls-120" points="417.03 366.84 439.64 379.9 436.13 387.3 448.75 394.58"/><polyline class="cls-120" points="428.35 378.98 402.18 363.87 392.46 363.15 349.3 338.24"/><polyline class="cls-121" points="377.91 338.49 404.1 353.61 413.59 353.48"/><line class="cls-117" x1="457.76" y1="389.39" x2="447.19" y2="383.28"/><line class="cls-117" x1="402.04" y1="343.7" x2="372.99" y2="326.93"/><path class="cls-118" d="M554.48,382.17a4.23,4.23,0,0,1-3.81,0c-1.07-.62-1.09-1.6-.06-2.2a4.23,4.23,0,0,1,3.81,0C555.49,380.59,555.51,381.57,554.48,382.17Z"/><path class="cls-118" d="M562,375.58a4.23,4.23,0,0,1-3.81,0c-1.07-.62-1.1-1.6-.07-2.2a4.23,4.23,0,0,1,3.81,0C563,374,563.06,375,562,375.58Z"/><path class="cls-118" d="M475.22,342a4.21,4.21,0,0,1-3.8,0c-1.07-.62-1.1-1.6-.07-2.2a4.2,4.2,0,0,1,3.81,0C476.23,340.37,476.26,341.35,475.22,342Z"/><path class="cls-118" d="M566.87,397a4.18,4.18,0,0,1-3.8,0c-1.07-.61-1.1-1.6-.07-2.19a4.23,4.23,0,0,1,3.81,0C567.88,395.44,567.91,396.42,566.87,397Z"/><path class="cls-118" d="M556,454.18a4.21,4.21,0,0,1-3.8,0c-1.07-.62-1.1-1.61-.07-2.2a4.23,4.23,0,0,1,3.81,0C557,452.6,557,453.59,556,454.18Z"/><line class="cls-117" x1="548.16" y1="449.65" x2="495.16" y2="419.05"/><line class="cls-117" x1="593.22" y1="475.67" x2="556.52" y2="454.48"/><line class="cls-117" x1="500.08" y1="414.97" x2="537.69" y2="436.69"/><polyline class="cls-117" points="506.87 411.98 535.08 428.26 537.44 436.55 590.36 467.1"/><line class="cls-117" x1="604.94" y1="468.59" x2="543.79" y2="433.29"/><polyline class="cls-122" points="510.13 406.94 542.42 425.58 543.71 433.24"/><line class="cls-117" x1="602.35" y1="460.18" x2="548.88" y2="429.31"/><line class="cls-119" x1="574.88" y1="437.4" x2="510.28" y2="400.1"/><polyline class="cls-117" points="529.96 405.22 582.07 435.3 585.15 443.33 608.34 456.72"/><path class="cls-118" d="M496.2,412.74a4.2,4.2,0,0,1,3.81,0c1.07.61,1.1,1.6.07,2.19a4.23,4.23,0,0,1-3.81,0C495.2,414.32,495.17,413.33,496.2,412.74Z"/><path class="cls-118" d="M506.29,404.68a4.2,4.2,0,0,1,3.81,0c1.07.61,1.1,1.6.06,2.19a4.21,4.21,0,0,1-3.8,0C505.29,406.26,505.26,405.28,506.29,404.68Z"/><path class="cls-118" d="M529.5,405c1-.6,1-1.58-.06-2.2a4.23,4.23,0,0,0-3.81,0c-1,.59-1,1.58.06,2.19A4.2,4.2,0,0,0,529.5,405Z"/><path class="cls-118" d="M578.57,416.63c1-.59,1-1.58-.06-2.19a4.2,4.2,0,0,0-3.81,0c-1,.6-1,1.58.07,2.2A4.21,4.21,0,0,0,578.57,416.63Z"/><path class="cls-118" d="M531.45,396.86c1-.6,1-1.58-.07-2.2a4.21,4.21,0,0,0-3.8,0c-1,.6-1,1.59.06,2.2A4.2,4.2,0,0,0,531.45,396.86Z"/><path class="cls-118" d="M578.75,439.63c1-.59,1-1.58-.07-2.2a4.21,4.21,0,0,0-3.8,0c-1,.59-1,1.58.06,2.19A4.2,4.2,0,0,0,578.75,439.63Z"/><polyline class="cls-117" points="531.35 396.92 575.84 422.6 592.95 422.77 635.21 447.17"/><polyline class="cls-120" points="574.7 414.4 552.1 401.35 555.6 393.94 542.98 386.66"/><polyline class="cls-120" points="563.38 402.26 589.56 417.37 599.27 418.09 642.43 443.01"/><polyline class="cls-121" points="613.82 442.75 587.63 427.63 578.14 427.76"/><line class="cls-117" x1="589.69" y1="437.54" x2="618.74" y2="454.31"/><polyline class="cls-117" points="475.06 400.86 462.33 401.05 448.17 409.22"/><polyline class="cls-117" points="513.12 358.29 509.64 345.02 531.74 332.26"/></g></g></g><g class="cls-3"><g class="cls-123"><g class="cls-3"><path class="cls-114" d="M508.34,363.36l.07,25.21a11.61,11.61,0,0,1,1.56,0l-.08-25.21a11.42,11.42,0,0,0-1.55,0"/></g></g></g><g class="cls-3"><g class="cls-124"><g class="cls-3"><path class="cls-88" d="M504.36,364.43l.07,25.2.06,0-.07-25.2-.06,0"/><path class="cls-76" d="M504.42,364.4l.07,25.2.19-.1-.07-25.21-.19.11"/><path class="cls-98" d="M504.61,364.29l.07,25.21.2-.1-.08-25.21-.19.1"/><path class="cls-99" d="M504.8,364.19l.08,25.21.2-.09L505,364.1l-.21.09"/><path class="cls-101" d="M505,364.1l.07,25.21.21-.09L505.22,364l-.21.09"/><path class="cls-102" d="M505.22,364l.07,25.21.22-.09-.07-25.2-.22.08"/><path class="cls-103" d="M505.44,363.93l.07,25.2.23-.08-.07-25.2-.23.08"/><path class="cls-104" d="M505.67,363.85l.07,25.2L506,389l-.08-25.21-.23.08"/><path class="cls-105" d="M505.9,363.77,506,389l.24-.07-.07-25.21-.25.07"/><path class="cls-106" d="M506.15,363.7l.07,25.21.25-.07-.07-25.21-.25.07"/><path class="cls-107" d="M506.4,363.63l.07,25.21.26-.06-.07-25.2-.26.05"/><path class="cls-108" d="M506.66,363.58l.07,25.2.26,0-.07-25.21-.26.06"/><path class="cls-109" d="M506.92,363.52l.07,25.21.26,0-.07-25.21-.26,0"/><path class="cls-110" d="M507.18,363.48l.07,25.21.26,0-.07-25.21-.26,0"/><path class="cls-111" d="M507.44,363.44l.07,25.21.27,0-.07-25.21-.27,0"/><path class="cls-112" d="M507.71,363.41l.07,25.21.3,0L508,363.38l-.3,0"/><path class="cls-113" d="M508,363.38l.07,25.21.33,0-.07-25.21-.33,0"/><path class="cls-114" d="M508.34,363.36l.07,25.21a11.61,11.61,0,0,1,1.56,0l-.08-25.21a11.42,11.42,0,0,0-1.55,0"/></g></g></g><g class="cls-3"><g class="cls-125"><g class="cls-3"><path class="cls-114" d="M508.34,363.36l.07,25.21a11.61,11.61,0,0,1,1.56,0l-.08-25.21a11.42,11.42,0,0,0-1.55,0"/><path class="cls-113" d="M509.89,363.4l.08,25.21.36,0-.07-25.21-.37,0"/><path class="cls-112" d="M510.26,363.44l.07,25.21.31.05-.07-25.21-.31-.05"/><path class="cls-111" d="M510.57,363.49l.07,25.21.29.05-.07-25.21-.29-.05"/><path class="cls-110" d="M510.86,363.54l.07,25.21.28.06-.07-25.21-.28-.06"/><path class="cls-109" d="M511.14,363.6l.07,25.21.28.07-.07-25.21-.28-.07"/><path class="cls-108" d="M511.42,363.67l.07,25.21.27.07-.07-25.21-.27-.07"/><path class="cls-107" d="M511.69,363.74l.07,25.21.27.08-.07-25.2-.27-.09"/><path class="cls-106" d="M512,363.83,512,389l.25.09-.07-25.21-.25-.08"/><path class="cls-105" d="M512.21,363.91l.07,25.21.24.09L512.45,364l-.24-.09"/><path class="cls-104" d="M512.45,364l.07,25.21.22.1-.07-25.21-.22-.1"/><path class="cls-103" d="M512.67,364.1l.07,25.21.22.1-.08-25.21-.21-.1"/><path class="cls-102" d="M512.88,364.2l.08,25.21.2.1-.07-25.21-.21-.1"/><path class="cls-101" d="M513.09,364.3l.07,25.21.19.11-.07-25.21-.19-.11"/><path class="cls-99" d="M513.28,364.41l.07,25.21h0l-.07-25.21h0"/></g></g></g><path class="cls-126" d="M504.36,364.43a9.84,9.84,0,0,1,8.95,0l26.47,15.39c2.46,1.43,2.45,3.75,0,5.18l-25.45,14.7a9.87,9.87,0,0,1-8.95,0L478.88,384.3c-2.47-1.43-2.45-3.75,0-5.18Zm5.33,32.9,26-15L509,366.78l-26,15,26.73,15.53"/><path class="cls-127" d="M507.21,377.21a10.91,10.91,0,0,1,9.89,0c2.73,1.58,2.71,4.15,0,5.73a10.94,10.94,0,0,1-7.3.95l-6.72,3.88-4.51-2.62,6.87-4C504.74,379.82,505.34,378.29,507.21,377.21Z"/><path class="cls-128" d="M535.69,382.32l-26,15L483,381.8l26-15Zm-32.64,5.45,6.72-3.88a10.94,10.94,0,0,0,7.3-.95c2.74-1.58,2.76-4.15,0-5.73a10.91,10.91,0,0,0-9.89,0c-1.87,1.08-2.47,2.61-1.8,4l-6.87,4,4.51,2.62"/><path class="cls-129" d="M493,423a6,6,0,0,0,2.7,4.68c1.5.87,2.71.17,2.71-1.56a6,6,0,0,0-2.71-4.68C494.23,420.61,493,421.31,493,423Z"/><path class="cls-130" d="M495.27,419.94c-2.29-1-3.94.27-3.69,2.84a8.68,8.68,0,0,0,4.6,6.46c2.29,1,3.94-.27,3.69-2.84A8.7,8.7,0,0,0,495.27,419.94Z"/><path class="cls-129" d="M481.21,416.21a6,6,0,0,0,2.71,4.69c1.49.86,2.7.16,2.7-1.56a6,6,0,0,0-2.7-4.69C482.42,413.79,481.21,414.49,481.21,416.21Z"/><path class="cls-131" d="M483.46,413.12c-2.29-1-3.94.27-3.69,2.84a8.68,8.68,0,0,0,4.61,6.47c2.29,1,3.94-.27,3.68-2.84A8.65,8.65,0,0,0,483.46,413.12Z"/><path class="cls-129" d="M468.3,408.76a6,6,0,0,0,2.71,4.68c1.49.87,2.7.17,2.7-1.56a6,6,0,0,0-2.7-4.68C469.51,406.34,468.3,407,468.3,408.76Z"/><path class="cls-132" d="M470.55,405.67c-2.29-1-3.94.27-3.69,2.84a8.67,8.67,0,0,0,4.61,6.46c2.29,1,3.94-.27,3.68-2.84A8.65,8.65,0,0,0,470.55,405.67Z"/><path class="cls-129" d="M456.23,401.79a6,6,0,0,0,2.71,4.68c1.49.87,2.7.17,2.7-1.56a6,6,0,0,0-2.7-4.68C457.44,399.37,456.23,400.07,456.23,401.79Z"/><path class="cls-133" d="M458.48,398.7c-2.29-1-3.94.27-3.69,2.84A8.67,8.67,0,0,0,459.4,408c2.28,1,3.93-.27,3.68-2.84A8.65,8.65,0,0,0,458.48,398.7Z"/><path class="cls-134" d="M508.72,430.21c-.65-1-1.54-1.4-2-1s-.31,1.52.33,2.48,1.54,1.39,2,1S509.36,431.16,508.72,430.21Z"/><path class="cls-135" d="M510.5,428.61c-2-3-4.82-4.35-6.27-3.06s-1,4.77,1,7.75,4.82,4.36,6.26,3.06S512.51,431.6,510.5,428.61Z"/><path class="cls-129" d="M443.66,393.88a6,6,0,0,0,2.7,4.68c1.49.86,2.71.16,2.71-1.56a6,6,0,0,0-2.71-4.68C444.87,391.46,443.66,392.15,443.66,393.88Z"/><path class="cls-134" d="M447.2,394.69c-.64-.95-1.54-1.39-2-1s-.32,1.53.32,2.48,1.54,1.39,2,1S447.84,395.64,447.2,394.69Z"/><path class="cls-136" d="M449,393.09c-2-3-4.82-4.35-6.26-3s-1,4.76,1,7.75,4.82,4.35,6.27,3S451,396.08,449,393.09Z"/><path class="cls-137" d="M318.72,382.62c3.35-1.47,5.76.39,5.39,4.15a12.67,12.67,0,0,1-6.73,9.46c-3.35,1.46-5.76-.4-5.39-4.15A12.67,12.67,0,0,1,318.72,382.62Z"/><path class="cls-138" d="M330.92,375.55c3.35-1.47,5.76.39,5.39,4.15a12.64,12.64,0,0,1-6.74,9.45c-3.34,1.47-5.75-.39-5.38-4.15A12.65,12.65,0,0,1,330.92,375.55Z"/><path class="cls-139" d="M343.11,368.17c3.35-1.46,5.76.4,5.39,4.15a12.67,12.67,0,0,1-6.73,9.46c-3.35,1.46-5.76-.4-5.39-4.15A12.69,12.69,0,0,1,343.11,368.17Z"/><path class="cls-140" d="M353.18,363c3.35-1.46,5.76.39,5.39,4.15a12.69,12.69,0,0,1-6.73,9.46c-3.35,1.46-5.76-.4-5.39-4.15A12.67,12.67,0,0,1,353.18,363Z"/><path class="cls-134" d="M304.23,395.26c1.23-1.82,2.94-2.65,3.83-1.86s.6,2.91-.63,4.73-2.94,2.66-3.82,1.86S303,397.09,304.23,395.26Z"/><path class="cls-141" d="M300.83,392.22c3.84-5.7,9.2-8.32,12-5.84s1.89,9.1-2,14.8-9.2,8.31-12,5.83S297,397.92,300.83,392.22Z"/><path class="cls-134" d="M362.88,361.06c1.23-1.82,2.94-2.66,3.82-1.87s.6,2.91-.62,4.73-2.95,2.66-3.83,1.87S361.65,362.88,362.88,361.06Z"/><path class="cls-142" d="M359.47,358c3.85-5.7,9.2-8.31,12-5.84s1.88,9.1-2,14.8-9.2,8.31-12,5.84S355.63,363.71,359.47,358Z"/><ellipse class="cls-143" cx="1045" cy="439.78" rx="385.5" ry="44.5"/><path class="cls-144" d="M767.18,232s-10.73-12.53-.66-20.48c0,0,7.36-4.46,13.36-4.09,0,0-8.5,14.25-5.75,15.67s8.32-16.57,8.32-16.57,16.74-1.62,22.13,1c0,0-14.31,11.71-11.3,12.41s18.48-10.8,18.48-10.8,15.58,2.65,14.75,12.16-6.2,12.44-8.56,12.18-16.17-5.52-16.47-3.58,8,8.25,13.83,8.54c0,0-11,12.12-18.29,8.62s-7.92-9-12.47-11.12-8.44-2.07-6.56.05,10.12,4.18,12.72,8.79,4.94,7.71-2.62,6.57-19.83-6.67-20.37-13Z"/><path class="cls-144" d="M818.85,221.49s-42.32-1.63-51.67,10.48a30.59,30.59,0,0,1-8.43,11.82l-1,2.71s7.34-7.74,10-8.2C767.72,238.3,763.62,223.3,818.85,221.49Z"/><path class="cls-144" d="M758.75,243.79s-9.08,6.72-9.71,18.73l1.65.14s2.9-12.41,8.14-17.26S758.75,243.79,758.75,243.79Z"/><path class="cls-144" d="M729.65,216.22s17.08-9.57,9.11-22.54c0,0-6.38-8-13.21-10,0,0,3.65,19.35,0,19.81s-2.5-21.86-2.5-21.86-18-8.65-25-8c0,0,11.15,18.9,7.51,18.44s-16.17-19.58-16.17-19.58S670.91,169.09,668,180s1.82,16.39,4.56,17.07,20.26.46,19.8,2.73-12.29,5.92-18.89,3.88c0,0,7.28,18,16.85,17.07s12.52-6.83,18.44-7.29,10.24,1.14,7.28,2.74-13,.52-17.76,4.58-8.65,6.57.23,8.39,24.82.69,28-6.14Z"/><path class="cls-144" d="M676.38,183.43s47.81,15.48,53.27,32.79a36.25,36.25,0,0,0,4.56,16.62v3.41s-5-11.61-7.75-13.2C726.46,223.05,737.16,208,676.38,183.43Z"/><path class="cls-144" d="M734.21,232.84s7.37,11.19,3.16,24.82l-1.89-.51s1.84-15-2-22.56S734.21,232.84,734.21,232.84Z"/><path class="cls-145" d="M756.82,203s-22.51-12.61-12-29.71c0,0,8.41-10.51,17.41-13.21,0,0-4.8,25.51,0,26.11s3.3-28.81,3.3-28.81,23.71-11.4,33-10.5c0,0-14.7,24.91-9.9,24.31s21.31-25.81,21.31-25.81,24.31-4.5,28.21,9.9-2.4,21.61-6,22.51-26.71.6-26.1,3.6,16.2,7.8,24.9,5.1c0,0-9.6,23.71-22.2,22.51s-16.51-9-24.31-9.6-13.51,1.5-9.61,3.6,17.11.69,23.41,6.05,11.41,8.65-.3,11.06S765.22,221,761,212Z"/><path class="cls-145" d="M827,159.81S764,180.22,756.82,203c0,0,.3,10.2-6,21.91v4.5S757.42,214.13,761,212C761,212,746.91,192.23,827,159.81Z"/><path class="cls-145" d="M750.81,224.94s-9.71,14.76-4.17,32.72l2.5-.67s-2.43-19.79,2.65-29.74S750.81,224.94,750.81,224.94Z"/><path class="cls-145" d="M756.06,296.62a44.09,44.09,0,0,0,44.09-44.09H712A44.09,44.09,0,0,0,756.06,296.62Z"/><path class="cls-145" d="M716.31,293.43H795.8a5,5,0,0,1,5,5v.49a0,0,0,0,1,0,0h-89.4a0,0,0,0,1,0,0v-.49a5,5,0,0,1,5-5Z"/><rect class="cls-146" x="710.52" y="252.53" width="90.63" height="1.35"/><path class="cls-147" d="M983.56,442.06h.22a3,3,0,0,0,3-3.16l-11.88-118.7-10.37.93,17.06,119.33A2,2,0,0,0,983.56,442.06Z"/><path class="cls-147" d="M869.13,442.06h-.22a3,3,0,0,1-3-3.16l11.88-118.7,10.37.93L871.11,440.45A1.94,1.94,0,0,1,869.13,442.06Z"/><path class="cls-147" d="M1067.41,442.06h.22a3,3,0,0,0,3-3.16l-11.89-118.7-10.37.93,17.07,119.33A1.94,1.94,0,0,0,1067.41,442.06Z"/><path class="cls-147" d="M872.67,302.93l-21.1-104.18c-2.71-14.1,9-27,24.16-26.66l40.68.93a32.14,32.14,0,0,1,30.14,23.2l30.87,106.71Z"/><path class="cls-147" d="M885.43,302.93l-21.1-104.18c-2.71-14.1,9-27,24.16-26.66l40.68.93a32.14,32.14,0,0,1,30.14,23.2l30.87,106.71Z"/><path class="cls-147" d="M881.32,302.93h155.42a8.65,8.65,0,0,1,8.65,8.65v10.35a0,0,0,0,1,0,0H881.32a8.65,8.65,0,0,1-8.65-8.65v-1.69A8.65,8.65,0,0,1,881.32,302.93Z" transform="translate(1918.06 624.86) rotate(180)"/><rect class="cls-147" x="949.35" y="302.93" width="112.09" height="19" rx="8.65" transform="translate(2010.78 624.86) rotate(180)"/><path class="cls-148" d="M824.64,301.57v3.56c0,1.24-.41,2.26-.9,2.26H694c-.49,0-.89-1-.89-2.26v-3.56c0-1.24.4-2.26.89-2.26h129.7C824.23,299.31,824.64,300.33,824.64,301.57Z"/><path class="cls-149" d="M824.64,301.57v3.56c0,1.24-.37,2.26-.82,2.26h-103c-.45,0-.82-1-.82-2.26v-3.56c0-1.24.37-2.26.82-2.26h103C824.27,299.31,824.64,300.33,824.64,301.57Z"/><rect class="cls-144" x="699.73" y="307.39" width="92.08" height="134.21"/><rect class="cls-150" x="725.53" y="307.39" width="92.08" height="134.21"/><path class="cls-151" d="M812.67,434.19H730.48v-123h82.19Zm-81.3-.89h80.41V312.07H731.37Z"/><rect class="cls-151" x="730.93" y="351.87" width="81.3" height="0.89"/><rect class="cls-151" x="730.93" y="393.36" width="81.3" height="0.89"/><path class="cls-151" d="M779.91,319.11H764.82a1.34,1.34,0,0,1-1.33-1.33h0a1.34,1.34,0,0,1,1.33-1.33h15.09a1.34,1.34,0,0,1,1.33,1.33h0A1.34,1.34,0,0,1,779.91,319.11Z"/><path class="cls-151" d="M779.91,359.68H764.82a1.34,1.34,0,0,1-1.33-1.33h0a1.34,1.34,0,0,1,1.33-1.33h15.09a1.34,1.34,0,0,1,1.33,1.33h0A1.34,1.34,0,0,1,779.91,359.68Z"/><path class="cls-151" d="M779.91,402H764.82a1.34,1.34,0,0,1-1.33-1.33h0a1.34,1.34,0,0,1,1.33-1.33h15.09a1.34,1.34,0,0,1,1.33,1.33h0A1.34,1.34,0,0,1,779.91,402Z"/><rect class="cls-152" x="1122.88" width="68.11" height="66.08" rx="15.39"/><rect class="cls-153" x="1125.83" y="2.86" width="62.21" height="60.35" rx="14.06"/><circle class="cls-151" cx="1156.93" cy="8.89" r="1.41"/><path class="cls-151" d="M1166.91,10.89a1.41,1.41,0,1,1,2.46,1.37,1.41,1.41,0,1,1-2.46-1.37Z"/><path class="cls-151" d="M1176.66,18.64a1.4,1.4,0,0,1,1.95.42,1.41,1.41,0,1,1-1.95-.42Z"/><path class="cls-151" d="M1181.49,30.63a1.41,1.41,0,1,1-1.41,1.41A1.41,1.41,0,0,1,1181.49,30.63Z"/><path class="cls-151" d="M1179,44.55a1.41,1.41,0,1,1-2,0A1.41,1.41,0,0,1,1179,44.55Z"/><path class="cls-151" d="M1170.16,53.43a1.41,1.41,0,0,1-2,2,1.41,1.41,0,1,1,2-2Z"/><path class="cls-151" d="M1155.52,58a1.41,1.41,0,1,1,1.41,1.41A1.41,1.41,0,0,1,1155.52,58Z"/><path class="cls-151" d="M1146.91,10.89a1.41,1.41,0,1,0-2.46,1.37,1.41,1.41,0,1,0,2.46-1.37Z"/><path class="cls-151" d="M1137.16,18.64a1.4,1.4,0,0,0-2,.42,1.41,1.41,0,1,0,2-.42Z"/><path class="cls-151" d="M1132.33,30.63a1.41,1.41,0,1,0,1.41,1.41A1.41,1.41,0,0,0,1132.33,30.63Z"/><path class="cls-151" d="M1134.8,44.55a1.41,1.41,0,1,0,2,0A1.41,1.41,0,0,0,1134.8,44.55Z"/><path class="cls-151" d="M1143.66,53.43a1.41,1.41,0,0,0,0,2,1.39,1.39,0,0,0,2,0,1.41,1.41,0,1,0-2-2Z"/><path class="cls-151" d="M1156.55,32a1.41,1.41,0,1,1,1.41,1.41A1.41,1.41,0,0,1,1156.55,32Z"/><rect class="cls-151" x="1157.77" y="14.41" width="0.39" height="17.63"/><rect class="cls-151" x="1156.52" y="27.77" width="11.88" height="1.16" transform="translate(230.57 723.83) rotate(-38.13)"/><path class="cls-154" d="M1012.89,281.13c-8.7,15.15-19.66,21-19.66,21H947.67S1019.54,269.57,1012.89,281.13Z"/><path class="cls-155" d="M1069.09,431.7c-.49,4.78,6.16,6,13.87,6.49s5.37,2,15.92,4.05,14.82-.82,15.6-2.24c.7-1.26-4.2-3.3-9.41-5.6-.66-.28-1.31-.58-2-.87-5.87-2.66-9.12-8-13.67-12.94-4.3-4.69-8.28-19.6-8.28-19.6l-14.33-3.22s3.89,13.42,5.23,19.15c.78,3.37-.47,7.11-1.58,10A19.14,19.14,0,0,0,1069.09,431.7Z"/><path class="cls-156" d="M1083,438.19c7.72.46,5.37,2,15.92,4.05s14.82-.82,15.6-2.24c.7-1.26-4.2-3.3-9.41-5.6l-.08.09a30.07,30.07,0,0,1-16,0c-7-2-13.7-6.22-18.5-7.63a19.14,19.14,0,0,0-1.38,4.82C1068.6,436.48,1075.25,437.72,1083,438.19Z"/><path class="cls-154" d="M1047.37,265.6c-7.71-5.41-58.74-15.07-84.79-17.87l-28.78-25S909.3,259,909.11,286.8C909,299.74,915,301,915,301s92.27.69,96.32,1.1c6.62.69,15.35,17.18,17.53,32.2s40.66,76.12,40.66,76.12,8,2.57,11.74,2.36c4-.24,5.84-1.57,5.84-1.57S1064.77,277.82,1047.37,265.6Z"/><path class="cls-155" d="M1045.23,431.7c-.5,4.78,6.15,6,13.87,6.49s5.36,2,15.91,4.05,14.83-.82,15.61-2.24c.69-1.26-4.2-3.3-9.42-5.6-.66-.28-1.31-.58-2-.87-5.87-2.66-9.12-8-13.66-12.94-4.31-4.69-8.29-19.6-8.29-19.6L1043,397.77s3.89,13.42,5.23,19.15c.79,3.37-.47,7.11-1.58,10A18.72,18.72,0,0,0,1045.23,431.7Z"/><path class="cls-154" d="M1059.1,438.19c7.71.46,5.36,2,15.91,4.05s14.83-.82,15.61-2.24c.69-1.26-4.2-3.3-9.42-5.6l-.08.09a30.05,30.05,0,0,1-16,0c-7-2-13.69-6.22-18.5-7.63a18.72,18.72,0,0,0-1.37,4.82C1044.73,436.48,1051.38,437.72,1059.1,438.19Z"/><path class="cls-157" d="M1023.29,265.6c-6.7-4.7-26.86-8.35-49.11-11.06a15,15,0,0,1-12.7-11.23h0l-51.76-20.56S885.22,259,885,286.8c-.09,12.94,5.87,14.23,5.87,14.23s92.27.69,96.32,1.1c6.62.69,15.35,17.18,17.54,32.2s40.66,76.12,40.66,76.12,8,2.57,11.73,2.36c4-.24,5.84-1.57,5.84-1.57S1040.69,277.82,1023.29,265.6Z"/><path class="cls-154" d="M954,72c-7.11-3.73-17.93-4.24-19.69-4.47-21-2.83-33.7,27.74-34.45,37-1.37,17.08-10.4,19.68-23.12,30.37-25.49,21.44-18,46.36-4.07,55.62,8.36,5.55,23.1,0,23.1,0,.21.15,40.32-22.42,60.09-33.3C985.54,153,972.16,81.49,954,72Z"/><path class="cls-155" d="M949.65,146.66c.09.05-9.35,4.34-16.16,2.09-6.41-2.11-12.06-11.76-12-11.78,2.78-.4,5.61-3.15,6.4-19.41l1.23.31,20.72,5.23s-.82,6.57-1.16,12.77C948.43,141.08,948.49,146,949.65,146.66Z"/><path class="cls-158" d="M949.87,123.1s0,1.36-.77,7.46c-11.72-3-16.89-6.84-20.53-11.29Z"/><path class="cls-155" d="M954.29,123.93s-27.4,4.46-29.91-12.64S916.63,83.24,934,79.67s21.75,2.45,24,8S961.35,122.33,954.29,123.93Z"/><path class="cls-154" d="M954.32,79s-12.44,19.64-23.55,24.29-16.56,2.29-16.56,2.29a46.83,46.83,0,0,0,6.37-18,8.38,8.38,0,0,1,5.2-6.76C933.75,77.62,949.16,72.59,954.32,79Z"/><path class="cls-154" d="M943.39,80.85s7.29,3.74,10.29,7.24,6.25,12.56,6,16.68c0,0,3.6-19.75-3.89-26.53C947.85,71,943.39,80.85,943.39,80.85Z"/><path class="cls-74" d="M971.57,188.45c-.83,55.69-.23,44.05-6.32,49.33-1.47,1.27-5.6,2-11,2.39-17.07,1.14-47.09-1.68-48.23-4.83-3.94-10.92-1.16-14.32-4.45-31-.34-1.78-.76-3.7-1.26-5.8-2.74-11.48-5.41-15.39,4.31-33.83,8.82-16.71,19.19-30.29,20-29.8,23.26,13.81,24,2.24,24,2.24S972,161.28,971.57,188.45Z"/><path class="cls-74" d="M948.65,137.12s23.81,4,26.62,14.33,19.34,70.88,19.34,70.88-12.16,2.19-17.78-3.43-19.56-52.15-19.56-52.15Z"/><path class="cls-159" d="M954.22,240.17c-17.07,1.14-47.09-1.68-48.23-4.83-3.94-10.92-1.16-14.32-4.45-31l8.24-23.19s-1.36,25.82,6.26,32.61,31.18,13.12,34.88,18.79A20.73,20.73,0,0,1,954.22,240.17Z"/><path class="cls-155" d="M934.66,229.31s16.85-3.75,19.56-2.26,9.37,6.94,10.2,8.84-6-1.44-8.29-2c-1.45-.39-5.27.94-7.16,1.57-8,2.65-12.82,1.28-12.82,1.28Z"/><path class="cls-74" d="M924.6,134.88s-23.84,1.4-31.67,12.32c-11,15.37-32.89,80.89-20.36,89.63,14.11,9.84,64.23,2.58,64.23,2.58s1.67-7.8-.65-11.57-40-9.86-41.77-11.6,21.75-33.94,21.75-39.16S924.6,134.88,924.6,134.88Z"/><path class="cls-155" d="M955,231.74s3.53,4.56,4.69,5.1a3.49,3.49,0,0,0,1.9.41L959.25,233Z"/><path class="cls-155" d="M954.22,227.05l10.27,5a1.83,1.83,0,0,1-1.7.65,23.74,23.74,0,0,1-4.45-1.22Z"/><path class="cls-160" d="M992,238.87H944.37a3.8,3.8,0,0,1,3.79-3.8H992Z"/><polygon class="cls-160" points="991.89 186.96 1065.58 186.96 1047.91 238.87 973.74 238.87 991.89 186.96"/><polygon class="cls-161" points="1066.67 186.96 1048.99 238.87 974.82 238.87 992.98 186.96 1066.67 186.96"/><path class="cls-74" d="M1026.94,212.43a4.79,4.79,0,0,1-4.42,3.59,2.76,2.76,0,0,1-2.76-3.59,4.78,4.78,0,0,1,4.42-3.59A2.76,2.76,0,0,1,1026.94,212.43Z"/><rect class="cls-162" x="925.43" y="238.87" width="327.86" height="11.68" rx="5.32"/><path class="cls-162" d="M1258.74,442.92h.13a3,3,0,0,0,2.62-3.3l-28.78-194.8-10.53.3L1256,441A2.41,2.41,0,0,0,1258.74,442.92Z"/><path class="cls-162" d="M917.08,442.92h-.14a3,3,0,0,1-2.62-3.3l28.78-194.8,10.53.3L919.77,441A2.4,2.4,0,0,1,917.08,442.92Z"/><path class="cls-162" d="M983.7,442.92h-.14a3,3,0,0,1-2.62-3.3l28.78-194.8,10.54.3L986.4,441A2.42,2.42,0,0,1,983.7,442.92Z"/><path class="cls-154" d="M1153.48,442.77h57.1c2.75-3.36,1.74-15.72,1.32-19.76-.08-.82-.14-1.29-.14-1.29s-19.5-15.6-22.18-3.65c-.08.37-.18.74-.29,1.1-3.38,11.17-18.51,16.25-27.25,17.66C1156.35,437.75,1154.25,440.71,1153.48,442.77Z"/><path class="cls-154" d="M1309.3,257.21c-2.06,0-97.82,18-113.66,37.58-7.91,9.8-9.09,122.92-9.09,122.92s9.79,12.14,30.93,5.09c0,0,15.5-77.4,14.36-100.87-.32-6.49,65.42-.94,77.46-4.05s41.43-29.29,35-42.05S1309.3,257.21,1309.3,257.21Z"/><path class="cls-155" d="M1196.05,229.51s-19.32.26-23.88,2.22-13.84,6.45-11.36,7.14,14.31-.29,16.87.11,5.71-.11,7.28-.11h8.87Z"/><path class="cls-155" d="M1173.47,183.15s-6.59-4.7-13-5.61a57.55,57.55,0,0,1-9.34-1.93c-5.9-2.08-17.71-12.7-16.81-13.94,2.86-4,16.64,4.45,19.05,3.55s-4.63-5.91-2.18-7.67c1.28-.92,4.26,3.69,6.71,4.15,3.3.62,5.88,5.29,6.88,5.53,1.93.48,10.41,6.78,10.41,6.78Z"/><path class="cls-160" d="M1299.76,128.2s-14.7,4.56-29.19,44.45-20,42-25.25,43.61S1193.83,227,1193.83,227v11.84h71.22s26.7-25.41,34.71-42.51S1299.76,128.2,1299.76,128.2Z"/><path class="cls-163" d="M1128.24,442.77h57.1c2.75-3.36,1.74-15.72,1.32-19.76-.08-.82-.14-1.29-.14-1.29s-19.5-15.6-22.18-3.65c-.08.37-.18.74-.29,1.1-3.37,11.17-18.51,16.25-27.25,17.66C1131.12,437.75,1129,440.71,1128.24,442.77Z"/><path class="cls-157" d="M1281.08,257.21c-2.06,0-97.82,18-113.66,37.58-7.91,9.8-9.09,122.92-9.09,122.92s9.79,12.14,30.93,5.09c0,0,15.5-77.4,14.36-100.87-.32-6.49,65.43-.94,77.46-4.05s41.43-29.29,35-42.05S1281.08,257.21,1281.08,257.21Z"/><path class="cls-155" d="M1287.07,140.84a92.89,92.89,0,0,0,20.36-4.43c7.8-2.53,14.09-6.23,10-13.36-3.74-6.58-9.79-21.26-9.38-33.42l-14.52,11.7-9.86,7.94a117.81,117.81,0,0,0,1.12,12.9c.2,1.5.43,3.11.7,4.84a3.5,3.5,0,0,1-1.62,3.53l-.23.14A5.51,5.51,0,0,0,1287.07,140.84Z"/><path class="cls-158" d="M1283.71,107.34s-.51,1.7.36,8c8.79-1.43,17-8.44,17-8.44-4.48-1.23-6.11-6.07-9.44-5.62Z"/><path class="cls-155" d="M1275.58,108.77s33.82,5.62,37-15.5,9.67-34.61-11.79-39.09-26.88,2.94-29.65,9.73S1266.86,106.77,1275.58,108.77Z"/><path class="cls-157" d="M1266.17,54.57c-1.46,5.08,2.43,11.28,9,13.32,9.68,3,7.54,14.91,11.9,14.74s6.12-6.82,10-1.5c3.32,4.55-2.76,9.93-2.35,12.43.72,4.27,7.42,13,13.46,12.59s17.34-29.14,15.08-38-11.3-18.24-19.85-19.53-20.44,2.4-23.19,2.4S1267,51.82,1266.17,54.57Z"/><path class="cls-161" d="M1344.7,157.51c-4.89-19.68-18.4-40.33-27.53-40.31-15.57,0-38,4.14-47,26.43-6.65,16.42-15.53,110.86-5.5,117.57,22.94,15.36,76.1,46.7,85.54,14.74C1358.87,246.65,1353.19,191.66,1344.7,157.51Z"/><path class="cls-161" d="M1306.89,137.93a18.43,18.43,0,0,0-28.53-8,173.68,173.68,0,0,0-19.57,18.29c-29.06,30.94-35,30.74-40.42,30.11S1166.81,168,1166.81,168a13.92,13.92,0,0,0-3.75,4.56c-1.85,3.76-.92,6.32-.92,6.32-1.81-1.17,16.34,11.34,25.38,16.33,11.92,6.59,29.9,12.76,37.06,15.11a9.63,9.63,0,0,0,6.23-.09c10.62-3.84,46.31-17.79,75.36-42C1313.82,161.79,1311,148.64,1306.89,137.93Z"/><path class="cls-74" d="M1318.73,117.39l-3.52-7.94S1283.66,112,1278.36,130C1278.36,130,1302.81,117.78,1318.73,117.39Z"/><path class="cls-147" d="M1395.33,442.06h.22a3,3,0,0,0,3-3.16l-11.88-118.7-10.38.93,17.07,119.33A1.94,1.94,0,0,0,1395.33,442.06Z"/><path class="cls-147" d="M1334.16,442.06h.22a3,3,0,0,0,3-3.16l-11.89-118.7-10.37.93,17.07,119.33A1.94,1.94,0,0,0,1334.16,442.06Z"/><path class="cls-164" d="M1219.32,442.06h-.22a3,3,0,0,1-3-3.16L1228,320.19l10.37.93L1221.3,440.45A1.94,1.94,0,0,1,1219.32,442.06Z"/><path class="cls-147" d="M1392,303.38l11.28-99.13c1.48-14.29-3.3-28.28-23.91-29.36l-36.27-2.21c-21.5-.89-31.2,17-33.92,30.78l-21.53,109Z"/><path class="cls-164" d="M1227.72,302.93h164.07a0,0,0,0,1,0,0v10.35a8.65,8.65,0,0,1-8.65,8.65H1227.72a8.65,8.65,0,0,1-8.65-8.65v-1.69A8.65,8.65,0,0,1,1227.72,302.93Z"/><path class="cls-147" d="M1296.27,302.93h95.52a0,0,0,0,1,0,0v10.35a8.65,8.65,0,0,1-8.65,8.65h-86.87a8.65,8.65,0,0,1-8.65-8.65v-1.69a8.65,8.65,0,0,1,8.65-8.65Z"/></g></g></g></svg>