<svg xmlns="http://www.w3.org/2000/svg" xmlns:xlink="http://www.w3.org/1999/xlink" viewBox="0 0 551.1 344"><defs><style>.cls-1{isolation:isolate;}.cls-2{fill:#a0b0c8;}.cls-3,.cls-5{fill:#363664;}.cls-4{fill:url(#Degradado_sin_nombre_7);}.cls-17,.cls-5{opacity:0.4;}.cls-6{fill:url(#Degradado_sin_nombre_4);}.cls-7{fill:url(#Degradado_sin_nombre_95);}.cls-10,.cls-13,.cls-14,.cls-17,.cls-21,.cls-22,.cls-24,.cls-8,.cls-9{mix-blend-mode:multiply;}.cls-8{fill:url(#Degradado_sin_nombre_64);}.cls-14,.cls-9{opacity:0.41;}.cls-9{fill:url(#Degradado_sin_nombre_64-2);}.cls-11{fill:url(#Degradado_sin_nombre_64-3);}.cls-12{fill:url(#Degradado_sin_nombre_95-2);}.cls-13{fill:url(#Degradado_sin_nombre_64-4);}.cls-14{fill:url(#Degradado_sin_nombre_64-5);}.cls-15{fill:url(#Degradado_sin_nombre_64-6);}.cls-16{fill:url(#Degradado_sin_nombre_4-2);}.cls-18,.cls-21,.cls-22{fill:none;}.cls-18{stroke-linecap:round;stroke-linejoin:round;stroke-dasharray:2 2;stroke:url(#Degradado_sin_nombre_4-3);}.cls-19{fill:url(#Nueva_muestra_de_degradado_3);}.cls-20{fill:url(#Nueva_muestra_de_degradado_3-2);}.cls-21,.cls-22{stroke-miterlimit:10;}.cls-21{stroke:url(#Degradado_sin_nombre_64-7);}.cls-22{stroke:url(#Degradado_sin_nombre_64-8);}.cls-23{fill:url(#Nueva_muestra_de_degradado_3-3);}.cls-24{opacity:0.76;}.cls-25{fill:#ffcd53;}.cls-26,.cls-29{fill:#d27100;}.cls-26{opacity:0.49;}.cls-27,.cls-28{fill:#ffe6b1;}.cls-27{opacity:0.5;}.cls-28{opacity:0.2;}.cls-29{opacity:0.72;}.cls-30{fill:#ffcc48;}.cls-31{fill:url(#Nueva_muestra_de_degradado_3-4);}.cls-32{fill:url(#Nueva_muestra_de_degradado_3-5);}.cls-33{fill:url(#Nueva_muestra_de_degradado_3-6);}.cls-34{fill:url(#Nueva_muestra_de_degradado_3-7);}.cls-35{fill:url(#Nueva_muestra_de_degradado_3-8);}.cls-36{fill:url(#Nueva_muestra_de_degradado_1);}.cls-37{fill:url(#Degradado_sin_nombre_110);}.cls-38{fill:url(#Nueva_muestra_de_degradado_1-2);}.cls-39{fill:url(#Nueva_muestra_de_degradado_1-3);}.cls-40{fill:url(#Nueva_muestra_de_degradado_1-4);}.cls-41{fill:url(#Nueva_muestra_de_degradado_1-5);}.cls-42{fill:url(#Nueva_muestra_de_degradado_1-6);}.cls-43{fill:url(#Nueva_muestra_de_degradado_1-7);}.cls-44{fill:url(#Nueva_muestra_de_degradado_1-8);}.cls-45{fill:url(#Nueva_muestra_de_degradado_1-9);}.cls-46{fill:url(#Nueva_muestra_de_degradado_1-10);}.cls-47{fill:url(#Nueva_muestra_de_degradado_1-11);}.cls-48{fill:url(#Nueva_muestra_de_degradado_1-12);}.cls-49{fill:url(#Nueva_muestra_de_degradado_1-13);}.cls-50{fill:url(#Nueva_muestra_de_degradado_1-14);}.cls-51{fill:url(#Nueva_muestra_de_degradado_1-15);}.cls-52{fill:url(#Nueva_muestra_de_degradado_1-16);}.cls-53{fill:url(#Nueva_muestra_de_degradado_1-17);}.cls-54{fill:url(#Nueva_muestra_de_degradado_1-18);}.cls-55{fill:url(#Nueva_muestra_de_degradado_1-22);}</style><linearGradient id="Degradado_sin_nombre_7" x1="117.44" y1="39.09" x2="193.73" y2="313.93" gradientUnits="userSpaceOnUse"><stop offset="0.1" stop-color="#c3ccea"/><stop offset="1" stop-color="#9db0dd"/></linearGradient><linearGradient id="Degradado_sin_nombre_4" x1="367.08" y1="197.23" x2="367.23" y2="206.86" gradientUnits="userSpaceOnUse"><stop offset="0" stop-color="#454579"/><stop offset="1" stop-color="#363664"/></linearGradient><linearGradient id="Degradado_sin_nombre_95" x1="1703.97" y1="-4907.41" x2="1709.82" y2="-4769.92" gradientTransform="translate(2045.26 -4685.88) rotate(-180)" gradientUnits="userSpaceOnUse"><stop offset="0.42" stop-color="#ffc000"/><stop offset="0.63" stop-color="#ffbd00"/><stop offset="0.8" stop-color="#ffb300"/><stop offset="0.96" stop-color="#ffa100"/><stop offset="1" stop-color="#ff9c00"/></linearGradient><linearGradient id="Degradado_sin_nombre_64" x1="3559.89" y1="-1362.51" x2="3855.36" y2="-1362.51" gradientTransform="translate(-1537.13 -3227.96) rotate(81.63)" gradientUnits="userSpaceOnUse"><stop offset="0" stop-color="#fbd842"/><stop offset="1" stop-color="#e39e03"/></linearGradient><linearGradient id="Degradado_sin_nombre_64-2" x1="3602.71" y1="-1362.51" x2="3684.71" y2="-1362.51" gradientTransform="matrix(-0.92, 0.39, -0.39, -0.92, 3167.92, -2493.82)" xlink:href="#Degradado_sin_nombre_64"/><linearGradient id="Degradado_sin_nombre_64-3" x1="3624.04" y1="-1360.47" x2="3663.78" y2="-1360.47" xlink:href="#Degradado_sin_nombre_64"/><linearGradient id="Degradado_sin_nombre_95-2" x1="1065.5" y1="-5039.48" x2="1073.13" y2="-4860.18" gradientTransform="translate(1865.71 -4715.68) rotate(-175.39)" xlink:href="#Degradado_sin_nombre_95"/><linearGradient id="Degradado_sin_nombre_64-4" x1="3652.99" y1="-1999.12" x2="4041.6" y2="-1999.12" gradientTransform="translate(-1290.52 -3745.03) rotate(94.61)" xlink:href="#Degradado_sin_nombre_64"/><linearGradient id="Degradado_sin_nombre_64-5" x1="3695.81" y1="-1999.76" x2="3777.82" y2="-1999.76" gradientTransform="translate(3306.67 -2946.86) rotate(161.4)" xlink:href="#Degradado_sin_nombre_64"/><linearGradient id="Degradado_sin_nombre_64-6" x1="3717.14" y1="-1997.72" x2="3756.88" y2="-1997.72" gradientTransform="translate(-1290.52 -3745.03) rotate(94.61)" xlink:href="#Degradado_sin_nombre_64"/><linearGradient id="Degradado_sin_nombre_4-2" x1="334.35" y1="200.02" x2="385.96" y2="309.55" xlink:href="#Degradado_sin_nombre_4"/><linearGradient id="Degradado_sin_nombre_4-3" x1="328.05" y1="186.64" x2="408.03" y2="356.4" xlink:href="#Degradado_sin_nombre_4"/><linearGradient id="Nueva_muestra_de_degradado_3" x1="228.76" y1="302.86" x2="284.39" y2="302.86" gradientUnits="userSpaceOnUse"><stop offset="0" stop-color="#ffc000"/><stop offset="1" stop-color="#ff9c00"/></linearGradient><linearGradient id="Nueva_muestra_de_degradado_3-2" x1="279.25" y1="317.98" x2="316.12" y2="317.98" xlink:href="#Nueva_muestra_de_degradado_3"/><linearGradient id="Degradado_sin_nombre_64-7" x1="249.55" y1="308.83" x2="268.38" y2="308.83" gradientTransform="matrix(1, 0, 0, 1, 0, 0)" xlink:href="#Degradado_sin_nombre_64"/><linearGradient id="Degradado_sin_nombre_64-8" x1="281.78" y1="320.57" x2="310.2" y2="320.57" gradientTransform="matrix(1, 0, 0, 1, 0, 0)" xlink:href="#Degradado_sin_nombre_64"/><linearGradient id="Nueva_muestra_de_degradado_3-3" x1="369.43" y1="321.99" x2="369.43" y2="332.36" xlink:href="#Nueva_muestra_de_degradado_3"/><linearGradient id="Nueva_muestra_de_degradado_3-4" x1="446.42" y1="321.99" x2="446.42" y2="332.36" xlink:href="#Nueva_muestra_de_degradado_3"/><linearGradient id="Nueva_muestra_de_degradado_3-5" x1="463.96" y1="305.09" x2="463.96" y2="315.47" xlink:href="#Nueva_muestra_de_degradado_3"/><linearGradient id="Nueva_muestra_de_degradado_3-6" x1="457.56" y1="288.19" x2="457.56" y2="298.57" xlink:href="#Nueva_muestra_de_degradado_3"/><linearGradient id="Nueva_muestra_de_degradado_3-7" x1="36.43" y1="321.99" x2="36.43" y2="332.36" xlink:href="#Nueva_muestra_de_degradado_3"/><linearGradient id="Nueva_muestra_de_degradado_3-8" x1="53.86" y1="306.49" x2="53.86" y2="316.87" xlink:href="#Nueva_muestra_de_degradado_3"/><linearGradient id="Nueva_muestra_de_degradado_1" x1="207.16" y1="57.94" x2="218.61" y2="57.94" gradientUnits="userSpaceOnUse"><stop offset="0" stop-color="#fff"/><stop offset="1" stop-color="#d8d8db"/></linearGradient><linearGradient id="Degradado_sin_nombre_110" x1="153.77" y1="54.47" x2="153.77" y2="242.61" gradientUnits="userSpaceOnUse"><stop offset="0" stop-color="#d8d8db"/><stop offset="0.06" stop-color="#fff"/><stop offset="0.26" stop-color="#d8d8db"/><stop offset="0.64" stop-color="#fff"/><stop offset="0.89" stop-color="#d8d8db"/><stop offset="1" stop-color="#d8d8db"/></linearGradient><linearGradient id="Nueva_muestra_de_degradado_1-2" x1="141.43" y1="0.03" x2="157.21" y2="143.24" xlink:href="#Nueva_muestra_de_degradado_1"/><linearGradient id="Nueva_muestra_de_degradado_1-3" x1="140.22" y1="-1.46" x2="156" y2="141.76" xlink:href="#Nueva_muestra_de_degradado_1"/><linearGradient id="Nueva_muestra_de_degradado_1-4" x1="139" y1="-2.94" x2="154.78" y2="140.27" xlink:href="#Nueva_muestra_de_degradado_1"/><linearGradient id="Nueva_muestra_de_degradado_1-5" x1="137.79" y1="-4.43" x2="153.57" y2="138.79" xlink:href="#Nueva_muestra_de_degradado_1"/><linearGradient id="Nueva_muestra_de_degradado_1-6" x1="136.58" y1="-5.92" x2="152.36" y2="137.3" xlink:href="#Nueva_muestra_de_degradado_1"/><linearGradient id="Nueva_muestra_de_degradado_1-7" x1="135.36" y1="-7.4" x2="151.14" y2="135.81" xlink:href="#Nueva_muestra_de_degradado_1"/><linearGradient id="Nueva_muestra_de_degradado_1-8" x1="140.22" y1="84.63" x2="156" y2="227.85" xlink:href="#Nueva_muestra_de_degradado_1"/><linearGradient id="Nueva_muestra_de_degradado_1-9" x1="139" y1="83.14" x2="154.78" y2="226.36" xlink:href="#Nueva_muestra_de_degradado_1"/><linearGradient id="Nueva_muestra_de_degradado_1-10" x1="137.79" y1="81.66" x2="153.57" y2="224.87" xlink:href="#Nueva_muestra_de_degradado_1"/><linearGradient id="Nueva_muestra_de_degradado_1-11" x1="136.58" y1="80.17" x2="152.36" y2="223.39" xlink:href="#Nueva_muestra_de_degradado_1"/><linearGradient id="Nueva_muestra_de_degradado_1-12" x1="135.36" y1="78.69" x2="151.14" y2="221.9" xlink:href="#Nueva_muestra_de_degradado_1"/><linearGradient id="Nueva_muestra_de_degradado_1-13" x1="108.23" y1="164.55" x2="115.96" y2="234.77" xlink:href="#Nueva_muestra_de_degradado_1"/><linearGradient id="Nueva_muestra_de_degradado_1-14" x1="102.95" y1="17.1" x2="116.43" y2="139.51" xlink:href="#Nueva_muestra_de_degradado_1"/><linearGradient id="Nueva_muestra_de_degradado_1-15" x1="102.08" y1="17.2" x2="115.56" y2="139.61" xlink:href="#Nueva_muestra_de_degradado_1"/><linearGradient id="Nueva_muestra_de_degradado_1-16" x1="101.2" y1="17.3" x2="114.69" y2="139.7" xlink:href="#Nueva_muestra_de_degradado_1"/><linearGradient id="Nueva_muestra_de_degradado_1-17" x1="100.33" y1="17.39" x2="113.82" y2="139.8" xlink:href="#Nueva_muestra_de_degradado_1"/><linearGradient id="Nueva_muestra_de_degradado_1-18" x1="140.71" y1="63.49" x2="145.63" y2="79.89" xlink:href="#Nueva_muestra_de_degradado_1"/><linearGradient id="Nueva_muestra_de_degradado_1-22" x1="171.11" y1="138.99" x2="173.16" y2="170.35" xlink:href="#Nueva_muestra_de_degradado_1"/></defs><g class="cls-1"><g id="Layer_2" data-name="Layer 2"><g id="Layer_1-2" data-name="Layer 1"><path class="cls-2" d="M57.39,344h483.3c8.33,0,10.67-51,10.39-57a230,230,0,0,0-12.55-64.38c-17.59-49.86-66.1-73.09-117.24-71.79a149.09,149.09,0,0,0-87.69,31.56c-21.54,17-35.57,44.14-62,54.66-14.14,5.63-29.94,5.33-45,3.31-22.7-3-44.81-9.76-67.57-12.31s-47.18-.49-66.07,12.46c-15.3,10.5-25.43,27.06-30.69,44.6C60.77,290,53.49,344,57.39,344Z"/><rect class="cls-3" x="64.02" width="179.5" height="339.95" rx="14.96"/><rect class="cls-4" x="73.02" y="9.3" width="161.49" height="321.36" rx="9.95"/><rect class="cls-5" x="108.77" y="15.3" width="90" height="4.32" rx="1.33"/><rect class="cls-5" x="108.77" y="315.85" width="90" height="4.32" rx="1.33"/><rect class="cls-6" x="279.94" y="197.24" width="174.65" height="23.31" rx="4.9"/><rect class="cls-7" x="283.81" y="95.26" width="109.22" height="130.81" transform="translate(-19.78 50.96) rotate(-8.37)"/><path class="cls-8" d="M298.88,232.58,284.35,133.8a31.35,31.35,0,0,0,21.88-29.43L353,97.49a31.39,31.39,0,0,0,29.44,21.88L397,218.15l5-.73L387.5,119.07h0L382.93,88l-9.53,1.41-89,13.09h0l-9.53,1.4,19,129.42Z"/><circle class="cls-9" cx="341.1" cy="178.88" r="41" transform="translate(82.38 464.21) rotate(-75.47)"/><g class="cls-10"><path class="cls-11" d="M315.5,186.85,307.93,188l-1-6.75,7.36-1.08c-.58-6.75.57-13.48,2.93-17.62L326,165a27.67,27.67,0,0,0-2.87,13.81l11.28-1.66c.73-7.76,2-16.51,11.65-17.93,7.16-1,14.08,3.25,16.86,13.74l7.5-1.1,1,6.75-7.37,1.09A30.89,30.89,0,0,1,362,194l-8.81-2.16a27.79,27.79,0,0,0,2-10.85l-11.48,1.69c-.65,7.76-1.94,16.36-11.47,17.77C325.18,201.51,318.34,197.27,315.5,186.85Zm28.86-11.15,9.6-1.41c-1.34-3.46-3.51-4.59-5.74-4.26S344.87,172.59,344.36,175.7Zm-14.57,14c2.37-.35,3.36-2.5,3.95-5.55l-9.32,1.37C325.66,188.81,327.63,190,329.79,189.72Z"/></g><polygon class="cls-12" points="448.85 232.63 463.94 61.24 355.07 52.47 339.99 223.85 448.85 232.63"/><path class="cls-13" d="M345,224.26,357.6,83.74A31.36,31.36,0,0,0,385.53,60l47.15,3.8A31.36,31.36,0,0,0,456.44,91.7l-12.6,140.52,5,.41L461.42,92.55h0l2.52-31.31-9.6-.77-89.67-7.23h0l-9.6-.78L340,223.85Z"/><circle class="cls-14" cx="402.78" cy="140.41" r="41" transform="translate(115.02 455.28) rotate(-66.79)"/><g class="cls-10"><path class="cls-15" d="M376,142.43l-7.62-.62L369,135l7.42.6c.95-6.71,3.58-13,6.81-16.51l8,4.41a27.61,27.61,0,0,0-5.9,12.81l11.37.92c2.45-7.41,5.64-15.64,15.38-14.86,7.21.58,13,6.32,13.34,17.17l7.56.61L432.4,147l-7.42-.6a30.81,30.81,0,0,1-5.27,13.48l-8.09-4.07A28.2,28.2,0,0,0,416,145.65l-11.58-.93c-2.37,7.41-5.56,15.51-15.16,14.74C382.18,158.88,376.48,153.22,376,142.43Zm30.63-4.38,9.67.77c-.53-3.67-2.38-5.26-4.63-5.44S407.87,135.13,406.67,138.05Zm-17.34,10.38c2.38.19,3.83-1.68,5.09-4.52l-9.39-.76C385.5,146.62,387.15,148.26,389.33,148.43Z"/></g><rect class="cls-16" x="268.15" y="204.38" width="199.77" height="134.28" rx="9.66"/><g class="cls-17"><rect class="cls-18" x="274.87" y="210.46" width="186.34" height="122.12" rx="4.9"/></g><path class="cls-19" d="M279.25,342.44H257.9s-54.71-74.19-14.21-78.76C304.34,256.82,279.25,342.44,279.25,342.44Z"/><path class="cls-20" d="M279.25,342.44s9-48.45,27.93-48.92,5.69,32-20.37,48.92Z"/><path class="cls-21" d="M267.6,342.44s3.95-33.5-17.63-67"/><path class="cls-22" d="M282.24,342.44s18.2-41.61,27.87-43.45"/><rect class="cls-5" x="79.12" y="42.14" width="149.3" height="25.9" rx="3.69"/><rect class="cls-23" x="333" y="321.61" width="72.86" height="17.04" rx="0.93"/><g class="cls-24"><rect class="cls-25" x="339.15" y="323.16" width="3.17" height="13.95"/><rect class="cls-25" x="348.72" y="323.16" width="3.17" height="13.95"/><rect class="cls-25" x="358.28" y="323.16" width="3.17" height="13.95"/><rect class="cls-25" x="367.84" y="323.16" width="3.17" height="13.95"/><rect class="cls-25" x="377.41" y="323.16" width="3.17" height="13.95"/><rect class="cls-25" x="386.97" y="323.16" width="3.17" height="13.95"/><rect class="cls-25" x="396.53" y="323.16" width="3.17" height="13.95"/></g><rect class="cls-26" x="365.58" y="323.16" width="40.27" height="13.87"/><rect class="cls-27" x="336.25" y="323.16" width="20.13" height="13.87"/><rect class="cls-28" x="336.25" y="323.16" width="20.13" height="13.87"/><path class="cls-29" d="M333,337.21a1.45,1.45,0,0,0,1.45,1.45H404.4a1.45,1.45,0,0,0,1.45-1.45v-.1H333Z"/><path class="cls-30" d="M404.4,321.61H334.45a1.45,1.45,0,0,0-1.45,1.45v.1h72.85v-.1A1.45,1.45,0,0,0,404.4,321.61Z"/><rect class="cls-31" x="409.99" y="321.61" width="72.86" height="17.04" rx="0.93"/><g class="cls-24"><rect class="cls-25" x="416.14" y="323.16" width="3.17" height="13.95"/><rect class="cls-25" x="425.71" y="323.16" width="3.17" height="13.95"/><rect class="cls-25" x="435.27" y="323.16" width="3.17" height="13.95"/><rect class="cls-25" x="444.83" y="323.16" width="3.17" height="13.95"/><rect class="cls-25" x="454.4" y="323.16" width="3.17" height="13.95"/><rect class="cls-25" x="463.96" y="323.16" width="3.17" height="13.95"/><rect class="cls-25" x="473.52" y="323.16" width="3.17" height="13.95"/></g><rect class="cls-26" x="442.57" y="323.16" width="40.27" height="13.87"/><rect class="cls-27" x="413.24" y="323.16" width="20.13" height="13.87"/><rect class="cls-28" x="413.24" y="323.16" width="20.13" height="13.87"/><path class="cls-29" d="M410,337.21a1.45,1.45,0,0,0,1.45,1.45h69.95a1.45,1.45,0,0,0,1.45-1.45v-.1H410Z"/><path class="cls-30" d="M481.39,321.61H411.44a1.45,1.45,0,0,0-1.45,1.45v.1h72.85v-.1A1.45,1.45,0,0,0,481.39,321.61Z"/><rect class="cls-32" x="427.53" y="304.72" width="72.86" height="17.04" rx="0.93"/><g class="cls-24"><rect class="cls-25" x="433.69" y="306.26" width="3.17" height="13.95"/><rect class="cls-25" x="443.25" y="306.26" width="3.17" height="13.95"/><rect class="cls-25" x="452.81" y="306.26" width="3.17" height="13.95"/><rect class="cls-25" x="462.38" y="306.26" width="3.17" height="13.95"/><rect class="cls-25" x="471.94" y="306.26" width="3.17" height="13.95"/><rect class="cls-25" x="481.5" y="306.26" width="3.17" height="13.95"/><rect class="cls-25" x="491.06" y="306.26" width="3.17" height="13.95"/></g><rect class="cls-26" x="460.12" y="306.26" width="40.27" height="13.87"/><rect class="cls-27" x="430.79" y="306.26" width="20.13" height="13.87"/><rect class="cls-28" x="430.79" y="306.26" width="20.13" height="13.87"/><path class="cls-29" d="M427.53,320.31a1.45,1.45,0,0,0,1.45,1.45h70a1.45,1.45,0,0,0,1.45-1.45v-.1H427.53Z"/><path class="cls-30" d="M498.94,304.72H429a1.45,1.45,0,0,0-1.45,1.45v.09h72.86v-.09A1.45,1.45,0,0,0,498.94,304.72Z"/><rect class="cls-33" x="421.13" y="287.82" width="72.86" height="17.04" rx="0.93"/><g class="cls-24"><rect class="cls-25" x="427.29" y="289.37" width="3.17" height="13.95"/><rect class="cls-25" x="436.85" y="289.37" width="3.17" height="13.95"/><rect class="cls-25" x="446.42" y="289.37" width="3.17" height="13.95"/><rect class="cls-25" x="455.98" y="289.37" width="3.17" height="13.95"/><rect class="cls-25" x="465.54" y="289.37" width="3.17" height="13.95"/><rect class="cls-25" x="475.1" y="289.37" width="3.17" height="13.95"/><rect class="cls-25" x="484.67" y="289.37" width="3.17" height="13.95"/></g><rect class="cls-26" x="453.72" y="289.37" width="40.27" height="13.87"/><rect class="cls-27" x="424.39" y="289.37" width="20.13" height="13.87"/><rect class="cls-28" x="424.39" y="289.37" width="20.13" height="13.87"/><path class="cls-29" d="M421.13,303.41a1.45,1.45,0,0,0,1.46,1.45h70a1.45,1.45,0,0,0,1.45-1.45v-.09H421.13Z"/><path class="cls-30" d="M492.54,287.82h-70a1.45,1.45,0,0,0-1.46,1.45v.1H494v-.1A1.45,1.45,0,0,0,492.54,287.82Z"/><rect class="cls-34" y="321.61" width="72.86" height="17.04" rx="0.93"/><g class="cls-24"><rect class="cls-25" x="6.16" y="323.16" width="3.17" height="13.95"/><rect class="cls-25" x="15.72" y="323.16" width="3.17" height="13.95"/><rect class="cls-25" x="25.28" y="323.16" width="3.17" height="13.95"/><rect class="cls-25" x="34.84" y="323.16" width="3.17" height="13.95"/><rect class="cls-25" x="44.41" y="323.16" width="3.17" height="13.95"/><rect class="cls-25" x="53.97" y="323.16" width="3.17" height="13.95"/><rect class="cls-25" x="63.53" y="323.16" width="3.17" height="13.95"/></g><rect class="cls-26" x="32.59" y="323.16" width="40.27" height="13.87"/><rect class="cls-27" x="3.26" y="323.16" width="20.13" height="13.87"/><rect class="cls-28" x="3.26" y="323.16" width="20.13" height="13.87"/><path class="cls-29" d="M0,337.21a1.45,1.45,0,0,0,1.45,1.45h70a1.45,1.45,0,0,0,1.46-1.45v-.1H0Z"/><path class="cls-30" d="M71.4,321.61H1.45A1.45,1.45,0,0,0,0,323.06v.1H72.86v-.1A1.45,1.45,0,0,0,71.4,321.61Z"/><rect class="cls-35" x="17.43" y="306.12" width="72.86" height="17.04" rx="0.93"/><g class="cls-24"><rect class="cls-25" x="23.59" y="307.66" width="3.17" height="13.95"/><rect class="cls-25" x="33.15" y="307.66" width="3.17" height="13.95"/><rect class="cls-25" x="42.72" y="307.66" width="3.17" height="13.95"/><rect class="cls-25" x="52.28" y="307.66" width="3.17" height="13.95"/><rect class="cls-25" x="61.84" y="307.66" width="3.17" height="13.95"/><rect class="cls-25" x="71.4" y="307.66" width="3.17" height="13.95"/><rect class="cls-25" x="80.97" y="307.66" width="3.17" height="13.95"/></g><rect class="cls-26" x="50.02" y="307.66" width="40.27" height="13.87"/><rect class="cls-27" x="20.69" y="307.66" width="20.13" height="13.87"/><rect class="cls-28" x="20.69" y="307.66" width="20.13" height="13.87"/><path class="cls-29" d="M17.43,321.71a1.45,1.45,0,0,0,1.45,1.45h70a1.45,1.45,0,0,0,1.45-1.45v-.1H17.43Z"/><path class="cls-30" d="M88.84,306.12h-70a1.45,1.45,0,0,0-1.45,1.45v.09H90.29v-.09A1.45,1.45,0,0,0,88.84,306.12Z"/><rect class="cls-5" x="82.94" y="46.55" width="141.65" height="17.09" rx="1.37"/><path class="cls-36" d="M213.15,52.28s5.11-.87,5.46,11.36H207.72S204.59,51.52,213.15,52.28Z"/><path class="cls-37" d="M112.14,52.28A17.76,17.76,0,0,0,94.38,70v171.3h0l2.38,3.12,2.39-3.12,2.38,3.12,2.39-3.12,2.38,3.12,2.38-3.12,2.39,3.12,2.38-3.12,2.39,3.12,2.38-3.12,2.39,3.12,2.39-3.12,2.38,3.12,2.39-3.12,2.39,3.12,2.39-3.12,2.39,3.12,2.38-3.12,2.39,3.12,2.39-3.12,2.39,3.12,2.39-3.12,2.39,3.12,2.39-3.12,2.38,3.12,2.39-3.12,2.39,3.12,2.38-3.12,2.38,3.12,2.38-3.12,2.39,3.12,2.38-3.12,2.39,3.12,2.39-3.12,2.38,3.12,2.39-3.12,2.38,3.12,2.39-3.12,2.39,3.12,2.39-3.12,2.39,3.12,2.38-3.12,2.39,3.12,2.39-3.12,2.39,3.12,2.39-3.12,2.4,3.12,2.14-3.12h-.11l.76-169.68V62.29c0-5.53.9-10,3.77-10Z"/><g class="cls-10"><rect class="cls-38" x="100.94" y="92.84" width="101.88" height="4.15"/><rect class="cls-39" x="100.94" y="102.36" width="101.88" height="4.15"/><rect class="cls-40" x="100.94" y="111.89" width="101.88" height="4.15"/><rect class="cls-41" x="100.94" y="121.42" width="101.88" height="4.15"/><rect class="cls-42" x="100.94" y="130.95" width="101.88" height="4.15"/><rect class="cls-43" x="100.94" y="140.47" width="101.88" height="4.15"/><rect class="cls-44" x="100.94" y="188.45" width="101.88" height="4.15"/><rect class="cls-45" x="100.94" y="197.98" width="101.88" height="4.15"/><rect class="cls-46" x="100.94" y="207.51" width="101.88" height="4.15"/><rect class="cls-47" x="100.94" y="217.03" width="101.88" height="4.15"/><rect class="cls-48" x="100.94" y="226.56" width="101.88" height="4.15"/><rect class="cls-49" x="100.94" y="236" width="30.76" height="4.15"/><rect class="cls-50" x="100.94" y="152.98" width="34.41" height="4.15"/><rect class="cls-51" x="100.94" y="161" width="34.41" height="4.15"/><rect class="cls-52" x="100.94" y="169.02" width="34.41" height="4.15"/><rect class="cls-53" x="100.94" y="177.04" width="34.41" height="4.15"/></g><g class="cls-10"><path class="cls-54" d="M131.59,73a14.84,14.84,0,0,1,2.88-.26,5,5,0,0,1,3.34.89,2.54,2.54,0,0,1,1,2.15,2.89,2.89,0,0,1-2.07,2.68v0a3.15,3.15,0,0,1,2.52,3.06,3.3,3.3,0,0,1-1,2.44c-.85.78-2.23,1.14-4.22,1.14a17.07,17.07,0,0,1-2.44-.15Zm1.58,5h1.43c1.66,0,2.63-.87,2.63-2,0-1.43-1.08-2-2.67-2a7,7,0,0,0-1.39.11Zm0,5.84a9,9,0,0,0,1.32.07c1.62,0,3.12-.6,3.12-2.37s-1.42-2.35-3.14-2.35h-1.3Z"/><path class="cls-54" d="M143.4,72.82V85h-1.58V72.82Z"/><path class="cls-54" d="M146.58,72.82h1.57V83.69h5.21V85h-6.78Z"/><path class="cls-54" d="M155.54,72.82h1.58V83.69h5.2V85h-6.78Z"/></g><g class="cls-10"><path class="cls-55" d="M155.27,168.91v-1.57a4.68,4.68,0,0,1-2.38-.68l.38-1a4.06,4.06,0,0,0,2.23.67c1.11,0,1.85-.63,1.85-1.52s-.6-1.38-1.75-1.85c-1.59-.62-2.57-1.33-2.57-2.69a2.55,2.55,0,0,1,2.35-2.5v-1.57h1v1.51a4.07,4.07,0,0,1,2,.55l-.39,1a3.68,3.68,0,0,0-1.95-.53c-1.2,0-1.65.72-1.65,1.34,0,.81.57,1.21,1.93,1.77,1.6.65,2.4,1.46,2.4,2.84a2.69,2.69,0,0,1-2.45,2.64v1.62Z"/><path class="cls-55" d="M163.89,158.75h0l-1.76.95-.26-1,2.2-1.19h1.17v10.1h-1.32Z"/><path class="cls-55" d="M170.05,166.61a5.53,5.53,0,0,0,1.1-.05,3.82,3.82,0,0,0,2.12-1,4.47,4.47,0,0,0,1.33-2.68h0a3,3,0,0,1-5.35-2,3.46,3.46,0,0,1,3.44-3.59c2.07,0,3.34,1.68,3.34,4.26a6.38,6.38,0,0,1-1.74,4.74,5,5,0,0,1-2.93,1.35,6.66,6.66,0,0,1-1.26.08Zm.5-5.81a1.94,1.94,0,0,0,1.94,2.14,2.27,2.27,0,0,0,2-1.05,1,1,0,0,0,.12-.5c0-1.72-.64-3-2.06-3C171.37,158.34,170.55,159.37,170.55,160.8Z"/><path class="cls-55" d="M184.31,162.41c0,3.44-1.28,5.33-3.51,5.33-2,0-3.31-1.85-3.34-5.19s1.46-5.25,3.51-5.25S184.31,159.2,184.31,162.41Zm-5.49.16c0,2.62.81,4.12,2.05,4.12,1.4,0,2.07-1.64,2.07-4.21s-.64-4.12-2.05-4.12C179.69,158.36,178.82,159.82,178.82,162.57Z"/><path class="cls-55" d="M192.64,162.41c0,3.44-1.27,5.33-3.51,5.33-2,0-3.31-1.85-3.34-5.19s1.46-5.25,3.51-5.25S192.64,159.2,192.64,162.41Zm-5.48.16c0,2.62.81,4.12,2.05,4.12,1.4,0,2.07-1.64,2.07-4.21s-.64-4.12-2.05-4.12C188,158.36,187.16,159.82,187.16,162.57Z"/></g></g></g></g></svg>