<svg xmlns="http://www.w3.org/2000/svg" xmlns:xlink="http://www.w3.org/1999/xlink" viewBox="0 0 561.34 363.41"><defs><style>.cls-1{fill:none;}.cls-2{isolation:isolate;}.cls-3{opacity:0.42;}.cls-4{fill:#a0b0c8;}.cls-165,.cls-166,.cls-173,.cls-5{mix-blend-mode:multiply;}.cls-166,.cls-5{opacity:0.5;}.cls-6{fill:url(#Degradado_sin_nombre_72);}.cls-7{fill:url(#Degradado_sin_nombre_81);}.cls-8{fill:url(#Degradado_sin_nombre_81-2);}.cls-9{fill:url(#Degradado_sin_nombre_81-3);}.cls-10{fill:#f2e2d7;}.cls-11{fill:#d6bbaa;}.cls-12{fill:url(#Degradado_sin_nombre_45);}.cls-13{fill:url(#Degradado_sin_nombre_50);}.cls-14{fill:url(#Degradado_sin_nombre_17);}.cls-15{fill:url(#Degradado_sin_nombre_45-2);}.cls-16{fill:url(#Degradado_sin_nombre_19);}.cls-17{opacity:0.1;}.cls-18{fill:#5c8deb;}.cls-19{fill:url(#Degradado_sin_nombre_19-2);}.cls-20{fill:url(#Degradado_sin_nombre_82);}.cls-21{fill:url(#Degradado_sin_nombre_45-3);}.cls-22{fill:url(#Degradado_sin_nombre_19-3);}.cls-23{fill:url(#Degradado_sin_nombre_82-2);}.cls-24{fill:url(#Degradado_sin_nombre_45-4);}.cls-25{fill:url(#Degradado_sin_nombre_19-4);}.cls-26{fill:url(#Degradado_sin_nombre_82-3);}.cls-27{fill:url(#Degradado_sin_nombre_45-5);}.cls-28{fill:url(#Degradado_sin_nombre_19-5);}.cls-29{fill:url(#Degradado_sin_nombre_82-4);}.cls-30{fill:url(#Degradado_sin_nombre_45-6);}.cls-31{fill:url(#Degradado_sin_nombre_19-6);}.cls-32{fill:url(#Degradado_sin_nombre_82-5);}.cls-33{fill:url(#Degradado_sin_nombre_45-7);}.cls-34{fill:url(#Degradado_sin_nombre_19-7);}.cls-35{fill:url(#Degradado_sin_nombre_82-6);}.cls-36{fill:url(#Degradado_sin_nombre_45-8);}.cls-37{fill:url(#Degradado_sin_nombre_19-8);}.cls-38{fill:url(#Degradado_sin_nombre_82-7);}.cls-39{fill:url(#Degradado_sin_nombre_45-9);}.cls-40{fill:url(#Degradado_sin_nombre_19-9);}.cls-41{fill:url(#Degradado_sin_nombre_82-8);}.cls-42{fill:url(#Degradado_sin_nombre_45-10);}.cls-43{fill:url(#Degradado_sin_nombre_19-10);}.cls-44{fill:url(#Degradado_sin_nombre_82-9);}.cls-45{fill:url(#Degradado_sin_nombre_45-11);}.cls-46{fill:url(#Degradado_sin_nombre_19-11);}.cls-47{fill:url(#Degradado_sin_nombre_82-10);}.cls-48{fill:url(#Degradado_sin_nombre_45-12);}.cls-49{fill:url(#Degradado_sin_nombre_19-12);}.cls-50{fill:url(#Degradado_sin_nombre_82-11);}.cls-51{fill:url(#Degradado_sin_nombre_45-13);}.cls-52{fill:url(#Degradado_sin_nombre_19-13);}.cls-53{fill:url(#Degradado_sin_nombre_82-12);}.cls-54{fill:url(#Degradado_sin_nombre_45-14);}.cls-55{fill:url(#Degradado_sin_nombre_19-14);}.cls-56{fill:url(#Degradado_sin_nombre_82-13);}.cls-57{fill:url(#Degradado_sin_nombre_45-15);}.cls-58{fill:url(#Degradado_sin_nombre_19-15);}.cls-59{fill:url(#Degradado_sin_nombre_82-14);}.cls-60{fill:url(#Degradado_sin_nombre_45-16);}.cls-61{fill:url(#Degradado_sin_nombre_19-16);}.cls-62{fill:url(#Degradado_sin_nombre_82-15);}.cls-63{fill:url(#Degradado_sin_nombre_45-17);}.cls-64{fill:url(#Degradado_sin_nombre_19-17);}.cls-65{fill:url(#Degradado_sin_nombre_82-16);}.cls-66{fill:url(#Degradado_sin_nombre_45-18);}.cls-67{fill:url(#Degradado_sin_nombre_19-18);}.cls-68{fill:url(#Degradado_sin_nombre_82-17);}.cls-69{fill:url(#Degradado_sin_nombre_45-19);}.cls-70{fill:url(#Degradado_sin_nombre_19-19);}.cls-71{fill:url(#Degradado_sin_nombre_82-18);}.cls-72{fill:url(#Degradado_sin_nombre_45-20);}.cls-73{fill:url(#Degradado_sin_nombre_19-20);}.cls-74{fill:url(#Degradado_sin_nombre_82-19);}.cls-75{fill:url(#Degradado_sin_nombre_45-21);}.cls-76{fill:url(#Degradado_sin_nombre_19-21);}.cls-77{fill:url(#Degradado_sin_nombre_82-20);}.cls-78{fill:url(#Degradado_sin_nombre_45-22);}.cls-79{fill:url(#Degradado_sin_nombre_19-22);}.cls-80{fill:url(#Degradado_sin_nombre_82-21);}.cls-81{fill:url(#Degradado_sin_nombre_45-23);}.cls-82{fill:url(#Degradado_sin_nombre_19-23);}.cls-83{fill:url(#Degradado_sin_nombre_82-22);}.cls-84{fill:url(#Degradado_sin_nombre_45-24);}.cls-85{fill:url(#Degradado_sin_nombre_19-24);}.cls-86{fill:url(#Degradado_sin_nombre_82-23);}.cls-87{fill:url(#Degradado_sin_nombre_45-25);}.cls-88{fill:url(#Degradado_sin_nombre_19-25);}.cls-89{fill:url(#Degradado_sin_nombre_82-24);}.cls-90{fill:url(#Degradado_sin_nombre_45-26);}.cls-91{fill:url(#Degradado_sin_nombre_19-26);}.cls-92{fill:url(#Degradado_sin_nombre_82-25);}.cls-93{fill:url(#Degradado_sin_nombre_45-27);}.cls-94{fill:url(#Degradado_sin_nombre_19-27);}.cls-95{fill:url(#Degradado_sin_nombre_82-26);}.cls-96{fill:url(#Degradado_sin_nombre_45-28);}.cls-97{fill:url(#Degradado_sin_nombre_19-28);}.cls-98{fill:url(#Degradado_sin_nombre_82-27);}.cls-99{fill:url(#Degradado_sin_nombre_45-29);}.cls-100{fill:url(#Degradado_sin_nombre_19-29);}.cls-101{fill:url(#Degradado_sin_nombre_82-28);}.cls-102{fill:url(#Degradado_sin_nombre_45-30);}.cls-103{fill:url(#Degradado_sin_nombre_19-30);}.cls-104{fill:url(#Degradado_sin_nombre_82-29);}.cls-105{fill:url(#Degradado_sin_nombre_45-31);}.cls-106{fill:url(#Degradado_sin_nombre_19-31);}.cls-107{fill:url(#Degradado_sin_nombre_82-30);}.cls-108{fill:url(#Degradado_sin_nombre_45-32);}.cls-109{fill:url(#Degradado_sin_nombre_19-32);}.cls-110{fill:url(#Degradado_sin_nombre_82-31);}.cls-111{fill:url(#Degradado_sin_nombre_45-33);}.cls-112{fill:url(#Degradado_sin_nombre_19-33);}.cls-113{fill:url(#Degradado_sin_nombre_82-32);}.cls-114{fill:url(#Degradado_sin_nombre_45-34);}.cls-115{fill:url(#Degradado_sin_nombre_19-34);}.cls-116{fill:url(#Degradado_sin_nombre_82-33);}.cls-117{fill:url(#Degradado_sin_nombre_45-35);}.cls-118{fill:url(#Degradado_sin_nombre_19-35);}.cls-119{fill:url(#Degradado_sin_nombre_82-34);}.cls-120{fill:url(#Degradado_sin_nombre_45-36);}.cls-121{fill:url(#Degradado_sin_nombre_19-36);}.cls-122{fill:url(#Degradado_sin_nombre_82-35);}.cls-123{fill:url(#Degradado_sin_nombre_45-37);}.cls-124{fill:url(#Degradado_sin_nombre_19-37);}.cls-125{fill:url(#Degradado_sin_nombre_82-36);}.cls-126{fill:url(#Degradado_sin_nombre_45-38);}.cls-127{fill:url(#Degradado_sin_nombre_19-38);}.cls-128{fill:url(#Degradado_sin_nombre_82-37);}.cls-129{fill:url(#Degradado_sin_nombre_45-39);}.cls-130{fill:url(#Degradado_sin_nombre_19-39);}.cls-131{fill:url(#Degradado_sin_nombre_82-38);}.cls-132{fill:url(#Degradado_sin_nombre_45-40);}.cls-133{fill:url(#Degradado_sin_nombre_19-40);}.cls-134{fill:url(#Degradado_sin_nombre_82-39);}.cls-135{fill:url(#Degradado_sin_nombre_45-41);}.cls-136{fill:url(#Degradado_sin_nombre_19-41);}.cls-137{fill:url(#Degradado_sin_nombre_82-40);}.cls-138{fill:url(#Degradado_sin_nombre_45-42);}.cls-139{fill:url(#Degradado_sin_nombre_19-42);}.cls-140{fill:url(#Degradado_sin_nombre_82-41);}.cls-141{fill:url(#Degradado_sin_nombre_45-43);}.cls-142{fill:url(#Degradado_sin_nombre_19-43);}.cls-143{fill:url(#Degradado_sin_nombre_45-44);}.cls-144{fill:url(#Degradado_sin_nombre_41);}.cls-145{fill:url(#Degradado_sin_nombre_38);}.cls-146{fill:url(#Degradado_sin_nombre_39);}.cls-147{fill:#d1e4ed;}.cls-148{fill:url(#Degradado_sin_nombre_17-2);}.cls-149{fill:url(#Degradado_sin_nombre_17-3);}.cls-150{fill:url(#Degradado_sin_nombre_45-45);}.cls-151{fill:url(#Degradado_sin_nombre_17-4);}.cls-152{fill:url(#Degradado_sin_nombre_17-5);}.cls-153{fill:url(#Degradado_sin_nombre_45-46);}.cls-154{fill:url(#Degradado_sin_nombre_17-6);}.cls-155{fill:url(#Degradado_sin_nombre_17-7);}.cls-156{fill:url(#Degradado_sin_nombre_45-47);}.cls-157{fill:#ffd07d;}.cls-158{fill:url(#Degradado_sin_nombre_28);}.cls-159{fill:#a9d0ff;}.cls-160{fill:url(#Degradado_sin_nombre_45-48);}.cls-161{fill:#8dc996;}.cls-162{fill:url(#Degradado_sin_nombre_47);}.cls-163{fill:#f96969;}.cls-164{fill:url(#Degradado_sin_nombre_38-2);}.cls-165{fill:url(#Degradado_sin_nombre_72-2);}.cls-166{fill:url(#Degradado_sin_nombre_72-3);}.cls-167{fill:url(#Degradado_sin_nombre_63);}.cls-168{clip-path:url(#clip-path);}.cls-169{fill:url(#Degradado_sin_nombre_63-2);}.cls-170{fill:url(#Degradado_sin_nombre_64);}.cls-171{fill:#acc3ef;}.cls-172{fill:#33527f;}.cls-173{fill:#c4d3f7;}.cls-174{clip-path:url(#clip-path-2);}.cls-175{fill:#1b2b42;}.cls-176{fill:#1c2c45;}.cls-177{fill:#1d2e47;}.cls-178{fill:#1e304a;}.cls-179{fill:#1f314c;}.cls-180{fill:#20334f;}.cls-181{fill:#213451;}.cls-182{fill:#223654;}.cls-183{fill:#233856;}.cls-184{fill:#243959;}.cls-185{fill:#253b5b;}.cls-186{clip-path:url(#clip-path-3);}.cls-187{clip-path:url(#clip-path-4);}.cls-188{fill:#2f5976;}.cls-189{fill:#2d5672;}.cls-190{clip-path:url(#clip-path-5);}.cls-191{clip-path:url(#clip-path-6);}.cls-192{fill:#816649;}.cls-193{fill:#866a4c;}.cls-194{fill:#8b6e4e;}.cls-195{fill:#907251;}.cls-196{fill:#957654;}.cls-197{fill:#9a7a57;}.cls-198{fill:#9f7d5a;}.cls-199{fill:#a4815c;}.cls-200{clip-path:url(#clip-path-7);}.cls-201{fill:#a9855f;}.cls-202{fill:#ae8962;}.cls-203{fill:#b38d65;}.cls-204{clip-path:url(#clip-path-8);}.cls-205{fill:#7d5632;}.cls-206{fill:#7a5430;}.cls-207{fill:#76512f;}.cls-208{fill:#724e2d;}.cls-209{fill:#6e4c2c;}.cls-210{fill:#6a492a;}.cls-211{fill:#664629;}.cls-212{clip-path:url(#clip-path-9);}.cls-213{fill:#305c7a;}.cls-214{fill:#325f7d;}.cls-215{fill:#336281;}.cls-216{fill:#356585;}.cls-217{fill:#376889;}.cls-218{fill:#386b8d;}.cls-219{fill:#2c536e;}.cls-220{fill:#2a506a;}.cls-221{fill:#294d66;}.cls-222{clip-path:url(#clip-path-10);}.cls-223{fill:#1b2c44;}.cls-224{clip-path:url(#clip-path-11);}.cls-225{clip-path:url(#clip-path-12);}.cls-226{fill:#8b7b68;}.cls-227{fill:#8f7f6c;}.cls-228{fill:#948370;}.cls-229{fill:#998873;}.cls-230{fill:#9e8c77;}.cls-231{fill:#a3907a;}.cls-232{fill:#a7947e;}.cls-233{fill:#ac9982;}.cls-234{fill:#273f62;}.cls-235{clip-path:url(#clip-path-13);}.cls-236{clip-path:url(#clip-path-14);}.cls-237{fill:#7c6e5e;}.cls-238{fill:#b8a48b;}.cls-239{fill:#807261;}.cls-240{clip-path:url(#clip-path-15);}.cls-241{fill:#867765;}.cls-242{fill:#817261;}.cls-243{fill:url(#Degradado_sin_nombre_28-2);}.cls-244{fill:#fff;}.cls-245{fill:#ef863f;}.cls-246{fill:url(#Degradado_sin_nombre_17-8);}.cls-247{fill:url(#Degradado_sin_nombre_84);}.cls-248{fill:url(#Degradado_sin_nombre_82-42);}.cls-249{fill:#6c8db5;}.cls-250{fill:url(#Degradado_sin_nombre_82-43);}.cls-251{fill:url(#Degradado_sin_nombre_84-2);}.cls-252{fill:#ffac48;}.cls-253{fill:url(#Degradado_sin_nombre_72-4);}.cls-254{fill:url(#Degradado_sin_nombre_81-4);}.cls-255{fill:url(#Degradado_sin_nombre_81-5);}.cls-256{fill:url(#Degradado_sin_nombre_81-6);}.cls-257{fill:url(#Degradado_sin_nombre_41-2);}.cls-258{fill:url(#Degradado_sin_nombre_38-3);}.cls-259{fill:url(#Degradado_sin_nombre_39-2);}.cls-260{fill:url(#Degradado_sin_nombre_32);}.cls-261{fill:url(#Degradado_sin_nombre_33);}.cls-262{fill:url(#Degradado_sin_nombre_28-3);}.cls-263{fill:url(#Degradado_sin_nombre_19-44);}.cls-264{fill:url(#Degradado_sin_nombre_45-49);}.cls-265{fill:url(#Degradado_sin_nombre_82-44);}</style><linearGradient id="Degradado_sin_nombre_72" x1="108.05" y1="193.14" x2="204.87" y2="193.14" gradientTransform="matrix(-1, 0, 0, 1, 571.13, 0)" gradientUnits="userSpaceOnUse"><stop offset="0" stop-color="#445e84"/><stop offset="1" stop-color="#c4d3f7"/></linearGradient><linearGradient id="Degradado_sin_nombre_81" x1="145.03" y1="186.29" x2="198.79" y2="186.29" gradientTransform="matrix(-1, 0, 0, 1, 571.13, 0)" gradientUnits="userSpaceOnUse"><stop offset="0" stop-color="#bc7646"/><stop offset="1" stop-color="#f9b587"/></linearGradient><linearGradient id="Degradado_sin_nombre_81-2" x1="114.05" y1="192.94" x2="145.12" y2="192.94" xlink:href="#Degradado_sin_nombre_81"/><linearGradient id="Degradado_sin_nombre_81-3" x1="114.14" y1="161.63" x2="198.79" y2="161.63" xlink:href="#Degradado_sin_nombre_81"/><linearGradient id="Degradado_sin_nombre_45" x1="123.75" y1="289.51" x2="456.57" y2="289.51" gradientTransform="matrix(-1, 0, 0, 1, 571.13, 0)" gradientUnits="userSpaceOnUse"><stop offset="0" stop-color="#1b54a8"/><stop offset="1" stop-color="#2390e2"/></linearGradient><linearGradient id="Degradado_sin_nombre_50" x1="123.77" y1="248.78" x2="456.57" y2="248.78" gradientTransform="matrix(-1, 0, 0, 1, 571.13, 0)" gradientUnits="userSpaceOnUse"><stop offset="0" stop-color="#4dbbff"/><stop offset="1" stop-color="#d7f4ff"/></linearGradient><linearGradient id="Degradado_sin_nombre_17" x1="254.5" y1="134.74" x2="467.59" y2="134.74" gradientTransform="matrix(-1, 0, 0, 1, 571.13, 0)" gradientUnits="userSpaceOnUse"><stop offset="0" stop-color="#2390e2"/><stop offset="1" stop-color="#acc3ef"/></linearGradient><linearGradient id="Degradado_sin_nombre_45-2" x1="253.18" y1="136.61" x2="462.22" y2="136.61" xlink:href="#Degradado_sin_nombre_45"/><linearGradient id="Degradado_sin_nombre_19" x1="256.89" y1="136.61" x2="458.51" y2="136.61" gradientTransform="matrix(-1, 0, 0, 1, 571.13, 0)" gradientUnits="userSpaceOnUse"><stop offset="0" stop-color="#c7eaff"/><stop offset="1" stop-color="#bbd5ff"/></linearGradient><linearGradient id="Degradado_sin_nombre_19-2" x1="252.69" y1="180.5" x2="258.07" y2="180.5" xlink:href="#Degradado_sin_nombre_19"/><linearGradient id="Degradado_sin_nombre_82" x1="233.96" y1="176.65" x2="252.7" y2="176.65" gradientTransform="matrix(-1, 0, 0, 1, 571.13, 0)" gradientUnits="userSpaceOnUse"><stop offset="0" stop-color="#2390e2"/><stop offset="1" stop-color="#1b54a8"/></linearGradient><linearGradient id="Degradado_sin_nombre_45-3" x1="233.96" y1="174.06" x2="258.07" y2="174.06" xlink:href="#Degradado_sin_nombre_45"/><linearGradient id="Degradado_sin_nombre_19-3" x1="273.88" y1="192.73" x2="279.26" y2="192.73" xlink:href="#Degradado_sin_nombre_19"/><linearGradient id="Degradado_sin_nombre_82-2" x1="255.14" y1="188.88" x2="273.88" y2="188.88" xlink:href="#Degradado_sin_nombre_82"/><linearGradient id="Degradado_sin_nombre_45-4" x1="255.15" y1="186.29" x2="279.26" y2="186.29" xlink:href="#Degradado_sin_nombre_45"/><linearGradient id="Degradado_sin_nombre_19-4" x1="295.06" y1="204.96" x2="300.44" y2="204.96" xlink:href="#Degradado_sin_nombre_19"/><linearGradient id="Degradado_sin_nombre_82-3" x1="276.33" y1="201.11" x2="295.07" y2="201.11" xlink:href="#Degradado_sin_nombre_82"/><linearGradient id="Degradado_sin_nombre_45-5" x1="276.33" y1="198.52" x2="300.44" y2="198.52" xlink:href="#Degradado_sin_nombre_45"/><linearGradient id="Degradado_sin_nombre_19-5" x1="316.24" y1="217.19" x2="321.62" y2="217.19" xlink:href="#Degradado_sin_nombre_19"/><linearGradient id="Degradado_sin_nombre_82-4" x1="297.51" y1="213.34" x2="316.25" y2="213.34" xlink:href="#Degradado_sin_nombre_82"/><linearGradient id="Degradado_sin_nombre_45-6" x1="297.52" y1="210.75" x2="321.62" y2="210.75" xlink:href="#Degradado_sin_nombre_45"/><linearGradient id="Degradado_sin_nombre_19-6" x1="337.43" y1="229.42" x2="342.81" y2="229.42" xlink:href="#Degradado_sin_nombre_19"/><linearGradient id="Degradado_sin_nombre_82-5" x1="318.69" y1="225.58" x2="337.43" y2="225.58" xlink:href="#Degradado_sin_nombre_82"/><linearGradient id="Degradado_sin_nombre_45-7" x1="318.7" y1="222.98" x2="342.81" y2="222.98" xlink:href="#Degradado_sin_nombre_45"/><linearGradient id="Degradado_sin_nombre_19-7" x1="358.61" y1="241.65" x2="363.99" y2="241.65" xlink:href="#Degradado_sin_nombre_19"/><linearGradient id="Degradado_sin_nombre_82-6" x1="339.88" y1="237.81" x2="358.62" y2="237.81" xlink:href="#Degradado_sin_nombre_82"/><linearGradient id="Degradado_sin_nombre_45-8" x1="339.88" y1="235.21" x2="363.99" y2="235.21" xlink:href="#Degradado_sin_nombre_45"/><linearGradient id="Degradado_sin_nombre_19-8" x1="379.8" y1="253.88" x2="385.17" y2="253.88" xlink:href="#Degradado_sin_nombre_19"/><linearGradient id="Degradado_sin_nombre_82-7" x1="361.06" y1="250.04" x2="379.8" y2="250.04" xlink:href="#Degradado_sin_nombre_82"/><linearGradient id="Degradado_sin_nombre_45-9" x1="361.07" y1="247.44" x2="385.17" y2="247.44" xlink:href="#Degradado_sin_nombre_45"/><linearGradient id="Degradado_sin_nombre_19-9" x1="400.98" y1="266.11" x2="406.36" y2="266.11" xlink:href="#Degradado_sin_nombre_19"/><linearGradient id="Degradado_sin_nombre_82-8" x1="382.25" y1="262.27" x2="400.99" y2="262.27" xlink:href="#Degradado_sin_nombre_82"/><linearGradient id="Degradado_sin_nombre_45-10" x1="382.26" y1="259.67" x2="406.36" y2="259.67" xlink:href="#Degradado_sin_nombre_45"/><linearGradient id="Degradado_sin_nombre_19-10" x1="422.16" y1="278.34" x2="427.54" y2="278.34" xlink:href="#Degradado_sin_nombre_19"/><linearGradient id="Degradado_sin_nombre_82-9" x1="403.44" y1="274.5" x2="422.17" y2="274.5" xlink:href="#Degradado_sin_nombre_82"/><linearGradient id="Degradado_sin_nombre_45-11" x1="403.44" y1="271.9" x2="427.54" y2="271.9" xlink:href="#Degradado_sin_nombre_45"/><linearGradient id="Degradado_sin_nombre_19-11" x1="242.96" y1="186.16" x2="248.34" y2="186.16" xlink:href="#Degradado_sin_nombre_19"/><linearGradient id="Degradado_sin_nombre_82-10" x1="224.23" y1="182.31" x2="242.97" y2="182.31" xlink:href="#Degradado_sin_nombre_82"/><linearGradient id="Degradado_sin_nombre_45-12" x1="224.23" y1="179.71" x2="248.34" y2="179.71" xlink:href="#Degradado_sin_nombre_45"/><linearGradient id="Degradado_sin_nombre_19-12" x1="264.15" y1="198.39" x2="269.53" y2="198.39" xlink:href="#Degradado_sin_nombre_19"/><linearGradient id="Degradado_sin_nombre_82-11" x1="245.41" y1="194.54" x2="264.15" y2="194.54" xlink:href="#Degradado_sin_nombre_82"/><linearGradient id="Degradado_sin_nombre_45-13" x1="245.42" y1="191.94" x2="269.53" y2="191.94" xlink:href="#Degradado_sin_nombre_45"/><linearGradient id="Degradado_sin_nombre_19-13" x1="285.33" y1="210.62" x2="290.71" y2="210.62" xlink:href="#Degradado_sin_nombre_19"/><linearGradient id="Degradado_sin_nombre_82-12" x1="266.6" y1="206.77" x2="285.34" y2="206.77" xlink:href="#Degradado_sin_nombre_82"/><linearGradient id="Degradado_sin_nombre_45-14" x1="266.6" y1="204.17" x2="290.71" y2="204.17" xlink:href="#Degradado_sin_nombre_45"/><linearGradient id="Degradado_sin_nombre_19-14" x1="306.52" y1="222.85" x2="311.89" y2="222.85" xlink:href="#Degradado_sin_nombre_19"/><linearGradient id="Degradado_sin_nombre_82-13" x1="287.78" y1="219" x2="306.52" y2="219" xlink:href="#Degradado_sin_nombre_82"/><linearGradient id="Degradado_sin_nombre_45-15" x1="287.79" y1="216.4" x2="311.89" y2="216.4" xlink:href="#Degradado_sin_nombre_45"/><linearGradient id="Degradado_sin_nombre_19-15" x1="327.7" y1="235.08" x2="333.08" y2="235.08" xlink:href="#Degradado_sin_nombre_19"/><linearGradient id="Degradado_sin_nombre_82-14" x1="308.96" y1="231.23" x2="327.7" y2="231.23" xlink:href="#Degradado_sin_nombre_82"/><linearGradient id="Degradado_sin_nombre_45-16" x1="308.97" y1="228.63" x2="333.08" y2="228.63" xlink:href="#Degradado_sin_nombre_45"/><linearGradient id="Degradado_sin_nombre_19-16" x1="348.88" y1="247.31" x2="354.26" y2="247.31" xlink:href="#Degradado_sin_nombre_19"/><linearGradient id="Degradado_sin_nombre_82-15" x1="330.15" y1="243.46" x2="348.89" y2="243.46" xlink:href="#Degradado_sin_nombre_82"/><linearGradient id="Degradado_sin_nombre_45-17" x1="330.15" y1="240.86" x2="354.26" y2="240.86" xlink:href="#Degradado_sin_nombre_45"/><linearGradient id="Degradado_sin_nombre_19-17" x1="370.07" y1="259.54" x2="375.44" y2="259.54" xlink:href="#Degradado_sin_nombre_19"/><linearGradient id="Degradado_sin_nombre_82-16" x1="351.33" y1="255.69" x2="370.07" y2="255.69" xlink:href="#Degradado_sin_nombre_82"/><linearGradient id="Degradado_sin_nombre_45-18" x1="351.34" y1="253.09" x2="375.44" y2="253.09" xlink:href="#Degradado_sin_nombre_45"/><linearGradient id="Degradado_sin_nombre_19-18" x1="391.25" y1="271.77" x2="396.63" y2="271.77" xlink:href="#Degradado_sin_nombre_19"/><linearGradient id="Degradado_sin_nombre_82-17" x1="372.52" y1="267.92" x2="391.26" y2="267.92" xlink:href="#Degradado_sin_nombre_82"/><linearGradient id="Degradado_sin_nombre_45-19" x1="372.53" y1="265.33" x2="396.63" y2="265.33" xlink:href="#Degradado_sin_nombre_45"/><linearGradient id="Degradado_sin_nombre_19-19" x1="412.43" y1="284" x2="417.81" y2="284" xlink:href="#Degradado_sin_nombre_19"/><linearGradient id="Degradado_sin_nombre_82-18" x1="393.71" y1="280.15" x2="412.44" y2="280.15" xlink:href="#Degradado_sin_nombre_82"/><linearGradient id="Degradado_sin_nombre_45-20" x1="393.71" y1="277.56" x2="417.81" y2="277.56" xlink:href="#Degradado_sin_nombre_45"/><linearGradient id="Degradado_sin_nombre_19-20" x1="233.23" y1="191.81" x2="238.62" y2="191.81" xlink:href="#Degradado_sin_nombre_19"/><linearGradient id="Degradado_sin_nombre_82-19" x1="214.5" y1="187.96" x2="233.24" y2="187.96" xlink:href="#Degradado_sin_nombre_82"/><linearGradient id="Degradado_sin_nombre_45-21" x1="214.51" y1="185.36" x2="238.62" y2="185.36" xlink:href="#Degradado_sin_nombre_45"/><linearGradient id="Degradado_sin_nombre_19-21" x1="254.42" y1="204.04" x2="259.8" y2="204.04" xlink:href="#Degradado_sin_nombre_19"/><linearGradient id="Degradado_sin_nombre_82-20" x1="235.68" y1="200.19" x2="254.42" y2="200.19" xlink:href="#Degradado_sin_nombre_82"/><linearGradient id="Degradado_sin_nombre_45-22" x1="235.69" y1="197.59" x2="259.8" y2="197.59" xlink:href="#Degradado_sin_nombre_45"/><linearGradient id="Degradado_sin_nombre_19-22" x1="275.6" y1="216.27" x2="280.99" y2="216.27" xlink:href="#Degradado_sin_nombre_19"/><linearGradient id="Degradado_sin_nombre_82-21" x1="256.87" y1="212.42" x2="275.61" y2="212.42" xlink:href="#Degradado_sin_nombre_82"/><linearGradient id="Degradado_sin_nombre_45-23" x1="256.87" y1="209.82" x2="280.99" y2="209.82" xlink:href="#Degradado_sin_nombre_45"/><linearGradient id="Degradado_sin_nombre_19-23" x1="296.79" y1="228.5" x2="302.17" y2="228.5" xlink:href="#Degradado_sin_nombre_19"/><linearGradient id="Degradado_sin_nombre_82-22" x1="278.05" y1="224.65" x2="296.79" y2="224.65" xlink:href="#Degradado_sin_nombre_82"/><linearGradient id="Degradado_sin_nombre_45-24" x1="278.06" y1="222.05" x2="302.17" y2="222.05" xlink:href="#Degradado_sin_nombre_45"/><linearGradient id="Degradado_sin_nombre_19-24" x1="317.97" y1="240.73" x2="323.36" y2="240.73" xlink:href="#Degradado_sin_nombre_19"/><linearGradient id="Degradado_sin_nombre_82-23" x1="299.23" y1="236.88" x2="317.98" y2="236.88" xlink:href="#Degradado_sin_nombre_82"/><linearGradient id="Degradado_sin_nombre_45-25" x1="299.24" y1="234.29" x2="323.36" y2="234.29" xlink:href="#Degradado_sin_nombre_45"/><linearGradient id="Degradado_sin_nombre_19-25" x1="339.15" y1="252.96" x2="344.54" y2="252.96" xlink:href="#Degradado_sin_nombre_19"/><linearGradient id="Degradado_sin_nombre_82-24" x1="320.42" y1="249.11" x2="339.16" y2="249.11" xlink:href="#Degradado_sin_nombre_82"/><linearGradient id="Degradado_sin_nombre_45-26" x1="320.42" y1="246.52" x2="344.54" y2="246.52" xlink:href="#Degradado_sin_nombre_45"/><linearGradient id="Degradado_sin_nombre_19-26" x1="360.34" y1="265.19" x2="365.72" y2="265.19" xlink:href="#Degradado_sin_nombre_19"/><linearGradient id="Degradado_sin_nombre_82-25" x1="341.6" y1="261.34" x2="360.34" y2="261.34" xlink:href="#Degradado_sin_nombre_82"/><linearGradient id="Degradado_sin_nombre_45-27" x1="341.61" y1="258.75" x2="365.72" y2="258.75" xlink:href="#Degradado_sin_nombre_45"/><linearGradient id="Degradado_sin_nombre_19-27" x1="381.52" y1="277.42" x2="386.91" y2="277.42" xlink:href="#Degradado_sin_nombre_19"/><linearGradient id="Degradado_sin_nombre_82-26" x1="362.79" y1="273.58" x2="381.53" y2="273.58" xlink:href="#Degradado_sin_nombre_82"/><linearGradient id="Degradado_sin_nombre_45-28" x1="362.8" y1="270.98" x2="386.91" y2="270.98" xlink:href="#Degradado_sin_nombre_45"/><linearGradient id="Degradado_sin_nombre_19-28" x1="402.7" y1="289.65" x2="408.09" y2="289.65" xlink:href="#Degradado_sin_nombre_19"/><linearGradient id="Degradado_sin_nombre_82-27" x1="383.98" y1="285.81" x2="402.71" y2="285.81" xlink:href="#Degradado_sin_nombre_82"/><linearGradient id="Degradado_sin_nombre_45-29" x1="383.98" y1="283.21" x2="408.09" y2="283.21" xlink:href="#Degradado_sin_nombre_45"/><linearGradient id="Degradado_sin_nombre_19-29" x1="223.51" y1="197.46" x2="228.89" y2="197.46" xlink:href="#Degradado_sin_nombre_19"/><linearGradient id="Degradado_sin_nombre_82-28" x1="204.78" y1="193.61" x2="223.52" y2="193.61" xlink:href="#Degradado_sin_nombre_82"/><linearGradient id="Degradado_sin_nombre_45-30" x1="204.78" y1="191.02" x2="228.89" y2="191.02" xlink:href="#Degradado_sin_nombre_45"/><linearGradient id="Degradado_sin_nombre_19-30" x1="244.7" y1="209.69" x2="250.07" y2="209.69" xlink:href="#Degradado_sin_nombre_19"/><linearGradient id="Degradado_sin_nombre_82-29" x1="225.96" y1="205.84" x2="244.7" y2="205.84" xlink:href="#Degradado_sin_nombre_82"/><linearGradient id="Degradado_sin_nombre_45-31" x1="225.97" y1="203.25" x2="250.07" y2="203.25" xlink:href="#Degradado_sin_nombre_45"/><linearGradient id="Degradado_sin_nombre_19-31" x1="265.88" y1="221.92" x2="271.26" y2="221.92" xlink:href="#Degradado_sin_nombre_19"/><linearGradient id="Degradado_sin_nombre_82-30" x1="247.15" y1="218.07" x2="265.89" y2="218.07" xlink:href="#Degradado_sin_nombre_82"/><linearGradient id="Degradado_sin_nombre_45-32" x1="247.15" y1="215.48" x2="271.26" y2="215.48" xlink:href="#Degradado_sin_nombre_45"/><linearGradient id="Degradado_sin_nombre_19-32" x1="287.06" y1="234.15" x2="292.44" y2="234.15" xlink:href="#Degradado_sin_nombre_19"/><linearGradient id="Degradado_sin_nombre_82-31" x1="268.33" y1="230.3" x2="287.07" y2="230.3" xlink:href="#Degradado_sin_nombre_82"/><linearGradient id="Degradado_sin_nombre_45-33" x1="268.33" y1="227.71" x2="292.44" y2="227.71" xlink:href="#Degradado_sin_nombre_45"/><linearGradient id="Degradado_sin_nombre_19-33" x1="308.25" y1="246.38" x2="313.63" y2="246.38" xlink:href="#Degradado_sin_nombre_19"/><linearGradient id="Degradado_sin_nombre_82-32" x1="289.51" y1="242.53" x2="308.25" y2="242.53" xlink:href="#Degradado_sin_nombre_82"/><linearGradient id="Degradado_sin_nombre_45-34" x1="289.52" y1="239.94" x2="313.63" y2="239.94" xlink:href="#Degradado_sin_nombre_45"/><linearGradient id="Degradado_sin_nombre_19-34" x1="329.43" y1="258.61" x2="334.81" y2="258.61" xlink:href="#Degradado_sin_nombre_19"/><linearGradient id="Degradado_sin_nombre_82-33" x1="310.7" y1="254.76" x2="329.44" y2="254.76" xlink:href="#Degradado_sin_nombre_82"/><linearGradient id="Degradado_sin_nombre_45-35" x1="310.7" y1="252.17" x2="334.81" y2="252.17" xlink:href="#Degradado_sin_nombre_45"/><linearGradient id="Degradado_sin_nombre_19-35" x1="350.61" y1="270.84" x2="355.99" y2="270.84" xlink:href="#Degradado_sin_nombre_19"/><linearGradient id="Degradado_sin_nombre_82-34" x1="331.88" y1="266.99" x2="350.62" y2="266.99" xlink:href="#Degradado_sin_nombre_82"/><linearGradient id="Degradado_sin_nombre_45-36" x1="331.89" y1="264.4" x2="355.99" y2="264.4" xlink:href="#Degradado_sin_nombre_45"/><linearGradient id="Degradado_sin_nombre_19-36" x1="371.8" y1="283.07" x2="377.18" y2="283.07" xlink:href="#Degradado_sin_nombre_19"/><linearGradient id="Degradado_sin_nombre_82-35" x1="353.07" y1="279.23" x2="371.8" y2="279.23" xlink:href="#Degradado_sin_nombre_82"/><linearGradient id="Degradado_sin_nombre_45-37" x1="353.08" y1="276.63" x2="377.18" y2="276.63" xlink:href="#Degradado_sin_nombre_45"/><linearGradient id="Degradado_sin_nombre_19-37" x1="392.98" y1="295.3" x2="398.36" y2="295.3" xlink:href="#Degradado_sin_nombre_19"/><linearGradient id="Degradado_sin_nombre_82-36" x1="374.25" y1="291.46" x2="392.99" y2="291.46" xlink:href="#Degradado_sin_nombre_82"/><linearGradient id="Degradado_sin_nombre_45-38" x1="374.26" y1="288.86" x2="398.36" y2="288.86" xlink:href="#Degradado_sin_nombre_45"/><linearGradient id="Degradado_sin_nombre_19-38" x1="213.78" y1="203.11" x2="219.16" y2="203.11" xlink:href="#Degradado_sin_nombre_19"/><linearGradient id="Degradado_sin_nombre_82-37" x1="195.05" y1="199.27" x2="213.79" y2="199.27" xlink:href="#Degradado_sin_nombre_82"/><linearGradient id="Degradado_sin_nombre_45-39" x1="195.05" y1="196.67" x2="219.16" y2="196.67" xlink:href="#Degradado_sin_nombre_45"/><linearGradient id="Degradado_sin_nombre_19-39" x1="234.97" y1="215.34" x2="240.35" y2="215.34" xlink:href="#Degradado_sin_nombre_19"/><linearGradient id="Degradado_sin_nombre_82-38" x1="216.23" y1="211.5" x2="234.97" y2="211.5" xlink:href="#Degradado_sin_nombre_82"/><linearGradient id="Degradado_sin_nombre_45-40" x1="216.24" y1="208.9" x2="240.35" y2="208.9" xlink:href="#Degradado_sin_nombre_45"/><linearGradient id="Degradado_sin_nombre_19-40" x1="340.89" y1="276.5" x2="346.26" y2="276.5" xlink:href="#Degradado_sin_nombre_19"/><linearGradient id="Degradado_sin_nombre_82-39" x1="237.42" y1="248.19" x2="340.89" y2="248.19" xlink:href="#Degradado_sin_nombre_82"/><linearGradient id="Degradado_sin_nombre_45-41" x1="237.42" y1="245.59" x2="346.26" y2="245.59" xlink:href="#Degradado_sin_nombre_45"/><linearGradient id="Degradado_sin_nombre_19-41" x1="362.07" y1="288.73" x2="367.45" y2="288.73" xlink:href="#Degradado_sin_nombre_19"/><linearGradient id="Degradado_sin_nombre_82-40" x1="343.34" y1="284.88" x2="362.07" y2="284.88" xlink:href="#Degradado_sin_nombre_82"/><linearGradient id="Degradado_sin_nombre_45-42" x1="343.35" y1="282.28" x2="367.45" y2="282.28" xlink:href="#Degradado_sin_nombre_45"/><linearGradient id="Degradado_sin_nombre_19-42" x1="383.25" y1="300.96" x2="388.63" y2="300.96" xlink:href="#Degradado_sin_nombre_19"/><linearGradient id="Degradado_sin_nombre_82-41" x1="364.53" y1="297.11" x2="383.26" y2="297.11" xlink:href="#Degradado_sin_nombre_82"/><linearGradient id="Degradado_sin_nombre_45-43" x1="364.53" y1="294.52" x2="388.63" y2="294.52" xlink:href="#Degradado_sin_nombre_45"/><linearGradient id="Degradado_sin_nombre_19-43" x1="279.31" y1="288.08" x2="315.52" y2="288.08" xlink:href="#Degradado_sin_nombre_19"/><linearGradient id="Degradado_sin_nombre_45-44" x1="208.77" y1="266.68" x2="315.52" y2="266.68" xlink:href="#Degradado_sin_nombre_45"/><linearGradient id="Degradado_sin_nombre_41" x1="362.41" y1="195.38" x2="434.37" y2="195.38" gradientTransform="matrix(-1, 0, 0, 1, 571.13, 0)" gradientUnits="userSpaceOnUse"><stop offset="0" stop-color="#ffcfcf"/><stop offset="1" stop-color="#f55"/></linearGradient><linearGradient id="Degradado_sin_nombre_38" x1="358.89" y1="197.87" x2="427.21" y2="197.87" gradientTransform="matrix(-1, 0, 0, 1, 571.13, 0)" gradientUnits="userSpaceOnUse"><stop offset="0" stop-color="#a81d1d"/><stop offset="1" stop-color="#dd4545"/></linearGradient><linearGradient id="Degradado_sin_nombre_39" x1="363.32" y1="197.87" x2="422.78" y2="197.87" gradientTransform="matrix(-1, 0, 0, 1, 571.13, 0)" gradientUnits="userSpaceOnUse"><stop offset="0" stop-color="#dd4545"/><stop offset="1" stop-color="#a81d1d"/></linearGradient><linearGradient id="Degradado_sin_nombre_17-2" x1="433.61" y1="187.95" x2="433.61" y2="181.15" xlink:href="#Degradado_sin_nombre_17"/><linearGradient id="Degradado_sin_nombre_17-3" x1="376.84" y1="165.41" x2="434.37" y2="165.41" xlink:href="#Degradado_sin_nombre_17"/><linearGradient id="Degradado_sin_nombre_45-45" x1="376.82" y1="168.81" x2="432.87" y2="168.81" xlink:href="#Degradado_sin_nombre_45"/><linearGradient id="Degradado_sin_nombre_17-4" x1="433.61" y1="177.34" x2="433.61" y2="170.55" xlink:href="#Degradado_sin_nombre_17"/><linearGradient id="Degradado_sin_nombre_17-5" x1="376.84" y1="154.81" x2="434.37" y2="154.81" xlink:href="#Degradado_sin_nombre_17"/><linearGradient id="Degradado_sin_nombre_45-46" x1="376.82" y1="158.21" x2="432.87" y2="158.21" xlink:href="#Degradado_sin_nombre_45"/><linearGradient id="Degradado_sin_nombre_17-6" x1="433.61" y1="166.74" x2="433.61" y2="159.94" xlink:href="#Degradado_sin_nombre_17"/><linearGradient id="Degradado_sin_nombre_17-7" x1="376.84" y1="144.2" x2="434.37" y2="144.2" xlink:href="#Degradado_sin_nombre_17"/><linearGradient id="Degradado_sin_nombre_45-47" x1="376.82" y1="147.6" x2="432.87" y2="147.6" xlink:href="#Degradado_sin_nombre_45"/><linearGradient id="Degradado_sin_nombre_28" x1="380.13" y1="119.33" x2="387.89" y2="119.33" gradientTransform="matrix(-1, 0, 0, 1, 571.13, 0)" gradientUnits="userSpaceOnUse"><stop offset="0" stop-color="#ffdd31"/><stop offset="1" stop-color="#ff8e31"/></linearGradient><linearGradient id="Degradado_sin_nombre_45-48" x1="393.05" y1="126.65" x2="400.81" y2="126.65" xlink:href="#Degradado_sin_nombre_45"/><linearGradient id="Degradado_sin_nombre_47" x1="405.97" y1="133.98" x2="413.74" y2="133.98" gradientTransform="matrix(-1, 0, 0, 1, 571.13, 0)" gradientUnits="userSpaceOnUse"><stop offset="0" stop-color="#25a51e"/><stop offset="1" stop-color="#afffab"/></linearGradient><linearGradient id="Degradado_sin_nombre_38-2" x1="418.89" y1="141.3" x2="426.66" y2="141.3" xlink:href="#Degradado_sin_nombre_38"/><linearGradient id="Degradado_sin_nombre_72-2" x1="267.19" y1="204.76" x2="335.58" y2="204.76" xlink:href="#Degradado_sin_nombre_72"/><linearGradient id="Degradado_sin_nombre_72-3" x1="293.37" y1="141.64" x2="348.31" y2="141.64" xlink:href="#Degradado_sin_nombre_72"/><linearGradient id="Degradado_sin_nombre_63" x1="208.13" y1="219.45" x2="267.41" y2="219.45" gradientTransform="matrix(-1, 0, 0, 1, 571.13, 0)" gradientUnits="userSpaceOnUse"><stop offset="0" stop-color="#ffdec7"/><stop offset="1" stop-color="#fff"/></linearGradient><clipPath id="clip-path"><path class="cls-1" d="M303.72,235.52l59.06-34.33A39.82,39.82,0,0,1,359,199.3c-9.06-5.24-18.9-15.36-26.44-27.4-6.75-10.78-14.78-28.06-14.72-49.2.11-39.22-26.34-66.7-36-72.27L222.83,84.76c9.64,5.57,36.1,33,36,72.26-.06,21.15,8,38.43,14.72,49.2,7.55,12.05,17.38,22.17,26.45,27.4A37.66,37.66,0,0,0,303.72,235.52Z"/></clipPath><linearGradient id="Degradado_sin_nombre_63-2" x1="237.47" y1="218.23" x2="323.07" y2="69.97" xlink:href="#Degradado_sin_nombre_63"/><linearGradient id="Degradado_sin_nombre_64" x1="267.19" y1="161.23" x2="348.31" y2="161.23" gradientTransform="matrix(-1, 0, 0, 1, 571.13, 0)" gradientUnits="userSpaceOnUse"><stop offset="0" stop-color="#ddb397"/><stop offset="1" stop-color="#fff"/></linearGradient><clipPath id="clip-path-2"><path class="cls-1" d="M214.74,224.67c0-1,0-2.07,0-3.1a4,4,0,0,0-2.24-3h0c0,1,0,2.07,0,3.1,0-1,0-2.07,0-3.1a12.1,12.1,0,0,0-11,0,3.91,3.91,0,0,0-2.31,3.21v3.1a3.91,3.91,0,0,1,2.31-3.21,12.1,12.1,0,0,1,11,0A4,4,0,0,1,214.74,224.67Z"/></clipPath><clipPath id="clip-path-3"><path class="cls-1" d="M214.74,224.67a10.89,10.89,0,0,1,5.1,1.3c0-.91,0-1.83,0-2.74v-.36a10.89,10.89,0,0,0-5.1-1.3Z"/></clipPath><clipPath id="clip-path-4"><path class="cls-1" d="M214.75,224.9v-3.11a1.62,1.62,0,0,0,0-.22v3.1A1.77,1.77,0,0,1,214.75,224.9Z"/></clipPath><clipPath id="clip-path-5"><path class="cls-1" d="M219.84,226a3.87,3.87,0,0,1,2.27,3.17V226a3.85,3.85,0,0,0-2.27-3.16Z"/></clipPath><clipPath id="clip-path-6"><path class="cls-1" d="M206.54,226.08v3.11a3.91,3.91,0,0,1,2.3-3.22,11.42,11.42,0,0,1,5.89-1.3v-3.1a11.23,11.23,0,0,0-5.89,1.3A3.9,3.9,0,0,0,206.54,226.08Z"/></clipPath><clipPath id="clip-path-7"><path class="cls-1" d="M199.19,221.81v3.1a3.87,3.87,0,0,0,2.26,3.16,10.84,10.84,0,0,0,5.1,1.32v-3.1a11,11,0,0,1-5.1-1.32A3.89,3.89,0,0,1,199.19,221.81Z"/></clipPath><clipPath id="clip-path-8"><path class="cls-1" d="M214.75,224.9v-3.11a3.87,3.87,0,0,1-2.28,3.18,11.58,11.58,0,0,1-5.91,1.32v3.1a11.48,11.48,0,0,0,5.91-1.32A3.84,3.84,0,0,0,214.75,224.9Z"/></clipPath><clipPath id="clip-path-9"><path class="cls-1" d="M222.11,229.14V226a3.9,3.9,0,0,1-2.3,3.21,12.12,12.12,0,0,1-11,0,4,4,0,0,1-2.25-3v3.1a4,4,0,0,0,2.25,3,12.06,12.06,0,0,0,11,0A3.87,3.87,0,0,0,222.11,229.14Z"/></clipPath><clipPath id="clip-path-10"><path class="cls-1" d="M257.55,258v3.1a5.15,5.15,0,0,1,4.65,0V258A5.09,5.09,0,0,0,257.55,258Z"/></clipPath><clipPath id="clip-path-11"><path class="cls-1" d="M250.07,263.15v3.11a1.62,1.62,0,0,1,1-1.35V261.8A1.64,1.64,0,0,0,250.07,263.15Z"/></clipPath><clipPath id="clip-path-12"><path class="cls-1" d="M250.07,263.15v3.11a1.64,1.64,0,0,0,.95,1.34v-3.11A1.63,1.63,0,0,1,250.07,263.15Z"/></clipPath><clipPath id="clip-path-13"><path class="cls-1" d="M276.91,269.68a1.61,1.61,0,0,1,.95,1.34v-3.11a1.61,1.61,0,0,0-1-1.33Z"/></clipPath><clipPath id="clip-path-14"><path class="cls-1" d="M277.86,271v-3.11a1.64,1.64,0,0,1-1,1.36v3.11A1.64,1.64,0,0,0,277.86,271Z"/></clipPath><clipPath id="clip-path-15"><path class="cls-1" d="M265.72,273v3.11a5.13,5.13,0,0,0,4.64,0V273A5.1,5.1,0,0,1,265.72,273Z"/></clipPath><linearGradient id="Degradado_sin_nombre_28-2" x1="269.47" y1="246.81" x2="406.74" y2="246.81" xlink:href="#Degradado_sin_nombre_28"/><linearGradient id="Degradado_sin_nombre_17-8" x1="349.03" y1="226.06" x2="364.58" y2="226.06" xlink:href="#Degradado_sin_nombre_17"/><linearGradient id="Degradado_sin_nombre_84" x1="269.46" y1="277.24" x2="305.08" y2="277.24" gradientTransform="matrix(-1, 0, 0, 1, 571.13, 0)" gradientUnits="userSpaceOnUse"><stop offset="0" stop-color="#ffa233"/><stop offset="1" stop-color="#db7121"/></linearGradient><linearGradient id="Degradado_sin_nombre_82-42" x1="305.08" y1="259.48" x2="415.03" y2="259.48" xlink:href="#Degradado_sin_nombre_82"/><linearGradient id="Degradado_sin_nombre_82-43" x1="305.07" y1="290.57" x2="313.37" y2="290.57" xlink:href="#Degradado_sin_nombre_82"/><linearGradient id="Degradado_sin_nombre_84-2" x1="313.36" y1="269.55" x2="424.5" y2="269.55" xlink:href="#Degradado_sin_nombre_84"/><linearGradient id="Degradado_sin_nombre_72-4" x1="140.34" y1="223.95" x2="200.05" y2="223.95" xlink:href="#Degradado_sin_nombre_72"/><linearGradient id="Degradado_sin_nombre_81-4" x1="163.31" y1="219.55" x2="195.7" y2="219.55" xlink:href="#Degradado_sin_nombre_81"/><linearGradient id="Degradado_sin_nombre_81-5" x1="144.65" y1="223.56" x2="163.37" y2="223.56" xlink:href="#Degradado_sin_nombre_81"/><linearGradient id="Degradado_sin_nombre_81-6" x1="144.7" y1="204.69" x2="195.7" y2="204.69" xlink:href="#Degradado_sin_nombre_81"/><linearGradient id="Degradado_sin_nombre_41-2" x1="357.61" y1="71.76" x2="414.61" y2="71.76" xlink:href="#Degradado_sin_nombre_41"/><linearGradient id="Degradado_sin_nombre_38-3" x1="355.24" y1="74.11" x2="407.45" y2="74.11" xlink:href="#Degradado_sin_nombre_38"/><linearGradient id="Degradado_sin_nombre_39-2" x1="357.5" y1="72.35" x2="401.69" y2="72.35" xlink:href="#Degradado_sin_nombre_39"/><linearGradient id="Degradado_sin_nombre_32" x1="429.21" y1="116.19" x2="477.07" y2="116.19" gradientTransform="matrix(-1, 0, 0, 1, 571.13, 0)" gradientUnits="userSpaceOnUse"><stop offset="0" stop-color="#fff3c2"/><stop offset="1" stop-color="#ffe266"/></linearGradient><linearGradient id="Degradado_sin_nombre_33" x1="427.22" y1="118.15" x2="471.06" y2="118.15" gradientTransform="matrix(-1, 0, 0, 1, 571.13, 0)" gradientUnits="userSpaceOnUse"><stop offset="0" stop-color="#ff8e31"/><stop offset="1" stop-color="#ffc033"/></linearGradient><linearGradient id="Degradado_sin_nombre_28-3" x1="429.02" y1="116.4" x2="465.76" y2="116.4" xlink:href="#Degradado_sin_nombre_28"/><linearGradient id="Degradado_sin_nombre_19-44" x1="195.84" y1="109.41" x2="246.02" y2="109.41" xlink:href="#Degradado_sin_nombre_19"/><linearGradient id="Degradado_sin_nombre_45-49" x1="193.75" y1="111.47" x2="239.71" y2="111.47" xlink:href="#Degradado_sin_nombre_45"/><linearGradient id="Degradado_sin_nombre_82-44" x1="195.83" y1="108.47" x2="234.97" y2="108.47" xlink:href="#Degradado_sin_nombre_82"/></defs><g class="cls-2"><g id="Layer_2" data-name="Layer 2"><g id="Layer_1-2" data-name="Layer 1"><g class="cls-3"><path class="cls-4" d="M1.29,363.41H549.52c9.45-.06,12.11-71.71,11.79-80.12a391.67,391.67,0,0,0-14.23-90.44c-20-70-75-102.68-133-100.85-35.77,1.12-71.35,16.88-99.47,44.33-24.44,23.86-40.35,62-70.32,76.8-16,7.91-34,7.48-51.07,4.64-25.75-4.27-50.83-13.7-76.65-17.3S63.05,199.78,41.63,218c-17.36,14.75-28.85,38-34.82,62.66C5.12,287.6-3.13,363.41,1.29,363.41Z"/></g><g class="cls-2"><g class="cls-5"><path class="cls-6" d="M368,188l58.86,34.21a3.46,3.46,0,0,0,3.45,0l31.08-17.95a3.43,3.43,0,0,0,0-5.94L402.5,164.1a3.46,3.46,0,0,0-3.45,0L368,182A3.44,3.44,0,0,0,368,188Z"/></g><polygon class="cls-7" points="372.34 154.98 372.43 186.41 426.1 217.6 426.01 186.16 372.34 154.98"/><polygon class="cls-8" points="426.01 186.16 426.1 217.6 457.08 199.71 456.99 168.28 426.01 186.16"/><polygon class="cls-9" points="372.34 154.98 426.01 186.16 456.99 168.28 403.32 137.09 372.34 154.98"/><polygon class="cls-10" points="395.17 168.24 403.18 172.9 434.16 155.01 426.1 150.38 395.17 168.24"/><polygon class="cls-10" points="445.61 174.85 437.53 179.47 383.65 148.36 391.76 143.76 445.61 174.85"/></g><polygon class="cls-11" points="403.18 204.28 403.18 172.9 395.17 168.24 395.17 199.62 403.18 204.28"/><polygon class="cls-11" points="437.54 210.99 437.54 179.51 445.55 174.86 445.55 206.33 437.54 210.99"/><g class="cls-2"><path class="cls-12" d="M114.64,272.32a.43.43,0,0,0,0,.05,2.06,2.06,0,0,0,.21.42l0,.07a2.19,2.19,0,0,0,.36.39,2.55,2.55,0,0,0,.31.24c.1.06.17.13.28.19l119.07,69.2a12.86,12.86,0,0,0,1.23.62l.38.16q.5.21,1,.39l.38.13.67.19.51.14.72.15.49.1c.49.09,1,.16,1.48.21l.47,0,.88.06h1.27l.6,0,.66,0,.6,0,.65-.07.58-.08.69-.12.54-.11.81-.2.45-.12c.47-.14.94-.29,1.39-.47l.19-.08a14.26,14.26,0,0,0,1.76-.84l190.17-109.8c2.56-1.48,3.85-3.43,3.84-5.37l0,6.21c0,1.95-1.28,3.89-3.85,5.37L253.37,349.1a13.74,13.74,0,0,1-1.77.84l-.11.06-.07,0c-.45.18-.92.33-1.4.47l-.11,0-.33.08-.81.2-.22.05a3,3,0,0,1-.32.06l-.69.12-.28,0-.3,0-.65.07-.31,0h-.29l-.66,0-.33,0h-1.55l-.87-.06-.36,0-.11,0c-.5-.05-1-.12-1.48-.21h-.07l-.42-.09c-.24,0-.49-.09-.72-.15l-.51-.14-.68-.19-.14,0-.23-.09c-.35-.12-.69-.25-1-.39l-.37-.16a12.86,12.86,0,0,1-1.23-.62l-119.07-69.2-.06,0-.22-.16a2.55,2.55,0,0,1-.31-.24l0,0a1.58,1.58,0,0,1-.28-.3l0-.07-.05-.07a.83.83,0,0,1-.08-.12,1.51,1.51,0,0,1-.12-.26s0,0,0,0,0,0,0-.05,0-.1,0-.16a1.07,1.07,0,0,1,0-.25v0l0-6.21A1.42,1.42,0,0,0,114.64,272.32Z"/><path class="cls-13" d="M115.88,270c-1.75,1-1.76,2.65,0,3.66l119.07,69.2c5.08,2.95,13.32,2.95,18.42,0l190.17-109.8c5.1-2.94,5.13-7.72.06-10.67L324.5,153.22a7,7,0,0,0-6.32,0Z"/></g><g class="cls-2"><path class="cls-14" d="M103.54,122.56a1517965500073.08,1517965500073.08,0,0,1,0-.3c0-.06,0-.11,0-.16a.88.88,0,0,0,0-.16h0a.78.78,0,0,1,0-.16.94.94,0,0,1,0-.16l0-.17,0-.17a.65.65,0,0,1,0-.13h0v0a1,1,0,0,1,0-.16l.06-.16a1.42,1.42,0,0,1,0-.16l.07-.15a.61.61,0,0,1,0-.12h0v0s0-.1.07-.16,0-.11.08-.16.07-.13.1-.19.07-.14.11-.2l0,0,0,0c.07-.13.15-.25.23-.37s.13-.2.2-.29l.14-.19.12-.15a.86.86,0,0,0,.13-.14l.12-.14,0,0h0l.09-.1.13-.13.14-.13.14-.13.08-.06h0l.06,0,.13-.11a.71.71,0,0,0,.14-.1l.14-.09.13-.08,0,0L309,.43l.11,0,.13-.07.12-.06.13,0,.13-.05h0l.1,0,.13,0L310,0l.14,0h.45l.18,0h0A.65.65,0,0,1,311,.1l.26.11,5.37,3.12a1.47,1.47,0,0,0-.47-.17h0a1.61,1.61,0,0,0-.54,0h0a2.74,2.74,0,0,0-.59.13h0a3.63,3.63,0,0,0-.64.3L112.07,120.35a6.5,6.5,0,0,0-.63.44v0a5,5,0,0,0-.59.54h0c-.18.2-.36.41-.53.64h0c-.16.22-.32.46-.46.7l0,0a7.14,7.14,0,0,0-.37.73h0a6.16,6.16,0,0,0-.29.78h0a5.82,5.82,0,0,0-.18.78h0a5.09,5.09,0,0,0-.06.77l.39,137.72c0,.35,0,.69,0,1,0,0,0,.06,0,.09a7.39,7.39,0,0,0,.13.86.36.36,0,0,0,0,.11,5.77,5.77,0,0,0,.2.77c0,.05,0,.09,0,.14a6.47,6.47,0,0,0,.26.66l0,.07a4.8,4.8,0,0,0,.37.67,4.91,4.91,0,0,0,.64.79l.17.17a4.44,4.44,0,0,0,.78.59l-5.37-3.12a4.44,4.44,0,0,1-.78-.59l-.17-.17a4.91,4.91,0,0,1-.64-.79h0a5.56,5.56,0,0,1-.35-.64v0l0-.07c-.06-.14-.13-.28-.18-.43s0-.16-.08-.23,0-.09,0-.14a.56.56,0,0,1,0-.12c0-.15-.09-.31-.13-.47l0-.18a.36.36,0,0,1,0-.11l0-.16-.06-.45,0-.25s0-.06,0-.09,0-.07,0-.1l0-.44c0-.14,0-.29,0-.44v0l-.39-137.72Z"/><path class="cls-15" d="M112.07,120.35a7,7,0,0,0-3.16,5.48l.39,137.72c0,5.87,4.17,8.23,9.27,5.28L308.73,159c5.1-2.94,9.23-10.08,9.21-15.95L317.55,5.37c0-2-1.42-2.83-3.18-1.81Z"/><path class="cls-16" d="M115.66,123.47a6.73,6.73,0,0,0-3,5.28L113,256.51c0,5.66,4,7.94,9,5.1l183.41-105.9c4.92-2.84,8.91-9.73,8.89-15.39l-.38-127.76c0-1.94-1.38-2.72-3.06-1.75Z"/><g class="cls-17"><path class="cls-18" d="M123.06,124.46a6.25,6.25,0,0,0-2.82,4.88l.35,118.1c0,5.24,3.71,7.34,8.27,4.71L298.4,154.27c4.55-2.63,8.23-9,8.22-14.23l-.35-118.1c0-1.79-1.28-2.52-2.84-1.62Z"/></g></g><g class="cls-2"><polygon class="cls-19" points="313.06 177.91 313.06 179.97 318.44 183.1 318.43 181.03 313.06 177.91"/><polygon class="cls-20" points="318.43 181.03 318.44 183.1 337.17 172.28 337.17 170.21 318.43 181.03"/><polygon class="cls-21" points="313.06 177.91 318.43 181.03 337.17 170.21 331.79 167.09 313.06 177.91"/></g><g class="cls-2"><polygon class="cls-22" points="291.87 190.13 291.88 192.21 297.25 195.33 297.25 193.26 291.87 190.13"/><polygon class="cls-23" points="297.25 193.26 297.25 195.33 315.99 184.51 315.98 182.44 297.25 193.26"/><polygon class="cls-24" points="291.87 190.13 297.25 193.26 315.98 182.44 310.61 179.32 291.87 190.13"/></g><g class="cls-2"><polygon class="cls-25" points="270.69 202.37 270.7 204.44 276.07 207.56 276.06 205.49 270.69 202.37"/><polygon class="cls-26" points="276.06 205.49 276.07 207.56 294.8 196.74 294.8 194.67 276.06 205.49"/><polygon class="cls-27" points="270.69 202.37 276.06 205.49 294.8 194.67 289.43 191.55 270.69 202.37"/></g><g class="cls-2"><polygon class="cls-28" points="249.51 214.6 249.51 216.67 254.88 219.79 254.88 217.72 249.51 214.6"/><polygon class="cls-29" points="254.88 217.72 254.88 219.79 273.62 208.97 273.61 206.9 254.88 217.72"/><polygon class="cls-30" points="249.51 214.6 254.88 217.72 273.61 206.9 268.24 203.78 249.51 214.6"/></g><g class="cls-2"><polygon class="cls-31" points="228.32 226.83 228.33 228.9 233.7 232.02 233.69 229.95 228.32 226.83"/><polygon class="cls-32" points="233.69 229.95 233.7 232.02 252.44 221.2 252.43 219.13 233.69 229.95"/><polygon class="cls-33" points="228.32 226.83 233.69 229.95 252.43 219.13 247.06 216.01 228.32 226.83"/></g><g class="cls-2"><polygon class="cls-34" points="207.14 239.06 207.15 241.13 212.52 244.25 212.51 242.18 207.14 239.06"/><polygon class="cls-35" points="212.51 242.18 212.52 244.25 231.25 233.43 231.25 231.36 212.51 242.18"/><polygon class="cls-36" points="207.14 239.06 212.51 242.18 231.25 231.36 225.87 228.24 207.14 239.06"/></g><g class="cls-2"><polygon class="cls-37" points="185.96 251.29 185.96 253.36 191.33 256.48 191.33 254.41 185.96 251.29"/><polygon class="cls-38" points="191.33 254.41 191.33 256.48 210.07 245.66 210.06 243.59 191.33 254.41"/><polygon class="cls-39" points="185.96 251.29 191.33 254.41 210.06 243.59 204.69 240.47 185.96 251.29"/></g><g class="cls-2"><polygon class="cls-40" points="164.77 263.52 164.78 265.59 170.15 268.71 170.14 266.64 164.77 263.52"/><polygon class="cls-41" points="170.14 266.64 170.15 268.71 188.88 257.9 188.87 255.83 170.14 266.64"/><polygon class="cls-42" points="164.77 263.52 170.14 266.64 188.87 255.83 183.5 252.71 164.77 263.52"/></g><g class="cls-2"><polygon class="cls-43" points="143.59 275.75 143.59 277.82 148.97 280.94 148.96 278.87 143.59 275.75"/><polygon class="cls-44" points="148.96 278.87 148.97 280.94 167.69 270.13 167.69 268.06 148.96 278.87"/><polygon class="cls-45" points="143.59 275.75 148.96 278.87 167.69 268.06 162.31 264.94 143.59 275.75"/></g><g class="cls-2"><polygon class="cls-46" points="322.79 183.56 322.79 185.63 328.17 188.75 328.16 186.68 322.79 183.56"/><polygon class="cls-47" points="328.16 186.68 328.17 188.75 346.9 177.94 346.89 175.86 328.16 186.68"/><polygon class="cls-48" points="322.79 183.56 328.16 186.68 346.89 175.86 341.52 172.74 322.79 183.56"/></g><g class="cls-2"><polygon class="cls-49" points="301.6 195.79 301.61 197.86 306.98 200.98 306.98 198.91 301.6 195.79"/><polygon class="cls-50" points="306.98 198.91 306.98 200.98 325.72 190.16 325.71 188.09 306.98 198.91"/><polygon class="cls-51" points="301.6 195.79 306.98 198.91 325.71 188.09 320.34 184.97 301.6 195.79"/></g><g class="cls-2"><polygon class="cls-52" points="280.42 208.02 280.43 210.09 285.8 213.21 285.79 211.14 280.42 208.02"/><polygon class="cls-53" points="285.79 211.14 285.8 213.21 304.53 202.4 304.53 200.32 285.79 211.14"/><polygon class="cls-54" points="280.42 208.02 285.79 211.14 304.53 200.32 299.15 197.2 280.42 208.02"/></g><g class="cls-2"><polygon class="cls-55" points="259.24 220.25 259.24 222.32 264.61 225.44 264.61 223.37 259.24 220.25"/><polygon class="cls-56" points="264.61 223.37 264.61 225.44 283.35 214.63 283.34 212.56 264.61 223.37"/><polygon class="cls-57" points="259.24 220.25 264.61 223.37 283.34 212.56 277.97 209.43 259.24 220.25"/></g><g class="cls-2"><polygon class="cls-58" points="238.05 232.48 238.06 234.55 243.43 237.67 243.43 235.6 238.05 232.48"/><polygon class="cls-59" points="243.43 235.6 243.43 237.67 262.17 226.86 262.16 224.79 243.43 235.6"/><polygon class="cls-60" points="238.05 232.48 243.43 235.6 262.16 224.79 256.79 221.66 238.05 232.48"/></g><g class="cls-2"><polygon class="cls-61" points="216.87 244.71 216.88 246.78 222.25 249.9 222.24 247.83 216.87 244.71"/><polygon class="cls-62" points="222.24 247.83 222.25 249.9 240.98 239.09 240.98 237.02 222.24 247.83"/><polygon class="cls-63" points="216.87 244.71 222.24 247.83 240.98 237.02 235.6 233.89 216.87 244.71"/></g><g class="cls-2"><polygon class="cls-64" points="195.69 256.94 195.69 259.01 201.06 262.13 201.06 260.06 195.69 256.94"/><polygon class="cls-65" points="201.06 260.06 201.06 262.13 219.8 251.32 219.79 249.25 201.06 260.06"/><polygon class="cls-66" points="195.69 256.94 201.06 260.06 219.79 249.25 214.42 246.13 195.69 256.94"/></g><g class="cls-2"><polygon class="cls-67" points="174.5 269.17 174.51 271.24 179.88 274.36 179.87 272.29 174.5 269.17"/><polygon class="cls-68" points="179.87 272.29 179.88 274.36 198.61 263.55 198.6 261.48 179.87 272.29"/><polygon class="cls-69" points="174.5 269.17 179.87 272.29 198.6 261.48 193.23 258.36 174.5 269.17"/></g><g class="cls-2"><polygon class="cls-70" points="153.32 281.4 153.32 283.47 158.7 286.59 158.69 284.52 153.32 281.4"/><polygon class="cls-71" points="158.69 284.52 158.7 286.59 177.42 275.78 177.42 273.71 158.69 284.52"/><polygon class="cls-72" points="153.32 281.4 158.69 284.52 177.42 273.71 172.04 270.59 153.32 281.4"/></g><g class="cls-2"><polygon class="cls-73" points="332.51 189.21 332.51 191.28 337.89 194.41 337.89 192.34 332.51 189.21"/><polygon class="cls-74" points="337.89 192.34 337.89 194.41 356.63 183.59 356.62 181.52 337.89 192.34"/><polygon class="cls-75" points="332.51 189.21 337.89 192.34 356.62 181.52 351.24 178.39 332.51 189.21"/></g><g class="cls-2"><polygon class="cls-76" points="311.32 201.44 311.33 203.51 316.71 206.64 316.7 204.57 311.32 201.44"/><polygon class="cls-77" points="316.7 204.57 316.71 206.64 335.45 195.82 335.44 193.75 316.7 204.57"/><polygon class="cls-78" points="311.32 201.44 316.7 204.57 335.44 193.75 330.06 190.62 311.32 201.44"/></g><g class="cls-2"><polygon class="cls-79" points="290.14 213.67 290.15 215.74 295.53 218.87 295.52 216.8 290.14 213.67"/><polygon class="cls-80" points="295.52 216.8 295.53 218.87 314.26 208.05 314.26 205.98 295.52 216.8"/><polygon class="cls-81" points="290.14 213.67 295.52 216.8 314.26 205.98 308.88 202.85 290.14 213.67"/></g><g class="cls-2"><polygon class="cls-82" points="268.96 225.9 268.96 227.97 274.34 231.1 274.34 229.03 268.96 225.9"/><polygon class="cls-83" points="274.34 229.03 274.34 231.1 293.08 220.28 293.07 218.21 274.34 229.03"/><polygon class="cls-84" points="268.96 225.9 274.34 229.03 293.07 218.21 287.69 215.08 268.96 225.9"/></g><g class="cls-2"><polygon class="cls-85" points="247.77 238.13 247.78 240.2 253.16 243.33 253.15 241.26 247.77 238.13"/><polygon class="cls-86" points="253.15 241.26 253.16 243.33 271.89 232.51 271.89 230.44 253.15 241.26"/><polygon class="cls-87" points="247.77 238.13 253.15 241.26 271.89 230.44 266.51 227.31 247.77 238.13"/></g><g class="cls-2"><polygon class="cls-88" points="226.59 250.36 226.6 252.43 231.98 255.56 231.97 253.49 226.59 250.36"/><polygon class="cls-89" points="231.97 253.49 231.98 255.56 250.71 244.74 250.71 242.67 231.97 253.49"/><polygon class="cls-90" points="226.59 250.36 231.97 253.49 250.71 242.67 245.33 239.54 226.59 250.36"/></g><g class="cls-2"><polygon class="cls-91" points="205.41 262.59 205.41 264.66 210.79 267.79 210.79 265.72 205.41 262.59"/><polygon class="cls-92" points="210.79 265.72 210.79 267.79 229.53 256.97 229.52 254.9 210.79 265.72"/><polygon class="cls-93" points="205.41 262.59 210.79 265.72 229.52 254.9 224.14 251.77 205.41 262.59"/></g><g class="cls-2"><polygon class="cls-94" points="184.22 274.82 184.23 276.89 189.61 280.02 189.6 277.95 184.22 274.82"/><polygon class="cls-95" points="189.6 277.95 189.61 280.02 208.34 269.21 208.33 267.14 189.6 277.95"/><polygon class="cls-96" points="184.22 274.82 189.6 277.95 208.33 267.14 202.95 264.01 184.22 274.82"/></g><g class="cls-2"><polygon class="cls-97" points="163.04 287.05 163.04 289.12 168.43 292.25 168.42 290.18 163.04 287.05"/><polygon class="cls-98" points="168.42 290.18 168.43 292.25 187.15 281.44 187.15 279.37 168.42 290.18"/><polygon class="cls-99" points="163.04 287.05 168.42 290.18 187.15 279.37 181.77 276.24 163.04 287.05"/></g><g class="cls-2"><polygon class="cls-100" points="342.24 194.86 342.24 196.93 347.62 200.06 347.61 197.99 342.24 194.86"/><polygon class="cls-101" points="347.61 197.99 347.62 200.06 366.35 189.24 366.35 187.17 347.61 197.99"/><polygon class="cls-102" points="342.24 194.86 347.61 197.99 366.35 187.17 360.97 184.05 342.24 194.86"/></g><g class="cls-2"><polygon class="cls-103" points="321.05 207.09 321.06 209.16 326.43 212.29 326.43 210.22 321.05 207.09"/><polygon class="cls-104" points="326.43 210.22 326.43 212.29 345.17 201.47 345.16 199.4 326.43 210.22"/><polygon class="cls-105" points="321.05 207.09 326.43 210.22 345.16 199.4 339.79 196.28 321.05 207.09"/></g><g class="cls-2"><polygon class="cls-106" points="299.87 219.32 299.88 221.39 305.25 224.52 305.24 222.45 299.87 219.32"/><polygon class="cls-107" points="305.24 222.45 305.25 224.52 323.98 213.7 323.98 211.63 305.24 222.45"/><polygon class="cls-108" points="299.87 219.32 305.24 222.45 323.98 211.63 318.61 208.51 299.87 219.32"/></g><g class="cls-2"><polygon class="cls-109" points="278.69 231.55 278.69 233.62 284.06 236.75 284.06 234.68 278.69 231.55"/><polygon class="cls-110" points="284.06 234.68 284.06 236.75 302.8 225.93 302.8 223.86 284.06 234.68"/><polygon class="cls-111" points="278.69 231.55 284.06 234.68 302.8 223.86 297.42 220.74 278.69 231.55"/></g><g class="cls-2"><polygon class="cls-112" points="257.5 243.78 257.51 245.85 262.88 248.98 262.88 246.91 257.5 243.78"/><polygon class="cls-113" points="262.88 246.91 262.88 248.98 281.62 238.16 281.61 236.09 262.88 246.91"/><polygon class="cls-114" points="257.5 243.78 262.88 246.91 281.61 236.09 276.24 232.97 257.5 243.78"/></g><g class="cls-2"><polygon class="cls-115" points="236.32 256.01 236.33 258.08 241.7 261.21 241.69 259.14 236.32 256.01"/><polygon class="cls-116" points="241.69 259.14 241.7 261.21 260.43 250.39 260.43 248.32 241.69 259.14"/><polygon class="cls-117" points="236.32 256.01 241.69 259.14 260.43 248.32 255.06 245.2 236.32 256.01"/></g><g class="cls-2"><polygon class="cls-118" points="215.14 268.25 215.14 270.31 220.51 273.44 220.51 271.37 215.14 268.25"/><polygon class="cls-119" points="220.51 271.37 220.51 273.44 239.25 262.62 239.24 260.55 220.51 271.37"/><polygon class="cls-120" points="215.14 268.25 220.51 271.37 239.24 260.55 233.87 257.43 215.14 268.25"/></g><g class="cls-2"><polygon class="cls-121" points="193.95 280.48 193.96 282.55 199.33 285.67 199.32 283.6 193.95 280.48"/><polygon class="cls-122" points="199.32 283.6 199.33 285.67 218.06 274.86 218.05 272.79 199.32 283.6"/><polygon class="cls-123" points="193.95 280.48 199.32 283.6 218.05 272.79 212.68 269.66 193.95 280.48"/></g><g class="cls-2"><polygon class="cls-124" points="172.77 292.71 172.78 294.78 178.15 297.9 178.14 295.83 172.77 292.71"/><polygon class="cls-125" points="178.14 295.83 178.15 297.9 196.87 287.09 196.87 285.02 178.14 295.83"/><polygon class="cls-126" points="172.77 292.71 178.14 295.83 196.87 285.02 191.5 281.89 172.77 292.71"/></g><g class="cls-2"><polygon class="cls-127" points="351.97 200.52 351.97 202.59 357.35 205.71 357.34 203.64 351.97 200.52"/><polygon class="cls-128" points="357.34 203.64 357.35 205.71 376.08 194.89 376.07 192.82 357.34 203.64"/><polygon class="cls-129" points="351.97 200.52 357.34 203.64 376.07 192.82 370.7 189.7 351.97 200.52"/></g><g class="cls-2"><polygon class="cls-130" points="330.78 212.75 330.79 214.82 336.16 217.94 336.16 215.87 330.78 212.75"/><polygon class="cls-131" points="336.16 215.87 336.16 217.94 354.9 207.12 354.89 205.05 336.16 215.87"/><polygon class="cls-132" points="330.78 212.75 336.16 215.87 354.89 205.05 349.52 201.93 330.78 212.75"/></g><g class="cls-2"><polygon class="cls-133" points="224.87 273.9 224.87 275.97 230.24 279.09 230.24 277.02 224.87 273.9"/><polygon class="cls-134" points="230.24 277.02 230.24 279.09 333.71 219.35 333.71 217.28 230.24 277.02"/><polygon class="cls-135" points="224.87 273.9 230.24 277.02 333.71 217.28 328.34 214.16 224.87 273.9"/></g><g class="cls-2"><polygon class="cls-136" points="203.68 286.13 203.69 288.2 209.06 291.32 209.06 289.25 203.68 286.13"/><polygon class="cls-137" points="209.06 289.25 209.06 291.32 227.79 280.51 227.78 278.44 209.06 289.25"/><polygon class="cls-138" points="203.68 286.13 209.06 289.25 227.78 278.44 222.41 275.32 203.68 286.13"/></g><g class="cls-2"><polygon class="cls-139" points="182.5 298.36 182.5 300.43 187.88 303.55 187.87 301.48 182.5 298.36"/><polygon class="cls-140" points="187.87 301.48 187.88 303.55 206.6 292.74 206.6 290.67 187.87 301.48"/><polygon class="cls-141" points="182.5 298.36 187.87 301.48 206.6 290.67 201.23 287.55 182.5 298.36"/></g><g class="cls-2"><polygon class="cls-142" points="255.61 276.52 255.62 278.6 291.82 299.63 291.81 297.56 255.61 276.52"/><polygon class="cls-143" points="255.61 276.52 291.81 297.56 362.36 256.83 326.16 235.79 255.61 276.52"/></g><g class="cls-2"><path class="cls-144" d="M136.77,212.89l0-.59a2.45,2.45,0,0,1,0-.27v-.11c0-.07,0-.14,0-.21s0-.39.07-.59.05-.4.09-.6v0c0-.19.07-.38.1-.58s.08-.42.13-.63,0-.14.05-.22l0-.13a2.86,2.86,0,0,1,.07-.28c.05-.21.11-.43.17-.64l.13-.46,0-.09s0-.06,0-.09l.2-.62c.07-.21.14-.41.22-.62,0,0,0-.07,0-.11l0-.09.15-.39c.08-.19.15-.39.24-.59a3.79,3.79,0,0,1,.18-.42l0-.07,0-.08.27-.58c.1-.22.2-.43.31-.64a.47.47,0,0,1,0-.1l.06-.12.26-.51c.11-.21.23-.41.35-.62s.11-.21.18-.31a.83.83,0,0,1,.07-.13c.1-.18.22-.35.33-.52s.32-.53.48-.78l.08-.12c.25-.37.5-.73.76-1.09h0c.17-.24.35-.48.53-.71l.45-.55v0h0c.15-.19.31-.37.47-.55s.31-.35.47-.52l.07-.08.09-.09.33-.35.51-.5.16-.15.12-.11.25-.24.54-.46.24-.2.12-.1.17-.14.53-.41.39-.27.07-.06.07,0,.51-.34.51-.31.12-.07L193,167.08l.39-.21.49-.26.32-.15.08,0,.09,0,.48-.21.49-.18.08,0,.08,0,.33-.11.49-.13.24-.06.11,0,.15,0a4.89,4.89,0,0,1,.53-.09l.32,0,.11,0h.11l.56,0,.25,0H199l.7.1h0l.14,0a5.41,5.41,0,0,1,.69.19l0,0a6.52,6.52,0,0,1,.93.43l7.16,4.16a6.52,6.52,0,0,0-.93-.43,6.09,6.09,0,0,0-.73-.21l-.15,0a6.66,6.66,0,0,0-.91-.11h-.18c-.3,0-.61,0-.92,0l-.11,0a9.13,9.13,0,0,0-1,.15l-.1,0c-.35.08-.7.18-1.06.3l-.08,0c-.37.13-.76.29-1.14.46l-.08,0c-.4.18-.79.39-1.2.62L156,196.74c-.41.23-.81.49-1.21.77l-.07.05c-.37.26-.73.53-1.09.82l-.12.1c-.35.29-.7.59-1,.9l-.12.11c-.34.32-.68.65-1,1l-.09.09c-.35.37-.69.76-1,1.15v0c-.34.41-.67.83-1,1.26h0c-.29.39-.57.8-.84,1.21l-.48.78c-.14.21-.28.43-.41.65l-.17.31c-.21.38-.42.75-.61,1.13a.75.75,0,0,1-.07.12c-.23.47-.45.93-.65,1.4l0,.08c-.2.46-.38.92-.56,1.39l0,.09q-.27.72-.48,1.44l0,.09c-.14.46-.26.92-.37,1.38l0,.13c-.11.48-.2.95-.28,1.43v0c-.08.48-.13,1-.17,1.42v.11c0,.47-.06.94-.06,1.4s0,.9.07,1.33a.41.41,0,0,0,0,.11c0,.39.09.77.16,1.13l0,.14a9.93,9.93,0,0,0,.26,1l.06.17c.1.3.21.59.33.86l0,.1a6.18,6.18,0,0,0,.48.88.86.86,0,0,0,.07.1,7.74,7.74,0,0,0,.47.62l.19.21a4.57,4.57,0,0,0,.45.43l.2.17a4.88,4.88,0,0,0,.7.49l-7.16-4.16a4.88,4.88,0,0,1-.7-.49l-.2-.17a4.57,4.57,0,0,1-.45-.43l-.19-.21a7.74,7.74,0,0,1-.47-.62l-.07-.1,0,0a9.32,9.32,0,0,1-.45-.83v0a.3.3,0,0,1,0-.1,4.72,4.72,0,0,1-.24-.56,2.64,2.64,0,0,1-.1-.3l-.06-.17a1.42,1.42,0,0,1,0-.16c-.06-.2-.11-.41-.16-.62s0-.15-.05-.23l0-.14c0-.08,0-.15,0-.22l-.09-.58,0-.33a.41.41,0,0,1,0-.11s0-.09,0-.14,0-.38,0-.57,0-.39,0-.58v0C136.76,213.25,136.76,213.07,136.77,212.89Z"/><path class="cls-145" d="M156,196.74c-6.67,3.85-12.06,13.18-12,20.85s5.45,10.76,12.12,6.91L200.2,199c6.67-3.85,12.06-13.19,12-20.85s-5.45-10.76-12.12-6.91Z"/><path class="cls-146" d="M158.83,196.88c-5.81,3.36-10.5,11.48-10.48,18.15s4.74,9.37,10.55,6l38.43-22.18c5.81-3.36,10.5-11.48,10.48-18.15s-4.74-9.37-10.55-6Z"/></g><polygon class="cls-147" points="134.76 179.4 134.78 185.32 190.81 152.97 190.79 147.04 134.76 179.4"/><polygon class="cls-147" points="134.76 168.79 134.78 174.72 190.81 142.37 190.79 136.44 134.76 168.79"/><polygon class="cls-147" points="134.76 158.19 134.78 164.11 190.81 131.76 190.79 125.84 134.76 158.19"/><g class="cls-2"><polygon class="cls-148" points="138.26 182.02 136.76 181.15 136.78 187.07 138.28 187.95 138.26 182.02"/><polygon class="cls-149" points="194.29 149.67 192.79 148.8 136.76 181.15 138.26 182.02 194.29 149.67"/><polygon class="cls-150" points="138.26 182.02 138.28 187.95 194.31 155.6 194.29 149.67 138.26 182.02"/></g><g class="cls-2"><polygon class="cls-151" points="138.26 171.42 136.76 170.55 136.78 176.47 138.28 177.34 138.26 171.42"/><polygon class="cls-152" points="194.29 139.07 192.79 138.2 136.76 170.55 138.26 171.42 194.29 139.07"/><polygon class="cls-153" points="138.26 171.42 138.28 177.34 194.31 144.99 194.29 139.07 138.26 171.42"/></g><g class="cls-2"><polygon class="cls-154" points="138.26 160.81 136.76 159.94 136.78 165.87 138.28 166.74 138.26 160.81"/><polygon class="cls-155" points="194.29 128.46 192.79 127.59 136.76 159.94 138.26 160.81 194.29 128.46"/><polygon class="cls-156" points="138.26 160.81 138.28 166.74 194.31 134.39 194.29 128.46 138.26 160.81"/></g><g class="cls-2"><path class="cls-157" d="M182.34,120.88a1.21,1.21,0,0,0,0-.19c0-.06,0-.12,0-.19a1.37,1.37,0,0,1,0-.19l0-.19h0l0-.18c0-.06,0-.13,0-.2l0-.2c0-.07,0-.14.05-.21s0-.11,0-.16v0c0-.07,0-.14.07-.2a1.18,1.18,0,0,1,.07-.2,1.07,1.07,0,0,1,.07-.19c0-.07,0-.13.07-.19l.07-.15h0v0l.09-.19c0-.07.07-.13.1-.2l.12-.24c0-.08.09-.16.14-.24l0,0,0,0,.29-.46.24-.34h0l.17-.23.15-.18.15-.18.15-.17,0,0v0l.12-.12.16-.16.18-.16.17-.15.08-.07,0,0,.07,0,.17-.13.17-.12.16-.11.17-.1,0,0,.13-.07a.8.8,0,0,1,.16-.08l.15-.08.16-.06A.44.44,0,0,1,187,114h0l.11,0,.16,0,.16,0,.17,0h.56l.22,0h0l.26.07a1.87,1.87,0,0,1,.32.15l.89.52a1.88,1.88,0,0,0-.57-.22h0a2.74,2.74,0,0,0-.65,0h0a3.31,3.31,0,0,0-.72.15h0a3.83,3.83,0,0,0-.78.36,5.55,5.55,0,0,0-.77.53l0,0a6.31,6.31,0,0,0-.71.66l0,0a8.39,8.39,0,0,0-.65.78h0c-.2.28-.39.57-.56.86l0,.05a9.44,9.44,0,0,0-.45.9h0c-.13.32-.25.63-.35,1v0a8.36,8.36,0,0,0-.23,1h0a6,6,0,0,0-.07.94,4.44,4.44,0,0,0,.08.84v0a3.49,3.49,0,0,0,.22.69h0a2.31,2.31,0,0,0,.29.45l.11.13a1.57,1.57,0,0,0,.42.35l-.9-.52a2,2,0,0,1-.42-.35l-.11-.13c0-.06-.1-.11-.14-.18a2.15,2.15,0,0,1-.14-.26h0l-.09-.2-.06-.21-.06-.19s0-.06,0-.09v0s0-.06,0-.08a1.25,1.25,0,0,1,0-.19,1.11,1.11,0,0,1,0-.19,1.09,1.09,0,0,1,0-.18,1.15,1.15,0,0,1,0-.19h0Z"/><path class="cls-158" d="M187.11,114.87a8.52,8.52,0,0,0-3.87,6.7c0,2.47,1.75,3.46,3.89,2.22a8.49,8.49,0,0,0,3.87-6.7C191,114.63,189.26,113.63,187.11,114.87Z"/></g><g class="cls-2"><path class="cls-159" d="M169.42,128.2c0-.06,0-.12,0-.19a32.19,32.19,0,0,0,0-.37,1.36,1.36,0,0,1,0-.2h0l0-.18a1.55,1.55,0,0,1,0-.21,1.94,1.94,0,0,1,.05-.2,1.6,1.6,0,0,1,0-.21s0-.1.05-.16h0v0a1.59,1.59,0,0,1,.07-.2l.06-.2c0-.06,0-.13.08-.19l.07-.19.06-.14v-.05l.09-.18a2,2,0,0,1,.1-.21l.12-.23a2,2,0,0,1,.14-.25l0,0,0,0c.09-.16.19-.32.29-.47l.24-.34h0l.17-.22.15-.19.15-.17.15-.17,0,0h0l.12-.13.16-.16.17-.16.17-.15.09-.07h0l.07-.06.17-.13.16-.12.17-.11.16-.1,0,0,.12-.07.16-.08.16-.08.16-.06.15-.06h0l.12,0,.16,0,.16,0,.17,0h.55a1.81,1.81,0,0,1,.23,0h0l.26.07a1.77,1.77,0,0,1,.31.15l.9.52a2.32,2.32,0,0,0-.57-.22h0a2.4,2.4,0,0,0-.66,0h0a2.84,2.84,0,0,0-.72.16h0a4.9,4.9,0,0,0-.78.36,5,5,0,0,0-.78.54h0a8.84,8.84,0,0,0-.71.67h0a7.19,7.19,0,0,0-.65.79h0a8.46,8.46,0,0,0-.56.86l0,0c-.17.29-.32.6-.46.9h0a7.42,7.42,0,0,0-.35,1h0a8.3,8.3,0,0,0-.22,1h0a6.17,6.17,0,0,0-.08.94,5.21,5.21,0,0,0,.08.84v0a2.66,2.66,0,0,0,.22.69h0a2.49,2.49,0,0,0,.29.45l.11.14a2,2,0,0,0,.43.34l-.9-.52a2,2,0,0,1-.42-.34l-.11-.14a2.09,2.09,0,0,1-.14-.17l-.15-.27h0c0-.06-.05-.13-.08-.2s0-.13-.07-.2l0-.2s0-.06,0-.09v0s0-.05,0-.08l0-.19c0-.06,0-.12,0-.18s0-.12,0-.19v-.37Z"/><path class="cls-160" d="M174.19,122.19a8.56,8.56,0,0,0-3.88,6.7c0,2.47,1.76,3.46,3.9,2.22a8.49,8.49,0,0,0,3.87-6.7C178.07,122,176.33,121,174.19,122.19Z"/></g><g class="cls-2"><path class="cls-161" d="M156.5,135.52a1.09,1.09,0,0,1,0-.18c0-.07,0-.13,0-.19a1.23,1.23,0,0,0,0-.19l0-.19h0a1.16,1.16,0,0,1,0-.18,1.18,1.18,0,0,1,0-.2c0-.07,0-.14,0-.21l.06-.2a1.09,1.09,0,0,1,.05-.17h0v0l.06-.2c0-.06,0-.13.07-.2s.05-.12.07-.19.05-.12.08-.19l.06-.14h0v0a1.54,1.54,0,0,0,.08-.19,2,2,0,0,0,.1-.21l.12-.23a2,2,0,0,0,.14-.25l0,0,0-.05c.09-.16.19-.31.29-.46s.16-.23.24-.35h0l.18-.23.15-.19.15-.17.15-.17,0,0h0l.12-.13.16-.16.17-.16.17-.15.09-.07h0l.06-.06a1.09,1.09,0,0,0,.17-.13l.17-.12.17-.1.16-.1,0,0,.12-.07.16-.08.16-.07.15-.07.16-.06h0l.12,0,.16,0,.15,0,.17,0h.56l.22,0h0l.26.07.31.14.89.52a1.77,1.77,0,0,0-.57-.21h0a2.31,2.31,0,0,0-.65,0h0a3.4,3.4,0,0,0-.71.16h0a5,5,0,0,0-.79.36,7.67,7.67,0,0,0-.77.54h0c-.24.21-.48.43-.71.67h0a8.27,8.27,0,0,0-.65.79h0a9.74,9.74,0,0,0-.56.86l0,0c-.17.3-.32.6-.46.91h0a8.41,8.41,0,0,0-.36,1h0a6.64,6.64,0,0,0-.22,1h0a6.07,6.07,0,0,0-.08.94,4.25,4.25,0,0,0,.08.83v0a2.71,2.71,0,0,0,.22.68h0a1.83,1.83,0,0,0,.29.45,1.71,1.71,0,0,0,.11.14,2,2,0,0,0,.42.35l-.89-.52a1.57,1.57,0,0,1-.42-.35.76.76,0,0,1-.11-.14.79.79,0,0,1-.14-.17,1.35,1.35,0,0,1-.15-.26v0h0a1.19,1.19,0,0,1-.08-.2,2.28,2.28,0,0,1-.12-.4s0,0,0-.08v0a.19.19,0,0,1,0-.08l0-.18c0-.06,0-.13,0-.19s0-.12,0-.18v-.19h0Z"/><path class="cls-162" d="M161.26,129.51a8.55,8.55,0,0,0-3.87,6.71c0,2.47,1.76,3.45,3.9,2.22a8.51,8.51,0,0,0,3.87-6.71C165.15,129.27,163.41,128.27,161.26,129.51Z"/></g><g class="cls-2"><path class="cls-163" d="M143.58,142.85a1.15,1.15,0,0,1,0-.19,1.21,1.21,0,0,1,0-.19c0-.06,0-.12,0-.19l0-.19h0l0-.18a1.18,1.18,0,0,0,0-.2c0-.07,0-.13.05-.2l.06-.21c0-.05,0-.11,0-.16v0l.06-.2a1.18,1.18,0,0,1,.07-.2c0-.07,0-.13.07-.19a1.08,1.08,0,0,1,.08-.19l.06-.15h0l0,0c0-.06.05-.12.08-.19l.1-.2.12-.24.14-.24,0-.05,0-.05.29-.46.24-.34h0l.17-.23.15-.18.15-.18.15-.17,0,0v0l.12-.12.17-.16a1.29,1.29,0,0,1,.17-.16l.17-.15.08-.07,0,0,.07,0,.17-.13.17-.12.16-.11.17-.1,0,0,.13-.07.16-.08.15-.08L148,136a.52.52,0,0,1,.16-.06h0l.11,0,.16,0,.16,0,.17,0h.56l.22,0h0l.25.07a1.87,1.87,0,0,1,.32.15l.89.52a1.58,1.58,0,0,0-.57-.22h0a2.3,2.3,0,0,0-.65,0h0a3.31,3.31,0,0,0-.72.15h0a3.83,3.83,0,0,0-.78.36,6.22,6.22,0,0,0-.77.53l0,0a6.31,6.31,0,0,0-.71.66v0a8.47,8.47,0,0,0-.66.78h0c-.2.28-.39.57-.56.86l0,0a7.62,7.62,0,0,0-.46.9h0c-.13.32-.25.63-.35,1v0a6.83,6.83,0,0,0-.22,1h0a5,5,0,0,0-.08.94,4.44,4.44,0,0,0,.08.84v0a3.49,3.49,0,0,0,.22.69h0a2.31,2.31,0,0,0,.29.45l.11.13a1.74,1.74,0,0,0,.42.35l-.89-.52a1.79,1.79,0,0,1-.43-.35l-.11-.13-.14-.18a2.15,2.15,0,0,1-.14-.26h0l-.09-.2-.06-.21a1.33,1.33,0,0,1,0-.19.29.29,0,0,1,0-.09v0s0-.06,0-.08l0-.19c0-.06,0-.12,0-.19s0-.12,0-.18,0-.12,0-.19h0A1,1,0,0,1,143.58,142.85Z"/><path class="cls-164" d="M148.34,136.84a8.52,8.52,0,0,0-3.87,6.7c0,2.47,1.75,3.46,3.9,2.22a8.55,8.55,0,0,0,3.87-6.7C152.23,136.6,150.49,135.6,148.34,136.84Z"/></g><path class="cls-165" d="M235.55,196.45a36.78,36.78,0,0,0,3.7,3l64.69,38.31-17.58-35.16-8.6-30.73Z"/><path class="cls-166" d="M222.82,86.83s0,67.15,0,84.42c0,12,7.89,20.86,12.72,25.2l42.21-24.63-14.88-53.19Z"/><g class="cls-2"><polygon class="cls-167" points="303.94 237.71 363 203.38 362.78 201.19 303.72 235.52 303.94 237.71"/><g class="cls-2"><g class="cls-168"><path class="cls-169" d="M281.89,50.43a45.22,45.22,0,0,1,8.38,6.79c1.38,1.36,2.83,2.89,4.3,4.58,1.09,1.25,2.2,2.6,3.31,4,.92,1.19,1.85,2.44,2.77,3.75.8,1.14,1.59,2.32,2.38,3.55s1.41,2.26,2.1,3.44,1.28,2.24,1.9,3.4,1.18,2.27,1.74,3.44,1.09,2.32,1.61,3.52,1,2.42,1.5,3.67,1,2.63,1.43,4,.95,3,1.37,4.47q.72,2.6,1.29,5.3c.48,2.25.88,4.57,1.19,6.93a86.54,86.54,0,0,1,.72,11.42,84.82,84.82,0,0,0,.69,11c.31,2.41.72,4.75,1.21,7,.38,1.8.82,3.57,1.3,5.28.42,1.54.88,3,1.37,4.5s.95,2.74,1.46,4.06,1,2.57,1.55,3.8,1.11,2.48,1.68,3.66,1.2,2.43,1.81,3.57,1.32,2.42,2,3.55c.56,1,1.12,1.89,1.67,2.77l.5.79c.8,1.25,1.63,2.49,2.48,3.69s1.9,2.64,2.88,3.91q1.71,2.22,3.51,4.28c1.51,1.74,3.06,3.4,4.63,5A63.33,63.33,0,0,0,359,199.3a39.82,39.82,0,0,0,3.74,1.89l-59.06,34.33a37.66,37.66,0,0,1-3.74-1.9,62.75,62.75,0,0,1-12.44-9.78q-2.35-2.33-4.64-5c-1.19-1.37-2.36-2.8-3.51-4.27-1-1.27-1.94-2.58-2.88-3.91s-1.67-2.44-2.47-3.7l-.51-.79c-.55-.88-1.11-1.8-1.67-2.77s-1.32-2.31-2-3.54-1.21-2.34-1.81-3.58-1.13-2.39-1.67-3.65-1-2.5-1.56-3.8-1-2.68-1.46-4.07-.94-3-1.37-4.49q-.72-2.58-1.3-5.29c-.48-2.27-.89-4.61-1.2-7a83.32,83.32,0,0,1-.7-11,84.82,84.82,0,0,0-.72-11.41c-.3-2.37-.7-4.68-1.18-6.94-.39-1.8-.82-3.57-1.3-5.29-.42-1.52-.88-3-1.36-4.47s-.93-2.68-1.43-4-1-2.47-1.5-3.67-1.06-2.37-1.61-3.52-1.15-2.31-1.75-3.43-1.25-2.3-1.9-3.41-1.39-2.32-2.1-3.44-1.58-2.41-2.38-3.55c-.92-1.3-1.84-2.56-2.77-3.75q-1.67-2.15-3.31-4c-1.47-1.69-2.91-3.22-4.29-4.58a45.09,45.09,0,0,0-8.38-6.78Z"/></g></g><path class="cls-170" d="M222.83,84.76v2.07C232,92.13,257.12,118.35,257,156c-.06,21.92,8.3,39.9,15.33,51.11,7.86,12.56,18.15,23.13,27.65,28.62a40.76,40.76,0,0,0,3.95,2l-.22-2.19a37.66,37.66,0,0,1-3.74-1.9c-9.07-5.23-18.9-15.35-26.45-27.4-6.75-10.77-14.78-28.05-14.72-49.2C258.93,117.8,232.47,90.33,222.83,84.76Z"/></g><path class="cls-171" d="M239.66,92l48.77-28.34,1.78,2L241.44,94.05l-1.78-2"/><path class="cls-171" d="M255.07,91.69,293.25,69.5l1.81,2.44L256.87,94.13l-1.8-2.44"/><path class="cls-171" d="M251.68,103.37l46.39-27,1.73,2.83-46.39,27-1.73-2.82"/><path class="cls-171" d="M253.83,112.68,302.6,84.34l1.56,3.19-48.77,28.34-1.56-3.19"/><path class="cls-171" d="M258.88,121l47.71-27.73,1.3,3.54-47.71,27.73-1.3-3.54"/><path class="cls-171" d="M264.68,129.22,309.79,103l.93,3.85-45.11,26.22-.93-3.85"/><path class="cls-171" d="M263.15,142l48.77-28.34.47,4.15-48.77,28.34-.47-4.15"/><path class="cls-171" d="M273.72,147.69l39-22.67c0,1.15,0,2.69,0,3.84l-39,22.67c0-1.15,0-2.69-.06-3.84"/><path class="cls-171" d="M264.46,163.35,313.23,135c.13,1.06.3,2.47.46,3.53l-48.77,28.34c-.14-1.06-.34-2.47-.46-3.53"/><path class="cls-171" d="M267.52,171.71q23.63-13.71,47.23-27.44c.23,1,.54,2.28.78,3.25L268.3,175c-.23-1-.56-2.28-.78-3.26"/><path class="cls-171" d="M268.31,181.14l48.77-28.34c.3.89.7,2.08,1,3l-48.77,28.34c-.31-.89-.73-2.08-1-3"/><path class="cls-171" d="M279.94,183.78l40-23.25c.35.8.81,1.87,1.17,2.66l-40,23.26c-.36-.8-.83-1.86-1.18-2.67"/><path class="cls-171" d="M277.23,194.12l46-26.71c.37.7.86,1.63,1.24,2.33l-46,26.71-1.24-2.33"/><path class="cls-171" d="M307.75,187l20-11.62a100.29,100.29,0,0,0,12.13,15.54l-20,11.63A100.09,100.09,0,0,1,307.75,187"/><path class="cls-172" d="M139.91,238.8a6.55,6.55,0,0,0-3,5.17c0,1.9,1.35,2.67,3,1.71l68.57-39.59a6.57,6.57,0,0,0,3-5.16c0-1.9-1.35-2.68-3-1.72Z"/><path class="cls-173" d="M148.21,262.33l94,54.61a8.52,8.52,0,0,0,7.71,0l7.87-4.54,8.29-4.79h0L300,288c2.14-1.24,2.16-3.24,0-4.47l-94-54.62a8.51,8.51,0,0,0-7.72,0l-34,19.62h0l-8.29,4.79-7.87,4.54C146.1,259.09,146.09,261.1,148.21,262.33ZM277.8,288.54v0h0v0Zm-.18-.34,0,0h0Z"/><g class="cls-2"><g class="cls-2"><g class="cls-174"><g class="cls-2"><path class="cls-175" d="M199.19,221.81v3.1a3.91,3.91,0,0,1,2.31-3.21,8.93,8.93,0,0,1,1.12-.54v-3.1a8.27,8.27,0,0,0-1.12.54,3.91,3.91,0,0,0-2.31,3.21"/><path class="cls-176" d="M202.62,218.06v3.1a8.81,8.81,0,0,1,1-.31v-3.11a9.63,9.63,0,0,0-.95.32"/><path class="cls-177" d="M203.57,217.74v3.11a6.85,6.85,0,0,1,.81-.2v-3.11c-.28.06-.55.12-.81.2"/><path class="cls-178" d="M204.38,217.54v3.11c.25-.06.51-.1.77-.14v-3.1c-.26,0-.52.08-.77.13"/><path class="cls-179" d="M205.15,217.41v3.1l.75-.08v-3.11l-.75.09"/><path class="cls-180" d="M205.9,217.32v3.11c.25,0,.51,0,.76,0v-3.11l-.76,0"/><path class="cls-181" d="M206.66,217.28v3.11h.8v-3.1h-.8"/><path class="cls-182" d="M207.46,217.29v3.1c.29,0,.57,0,.86.06v-3.11c-.29,0-.57,0-.86-.05"/><path class="cls-183" d="M208.32,217.34v3.11c.33,0,.66.08,1,.14v-3.11c-.33-.06-.66-.1-1-.14"/><path class="cls-184" d="M209.31,217.48v3.11a11.68,11.68,0,0,1,1.47.36v-3.1a9.88,9.88,0,0,0-1.47-.37"/><path class="cls-185" d="M210.78,217.85V221a9.12,9.12,0,0,1,1.71.75l.1.07v-3.11l-.11-.06a9.12,9.12,0,0,0-1.71-.75"/><path class="cls-184" d="M212.6,218.66v3.11a5.92,5.92,0,0,1,1,.72v-3.11a7,7,0,0,0-1-.72"/><path class="cls-183" d="M213.57,219.38v3.11a5.45,5.45,0,0,1,.47.51v-3.1a4.51,4.51,0,0,0-.47-.52"/><path class="cls-182" d="M214,219.9V223a3.37,3.37,0,0,1,.31.46v-3.1a3.37,3.37,0,0,0-.31-.46"/><path class="cls-181" d="M214.35,220.36v3.1a4.54,4.54,0,0,1,.21.45V220.8a3.55,3.55,0,0,0-.21-.44"/><path class="cls-180" d="M214.56,220.8v3.11a3.19,3.19,0,0,1,.13.44v-3.1a2.54,2.54,0,0,0-.13-.45"/><path class="cls-179" d="M214.69,221.25v3.1c0,.11,0,.21,0,.32v-3.1a3.11,3.11,0,0,0,0-.32"/></g></g></g><g class="cls-2"><g class="cls-186"><g class="cls-2"><path class="cls-181" d="M214.73,221.57v3.1h.09v-3.1h-.09"/><path class="cls-182" d="M214.82,221.57v3.1l.87.06v-3.1c-.28,0-.58,0-.87-.06"/><path class="cls-183" d="M215.69,221.63v3.1c.34,0,.67.08,1,.14v-3.11c-.33,0-.66-.1-1-.13"/><path class="cls-184" d="M216.69,221.76v3.11a11.23,11.23,0,0,1,1.44.36v-3.11a10.83,10.83,0,0,0-1.44-.36"/><path class="cls-185" d="M218.13,222.12v3.11a8.4,8.4,0,0,1,1.7.74v-3.1a9,9,0,0,0-1.7-.75"/></g></g></g><g class="cls-2"><g class="cls-187"><g class="cls-2"><path class="cls-188" d="M214.73,221.57v3.1a.86.86,0,0,1,0,.16v-3.1a.81.81,0,0,0,0-.16"/><path class="cls-189" d="M214.74,221.73v0"/></g></g></g><g class="cls-2"><g class="cls-190"><g class="cls-2"><path class="cls-185" d="M219.83,222.87V226l.1.06v-3.11l-.1,0"/><path class="cls-184" d="M219.93,222.92V226a6,6,0,0,1,1,.73v-3.1a6.08,6.08,0,0,0-1-.74"/><path class="cls-183" d="M220.92,223.66v3.1a4.62,4.62,0,0,1,.48.52v-3.1a4.62,4.62,0,0,0-.48-.52"/><path class="cls-182" d="M221.4,224.18v3.1a3.55,3.55,0,0,1,.32.47v-3.11a3.46,3.46,0,0,0-.32-.46"/><path class="cls-181" d="M221.72,224.64v3.11a2.48,2.48,0,0,1,.2.44v-3.11a2.86,2.86,0,0,0-.2-.44"/><path class="cls-180" d="M221.92,225.08v3.11a2.23,2.23,0,0,1,.13.44v-3.11a2.44,2.44,0,0,0-.13-.44"/><path class="cls-179" d="M222.05,225.52v3.11a3.12,3.12,0,0,1,.05.44V226a2.3,2.3,0,0,0,0-.45"/><path class="cls-178" d="M222.1,226v0"/></g></g></g><g class="cls-2"><g class="cls-191"><g class="cls-2"><path class="cls-192" d="M206.54,226.08v3.11a3.91,3.91,0,0,1,2.3-3.22,9.08,9.08,0,0,1,1.13-.54v-3.1a6.92,6.92,0,0,0-1.13.54,3.9,3.9,0,0,0-2.3,3.21"/><path class="cls-193" d="M210,222.33v3.1c.3-.11.61-.22.93-.31V222c-.32.1-.63.2-.93.32"/><path class="cls-194" d="M210.9,222v3.11c.26-.08.53-.14.81-.2v-3.1c-.27.05-.55.12-.81.19"/><path class="cls-195" d="M211.71,221.82v3.1l.76-.13v-3.11c-.26,0-.51.08-.76.14"/><path class="cls-196" d="M212.47,221.68v3.11c.24,0,.49-.06.74-.08V221.6l-.74.08"/><path class="cls-197" d="M213.21,221.6v3.11c.24,0,.49,0,.74,0v-3.11l-.74,0"/><path class="cls-198" d="M214,221.56v3.11h.76v-3.11H214"/><path class="cls-199" d="M214.71,221.56v3.11h0v-3.1h0"/></g></g></g><g class="cls-2"><g class="cls-200"><g class="cls-2"><path class="cls-195" d="M199.19,221.81v0"/><path class="cls-196" d="M199.19,221.88V225a3.44,3.44,0,0,0,.05.45v-3.11a3.32,3.32,0,0,1-.06-.44"/><path class="cls-197" d="M199.25,222.32v3.11a3.52,3.52,0,0,0,.13.43v-3.1a2.4,2.4,0,0,1-.12-.44"/><path class="cls-198" d="M199.37,222.76v3.1a2.53,2.53,0,0,0,.21.44v-3.1a4.39,4.39,0,0,1-.21-.44"/><path class="cls-199" d="M199.58,223.2v3.1a3.46,3.46,0,0,0,.31.47v-3.11a3.37,3.37,0,0,1-.31-.46"/><path class="cls-201" d="M199.89,223.66v3.11a4.62,4.62,0,0,0,.48.52v-3.11a4.62,4.62,0,0,1-.48-.52"/><path class="cls-202" d="M200.37,224.18v3.11a6.69,6.69,0,0,0,1,.73v-3.11a6,6,0,0,1-1-.73"/><path class="cls-203" d="M201.36,224.91V228l.09,0a9.19,9.19,0,0,0,1.75.77v-3.1a9.19,9.19,0,0,1-1.75-.77l-.09-.06"/><path class="cls-202" d="M203.2,225.74v3.1a10.83,10.83,0,0,0,1.44.36v-3.11a12.62,12.62,0,0,1-1.44-.35"/><path class="cls-201" d="M204.64,226.09v3.11c.32.05.65.1,1,.13v-3.1c-.33,0-.66-.08-1-.14"/><path class="cls-199" d="M205.62,226.23v3.1c.29,0,.58,0,.88.06v-3.1c-.3,0-.59,0-.88-.06"/><path class="cls-198" d="M206.5,226.29v3.1h.05v-3.1h-.05"/></g></g></g><g class="cls-2"><g class="cls-204"><g class="cls-2"><path class="cls-205" d="M206.55,226.29v3.1c.24,0,.47,0,.71,0v-3.1h-.71"/><path class="cls-206" d="M207.26,226.29v3.1c.26,0,.51,0,.77,0v-3.1l-.77,0"/><path class="cls-207" d="M208,226.25v3.1l.76-.08v-3.11c-.25,0-.5.07-.76.09"/><path class="cls-208" d="M208.79,226.16v3.11c.26,0,.52-.08.78-.14V226c-.26.05-.51.1-.78.13"/><path class="cls-209" d="M209.57,226v3.1a7.54,7.54,0,0,0,.82-.2v-3.1l-.82.2"/><path class="cls-210" d="M210.39,225.83v3.1c.32-.09.63-.2.94-.31v-3.11c-.31.12-.62.22-.94.32"/><path class="cls-211" d="M211.33,225.51v3.11a8.44,8.44,0,0,0,1.13-.55,3.84,3.84,0,0,0,2.28-3.17v-3.11a3.87,3.87,0,0,1-2.28,3.18,9.08,9.08,0,0,1-1.13.54"/></g></g></g><g class="cls-2"><g class="cls-212"><g class="cls-2"><path class="cls-188" d="M206.55,226.29v3.1a1.64,1.64,0,0,0,.05.32v-3.1c0-.11,0-.22,0-.32"/><path class="cls-213" d="M206.6,226.61v3.1a3,3,0,0,0,.12.43V227a3.45,3.45,0,0,1-.12-.43"/><path class="cls-214" d="M206.72,227v3.1a2.48,2.48,0,0,0,.2.44v-3.11a3.36,3.36,0,0,1-.2-.43"/><path class="cls-215" d="M206.92,227.47v3.11a4.13,4.13,0,0,0,.31.46v-3.11a3.37,3.37,0,0,1-.31-.46"/><path class="cls-216" d="M207.23,227.93V231a5.61,5.61,0,0,0,.48.51v-3.11a3.82,3.82,0,0,1-.48-.51"/><path class="cls-217" d="M207.71,228.44v3.11a6.09,6.09,0,0,0,1,.73v-3.11a5.55,5.55,0,0,1-1-.73"/><path class="cls-218" d="M208.69,229.17v3.11l.11.06a8.54,8.54,0,0,0,1.71.76V230a9.12,9.12,0,0,1-1.71-.75l-.11-.07"/><path class="cls-217" d="M210.51,230v3.11a11.68,11.68,0,0,0,1.47.36v-3.1a11.43,11.43,0,0,1-1.48-.37"/><path class="cls-216" d="M212,230.36v3.1c.33.06.66.11,1,.14v-3.1c-.34,0-.67-.08-1-.14"/><path class="cls-215" d="M213,230.5v3.1l.86.06v-3.11l-.86-.05"/><path class="cls-214" d="M213.84,230.55v3.11h.8v-3.1h-.79"/><path class="cls-213" d="M214.63,230.56v3.1c.25,0,.51,0,.76,0v-3.1l-.76,0"/><path class="cls-188" d="M215.39,230.52v3.1l.76-.08v-3.11c-.25,0-.5.06-.76.09"/><path class="cls-189" d="M216.15,230.43v3.11l.77-.14v-3.1l-.77.13"/><path class="cls-219" d="M216.92,230.3v3.1a8,8,0,0,0,.81-.2v-3.1l-.81.2"/><path class="cls-220" d="M217.73,230.1v3.1a9.44,9.44,0,0,0,.94-.32v-3.1c-.31.12-.63.23-1,.32"/><path class="cls-221" d="M218.68,229.78v3.1a6.92,6.92,0,0,0,1.13-.54,3.87,3.87,0,0,0,2.3-3.2V226a3.9,3.9,0,0,1-2.3,3.21,9.66,9.66,0,0,1-1.12.54"/></g></g></g><g class="cls-2"><g class="cls-222"><g class="cls-2"><path class="cls-175" d="M257.55,258v3.1l.47-.23v-3.1a4.09,4.09,0,0,0-.47.23"/><path class="cls-176" d="M258,257.81v3.1l.4-.13v-3.11l-.4.14"/><path class="cls-177" d="M258.42,257.67v3.11l.35-.08v-3.11l-.35.08"/><path class="cls-178" d="M258.77,257.59v3.11a1.65,1.65,0,0,1,.32-.06v-3.11l-.32.06"/><path class="cls-179" d="M259.09,257.53v3.11l.32,0v-3.1l-.32,0"/><path class="cls-180" d="M259.41,257.5v3.1h.33v-3.11l-.33,0"/><path class="cls-181" d="M259.74,257.48v3.11h.33v-3.11h-.33"/><path class="cls-182" d="M260.07,257.48v3.11l.37,0v-3.1c-.12,0-.24,0-.37,0"/><path class="cls-183" d="M260.44,257.51v3.1l.42.06v-3.1l-.42-.06"/><path class="cls-184" d="M260.86,257.57v3.1a4.34,4.34,0,0,1,.62.16v-3.11a4.31,4.31,0,0,0-.62-.15"/><path class="cls-185" d="M261.48,257.72v3.11a3.33,3.33,0,0,1,.72.31V258a3.35,3.35,0,0,0-.72-.32"/></g></g></g><polygon class="cls-223" points="251.03 261.8 251.04 264.9 257.56 261.14 257.55 258.04 251.03 261.8"/><g class="cls-2"><g class="cls-224"><g class="cls-2"><path class="cls-175" d="M250.07,263.15v3.11a1.62,1.62,0,0,1,1-1.35V261.8a1.64,1.64,0,0,0-1,1.35"/></g></g></g><g class="cls-2"><g class="cls-225"><g class="cls-2"><path class="cls-226" d="M250.07,263.15v0"/><path class="cls-227" d="M250.07,263.18v3.11a1.1,1.1,0,0,0,0,.18v-3.1a1.23,1.23,0,0,1,0-.19"/><path class="cls-228" d="M250.09,263.37v3.1a1.05,1.05,0,0,0,.05.19v-3.1a1.8,1.8,0,0,1,0-.19"/><path class="cls-229" d="M250.14,263.56v3.1a1.63,1.63,0,0,0,.09.19v-3.11l-.09-.18"/><path class="cls-230" d="M250.23,263.74v3.11a2.14,2.14,0,0,0,.13.19v-3.1a1.37,1.37,0,0,1-.13-.2"/><path class="cls-231" d="M250.36,263.94V267a1.45,1.45,0,0,0,.21.22v-3.1a2.13,2.13,0,0,1-.21-.22"/><path class="cls-232" d="M250.57,264.16v3.1a1.92,1.92,0,0,0,.41.31v-3.1a2.75,2.75,0,0,1-.41-.31"/><path class="cls-233" d="M251,264.47v3.1l0,0v-3.11l0,0"/></g></g></g><polygon class="cls-234" points="262.2 258.04 262.21 261.14 276.91 269.68 276.9 266.58 262.2 258.04"/><g class="cls-2"><g class="cls-235"><g class="cls-2"><path class="cls-185" d="M276.9,266.58v3.1l0,0V266.6l0,0"/><path class="cls-184" d="M276.94,266.6v3.11a2.29,2.29,0,0,1,.42.31v-3.11a2.86,2.86,0,0,0-.42-.31"/><path class="cls-183" d="M277.36,266.91V270l.2.21v-3.1a1.37,1.37,0,0,0-.2-.22"/><path class="cls-182" d="M277.56,267.13v3.1l.13.2v-3.11a1.07,1.07,0,0,0-.13-.19"/><path class="cls-181" d="M277.69,267.32v3.11a.66.66,0,0,1,.09.19v-3.11a1.07,1.07,0,0,0-.09-.19"/><path class="cls-180" d="M277.78,267.51v3.11a1.21,1.21,0,0,1,0,.18v-3.11a1.21,1.21,0,0,0-.05-.18"/><path class="cls-179" d="M277.83,267.69v3.11a1.11,1.11,0,0,1,0,.19v-3.11a.65.65,0,0,0,0-.19"/><path class="cls-178" d="M277.85,267.88v0"/></g></g></g><g class="cls-2"><g class="cls-236"><g class="cls-2"><path class="cls-237" d="M276.88,269.27v3.11a1.64,1.64,0,0,0,1-1.36v-3.11a1.64,1.64,0,0,1-1,1.36"/></g></g></g><polygon class="cls-238" points="251.02 264.49 251.03 267.6 265.73 276.14 265.72 273.03 251.02 264.49"/><polygon class="cls-239" points="270.36 273.03 270.37 276.14 276.89 272.38 276.88 269.27 270.36 273.03"/><g class="cls-2"><g class="cls-240"><g class="cls-2"><path class="cls-233" d="M265.72,273v3.11a3.93,3.93,0,0,0,.72.32v-3.11a3.35,3.35,0,0,1-.72-.32"/><path class="cls-232" d="M266.44,273.35v3.11a6.23,6.23,0,0,0,.62.15V273.5a4.31,4.31,0,0,1-.62-.15"/><path class="cls-231" d="M267.06,273.5v3.11l.42.06v-3.11l-.42-.06"/><path class="cls-230" d="M267.48,273.56v3.11l.36,0v-3.1l-.36,0"/><path class="cls-229" d="M267.84,273.59v3.1h.34v-3.1h-.34"/><path class="cls-228" d="M268.18,273.59v3.1h.32v-3.11l-.32,0"/><path class="cls-227" d="M268.5,273.57v3.11l.32,0v-3.1l-.32,0"/><path class="cls-226" d="M268.82,273.54v3.1a1.91,1.91,0,0,0,.33-.06v-3.1l-.33.06"/><path class="cls-241" d="M269.15,273.48v3.1l.34-.08v-3.11c-.11,0-.23.06-.34.09"/><path class="cls-242" d="M269.49,273.39v3.11l.4-.13v-3.11a2.67,2.67,0,0,1-.4.13"/><path class="cls-237" d="M269.89,273.26v3.11l.47-.23V273a3.42,3.42,0,0,1-.47.23"/></g></g></g><path class="cls-243" d="M206.1,207.92l94,54.61c2.12,1.23,2.1,3.23,0,4.47l-34,19.63L164.39,227.55l34-19.63A8.54,8.54,0,0,1,206.1,207.92ZM265.72,273a5.1,5.1,0,0,0,4.64,0l6.52-3.76c1.29-.74,1.3-1.95,0-2.69L262.2,258a5.09,5.09,0,0,0-4.65,0L251,261.8c-1.28.74-1.29,1.95,0,2.69l14.7,8.54m-45.89-50.16a10.89,10.89,0,0,0-5.1-1.3,4,4,0,0,0-2.24-3,12.1,12.1,0,0,0-11,0c-3.06,1.76-3.07,4.61-.05,6.37a11,11,0,0,0,5.1,1.32,4,4,0,0,0,2.25,3,12.14,12.14,0,0,0,11,0c3-1.76,3.06-4.61,0-6.37"/><path class="cls-244" d="M201.5,218.6c-3.06,1.76-3.07,4.61-.05,6.37a11,11,0,0,0,5.1,1.32c-.09-1.23.66-2.48,2.29-3.42a11.23,11.23,0,0,1,5.89-1.3,4,4,0,0,0-2.24-3A12.1,12.1,0,0,0,201.5,218.6Z"/><path class="cls-245" d="M208.84,222.87c-1.63.94-2.38,2.19-2.29,3.42a11.58,11.58,0,0,0,5.91-1.32c1.62-.94,2.39-2.19,2.27-3.4A11.23,11.23,0,0,0,208.84,222.87Z"/><path class="cls-246" d="M206.55,226.29a4,4,0,0,0,2.25,3,12.12,12.12,0,0,0,11,0c3-1.76,3.07-4.61,0-6.37a10.89,10.89,0,0,0-5.1-1.3c.12,1.21-.65,2.46-2.27,3.4A11.58,11.58,0,0,1,206.55,226.29Z"/><path class="cls-244" d="M251,261.8c-1.28.74-1.29,1.95,0,2.69l14.7,8.54a5.1,5.1,0,0,0,4.64,0l6.52-3.76c1.29-.74,1.3-1.95,0-2.69L262.2,258a5.09,5.09,0,0,0-4.65,0Z"/><polygon class="cls-234" points="164.39 227.55 164.4 230.65 266.06 289.73 266.05 286.63 164.39 227.55"/><path class="cls-247" d="M300,267a2.74,2.74,0,0,0,1.62-2.25v3.1a2.76,2.76,0,0,1-1.62,2.26l-34,19.62v-3.1Z"/></g><g class="cls-2"><polygon class="cls-248" points="156.1 232.34 257.76 291.42 266.05 286.63 164.39 227.55 156.1 232.34"/><polygon class="cls-249" points="156.1 232.34 156.1 235.44 257.77 294.52 257.76 291.42 156.1 232.34"/><polygon class="cls-250" points="257.76 291.42 257.77 294.52 266.06 289.73 266.05 286.63 257.76 291.42"/><path class="cls-251" d="M146.72,239.68s0,0,0,.06a2,2,0,0,0,.26.51.47.47,0,0,0,.06.09,2.74,2.74,0,0,0,.43.48,3.73,3.73,0,0,0,.38.28,2.93,2.93,0,0,0,.34.24l94,54.61a7.41,7.41,0,0,0,1.07.48l.42.12.54.14.67.11.16,0a7,7,0,0,0,.92.05h.14a6.94,6.94,0,0,0,.91-.05h.13c.3,0,.59-.09.88-.15l.15,0a6.1,6.1,0,0,0,.76-.23l.13,0a5.81,5.81,0,0,0,.83-.4l7.87-4.54v3.11l-7.87,4.54a5.65,5.65,0,0,1-.78.38h-.05l-.13.05-.48.16-.28.07-.15,0-.14,0-.54.09-.2,0-.13,0-.2,0a4.89,4.89,0,0,1-.54,0h-.56l-.61,0h-.06l-.16,0-.47-.07-.2,0-.54-.13-.3-.08-.12-.05a6.08,6.08,0,0,1-1.07-.47l-94-54.61-.07,0a3.17,3.17,0,0,1-.27-.21,3.73,3.73,0,0,1-.38-.28l0,0a2.92,2.92,0,0,1-.34-.37.56.56,0,0,1-.05-.08l-.07-.09-.1-.15c-.05-.1-.1-.21-.14-.31a.09.09,0,0,1,0-.05.14.14,0,0,1,0-.06,1.52,1.52,0,0,1-.06-.2,1.63,1.63,0,0,1,0-.31.11.11,0,0,1,0-.05v-3.11A1.77,1.77,0,0,0,146.72,239.68Z"/><path class="cls-252" d="M148.23,236.88c-2.13,1.23-2.14,3.23,0,4.46l94,54.61a8.45,8.45,0,0,0,7.71,0l7.87-4.54L156.1,232.34Z"/></g><g class="cls-5"><path class="cls-253" d="M372.17,220.82l36.25,21.07a2.2,2.2,0,0,0,2.19,0l19.08-11a2.18,2.18,0,0,0,0-3.78L393.44,206a2.2,2.2,0,0,0-2.19,0l-19.08,11A2.19,2.19,0,0,0,372.17,220.82Z"/></g><g class="cls-2"><polygon class="cls-254" points="375.43 200.69 375.49 219.62 407.82 238.41 407.76 219.48 375.43 200.69"/><polygon class="cls-255" points="407.76 219.48 407.82 238.41 426.48 227.63 426.43 208.7 407.76 219.48"/><polygon class="cls-256" points="375.43 200.69 407.76 219.48 426.43 208.7 394.1 189.91 375.43 200.69"/><polygon class="cls-10" points="389.19 208.68 394.01 211.48 412.68 200.71 407.82 197.92 389.19 208.68"/><polygon class="cls-10" points="419.57 212.66 414.71 215.44 382.24 196.7 387.13 193.93 419.57 212.66"/></g><polygon class="cls-11" points="394.01 230.39 394.01 211.48 389.19 208.68 389.19 227.58 394.01 230.39"/><polygon class="cls-11" points="414.71 234.43 414.71 215.47 419.54 212.66 419.54 231.63 414.71 234.43"/><g class="cls-2"><path class="cls-257" d="M156.53,63.57c0-.12,0-.24,0-.37s0-.11,0-.17V63a.66.66,0,0,0,0-.14c0-.12,0-.25.05-.37s0-.26,0-.39h0c0-.13.05-.25.07-.37s0-.27.08-.4l0-.15a.19.19,0,0,0,0-.08,1.16,1.16,0,0,0,0-.18l.11-.41.09-.3v0l0-.06c0-.13.08-.26.13-.4s.09-.26.14-.39a.19.19,0,0,1,0-.07l0-.06c0-.08.07-.16.1-.25l.15-.37.11-.27,0,0,0,0c0-.12.11-.25.17-.37s.13-.27.19-.41l0-.06,0-.07.17-.33.23-.4a2,2,0,0,1,.11-.2.59.59,0,0,0,0-.08l.22-.34.3-.49a.35.35,0,0,0,0-.08l.49-.69h0l.35-.45.28-.35h0l.3-.35.3-.33.05-.06.05,0,.22-.23.32-.32.1-.09.08-.07.16-.15.34-.3.16-.13.08-.06.11-.09c.11-.09.22-.18.34-.26l.25-.18,0,0,0,0,.33-.22.33-.2.07,0,36.66-21.16.24-.14.32-.16.2-.1.05,0,.06,0,.31-.13.31-.12,0,0h.05l.21-.07.32-.09.15,0,.07,0,.1,0,.33-.05.21,0h.9a3.11,3.11,0,0,1,.44.06h0l.09,0a3.17,3.17,0,0,1,.44.12l0,0a3.47,3.47,0,0,1,.59.27l7.16,4.16a3.47,3.47,0,0,0-.59-.27,3.79,3.79,0,0,0-.48-.14l-.09,0a5.11,5.11,0,0,0-.58-.07h-.12a3.77,3.77,0,0,0-.58,0H211c-.21,0-.43,0-.64.09l-.07,0a6.34,6.34,0,0,0-.68.19h-.05c-.24.09-.48.18-.73.3l-.05,0c-.25.12-.51.25-.76.4L171.37,54.76a9.06,9.06,0,0,0-.77.49l0,0c-.24.17-.48.34-.71.53l-.07.06-.66.58-.08.07-.64.64-.05.05c-.22.24-.44.49-.65.74h0c-.41.5-.8,1-1.17,1.58l-.3.49c-.09.14-.18.28-.26.42a2,2,0,0,0-.11.2c-.14.24-.27.48-.4.73a.25.25,0,0,1,0,.07c-.14.3-.29.59-.42.9l0,0c-.13.3-.25.6-.36.89l0,.06c-.11.31-.21.61-.31.92v.06c-.09.29-.17.59-.24.88l0,.08c-.07.31-.13.61-.18.92h0c-.05.3-.08.61-.11.91v.07c0,.3,0,.6,0,.89l.12,42.13c0,.29,0,.57,0,.84,0,0,0,0,0,.08,0,.25.06.49.1.72,0,0,0,.06,0,.09.05.22.1.43.17.64l0,.11c.07.19.14.38.22.55a.14.14,0,0,1,0,.06c.1.2.2.38.31.56a4.94,4.94,0,0,0,.53.66l.15.14a4,4,0,0,0,.65.49L158.89,111a4.43,4.43,0,0,1-.65-.49l-.15-.14a4.94,4.94,0,0,1-.53-.66h0c-.1-.17-.2-.35-.29-.53v0a.14.14,0,0,0,0-.06,3.88,3.88,0,0,1-.15-.36,1.46,1.46,0,0,0-.07-.19l0-.11s0-.07,0-.11-.07-.25-.1-.39l0-.14a.29.29,0,0,0,0-.09.77.77,0,0,1,0-.15c0-.12,0-.24-.06-.36s0-.14,0-.21v-.08s0,0,0-.08,0-.24,0-.37,0-.24,0-.37v0l-.12-42.13C156.52,63.81,156.52,63.69,156.53,63.57Z"/><path class="cls-258" d="M171.37,54.76a17,17,0,0,0-7.69,13.32l.12,42.13c0,4.89,3.48,6.86,7.74,4.4L208.2,93.45a17,17,0,0,0,7.69-13.31L215.77,38c0-4.9-3.48-6.87-7.74-4.41Z"/><path class="cls-259" d="M176,56a14.34,14.34,0,0,0-6.51,11.28l.1,35.66c0,4.14,2.94,5.81,6.55,3.72l31-17.91a14.34,14.34,0,0,0,6.51-11.27l-.1-35.66c0-4.15-2.94-5.82-6.55-3.73Z"/></g><path class="cls-244" d="M177.25,71.64c0-7.44,5.22-16.54,11.69-20.27l1.5-.87c6.48-3.73,11.76-.72,11.78,6.72l.11,5.68c2.27-1.32,4.13-.26,4.13,2.36l0,15.19a9.06,9.06,0,0,1-4.11,7.12l-25.16,14.52c-2.28,1.32-4.13.26-4.14-2.36l0-15.19a9.06,9.06,0,0,1,4.2-7.17Zm3.84,3.52,17.32-10,0-5.73c0-5-3.58-7-7.94-4.53l-1.49.87c-4.37,2.52-7.9,8.64-7.89,13.66l0,5.73m8.71,12.71a6.46,6.46,0,0,0,2.94-5.09c0-1.26-.6-2-1.48-2.07a3.55,3.55,0,0,0,.34-1.42c0-1.16-.82-1.62-1.83-1A4,4,0,0,0,188,81.4a1.41,1.41,0,0,0,.35,1,6.45,6.45,0,0,0-1.46,3.78c0,1.87,1.33,2.63,3,1.68"/><g class="cls-2"><path class="cls-260" d="M94.06,109.31c0-.11,0-.21,0-.32a.61.61,0,0,0,0-.14v-.06a.37.37,0,0,1,0-.11l0-.32c0-.11,0-.22.05-.33h0l.06-.31a3.4,3.4,0,0,1,.07-.34.5.5,0,0,1,0-.12l0-.07,0-.15.09-.35c0-.08,0-.16.08-.25v-.09c0-.11.07-.22.11-.33l.12-.33,0-.06,0-.05a1.8,1.8,0,0,1,.08-.21L95,105c0-.07.07-.14.1-.22l0,0,0,0c0-.1.09-.2.14-.31l.16-.34,0,0,0-.06.14-.28.19-.33.1-.17,0-.07.18-.28.26-.42,0-.06.41-.58h0c.09-.13.18-.25.28-.37l.24-.3h0l.25-.3a3.33,3.33,0,0,0,.25-.28l0,0,0,0,.18-.18c.09-.09.18-.19.27-.27l.09-.08.06-.06.14-.13.29-.25.13-.11.06,0,.09-.08.29-.21.21-.15,0,0,0,0,.28-.19.27-.16.07,0L131.3,80.64l.2-.12.27-.14.17-.08,0,0,.05,0,.26-.11.26-.1h0l0,0,.17,0,.27-.08.13,0,0,0,.09,0,.28,0,.17,0h.76c.13,0,.25,0,.37.06h0l.08,0,.37.1s0,0,0,0a2.81,2.81,0,0,1,.5.22l6,3.5a3.12,3.12,0,0,0-.49-.23c-.13,0-.27-.08-.4-.12l-.08,0a3.7,3.7,0,0,0-.48-.06h-.1a2.8,2.8,0,0,0-.5,0h-.06l-.53.09h-.06a4,4,0,0,0-.57.16h0a6.19,6.19,0,0,0-.62.25l0,0-.64.33L106.53,101.9c-.22.13-.44.27-.65.42l0,0c-.2.14-.39.29-.59.45l-.06,0c-.19.15-.37.31-.55.48l-.07.06q-.27.25-.54.54l0,0c-.19.2-.37.41-.55.62h0a16.38,16.38,0,0,0-1,1.33l-.25.41c-.08.12-.15.24-.22.36l-.09.16c-.12.2-.23.41-.33.61l0,.06c-.12.25-.24.5-.35.75l0,0q-.16.38-.3.75l0,0c-.09.26-.18.51-.26.77v.05c-.07.25-.14.5-.2.74v.07c-.06.26-.11.52-.15.77h0c0,.26-.07.51-.09.76v.06q0,.39,0,.75l.1,35.38c0,.25,0,.48,0,.71v.06a6,6,0,0,0,.09.61v.07c0,.19.09.37.14.54l0,.1.18.46s0,0,0,0,.17.32.26.47a4,4,0,0,0,.45.55l.12.12a3.15,3.15,0,0,0,.55.41l-6-3.49a3.57,3.57,0,0,1-.54-.42l-.12-.11a3.07,3.07,0,0,1-.45-.56h0a3.09,3.09,0,0,1-.24-.44v0s0,0,0,0-.09-.2-.13-.31,0-.1,0-.16l0-.09,0-.09-.09-.33s0-.08,0-.12l0-.08a.5.5,0,0,0,0-.12c0-.1,0-.2-.05-.3s0-.12,0-.18v-.06s0-.05,0-.08,0-.2,0-.3,0-.21,0-.31v0l-.1-35.38C94.05,109.5,94.06,109.4,94.06,109.31Z"/><path class="cls-261" d="M106.53,101.9a14.25,14.25,0,0,0-6.46,11.19l.1,35.38c0,4.11,2.92,5.77,6.5,3.7l30.78-17.77a14.25,14.25,0,0,0,6.46-11.18l-.1-35.38c0-4.12-2.92-5.78-6.5-3.71Z"/><path class="cls-262" d="M110.79,102.79a11.89,11.89,0,0,0-5.42,9.37l.09,29.65c0,3.44,2.44,4.83,5.45,3.09L136.7,130a11.91,11.91,0,0,0,5.41-9.37L142,91c0-3.45-2.45-4.84-5.45-3.1Z"/></g><path class="cls-244" d="M109.8,120.73l0-6.43a9.5,9.5,0,0,1,4.3-7.45l16.76-9.68c2.38-1.37,4.32-.26,4.33,2.47l0,6.43,2.8-1.62c.29-.17.52,0,.53.3V107a1.2,1.2,0,0,1-.52.91l-.44.25-1.09,18a3,3,0,0,1-1.34,2.21L110,142.84c-.7.41-1.29.13-1.35-.65l-1.19-16.68-.29.17c-.3.17-.54,0-.54-.3v-2.2a1.14,1.14,0,0,1,.53-.92Zm2.77-1.6,19.85-11.46,0-6.43c0-1-.7-1.38-1.55-.88L114.09,110a3.34,3.34,0,0,0-1.54,2.66l0,6.43m-2.86,8.09,1,13.44c0,.4.34.54.7.33l.06,0a1.51,1.51,0,0,0,.63-1.23l-1-13.45c0-.4-.33-.54-.7-.33l-.05,0a1.53,1.53,0,0,0-.64,1.23m23.88,1,.06,0a1.52,1.52,0,0,0,.69-1.14l1-14.6c0-.46-.25-.68-.64-.49l0,0a1.54,1.54,0,0,0-.7,1.13l-1,14.6c0,.46.26.69.64.5m-15.88-5.67.59,13.73c0,.42.33.58.7.37l0,0a1.5,1.5,0,0,0,.66-1.22l-.59-13.73c0-.42-.33-.58-.7-.37l0,0a1.51,1.51,0,0,0-.67,1.22m8.36,10,0,0a1.51,1.51,0,0,0,.7-1.17l.51-14.36c0-.45-.29-.66-.67-.45l0,0a1.5,1.5,0,0,0-.69,1.16l-.51,14.37c0,.45.28.66.67.45"/><g class="cls-2"><path class="cls-263" d="M325.12,102.2c0-.11,0-.22,0-.33s0-.1,0-.15v-.07a.41.41,0,0,1,0-.11l0-.34c0-.11,0-.22.05-.34h0c0-.11,0-.21.05-.32s.05-.24.07-.36l0-.12,0-.07a.75.75,0,0,1,0-.16l.09-.36c0-.09.05-.18.08-.26v0l0,0a3.58,3.58,0,0,1,.11-.35l.12-.35a.14.14,0,0,0,0-.06l0,0a2,2,0,0,0,.08-.22l.14-.33a2.44,2.44,0,0,1,.1-.24l0,0,0,0,.15-.33.17-.35,0-.06,0-.06.15-.29c.06-.12.13-.23.2-.35l.09-.17a.3.3,0,0,0,0-.08l.19-.3.27-.43.05-.07.42-.61h0l.3-.4.25-.31h0l.26-.31.27-.29,0,0,0-.05.19-.19.28-.28.09-.09.07-.06.14-.13.3-.27.14-.11.07,0a.39.39,0,0,1,.1-.08l.29-.23.22-.16,0,0,0,0,.29-.19.29-.18.06,0,32.27-18.63.22-.12.28-.14.18-.09,0,0,.05,0,.28-.12.27-.1,0,0h0l.18-.06.28-.08.14,0h.06l.08,0,.3,0,.18,0h.79l.4,0h0l.08,0,.39.1,0,0a2.71,2.71,0,0,1,.52.24l6.3,3.66a3.08,3.08,0,0,0-.52-.24,2.77,2.77,0,0,0-.41-.12l-.08,0a3,3,0,0,0-.51-.07h-.11a2.9,2.9,0,0,0-.51,0h-.07l-.56.09h-.06c-.2.05-.4.1-.6.17l0,0a6.62,6.62,0,0,0-.65.25l0,0a7,7,0,0,0-.67.34L338.19,94.44a7,7,0,0,0-.68.43l0,0c-.21.14-.42.3-.62.46l-.07.06-.58.5-.06.06c-.2.18-.38.37-.57.57l0,0c-.2.2-.39.42-.58.65h0a14.42,14.42,0,0,0-1,1.4c-.1.14-.18.28-.27.42s-.16.25-.23.38l-.1.17-.35.64,0,.07c-.13.26-.25.52-.37.78l0,0c-.11.26-.22.52-.31.78l0,0q-.15.41-.27.81l0,0q-.12.39-.21.78v.07a7.73,7.73,0,0,0-.16.81h0a7,7,0,0,0-.1.8v.06c0,.27,0,.53,0,.79l.11,37.09a6,6,0,0,0,0,.74v.06c0,.22.05.43.09.64l0,.08a5.12,5.12,0,0,0,.15.56l0,.1c.06.17.12.33.19.49,0,0,0,0,0,0a4.67,4.67,0,0,0,.27.49,4.41,4.41,0,0,0,.47.58l.13.12a3,3,0,0,0,.57.44l-6.3-3.67a3.48,3.48,0,0,1-.58-.43l-.12-.13a3.4,3.4,0,0,1-.47-.58h0a5,5,0,0,1-.26-.46v0a.08.08,0,0,1,0-.05,2.92,2.92,0,0,1-.14-.31,1.54,1.54,0,0,1-.05-.17.69.69,0,0,1,0-.1l0-.09-.09-.35s0-.08,0-.13,0-.05,0-.08a.5.5,0,0,1,0-.12c0-.11,0-.21-.05-.32a1.23,1.23,0,0,1,0-.19v-.06a.22.22,0,0,0,0-.08c0-.11,0-.21,0-.32v-.35l-.11-37.09C325.11,102.4,325.11,102.3,325.12,102.2Z"/><path class="cls-264" d="M338.19,94.44a14.9,14.9,0,0,0-6.78,11.73l.11,37.09c0,4.3,3.06,6,6.82,3.87l32.27-18.63a14.94,14.94,0,0,0,6.77-11.72l-.11-37.09c0-4.31-3.06-6-6.81-3.89Z"/><path class="cls-265" d="M341.93,94a12.71,12.71,0,0,0-5.77,10l.09,31.57c0,3.67,2.61,5.15,5.81,3.31L369.53,123a12.67,12.67,0,0,0,5.76-10l-.08-31.57c0-3.67-2.61-5.15-5.81-3.31Z"/></g><path class="cls-244" d="M366.86,121.21a8.88,8.88,0,0,1-4,7c-2.23,1.29-4,.25-4.06-2.31a8.89,8.89,0,0,1,4-7C365,117.61,366.86,118.65,366.86,121.21Zm-4,5.11a5.32,5.32,0,0,0,2.42-4.18c0-1.53-1.1-2.16-2.43-1.38a5.32,5.32,0,0,0-2.42,4.18c0,1.53,1.1,2.15,2.43,1.38"/><path class="cls-244" d="M348.93,131.56a8.92,8.92,0,0,1-4,7c-2.23,1.28-4,.25-4-2.31a8.89,8.89,0,0,1,4-7C347.1,128,348.92,129,348.93,131.56Zm-4,5.12a5.36,5.36,0,0,0,2.41-4.19c0-1.53-1.09-2.15-2.43-1.38a5.3,5.3,0,0,0-2.41,4.18c0,1.54,1.09,2.16,2.43,1.39"/><path class="cls-244" d="M366.35,91.11l2.73-7a1.84,1.84,0,0,1,.71-.87.6.6,0,0,1,.4-.1c.39,0,.52.52.3,1.1l-2.82,7.25.07,22.43a1.79,1.79,0,0,1-.81,1.4l-25.64,14.8c-.45.25-.81,0-.81-.46l-.05-17.86a1.8,1.8,0,0,1,.67-1.31Zm-5,20,4.79-2.77,0-6.85-4.79,3.18,0,6.44m0-8.3,4.79-3.18,0-6.4-4.78,3.66v5.92m-6.38,12,4.79-2.77,0-6.3-4.79,3.19,0,5.88m0-7.75,4.79-3.18,0-5.75-4.79,3.67,0,5.26m-6.39,11.44,4.79-2.76,0-5.74-4.78,3.18v5.32m0-7.19,4.79-3.17,0-5.1-4.78,3.67v4.6m-6.39,10.9,4.79-2.77v-5.19l-4.79,3.18v4.78m0-6.64,4.79-3.18V108l-4.79,3.67v3.95m0,12.18,4.79-2.76V121.3l-4.8,2.77,0,3.68m19.22-11.1,4.79-2.77V110.2L361.31,113v3.68m-6.41,3.7,4.79-2.77V113.9l-4.79,2.77v3.68m-6.4,3.7,4.78-2.76V117.6l-4.78,2.77v3.68"/></g></g></g></svg>