<svg xmlns="http://www.w3.org/2000/svg" xmlns:xlink="http://www.w3.org/1999/xlink" viewBox="0 0 643.06 367.82"><defs><style>.cls-1,.cls-13{fill:#fff;}.cls-2{fill:#a0b0c8;opacity:0.13;}.cls-3{fill:#fdc800;}.cls-4{fill:#c8dae3;}.cls-5{fill:#d5e6f1;}.cls-6{fill:#b8ced6;}.cls-7{fill:#a1b7d5;}.cls-8{fill:#2871b5;}.cls-9{fill:#22303d;}.cls-10{fill:#070c0f;}.cls-11,.cls-15,.cls-20,.cls-24{fill:none;stroke-miterlimit:10;}.cls-11,.cls-20{stroke:#d5e6f1;}.cls-11{stroke-width:1.11px;}.cls-12{fill:#89a7c3;}.cls-13{opacity:0.54;}.cls-14{fill:#537492;}.cls-15{stroke:#22303d;stroke-width:1.43px;}.cls-16{fill:#61addd;}.cls-17{fill:#b3c9e1;}.cls-18{fill:#161616;}.cls-19{clip-path:url(#clip-path);}.cls-20{stroke-width:5.8px;}.cls-21{fill:#ea825c;}.cls-22{fill:#f9997d;}.cls-23{fill:#d56a43;}.cls-24{stroke:#d56a43;stroke-width:1.02px;}</style><clipPath id="clip-path"><path class="cls-1" d="M247.78,334,380,333.14a9.53,9.53,0,0,0,9.42-9.63l.08-181.82a9.53,9.53,0,0,0-9.63-9.42l-132.23.84a9.53,9.53,0,0,0-9.43,9.62l-.07,181.82A9.51,9.51,0,0,0,247.78,334Z"/></clipPath></defs><g id="Layer_2" data-name="Layer 2"><g id="Layer_1-2" data-name="Layer 1"><path class="cls-2" d="M643.06,321.53a322.63,322.63,0,0,1-3.32,46.29H3.32A322.63,322.63,0,0,1,0,321.53C0,144,144,0,321.53,0S643.06,144,643.06,321.53Z"/><path class="cls-1" d="M69,84.34h91.37s-5.61-7.63-9.87-7.28-6.78,5-12,1.86-5.23-8.1-12.59-8.1-12.18,7.79-19.27,8.1C95.07,79.41,84.24,62,69,84.34Z"/><path class="cls-1" d="M481.77,61.92h82.14s-5-6.86-8.87-6.55S549,59.84,544.25,57s-4.7-7.28-11.32-7.28S522,56.76,515.61,57C505.25,57.48,495.52,41.8,481.77,61.92Z"/><circle class="cls-3" cx="187.16" cy="21.45" r="13.31"/><rect class="cls-4" x="233.1" y="33.15" width="42.12" height="156.02"/><rect class="cls-5" x="242.3" y="44.35" width="3.83" height="133.96"/><rect class="cls-5" x="251.81" y="44.35" width="3.83" height="133.96"/><rect class="cls-5" x="261.31" y="44.35" width="3.83" height="133.96"/><circle class="cls-6" cx="487.07" cy="78.71" r="10.61" transform="translate(108.04 394.57) rotate(-48.99)"/><rect class="cls-4" x="468.72" y="76.46" width="36.7" height="19.79"/><rect class="cls-4" x="456.86" y="88.56" width="59.45" height="126.55"/><rect class="cls-5" x="465.6" y="96.25" width="5.25" height="14.04"/><rect class="cls-5" x="484.44" y="96.25" width="5.25" height="14.04"/><rect class="cls-5" x="503.29" y="96.25" width="5.25" height="14.04"/><rect class="cls-5" x="465.6" y="116.6" width="5.25" height="14.04"/><rect class="cls-5" x="484.44" y="116.6" width="5.25" height="14.04"/><rect class="cls-5" x="503.29" y="116.6" width="5.25" height="14.04"/><rect class="cls-5" x="465.6" y="136.94" width="5.25" height="14.04"/><rect class="cls-5" x="484.44" y="136.94" width="5.25" height="14.04"/><rect class="cls-5" x="503.29" y="136.94" width="5.25" height="14.04"/><rect class="cls-5" x="465.6" y="157.29" width="5.25" height="14.04"/><rect class="cls-5" x="484.44" y="157.29" width="5.25" height="14.04"/><rect class="cls-5" x="503.29" y="157.29" width="5.25" height="14.04"/><rect class="cls-6" x="453.7" y="175.43" width="65.08" height="7.05"/><rect class="cls-5" x="468.95" y="190.64" width="34.57" height="24.27"/><circle class="cls-6" cx="148.33" cy="99.78" r="10.61" transform="translate(-27.11 134.11) rotate(-45)"/><rect class="cls-4" x="129.98" y="97.53" width="36.7" height="19.79"/><rect class="cls-4" x="118.13" y="109.63" width="59.45" height="126.55"/><rect class="cls-5" x="126.86" y="117.32" width="5.25" height="14.04"/><rect class="cls-5" x="145.71" y="117.32" width="5.25" height="14.04"/><rect class="cls-5" x="164.55" y="117.32" width="5.25" height="14.04"/><rect class="cls-5" x="126.86" y="137.67" width="5.25" height="14.04"/><rect class="cls-5" x="145.71" y="137.67" width="5.25" height="14.04"/><rect class="cls-5" x="164.55" y="137.67" width="5.25" height="14.04"/><rect class="cls-5" x="126.86" y="158.02" width="5.25" height="14.04"/><rect class="cls-5" x="145.71" y="158.02" width="5.25" height="14.04"/><rect class="cls-5" x="164.55" y="158.02" width="5.25" height="14.04"/><rect class="cls-5" x="126.86" y="178.37" width="5.25" height="14.04"/><rect class="cls-5" x="145.71" y="178.37" width="5.25" height="14.04"/><rect class="cls-5" x="164.55" y="178.37" width="5.25" height="14.04"/><rect class="cls-6" x="114.96" y="196.51" width="65.08" height="7.05"/><rect class="cls-5" x="130.22" y="211.72" width="34.57" height="24.27"/><rect class="cls-4" x="72.79" y="191.61" width="46.38" height="70.48"/><rect class="cls-4" x="515.33" y="151.83" width="48.33" height="113.44"/><rect class="cls-4" x="49.44" y="245.46" width="538.81" height="44.6"/><rect class="cls-7" x="101.45" y="136.73" width="72.29" height="153.34"/><rect class="cls-8" x="173.74" y="136.73" width="30.66" height="153.34"/><rect class="cls-9" x="95.73" y="129.23" width="78.02" height="7.5"/><rect class="cls-10" x="173.74" y="129.23" width="36.25" height="7.5"/><path class="cls-11" d="M127.55,183.05H111V164.62a8.28,8.28,0,0,1,8.28-8.28h0a8.28,8.28,0,0,1,8.27,8.28Z"/><rect class="cls-9" x="108.99" y="181.16" width="20.58" height="3.19"/><rect class="cls-12" x="108.99" y="184.34" width="20.58" height="1.92"/><path class="cls-11" d="M158.64,183.05H142.09V164.62a8.28,8.28,0,0,1,8.27-8.28h0a8.28,8.28,0,0,1,8.28,8.28Z"/><rect class="cls-9" x="140.07" y="181.16" width="20.58" height="3.19"/><rect class="cls-12" x="140.07" y="184.34" width="20.58" height="1.92"/><path class="cls-11" d="M127.55,221.81H111V203.38a8.28,8.28,0,0,1,8.28-8.27h0a8.27,8.27,0,0,1,8.27,8.27Z"/><rect class="cls-9" x="108.99" y="219.92" width="20.58" height="3.19"/><rect class="cls-12" x="108.99" y="223.11" width="20.58" height="1.92"/><path class="cls-11" d="M158.64,221.81H142.09V203.38a8.27,8.27,0,0,1,8.27-8.27h0a8.28,8.28,0,0,1,8.28,8.27Z"/><rect class="cls-9" x="140.07" y="219.92" width="20.58" height="3.19"/><rect class="cls-12" x="140.07" y="223.11" width="20.58" height="1.92"/><polyline class="cls-11" points="123.58 290.06 123.58 245.46 146.49 245.46 146.49 290.06"/><rect class="cls-7" x="193.5" y="118.09" width="72.29" height="171.97"/><rect class="cls-8" x="265.79" y="118.09" width="30.66" height="171.97"/><rect class="cls-9" x="187.77" y="110.59" width="78.02" height="7.5"/><rect class="cls-10" x="265.79" y="110.59" width="36.25" height="7.5"/><path class="cls-11" d="M219.6,161.49H203V143.05a8.28,8.28,0,0,1,8.28-8.27h0a8.28,8.28,0,0,1,8.28,8.27Z"/><rect class="cls-9" x="201.03" y="159.59" width="20.58" height="3.19"/><rect class="cls-12" x="201.03" y="162.78" width="20.58" height="1.92"/><path class="cls-11" d="M250.68,161.49H234.13V143.05a8.27,8.27,0,0,1,8.27-8.27h0a8.27,8.27,0,0,1,8.28,8.27Z"/><rect class="cls-9" x="232.11" y="159.59" width="20.58" height="3.19"/><rect class="cls-12" x="232.11" y="162.78" width="20.58" height="1.92"/><path class="cls-11" d="M219.6,200.25H203V181.82a8.28,8.28,0,0,1,8.28-8.28h0a8.28,8.28,0,0,1,8.28,8.28Z"/><rect class="cls-9" x="201.03" y="198.36" width="20.58" height="3.19"/><rect class="cls-12" x="201.03" y="201.54" width="20.58" height="1.92"/><path class="cls-11" d="M250.68,200.25H234.13V181.82a8.28,8.28,0,0,1,8.27-8.28h0a8.28,8.28,0,0,1,8.28,8.28Z"/><rect class="cls-9" x="232.11" y="198.36" width="20.58" height="3.19"/><rect class="cls-12" x="232.11" y="201.54" width="20.58" height="1.92"/><path class="cls-11" d="M219.6,239H203V220.58a8.28,8.28,0,0,1,8.28-8.27h0a8.28,8.28,0,0,1,8.28,8.27Z"/><rect class="cls-9" x="201.03" y="237.12" width="20.58" height="3.19"/><rect class="cls-12" x="201.03" y="240.31" width="20.58" height="1.92"/><path class="cls-11" d="M250.68,239H234.13V220.58a8.27,8.27,0,0,1,8.27-8.27h0a8.27,8.27,0,0,1,8.28,8.27Z"/><rect class="cls-9" x="232.11" y="237.12" width="20.58" height="3.19"/><rect class="cls-12" x="232.11" y="240.31" width="20.58" height="1.92"/><rect class="cls-7" x="193.5" y="97.18" width="72.29" height="13.41"/><rect class="cls-8" x="265.89" y="97.18" width="27.36" height="13.41"/><rect class="cls-7" x="221.61" y="76.75" width="20.79" height="20.79"/><rect class="cls-8" x="242.3" y="76.75" width="50.95" height="20.79"/><rect class="cls-7" x="293.25" y="53.13" width="100.57" height="236.93"/><rect class="cls-8" x="393.82" y="53.13" width="51.25" height="236.93"/><rect class="cls-9" x="285.28" y="42.7" width="108.53" height="10.43"/><rect class="cls-10" x="393.82" y="42.7" width="59.02" height="10.43"/><rect class="cls-5" x="304.05" y="72.73" width="16.55" height="26.71"/><polygon class="cls-13" points="318.27 72.5 304.05 86.6 304.05 91.45 320.6 74.18 318.27 72.5"/><polygon class="cls-13" points="320.6 77.07 304.47 93.88 304.47 97.18 321.03 79.92 320.6 77.07"/><path class="cls-14" d="M321.31,100.52h-18V71.64h18Zm-16.55-2.17h15.13V73.81H304.76Z"/><rect class="cls-9" x="302.03" y="97.54" width="20.58" height="4.28"/><rect class="cls-14" x="304.05" y="84.77" width="16.55" height="1.83"/><rect class="cls-12" x="302.03" y="101.82" width="20.58" height="1.92"/><rect class="cls-5" x="334.41" y="72.73" width="16.55" height="26.71"/><polygon class="cls-13" points="348.64 72.5 334.42 86.6 334.42 91.45 350.97 74.18 348.64 72.5"/><polygon class="cls-13" points="350.97 77.07 334.84 93.88 334.84 97.18 351.4 79.92 350.97 77.07"/><path class="cls-14" d="M351.68,100.52h-18V71.64h18Zm-16.55-2.17h15.13V73.81H335.13Z"/><rect class="cls-9" x="332.4" y="97.54" width="20.58" height="4.28"/><rect class="cls-14" x="334.41" y="84.77" width="16.55" height="1.83"/><rect class="cls-12" x="332.4" y="101.82" width="20.58" height="1.92"/><rect class="cls-5" x="364.78" y="72.73" width="16.55" height="26.71"/><polygon class="cls-13" points="379.01 72.5 364.78 86.6 364.78 91.45 381.34 74.18 379.01 72.5"/><polygon class="cls-13" points="381.34 77.07 365.21 93.88 365.21 97.18 381.77 79.92 381.34 77.07"/><path class="cls-14" d="M382.05,100.52h-18V71.64h18ZM365.5,98.35h15.13V73.81H365.5Z"/><rect class="cls-9" x="362.77" y="97.54" width="20.58" height="4.28"/><rect class="cls-14" x="364.78" y="84.77" width="16.55" height="1.83"/><rect class="cls-12" x="362.77" y="101.82" width="20.58" height="1.92"/><rect class="cls-5" x="304.05" y="117.14" width="16.55" height="26.71"/><polygon class="cls-13" points="318.27 116.92 304.05 131.02 304.05 135.86 320.6 118.6 318.27 116.92"/><polygon class="cls-13" points="320.6 121.48 304.47 138.29 304.47 141.6 321.03 124.34 320.6 121.48"/><path class="cls-14" d="M321.31,144.94h-18V116.05h18Zm-16.55-2.18h15.13V118.23H304.76Z"/><rect class="cls-9" x="302.03" y="141.96" width="20.58" height="4.28"/><rect class="cls-14" x="304.05" y="129.19" width="16.55" height="1.83"/><rect class="cls-12" x="302.03" y="146.24" width="20.58" height="1.92"/><rect class="cls-5" x="334.41" y="117.14" width="16.55" height="26.71"/><polygon class="cls-13" points="348.64 116.92 334.42 131.02 334.42 135.86 350.97 118.6 348.64 116.92"/><polygon class="cls-13" points="350.97 121.48 334.84 138.29 334.84 141.6 351.4 124.34 350.97 121.48"/><path class="cls-14" d="M351.68,144.94h-18V116.05h18Zm-16.55-2.18h15.13V118.23H335.13Z"/><rect class="cls-9" x="332.4" y="141.96" width="20.58" height="4.28"/><rect class="cls-14" x="334.41" y="129.19" width="16.55" height="1.83"/><rect class="cls-12" x="332.4" y="146.24" width="20.58" height="1.92"/><rect class="cls-5" x="364.78" y="117.14" width="16.55" height="26.71"/><polygon class="cls-13" points="379.01 116.92 364.78 131.02 364.78 135.86 381.34 118.6 379.01 116.92"/><polygon class="cls-13" points="381.34 121.48 365.21 138.29 365.21 141.6 381.77 124.34 381.34 121.48"/><path class="cls-14" d="M382.05,144.94h-18V116.05h18Zm-16.55-2.18h15.13V118.23H365.5Z"/><rect class="cls-9" x="362.77" y="141.96" width="20.58" height="4.28"/><rect class="cls-14" x="364.78" y="129.19" width="16.55" height="1.83"/><rect class="cls-12" x="362.77" y="146.24" width="20.58" height="1.92"/><rect class="cls-5" x="304.05" y="161.56" width="16.55" height="26.71"/><polygon class="cls-13" points="318.27 161.34 304.05 175.43 304.05 180.28 320.6 163.01 318.27 161.34"/><polygon class="cls-13" points="320.6 165.9 304.47 182.71 304.47 186.01 321.03 168.75 320.6 165.9"/><path class="cls-14" d="M321.31,189.35h-18V160.47h18Zm-16.55-2.17h15.13V162.64H304.76Z"/><rect class="cls-9" x="302.03" y="186.37" width="20.58" height="4.28"/><rect class="cls-14" x="304.05" y="173.6" width="16.55" height="1.83"/><rect class="cls-12" x="302.03" y="190.65" width="20.58" height="1.92"/><rect class="cls-5" x="334.41" y="161.56" width="16.55" height="26.71"/><polygon class="cls-13" points="348.64 161.34 334.42 175.43 334.42 180.28 350.97 163.01 348.64 161.34"/><polygon class="cls-13" points="350.97 165.9 334.84 182.71 334.84 186.01 351.4 168.75 350.97 165.9"/><path class="cls-14" d="M351.68,189.35h-18V160.47h18Zm-16.55-2.17h15.13V162.64H335.13Z"/><rect class="cls-9" x="332.4" y="186.37" width="20.58" height="4.28"/><rect class="cls-14" x="334.41" y="173.6" width="16.55" height="1.83"/><rect class="cls-12" x="332.4" y="190.65" width="20.58" height="1.92"/><rect class="cls-5" x="364.78" y="161.56" width="16.55" height="26.71"/><polygon class="cls-13" points="379.01 161.34 364.78 175.43 364.78 180.28 381.34 163.01 379.01 161.34"/><polygon class="cls-13" points="381.34 165.9 365.21 182.71 365.21 186.01 381.77 168.75 381.34 165.9"/><path class="cls-14" d="M382.05,189.35h-18V160.47h18Zm-16.55-2.17h15.13V162.64H365.5Z"/><rect class="cls-9" x="362.77" y="186.37" width="20.58" height="4.28"/><rect class="cls-14" x="364.78" y="173.6" width="16.55" height="1.83"/><rect class="cls-12" x="362.77" y="190.65" width="20.58" height="1.92"/><rect class="cls-5" x="304.05" y="205.97" width="16.55" height="26.71"/><polygon class="cls-13" points="318.27 205.75 304.05 219.85 304.05 224.69 320.6 207.43 318.27 205.75"/><polygon class="cls-13" points="320.6 210.31 304.47 227.13 304.47 230.43 321.03 213.17 320.6 210.31"/><path class="cls-14" d="M321.31,233.76h-18V204.88h18Zm-16.55-2.17h15.13V207.06H304.76Z"/><rect class="cls-9" x="302.03" y="230.79" width="20.58" height="4.28"/><rect class="cls-14" x="304.05" y="218.02" width="16.55" height="1.83"/><rect class="cls-12" x="302.03" y="235.07" width="20.58" height="1.92"/><rect class="cls-5" x="334.41" y="205.97" width="16.55" height="26.71"/><polygon class="cls-13" points="348.64 205.75 334.42 219.85 334.42 224.69 350.97 207.43 348.64 205.75"/><polygon class="cls-13" points="350.97 210.31 334.84 227.13 334.84 230.43 351.4 213.17 350.97 210.31"/><path class="cls-14" d="M351.68,233.76h-18V204.88h18Zm-16.55-2.17h15.13V207.06H335.13Z"/><rect class="cls-9" x="332.4" y="230.79" width="20.58" height="4.28"/><rect class="cls-14" x="334.41" y="218.02" width="16.55" height="1.83"/><rect class="cls-12" x="332.4" y="235.07" width="20.58" height="1.92"/><rect class="cls-5" x="364.78" y="205.97" width="16.55" height="26.71"/><polygon class="cls-13" points="379.01 205.75 364.78 219.85 364.78 224.69 381.34 207.43 379.01 205.75"/><polygon class="cls-13" points="381.34 210.31 365.21 227.13 365.21 230.43 381.77 213.17 381.34 210.31"/><path class="cls-14" d="M382.05,233.76h-18V204.88h18Zm-16.55-2.17h15.13V207.06H365.5Z"/><rect class="cls-9" x="362.77" y="230.79" width="20.58" height="4.28"/><rect class="cls-14" x="364.78" y="218.02" width="16.55" height="1.83"/><rect class="cls-12" x="362.77" y="235.07" width="20.58" height="1.92"/><polyline class="cls-11" points="325.19 290.06 325.19 255.95 355.11 255.95 355.11 290.06"/><rect class="cls-7" x="432.43" y="118.09" width="72.29" height="171.97"/><rect class="cls-8" x="504.72" y="118.09" width="30.66" height="171.97"/><rect class="cls-9" x="426.7" y="110.59" width="78.02" height="7.5"/><rect class="cls-10" x="504.72" y="110.59" width="36.25" height="7.5"/><path class="cls-11" d="M458.53,161.49H442V143.05a8.28,8.28,0,0,1,8.28-8.27h0a8.28,8.28,0,0,1,8.28,8.27Z"/><rect class="cls-9" x="439.96" y="159.59" width="20.58" height="3.19"/><rect class="cls-12" x="439.96" y="162.78" width="20.58" height="1.92"/><path class="cls-11" d="M489.61,161.49H473.06V143.05a8.27,8.27,0,0,1,8.28-8.27h0a8.27,8.27,0,0,1,8.27,8.27Z"/><rect class="cls-9" x="471.05" y="159.59" width="20.58" height="3.19"/><rect class="cls-12" x="471.05" y="162.78" width="20.58" height="1.92"/><path class="cls-11" d="M458.53,200.25H442V181.82a8.28,8.28,0,0,1,8.28-8.28h0a8.28,8.28,0,0,1,8.28,8.28Z"/><rect class="cls-9" x="439.96" y="198.36" width="20.58" height="3.19"/><rect class="cls-12" x="439.96" y="201.54" width="20.58" height="1.92"/><path class="cls-11" d="M489.61,200.25H473.06V181.82a8.28,8.28,0,0,1,8.28-8.28h0a8.28,8.28,0,0,1,8.27,8.28Z"/><rect class="cls-9" x="471.05" y="198.36" width="20.58" height="3.19"/><rect class="cls-12" x="471.05" y="201.54" width="20.58" height="1.92"/><path class="cls-11" d="M458.53,239H442V220.58a8.28,8.28,0,0,1,8.28-8.27h0a8.28,8.28,0,0,1,8.28,8.27Z"/><rect class="cls-9" x="439.96" y="237.12" width="20.58" height="3.19"/><rect class="cls-12" x="439.96" y="240.31" width="20.58" height="1.92"/><path class="cls-11" d="M489.61,239H473.06V220.58a8.27,8.27,0,0,1,8.28-8.27h0a8.27,8.27,0,0,1,8.27,8.27Z"/><rect class="cls-9" x="471.05" y="237.12" width="20.58" height="3.19"/><rect class="cls-12" x="471.05" y="240.31" width="20.58" height="1.92"/><path class="cls-1" d="M482.78,273.83h0a13.42,13.42,0,0,1-13.42-13.42V239.5a13.42,13.42,0,0,1,13.42-13.42h0A13.42,13.42,0,0,1,496.2,239.5v20.91A13.42,13.42,0,0,1,482.78,273.83Z"/><line class="cls-15" x1="482.78" y1="240.05" x2="482.78" y2="287.07"/><line class="cls-15" x1="482.78" y1="256.18" x2="489.71" y2="248.84"/><circle class="cls-16" cx="549.03" cy="233.84" r="23.98" transform="translate(193.75 713.32) rotate(-76.53)"/><line class="cls-15" x1="549.03" y1="225.51" x2="549.03" y2="284.16"/><line class="cls-15" x1="549.03" y1="241.64" x2="555.96" y2="234.3"/><circle class="cls-16" cx="101.45" cy="239.01" r="23.98"/><line class="cls-15" x1="101.45" y1="230.68" x2="101.45" y2="289.33"/><line class="cls-15" x1="101.45" y1="246.81" x2="108.38" y2="239.47"/><path class="cls-1" d="M173.74,276.82h0a13.42,13.42,0,0,1-13.42-13.42V242.5a13.42,13.42,0,0,1,13.42-13.43h0a13.42,13.42,0,0,1,13.42,13.43v20.9A13.42,13.42,0,0,1,173.74,276.82Z"/><line class="cls-15" x1="173.74" y1="243.04" x2="173.74" y2="290.06"/><line class="cls-15" x1="173.74" y1="259.17" x2="180.67" y2="251.83"/><path class="cls-16" d="M432.43,273.83a19.2,19.2,0,0,0-19,16.23H451.4A19.21,19.21,0,0,0,432.43,273.83Z"/><path class="cls-16" d="M77.47,273.83a19.21,19.21,0,0,0-19,16.23H96.44A19.21,19.21,0,0,0,77.47,273.83Z"/><path class="cls-16" d="M549,273.83a19.21,19.21,0,0,0-19,16.23H568A19.21,19.21,0,0,0,549,273.83Z"/><path class="cls-16" d="M103.32,280.41A11.42,11.42,0,0,0,92,290.06H114.6A11.42,11.42,0,0,0,103.32,280.41Z"/><path class="cls-16" d="M193.5,280.41a11.42,11.42,0,0,0-11.29,9.65h22.57A11.42,11.42,0,0,0,193.5,280.41Z"/><path class="cls-16" d="M490.32,278.87a13.23,13.23,0,0,0-13.08,11.19h26.17A13.25,13.25,0,0,0,490.32,278.87Z"/><rect class="cls-5" x="33.64" y="289.7" width="570.41" height="77.52"/><rect class="cls-17" x="33.64" y="289.7" width="570.41" height="18.08"/><path class="cls-18" d="M244.94,340.82l138-.89A12.19,12.19,0,0,0,395,327.6l0-189a12.21,12.21,0,0,0-12.33-12.08l-138,.89a12.19,12.19,0,0,0-12.07,12.33l0,189A12.21,12.21,0,0,0,244.94,340.82Z"/><path class="cls-1" d="M247.78,334,380,333.14a9.53,9.53,0,0,0,9.42-9.63l.08-181.82a9.53,9.53,0,0,0-9.63-9.42l-132.23.84a9.53,9.53,0,0,0-9.43,9.62l-.07,181.82A9.51,9.51,0,0,0,247.78,334Z"/><g class="cls-19"><path class="cls-20" d="M232.61,214.76h46.87a13.89,13.89,0,0,0,13.89-13.89V116.13"/><path class="cls-20" d="M320.06,120.83v52.56a12.38,12.38,0,0,0,12.38,12.38h66.39"/><line class="cls-20" x1="221.7" y1="239.85" x2="403.55" y2="239.85"/><path class="cls-20" d="M232.2,266h32.68a12.38,12.38,0,0,1,12.39,12.39v85.27"/><path class="cls-20" d="M322.44,344.41V278.35A12.39,12.39,0,0,1,334.83,266h83.22"/></g><polygon class="cls-21" points="248.44 343.46 237.48 367.22 195.07 367.22 219.56 328.78 248.44 343.46"/><path class="cls-21" d="M257.86,243.48a8.1,8.1,0,0,0-3.65-1.23c-5.16-.47-8.28,3-9.88,15.34-2,15-.17,26.88-8.89,29.67a22.89,22.89,0,0,1-2.83.7V231.18c-7.76,13.1-15.67,30.87-21.21,39.77-3.56,5.71-5.23,12.55-3.75,19.11,8.43,37.33,8,68.28,18.77,71.2,0,0,34.83-1.06,34.83-70.85,0,0,.39-35.12-1.18-43A5.85,5.85,0,0,0,257.86,243.48Z"/><path class="cls-22" d="M249.84,255.29s-.93-10.62,5.22-10.62c5.3,0,4.37,10.62,4.37,10.62Z"/><polygon class="cls-23" points="232.6 287.96 225.96 289.29 232.6 255.25 232.6 287.96"/><path class="cls-21" d="M414,281.62,398.65,250a7.14,7.14,0,0,0-9.4-3.5h0a7.15,7.15,0,0,0-3.64,9.33l14,31Z"/><path class="cls-21" d="M389.25,246.48s-17.93,13.4-36.55,17.5a3.51,3.51,0,0,0-2.78,3.42h0a3.5,3.5,0,0,0,3.08,3.49c7,.79,22.29,2.57,42.67-13.75Z"/><path class="cls-22" d="M360.27,261.77s2.25,3.88-3.55,4.78c-3.55.55-4.88-.37-5.37-1.18a.79.79,0,0,1,.5-1.17Z"/><path class="cls-21" d="M425,282.86l-15.31-31.64a7.14,7.14,0,0,0-9.41-3.49h0a7.14,7.14,0,0,0-3.63,9.32l14,31Z"/><path class="cls-21" d="M435.66,288s-10.11-25.5-15.4-33.55c-2.14-3.27-5.84-5.11-9.41-3.5h0a7.15,7.15,0,0,0-3.63,9.33l14,31Z"/><path class="cls-21" d="M379.92,289a2.53,2.53,0,0,1-.55-.26c-1.7-1-12.48-6.81-21.64-8.81a13.39,13.39,0,0,0-12.46,3.42c-2.16,2.24-.63,5.59,2.4,6.32,10.05,2.42,13,5.92,17.93,9.49,11.17,8.05,16.81,34.74,46.62,36.32,1.8.1,16.19-.52,16.65-2.27l-6.51-24.59a3.78,3.78,0,0,0-2.32-4.48Z"/><path class="cls-21" d="M379.61,288.9s3.67-.14,2.93-6.88c0,0,25.19-10.1,46.89-8,0,0,12.73,27.69,23,55.53l-50.66,2.15Z"/><path class="cls-21" d="M383.6,285.91s-1.92-16.46-24.1-57.85c-1.27-2.37-6-12.09-1.46-15.14,2.9-1.95,6,.35,8.39,3.16,1.35,1.6,4.85,7.58,6,9.38,12.34,20.12,30.91,53.85,30.91,53.85Z"/><line class="cls-24" x1="386.33" y1="248.53" x2="401.08" y2="275.14"/><line class="cls-24" x1="398.25" y1="249.14" x2="409.89" y2="270.82"/><line class="cls-24" x1="409.89" y1="251.49" x2="418.63" y2="267.56"/><line class="cls-24" x1="372.51" y1="256.92" x2="377.27" y2="268.26"/><path class="cls-22" d="M370.79,222.84s-5.88,2.23-8.68-2.6c-1.77-3.05-1.52-5.33-.81-6.55a1.93,1.93,0,0,1,2.7-.52C366.24,215.52,369.21,220.48,370.79,222.84Z"/><path class="cls-22" d="M347.67,289.68s.14-4.58,5.27-3c0,0,4.23,1.32,5.07,2.46l-1.5,3.75S354.65,291.71,347.67,289.68Z"/><path class="cls-23" d="M379.61,288.9s3.67-.27,2.93-6.88c0,0,3.1,6.67,2.75,13C385.29,295,381.79,290.1,379.61,288.9Z"/><polygon class="cls-21" points="452.39 329.51 473.38 367.22 428.11 367.22 410.35 323.12 452.39 329.51"/></g></g></svg>