<svg xmlns="http://www.w3.org/2000/svg" viewBox="0 0 771 484.28"><defs><style>.cls-1{fill:#8cb1f4;opacity:0.08;}.cls-2{fill:#c8dbf4;}.cls-3{fill:#d4e4f8;}.cls-4{fill:#9fc1f4;}.cls-5{fill:#8cb4f4;}.cls-6{fill:#9abfe2;}.cls-7{fill:#bad4f4;}.cls-8{fill:#dfebfd;}.cls-9{fill:#b7d3f3;}.cls-10{fill:#c0d8fb;}.cls-11{fill:#4680c6;}.cls-12{fill:#233862;}.cls-13{fill:#ffb27d;}.cls-14{fill:#0f2549;}.cls-15{fill:#2b478b;}.cls-16{fill:#ed975d;}.cls-17{fill:#fff;}.cls-18{fill:#ebf3ff;}.cls-19{fill:#ed7d2b;}.cls-20{fill:#f99746;}.cls-21{fill:#182d4f;}.cls-22{fill:#1b3051;}.cls-23{fill:#73a2e5;}</style></defs><g id="Layer_2" data-name="Layer 2"><g id="Layer_1-2" data-name="Layer 1"><ellipse class="cls-1" cx="385.5" cy="439.78" rx="385.5" ry="44.5"/><path class="cls-2" d="M107.68,232S97,219.44,107,211.49c0,0,7.36-4.46,13.36-4.09,0,0-8.5,14.25-5.75,15.67S123,206.5,123,206.5s16.75-1.62,22.13,1c0,0-14.31,11.71-11.3,12.41s18.48-10.8,18.48-10.8,15.58,2.65,14.75,12.16-6.2,12.44-8.56,12.18-16.16-5.52-16.47-3.58,8,8.25,13.83,8.54c0,0-11,12.12-18.29,8.62s-7.92-9-12.47-11.12-8.44-2.07-6.56.05,10.12,4.18,12.72,8.79,4.94,7.71-2.62,6.57-19.83-6.67-20.37-13Z"/><path class="cls-2" d="M159.35,221.49S117,219.86,107.68,232a30.49,30.49,0,0,1-8.42,11.82l-1,2.71s7.34-7.74,10-8.2C108.22,238.3,104.12,223.3,159.35,221.49Z"/><path class="cls-2" d="M99.26,243.79s-9.09,6.72-9.72,18.73l1.65.14s2.9-12.41,8.14-17.26S99.26,243.79,99.26,243.79Z"/><path class="cls-2" d="M70.15,216.22s17.08-9.57,9.11-22.54c0,0-6.37-8-13.2-10,0,0,3.64,19.35,0,19.81s-2.51-21.86-2.51-21.86-18-8.65-25-8c0,0,11.15,18.9,7.51,18.44S29.86,172.5,29.86,172.5,11.41,169.09,8.46,180s1.82,16.39,4.55,17.07,20.26.46,19.81,2.73-12.3,5.92-18.9,3.88c0,0,7.28,18,16.85,17.07s12.52-6.83,18.44-7.29,10.24,1.14,7.28,2.74-13,.52-17.75,4.58-8.66,6.57.22,8.39,24.82.69,28-6.14Z"/><path class="cls-2" d="M16.88,183.43s47.81,15.48,53.27,32.79a36.4,36.4,0,0,0,4.56,16.62v3.41s-5-11.61-7.74-13.2C67,223.05,77.67,208,16.88,183.43Z"/><path class="cls-2" d="M74.71,232.84s7.37,11.19,3.17,24.82l-1.9-.51s1.84-15-2-22.56S74.71,232.84,74.71,232.84Z"/><path class="cls-3" d="M97.32,203s-22.51-12.61-12-29.71c0,0,8.41-10.51,17.41-13.21,0,0-4.8,25.51,0,26.11s3.3-28.81,3.3-28.81,23.71-11.4,33-10.5c0,0-14.7,24.91-9.9,24.31s21.31-25.81,21.31-25.81,24.31-4.5,28.21,9.9-2.4,21.61-6,22.51-26.71.6-26.11,3.6,16.2,7.8,24.91,5.1c0,0-9.61,23.71-22.21,22.51s-16.51-9-24.31-9.6-13.51,1.5-9.6,3.6,17.1.69,23.4,6.05,11.41,8.65-.3,11.06-32.71.9-36.91-8.11Z"/><path class="cls-3" d="M167.54,159.81s-63,20.41-70.22,43.22c0,0,.3,10.2-6,21.91v4.5s6.6-15.31,10.2-17.41C101.52,212,87.41,192.23,167.54,159.81Z"/><path class="cls-3" d="M91.32,224.94s-9.72,14.76-4.18,32.72l2.5-.67s-2.43-19.79,2.66-29.74S91.32,224.94,91.32,224.94Z"/><path class="cls-3" d="M96.56,296.62a44.09,44.09,0,0,0,44.09-44.09H52.47A44.09,44.09,0,0,0,96.56,296.62Z"/><path class="cls-3" d="M56.82,293.43H136.3a5,5,0,0,1,5,5v.49a0,0,0,0,1,0,0H51.86a0,0,0,0,1,0,0v-.49A5,5,0,0,1,56.82,293.43Z"/><rect class="cls-4" x="51.02" y="252.53" width="90.63" height="1.35"/><path class="cls-5" d="M324.07,442.06h.21a3,3,0,0,0,3-3.16l-11.88-118.7-10.37.93,17.06,119.33A2,2,0,0,0,324.07,442.06Z"/><path class="cls-5" d="M209.63,442.06h-.22a3,3,0,0,1-3-3.16l11.88-118.7,10.38.93L211.61,440.45A1.94,1.94,0,0,1,209.63,442.06Z"/><path class="cls-5" d="M407.91,442.06h.22a3,3,0,0,0,3-3.16l-11.89-118.7-10.37.93,17.07,119.33A1.94,1.94,0,0,0,407.91,442.06Z"/><path class="cls-5" d="M213.17,302.93l-21.1-104.18c-2.71-14.1,9-27,24.16-26.66l40.68.93a32.14,32.14,0,0,1,30.14,23.2l30.87,106.71Z"/><path class="cls-5" d="M225.93,302.93l-21.1-104.18c-2.7-14.1,9-27,24.16-26.66l40.69.93a32.16,32.16,0,0,1,30.14,23.2l30.86,106.71Z"/><path class="cls-5" d="M221.82,302.93H377.24a8.65,8.65,0,0,1,8.65,8.65v10.35a0,0,0,0,1,0,0H221.82a8.65,8.65,0,0,1-8.65-8.65v-1.69A8.65,8.65,0,0,1,221.82,302.93Z" transform="translate(599.06 624.86) rotate(180)"/><rect class="cls-5" x="289.85" y="302.93" width="112.09" height="19" rx="8.65" transform="translate(691.78 624.86) rotate(180)"/><path class="cls-6" d="M165.14,301.57v3.56c0,1.24-.4,2.26-.9,2.26H34.54c-.49,0-.89-1-.89-2.26v-3.56c0-1.24.4-2.26.89-2.26h129.7C164.74,299.31,165.14,300.33,165.14,301.57Z"/><path class="cls-7" d="M165.14,301.57v3.56c0,1.24-.37,2.26-.82,2.26h-103c-.45,0-.82-1-.82-2.26v-3.56c0-1.24.37-2.26.82-2.26h103C164.77,299.31,165.14,300.33,165.14,301.57Z"/><rect class="cls-2" x="40.23" y="307.39" width="92.08" height="134.21"/><rect class="cls-8" x="66.04" y="307.39" width="92.08" height="134.21"/><path class="cls-9" d="M153.17,434.19H71v-123h82.19Zm-81.3-.89h80.41V312.07H71.87Z"/><rect class="cls-9" x="71.43" y="351.87" width="81.3" height="0.89"/><rect class="cls-9" x="71.43" y="393.36" width="81.3" height="0.89"/><path class="cls-9" d="M120.41,319.11H105.32a1.34,1.34,0,0,1-1.33-1.33h0a1.34,1.34,0,0,1,1.33-1.33h15.09a1.34,1.34,0,0,1,1.33,1.33h0A1.34,1.34,0,0,1,120.41,319.11Z"/><path class="cls-9" d="M120.41,359.68H105.32a1.34,1.34,0,0,1-1.33-1.33h0a1.34,1.34,0,0,1,1.33-1.33h15.09a1.34,1.34,0,0,1,1.33,1.33h0A1.34,1.34,0,0,1,120.41,359.68Z"/><path class="cls-9" d="M120.41,402H105.32a1.34,1.34,0,0,1-1.33-1.33h0a1.34,1.34,0,0,1,1.33-1.33h15.09a1.34,1.34,0,0,1,1.33,1.33h0A1.34,1.34,0,0,1,120.41,402Z"/><rect class="cls-10" x="463.38" width="68.11" height="66.08" rx="15.39"/><rect class="cls-11" x="466.33" y="2.86" width="62.21" height="60.35" rx="14.06"/><circle class="cls-9" cx="497.43" cy="8.89" r="1.41"/><path class="cls-9" d="M507.41,10.89a1.41,1.41,0,1,1,.55,1.92A1.41,1.41,0,0,1,507.41,10.89Z"/><path class="cls-9" d="M517.16,18.64A1.41,1.41,0,0,1,518.69,21a1.41,1.41,0,1,1-1.53-2.37Z"/><path class="cls-9" d="M522,30.63A1.41,1.41,0,1,1,520.58,32,1.41,1.41,0,0,1,522,30.63Z"/><path class="cls-9" d="M519.53,44.55a1.41,1.41,0,1,1-2,0A1.41,1.41,0,0,1,519.53,44.55Z"/><path class="cls-9" d="M510.67,53.43a1.41,1.41,0,1,1-2,0A1.41,1.41,0,0,1,510.67,53.43Z"/><path class="cls-9" d="M496,58a1.42,1.42,0,1,1,1.41,1.41A1.41,1.41,0,0,1,496,58Z"/><path class="cls-9" d="M487.42,10.89a1.41,1.41,0,1,0-.55,1.92A1.41,1.41,0,0,0,487.42,10.89Z"/><path class="cls-9" d="M477.66,18.64a1.4,1.4,0,0,0-2,.42,1.41,1.41,0,0,0,2.37,1.53A1.4,1.4,0,0,0,477.66,18.64Z"/><path class="cls-9" d="M472.83,30.63A1.41,1.41,0,1,0,474.24,32,1.41,1.41,0,0,0,472.83,30.63Z"/><path class="cls-9" d="M475.3,44.55a1.41,1.41,0,1,0,2,2,1.39,1.39,0,0,0,0-2A1.41,1.41,0,0,0,475.3,44.55Z"/><path class="cls-9" d="M484.16,53.43a1.41,1.41,0,0,0,0,2,1.39,1.39,0,0,0,2,0,1.41,1.41,0,0,0-2-2Z"/><path class="cls-9" d="M497.05,32a1.42,1.42,0,1,1,1.41,1.41A1.41,1.41,0,0,1,497.05,32Z"/><rect class="cls-9" x="498.27" y="14.41" width="0.39" height="17.63"/><rect class="cls-9" x="497.02" y="27.77" width="11.88" height="1.16" transform="translate(89.83 316.61) rotate(-38.13)"/><path class="cls-12" d="M353.4,281.13c-8.71,15.15-19.67,21-19.67,21H288.17S360,269.57,353.4,281.13Z"/><path class="cls-13" d="M409.6,431.7c-.5,4.78,6.15,6,13.86,6.49s5.37,2,15.92,4.05S454.2,441.42,455,440c.69-1.26-4.2-3.3-9.42-5.6-.66-.28-1.31-.58-2-.87-5.87-2.66-9.12-8-13.67-12.94-4.3-4.69-8.28-19.6-8.28-19.6l-14.33-3.22s3.89,13.42,5.23,19.15c.79,3.37-.47,7.11-1.58,10A18.72,18.72,0,0,0,409.6,431.7Z"/><path class="cls-14" d="M423.46,438.19c7.72.46,5.37,2,15.92,4.05S454.2,441.42,455,440c.69-1.26-4.2-3.3-9.42-5.6l-.08.09a30.05,30.05,0,0,1-16,0c-7-2-13.7-6.22-18.5-7.63a18.72,18.72,0,0,0-1.37,4.82C409.1,436.48,415.75,437.72,423.46,438.19Z"/><path class="cls-12" d="M387.87,265.6c-7.71-5.41-58.74-15.07-84.78-17.87l-28.79-25S249.8,259,249.61,286.8c-.09,12.94,5.87,14.23,5.87,14.23s92.27.69,96.32,1.1c6.62.69,15.35,17.18,17.54,32.2S410,410.45,410,410.45s8,2.57,11.73,2.36c4-.24,5.84-1.57,5.84-1.57S405.27,277.82,387.87,265.6Z"/><path class="cls-13" d="M385.73,431.7c-.49,4.78,6.16,6,13.87,6.49s5.36,2,15.91,4.05,14.83-.82,15.61-2.24c.69-1.26-4.2-3.3-9.42-5.6l-2-.87c-5.87-2.66-9.12-8-13.66-12.94-4.31-4.69-8.28-19.6-8.28-19.6l-14.34-3.22s3.89,13.42,5.23,19.15c.79,3.37-.47,7.11-1.58,10A18.72,18.72,0,0,0,385.73,431.7Z"/><path class="cls-12" d="M399.6,438.19c7.71.46,5.36,2,15.91,4.05s14.83-.82,15.61-2.24c.69-1.26-4.2-3.3-9.42-5.6l-.08.09a30.05,30.05,0,0,1-16,0c-7-2-13.69-6.22-18.5-7.63a18.72,18.72,0,0,0-1.37,4.82C385.24,436.48,391.89,437.72,399.6,438.19Z"/><path class="cls-15" d="M363.8,265.6c-6.71-4.7-26.86-8.35-49.11-11.06A15,15,0,0,1,302,243.31h0l-51.76-20.56S225.72,259,225.53,286.8c-.09,12.94,5.87,14.23,5.87,14.23s92.28.69,96.32,1.1c6.62.69,15.35,17.18,17.54,32.2s40.66,76.12,40.66,76.12,8,2.57,11.73,2.36c4-.24,5.84-1.57,5.84-1.57S381.19,277.82,363.8,265.6Z"/><path class="cls-12" d="M294.54,72c-7.11-3.73-17.93-4.24-19.69-4.47-21-2.83-33.7,27.74-34.45,37-1.37,17.08-10.4,19.68-23.12,30.37-25.49,21.44-18,46.36-4.07,55.62,8.36,5.55,23.1,0,23.1,0,.21.15,40.32-22.42,60.09-33.3C326,153,312.66,81.49,294.54,72Z"/><path class="cls-13" d="M290.15,146.66c.09.05-9.35,4.34-16.16,2.09-6.41-2.11-12.06-11.76-12-11.78,2.79-.4,5.61-3.15,6.4-19.41l1.24.31,20.71,5.23s-.82,6.57-1.15,12.77C288.93,141.08,289,146,290.15,146.66Z"/><path class="cls-16" d="M290.37,123.1s0,1.36-.77,7.46c-11.72-3-16.88-6.84-20.53-11.29Z"/><path class="cls-13" d="M294.79,123.93s-27.39,4.46-29.91-12.64-7.74-28.05,9.64-31.62,21.75,2.45,24,8S301.85,122.33,294.79,123.93Z"/><path class="cls-12" d="M294.82,79s-12.44,19.64-23.55,24.29-16.56,2.29-16.56,2.29a46.83,46.83,0,0,0,6.37-18,8.4,8.4,0,0,1,5.2-6.76C274.25,77.62,289.67,72.59,294.82,79Z"/><path class="cls-12" d="M283.89,80.85s7.29,3.74,10.3,7.24,6.24,12.56,6,16.68c0,0,3.6-19.75-3.89-26.53C288.35,71,283.89,80.85,283.89,80.85Z"/><path class="cls-17" d="M312.07,188.45c-.83,55.69-.23,44.05-6.32,49.33-1.47,1.27-5.59,2-11,2.39-17.08,1.14-47.1-1.68-48.24-4.83-3.94-10.92-1.16-14.32-4.44-31-.35-1.78-.77-3.7-1.27-5.8-2.74-11.48-5.4-15.39,4.32-33.83,8.81-16.71,19.18-30.29,20-29.8,23.26,13.81,24,2.24,24,2.24S312.48,161.28,312.07,188.45Z"/><path class="cls-17" d="M289.15,137.12s23.81,4,26.62,14.33,19.34,70.88,19.34,70.88-12.16,2.19-17.78-3.43-19.56-52.15-19.56-52.15Z"/><path class="cls-18" d="M294.73,240.17c-17.08,1.14-47.1-1.68-48.24-4.83-3.94-10.92-1.16-14.32-4.44-31l8.23-23.19s-1.36,25.82,6.26,32.61,31.18,13.12,34.88,18.79A20.94,20.94,0,0,1,294.73,240.17Z"/><path class="cls-13" d="M275.16,229.31s16.85-3.75,19.57-2.26,9.36,6.94,10.19,8.84-6.05-1.44-8.29-2c-1.45-.39-5.27.94-7.16,1.57-8,2.65-12.82,1.28-12.82,1.28Z"/><path class="cls-17" d="M265.1,134.88s-23.84,1.4-31.67,12.32c-11,15.37-32.89,80.89-20.36,89.63,14.11,9.84,64.23,2.58,64.23,2.58s1.67-7.8-.65-11.57-40-9.86-41.77-11.6,21.75-33.94,21.75-39.16S265.1,134.88,265.1,134.88Z"/><path class="cls-13" d="M295.54,231.74s3.53,4.56,4.69,5.1a3.49,3.49,0,0,0,1.9.41L299.75,233Z"/><path class="cls-13" d="M294.73,227.05,305,232a1.83,1.83,0,0,1-1.7.65,23.74,23.74,0,0,1-4.45-1.22Z"/><path class="cls-19" d="M332.53,238.87H284.87a3.8,3.8,0,0,1,3.8-3.8h43.86Z"/><polygon class="cls-19" points="332.39 186.96 406.08 186.96 388.41 238.87 314.24 238.87 332.39 186.96"/><polygon class="cls-20" points="407.17 186.96 389.49 238.87 315.32 238.87 333.48 186.96 407.17 186.96"/><path class="cls-17" d="M367.44,212.43A4.79,4.79,0,0,1,363,216a2.76,2.76,0,0,1-2.76-3.59,4.79,4.79,0,0,1,4.42-3.59A2.76,2.76,0,0,1,367.44,212.43Z"/><rect class="cls-21" x="265.93" y="238.87" width="327.86" height="11.68" rx="5.32"/><path class="cls-21" d="M599.24,442.92h.14a3,3,0,0,0,2.61-3.3l-28.77-194.8-10.54.3L596.54,441A2.42,2.42,0,0,0,599.24,442.92Z"/><path class="cls-21" d="M257.58,442.92h-.14a3,3,0,0,1-2.62-3.3l28.78-194.8,10.54.3L260.28,441A2.42,2.42,0,0,1,257.58,442.92Z"/><path class="cls-21" d="M324.2,442.92h-.14a3,3,0,0,1-2.62-3.3l28.78-194.8,10.54.3L326.9,441A2.42,2.42,0,0,1,324.2,442.92Z"/><path class="cls-12" d="M494,442.77h57.1c2.75-3.36,1.74-15.72,1.32-19.76-.08-.82-.14-1.29-.14-1.29s-19.5-15.6-22.18-3.65c-.08.37-.18.74-.29,1.1-3.37,11.17-18.51,16.25-27.25,17.66C496.86,437.75,494.75,440.71,494,442.77Z"/><path class="cls-12" d="M649.8,257.21c-2.06,0-97.82,18-113.66,37.58-7.91,9.8-9.09,122.92-9.09,122.92s9.79,12.14,30.93,5.09c0,0,15.5-77.4,14.36-100.87-.32-6.49,65.43-.94,77.46-4.05s41.43-29.29,35-42.05S649.8,257.21,649.8,257.21Z"/><path class="cls-13" d="M536.55,229.51s-19.31.26-23.88,2.22-13.84,6.45-11.36,7.14,14.32-.29,16.87.11,5.71-.11,7.28-.11h8.87Z"/><path class="cls-13" d="M514,183.15s-6.59-4.7-13-5.61a57.55,57.55,0,0,1-9.34-1.93c-5.9-2.08-17.71-12.7-16.81-13.94,2.86-4,16.64,4.45,19.05,3.55s-4.62-5.91-2.18-7.67c1.28-.92,4.27,3.69,6.71,4.15,3.3.62,5.89,5.29,6.88,5.53,1.94.48,10.42,6.78,10.42,6.78Z"/><path class="cls-19" d="M640.26,128.2s-14.7,4.56-29.19,44.45-20,42-25.25,43.61S534.33,227,534.33,227v11.84h71.22s26.7-25.41,34.71-42.51S640.26,128.2,640.26,128.2Z"/><path class="cls-22" d="M468.74,442.77h57.11c2.74-3.36,1.73-15.72,1.31-19.76-.08-.82-.14-1.29-.14-1.29s-19.5-15.6-22.18-3.65c-.08.37-.18.74-.29,1.1-3.37,11.17-18.51,16.25-27.25,17.66C471.62,437.75,469.52,440.71,468.74,442.77Z"/><path class="cls-15" d="M621.58,257.21c-2.06,0-97.82,18-113.66,37.58-7.91,9.8-9.09,122.92-9.09,122.92s9.79,12.14,30.93,5.09c0,0,15.51-77.4,14.36-100.87-.32-6.49,65.43-.94,77.46-4.05s41.43-29.29,35-42.05S621.58,257.21,621.58,257.21Z"/><path class="cls-13" d="M627.57,140.84a92.89,92.89,0,0,0,20.36-4.43c7.8-2.53,14.09-6.23,10-13.36-3.74-6.58-9.78-21.26-9.38-33.42l-14.52,11.7-9.86,7.94a117.81,117.81,0,0,0,1.12,12.9c.2,1.5.43,3.11.7,4.84a3.5,3.5,0,0,1-1.62,3.53l-.23.14A5.51,5.51,0,0,0,627.57,140.84Z"/><path class="cls-16" d="M624.21,107.34s-.5,1.7.36,8c8.8-1.43,17-8.44,17-8.44-4.48-1.23-6.11-6.07-9.44-5.62Z"/><path class="cls-13" d="M616.08,108.77s33.82,5.62,37-15.5,9.68-34.61-11.79-39.09-26.87,2.94-29.65,9.73S607.36,106.77,616.08,108.77Z"/><path class="cls-15" d="M606.67,54.57c-1.46,5.08,2.43,11.28,9,13.32,9.68,3,7.54,14.91,11.9,14.74s6.12-6.82,10-1.5c3.32,4.55-2.76,9.93-2.34,12.43.71,4.27,7.42,13,13.46,12.59S666,77,663.73,68.13s-11.3-18.24-19.85-19.53S623.44,51,620.7,51,607.45,51.82,606.67,54.57Z"/><path class="cls-20" d="M685.2,157.51c-4.88-19.68-18.4-40.33-27.53-40.31-15.57,0-37.95,4.14-47,26.43-6.65,16.42-15.53,110.86-5.5,117.57,22.94,15.36,76.1,46.7,85.54,14.74C699.38,246.65,693.69,191.66,685.2,157.51Z"/><path class="cls-20" d="M647.39,137.93a18.43,18.43,0,0,0-28.53-8,173.68,173.68,0,0,0-19.57,18.29c-29.06,30.94-35,30.74-40.42,30.11S507.31,168,507.31,168a13.92,13.92,0,0,0-3.75,4.56c-1.85,3.76-.92,6.32-.92,6.32-1.8-1.17,16.34,11.34,25.38,16.33,11.93,6.59,29.9,12.76,37.06,15.11a9.63,9.63,0,0,0,6.23-.09c10.62-3.84,46.31-17.79,75.36-42C654.32,161.79,651.51,148.64,647.39,137.93Z"/><path class="cls-17" d="M659.23,117.39l-3.52-7.94S624.16,112,618.86,130C618.86,130,643.31,117.78,659.23,117.39Z"/><path class="cls-5" d="M735.83,442.06h.22a3,3,0,0,0,3-3.16l-11.88-118.7-10.37.93,17.06,119.33A2,2,0,0,0,735.83,442.06Z"/><path class="cls-5" d="M674.66,442.06h.22a3,3,0,0,0,3-3.16L666,320.19l-10.37.93,17.07,119.33A1.94,1.94,0,0,0,674.66,442.06Z"/><path class="cls-23" d="M559.82,442.06h-.22a3,3,0,0,1-3-3.16l11.89-118.7,10.37.93L561.8,440.45A1.94,1.94,0,0,1,559.82,442.06Z"/><path class="cls-5" d="M732.48,303.38l11.28-99.13c1.47-14.29-3.31-28.28-23.92-29.36l-36.27-2.21c-21.5-.89-31.2,17-33.92,30.78l-21.53,109Z"/><path class="cls-23" d="M568.22,302.93H732.29a0,0,0,0,1,0,0v10.35a8.65,8.65,0,0,1-8.65,8.65H568.22a8.65,8.65,0,0,1-8.65-8.65v-1.69a8.65,8.65,0,0,1,8.65-8.65Z"/><path class="cls-5" d="M636.77,302.93h95.52a0,0,0,0,1,0,0v10.35a8.65,8.65,0,0,1-8.65,8.65H636.77a8.65,8.65,0,0,1-8.65-8.65v-1.69a8.65,8.65,0,0,1,8.65-8.65Z"/></g></g></svg>