<svg xmlns="http://www.w3.org/2000/svg" xmlns:xlink="http://www.w3.org/1999/xlink" viewBox="0 0 586.5 473.17"><defs><style>.cls-1{opacity:0.84;fill:url(#linear-gradient);}.cls-117,.cls-118,.cls-119,.cls-120,.cls-121,.cls-122,.cls-2,.cls-73,.cls-75{fill:none;}.cls-3{isolation:isolate;}.cls-34,.cls-4,.cls-6{mix-blend-mode:multiply;}.cls-5,.cls-6{fill:#999;}.cls-130,.cls-131,.cls-132,.cls-133,.cls-137,.cls-138,.cls-139,.cls-140,.cls-7,.cls-8{mix-blend-mode:color-dodge;}.cls-7{fill:url(#radial-gradient);}.cls-8{fill:url(#radial-gradient-2);}.cls-9{clip-path:url(#clip-path);}.cls-10{fill:#373737;}.cls-11{fill:#8a8a8a;}.cls-12{fill:#969696;}.cls-13{fill:#2d2d2d;}.cls-14{fill:#8f8f8f;}.cls-15{fill:#b3b3b3;}.cls-16{fill:#c8c8c8;}.cls-17{fill:#bebebe;}.cls-18{fill:#3d3d3d;}.cls-19{fill:url(#linear-gradient-2);}.cls-20{fill:#333;}.cls-21{fill:#666;}.cls-22{fill:#8b8b8b;}.cls-23{fill:#cecece;}.cls-24{fill:#d9d9d9;}.cls-25{fill:url(#linear-gradient-3);}.cls-26{fill:url(#radial-gradient-3);}.cls-27{fill:url(#linear-gradient-4);}.cls-28{fill:#283344;}.cls-29{mask:url(#mask);}.cls-30{fill:#e68828;}.cls-31{fill:#864b10;}.cls-32{fill:#aa6014;}.cls-33{fill:#231f20;}.cls-34{fill:#70b9c7;}.cls-35{fill:url(#linear-gradient-5);}.cls-36{stroke:#c3d8dc;stroke-width:6px;}.cls-117,.cls-118,.cls-119,.cls-120,.cls-121,.cls-122,.cls-36,.cls-73,.cls-75{stroke-miterlimit:10;}.cls-37{fill:#94e2f1;}.cls-38{clip-path:url(#clip-path-2);}.cls-39{fill:#90dbea;}.cls-40{fill:#8dd6e5;}.cls-41{fill:#96e4f3;}.cls-42{clip-path:url(#clip-path-3);}.cls-43{fill:#96e5f4;}.cls-44{fill:#57858d;}.cls-45{clip-path:url(#clip-path-4);}.cls-46{fill:#8ad2e0;}.cls-47{clip-path:url(#clip-path-5);}.cls-48{fill:#6f9ec1;}.cls-49{clip-path:url(#clip-path-6);}.cls-50{fill:#94e0f0;}.cls-51{clip-path:url(#clip-path-7);}.cls-52{fill:#6ea8b3;}.cls-53{fill:#71acb8;}.cls-54{fill:#74b1bd;}.cls-55{fill:#77b6c2;}.cls-56{fill:#7abac7;}.cls-57{fill:#7dbfcc;}.cls-58{fill:#81c3d1;}.cls-59{fill:#84c8d6;}.cls-60{fill:#87cddb;}.cls-61{clip-path:url(#clip-path-8);}.cls-62{fill:#507981;}.cls-63{fill:#537d86;}.cls-64{fill:#56828b;}.cls-65{fill:#598790;}.cls-66{fill:#5c8c95;}.cls-67{fill:#5f909a;}.cls-68{fill:#62959f;}.cls-69{fill:#6599a4;}.cls-70{fill:#689fa9;}.cls-71{fill:#6ba3ae;}.cls-72,.cls-75{mix-blend-mode:overlay;}.cls-117,.cls-118,.cls-119,.cls-120,.cls-121,.cls-122,.cls-73{stroke:#fff;}.cls-73{stroke-width:4px;}.cls-74{fill:#fff;}.cls-75{stroke:#d4f2f9;stroke-width:4.8px;}.cls-117,.cls-119,.cls-120,.cls-121,.cls-122,.cls-75{stroke-linecap:round;}.cls-76{fill:#7daab4;}.cls-77{clip-path:url(#clip-path-9);}.cls-78{fill:#58777e;}.cls-79{fill:#5b7b83;}.cls-80{fill:#5f8088;}.cls-81{fill:#62848d;}.cls-82{fill:#658a92;}.cls-83{fill:#698e97;}.cls-84{fill:#6c929c;}.cls-85{fill:#7097a0;}.cls-86{fill:#739ba5;}.cls-87{fill:#76a0aa;}.cls-88{fill:#7aa4af;}.cls-89{fill:#93c7d3;}.cls-90{clip-path:url(#clip-path-10);}.cls-91{clip-path:url(#clip-path-11);}.cls-92{clip-path:url(#clip-path-12);}.cls-93{clip-path:url(#clip-path-13);}.cls-94{clip-path:url(#clip-path-14);}.cls-95{fill:url(#linear-gradient-6);}.cls-96{fill:#90c2ce;}.cls-97{clip-path:url(#clip-path-15);}.cls-98{fill:#80aeb9;}.cls-99{fill:#84b2be;}.cls-100{clip-path:url(#clip-path-16);}.cls-101{fill:#87b7c2;}.cls-102{fill:#8bbbc7;}.cls-103{fill:#8ec0cc;}.cls-104{fill:#91c5d1;}.cls-105{fill:#95c9d6;}.cls-106{fill:#98cedb;}.cls-107{fill:#9bd2e0;}.cls-108{fill:#9fd7e4;}.cls-109{fill:#a2dbe9;}.cls-110{fill:#a6e0ee;}.cls-111{fill:#a9e5f3;}.cls-112{fill:#b3e8f4;}.cls-113{fill:#b8e9f5;}.cls-114{fill:#bbeaf5;}.cls-115{clip-path:url(#clip-path-17);}.cls-116{mix-blend-mode:soft-light;}.cls-117,.cls-118{stroke-width:3.92px;}.cls-119{stroke-width:3.38px;}.cls-120{stroke-width:2.95px;}.cls-121{stroke-width:3.75px;}.cls-122{stroke-width:3.66px;}.cls-123{clip-path:url(#clip-path-18);}.cls-124{clip-path:url(#clip-path-19);}.cls-125{clip-path:url(#clip-path-20);}.cls-126{fill:url(#linear-gradient-7);}.cls-127{fill:#12222d;}.cls-128{fill:url(#linear-gradient-8);}.cls-129{fill:#27bde1;}.cls-130{fill:url(#radial-gradient-4);}.cls-131{fill:url(#radial-gradient-5);}.cls-132{fill:url(#radial-gradient-6);}.cls-133{fill:url(#radial-gradient-7);}.cls-134{fill:#be1e3d;}.cls-134,.cls-135,.cls-136,.cls-141,.cls-142{mix-blend-mode:screen;}.cls-135{fill:url(#radial-gradient-8);}.cls-136{fill:url(#radial-gradient-9);}.cls-137{fill:url(#radial-gradient-10);}.cls-138{fill:url(#radial-gradient-11);}.cls-139{fill:url(#radial-gradient-12);}.cls-140{fill:url(#radial-gradient-13);}.cls-141{fill:url(#radial-gradient-14);}.cls-142{fill:url(#radial-gradient-15);}</style><linearGradient id="linear-gradient" x1="392.77" y1="411.34" x2="335.19" y2="149" gradientUnits="userSpaceOnUse"><stop offset="0" stop-color="#231f20"/><stop offset="0.2" stop-color="#474445"/><stop offset="0.64" stop-color="#a2a1a1"/><stop offset="1" stop-color="#f1f2f2"/></linearGradient><radialGradient id="radial-gradient" cx="-1281.21" cy="20338.82" r="20.73" gradientTransform="matrix(-4.95, 2.9, -0.24, -0.17, -1358.35, 7602.22)" gradientUnits="userSpaceOnUse"><stop offset="0" stop-color="#0084bc"/><stop offset="0.07" stop-color="#006b99"/><stop offset="0.17" stop-color="#004f70"/><stop offset="0.27" stop-color="#00364e"/><stop offset="0.38" stop-color="#002331"/><stop offset="0.5" stop-color="#00131b"/><stop offset="0.63" stop-color="#00080c"/><stop offset="0.78" stop-color="#000203"/><stop offset="0.99"/></radialGradient><radialGradient id="radial-gradient-2" cx="2661" cy="123.08" r="12.65" gradientTransform="matrix(0, -1.34, -1.46, 0, 357.12, 3944.74)" gradientUnits="userSpaceOnUse"><stop offset="0" stop-color="#39b53f"/><stop offset="0.09" stop-color="#39b53f"/><stop offset="0.43" stop-color="#214855"/><stop offset="0.61" stop-color="#161360"/><stop offset="0.99"/></radialGradient><clipPath id="clip-path"><path class="cls-2" d="M459.78,248.51h0l.05-18.6h0Q459.8,239.21,459.78,248.51Z"/></clipPath><linearGradient id="linear-gradient-2" x1="241.7" y1="416.77" x2="275.36" y2="416.77" gradientUnits="userSpaceOnUse"><stop offset="0.53" stop-color="#ccc"/><stop offset="1" stop-color="gray"/></linearGradient><linearGradient id="linear-gradient-3" x1="174.4" y1="284.74" x2="478.6" y2="284.74" gradientUnits="userSpaceOnUse"><stop offset="0" stop-color="#006378"/><stop offset="0.09" stop-color="#04667b"/><stop offset="0.19" stop-color="#106e83"/><stop offset="0.29" stop-color="#257b90"/><stop offset="0.38" stop-color="#428ea3"/><stop offset="0.48" stop-color="#67a7bc"/><stop offset="0.58" stop-color="#93c4d9"/><stop offset="0.61" stop-color="#a4cfe4"/><stop offset="0.64" stop-color="#8bbcd5"/><stop offset="0.69" stop-color="#67a1bf"/><stop offset="0.74" stop-color="#498bad"/><stop offset="0.79" stop-color="#327a9f"/><stop offset="0.85" stop-color="#226e95"/><stop offset="0.92" stop-color="#18668f"/><stop offset="1" stop-color="#15648d"/></linearGradient><radialGradient id="radial-gradient-3" cx="394.21" cy="344.43" r="101.18" gradientUnits="userSpaceOnUse"><stop offset="0" stop-color="#a9e5f3"/><stop offset="0" stop-color="#b7deec"/><stop offset="0" stop-color="#d0d0e0"/><stop offset="0.36" stop-color="#afafb8"/><stop offset="0.78" stop-color="#8d8d90"/><stop offset="1" stop-color="gray"/></radialGradient><linearGradient id="linear-gradient-4" x1="116.41" y1="290.75" x2="515.92" y2="290.75" gradientUnits="userSpaceOnUse"><stop offset="0" stop-color="#9dcad4"/><stop offset="0.02" stop-color="#a3cdd7"/><stop offset="0.11" stop-color="#bcdae2"/><stop offset="0.2" stop-color="#d0e4eb"/><stop offset="0.32" stop-color="#deecf1"/><stop offset="0.46" stop-color="#e6f0f5"/><stop offset="0.71" stop-color="#e8f1f6"/><stop offset="0.77" stop-color="#e9ebf3"/><stop offset="0.85" stop-color="#eed8ea"/><stop offset="0.95" stop-color="#f4bbdb"/><stop offset="1" stop-color="#f8aad2"/></linearGradient><mask id="mask" x="282.94" y="200.05" width="170.17" height="272.34" maskUnits="userSpaceOnUse"><polygon class="cls-1" points="453.12 296.59 282.94 397.2 282.94 293.21 453.12 200.04 453.12 296.59"/></mask><linearGradient id="linear-gradient-5" x1="181.04" y1="304.56" x2="83.11" y2="462.96" gradientUnits="userSpaceOnUse"><stop offset="0" stop-color="#d1d3d4"/><stop offset="0.27" stop-color="#e7e8e9"/><stop offset="0.52" stop-color="#fff"/><stop offset="0.68" stop-color="#f4f4f5"/><stop offset="0.95" stop-color="#d7d8d9"/><stop offset="1" stop-color="#d1d3d4"/></linearGradient><clipPath id="clip-path-2"><path class="cls-2" d="M385.75,81.05l-20.38-7.8c.48-1,.94-2.11,1.41-3.17,1-2.1,1.82-4.26,2.72-6.39.45-1.07.85-2.15,1.28-3.23l20.38,7.8c-.43,1.08-.83,2.16-1.28,3.23-.9,2.13-1.76,4.29-2.72,6.39C386.69,78.94,386.23,80,385.75,81.05Z"/></clipPath><clipPath id="clip-path-3"><path class="cls-2" d="M383.52,85.76,363.14,78c.26-.52.5-1,.75-1.57l20.38,7.8C384,84.71,383.78,85.24,383.52,85.76Z"/></clipPath><clipPath id="clip-path-4"><path class="cls-2" d="M391.79,66.64l-20.38-7.8c.22-.53.42-1.07.62-1.62.78-2.18,1.62-4.33,2.34-6.53q3.54-10.3,6.23-20.84L401,37.65q-2.7,10.51-6.23,20.84c-.72,2.2-1.56,4.35-2.34,6.53C392.21,65.57,392,66.11,391.79,66.64Z"/></clipPath><clipPath id="clip-path-5"><path class="cls-2" d="M377.92,96.53l-20.38-7.8c1.14-2,2.19-4.07,3.28-6.11.53-1,1-2.07,1.55-3.1l20.38,7.8c-.52,1-1,2.07-1.55,3.1C380.11,92.46,379.06,94.52,377.92,96.53Z"/></clipPath><clipPath id="clip-path-6"><path class="cls-2" d="M352.32,133.23l-20.38-7.8c.76-.85,1.48-1.75,2.23-2.61a211.57,211.57,0,0,0,16.29-22.19c2.47-3.89,4.86-7.84,7.08-11.9l20.38,7.8c-2.22,4.06-4.6,8-7.08,11.9a211.57,211.57,0,0,1-16.29,22.19C353.81,131.48,353.08,132.38,352.32,133.23Z"/></clipPath><clipPath id="clip-path-7"><path class="cls-2" d="M268.61,190l-20.39-7.8c.72-.2,1.39-.4,2.05-.61l1-.32c1-.33,2-.68,3-1q3-1.08,5.94-2.3t5.88-2.58q2.93-1.35,5.82-2.82a193.29,193.29,0,0,0,22.51-13.45,202.65,202.65,0,0,0,20.93-16.68q5-4.55,9.71-9.46c.78-.83,1.57-1.63,2.34-2.48l20.38,7.8c-.76.85-1.56,1.65-2.34,2.48-3.14,3.27-6.39,6.43-9.71,9.46a202.65,202.65,0,0,1-20.93,16.68,193.29,193.29,0,0,1-22.51,13.45q-2.89,1.47-5.82,2.82t-5.88,2.58q-3,1.22-5.94,2.3c-1,.36-2,.71-3,1l-1,.32C270,189.63,269.32,189.84,268.61,190Z"/></clipPath><clipPath id="clip-path-8"><path class="cls-2" d="M268.25,192.81,247.87,185a1.22,1.22,0,0,1-.72-1.17,1.67,1.67,0,0,1,1.07-1.6l20.39,7.8a1.69,1.69,0,0,0-1.08,1.6A1.22,1.22,0,0,0,268.25,192.81Z"/></clipPath><clipPath id="clip-path-9"><path class="cls-2" d="M426.55,334.51v5.13a1.68,1.68,0,0,1-1,1.37,5.25,5.25,0,0,1-4.76,0v-5.13a5.21,5.21,0,0,0,4.77,0A1.66,1.66,0,0,0,426.55,334.51Z"/></clipPath><clipPath id="clip-path-10"><path class="cls-2" d="M419,338.92l0,5.12a1.65,1.65,0,0,1-1,1.37,5.25,5.25,0,0,1-4.76,0v-5.12a5.27,5.27,0,0,0,4.77,0A1.68,1.68,0,0,0,419,338.92Z"/></clipPath><clipPath id="clip-path-11"><path class="cls-2" d="M411.4,343.32v5.12a1.69,1.69,0,0,1-1,1.37,5.21,5.21,0,0,1-4.77,0l0-5.12a5.25,5.25,0,0,0,4.76,0A1.67,1.67,0,0,0,411.4,343.32Z"/></clipPath><clipPath id="clip-path-12"><path class="cls-2" d="M403.82,347.72v5.13a1.68,1.68,0,0,1-1,1.37,5.25,5.25,0,0,1-4.76,0v-5.13a5.19,5.19,0,0,0,4.76,0A1.65,1.65,0,0,0,403.82,347.72Z"/></clipPath><clipPath id="clip-path-13"><path class="cls-2" d="M558.44,393.25,558.37,368a15.27,15.27,0,0,1-2.32,8l.07,25.21A15.3,15.3,0,0,0,558.44,393.25Z"/></clipPath><clipPath id="clip-path-14"><path class="cls-2" d="M578.36,419.51l-.07-25.2a12.46,12.46,0,0,1-3.57,8.47l.07,25.21A12.49,12.49,0,0,0,578.36,419.51Z"/></clipPath><linearGradient id="linear-gradient-6" x1="-1311.81" y1="390.39" x2="-1147.05" y2="390.39" gradientTransform="matrix(-1, 0, 0, 1, -725.34, 0)" gradientUnits="userSpaceOnUse"><stop offset="0.01" stop-color="#e3cbe5"/><stop offset="0.03" stop-color="#decce6"/><stop offset="0.07" stop-color="#d0cee7"/><stop offset="0.1" stop-color="#b8d1eb"/><stop offset="0.13" stop-color="#96d6ef"/><stop offset="0.17" stop-color="#6cdcf4"/><stop offset="0.17" stop-color="#66ddf5"/><stop offset="0.19" stop-color="#7ae1f6"/><stop offset="0.23" stop-color="#a9ecf9"/><stop offset="0.26" stop-color="#cef4fc"/><stop offset="0.3" stop-color="#e9fafe"/><stop offset="0.33" stop-color="#f9feff"/><stop offset="0.35" stop-color="#fff"/><stop offset="0.38" stop-color="#d1f1f9"/><stop offset="0.42" stop-color="#a5e3f2"/><stop offset="0.46" stop-color="#7ed8ed"/><stop offset="0.5" stop-color="#5ecee9"/><stop offset="0.55" stop-color="#46c6e5"/><stop offset="0.59" stop-color="#35c1e3"/><stop offset="0.64" stop-color="#2abee1"/><stop offset="0.7" stop-color="#27bde1"/><stop offset="0.76" stop-color="#2abee1"/><stop offset="0.8" stop-color="#34c1e3"/><stop offset="0.84" stop-color="#44c6e5"/><stop offset="0.87" stop-color="#5bcde8"/><stop offset="0.9" stop-color="#79d6ec"/><stop offset="0.94" stop-color="#9ee1f1"/><stop offset="0.97" stop-color="#c9eff8"/><stop offset="1" stop-color="#fafefe"/><stop offset="1" stop-color="#fff"/></linearGradient><clipPath id="clip-path-15"><path class="cls-2" d="M421.67,362.84l.07,19.58c0,5.14,3.37,10.28,10.09,14.18L431.76,377C425,373.12,421.68,368,421.67,362.84Z"/></clipPath><clipPath id="clip-path-16"><path class="cls-2" d="M586.5,437.49l-.07-19.58c0,5.21-3.41,10.43-10.25,14.38-13.61,7.86-35.8,7.86-49.31,0l.07,19.58c13.51,7.86,35.7,7.86,49.31,0C583.09,447.92,586.51,442.7,586.5,437.49Z"/></clipPath><clipPath id="clip-path-17"><path class="cls-2" d="M481.56,349.07l5.63,3.25.91-.54c16-9.22,41.87-9.22,57.84,0,11.44,6.61,14.68,16.16,9.72,24.43a42.18,42.18,0,0,1,12.21,4.54c10.46,6,12.67,15,6.41,21.85l1.65.95c13.41,7.75,13.41,20.42,0,28.16h0c-13.41,7.74-35.36,7.74-48.77,0L432.8,377.23c-13.41-7.75-13.41-20.42,0-28.16h0C446.21,341.33,468.15,341.33,481.56,349.07Z"/></clipPath><clipPath id="clip-path-18"><path class="cls-2" d="M508.91,388.4h0q0-12.6-.07-25.21h0Q508.87,375.81,508.91,388.4Z"/></clipPath><clipPath id="clip-path-19"><path class="cls-2" d="M504.43,389.48a9.11,9.11,0,0,1,4.48-1.08q0-12.6-.07-25.21a9.11,9.11,0,0,0-4.48,1.08q0,11.13.07,22.26Z"/></clipPath><clipPath id="clip-path-20"><path class="cls-2" d="M513.38,389.47q0-12.6-.07-25.2a9,9,0,0,0-4.47-1.08q0,12.62.07,25.21A9.15,9.15,0,0,1,513.38,389.47Z"/></clipPath><linearGradient id="linear-gradient-7" x1="-1266.96" y1="381.9" x2="-1202.37" y2="381.9" gradientTransform="matrix(-1, 0, 0, 1, -725.34, 0)" gradientUnits="userSpaceOnUse"><stop offset="0" stop-color="#1f5a78"/><stop offset="0.19" stop-color="#e3cbe5"/><stop offset="0.21" stop-color="#decce6"/><stop offset="0.23" stop-color="#d0cee7"/><stop offset="0.26" stop-color="#b8d1eb"/><stop offset="0.29" stop-color="#96d6ef"/><stop offset="0.32" stop-color="#6cdcf4"/><stop offset="0.32" stop-color="#66ddf5"/><stop offset="0.42" stop-color="#4eb0ca"/><stop offset="0.51" stop-color="#398ba6"/><stop offset="0.6" stop-color="#2b708d"/><stop offset="0.68" stop-color="#22607d"/><stop offset="0.74" stop-color="#1f5a78"/><stop offset="0.83" stop-color="#1f5c7a"/><stop offset="0.87" stop-color="#206482"/><stop offset="0.91" stop-color="#217090"/><stop offset="0.94" stop-color="#2283a3"/><stop offset="0.97" stop-color="#249abc"/><stop offset="0.99" stop-color="#26b6da"/><stop offset="1" stop-color="#27bde1"/></linearGradient><linearGradient id="linear-gradient-8" x1="-1261.03" y1="381.9" x2="-1208.3" y2="381.9" gradientTransform="matrix(-1, 0, 0, 1, -725.34, 0)" gradientUnits="userSpaceOnUse"><stop offset="0" stop-color="#fce37a"/><stop offset="0.62" stop-color="#e0ae3c"/><stop offset="0.92" stop-color="#d59822"/></linearGradient><radialGradient id="radial-gradient-4" cx="3401.02" cy="275.18" r="3.3" gradientTransform="matrix(-0.14, -1.41, -1.25, -0.55, 1314.33, 5365.47)" gradientUnits="userSpaceOnUse"><stop offset="0" stop-color="#66b6d7"/><stop offset="0.29" stop-color="#0084bc"/><stop offset="0.42" stop-color="#005f87"/><stop offset="0.56" stop-color="#003d57"/><stop offset="0.68" stop-color="#002331"/><stop offset="0.8" stop-color="#001016"/><stop offset="0.91" stop-color="#000406"/><stop offset="0.99"/></radialGradient><radialGradient id="radial-gradient-5" cx="3402.24" cy="284.46" r="3.3" xlink:href="#radial-gradient-4"/><radialGradient id="radial-gradient-6" cx="3403.58" cy="294.6" r="3.3" xlink:href="#radial-gradient-4"/><radialGradient id="radial-gradient-7" cx="3404.83" cy="304.09" r="3.3" xlink:href="#radial-gradient-4"/><radialGradient id="radial-gradient-8" cx="2747.04" cy="3345.27" r="3.67" gradientTransform="matrix(0.71, -0.64, -0.99, -1.47, 1870.22, 7120.23)" gradientUnits="userSpaceOnUse"><stop offset="0" stop-color="#e592cc"/><stop offset="0.29" stop-color="#d44aaa"/><stop offset="0.33" stop-color="#c2449c"/><stop offset="0.46" stop-color="#882f6d"/><stop offset="0.59" stop-color="#571e46"/><stop offset="0.71" stop-color="#311128"/><stop offset="0.82" stop-color="#160812"/><stop offset="0.91" stop-color="#060205"/><stop offset="0.99"/></radialGradient><radialGradient id="radial-gradient-9" cx="2714.27" cy="3383.58" r="3.67" xlink:href="#radial-gradient-8"/><radialGradient id="radial-gradient-10" cx="3420.47" cy="579.16" r="4.83" gradientTransform="matrix(0.14, -1.41, 1.25, -0.55, -884.58, 5524.56)" xlink:href="#radial-gradient-4"/><radialGradient id="radial-gradient-11" cx="3421.76" cy="588.74" r="4.83" gradientTransform="matrix(0.14, -1.41, 1.25, -0.55, -884.58, 5524.56)" xlink:href="#radial-gradient-4"/><radialGradient id="radial-gradient-12" cx="3423.28" cy="598.3" r="4.83" gradientTransform="matrix(0.14, -1.41, 1.25, -0.55, -884.58, 5524.56)" xlink:href="#radial-gradient-4"/><radialGradient id="radial-gradient-13" cx="3423.85" cy="606.26" r="4.83" gradientTransform="matrix(0.14, -1.41, 1.25, -0.55, -884.58, 5524.56)" xlink:href="#radial-gradient-4"/><radialGradient id="radial-gradient-14" cx="2525.89" cy="3572.42" r="7" gradientTransform="matrix(-0.71, -0.64, 0.99, -1.47, -1440.47, 7279.31)" xlink:href="#radial-gradient-8"/><radialGradient id="radial-gradient-15" cx="2494.86" cy="3609.09" r="7" gradientTransform="matrix(-0.71, -0.64, 0.99, -1.47, -1440.47, 7279.31)" xlink:href="#radial-gradient-8"/></defs><g class="cls-3"><g id="Layer_2" data-name="Layer 2"><g id="Layer_1-2" data-name="Layer 1"><g class="cls-4"><path class="cls-5" d="M479.53,379l5.67,3.29.92-.55c16.2-9.35,42.39-9.35,58.49,0,11.53,6.71,14.75,16.4,9.69,24.79a42.39,42.39,0,0,1,12.31,4.6c10.55,6.13,12.73,15.19,6.37,22.17l1.66,1c13.51,7.85,13.44,20.71-.16,28.56s-35.8,7.85-49.31,0l-95.11-55.27c-13.52-7.86-13.45-20.71.16-28.56S466,371.17,479.53,379Zm24.07,51a9.87,9.87,0,0,0,8.95,0L538,415.32c2.47-1.44,2.49-3.76,0-5.19l-26.48-15.38a9.85,9.85,0,0,0-8.94,0l-25.46,14.7c-2.48,1.43-2.49,3.75,0,5.18L503.6,430"/></g><path class="cls-6" d="M242.18,439l-109.8-60.32a22.86,22.86,0,0,1-.84-39.59L372.66,192.92,518,272.78a10.79,10.79,0,0,1,.4,18.68L276.24,438.23A34.06,34.06,0,0,1,242.18,439Z"/><path class="cls-7" d="M74.9,441.89c-2.7-2,41-30.46,97.61-63.61s104.7-58.42,107.4-56.44-41,30.45-97.61,63.6S77.6,443.86,74.9,441.89Z"/><ellipse class="cls-8" cx="177.4" cy="384.91" rx="18.46" ry="16.93" transform="translate(-44.94 24.09) rotate(-6.9)"/><g class="cls-3"><g class="cls-9"><g class="cls-3"><polyline class="cls-10" points="459.83 229.91 459.78 248.51 459.77 248.51 459.82 229.91 459.83 229.91"/></g></g></g><path class="cls-11" d="M517.65,279.59l.14-.18.29-.39.15-.23c.08-.12.16-.24.23-.36l.15-.25.19-.35.13-.25c.05-.12.11-.23.16-.35s.07-.17.11-.26.09-.23.13-.35l.09-.26c0-.12.07-.24.1-.36s.05-.17.07-.26,0-.24.07-.37a2,2,0,0,0,.05-.24c0-.14,0-.28,0-.42a1.23,1.23,0,0,0,0-.2c0-.21,0-.41,0-.62l.05-18.6c0,.21,0,.41,0,.62l0,.2c0,.14,0,.28,0,.42s0,.16,0,.24-.05.25-.08.38a2.33,2.33,0,0,1-.07.25c0,.12-.06.24-.1.36l-.09.26c0,.12-.08.23-.13.35l-.11.26c0,.12-.1.23-.16.35s-.08.17-.13.25a3.9,3.9,0,0,1-.19.35l-.14.25-.23.36-.16.23-.29.39-.14.18q-.23.28-.48.57l0,0c-.16.18-.33.35-.5.53l-.19.18-.39.36-.24.21-.39.33-.27.21-.4.31-.3.21-.47.32a1.37,1.37,0,0,1-.2.13c-.23.16-.48.31-.73.46l0,18.6.73-.45.2-.14.24-.16.22-.16.31-.22.39-.29.28-.22.38-.32.25-.22.38-.36.19-.18c.17-.17.34-.35.49-.52l0,0Q517.43,279.88,517.65,279.59Z"/><polygon class="cls-12" points="359.79 177.68 359.73 196.28 121.97 336.85 122.02 318.25 359.79 177.68"/><polygon class="cls-13" points="361.33 192.81 361.28 211.41 168.78 325.42 168.84 306.82 361.33 192.81"/><polygon class="cls-14" points="361.4 196.03 361.35 214.63 174.35 325.4 174.4 306.8 361.4 196.03"/><path class="cls-15" d="M119.22,335.88l-.59-.37-.34-.23-.51-.35-.38-.28-.34-.26-.36-.3-.32-.27-.38-.35-.22-.22c-.14-.13-.27-.27-.4-.41s-.11-.11-.16-.16-.34-.39-.5-.58l-.11-.14-.34-.45-.15-.22-.25-.39-.14-.24c-.07-.12-.14-.24-.2-.36s-.1-.18-.14-.27-.12-.24-.17-.36l-.12-.27-.13-.34c0-.11-.07-.21-.1-.31s-.07-.23-.1-.35l-.09-.31-.06-.31c0-.13-.05-.26-.07-.39s0-.21,0-.31l0-.39c0-.16,0-.33,0-.49l0,18.6v.33c0,.06,0,.11,0,.16s0,.26,0,.39,0,.21,0,.31,0,.26.07.39l0,.2,0,.11c0,.11.05.21.08.31s.07.23.1.35.07.2.11.31l.07.21.06.13.12.27c0,.12.11.24.17.36s.08.18.13.27l.08.15.13.21c0,.08.09.16.14.24l.25.39.15.22,0,.06.3.39.11.14.47.56,0,0,.16.17.39.4.23.22.29.27.09.08.31.27.37.3.34.26.26.2.12.08.5.35.34.23.6.36.26.17.1.06.06-18.6Z"/><polygon class="cls-16" points="291.6 373.44 291.55 392.04 174.35 325.4 174.4 306.8 291.6 373.44"/><polygon class="cls-17" points="291.67 376.67 291.61 395.27 168.79 325.42 168.84 306.82 291.67 376.67"/><polygon class="cls-18" points="244.51 403.95 244.46 422.55 122.18 353.01 122.23 334.41 244.51 403.95"/><polygon class="cls-16" points="241.75 405.57 241.7 424.17 119.53 354.7 119.59 336.1 241.75 405.57"/><path class="cls-19" d="M275.36,405.41l-.05,18.6c-9.17,5.42-24.23,5.5-33.61.16l.05-18.6C251.14,410.91,266.19,410.83,275.36,405.41Z"/><path class="cls-20" d="M195.67,387.7a2.47,2.47,0,0,1-.35,1.38,1.56,1.56,0,0,1-.75.64,3,3,0,0,1-2.65-.43l-30.83-17.8a8.31,8.31,0,0,1-3.41-4.14,5.3,5.3,0,0,1-.35-1.78,2,2,0,0,1,1.1-2,3.08,3.08,0,0,1,2.66.43l30.83,17.8A7.8,7.8,0,0,1,195.67,387.7Z"/><path class="cls-21" d="M195.32,389.08a1.56,1.56,0,0,1-.75.64,3,3,0,0,1-2.65-.43l-30.83-17.8a8.31,8.31,0,0,1-3.41-4.14,1.71,1.71,0,0,1,.75-.64,3.06,3.06,0,0,1,2.66.44l30.83,17.79A8.24,8.24,0,0,1,195.32,389.08Z"/><polygon class="cls-16" points="510.1 247.08 510.04 265.68 387.76 196.15 387.81 177.55 510.1 247.08"/><path class="cls-22" d="M459.81,229.9c1,.6,1.06,1.57,0,2.17a4.13,4.13,0,0,1-3.75,0L410.58,206.2c-1.05-.6-1.06-1.57-.05-2.17a4.18,4.18,0,0,1,3.76,0Z"/><polygon class="cls-18" points="484.16 262.65 484.11 281.25 361.28 211.41 361.33 192.81 484.16 262.65"/><polygon class="cls-17" points="478.6 262.68 478.55 281.28 361.35 214.63 361.4 196.03 478.6 262.68"/><polygon class="cls-12" points="478.6 262.68 478.55 281.28 291.55 392.04 291.6 373.44 478.6 262.68"/><path class="cls-23" d="M484.16,262.65l-192.49,114L168.84,306.82l192.49-114ZM174.4,306.8l117.2,66.64,187-110.76L361.4,196,174.4,306.8"/><polygon class="cls-14" points="484.16 262.65 484.11 281.25 291.61 395.27 291.67 376.67 484.16 262.65"/><path class="cls-24" d="M513.12,264.84,275.36,405.41c-9.17,5.42-24.22,5.5-33.61.16L119.59,336.1c-9.38-5.42-9.5-14.06-.39-19.45L357,176.08c9.17-5.42,24.22-5.5,33.6-.16l122.17,69.47C522.11,250.8,522.24,259.45,513.12,264.84ZM258.59,407.25a28.13,28.13,0,0,0,14-3.44L510.3,263.24c7.57-4.47,7.48-11.72-.2-16.16L387.81,177.55a28.51,28.51,0,0,0-14.08-3.3,28.08,28.08,0,0,0-14,3.43L122,318.25c-7.57,4.47-7.48,11.72.21,16.16L244.51,404a28.76,28.76,0,0,0,14.08,3.3"/><polygon class="cls-25" points="478.6 262.68 291.6 373.44 174.4 306.8 361.4 196.03 478.6 262.68"/><polygon class="cls-26" points="513.12 264.84 513.07 283.44 275.31 424.01 275.36 405.41 513.12 264.84"/><path class="cls-27" d="M510.3,263.24,272.54,403.81a28,28,0,0,1-14,3.43A28.62,28.62,0,0,1,244.51,404L122.23,334.41c-7.69-4.44-7.78-11.69-.21-16.16L359.78,177.68a28.08,28.08,0,0,1,14-3.43,28.51,28.51,0,0,1,14.08,3.3L510.1,247.08C517.78,251.52,517.87,258.77,510.3,263.24Z"/><path class="cls-28" d="M510.3,263.24,272.54,403.82a28.24,28.24,0,0,1-14,3.43,28.73,28.73,0,0,1-14.08-3.3L122.23,334.41c-7.69-4.43-7.78-11.68-.21-16.16L359.78,177.68a28.05,28.05,0,0,1,14-3.43,28.51,28.51,0,0,1,14.08,3.3L510.1,247.08C517.78,251.52,517.87,258.77,510.3,263.24Z"/><g class="cls-29"><g class="cls-3"><polygon class="cls-30" points="429.18 237.08 410.5 226.67 410.32 386.98 428.78 376.25 429.18 237.08"/><polygon class="cls-31" points="428.78 376.25 410.32 386.98 432.25 399.64 450.71 388.91 428.78 376.25"/><polygon class="cls-32" points="450.71 388.91 450.9 224.74 429.18 237.08 428.78 376.25 450.71 388.91"/></g><g class="cls-3"><polygon class="cls-30" points="386 262.04 367.32 251.63 367.14 411.93 385.6 401.2 386 262.04"/><polygon class="cls-31" points="385.6 401.2 367.14 411.93 389.07 424.59 407.53 413.86 385.6 401.2"/><polygon class="cls-32" points="407.53 413.86 407.71 249.7 386 262.04 385.6 401.2 407.53 413.86"/></g><g class="cls-3"><polygon class="cls-30" points="343.75 285.85 325.07 275.44 324.89 435.75 343.35 425.02 343.75 285.85"/><polygon class="cls-31" points="343.35 425.02 324.89 435.75 346.82 448.41 365.28 437.68 343.35 425.02"/><polygon class="cls-32" points="365.28 437.68 365.47 273.51 343.75 285.85 343.35 425.02 365.28 437.68"/></g><g class="cls-3"><polygon class="cls-30" points="302.79 309.83 284.11 299.42 283.93 459.73 302.39 449 302.79 309.83"/><polygon class="cls-31" points="302.39 449 283.93 459.73 305.86 472.39 324.32 461.66 302.39 449"/><polygon class="cls-32" points="324.32 461.66 324.51 297.49 302.79 309.83 302.39 449 324.32 461.66"/></g></g><polygon class="cls-33" points="252.85 385.96 155.8 329.57 168.34 322.33 265.4 378.72 252.85 385.96"/><path class="cls-34" d="M164,340c-4.48-1-19-3.37-31.71-.29C105.4,346.24,59.84,401.17,44.63,412,28.55,425.58,9.21,424.62,7.17,424c8.22,4.29,78.19,46.36,83.6,47.54,4.48,1,9.61,2.79,16.47.58,6.5-2.08,20.5-10.14,26.09-15,28.7-24.7,55-64.63,80.22-78.85,14.08-7.94,42.1.78,42.1.78S170.49,341.42,164,340Z"/><path class="cls-35" d="M169.9,329c-4.33-1.51-18.45-5.66-31.45-4.14C111,328,54.26,384.4,37.85,393.32c-4.49,2.44-15.7,7.67-27.11,9.46A18.08,18.08,0,0,1,0,401.62c7.65,5.26,76,47.18,81.26,49,4.33,1.51,9.2,3.93,16.28,2.57,6.7-1.28,21.57-7.58,27.71-11.68,31.48-21,62.43-57.48,89.19-68.54,14.94-6.17,41.7,5.88,41.7,5.88S176.17,331.14,169.9,329Z"/><polygon points="136.11 341.99 130.74 337.99 135.87 333.1 141.48 337.28 136.11 341.99"/><line class="cls-36" x1="145.24" y1="341.7" x2="186.35" y2="369.38"/><line class="cls-36" x1="142.35" y1="346.72" x2="170.36" y2="365.59"/><polygon points="120.92 354.74 115.44 350.88 120.44 345.85 126.15 349.87 120.92 354.74"/><line class="cls-36" x1="127.5" y1="358.05" x2="168.03" y2="386.58"/><line class="cls-36" x1="131.56" y1="354.09" x2="159.18" y2="373.52"/><polygon points="104.03 366.93 98.98 362.54 104.47 358.05 109.74 362.64 104.03 366.93"/><line class="cls-36" x1="113.09" y1="367.96" x2="153.46" y2="396.7"/><line class="cls-36" x1="109.27" y1="370.51" x2="136.77" y2="390.1"/><polygon points="71.29 392.51 66.24 388.12 71.72 383.63 77 388.22 71.29 392.51"/><line class="cls-36" x1="80.35" y1="393.54" x2="120.72" y2="422.28"/><line class="cls-36" x1="76.53" y1="396.09" x2="104.03" y2="415.68"/><polygon points="52.36 407.35 47.31 402.95 52.8 398.46 58.07 403.05 52.36 407.35"/><line class="cls-36" x1="61.42" y1="408.37" x2="101.79" y2="437.12"/><line class="cls-36" x1="57.6" y1="410.93" x2="85.11" y2="430.51"/><polygon points="86.36 376.88 81.38 372.41 86.93 368 92.14 372.67 86.36 376.88"/><line class="cls-36" x1="90.22" y1="379.29" x2="131.81" y2="406.24"/><line class="cls-36" x1="94.37" y1="375.81" x2="122.71" y2="394.17"/><g class="cls-3"><polygon class="cls-37" points="391.16 68.26 370.78 60.46 371.41 58.84 391.79 66.64 391.16 68.26"/><g class="cls-3"><g class="cls-38"><g class="cls-3"><path class="cls-39" d="M385.75,81.05l-20.38-7.8c.48-1,.94-2.11,1.41-3.17,1-2.1,1.82-4.26,2.72-6.39.19-.46.38-.92.56-1.38l20.38,7.8c-.18.46-.37.92-.56,1.38-.9,2.13-1.76,4.29-2.72,6.39-.47,1.06-.93,2.12-1.41,3.17"/><path class="cls-40" d="M390.44,70.11l-20.38-7.8.53-1.37L391,68.74l-.53,1.37"/><path class="cls-39" d="M391,68.74l-20.38-7.8.19-.48,20.38,7.8c-.06.16-.12.32-.19.48"/></g></g></g><polygon class="cls-41" points="384.27 84.19 363.89 76.39 365.37 73.25 385.75 81.05 384.27 84.19"/><g class="cls-3"><g class="cls-42"><g class="cls-3"><path class="cls-39" d="M383.52,85.76,363.14,78c.26-.52.5-1,.75-1.57l20.38,7.8c-.25.52-.49,1-.75,1.57"/></g></g></g><polygon class="cls-43" points="382.75 87.32 362.37 79.52 363.14 77.96 383.52 85.76 382.75 87.32"/><polygon class="cls-44" points="400.98 37.65 380.6 29.85 399.36 33 419.74 40.8 400.98 37.65"/><g class="cls-3"><g class="cls-45"><g class="cls-3"><path class="cls-39" d="M391.79,66.64l-20.38-7.8c0-.1.09-.21.13-.32l20.38,7.8a3.05,3.05,0,0,1-.13.32"/><path class="cls-40" d="M391.92,66.32l-20.38-7.8c.17-.43.33-.86.49-1.3.78-2.18,1.62-4.33,2.34-6.53Q376,45.88,377.48,41l20.39,7.8q-1.47,4.86-3.12,9.67c-.72,2.2-1.56,4.35-2.34,6.53-.16.44-.32.87-.49,1.3"/><path class="cls-46" d="M397.87,48.82,377.48,41q1.68-5.57,3.12-11.17L401,37.65q-1.44,5.61-3.11,11.17"/></g></g></g><g class="cls-3"><g class="cls-47"><g class="cls-3"><path class="cls-39" d="M377.92,96.53l-20.38-7.8c1.14-2,2.19-4.07,3.28-6.11.53-1,1-2.07,1.55-3.1l20.38,7.8c-.52,1-1,2.07-1.55,3.1-1.09,2-2.14,4.1-3.28,6.11"/></g></g></g><polygon class="cls-41" points="395.26 36.69 374.87 28.89 397.46 0 417.84 7.8 395.26 36.69"/><polygon class="cls-48" points="417.84 7.8 425.54 41.77 419.74 40.8 400.98 37.65 395.26 36.69 417.84 7.8"/><g class="cls-3"><g class="cls-49"><g class="cls-3"><path class="cls-40" d="M352.32,133.23l-20.38-7.8c.76-.85,1.48-1.75,2.23-2.61.35-.43.71-.85,1.07-1.28l20.38,7.8c-.36.42-.71.85-1.07,1.28-.74.86-1.47,1.76-2.23,2.61"/><path class="cls-39" d="M355.62,129.34l-20.38-7.8a213.15,213.15,0,0,0,15.22-20.91c2.47-3.89,4.86-7.84,7.08-11.9l20.38,7.8c-2.22,4.06-4.6,8-7.08,11.9a211.52,211.52,0,0,1-15.22,20.91"/></g></g></g><polygon class="cls-37" points="350.07 135.79 329.69 127.99 331.94 125.43 352.32 133.23 350.07 135.79"/><polygon class="cls-50" points="347.76 138.3 327.38 130.5 329.69 127.99 350.07 135.79 347.76 138.3"/><g class="cls-3"><g class="cls-51"><g class="cls-3"><path class="cls-52" d="M268.61,190l-20.39-7.8c.72-.2,1.39-.4,2.05-.61l1-.32.34-.12L272,189l-.34.12-1,.32c-.66.2-1.33.41-2,.61"/><path class="cls-53" d="M272,189l-20.38-7.8c.88-.29,1.76-.6,2.64-.92s1.81-.66,2.72-1l20.38,7.8c-.91.35-1.81.68-2.72,1s-1.76.63-2.64.92"/><path class="cls-54" d="M277.35,187.06,257,179.26c1.07-.42,2.15-.85,3.22-1.29s2.33-1,3.49-1.5l20.39,7.8c-1.17.51-2.33,1-3.5,1.5s-2.15.87-3.22,1.29"/><path class="cls-55" d="M284.07,184.27l-20.39-7.8,2.39-1.08q2.58-1.19,5.14-2.48l20.38,7.8c-1.7.86-3.42,1.69-5.14,2.48l-2.38,1.08"/><path class="cls-56" d="M291.59,180.71l-20.38-7.8.68-.34q3.64-1.84,7.23-3.87l20.38,7.8q-3.58,2-7.23,3.87l-.68.34"/><path class="cls-57" d="M299.5,176.5l-20.38-7.8q4.11-2.32,8.14-4.86l20.38,7.8q-4,2.54-8.14,4.86"/><path class="cls-58" d="M307.64,171.64l-20.38-7.8q3.6-2.28,7.14-4.72l1.25-.88L316,166l-1.26.88c-2.35,1.63-4.74,3.2-7.14,4.72"/><path class="cls-59" d="M316,166l-20.39-7.8c3-2.08,5.87-4.26,8.73-6.51l20.39,7.8q-4.31,3.38-8.73,6.51"/><path class="cls-60" d="M324.77,159.53l-20.39-7.8q4.64-3.66,9.08-7.61l20.39,7.8q-4.46,3.95-9.08,7.61"/><path class="cls-46" d="M333.85,151.92l-20.39-7.8c.63-.55,1.25-1.11,1.87-1.68q4.13-3.76,8.07-7.78l20.38,7.8q-3.94,4-8.07,7.78-.93.85-1.86,1.68"/><path class="cls-40" d="M343.78,142.46l-20.38-7.8L325,133c.78-.83,1.57-1.63,2.34-2.48l20.38,7.8c-.76.85-1.56,1.65-2.34,2.48l-1.64,1.68"/></g></g></g><g class="cls-3"><g class="cls-61"><g class="cls-3"><path class="cls-62" d="M268.25,192.81,247.87,185a.93.93,0,0,1-.41-.3l20.38,7.8a.93.93,0,0,0,.41.3"/><path class="cls-63" d="M267.84,192.51l-20.38-7.8-.07-.09,20.38,7.8.07.09"/><path class="cls-64" d="M267.77,192.42l-20.38-7.8a.22.22,0,0,1,0-.08l20.38,7.8a.22.22,0,0,0,0,.08"/><path class="cls-65" d="M267.72,192.34l-20.38-7.8a.25.25,0,0,1,0-.07l20.38,7.8a.25.25,0,0,0,0,.07"/><path class="cls-66" d="M267.68,192.27l-20.38-7.8a.21.21,0,0,1,0-.07l20.38,7.8,0,.07"/><path class="cls-67" d="M267.65,192.2l-20.38-7.8,0-.06,20.38,7.8,0,.06"/><path class="cls-68" d="M267.62,192.14l-20.38-7.8a.19.19,0,0,1,0-.07l20.38,7.8s0,.05,0,.07"/><path class="cls-69" d="M267.6,192.07l-20.38-7.8s0,0,0-.06l20.38,7.8s0,0,0,.06"/><path class="cls-70" d="M267.58,192l-20.38-7.8a.13.13,0,0,1,0-.06l20.38,7.8s0,0,0,.06"/><path class="cls-71" d="M267.57,192l-20.38-7.8a.64.64,0,0,0,0-.07l20.38,7.8a.64.64,0,0,1,0,.07"/><path class="cls-52" d="M267.55,191.88l-20.38-7.8a.13.13,0,0,0,0-.06l20.39,7.8v.06"/><path class="cls-53" d="M267.55,191.82,247.16,184V184l20.38,7.8a.15.15,0,0,0,0,.07"/><path class="cls-54" d="M267.54,191.75,247.16,184s0,0,0-.06l20.39,7.8v.06"/><path class="cls-55" d="M267.54,191.69l-20.39-7.8v-.07l20.38,7.8v.07"/><path class="cls-56" d="M267.53,191.62l-20.38-7.8v-.07l20.39,7.8a.17.17,0,0,0,0,.07"/><path class="cls-57" d="M267.54,191.55l-20.39-7.8s0-.05,0-.07l20.38,7.8v.07"/><path class="cls-58" d="M267.54,191.48l-20.38-7.8a.22.22,0,0,1,0-.08l20.38,7.8s0,0,0,.08"/><path class="cls-59" d="M267.55,191.4l-20.38-7.8a.22.22,0,0,1,0-.08l20.38,7.8s0,.05,0,.08"/><path class="cls-60" d="M267.56,191.32l-20.38-7.8s0-.06,0-.09l20.38,7.8s0,.06,0,.09"/><path class="cls-46" d="M267.58,191.23l-20.38-7.8,0-.11,20.38,7.8,0,.11"/><path class="cls-40" d="M267.61,191.12l-20.38-7.8a.78.78,0,0,1,.05-.14l20.38,7.8a.78.78,0,0,0-.05.14"/><path class="cls-39" d="M267.66,191l-20.38-7.8a1.55,1.55,0,0,1,.28-.48l20.38,7.8a1.78,1.78,0,0,0-.28.48"/><path class="cls-40" d="M267.94,190.5l-20.38-7.8.09-.1L268,190.4a.94.94,0,0,0-.1.1"/><path class="cls-46" d="M268,190.4l-20.39-7.8.08-.08,20.38,7.8-.07.08"/><path class="cls-60" d="M268.11,190.32l-20.38-7.8.07-.06,20.38,7.8-.07.06"/><path class="cls-59" d="M268.18,190.26l-20.38-7.8.06,0,20.38,7.8-.06,0"/><path class="cls-58" d="M268.24,190.22l-20.38-7.8.06,0,20.38,7.8-.06,0"/><path class="cls-57" d="M268.3,190.18l-20.38-7.8.06,0,20.38,7.8-.06,0"/><path class="cls-56" d="M268.36,190.14,248,182.34l.06,0,20.38,7.8-.06,0"/><path class="cls-55" d="M268.42,190.11,248,182.31l.05,0,20.39,7.8-.06,0"/><path class="cls-54" d="M268.48,190.08l-20.39-7.8.06,0,20.38,7.8,0,0"/><path class="cls-53" d="M268.53,190.06l-20.38-7.8.06,0,20.38,7.8-.06,0"/><path class="cls-52" d="M268.59,190l-20.38-7.8h0l20.39,7.8h0"/></g></g></g><path class="cls-48" d="M401,37.65l18.76,3.15c-2.67,8.08-5.67,16.07-9,23.9-1,2.36-2.05,4.66-3.09,7-.25.57-.52,1.15-.8,1.72L406,75.13c-.56,1.15-1.08,2.31-1.66,3.44-1.15,2.26-2.26,4.54-3.48,6.77-.6,1.11-1.18,2.24-1.79,3.35L397.23,92c-.32.55-.62,1.11-.94,1.65l-1,1.63c-.64,1.08-1.28,2.17-1.93,3.25-1.34,2.13-2.65,4.28-4,6.37-2.73,4.21-5.62,8.29-8.6,12.27a220,220,0,0,1-19.15,22.33c-.85.86-1.69,1.74-2.56,2.57l-2.58,2.51L353.83,147c-.87.83-1.77,1.6-2.66,2.4q-5.34,4.74-10.89,9.05a202.47,202.47,0,0,1-22.92,15.33,188.81,188.81,0,0,1-23.95,11.6c-2,.8-4.06,1.57-6.1,2.29q-2.6.93-5.22,1.75l-.91.29q-3.07.95-6.16,1.74c-1,.27-2.06.52-3.1.75s-2.05.45-3.13.64a1.12,1.12,0,0,1-1.26-1.22,1.69,1.69,0,0,1,1.08-1.6c.71-.2,1.38-.41,2-.61l1-.32c1-.33,2-.68,3-1q3-1.08,5.94-2.3t5.88-2.58q2.93-1.35,5.82-2.82a193.29,193.29,0,0,0,22.51-13.45,202.65,202.65,0,0,0,20.93-16.68c3.32-3,6.57-6.19,9.71-9.46.78-.83,1.58-1.63,2.34-2.48l2.31-2.51,2.25-2.56c.76-.85,1.49-1.75,2.23-2.61a211.57,211.57,0,0,0,16.29-22.19c2.48-3.89,4.86-7.84,7.08-11.9,1.14-2,2.19-4.07,3.28-6.11.53-1,1-2.07,1.55-3.1l.77-1.56c.26-.52.5-1.05.75-1.57l1.48-3.14c.48-1,.94-2.11,1.41-3.17,1-2.1,1.82-4.26,2.72-6.39.45-1.07.85-2.15,1.28-3.23l.63-1.62c.22-.53.42-1.07.62-1.62.78-2.18,1.62-4.33,2.34-6.53Q398.29,48.18,401,37.65Z"/></g><g class="cls-72"><polygon class="cls-73" points="306.89 355.31 262.33 329.58 288.81 314.29 333.37 340.02 306.89 355.31"/><path class="cls-74" d="M300.54,331.3a9.53,9.53,0,0,1-4.1,1.35,6.25,6.25,0,0,1-3.55-.77c-1-.6-1.48-1.27-1.35-2s.91-1.56,2.35-2.39a9.57,9.57,0,0,1,4.1-1.35,6.1,6.1,0,0,1,3.54.78c1.05.6,1.49,1.28,1.34,2.05S301.94,330.49,300.54,331.3Zm-2.4-1.38a5.74,5.74,0,0,0,1.78-1.31c.13-.26.05-.48-.24-.65a1.65,1.65,0,0,0-1.2-.12,8.6,8.6,0,0,0-2.19,1,5.64,5.64,0,0,0-1.78,1.3c-.14.26-.06.48.25.66a1.62,1.62,0,0,0,1.21.11A9.7,9.7,0,0,0,298.14,329.92Zm10.72,1.3,1.9,1.09L286,337.44l-1.91-1.1Zm-7.93,9.94a9.41,9.41,0,0,1-4.11,1.34,6.1,6.1,0,0,1-3.54-.77c-1-.6-1.47-1.28-1.33-2.05s.93-1.55,2.33-2.36a9.3,9.3,0,0,1,4.11-1.35,6.22,6.22,0,0,1,3.54.77c1,.59,1.46,1.26,1.34,2S302.37,340.33,300.93,341.16Zm-2.4-1.39a5.78,5.78,0,0,0,1.78-1.3c.14-.27.05-.49-.25-.66a1.57,1.57,0,0,0-1.21-.11,9.19,9.19,0,0,0-2.17,1,5.65,5.65,0,0,0-1.77,1.3c-.14.27-.07.48.23.65a1.56,1.56,0,0,0,1.22.12A9.07,9.07,0,0,0,298.53,339.77Z"/><polygon class="cls-73" points="251.82 323.51 207.27 297.79 233.75 282.5 278.31 308.23 251.82 323.51"/><path class="cls-74" d="M232.48,308.14l2.34-1.35a5.64,5.64,0,0,1-2.53-2.64l2.11-.58a5,5,0,0,0,2.34,2.51,5.33,5.33,0,0,0,5,.28c1.27-.74,1.16-1.72.14-3.11-1.44-1.9-1.84-3.36.18-4.53a8.51,8.51,0,0,1,7.24-.13l2.34-1.35,1.44.83-2.25,1.3a5.23,5.23,0,0,1,2.21,2.21l-2.12.55a4.63,4.63,0,0,0-2.13-2.15,4.57,4.57,0,0,0-4.46-.26c-1.2.69-1,1.54.24,3.18,1.41,2,1.41,3.34-.65,4.53a9,9,0,0,1-7.61.16l-2.41,1.4Z"/><polygon class="cls-73" points="218.2 343.41 173.64 317.69 200.12 302.4 244.68 328.13 218.2 343.41"/><polygon class="cls-73" points="202.35 330.25 197.77 327.6 208.75 321.27 213.32 323.91 202.35 330.25"/><polygon class="cls-73" points="197.62 327.52 193.05 324.88 199.94 320.9 204.51 323.54 197.62 327.52"/><polygon class="cls-73" points="192.9 324.79 187.73 321.81 191.82 319.45 196.99 322.43 192.9 324.79"/><polygon class="cls-73" points="206.96 333.04 202.38 330.4 216.51 322.24 221.09 324.88 206.96 333.04"/><polygon class="cls-73" points="211.58 335.71 207 333.07 225.29 322.51 229.87 325.15 211.58 335.71"/><polygon class="cls-73" points="273.26 375.2 228.71 349.48 255.19 334.19 299.74 359.92 273.26 375.2"/><ellipse class="cls-73" cx="263.59" cy="354.58" rx="11.59" ry="6.69"/><path class="cls-74" d="M271.79,359.31l-8.8-4.56,8.8-4.9C276.32,352.46,276.32,356.7,271.79,359.31Z"/></g><g class="cls-3"><polygon class="cls-30" points="302.66 308.7 284.19 297.97 284.02 237.12 302.48 247.85 302.66 308.7"/><polygon class="cls-31" points="302.48 247.85 284.02 237.12 305.95 224.46 324.42 235.19 302.48 247.85"/><polygon class="cls-32" points="324.42 235.19 324.59 296.04 302.66 308.7 302.48 247.85 324.42 235.19"/></g><g class="cls-3"><polygon class="cls-30" points="343.39 285.19 324.92 274.45 324.68 190.07 343.15 200.8 343.39 285.19"/><polygon class="cls-31" points="343.15 200.8 324.68 190.07 346.61 177.41 365.08 188.14 343.15 200.8"/><polygon class="cls-32" points="365.08 188.14 365.32 272.52 343.39 285.19 343.15 200.8 365.08 188.14"/></g><g class="cls-3"><polygon class="cls-30" points="385.99 260.59 367.53 249.85 367.23 143.66 385.69 154.39 385.99 260.59"/><polygon class="cls-31" points="385.69 154.39 367.23 143.66 389.16 130.99 407.62 141.72 385.69 154.39"/><polygon class="cls-32" points="407.62 141.72 407.93 247.92 385.99 260.59 385.69 154.39 407.62 141.72"/></g><g class="cls-3"><polygon class="cls-30" points="429.27 235.6 410.8 224.87 410.41 85.71 428.87 96.44 429.27 235.6"/><polygon class="cls-31" points="428.87 96.44 410.41 85.71 432.34 73.05 450.81 83.78 428.87 96.44"/><polygon class="cls-32" points="450.81 83.78 451.2 222.94 429.27 235.6 428.87 96.44 450.81 83.78"/></g><line class="cls-75" x1="402.62" y1="351.68" x2="424.78" y2="365"/><line class="cls-75" x1="409.41" y1="347.73" x2="431.62" y2="360.29"/><line class="cls-75" x1="417.45" y1="342.7" x2="440.33" y2="355.83"/><line class="cls-75" x1="424.92" y1="338.3" x2="447.6" y2="351.32"/><g class="cls-3"><polygon class="cls-76" points="420.81 335.88 420.8 341.01 408.89 334.2 408.9 329.08 420.81 335.88"/><g class="cls-3"><g class="cls-77"><g class="cls-3"><path class="cls-78" d="M426.55,334.51v5.13a1.36,1.36,0,0,1-.42.94v-5.12a1.37,1.37,0,0,0,.42-.95"/><path class="cls-79" d="M426.13,335.46v5.12l-.25.22v-5.12l.25-.22"/><path class="cls-80" d="M425.88,335.68v5.12l-.24.17v-5.13a2.5,2.5,0,0,0,.24-.16"/><path class="cls-81" d="M425.64,335.84V341l-.07,0-.17.09V336l.18-.1.06,0"/><path class="cls-82" d="M425.4,336v5.12l-.25.11,0-5.12.24-.11"/><path class="cls-83" d="M425.16,336.09l0,5.12-.25.1v-5.12l.26-.1"/><path class="cls-84" d="M424.9,336.19v5.12l-.27.08v-5.12l.27-.08"/><path class="cls-85" d="M424.63,336.27v5.12l-.31.08,0-5.13.3-.07"/><path class="cls-86" d="M424.33,336.34l0,5.13-.34,0V336.4a2.14,2.14,0,0,0,.35-.06"/><path class="cls-87" d="M424,336.4v5.12a3.44,3.44,0,0,1-.45.05v-5.12l.45-.05"/><path class="cls-88" d="M423.53,336.45v5.12a5.33,5.33,0,0,1-1,0v-5.12a6.38,6.38,0,0,0,1,0"/><path class="cls-76" d="M422.55,336.42v5.12l-.16,0V336.4l.16,0"/><path class="cls-88" d="M422.39,336.4v5.12a5.69,5.69,0,0,1-.86-.19l0-5.13a4.78,4.78,0,0,0,.85.2"/><path class="cls-87" d="M421.54,336.2l0,5.13c-.13-.05-.25-.09-.37-.15v-5.12l.38.14"/><path class="cls-86" d="M421.16,336.06v5.12l-.29-.14,0-5.12.28.14"/><path class="cls-85" d="M420.88,335.92l0,5.12-.06,0v-5.13l.07,0"/></g></g></g><path class="cls-89" d="M425.56,333.12c1.32.77,1.33,2,0,2.76a5.21,5.21,0,0,1-4.77,0l-11.9-6.8,4.75-2.76Z"/></g><g class="cls-3"><polygon class="cls-76" points="413.23 340.29 413.22 345.41 401.31 338.61 401.33 333.48 413.23 340.29"/><g class="cls-3"><g class="cls-90"><g class="cls-3"><path class="cls-78" d="M419,338.92l0,5.12a1.39,1.39,0,0,1-.42.95v-5.13a1.38,1.38,0,0,0,.43-.94"/><path class="cls-79" d="M418.55,339.86V345a2.76,2.76,0,0,1-.25.21l0-5.12a1.7,1.7,0,0,0,.24-.22"/><path class="cls-80" d="M418.31,340.08l0,5.12a1.46,1.46,0,0,1-.24.17l0-5.12.24-.17"/><path class="cls-81" d="M418.07,340.25l0,5.12-.07,0-.17.09,0-5.12.17-.09.07,0"/><path class="cls-82" d="M417.83,340.38l0,5.12-.24.12v-5.13l.25-.11"/><path class="cls-83" d="M417.58,340.49v5.13l-.26.09,0-5.12.25-.1"/><path class="cls-84" d="M417.33,340.59l0,5.12-.27.09v-5.13l.28-.08"/><path class="cls-85" d="M417.05,340.67v5.13l-.3.07v-5.12l.3-.08"/><path class="cls-86" d="M416.75,340.75v5.12l-.35.06v-5.12l.35-.06"/><path class="cls-87" d="M416.4,340.81v5.12l-.45,0v-5.12l.45,0"/><path class="cls-88" d="M416,340.85V346a6.39,6.39,0,0,1-1,0v-5.13a5.38,5.38,0,0,0,1,0"/><path class="cls-76" d="M415,340.82V346l-.16,0V340.8l.16,0"/><path class="cls-88" d="M414.81,340.8v5.13a5.56,5.56,0,0,1-.85-.2v-5.12a4.77,4.77,0,0,0,.85.19"/><path class="cls-87" d="M414,340.61v5.12l-.38-.14v-5.13c.12.06.25.1.38.15"/><path class="cls-86" d="M413.58,340.46v5.13l-.28-.14v-5.13l.28.14"/><path class="cls-85" d="M413.3,340.32v5.13l-.07,0v-5.12l.07,0"/></g></g></g><path class="cls-89" d="M418,337.53c1.32.76,1.33,2,0,2.76a5.27,5.27,0,0,1-4.77,0l-11.9-6.81,4.75-2.76Z"/></g><g class="cls-3"><polygon class="cls-76" points="405.66 344.69 405.64 349.81 393.74 343.01 393.75 337.88 405.66 344.69"/><g class="cls-3"><g class="cls-91"><g class="cls-3"><path class="cls-78" d="M411.4,343.32v5.12a1.38,1.38,0,0,1-.43.95l0-5.12a1.39,1.39,0,0,0,.42-.95"/><path class="cls-79" d="M411,344.27l0,5.12a1.86,1.86,0,0,1-.25.22l0-5.13.25-.21"/><path class="cls-80" d="M410.73,344.48l0,5.13-.23.16v-5.12a1.46,1.46,0,0,0,.24-.17"/><path class="cls-81" d="M410.49,344.65v5.12l-.07,0-.18.1,0-5.13.17-.09.07,0"/><path class="cls-82" d="M410.25,344.78l0,5.13L410,350V344.9l.25-.12"/><path class="cls-83" d="M410,344.9V350l-.25.1V345l.25-.09"/><path class="cls-84" d="M409.75,345v5.13l-.28.08,0-5.12.27-.09"/><path class="cls-85" d="M409.48,345.08l0,5.12-.3.07v-5.12l.31-.07"/><path class="cls-86" d="M409.17,345.15v5.12a2.14,2.14,0,0,1-.35.06l0-5.12.34-.06"/><path class="cls-87" d="M408.83,345.21l0,5.12a3.42,3.42,0,0,1-.45,0l0-5.12.45,0"/><path class="cls-88" d="M408.38,345.25l0,5.12a5.37,5.37,0,0,1-1,0l0-5.12a6.39,6.39,0,0,0,1,0"/><path class="cls-76" d="M407.4,345.23l0,5.12-.16,0,0-5.12.16,0"/><path class="cls-88" d="M407.24,345.21l0,5.12a4.78,4.78,0,0,1-.85-.2V345a5.69,5.69,0,0,0,.86.2"/><path class="cls-87" d="M406.38,345v5.12L406,350l0-5.12.37.14"/><path class="cls-86" d="M406,344.87l0,5.12-.28-.14v-5.12l.29.14"/><path class="cls-85" d="M405.72,344.73v5.12l-.07,0,0-5.12.06,0"/></g></g></g><path class="cls-89" d="M410.41,341.93c1.32.76,1.32,2,0,2.76a5.25,5.25,0,0,1-4.76,0l-11.91-6.8,4.75-2.76Z"/></g><g class="cls-3"><polygon class="cls-76" points="398.08 349.09 398.06 354.22 386.16 347.41 386.18 342.29 398.08 349.09"/><g class="cls-3"><g class="cls-92"><g class="cls-3"><path class="cls-78" d="M403.82,347.72v5.13a1.34,1.34,0,0,1-.43.94l0-5.12a1.37,1.37,0,0,0,.42-.95"/><path class="cls-79" d="M403.4,348.67l0,5.12a1.7,1.7,0,0,1-.24.22v-5.12l.25-.22"/><path class="cls-80" d="M403.15,348.89V354l-.24.16v-5.12l.24-.16"/><path class="cls-81" d="M402.91,349.05v5.12l-.07.05-.17.09v-5.12a1,1,0,0,0,.17-.1l.07,0"/><path class="cls-82" d="M402.67,349.19v5.12l-.25.11,0-5.12.24-.11"/><path class="cls-83" d="M402.43,349.3l0,5.12-.25.1V349.4l.26-.1"/><path class="cls-84" d="M402.17,349.4v5.12l-.28.08,0-5.12.27-.08"/><path class="cls-85" d="M401.9,349.48l0,5.12-.3.07,0-5.12.3-.07"/><path class="cls-86" d="M401.6,349.55l0,5.12a2,2,0,0,1-.34.06v-5.12a2.14,2.14,0,0,0,.35-.06"/><path class="cls-87" d="M401.25,349.61v5.12l-.45,0v-5.12l.45-.05"/><path class="cls-88" d="M400.8,349.66v5.12a5.33,5.33,0,0,1-1,0v-5.12a6.38,6.38,0,0,0,1,0"/><path class="cls-76" d="M399.82,349.63v5.12l-.16,0v-5.12l.16,0"/><path class="cls-88" d="M399.66,349.61v5.12a5.69,5.69,0,0,1-.86-.19l0-5.13a4.59,4.59,0,0,0,.85.2"/><path class="cls-87" d="M398.81,349.41l0,5.13-.38-.15,0-5.12.38.14"/><path class="cls-86" d="M398.43,349.27l0,5.12-.28-.14,0-5.12a2.44,2.44,0,0,0,.28.14"/><path class="cls-85" d="M398.15,349.13l0,5.12-.06,0v-5.13l.07,0"/></g></g></g><path class="cls-89" d="M402.83,346.33c1.32.77,1.33,2,0,2.76a5.19,5.19,0,0,1-4.76,0l-11.91-6.8,4.75-2.76Z"/></g><g class="cls-3"><g class="cls-93"><g class="cls-3"><path class="cls-79" d="M556.05,376l.07,25.21c.31-.51.58-1,.83-1.54l-.07-25.21c-.25.52-.52,1-.83,1.54"/><path class="cls-78" d="M556.88,374.47l.07,25.21a14.74,14.74,0,0,0,1.49-6.43L558.37,368a14.88,14.88,0,0,1-1.49,6.43"/></g></g></g><g class="cls-3"><g class="cls-94"><g class="cls-3"><path class="cls-82" d="M574.72,402.78l.07,25.21.07-.07-.08-25.21-.06.07"/><path class="cls-81" d="M574.78,402.71l.08,25.21c.27-.3.53-.61.77-.92l-.07-25.21c-.25.31-.5.62-.78.92"/><path class="cls-80" d="M575.56,401.79l.07,25.21c.28-.36.54-.73.78-1.1l-.07-25.21c-.24.37-.5.74-.78,1.1"/><path class="cls-79" d="M576.34,400.69l.07,25.21a14.7,14.7,0,0,0,.83-1.49l-.07-25.21a14.7,14.7,0,0,1-.83,1.49"/><path class="cls-78" d="M577.17,399.2l.07,25.21a11.42,11.42,0,0,0,1.12-4.9l-.07-25.2a11.4,11.4,0,0,1-1.12,4.89"/></g></g></g><path class="cls-95" d="M481.27,348.47l5.68,3.3c.29-.19.61-.37.92-.55,16.2-9.35,42.38-9.35,58.48,0,11.54,6.7,14.76,16.39,9.7,24.79a42.11,42.11,0,0,1,12.31,4.6c10.55,6.13,12.73,15.19,6.36,22.17l1.66,1c13.52,7.86,13.45,20.71-.16,28.57s-35.79,7.85-49.31,0L431.8,377c-13.51-7.85-13.44-20.7.16-28.56S467.76,340.62,481.27,348.47Zm24.08,51a9.87,9.87,0,0,0,8.95,0l25.45-14.7c2.48-1.43,2.49-3.75,0-5.18l-26.47-15.39a9.87,9.87,0,0,0-8.95,0l-25.45,14.69c-2.48,1.44-2.5,3.75,0,5.18l26.47,15.39"/><polygon class="cls-96" points="431.75 377.02 431.83 396.6 526.94 451.87 526.87 432.29 431.75 377.02"/><g class="cls-3"><g class="cls-97"><g class="cls-3"><path class="cls-78" d="M421.67,362.84l.07,19.58a11.84,11.84,0,0,0,.31,2.7L422,365.54a11.84,11.84,0,0,1-.31-2.7"/><path class="cls-79" d="M422,365.54l.07,19.58a12.77,12.77,0,0,0,.55,1.76l-.07-19.58a12.77,12.77,0,0,1-.55-1.76"/><path class="cls-80" d="M422.53,367.3l.07,19.58a13.85,13.85,0,0,0,.59,1.31l-.07-19.58a13.85,13.85,0,0,1-.59-1.31"/><path class="cls-81" d="M423.12,368.61l.07,19.58q.29.56.63,1.11l-.07-19.58q-.35-.56-.63-1.11"/><path class="cls-82" d="M423.75,369.72l.07,19.58c.21.33.44.67.68,1l-.08-19.58c-.24-.32-.46-.66-.67-1"/><path class="cls-83" d="M424.42,370.71l.08,19.58c.22.31.45.61.7.9l-.07-19.58c-.25-.29-.48-.59-.71-.9"/><path class="cls-84" d="M425.13,371.61l.07,19.58c.23.28.47.55.72.82l-.07-19.58c-.25-.27-.49-.54-.72-.82"/><path class="cls-85" d="M425.85,372.43l.07,19.58c.24.26.5.52.77.78l-.08-19.58c-.26-.26-.52-.52-.76-.78"/><path class="cls-86" d="M426.61,373.21l.08,19.58c.24.24.5.47.77.71l-.07-19.58c-.27-.24-.53-.47-.78-.71"/><path class="cls-87" d="M427.39,373.92l.07,19.58c.27.23.54.46.83.69l-.07-19.58c-.29-.22-.56-.46-.83-.69"/><path class="cls-88" d="M428.22,374.61l.07,19.58c.27.22.56.44.85.66l-.07-19.58c-.29-.22-.58-.44-.85-.66"/><path class="cls-76" d="M429.07,375.27l.07,19.58.9.63L430,375.9l-.9-.63"/><path class="cls-98" d="M430,375.9l.07,19.58.95.62-.08-19.58-.94-.62"/><path class="cls-99" d="M430.91,376.52,431,396.1l.84.5L431.76,377c-.29-.16-.57-.33-.85-.5"/></g></g></g><g class="cls-3"><g class="cls-100"><g class="cls-3"><path class="cls-99" d="M526.87,432.29l.07,19.58.15.09L527,432.38l-.15-.09"/><path class="cls-101" d="M527,432.38l.07,19.58c.35.2.7.4,1.06.58L528.08,433c-.36-.19-.71-.39-1.06-.59"/><path class="cls-102" d="M528.08,433l.07,19.57c.36.2.73.38,1.1.56l-.07-19.58-1.1-.55"/><path class="cls-103" d="M529.18,433.52l.07,19.58q.57.28,1.17.54l-.08-19.58c-.39-.17-.78-.35-1.16-.54"/><path class="cls-104" d="M530.34,434.06l.08,19.58,1.22.52-.07-19.58-1.23-.52"/><path class="cls-105" d="M531.57,434.58l.07,19.58c.43.18.87.34,1.31.51l-.07-19.58c-.44-.17-.88-.33-1.31-.51"/><path class="cls-106" d="M532.88,435.09l.07,19.58,1.39.48-.07-19.58-1.39-.48"/><path class="cls-107" d="M534.27,435.57l.07,19.58,1.45.45L535.71,436l-1.44-.45"/><path class="cls-108" d="M535.71,436l.08,19.58,1.5.41-.07-19.58-1.51-.41"/><path class="cls-109" d="M537.22,436.43l.07,19.58c.51.13,1,.26,1.54.37l-.08-19.58c-.51-.11-1-.24-1.53-.37"/><path class="cls-110" d="M538.75,436.8l.08,19.58c.51.12,1,.23,1.55.33l-.07-19.58-1.56-.33"/><path class="cls-111" d="M540.31,437.13l.07,19.58L542,457l-.08-19.58-1.62-.29"/><path class="cls-112" d="M541.93,437.42,542,457l1.69.25-.08-19.58c-.56-.07-1.13-.16-1.69-.25"/><path class="cls-113" d="M543.62,437.67l.08,19.58c.67.09,1.35.17,2,.23l-.07-19.57c-.69-.07-1.37-.15-2-.24"/><path class="cls-114" d="M545.67,437.91l.07,19.57a60.15,60.15,0,0,0,8.6.22l-.07-19.58a61.65,61.65,0,0,1-8.6-.21"/><path class="cls-113" d="M554.27,438.12l.07,19.58,1.86-.11L556.13,438c-.62.05-1.24.08-1.86.11"/><path class="cls-112" d="M556.13,438l.07,19.58q.82-.06,1.65-.15l-.08-19.58c-.54.06-1.09.11-1.64.15"/><path class="cls-111" d="M557.77,437.86l.08,19.58c.5-.06,1-.11,1.51-.18l-.07-19.58c-.5.07-1,.13-1.52.18"/><path class="cls-110" d="M559.29,437.68l.07,19.58c.49-.06,1-.13,1.45-.21l-.07-19.58c-.48.08-1,.15-1.45.21"/><path class="cls-109" d="M560.74,437.47l.07,19.58,1.43-.24-.07-19.58c-.47.08-.95.17-1.43.24"/><path class="cls-108" d="M562.17,437.23l.07,19.58,1.43-.29-.07-19.58-1.43.29"/><path class="cls-107" d="M563.6,436.94l.07,19.58c.47-.1.94-.2,1.41-.32L565,436.62c-.47.12-.94.22-1.41.32"/><path class="cls-106" d="M565,436.62l.07,19.58,1.39-.35-.07-19.58-1.39.35"/><path class="cls-105" d="M566.4,436.27l.07,19.58,1.35-.39-.07-19.58-1.35.39"/><path class="cls-104" d="M567.75,435.88l.07,19.58c.44-.14.88-.27,1.31-.42l-.07-19.58c-.43.15-.87.29-1.31.42"/><path class="cls-103" d="M569.06,435.46l.07,19.58,1.25-.44L570.31,435l-1.25.44"/><path class="cls-102" d="M570.31,435l.07,19.58c.41-.15.81-.3,1.2-.47l-.07-19.57c-.39.16-.8.31-1.2.46"/><path class="cls-101" d="M571.51,434.56l.07,19.57c.39-.15.78-.31,1.15-.48l-.07-19.58-1.15.49"/><path class="cls-99" d="M572.66,434.07l.07,19.58,1.12-.51-.07-19.58-1.12.51"/><path class="cls-98" d="M573.78,433.56l.07,19.58,1.07-.54L574.85,433l-1.07.54"/><path class="cls-76" d="M574.85,433l.07,19.58c.36-.18.7-.37,1.05-.57l-.07-19.57-1,.56"/><path class="cls-88" d="M575.9,432.46,576,452l.28-.16.74-.44-.07-19.58-.74.44-.28.17"/><path class="cls-87" d="M576.92,431.85l.07,19.58c.33-.2.66-.41,1-.62l-.07-19.58c-.31.21-.64.42-1,.62"/><path class="cls-86" d="M577.89,431.23l.07,19.58c.33-.22.66-.44,1-.67l-.08-19.58c-.31.23-.63.45-1,.67"/><path class="cls-85" d="M578.85,430.56l.08,19.58c.31-.23.62-.46.91-.7l-.07-19.58c-.3.24-.6.47-.92.7"/><path class="cls-84" d="M579.77,429.86l.07,19.58c.32-.25.63-.51.93-.77l-.07-19.58c-.3.26-.61.52-.93.77"/><path class="cls-83" d="M580.7,429.09l.07,19.58.88-.82-.07-19.58-.88.82"/><path class="cls-82" d="M581.58,428.27l.07,19.58c.31-.31.61-.62.89-.93l-.07-19.58c-.28.31-.58.62-.89.93"/><path class="cls-81" d="M582.47,427.34l.07,19.58c.32-.35.61-.71.89-1.07l-.07-19.58c-.28.36-.57.72-.89,1.07"/><path class="cls-80" d="M583.36,426.27l.07,19.58a14.76,14.76,0,0,0,.9-1.27L584.26,425c-.28.43-.57.85-.9,1.27"/><path class="cls-79" d="M584.26,425l.07,19.58a15.44,15.44,0,0,0,.93-1.68l-.07-19.58a15.44,15.44,0,0,1-.93,1.68"/><path class="cls-78" d="M585.19,423.32l.07,19.58a12.67,12.67,0,0,0,1.24-5.41l-.07-19.58a12.67,12.67,0,0,1-1.24,5.41"/></g></g></g><g class="cls-72"><g class="cls-115"><g class="cls-116"><line class="cls-117" x1="530.29" y1="354.49" x2="559.34" y2="337.72"/><path class="cls-117" d="M509.84,366.3l12.11-7c-1.14-1.12-2.51-11.09-2.51-11.09L534,339.84"/><line class="cls-117" x1="442" y1="405.46" x2="473.61" y2="387.22"/><line class="cls-117" x1="524.75" y1="364.85" x2="565.54" y2="341.3"/><polyline class="cls-117" points="486.42 386.98 471.17 395.78 457.72 396.39"/><line class="cls-117" x1="542.04" y1="362.03" x2="565.78" y2="348.32"/><polyline class="cls-117" points="522.24 373.46 534.48 366.39 535.84 358.45"/><line class="cls-117" x1="443.09" y1="419.27" x2="483.35" y2="396.03"/><line class="cls-117" x1="551.41" y1="363.77" x2="577.94" y2="348.46"/><polyline class="cls-117" points="528.44 377.04 540.82 369.89 542.04 362.03"/><line class="cls-117" x1="460.46" y1="416.28" x2="498.82" y2="394.14"/><line class="cls-117" x1="533.71" y1="381.15" x2="584.14" y2="352.04"/><polyline class="cls-117" points="505.02 397.71 490.74 405.96 488.4 415.65 473.86 424.05"/><line class="cls-117" x1="466.8" y1="419.78" x2="481.68" y2="411.19"/><path class="cls-118" d="M547.6,363.74c-1,.59-1,1.58.07,2.2a4.23,4.23,0,0,0,3.81,0c1-.59,1-1.58-.07-2.2A4.23,4.23,0,0,0,547.6,363.74Z"/><path class="cls-118" d="M521,364.81c-1,.6-1,1.58.06,2.2a4.23,4.23,0,0,0,3.81,0c1-.6,1-1.59-.07-2.2A4.18,4.18,0,0,0,521,364.81Z"/><path class="cls-118" d="M483.29,393.83c-1,.59-1,1.58.06,2.2a4.23,4.23,0,0,0,3.81,0c1-.59,1-1.58-.06-2.2A4.23,4.23,0,0,0,483.29,393.83Z"/><path class="cls-118" d="M481.88,408.84c-1,.6-1,1.58.07,2.2a4.21,4.21,0,0,0,3.8,0c1-.6,1-1.58-.06-2.2A4.2,4.2,0,0,0,481.88,408.84Z"/><path class="cls-118" d="M374,336.1c-1,.59-1,1.58.06,2.19a4.2,4.2,0,0,0,3.81,0c1-.6,1-1.58-.06-2.2A4.23,4.23,0,0,0,374,336.1Z"/><polyline class="cls-117" points="496.58 362.03 482.72 354.03 484.02 335.13 462.23 322.55"/><polyline class="cls-117" points="471.06 339.39 457.21 331.39 458.5 312.49 436.72 299.91"/><polyline class="cls-117" points="507.38 357.35 493.52 349.35 494.82 330.45 473.04 317.87"/><polyline class="cls-117" points="631.31 395.77 617.46 387.77 584.72 388.52 562.94 375.94"/><polyline class="cls-117" points="623.2 402.01 609.35 394.01 576.61 394.76 554.82 382.18"/><polyline class="cls-117" points="635.28 416.68 621.42 408.68 588.69 409.42 566.9 396.85"/><line class="cls-117" x1="398.51" y1="305.41" x2="474.54" y2="349.31"/><line class="cls-117" x1="466.25" y1="351.44" x2="503.86" y2="373.16"/><polyline class="cls-117" points="484.86 369.11 456.66 352.82 454.29 344.54 401.37 313.98"/><line class="cls-117" x1="386.8" y1="312.49" x2="447.94" y2="347.79"/><polyline class="cls-117" points="487.45 377.52 450.39 356.13 448.03 347.84"/><line class="cls-117" x1="389.38" y1="320.9" x2="442.85" y2="351.78"/><line class="cls-119" x1="416.86" y1="343.69" x2="481.46" y2="380.98"/><polyline class="cls-117" points="461.77 375.87 409.67 345.78 406.58 337.76 383.39 324.37"/><path class="cls-118" d="M484.86,369.11c-1,.6-1,1.58.07,2.2a4.21,4.21,0,0,0,3.8,0c1-.6,1-1.59-.06-2.2A4.2,4.2,0,0,0,484.86,369.11Z"/><path class="cls-118" d="M496.85,362.19c-1,.6-1,1.58.06,2.2a4.23,4.23,0,0,0,3.81,0c1-.59,1-1.58-.06-2.19A4.2,4.2,0,0,0,496.85,362.19Z"/><path class="cls-118" d="M462.38,349.21c-1,.59-1,1.58.06,2.19a4.2,4.2,0,0,0,3.81,0c1-.6,1-1.58-.07-2.2A4.21,4.21,0,0,0,462.38,349.21Z"/><path class="cls-118" d="M462.23,376.13c-1,.6-1,1.58.07,2.2a4.18,4.18,0,0,0,3.8,0c1-.6,1-1.58-.06-2.2A4.23,4.23,0,0,0,462.23,376.13Z"/><path class="cls-118" d="M468.72,380.67c-1,.59-1,1.58.06,2.2a4.23,4.23,0,0,0,3.81,0c1-.59,1-1.58-.07-2.2A4.21,4.21,0,0,0,468.72,380.67Z"/><path class="cls-118" d="M413.16,364.45c-1,.6-1,1.58.06,2.2a4.23,4.23,0,0,0,3.81,0c1-.6,1-1.58-.06-2.2A4.2,4.2,0,0,0,413.16,364.45Z"/><path class="cls-118" d="M428.25,378.77c-1,.59-1,1.58.07,2.19a4.18,4.18,0,0,0,3.8,0c1-.6,1-1.58-.06-2.2A4.23,4.23,0,0,0,428.25,378.77Z"/><path class="cls-118" d="M413,341.45c-1,.6-1,1.58.06,2.2a4.23,4.23,0,0,0,3.81,0c1-.6,1-1.58-.07-2.2A4.21,4.21,0,0,0,413,341.45Z"/><polyline class="cls-117" points="468.78 382.87 463.46 385.94 415.9 358.48 398.79 358.31 356.52 333.91"/><polyline class="cls-120" points="417.03 366.69 439.64 379.74 436.13 387.14 448.75 394.43"/><polyline class="cls-120" points="428.35 378.83 402.18 363.71 392.46 363 349.3 338.08"/><polyline class="cls-121" points="377.91 338.33 404.1 353.45 413.59 353.33"/><line class="cls-117" x1="457.76" y1="389.23" x2="447.19" y2="383.13"/><line class="cls-117" x1="402.04" y1="343.54" x2="372.99" y2="326.77"/><path class="cls-118" d="M554.48,382a4.2,4.2,0,0,1-3.81,0c-1.07-.61-1.09-1.6-.06-2.19a4.23,4.23,0,0,1,3.81,0C555.49,380.43,555.51,381.41,554.48,382Z"/><path class="cls-118" d="M562,375.42a4.2,4.2,0,0,1-3.81,0c-1.07-.61-1.1-1.6-.07-2.2a4.23,4.23,0,0,1,3.81,0C563,373.84,563.06,374.82,562,375.42Z"/><path class="cls-118" d="M475.22,341.79a4.18,4.18,0,0,1-3.8,0c-1.07-.62-1.1-1.6-.07-2.2a4.23,4.23,0,0,1,3.81,0C476.23,340.21,476.26,341.19,475.22,341.79Z"/><path class="cls-118" d="M566.87,396.86a4.21,4.21,0,0,1-3.8,0c-1.07-.62-1.1-1.61-.07-2.2a4.2,4.2,0,0,1,3.81,0C567.88,395.28,567.91,396.27,566.87,396.86Z"/><path class="cls-118" d="M556,454a4.21,4.21,0,0,1-3.8,0c-1.07-.62-1.1-1.6-.07-2.2a4.2,4.2,0,0,1,3.81,0C557,452.44,557,453.43,556,454Z"/><line class="cls-117" x1="548.16" y1="449.5" x2="495.16" y2="418.9"/><line class="cls-117" x1="593.22" y1="475.52" x2="556.52" y2="454.32"/><line class="cls-117" x1="500.08" y1="414.82" x2="537.69" y2="436.53"/><polyline class="cls-117" points="506.87 411.82 535.08 428.1 537.44 436.39 590.36 466.94"/><line class="cls-117" x1="604.94" y1="468.44" x2="543.79" y2="433.14"/><polyline class="cls-122" points="510.13 406.78 542.42 425.42 543.71 433.09"/><line class="cls-117" x1="602.35" y1="460.02" x2="548.88" y2="429.15"/><line class="cls-119" x1="574.88" y1="437.24" x2="510.28" y2="399.94"/><polyline class="cls-117" points="529.96 405.06 582.07 435.14 585.15 443.17 608.34 456.56"/><path class="cls-118" d="M496.2,412.58a4.2,4.2,0,0,1,3.81,0c1.07.61,1.1,1.6.07,2.2a4.23,4.23,0,0,1-3.81,0C495.2,414.16,495.17,413.18,496.2,412.58Z"/><path class="cls-118" d="M506.29,404.52a4.23,4.23,0,0,1,3.81,0c1.07.62,1.1,1.6.06,2.2a4.21,4.21,0,0,1-3.8,0C505.29,406.1,505.26,405.12,506.29,404.52Z"/><path class="cls-118" d="M529.5,404.79c1-.59,1-1.58-.06-2.19a4.2,4.2,0,0,0-3.81,0c-1,.6-1,1.58.06,2.2A4.23,4.23,0,0,0,529.5,404.79Z"/><path class="cls-118" d="M578.57,416.48c1-.6,1-1.58-.06-2.2a4.2,4.2,0,0,0-3.81,0c-1,.6-1,1.58.07,2.2A4.21,4.21,0,0,0,578.57,416.48Z"/><path class="cls-118" d="M531.45,396.7c1-.59,1-1.58-.07-2.2a4.21,4.21,0,0,0-3.8,0c-1,.59-1,1.58.06,2.2A4.23,4.23,0,0,0,531.45,396.7Z"/><path class="cls-118" d="M578.75,439.47c1-.59,1-1.58-.07-2.19a4.18,4.18,0,0,0-3.8,0c-1,.6-1,1.58.06,2.2A4.23,4.23,0,0,0,578.75,439.47Z"/><polyline class="cls-117" points="531.35 396.76 575.84 422.45 592.95 422.61 635.21 447.02"/><polyline class="cls-120" points="574.7 414.24 552.1 401.19 555.6 393.79 542.98 386.5"/><polyline class="cls-120" points="563.38 402.1 589.56 417.21 599.27 417.93 642.43 442.85"/><polyline class="cls-121" points="613.82 442.6 587.63 427.48 578.14 427.6"/><polyline class="cls-117" points="475.06 400.7 462.33 400.89 448.17 409.06"/><polyline class="cls-117" points="513.12 358.13 509.64 344.86 531.74 332.1"/></g></g></g><g class="cls-3"><g class="cls-123"><g class="cls-3"><path class="cls-114" d="M508.34,363.21l.07,25.2a11.61,11.61,0,0,1,1.56,0l-.08-25.21a10,10,0,0,0-1.55,0"/></g></g></g><g class="cls-3"><g class="cls-124"><g class="cls-3"><path class="cls-88" d="M504.36,364.27l.07,25.21.06,0-.07-25.21-.06,0"/><path class="cls-76" d="M504.42,364.24l.07,25.21.19-.11-.07-25.21-.19.11"/><path class="cls-98" d="M504.61,364.13l.07,25.21.2-.1L504.8,364l-.19.09"/><path class="cls-99" d="M504.8,364l.08,25.2.2-.09L505,363.94l-.21.1"/><path class="cls-101" d="M505,363.94l.07,25.21.21-.09-.07-25.21-.21.09"/><path class="cls-102" d="M505.22,363.85l.07,25.21.22-.08-.07-25.21-.22.08"/><path class="cls-103" d="M505.44,363.77l.07,25.21.23-.08-.07-25.21-.23.08"/><path class="cls-104" d="M505.67,363.69l.07,25.21.24-.08-.08-25.21-.23.08"/><path class="cls-105" d="M505.9,363.61l.08,25.21.24-.07-.07-25.21-.25.07"/><path class="cls-106" d="M506.15,363.54l.07,25.21.25-.06-.07-25.21-.25.06"/><path class="cls-107" d="M506.4,363.48l.07,25.21.26-.06-.07-25.21-.26.06"/><path class="cls-108" d="M506.66,363.42l.07,25.21.26-.05-.07-25.21-.26.05"/><path class="cls-109" d="M506.92,363.37l.07,25.21.26-.05-.07-25.21-.26.05"/><path class="cls-110" d="M507.18,363.32l.07,25.21.26,0-.07-25.21-.26,0"/><path class="cls-111" d="M507.44,363.28l.07,25.21.27,0-.07-25.21-.27,0"/><path class="cls-112" d="M507.71,363.25l.07,25.21.3,0-.07-25.2-.3,0"/><path class="cls-113" d="M508,363.23l.07,25.2.33,0-.07-25.2-.33,0"/><path class="cls-114" d="M508.34,363.21l.07,25.2a11.61,11.61,0,0,1,1.56,0l-.08-25.21a10,10,0,0,0-1.55,0"/></g></g></g><g class="cls-3"><g class="cls-125"><g class="cls-3"><path class="cls-114" d="M508.34,363.21l.07,25.2a11.61,11.61,0,0,1,1.56,0l-.08-25.21a10,10,0,0,0-1.55,0"/><path class="cls-113" d="M509.89,363.24l.08,25.21.36.05-.07-25.21-.37-.05"/><path class="cls-112" d="M510.26,363.29l.07,25.21.31,0-.07-25.21-.31,0"/><path class="cls-111" d="M510.57,363.33l.07,25.21.29,0-.07-25.21-.29-.05"/><path class="cls-110" d="M510.86,363.38l.07,25.21.28.06-.07-25.21-.28-.06"/><path class="cls-109" d="M511.14,363.44l.07,25.21.28.07-.07-25.21-.28-.07"/><path class="cls-108" d="M511.42,363.51l.07,25.21.27.07-.07-25.2-.27-.08"/><path class="cls-107" d="M511.69,363.59l.07,25.2.27.09L512,363.67l-.27-.08"/><path class="cls-106" d="M512,363.67l.07,25.21.25.08-.07-25.2-.25-.09"/><path class="cls-105" d="M512.21,363.76l.07,25.2.24.1-.07-25.21-.24-.09"/><path class="cls-104" d="M512.45,363.85l.07,25.21.22.09-.07-25.21-.22-.09"/><path class="cls-103" d="M512.67,363.94l.07,25.21.22.1L512.88,364l-.21-.1"/><path class="cls-102" d="M512.88,364l.08,25.21.2.1-.07-25.21-.21-.1"/><path class="cls-101" d="M513.09,364.14l.07,25.21.19.11-.07-25.21-.19-.11"/><path class="cls-99" d="M513.28,364.25l.07,25.21h0l-.07-25.2,0,0"/></g></g></g><path class="cls-126" d="M504.36,364.27a9.87,9.87,0,0,1,8.95,0l26.47,15.38c2.46,1.43,2.45,3.75,0,5.18l-25.45,14.7a9.87,9.87,0,0,1-8.95,0l-26.47-15.38c-2.47-1.43-2.45-3.75,0-5.19Zm5.33,32.9,26-15L509,366.63l-26,15,26.73,15.53"/><path class="cls-127" d="M507.21,377.05a10.91,10.91,0,0,1,9.89,0c2.73,1.59,2.71,4.15,0,5.74a10.94,10.94,0,0,1-7.3.94l-6.72,3.89L498.54,385l6.87-4C504.74,379.66,505.34,378.13,507.21,377.05Z"/><path class="cls-128" d="M535.69,382.16l-26,15L483,381.64l26-15Zm-32.64,5.46,6.72-3.89a10.94,10.94,0,0,0,7.3-.94c2.74-1.59,2.76-4.15,0-5.74a10.91,10.91,0,0,0-9.89,0c-1.87,1.08-2.47,2.61-1.8,4l-6.87,4,4.51,2.63"/><path class="cls-129" d="M493,422.87a6,6,0,0,0,2.7,4.69c1.5.86,2.71.16,2.71-1.57a6,6,0,0,0-2.71-4.68C494.23,420.45,493,421.15,493,422.87Z"/><path class="cls-130" d="M495.27,419.78c-2.29-1-3.94.27-3.69,2.84a8.71,8.71,0,0,0,4.6,6.47c2.29,1,3.94-.27,3.69-2.84A8.7,8.7,0,0,0,495.27,419.78Z"/><path class="cls-129" d="M481.21,416.06a6,6,0,0,0,2.71,4.68c1.49.86,2.7.16,2.7-1.56a6,6,0,0,0-2.7-4.68C482.42,413.63,481.21,414.33,481.21,416.06Z"/><path class="cls-131" d="M483.46,413c-2.29-1-3.94.27-3.69,2.84a8.68,8.68,0,0,0,4.61,6.47c2.29,1,3.94-.27,3.68-2.84A8.67,8.67,0,0,0,483.46,413Z"/><path class="cls-129" d="M468.3,408.6a6,6,0,0,0,2.71,4.69c1.49.86,2.7.16,2.7-1.57A6,6,0,0,0,471,407C469.51,406.18,468.3,406.88,468.3,408.6Z"/><path class="cls-132" d="M470.55,405.51c-2.29-1-3.94.27-3.69,2.84a8.7,8.7,0,0,0,4.61,6.47c2.29,1,3.94-.27,3.68-2.84A8.65,8.65,0,0,0,470.55,405.51Z"/><path class="cls-129" d="M456.23,401.63a6,6,0,0,0,2.71,4.69c1.49.86,2.7.16,2.7-1.57a6,6,0,0,0-2.7-4.68C457.44,399.21,456.23,399.91,456.23,401.63Z"/><path class="cls-133" d="M458.48,398.54c-2.29-1-3.94.27-3.69,2.84a8.7,8.7,0,0,0,4.61,6.47c2.28,1,3.93-.27,3.68-2.84A8.65,8.65,0,0,0,458.48,398.54Z"/><path class="cls-134" d="M508.72,430.05c-.65-1-1.54-1.39-2-1s-.31,1.52.33,2.48,1.54,1.39,2,1S509.36,431,508.72,430.05Z"/><path class="cls-135" d="M510.5,428.45c-2-3-4.82-4.35-6.27-3.06s-1,4.77,1,7.75,4.82,4.36,6.26,3.06S512.51,431.44,510.5,428.45Z"/><path class="cls-129" d="M443.66,393.72a6,6,0,0,0,2.7,4.68c1.49.87,2.71.17,2.71-1.56a6,6,0,0,0-2.71-4.68C444.87,391.3,443.66,392,443.66,393.72Z"/><path class="cls-134" d="M447.2,394.53c-.64-.95-1.54-1.39-2-1s-.32,1.53.32,2.48,1.54,1.39,2,1S447.84,395.49,447.2,394.53Z"/><path class="cls-136" d="M449,392.94c-2-3-4.82-4.36-6.26-3.06s-1,4.76,1,7.75,4.82,4.35,6.27,3.06S451,395.92,449,392.94Z"/><path class="cls-137" d="M318.72,382.46c3.35-1.46,5.76.4,5.39,4.15a12.67,12.67,0,0,1-6.73,9.46c-3.35,1.46-5.76-.39-5.39-4.15A12.69,12.69,0,0,1,318.72,382.46Z"/><path class="cls-138" d="M330.92,375.39c3.35-1.46,5.76.39,5.39,4.15a12.68,12.68,0,0,1-6.74,9.46c-3.34,1.46-5.75-.4-5.38-4.15A12.65,12.65,0,0,1,330.92,375.39Z"/><path class="cls-139" d="M343.11,368c3.35-1.46,5.76.4,5.39,4.16a12.65,12.65,0,0,1-6.73,9.45c-3.35,1.47-5.76-.39-5.39-4.15A12.69,12.69,0,0,1,343.11,368Z"/><path class="cls-140" d="M353.18,362.83c3.35-1.46,5.76.4,5.39,4.15a12.67,12.67,0,0,1-6.73,9.46c-3.35,1.46-5.76-.39-5.39-4.15A12.69,12.69,0,0,1,353.18,362.83Z"/><path class="cls-134" d="M304.23,395.11c1.23-1.83,2.94-2.66,3.83-1.87s.6,2.91-.63,4.73-2.94,2.66-3.82,1.87S303,396.93,304.23,395.11Z"/><path class="cls-141" d="M300.83,392.06c3.84-5.7,9.2-8.31,12-5.84s1.89,9.1-2,14.8-9.2,8.31-12,5.84S297,397.76,300.83,392.06Z"/><path class="cls-134" d="M362.88,360.9c1.23-1.82,2.94-2.66,3.82-1.87s.6,2.91-.62,4.73-2.95,2.66-3.83,1.87S361.65,362.72,362.88,360.9Z"/><path class="cls-142" d="M359.47,357.85c3.85-5.7,9.2-8.31,12-5.84s1.88,9.1-2,14.8-9.2,8.31-12,5.84S355.63,363.55,359.47,357.85Z"/></g></g></g></svg>