<svg xmlns="http://www.w3.org/2000/svg" viewBox="0 0 351 106.01"><defs><style>.cls-1{fill:#6280af;opacity:0.7;}.cls-2{opacity:0.76;}.cls-3{fill:#fff;}</style></defs><g id="Layer_2" data-name="Layer 2"><g id="Layer_1-2" data-name="Layer 1"><rect class="cls-1" width="351" height="106.01" rx="17.23"/><g class="cls-2"><path class="cls-3" d="M203.73,75.71a18.16,18.16,0,0,1-7.45-1.53,18.9,18.9,0,0,1-10-10.37,20.67,20.67,0,0,1,0-15.21,19.43,19.43,0,0,1,4-6.17,18.58,18.58,0,0,1,6-4.17,19,19,0,0,1,15,0,19,19,0,0,1,6,4.17,19.31,19.31,0,0,1,4,6.17,20.67,20.67,0,0,1,0,15.21,19.23,19.23,0,0,1-4,6.2,19,19,0,0,1-6,4.17A18.33,18.33,0,0,1,203.73,75.71Zm0-5a12.64,12.64,0,0,0,9.76-4.34,14.24,14.24,0,0,0,2.7-4.65,16.43,16.43,0,0,0,.95-5.58,16.63,16.63,0,0,0-.95-5.65,14.19,14.19,0,0,0-2.7-4.64,12.31,12.31,0,0,0-4.22-3.14,13.1,13.1,0,0,0-5.54-1.14,12.85,12.85,0,0,0-5.5,1.14,12.53,12.53,0,0,0-4.2,3.14,14.19,14.19,0,0,0-2.7,4.64,16.63,16.63,0,0,0-.94,5.65,16.43,16.43,0,0,0,.94,5.58,14.24,14.24,0,0,0,2.7,4.65,13,13,0,0,0,4.2,3.17A12.57,12.57,0,0,0,203.73,70.71Z"/><path class="cls-3" d="M75.77,58,54.19,55.24l3.38-4.15,16.54,2.23L68.54,37.58l3.25-4,7,20.61,11.56,9.4-3.06,3.76Z"/><path class="cls-3" d="M106.82,39.85h4.8V59.36a19.52,19.52,0,0,0,.4,4.12,8.46,8.46,0,0,0,1.38,3.23,6.32,6.32,0,0,0,2.6,2.08,12,12,0,0,0,8.2,0,6.38,6.38,0,0,0,2.6-2.08,8.29,8.29,0,0,0,1.37-3.23,19.52,19.52,0,0,0,.4-4.12V39.85h4.81V60.51a17.35,17.35,0,0,1-.8,5.33,12.05,12.05,0,0,1-2.43,4.3A11.29,11.29,0,0,1,126,73a17.1,17.1,0,0,1-11.8,0,11.54,11.54,0,0,1-4.15-2.87,11.66,11.66,0,0,1-2.45-4.3,17.35,17.35,0,0,1-.8-5.33Z"/><path class="cls-3" d="M157.73,60.66q.18,0,.75,0a12.92,12.92,0,0,0,1.39-.16,11.8,11.8,0,0,0,1.78-.44,8.87,8.87,0,0,0,1.9-.86,7.37,7.37,0,0,0,2.7-2.61,7.91,7.91,0,0,0,1-3.31,10.56,10.56,0,0,0-.38-3.69,18.43,18.43,0,0,0-1.49-3.75,13,13,0,0,1-1.49,2.74,11,11,0,0,1-3.63,3.14,10.12,10.12,0,0,1-3.88,1.39,8.89,8.89,0,0,1-3.75-.29A9.29,9.29,0,0,1,149.32,51a12.69,12.69,0,0,1-2.72-3.28,11.15,11.15,0,0,1-1.5-4.11,10.4,10.4,0,0,1,.18-4A9.66,9.66,0,0,1,147,36a11,11,0,0,1,3.21-2.79,9.92,9.92,0,0,1,9-1q4.48,1.74,8.35,8.28a30.93,30.93,0,0,1,3.09,6.86,16.62,16.62,0,0,1,.75,6.12,11.52,11.52,0,0,1-1.7,5.19,12.29,12.29,0,0,1-4.26,4,13.43,13.43,0,0,1-2.25,1.06,22.3,22.3,0,0,1-2.14.66,12.21,12.21,0,0,1-1.84.33,9.71,9.71,0,0,1-1.36,0Zm5.67-18.33a15.73,15.73,0,0,0-5.28-5.83,5.38,5.38,0,0,0-5.79.17,6.65,6.65,0,0,0-1.79,1.55,5.61,5.61,0,0,0-1,2.1,6.77,6.77,0,0,0-.14,2.52,7.09,7.09,0,0,0,1,2.74,8.34,8.34,0,0,0,1.53,1.91,5.56,5.56,0,0,0,1.93,1.15,5.05,5.05,0,0,0,2.31.21,6.94,6.94,0,0,0,2.66-1,10.11,10.11,0,0,0,3.16-2.68A10.79,10.79,0,0,0,163.4,42.33Z"/><path class="cls-3" d="M223.12,34.76l8.45-6.33a14.61,14.61,0,0,1,5.07-2.61,10.2,10.2,0,0,1,4.28-.21,8.24,8.24,0,0,1,3.43,1.5,12.63,12.63,0,0,1,2.52,2.48,10.77,10.77,0,0,1,2,4,8.78,8.78,0,0,1,0,3.95,10,10,0,0,1-1.71,3.68,14.79,14.79,0,0,1-3.23,3.24l-4.84,3.62,7.85,10.49-3.8,2.85Zm18.29,6.48a6.67,6.67,0,0,0,2.88-4.12A5.7,5.7,0,0,0,243,32.61a5.88,5.88,0,0,0-4.07-2.55,6.64,6.64,0,0,0-4.75,1.54l-4.81,3.59,7.23,9.65Z"/><path class="cls-3" d="M259.59,56.56l22.6-11.88,4,2.15-10,18.6,3,1.6-1.84,3.44-3-1.6-3.09,5.77-3.84-2.06,3.1-5.77L257.77,60Zm12.81,6.81,7.11-13.27-16,8.52Z"/><path class="cls-3" d="M299.5,33.22H304V66.58h-4.5Z"/><rect class="cls-3" x="200.64" y="30.41" width="2.56" height="48.44" transform="translate(27.26 -60.47) rotate(18.24)"/></g></g></g></svg>