<svg xmlns="http://www.w3.org/2000/svg" xmlns:xlink="http://www.w3.org/1999/xlink" viewBox="0 0 27.84 33.5"><defs><style>.cls-1{fill:url(#linear-gradient);}.cls-2{fill:url(#linear-gradient-2);}</style><linearGradient id="linear-gradient" x1="12.94" y1="10.58" x2="16.55" y2="10.58" gradientUnits="userSpaceOnUse"><stop offset="0" stop-color="#2ebcbb"/><stop offset="1" stop-color="#268dcd"/></linearGradient><linearGradient id="linear-gradient-2" x1="0" y1="16.75" x2="27.84" y2="16.75" xlink:href="#linear-gradient"/></defs><g id="Layer_2" data-name="Layer 2"><g id="Layer_1-2" data-name="Layer 1"><path class="cls-1" d="M16.52,8.81l-1,4.15a1.32,1.32,0,0,1-1.29,1,1.53,1.53,0,0,1-.3,0,1.33,1.33,0,0,1-1-1.59l1-4.15a1.32,1.32,0,0,1,1.29-1,1.43,1.43,0,0,1,.29,0A1.33,1.33,0,0,1,16.52,8.81Z"/><path class="cls-2" d="M27.84.54a.58.58,0,0,1,0,.18A3.24,3.24,0,0,1,26,2.17a5.33,5.33,0,0,1-3.74-.38l-.15-.06a4.16,4.16,0,0,0-3.65,0,3.32,3.32,0,0,0-.81.62,11.07,11.07,0,0,1,2.48,1.17,11.83,11.83,0,0,1,5.56,10.72,2,2,0,0,1-.8,1.46,1.91,1.91,0,0,1-1.63.32h-.08a1.85,1.85,0,0,1-1.4-1.93,7.93,7.93,0,0,0-15.6-2.43l-2,8.08a7.91,7.91,0,0,0,1.2,6.47,8,8,0,0,0,5.72,3.34,8,8,0,0,0,8.47-6.08L20.16,21V21l-2.47-.62h-.09L12.35,19l-3.19-.8-.06,0-1.3-.32a2.16,2.16,0,0,1-1.62-2.09,2.37,2.37,0,0,1,.06-.52,2.16,2.16,0,0,1,2.61-1.56l4.54,1.14,7.83,2,3.46.86.18.06.1,0,.05,0h0l-.26,1-.34,1.35-.17.67-.14.59-.11.41v.05l0,.06-.61,2.46a12,12,0,0,1-11.1,9.09h-.37a11.42,11.42,0,0,1-1.58-.11,11.86,11.86,0,0,1-10-14.61l2-8.08a11.88,11.88,0,0,1,11.5-9,11.25,11.25,0,0,1,2.15.2l.56.11a3.74,3.74,0,0,1,.27-.31c1-1.13,3-2,5.78-.87,3.24,1.35,4.22-.49,4.26-.58A.5.5,0,0,1,27.34,0a.59.59,0,0,1,.22.05A.49.49,0,0,1,27.84.54Z"/></g></g></svg>