<svg xmlns="http://www.w3.org/2000/svg" viewBox="0 0 26.35 26.35"><defs><style>.cls-1{fill:#fff;}</style></defs><g id="Layer_2" data-name="Layer 2"><g id="Layer_1-2" data-name="Layer 1"><path class="cls-1" d="M13.17,26.35A13.18,13.18,0,1,1,26.35,13.17,13.19,13.19,0,0,1,13.17,26.35m0-25.1A11.92,11.92,0,1,0,25.09,13.17,11.94,11.94,0,0,0,13.17,1.25"/><path class="cls-1" d="M22,9.43a5.5,5.5,0,0,0-.28-.6A9.51,9.51,0,0,0,20.28,6.7L18.13,8.21,14,11.1l-.13-.17a2.4,2.4,0,0,0-3.35-.51,2.32,2.32,0,0,0-1,1.79c0,.15-.07.19-.21.23a1.8,1.8,0,0,0-1.3,2.2A1.83,1.83,0,0,0,9.87,16H16.5a1.8,1.8,0,0,0,.5-3.54.37.37,0,0,1-.19-.11l2.8-2a6.87,6.87,0,0,1,.6,2.82,7,7,0,1,1-7-7A7,7,0,0,1,16.45,7l.12.06a1.17,1.17,0,0,0,.55.13,1.32,1.32,0,0,0,1.3-1.33,1.34,1.34,0,0,0-.63-1.1l-.08,0c-.26-.13-.52-.26-.79-.37a9.62,9.62,0,1,0,3,15.76L20,20A9.63,9.63,0,0,0,22,9.43m-5.84,3.45h0a.1.1,0,0,0,.08.07l.41,0a1.2,1.2,0,0,1-.09,2.38c-.29,0-.58,0-.87,0H10.09a1.54,1.54,0,0,1-1-.25A1.21,1.21,0,0,1,9.81,13a.4.4,0,0,0,.39-.39,1.75,1.75,0,0,1,1.34-2,1.66,1.66,0,0,1,1.93.88c.07.1.13.21.2.33a.25.25,0,0,0,.33.11l.07,0a1.22,1.22,0,0,1,2.12.85v.15Z"/></g></g></svg>