<svg xmlns="http://www.w3.org/2000/svg" viewBox="0 0 1423.36 285.87"><defs><style>.cls-1,.cls-12,.cls-2{fill:#9fc1f4;}.cls-1{opacity:0.69;}.cls-2{opacity:0.67;}.cls-3{fill:#2c3a64;}.cls-4{fill:#ed985f;}.cls-5{fill:#739cf3;}.cls-6{fill:#35488b;}.cls-7{fill:#ffb27d;}.cls-8{fill:#b84c42;}.cls-9{fill:#d66c67;}.cls-10{fill:#d8dfeb;}.cls-11{fill:#f0d170;}.cls-13{fill:#163560;}.cls-14{fill:#c65447;}.cls-15{fill:#e49963;}.cls-16{fill:#f4be61;}.cls-17{fill:#f2a83d;}.cls-18{fill:#ee9849;}.cls-19{fill:#d68d5d;}.cls-20{fill:#fff;}.cls-21{fill:#a86337;}.cls-22{fill:#dce3f1;}.cls-23{fill:#e57970;}.cls-24{fill:#1c468a;}.cls-25{fill:#b77446;}.cls-26{fill:#8fb0e2;}.cls-27{fill:#365da4;}.cls-28{fill:#285493;}.cls-29{fill:#80bdcc;}.cls-30{fill:#5f9aa8;}.cls-31{fill:#e58638;}.cls-32{fill:#ce6d25;}.cls-33{fill:#d38957;}.cls-34{fill:#2f5791;}.cls-35{fill:#b74b42;}.cls-36{fill:#c45446;}.cls-37,.cls-50{fill:#e37970;}.cls-38{fill:#ed975d;}.cls-39{fill:#466aa5;}.cls-40{fill:#699dee;}.cls-41{fill:#3b76ca;}.cls-42{fill:#2b478b;}.cls-43{fill:#a53934;}.cls-44{fill:#233862;}.cls-45{fill:#b64c41;}.cls-46{fill:#2d427c;}.cls-47{fill:#ea8e50;}.cls-48{fill:#ffb07b;}.cls-49{fill:#dde3f2;}.cls-50{opacity:0.2;}.cls-51{fill:#325384;}.cls-52{fill:#77a4e5;}.cls-53{fill:#7cace5;}</style></defs><g id="Layer_2" data-name="Layer 2"><g id="Layer_1-2" data-name="Layer 1"><path class="cls-1" d="M318.74,163H205.9l-1.18-8.62a1.68,1.68,0,0,0-.16-.54c.73-13.24,3.72-24.09,4.25-31.8,1.22-4.17.43-6.58-.7-8l.93.14c-4.7-4.14-7-32.23-7.21-34.65a11.2,11.2,0,0,0-.16-1.19c-.42-2.64-1.71-9-4.77-11.49L184,67.76s-5,2.37-8.67,13.3h0a8.18,8.18,0,0,0-1.75,4.12c-.61,4.91,2.5,6.8,2.5,6.8,0-.2,0-.39-.05-.58.43,5.64,1.85,12.59,4.43,12.87a25.26,25.26,0,0,0,2.65-.06,22,22,0,0,1-.77,6.3l-.85.16v0a3.73,3.73,0,0,0-.52.11h0l-.41.11c-.79.2-1.67.54-2.41.79,0,0-8.32,2.27-20.4,22.1h-1.79l-.69-.32a6,6,0,0,0-.66-.28l.08-2,.25-5.62.12-2.69h.37l-.24-1.82h-8.45l-.35,1.82h.38l.16,2.69.35,5.62.07,1.1a2.63,2.63,0,0,0-1.35.51,1.19,1.19,0,0,0-.31,1h-4l.11-2.59.25-5.62.11-2.69h.38l-.24-1.82h-8.45l-.35,1.82h.37l.17,2.69.35,5.62.16,2.52-1.1-.15a17.5,17.5,0,0,1-2.38-.94c-2.05-1-7.52-1.71-8.68-.62s1.23,5.54,6.22,5.68a32.74,32.74,0,0,1,4,.33,121,121,0,0,0,13.18,5.16c2.41.77,4.93,1.48,7.34,2a38,38,0,0,0,6.24.94,36,36,0,0,0,6.37-3.53c1.22.47,2.53,1,3.89,1.45l-.62,7.22c-.22,1.63-.32,6.39-.36,11.69H62c-.63-4.45-1.64-9.9-1.84-12.15a82.89,82.89,0,0,1,.07-12c3.32-1.11,6.48-2.35,8.88-3.35a36.36,36.36,0,0,0,7.16,4.07l.74,0h0l.72-.06.1,0,.68-.08.19,0,.59-.08.3,0,.51-.08.39-.08L81,139l.48-.1.34-.07.56-.12.19,0h0l1.72-.41.1,0c.57-.14,1.14-.3,1.72-.46l.13,0,1.71-.49.13,0,1.78-.55a121.54,121.54,0,0,0,13.19-5.16,30.68,30.68,0,0,1,4-.33c5-.14,7.39-4.59,6.23-5.68s-6.64-.41-8.69.61a15.53,15.53,0,0,1-2.37.94c-7.14,1-12.65,1.33-16.29,1.66a1.64,1.64,0,0,0-.14-1.73c-1.07-1-5.57-.6-8.19.23-12.74-17.46-21.64-23-21.64-23a2.77,2.77,0,0,0-.47-.2c5.87-4.22-2.15-4.38-.41-18.54C56,78.5,53.82,67.47,40.06,69.23S22,84.51,24.74,90.52s-4,7.47-6.11,13.93C16.8,110,16.16,116.9,13.21,120,5,128.56,17.65,141.09,28.5,142.4a33.55,33.55,0,0,1-.11,3.43,11.93,11.93,0,0,1-.2,1.37c-.76,3.9-3.3,10.61-4.92,15.75h-7.7a5,5,0,0,0-5,5V279.55a5,5,0,0,0,5,5H318.74a5,5,0,0,0,5-5V167.93A5,5,0,0,0,318.74,163ZM60.86,130.32c0-.7.1-1.38.14-2,.59.65,1.18,1.27,1.77,1.85Z"/><path class="cls-2" d="M651.78,163H571.85l-1.18-8.62a2,2,0,0,0-.16-.54c.73-13.24,3.72-24.09,4.25-31.8,1.22-4.17.43-6.58-.7-8l.93.14c-4.7-4.14-7-32.23-7.21-34.65a9.2,9.2,0,0,0-.17-1.19c-.41-2.64-1.7-9-4.77-11.49l-12.92.92s-5,2.37-8.67,13.3h0a8.18,8.18,0,0,0-1.75,4.12C538.9,90.09,542,92,542,92c0-.2,0-.39,0-.58.43,5.64,1.84,12.59,4.43,12.87a25.26,25.26,0,0,0,2.65-.06,22.39,22.39,0,0,1-.77,6.3l-.85.16v0a3.46,3.46,0,0,0-.52.11h0a4,4,0,0,0-.41.11c-.8.2-1.67.54-2.42.79,0,0-8.32,2.27-20.39,22.1h-1.79l-.69-.32a6.9,6.9,0,0,0-.66-.28l.08-2,.25-5.62.12-2.69h.37l-.24-1.82h-8.45l-.35,1.82h.38l.16,2.69.35,5.62.07,1.1a2.71,2.71,0,0,0-1.36.51,1.19,1.19,0,0,0-.3,1h-4l.11-2.59.24-5.62.12-2.69h.38l-.24-1.82H499.7l-.35,1.82h.37l.16,2.47a10.63,10.63,0,0,0-2.15.7,15.23,15.23,0,0,1-2.38.94c-7.13,1-12.64,1.33-16.28,1.66a1.66,1.66,0,0,0-.14-1.73c-1.08-1-5.57-.6-8.19.23-12.74-17.46-21.64-23-21.64-23a2.77,2.77,0,0,0-.47-.2c5.87-4.22-2.15-4.38-.42-18.54.85-6.89-1.3-17.92-15.06-16.16s-18.09,15.28-15.32,21.29-4,7.47-6.12,13.93c-1.82,5.55-2.46,12.45-5.41,15.54-8.18,8.57,4.44,21.1,15.29,22.41a33.55,33.55,0,0,1-.11,3.43,11.93,11.93,0,0,1-.2,1.37c-.76,3.9-3.3,10.61-4.92,15.75H370.19a4.82,4.82,0,0,0-4.81,4.8v112a4.82,4.82,0,0,0,4.81,4.8H651.78a4.81,4.81,0,0,0,4.8-4.8v-112A4.81,4.81,0,0,0,651.78,163ZM454,130.32c.05-.7.1-1.38.14-2,.59.65,1.18,1.27,1.77,1.85ZM455.12,163c-.63-4.45-1.64-9.9-1.84-12.15a82.89,82.89,0,0,1,.07-12c3.32-1.11,6.48-2.35,8.88-3.35a36.36,36.36,0,0,0,7.16,4.07l.74,0h0l.72-.06.1,0,.68-.08.19,0,.59-.08.3,0,.5-.08.4-.08.41-.07.49-.1.34-.07.56-.12.19,0h0l1.72-.41.1,0c.58-.14,1.15-.3,1.73-.46l.13,0,1.71-.49.13,0,1.78-.55c2-.62,3.89-1.31,5.64-2a7.16,7.16,0,0,0,5.85,3.06,32.54,32.54,0,0,1,4,.33,121.54,121.54,0,0,0,13.19,5.16c2.41.77,4.93,1.48,7.34,2a38,38,0,0,0,6.24.94,36,36,0,0,0,6.37-3.53c1.22.47,2.53,1,3.89,1.45l-.62,7.22c-.23,1.63-.32,6.39-.36,11.69Zm45.07-31.84h0v.08l.16,2.52-1.1-.15a17.5,17.5,0,0,1-2.38-.94A9.81,9.81,0,0,0,495,132l1.15-.52A30.52,30.52,0,0,1,500.19,131.11Z"/><path class="cls-3" d="M1258.29,38.56c0-.6-.49-7.11-10.4-7.45,0,0,4.87.58,5.71,2.72,0,0-3.32-2.64-6-1.79s-4.29,5.58-4.3,7.14,1.48,6.58,3.2,7a5.34,5.34,0,0,0,2.07,0,25.7,25.7,0,0,0-1.33,2.37c-4,8.12.13,16.06,3.47,15.18,2.15-.56,2.76,3.1,2.76,3.1L1274.31,50S1266.65,34.1,1258.29,38.56Z"/><path class="cls-4" d="M1309.47,131.58s6.07-.23,7.08.78.51,6.08-1.39,7.72-7.09-4.56-7.09-4.56Z"/><path class="cls-4" d="M1268.58,85.8s-7.19,3.7-6.74,13.76,14.1,27.69,21,31.87c5.43,3.32,26.08,4.22,26.08,4.22l.6-4.07s-19.29-7.83-22-10.85C1281.65,114.26,1274,83.57,1268.58,85.8Z"/><path class="cls-5" d="M1270.28,104.21c-.1.28-.22.55-.34.83-3.53,7.59-14.43,20.25-14.93,28.94a39.89,39.89,0,0,0,1.44,11.72c6,24.34-41.8,3.6-39.1-2.71,5.38-12.53,12.89-30.41,12.89-30.41s-.07-12.68,0-17.63v-.13c0-.23,0-.45,0-.66v-.24c0-1.52,0-2.62,0-2.91,1.37-5,4-13.3,4-13.3,3.73-1.51,10.38-.61,10.38-.61.24,0,1.71.13,2.87.26,5,.56,14.37,3.89,14.63,4.42l2.63,1.09c1,.42,1.83.81,2.57,1.18a19.6,19.6,0,0,1,4.17,2.57C1267.86,89,1273.06,96.84,1270.28,104.21Z"/><path class="cls-6" d="M1255.52,140l-4.68,1.23v-.05c-8.11,2.15-29.75-6-29.75-6s-7.85,6.9-6.82,23.43c.5,8.08-1.46,9.12.91,8.74,6.84-1.09,30.91,0,31,0l.28-1.19c.64-.07,1.19-.14,1.54-.2,1.21-.2,2.39-.36,3.5-.47a61.45,61.45,0,0,1,7.46-.32.67.67,0,0,0,.69-.74C1257.69,144.29,1255.52,140,1255.52,140Z"/><path class="cls-7" d="M1262.77,76.32c-.6,2.43-1,4.77-.69,5.46a7.31,7.31,0,0,1-5,2.66c-4.76.47-9.61-7.08-9.61-7.08,1.7-.89,4.76-5.21,6.53-12.44l.6.28,10.05,4.72S1263.56,73.19,1262.77,76.32Z"/><path class="cls-3" d="M1268.16,99.9c0-.25-.63-.6-1.62-1,.29-2.66.65-7.4.74-14.83-.74-.37-1.59-.76-2.57-1.18.13,3,.19,9.78-1.29,14.89-3.9-1.28-9.38-2.76-13.12-3.72a161,161,0,0,0-4-16.81l-2.86-.25s3.45,9.13,3.43,16.2l-.63-.15c-1.85-.39-2.64,7.36-2.8,7.8-2.79,7.79-10,6.84-12.4,7.13s-16.91,30.13-17,35.42,34.32,8.45,42.85,8S1268.29,101.36,1268.16,99.9Z"/><path class="cls-4" d="M1264.63,69.92s-1.07,3.27-1.85,6.4c-5.88-1.64-7.66-7.81-8.2-11.12Z"/><path class="cls-7" d="M1265.87,73.38s-14.06-3.25-11.89-12,1.8-15,10.86-13.31,10,5.46,10,8.55S1269.58,74,1265.87,73.38Z"/><path class="cls-3" d="M1275.6,51.7c-1.51-3.16-3.29-3-4.41-2.43a10.08,10.08,0,0,0-13.08-1.12,17.15,17.15,0,0,1-7.89,8.48s2.16,2.21,8.41,2.17a10.35,10.35,0,0,0,5.59-2.11,33.82,33.82,0,0,1-7.33,5.47c7.83-1.5,13.08-10.57,13.62-11.53a11.11,11.11,0,0,1,2,4.83c.15,2.39-.68,7,.69,7.21C1273.24,62.67,1277.86,56.44,1275.6,51.7Z"/><path class="cls-7" d="M1280.58,138.19l-1.18,4.3s-1.8-.32-4.58-.87l0,0-.29-.06c-1.74-.35-3.84-.8-6.1-1.31-7.23-1.66-16.08-4.07-20.2-6.69-7.6-4.81-18.36-31.81-18.87-43.08,0-.6,0-1.17,0-1.71.08-9.71,4.91-11,4.91-11,1.94-.8,4.2,2.56,6.52,7.78,4.88,10.94,10.07,30,13.36,35.73,1.39,2.4,9.23,7.28,16,11.18,2.38,1.37,4.62,2.62,6.43,3.61C1279,137.33,1280.58,138.19,1280.58,138.19Z"/><path class="cls-5" d="M1240.72,85.49c-6.46-1.78-11.44,3.26-11.44,3.26.08-9.71,4.92-11,4.92-11C1236.14,76.91,1238.4,80.27,1240.72,85.49Z"/><path class="cls-5" d="M1271.45,86.62s3.38,5.91,3.89,7.43c0,0-4.39-.17-6.16,3.2C1269.18,97.25,1269.33,87.47,1271.45,86.62Z"/><path class="cls-8" d="M1299.11,150.71a20.15,20.15,0,0,0,20.15-20.15H1279A20.15,20.15,0,0,0,1299.11,150.71Z"/><path class="cls-9" d="M1301.93,148.26a18,18,0,0,1-21.45-17.64h6.94A18,18,0,0,0,1301.93,148.26Z"/><path class="cls-10" d="M1292.48,128.26s-5-7.52-7.23-7,3.93,3.87,6.15,6.67Z"/><path class="cls-11" d="M1317.92,130.56H1280.3a9.38,9.38,0,0,1,7-2.13s3.82-.4,5.87-1.94,8.2-2.16,11.56.46,7.13,1.94,9.18,2.28C1315.64,129.52,1317.26,129.76,1317.92,130.56Z"/><path class="cls-7" d="M1294.46,142.36c-2.15.89-5.19,4-10,2.15a69.21,69.21,0,0,0-9.64-2.89l0,0-.29-.06h0l1.9-5.57.17,0c1.11.25,7.59,1.66,10.59,1,3.3-.76,8.86,3.23,8.86,3.23S1296.62,141.47,1294.46,142.36Z"/><path class="cls-5" d="M1294.46,142.36c-2.15.89-5.19,4-10,2.15a69.21,69.21,0,0,0-9.64-2.89l0,0-.29-.06c-1.74-.35-3.84-.8-6.1-1.31a12.09,12.09,0,0,0,1.72-7.83c2.38,1.37,4.62,2.62,6.43,3.61,1.11.25,7.59,1.66,10.59,1,3.3-.76,8.86,3.23,8.86,3.23S1296.62,141.47,1294.46,142.36Z"/><path class="cls-12" d="M1151.3,146a5.37,5.37,0,0,0-5.15,5.53V280.34a5.36,5.36,0,0,0,5.15,5.53h190a203.42,203.42,0,0,0,27.26-28.94q5.14-6.57,10-13.73c.7-1,1.39-2,2.07-3.07,5.41-8.15,10.54-16.8,15.34-25.85q2.09-3.94,4.1-8,5.3-10.66,9.93-21.93a1.67,1.67,0,0,0,.08-.2c2.21-5.37,4.31-10.84,6.27-16.37q3.81-10.74,6.95-21.8Z"/><path class="cls-13" d="M971.05,43.92s.93-1.9,5.57-1.38,6,4.69,6.16,7.47c.17,2.24,1.93,23.5,5.41,34.27a3.53,3.53,0,0,1-3.9,4.57l-10.5-1.58Z"/><path class="cls-14" d="M969.71,44.26s4.95-1.67,7.55.8a5.23,5.23,0,0,1,1.13,5.75Z"/><path class="cls-13" d="M954.07,54s.1-10.92,17.66-9.66a8.56,8.56,0,0,1,7.06,4.59c2,3.86,2.84,10.66-3.55,21.56Z"/><path class="cls-15" d="M976.31,86.06l-4,15.47-11.43.56-5.69-8.53c5.32-4,6.07-11.11,6-15.3v-.13a25.84,25.84,0,0,0-.27-3.28l8.11-2.47,6.18-1.88A47.27,47.27,0,0,0,975,81C975.37,84.76,976.31,86.06,976.31,86.06Z"/><path class="cls-15" d="M987.86,166.07l-41.5,0s5.16-27.82,2.3-36.94.14-22.45.14-22.45C953,96.73,954,87.46,955.88,87c1-.27,1.84-.82,2.84-1a53.42,53.42,0,0,1,29.55,2.68c3.66,9.19-4.17,16.09-4.55,36.84C983.34,145.87,987.86,166.07,987.86,166.07Z"/><path class="cls-16" d="M989.49,89.3c-2-3.68-12.89-3.74-12.89-3.74-1,1.24-6.59,5.23-13.49,5.19s-3.74-4.92-3.74-4.92a4.19,4.19,0,0,0-.75.16,6.53,6.53,0,0,0-3.21,2.45c0-.91.06-1.44.06-1.44s-10.14,2.77-24.69,27.46c-.43.74-1.66.62-4.51.06-3.64-.71-11.06-.61-22.26-2.26,0,0-.39.28-.49,1.51a18.18,18.18,0,0,1-.5,3.5,138.28,138.28,0,0,0,15.22,6c2.77.88,5.67,1.7,8.44,2.32a42.9,42.9,0,0,0,7.18,1.08,48,48,0,0,0,12.56-8.06c-.55,3.93-.83,6.75-.81,7.07a77.46,77.46,0,0,1-.13,9.31s29.4,8,38.06,3.9a3.63,3.63,0,0,0,2.37-3.12c.84-16,4.6-29,5-38C991,94.32,990.67,91.49,989.49,89.3Z"/><path class="cls-17" d="M977,106.81a7.85,7.85,0,0,1,10.17,8c-.35,5.41-.79,11.72-1.27,20.91a3.63,3.63,0,0,1-2.37,3.12l-8.42-17.46L977,106.81Z"/><path class="cls-18" d="M990.1,165.23l-4-29.15a2.31,2.31,0,0,0-.51-1.15c-5-6.34-5.55-26.14-5.56-33.7a2.91,2.91,0,0,0-2.85-2.94c.12-.35,3.15-9.64,5.49-12.18l-1-.16c-.58-.09-1.61-.19-1.61-.19a50,50,0,0,0-6.24,12.54.4.4,0,0,1-.12,0,86.57,86.57,0,0,1-21.21,0h.67s3.12-9.46,5.49-12.31a28.78,28.78,0,0,0-3.15,1,40.5,40.5,0,0,0-5.64,11,2.29,2.29,0,0,0-2.1,2.11l-1.17,13.7L945,132.55c-.57,4.15-.43,25.85-.37,33a2.31,2.31,0,0,0,2.27,2.31h41A2.31,2.31,0,0,0,990.1,165.23Z"/><path class="cls-19" d="M975,81c-4.91-2.62-12.52-2.75-13.75-2.75h-.17l.17-.13,7.84-5.75,6.18-1.88A47.27,47.27,0,0,0,975,81Z"/><path class="cls-15" d="M958.17,78.48s17.43.8,17.76-10.06,2.8-18.08-8.31-19.05-13.41,3.11-14.4,6.71S953.64,78,958.17,78.48Z"/><path class="cls-13" d="M960.07,53.66s-7.77,4.67-6.94,10.68c0,0-3.57-2.17-2.88-7.81s6.34-9.21,11.12-9.21a54.72,54.72,0,0,1,8.34.61Z"/><path class="cls-13" d="M958.62,51.77c-3.09,1.64,9.7,3,10.48,8.23S976,67.21,976,67.21,983.71,38.48,958.62,51.77Z"/><path class="cls-20" d="M956.08,72.57s.13,1.11,2.82,1.26c0,0,2.26.12,2.33-1.07A7.32,7.32,0,0,0,956.08,72.57Z"/><path class="cls-16" d="M932.94,118.66s11.93,6,22.27,8.47a46.31,46.31,0,0,0,8.29,1.33s11.13-3.42,19.61-15.31c16.4-23,3.74-25.44,3.74-25.44s-11,6.83-26.42,28.59c-.54.76-1.9.59-5.42-.12-3.76-.76-11.24-.67-21.57-2.19a6.1,6.1,0,0,0-.28,1.61C932.93,118.3,932.94,118.66,932.94,118.66Z"/><path class="cls-21" d="M926.27,114.52c-3.6-.7-11.26-.75-22.27-2.35a19.4,19.4,0,0,1-2.74-1.08c-2.36-1.18-8.66-2-10-.71s1.41,6.37,7.16,6.53a38.49,38.49,0,0,1,4.63.38,137.69,137.69,0,0,0,15.18,5.94c2.77.88,5.67,1.7,8.44,2.32A20.45,20.45,0,0,0,926.27,114.52Z"/><polygon class="cls-14" points="928.91 99.88 928.77 102.97 928.49 109.44 928.36 112.42 920.15 112.42 919.97 109.44 919.57 102.97 919.37 99.88 928.91 99.88"/><polygon class="cls-22" points="929.07 97.79 919.34 97.79 918.94 99.88 929.34 99.88 929.07 97.79"/><polygon class="cls-23" points="928.77 102.97 928.49 109.44 919.97 109.44 919.57 102.97 928.77 102.97"/><polygon class="cls-14" points="914.02 99.88 913.88 102.97 913.6 109.44 913.47 112.42 905.26 112.42 905.08 109.44 904.67 102.97 904.48 99.88 914.02 99.88"/><polygon class="cls-22" points="914.18 97.79 904.45 97.79 904.05 99.88 914.45 99.88 914.18 97.79"/><polygon class="cls-23" points="913.88 102.97 913.6 109.44 905.08 109.44 904.67 102.97 913.88 102.97"/><path class="cls-24" d="M936,114.59H897a1.09,1.09,0,0,1-1.08-1.09h0a1.08,1.08,0,0,1,1.08-1.08h39a1.08,1.08,0,0,1,1.08,1.08h0A1.08,1.08,0,0,1,936,114.59Z"/><path class="cls-25" d="M955.21,127.13a12.18,12.18,0,0,1-.2-10.95c-3.76-.76-11.29-1.09-21.62-2.61v0a22.2,22.2,0,0,1-4.23-1.54c-2.53-1.26-9.25-2.1-10.67-.75s1.51,6.8,7.64,7a30.31,30.31,0,0,1,6.61.74C933.72,119.46,945.31,124.76,955.21,127.13Z"/><path class="cls-18" d="M962.23,36.48s-5.73,2.73-10,15.31l6.36,0Z"/><path class="cls-16" d="M958.62,51.77s18,.28,24.16-1.76c0,0-1.17-10.89-5.68-14.59l-14.87,1.06S957.73,47.25,958.62,51.77Z"/><rect class="cls-12" x="762.76" y="145.99" width="360.25" height="139.88" rx="5.73"/><polygon class="cls-12" points="856.6 122.3 885.31 122.3 889.9 140.82 861.52 140.82 856.6 122.3"/><polygon class="cls-12" points="864.32 128.29 876.96 128.29 881.8 146.23 868.51 146.23 864.32 128.29"/><polygon class="cls-26" points="876.96 128.29 877.81 128.29 883.13 146.23 881.69 146.23 876.96 128.29"/><polygon class="cls-26" points="885.31 122.3 885.81 122.3 890.46 140.82 889.9 140.82 885.31 122.3"/><polygon class="cls-12" points="1152.92 110.7 1195.55 110.7 1202.37 138.2 1160.22 138.2 1152.92 110.7"/><polygon class="cls-12" points="1164.39 119.6 1183.14 119.6 1190.33 146.23 1170.6 146.23 1164.39 119.6"/><polygon class="cls-26" points="1183.14 119.6 1184.41 119.6 1192.31 146.23 1190.17 146.23 1183.14 119.6"/><polygon class="cls-26" points="1195.55 110.7 1196.29 110.7 1203.19 138.2 1202.37 138.2 1195.55 110.7"/><path class="cls-25" d="M820.73,282.55c.21,2.67,4,2.44,8.3,1.91s3.11.8,9.11.84,8.05-2,8.33-2.82-2.64-1.38-5.73-2.11l-1.17-.28a15.79,15.79,0,0,1-8.82-5.7c-2.6-3.34-5-18.51-5-18.51l-9.37,1.75s5.45,13,6,17.27c.25,1.91-1.11,3.19-1.43,4.86A10.48,10.48,0,0,0,820.73,282.55Z"/><path class="cls-27" d="M829,284.69c1.7-.41,3.14.57,9.14.61s8.05-2,8.33-2.82-2.64-1.38-5.73-2.11l0,.06a16.83,16.83,0,0,1-8.79,1.64c-4-.38-8.14-2-10.92-2.31a10.48,10.48,0,0,0-.26,2.79C820.94,285.22,823.92,285.94,829,284.69Z"/><path class="cls-27" d="M829.11,266.81a15.42,15.42,0,0,1-4.77,2c-3.46.63-5.06-.07-5.06-.07s-16.65-41.79-15.7-55.91c0-.34,0-.7,0-1.09a58.72,58.72,0,0,0-.93-9.47c-.23-1.38-.48-2.82-.77-4.31-.67-3.49-1.5-7.24-2.4-11.07-.4-1.69-.82-3.39-1.24-5.09-4.19-16.71-9.3-33.18-9.3-33.18s30-9.81,31.74-.64c.65,3.52,2.82,17.6,1.84,39.14a310,310,0,0,0,1.22,46.54A256.47,256.47,0,0,0,829.11,266.81Z"/><path class="cls-28" d="M803.62,211.78a58.72,58.72,0,0,0-.93-9.47c-.23-1.38-.48-2.82-.77-4.31-.67-3.49-1.5-7.24-2.4-11.07-.4-1.69-.82-3.39-1.24-5.09.59-5.1,1.07-8.6,1.07-8.6A42.75,42.75,0,0,1,803.62,211.78Z"/><path class="cls-25" d="M782.83,282.55c.22,2.67,4,2.67,8.27,2.14s3.15.57,9.14.61,8-2,8.34-2.82-2.64-1.38-5.74-2.11l-1.17-.28c-3.49-.86-5.81-3.45-8.81-5.7-2.84-2.14-.85-12.5-.85-12.5l-8.81-3.14s1.33,10.42,1.33,16.15c0,1.93-1.11,3.19-1.43,4.86A10.92,10.92,0,0,0,782.83,282.55Z"/><path class="cls-27" d="M791.1,284.69c1-.23,3.15.57,9.14.61s8-2,8.34-2.82-2.64-1.38-5.74-2.11l0,.06a16.83,16.83,0,0,1-8.79,1.64c-4-.38-8.14-2-10.92-2.31a10.92,10.92,0,0,0-.27,2.79C783.05,285.22,785.61,286,791.1,284.69Z"/><path class="cls-27" d="M807.07,145.39s-9.77,48.71-11.42,75.22-3.71,48.45-3.71,48.45a12.9,12.9,0,0,1-4.58.63,16.94,16.94,0,0,1-4.63-.94s-9.69-39.89-6.48-55.85.53-30.69-1-43.93c-2.2-19,6.29-27.81,12.22-33.83S807.07,145.39,807.07,145.39Z"/><path class="cls-13" d="M814,56.19c1-7.93-1.51-20.62-17.33-18.59S775.85,55.18,779,62.09s-4.59,8.59-7,16c-2.11,6.39-2.84,14.33-6.23,17.89-11,11.47,10.51,29.12,23.46,25.4,23.58-6.78,26.62-7.79,25.78-26.32-.43-9.49-7.81-13.17-3.12-15.91C823.22,72.53,811.8,74.13,814,56.19Z"/><path class="cls-21" d="M810.52,76.7a42.69,42.69,0,0,0-5.32-.89,22.31,22.31,0,0,1-.71-9.57l-11.78-3.59c-.56,12.52-1.69,14.08-1.92,14.28a52.2,52.2,0,0,0-7.8,2.51s7.52,43,4.29,51.21a86.87,86.87,0,0,0-4.46,15.5l35,.43s-.49-28.17,1.13-38.14S810.52,76.7,810.52,76.7Z"/><path class="cls-25" d="M807.56,67s-14.09,2.83-15.72-6-4.54-14.37,4.39-16.55,11.3.86,12.56,3.66S811.19,66.07,807.56,67Z"/><path class="cls-29" d="M868.7,105.64c-.1-1.23-.49-1.51-.49-1.51-11.2,1.65-18.62,1.55-22.26,2.26-2.85.56-4,.64-4.51,0C826,84.58,815,77.75,815,77.75s-1.16-.7-5.73-1.33c0,0-.66,8.27-4.91,9-7.35,1.21-13.28-5.53-15-8.24,0,0-8.44,2.13-10.92,5-1.78,2-1.55,6.89-1,9.94a13.83,13.83,0,0,0,.53,2.21c.53,1.39,2.51,11.53,3.41,15.57,0,.1,0,.2.06.28.06.27.12.51.17.71h0c0,.22.1.39.13.5a1.46,1.46,0,0,0,.07.19v0a33.39,33.39,0,0,1,1.62,13.57,13.84,13.84,0,0,1-.4,2.18c-1.17,6-6.06,17.92-7.08,23.38a7.18,7.18,0,0,0,3.52,3,33,33,0,0,0,6.75,2.16,65.36,65.36,0,0,0,6.88,1.1c1.5.17,3.1.31,4.74.4l.69,0c10.55.53,22.37.27,23.91-4.75.74-2.41-2.2-16.88-2.6-21.18-.68-7.56.44-17.91.94-25.92,8.66,9.55,17.6,13,17.6,13a42.9,42.9,0,0,0,7.18-1.08c2.77-.62,5.67-1.44,8.45-2.32a139.25,139.25,0,0,0,15.22-6A18.48,18.48,0,0,1,868.7,105.64Z"/><path class="cls-13" d="M800.67,42.31s.25,3-4.38,8.06-3.54,14.1-3.54,14.1-7.81-14.69-3.64-19.38S800.67,42.31,800.67,42.31Z"/><path class="cls-13" d="M795,38.42s7-2.34,14,4.51c3,3,2.54,8.76.94,12.13,0,0-2.47-7.22-6.95-8.79S795,38.42,795,38.42Z"/><path class="cls-20" d="M803.17,62.7s.38,1,3,.57c0,0,2.23-.39,2-1.57A7.28,7.28,0,0,0,803.17,62.7Z"/><path class="cls-30" d="M806,141.2c-2,6.78-3.16,12.36-8.18,16.13-1.64-.09-3.24-.23-4.74-.4a65.36,65.36,0,0,1-6.88-1.1,33,33,0,0,1-6.75-2.16,7.18,7.18,0,0,1-3.52-3c1-5.46,5.91-17.35,7.08-23.38a14.24,14.24,0,0,0,.24-1.58,39.51,39.51,0,0,0-1.46-14.17v0c-.07-.23-.13-.45-.2-.69h0c-.05-.15-.1-.39-.17-.71,0-.08,0-.18-.06-.28-.81-3.83-2.92-15.83-3.45-17.4a16,16,0,0,1-.53-2.39L781.6,86s24.2,10.33,29.53,24.59S808.87,131.47,806,141.2Z"/><path class="cls-30" d="M854,115.1c-5.36,1.7-11.19,3.19-15.63,3.4,0,0-9.06-3.48-17.77-13.17-.37-1.64-.72-4.41,1.27-3.61,2.8,1.12,13.15,14.4,17.06,14.68C841.72,116.6,849.69,115.66,854,115.1Z"/><path class="cls-29" d="M834.87,111.32s-11.93,6-22.27,8.47a46,46,0,0,1-8.29,1.33s-11.12-3.42-19.61-15.31c-16.39-23-3.74-25.44-3.74-25.44s11,6.83,26.43,28.59c.54.76,1.9.59,5.42-.12,3.76-.76,11.24-.67,21.57-2.19a5.81,5.81,0,0,1,.27,1.61C834.89,111,834.87,111.32,834.87,111.32Z"/><path class="cls-21" d="M881,102.25c-1.34-1.26-7.64-.47-10,.71a19.3,19.3,0,0,1-2.73,1.08c-11,1.6-18.68,1.65-22.28,2.35a20.46,20.46,0,0,0-.41,11c2.77-.62,5.67-1.44,8.45-2.32a137.13,137.13,0,0,0,15.17-5.94,38.49,38.49,0,0,1,4.63-.38C879.54,108.62,882.29,103.51,881,102.25Z"/><path class="cls-25" d="M849.33,104c-1.43-1.34-8.15-.5-10.67.76a23.17,23.17,0,0,1-4.23,1.54v0c-10.33,1.52-17.86,1.85-21.62,2.61a12.19,12.19,0,0,1-.21,11c9.9-2.37,21.5-7.68,22.48-8.12a30.22,30.22,0,0,1,6.61-.74C847.82,110.76,850.76,105.3,849.33,104Z"/><path class="cls-18" d="M22.76,198.1h0a1.53,1.53,0,0,1-1.59-1.45C22.06,140.6.38,97.51.17,97.08c-.37-.72-.3-2.32,2-2.52,2.05-.18,3.31.27,3.68,1a223.48,223.48,0,0,1,10.26,28.19c4.95,16.44,8.71,43.35,8.23,73A1.53,1.53,0,0,1,22.76,198.1Z"/><path class="cls-18" d="M71.1,198.1h0a1.53,1.53,0,0,1-1.58-1.45c.9-56.05-20.77-99.14-21-99.57-.37-.72-.3-2.32,2-2.52,2-.18,3.31.27,3.67,1,.06.11,4.89,10.37,10.26,28.19,5,16.44,8.71,43.35,8.23,73A1.53,1.53,0,0,1,71.1,198.1Z"/><path class="cls-18" d="M8.45,114.29a1.56,1.56,0,0,1-1.58-1.18,1.45,1.45,0,0,1,1.31-1.65c1.39-.21,34.27-5.12,49-1a1.39,1.39,0,0,1,1.05,1.78,1.65,1.65,0,0,1-2,.94c-14-3.89-47.14,1.06-47.48,1.11A1.23,1.23,0,0,1,8.45,114.29Z"/><path class="cls-18" d="M12.21,123.73a1.56,1.56,0,0,1-1.58-1.18,1.45,1.45,0,0,1,1.31-1.65c1.39-.21,34.26-5.12,49-1a1.39,1.39,0,0,1,1,1.78,1.67,1.67,0,0,1-2,.94c-14-3.89-47.14,1.06-47.47,1.11Z"/><path class="cls-18" d="M20.83,198.1h99.06s-2.31-9.57-59.68-8.15C19.62,191,20.83,198.1,20.83,198.1Z"/><path class="cls-31" d="M12.77,284c11.49-51.11,8.53-82.48,8.52-82.88,0-.79,1.62-1.5,2.51-1.53s4.86-.23,5.32.45c.6.88,2.91,39.53-14.21,84Z"/><path class="cls-31" d="M96.86,284c-11.49-51.11-8.53-82.48-8.52-82.88,0-.79-1.62-1.5-2.51-1.53s-4.86-.23-5.32.45c-.6.88-2.91,39.53,14.21,84Z"/><path class="cls-32" d="M123.58,284c-11.48-51.11-8.53-82.48-8.51-82.88,0-.79-1.62-1.5-2.51-1.53s-4.86-.23-5.32.45c-.6.88-2.92,39.53,14.2,84Z"/><path class="cls-32" d="M41.85,284c11.48-51.11,8.53-82.48,8.52-82.88,0-.79,1.62-1.5,2.51-1.53s4.86-.23,5.32.45c.6.88,2.91,39.53-14.21,84Z"/><path class="cls-31" d="M120.45,201.15H20.39a1.54,1.54,0,0,1-1.53-1.53h0a1.53,1.53,0,0,1,1.53-1.52H120.45a1.52,1.52,0,0,1,1.52,1.52h0A1.53,1.53,0,0,1,120.45,201.15Z"/><path class="cls-18" d="M455.24,211h0a1.29,1.29,0,0,1-1.35-1.23c.77-47.64-17.65-84.27-17.84-84.64-.31-.61-.25-2,1.73-2.14,1.74-.15,2.81.23,3.13.84a191,191,0,0,1,8.72,24c4.21,14,7.4,36.84,7,62A1.3,1.3,0,0,1,455.24,211Z"/><path class="cls-18" d="M496.32,211h0a1.29,1.29,0,0,1-1.34-1.23c.77-47.64-17.66-84.27-17.84-84.64-.32-.61-.26-2,1.73-2.14,1.73-.15,2.81.23,3.12.84a187.16,187.16,0,0,1,8.72,24c4.21,14,7.41,36.84,7,62A1.3,1.3,0,0,1,496.32,211Z"/><path class="cls-18" d="M443.07,139.74a1.32,1.32,0,0,1-1.34-1,1.23,1.23,0,0,1,1.11-1.4c1.19-.18,29.13-4.35,41.64-.87a1.19,1.19,0,0,1,.89,1.52,1.4,1.4,0,0,1-1.71.79c-11.88-3.31-40.07.9-40.36.95Z"/><path class="cls-18" d="M446.27,147.77a1.33,1.33,0,0,1-1.35-1,1.23,1.23,0,0,1,1.12-1.4c1.18-.18,29.12-4.35,41.63-.87a1.2,1.2,0,0,1,.9,1.52,1.4,1.4,0,0,1-1.72.79c-11.88-3.3-40.07.91-40.35.95Z"/><path class="cls-18" d="M453.6,211h84.2s-2-8.13-50.73-6.92C452.56,204.92,453.6,211,453.6,211Z"/><path class="cls-31" d="M446.74,284c9.77-43.45,7.26-70.11,7.24-70.45,0-.67,1.38-1.28,2.14-1.3s4.13-.2,4.52.38c.51.75,2.48,33.6-12.07,71.37Z"/><path class="cls-31" d="M518.22,284c-9.76-43.45-7.25-70.11-7.24-70.45,0-.67-1.37-1.28-2.13-1.3s-4.13-.2-4.52.38c-.51.75-2.48,33.6,12.07,71.37Z"/><path class="cls-32" d="M540.94,284c-9.76-43.45-7.25-70.11-7.24-70.45,0-.67-1.38-1.28-2.13-1.3s-4.13-.2-4.52.38c-.52.75-2.48,33.6,12.07,71.37Z"/><path class="cls-32" d="M471.46,284c9.77-43.45,7.26-70.11,7.24-70.45,0-.67,1.38-1.28,2.14-1.3s4.13-.2,4.52.38c.51.75,2.48,33.6-12.07,71.37Z"/><path class="cls-31" d="M538.27,213.58h-85a1.3,1.3,0,0,1-1.3-1.3h0a1.31,1.31,0,0,1,1.3-1.3h85a1.3,1.3,0,0,1,1.3,1.3h0A1.3,1.3,0,0,1,538.27,213.58Z"/><path class="cls-18" d="M410.85,198.49h0a1.51,1.51,0,0,0,1.58-1.45c-.9-56,20.77-99.14,21-99.57.37-.72.3-2.32-2-2.52-2.05-.18-3.31.27-3.68,1-.06.11-4.89,10.37-10.26,28.19-5,16.44-8.71,43.35-8.23,73A1.53,1.53,0,0,0,410.85,198.49Z"/><path class="cls-18" d="M362.51,198.49h0a1.52,1.52,0,0,0,1.58-1.45c-.9-56,20.77-99.14,21-99.57.37-.72.3-2.32-2-2.52-2-.18-3.31.27-3.67,1-.06.11-4.89,10.37-10.26,28.19-4.95,16.44-8.71,43.35-8.23,73A1.53,1.53,0,0,0,362.51,198.49Z"/><path class="cls-18" d="M425.16,114.68a1.56,1.56,0,0,0,1.58-1.18,1.45,1.45,0,0,0-1.31-1.65c-1.4-.21-34.27-5.12-49-1a1.39,1.39,0,0,0-1.05,1.78,1.64,1.64,0,0,0,2,.94c14-3.89,47.14,1.06,47.47,1.11A1.37,1.37,0,0,0,425.16,114.68Z"/><path class="cls-18" d="M421.4,124.12a1.56,1.56,0,0,0,1.58-1.18,1.45,1.45,0,0,0-1.31-1.65c-1.39-.21-34.26-5.12-49-1a1.39,1.39,0,0,0-1.05,1.78,1.66,1.66,0,0,0,2,.94c14-3.89,47.13,1.06,47.47,1.11A1.23,1.23,0,0,0,421.4,124.12Z"/><path class="cls-18" d="M412.78,198.49H313.72s2.31-9.57,59.68-8.15C414,191.35,412.78,198.49,412.78,198.49Z"/><path class="cls-31" d="M420.84,284.43c-11.49-51.12-8.53-82.49-8.52-82.89,0-.78-1.62-1.5-2.51-1.53s-4.86-.23-5.32.45c-.6.88-2.91,39.53,14.21,84Z"/><path class="cls-31" d="M336.75,284.43c11.48-51.12,8.53-82.49,8.52-82.89,0-.78,1.62-1.5,2.5-1.53s4.87-.23,5.33.45c.6.88,2.91,39.53-14.21,84Z"/><path class="cls-32" d="M310,284.43c11.48-51.12,8.53-82.49,8.51-82.89,0-.78,1.62-1.5,2.51-1.53s4.86-.23,5.32.45c.6.88,2.92,39.53-14.2,84Z"/><path class="cls-32" d="M391.76,284.43c-11.49-51.12-8.53-82.49-8.52-82.89,0-.78-1.62-1.5-2.51-1.53s-4.86-.23-5.32.45c-.6.88-2.91,39.53,14.21,84Z"/><path class="cls-31" d="M313.16,201.54H413.22a1.53,1.53,0,0,0,1.53-1.53h0a1.53,1.53,0,0,0-1.53-1.52H313.16a1.53,1.53,0,0,0-1.52,1.52h0A1.52,1.52,0,0,0,313.16,201.54Z"/><path class="cls-15" d="M145.38,127.19s5.79-3.61,8.3-3.06,9.4,2.51,9.62,5.35-9.83,7.32-17.26,4.81S145.38,127.19,145.38,127.19Z"/><path class="cls-33" d="M114.68,278.31a3,3,0,0,0,1.69,2.73h0c2,1.08,5.11.25,8.88.09.48,0,1.22.91,1.61.91h.53c3.73.09,3.33,1.21,10.41,1.81,8.07.69,11-1.77,11.51-2.9.4-.95-3.06-2-6.93-3.27l-.56-.18-1.55-.5c-4.6-1.53-9.13-3.35-10.26-8-1.2-4.94,2.4-18.73,2.4-18.73l-12.78-1.38s-1.23,14.42-2,18.91c-.44,2.4-1.53,4.31-2.16,6.36,0,.14-.09.29-.13.43A14.16,14.16,0,0,0,114.68,278.31Z"/><path class="cls-34" d="M149.33,281c-.25.6-.78,2.36-4.17,3.07H132.33l-.11,0A24.56,24.56,0,0,0,122,281.85a30.47,30.47,0,0,1-3.67-.16h0a4.61,4.61,0,0,1-1.66-.51h0l-.22-.13h0l-.18-.11h0a2.75,2.75,0,0,1-.33-.23l-.16-.12a1.85,1.85,0,0,0-.14-.14l-.1-.1a1.63,1.63,0,0,1-.17-.2h0l-.09-.12-.09-.14h0v0a.67.67,0,0,1-.06-.12h0l0-.09a.61.61,0,0,1,0-.12,1.34,1.34,0,0,1-.07-.18.88.88,0,0,1,0-.15,1.42,1.42,0,0,1,0-.2.45.45,0,0,1,0-.16s0-.08,0-.11,0-.11,0-.17a1.69,1.69,0,0,1,0-.23v-.22c0-.07,0-.13,0-.2s0-.14,0-.21,0-.14,0-.21l0-.3v-.06l0-.19c0-.09,0-.18,0-.28l.09-.48a1.46,1.46,0,0,0,0-.2c0-.16.07-.31.11-.46l.06-.23.12-.45.06-.23c0-.14.08-.29.13-.43,3.84.89,9.19,3.57,14.57,4.58l.25.05a23.67,23.67,0,0,0,7.65,0,22.41,22.41,0,0,0,4.48-1.15C146.27,278.93,149.73,280,149.33,281Z"/><polygon class="cls-34" points="121.95 284.03 121.95 283.09 121.95 282.36 121.95 281.85 121.95 281.47 121.71 281.43 115.97 280.52 116.18 280.93 116.18 280.93 116.19 280.93 116.33 281.19 116.75 281.99 116.75 281.99 117.84 284.03 121.95 284.03"/><path class="cls-35" d="M48.64,155.38,90,151.44s63.32.28,69.22,8.64c0,0,11.31,7.84-1.47,40.24S130,265.09,130,265.09a29.5,29.5,0,0,1-9.07.64,36.42,36.42,0,0,1-4.86-.88s2.88-48.34,9.28-67.15,8.35-15.15-3-14.1S74.69,193,58,190.91,48.64,155.38,48.64,155.38Z"/><path class="cls-15" d="M106.7,278.31a3,3,0,0,0,1.7,2.73h0c2,1.08,5.12.25,8.88.09.48,0,1.23.91,1.62.91h.53c3.72.09,3.33,1.21,10.41,1.81,8.06.69,11-1.77,11.51-2.9.4-.95-3.06-2-6.93-3.27l-.56-.18-1.55-.5c-4.6-1.53-9.14-3.35-10.27-8-1.2-4.94,2.41-18.73,2.41-18.73l-12.78-1.38s-1.24,14.42-2,18.91c-.43,2.4-1.52,4.31-2.16,6.36l-.12.43A14.18,14.18,0,0,0,106.7,278.31Z"/><path class="cls-14" d="M42.86,158.32,81.66,155s63.33.28,69.23,8.38c0,0,9.57,6-3.21,37.36S122,266.68,122,266.68a32.36,32.36,0,0,1-6.34.12c-4.36-.36-5.82-1.77-5.82-1.77s.91-42.94,7.3-61.15,8.85-16.37-2.46-15.35-43.1,8.94-65,4.74C33.08,190.1,42.86,158.32,42.86,158.32Z"/><path class="cls-27" d="M141.39,280.81a.4.4,0,0,1,0,.15c-.24.56-.71,2.11-3.49,2.91l-.68.16H124.36a25.82,25.82,0,0,0-2.41-.94,23.59,23.59,0,0,0-5.2-1.1h0c-1-.1-1.93-.13-2.78-.14-2.4,0-4.22.06-5.56-.8h0a1.18,1.18,0,0,1-.19-.11h0l-.34-.23-.15-.12-.15-.14-.1-.1-.1-.11-.09-.12,0-.07a1,1,0,0,1-.09-.13.75.75,0,0,1-.07-.12,2.12,2.12,0,0,1-.11-.21h0a1.47,1.47,0,0,1-.06-.14s0-.07,0-.11h0v0a.65.65,0,0,1,0-.13.75.75,0,0,1,0-.16l0-.16s0-.07,0-.11h0c0-.06,0-.11,0-.17s0-.15,0-.23a14.25,14.25,0,0,1,.66-3.72,3.52,3.52,0,0,1,.13-.43c2.08.49,4.61,1.5,7.35,2.48a47.19,47.19,0,0,0,7.22,2.1,23.38,23.38,0,0,0,8.22.05,21.7,21.7,0,0,0,4.15-1.1c1.25.4,2.46.78,3.5,1.15l.59.21.52.2.48.19.22.1.22.09.38.19a1,1,0,0,1,.17.1l.31.18.2.14.11.11.06.06a.71.71,0,0,1,.17.24.64.64,0,0,0,0,.07h0A.28.28,0,0,1,141.39,280.81Z"/><polygon class="cls-27" points="113.97 281.47 113.97 284.03 109.87 284.03 108.21 280.93 108.21 280.93 108.2 280.93 107.99 280.52 113.74 281.43 113.97 281.47"/><path class="cls-18" d="M148.21,134.67a4.62,4.62,0,0,1-.31,1c-1.64,3.6-35.73,8.19-40,5.9-1.9-1-4.67-18.22-7.15-36.91-3.06-23.1-5.68-48.51-5.68-48.51s14.14,4.47,15.78,12,2,54.08,6.23,56.37,22.29.33,28.51,1.31C145.6,125.87,148.86,131,148.21,134.67Z"/><path class="cls-13" d="M96,2.64C93.36.51,89.51.77,87,.92A4.15,4.15,0,0,1,88.93,0c-1.54-.22-5,1.3-5,1.3S71-5.33,65,11.71c0,0,1-1.28,2.46-2.74-3.48,9.8,0,24.63,11,27.27C85.53,38,123.15,24.44,96,2.64Z"/><path class="cls-15" d="M96.09,60c.07,0-6.86,3.63-12.07,2.2-4.91-1.34-8.11-7.7-8-7.71,2.08-.41,2.68-3.27,2.64-15.53l.93.18,15.79,3.13s-.36,5-.37,9.65C95,55.8,95.19,59.53,96.09,60Z"/><path class="cls-19" d="M95.33,42.22s-.36,5-.37,9.65c-8.83-.25-13.5-8.31-15.42-12.78Z"/><path class="cls-13" d="M77.91,37.37s-4.63-7.31-5.74-13.57c-.79-4.47,1.48-21,18.12-18.64a22.61,22.61,0,0,1,9.37,3.55c3.62,2.44,8.83,7.7,3,22.15l-1.51,4.88Z"/><path class="cls-15" d="M98.28,46.65S77.38,47,77.37,34,74.64,12.23,88,11.46s15.94,4.19,17,8.54S103.72,46.23,98.28,46.65Z"/><path class="cls-13" d="M97.51,11.14S91.79,26.41,83,28.67s-12.59-.09-12.59-.09a24.87,24.87,0,0,0,8.14-14.7S93.19,3.87,97.51,11.14Z"/><path class="cls-31" d="M103.4,75.48c-.37-1.48,2.76-2.6,3.53-1.28,1.43,2.48,1.72,5.6,2.29,8.09,1.64,7.1,0,16.82,0,16.82Z"/><path class="cls-13" d="M96.09,12.38s4.28,3.41,5.32,6.72,1.51,10.15,3.5,9.91c0,0,4.31-10.38-.54-16.25C99.24,6.53,96.09,12.38,96.09,12.38Z"/><path class="cls-20" d="M93.64,38.76s.39,1.65,4.5,1.4c0,0,3.46-.22,3.35-2A11.11,11.11,0,0,0,93.64,38.76Z"/><path class="cls-31" d="M148.21,134.67a4.62,4.62,0,0,1-.31,1c-1.64,3.6-35.73,8.19-40,5.9-1.9-1-5.24-22.4-2.84-41.52,2.58,10.94,3.36,33.36,9.4,34.41C121.31,135.7,139.27,133.42,148.21,134.67Z"/><path class="cls-18" d="M110.5,100c-8.47,40.85-1.38,47.12-5.79,51.13,0,0-3.9,1.7-3.93,1.72-4.59,4-4.7-.84-19.12,5.41-6.87,3-15.68,6.92-23.37,9.26a49.21,49.21,0,0,1-8,1.81c-4.63.54-8.09-.27-9.22-3.4-3.28-9.09,12.45-33.24,8.52-49.73l-.09-.42a17.82,17.82,0,0,1-.19-4.92c.73-9.19,6.54-22.56,12.56-34C68.46,64.28,75.35,54.07,76,54.44c17.52,10.4,19.11,1.75,19.11,1.75S113.39,86.06,110.5,100Z"/><path class="cls-31" d="M102.18,152.26s0,0,0,0c-4.59,4-6.1-.27-20.52,6-6.87,3-15.68,6.92-23.37,9.26a47.23,47.23,0,0,0-8,1.81c-4.63.54-8.09-.27-9.22-3.4-3.28-9.09,12.45-33.24,8.52-49.73l-.09-.42a15,15,0,0,1-.19-4.92c.83-7,6-14.56,11.78-25.6,3.9,4.11,33.14-.66,26.22,40C85.14,137.68,100.36,142.59,102.18,152.26Z"/><path class="cls-36" d="M151.71,133.93h0a6.86,6.86,0,0,0,12-4.53v-2.67a8.11,8.11,0,0,0,0-.86H150.05a47.49,47.49,0,0,0,.3,5.08A6.33,6.33,0,0,0,151.71,133.93Z"/><path class="cls-37" d="M162.56,125.87h-1.84a8.11,8.11,0,0,1,.05.86v2.67a6.9,6.9,0,0,1-5.94,6.81,7,7,0,0,0,.92.06,6.89,6.89,0,0,0,6.87-6.87v-2.67A6.11,6.11,0,0,0,162.56,125.87Z"/><rect class="cls-36" x="154.06" y="135.67" width="5.61" height="0.84" transform="translate(313.74 272.19) rotate(180)"/><path class="cls-15" d="M100.75,154.33s6.45-1.53,9.4-.32,8.85,4.26,8.3,5.89-7.54,2.52-10.48.88-5.14.44-8.74-.77S100.75,154.33,100.75,154.33Z"/><path class="cls-18" d="M76,54.44s-23.77.32-28,11.79S45,118,51.22,130.14s41.62,28.51,45.55,29.16,6.39-5.4,6.23-6.06S65.8,122.6,66,119.48,76,54.44,76,54.44Z"/><path class="cls-38" d="M255.46,102s-6.07-7.35-7.38-8.22-7-2.4-7.37-2.09-.34.75.37,1.38,3.42,2.21,3,2.39-8.57-3.9-9.75-2.53.66,7,3.82,9.74,12.57,3.87,13.16,4.25C256.37,110.17,255.46,102,255.46,102Z"/><path class="cls-15" d="M312.39,278.54a2.88,2.88,0,0,1-1.7,2.65h0c-2,1.05-5.43,1.16-9.19,1l-1.3,0h-.54c-3.72.09-3.33,1.17-10.4,1.76-8.07.67-11-1.72-11.52-2.81-.4-.93,3.06-2,6.93-3.17l.57-.18,1.54-.48c4.61-1.48,9.14-3.24,10.27-7.76,1.2-4.78-2.41-18.15-2.41-18.15L307.42,250s1.23,14,2,18.32c.43,2.32,1.52,4.17,2.16,6.16,0,.14.09.28.13.42A13.69,13.69,0,0,1,312.39,278.54Z"/><path class="cls-14" d="M312.39,278.54a2.88,2.88,0,0,1-1.7,2.65h0c-2.1.94-5.5,1.08-9.19,1-.48,0-.91,0-1.3,0h-.54c-3.72.09-3.33,1.17-10.4,1.76-8.07.67-11-1.72-11.52-2.81-.4-.93,3.06-2,6.93-3.17A24.78,24.78,0,0,0,297,279c5.38-1,10.72-3.57,14.57-4.44,0,.14.09.28.13.42A13.69,13.69,0,0,1,312.39,278.54Z"/><path class="cls-15" d="M229.45,263.14c-.71,3.55-5.77,3-11.42,1.58s-4.31.26-12.36-.63-10.48-3.89-10.73-5.08,3.76-1.44,8-1.93l1.62-.2c4.81-.6,8.34-3.71,12.71-6.26,4.14-2.41,10.32-12.26,10.32-12.26l11,.87s-5.79,8.8-8,12.62c-1.32,2.25-1.25,5.22-1.09,7.52A14,14,0,0,1,229.45,263.14Z"/><path class="cls-14" d="M218,264.72c-5.66-1.38-4.31.26-12.36-.63s-10.48-3.89-10.73-5.08,3.76-1.44,8-1.93l0,.08a22.72,22.72,0,0,0,11.53,3.58c5.45.13,11.24-1.43,15-1.37a14,14,0,0,1-.08,3.77C228.74,266.69,223.68,266.1,218,264.72Z"/><path class="cls-27" d="M271.73,192.59l23.78,64a21.84,21.84,0,0,0,7.16-.66,31,31,0,0,0,6.91-3.36s-5.89-61.45-16.71-74.23S271.73,192.59,271.73,192.59Z"/><path class="cls-39" d="M365.79,166.7s-68.33-23.1-83.57-18.18-61,95.94-61,95.94a8.74,8.74,0,0,0,3.85,2.43c2.62,1,9,.92,9,.92s41.29-35.39,46.2-45.71,6.89-20.16,11.8-19.17,63.41,24.08,76.69,10.32,9.8-31.65,9.8-31.65Z"/><path class="cls-35" d="M324,59.22c-1.09-2.25-2.31-6.25-2.91-13.39.1.71,1.32,9.71,4.78,14.8C340.11,70,367.35,101.11,366.81,107c0,0,9.6-16.28,9.76-16.37,0,0,17.7-22.51-3.28-35.4-10.66-6.55-10.6-15-10.16-22.26s-2.9-38.75-24.26-30.52c0,0-3.42-1.52-5-1.3a4.19,4.19,0,0,1,1.89.9,16.65,16.65,0,0,0-9,1.72C319,8.24,312,48.15,324,59.22Z"/><path class="cls-15" d="M326.75,61.1c-.08,0,6.86,3.63,12.07,2.2,4.91-1.34,8.11-7.7,8-7.71-2.07-.41-2.67-3.27-2.63-15.53l-.94.18L327.5,43.37s.36,5,.37,9.65C327.88,57,327.65,60.68,326.75,61.1Z"/><path class="cls-19" d="M327.5,43.37s.36,5,.37,9.65c8.84-.25,13.51-8.31,15.42-12.78Z"/><path class="cls-35" d="M344.92,38.52s4.63-7.31,5.74-13.57c.8-4.46-1.48-21-18.11-18.64a22.68,22.68,0,0,0-9.38,3.55c-3.61,2.44-8.82,7.7-3,22.15l1.51,4.88Z"/><path class="cls-15" d="M324.55,47.8s20.91.35,20.92-12.68,2.72-21.74-10.62-22.51-16,4.19-17,8.54S319.12,47.38,324.55,47.8Z"/><path class="cls-35" d="M325.33,12.29s5.72,15.27,14.5,17.53,12.6-.09,12.6-.09A24.87,24.87,0,0,1,344.29,15S329.64,5,325.33,12.29Z"/><path class="cls-35" d="M326.74,13.53s-4.27,3.41-5.31,6.72-1.51,10.15-3.5,9.91c0,0-4.31-10.38.53-16.25C323.6,7.68,326.74,13.53,326.74,13.53Z"/><path class="cls-40" d="M373.29,117.33c2.07-8.64-5-25.42-12.27-39.31-6.64-12.59-13.54-22.8-14.16-22.43-17.52,10.4-19.1,1.75-19.1,1.75s-15.91,2.12-20.42,9.87c-6.23,10.73-13,42.92-19.69,42.45-3.06-.22-33.87-11.8-33.87-11.8s-5.13,4.81-4.15,10.7a320.9,320.9,0,0,0,28.08,16.69c6.8,3.44,13,5.84,15.84,5.16,5.86-1.38,15-15,20-23l0,0c6.31,35.73-2.27,43.87,2.07,47.63,4.59,4,11.15-1.89,25.57,4.36,9.46,4.1,22.58,10,31.42,11.07,4.63.54,8.09-.27,9.22-3.4C385.09,158,369.36,133.82,373.29,117.33Z"/><path class="cls-20" d="M329.2,39.91s-.39,1.65-4.51,1.4c0,0-3.45-.22-3.34-2A11.07,11.07,0,0,1,329.2,39.91Z"/><path class="cls-41" d="M381.82,167.06c-1.13,3.13-4.59,3.94-9.22,3.4-6.12-2.67-32.54-12.9-32.24-19.84.44-10.27,5.08-10.59,1.8-23.27-2.63-10.17,21.78-29.09,25.67-33.21,7.32,13.89,7.53,14.55,5.46,23.19C369.36,133.82,385.09,158,381.82,167.06Z"/><path class="cls-41" d="M313.51,107.45c-4.95,8-14.1,21.58-20,23-2.89.68-9-1.72-15.84-5.16a41.18,41.18,0,0,0,14.47.79c5.08-.49,6.56-6.72,14.58-16.06C312,103.93,313.25,105.45,313.51,107.45Z"/><path class="cls-36" d="M330.51,126.35a4.52,4.52,0,0,0-2.81,0V125a8.11,8.11,0,0,0-.05-.86H314a6.11,6.11,0,0,0-.06.86v2.68a6.87,6.87,0,0,0,12,4.53h0s3.25-.8,4.26-2S331.59,127,330.51,126.35Zm-.72,2.47c-.34.89-1.89,1.37-2.65,1.56a7.19,7.19,0,0,0,.55-2.27,2,2,0,0,1,1.76-.92C329.93,127.28,330.23,127.7,329.79,128.82Z"/><path class="cls-37" d="M315.08,125v2.68a6.89,6.89,0,0,0,6.87,6.87,5.62,5.62,0,0,0,.92-.07,6.89,6.89,0,0,1-5.94-6.8V125a8.11,8.11,0,0,1,.05-.86h-1.85A8.11,8.11,0,0,0,315.08,125Z"/><rect class="cls-36" x="318.02" y="133.93" width="5.61" height="0.84"/><path class="cls-15" d="M338,127.11s-4.42-3.44-8.6-2.62-6.23,3.68-6.06,5,2.37,5,5.57,5.33,12.29-2,12.29-2Z"/><path class="cls-40" d="M346.86,55.59s17,1,22.94,9.28c8.3,11.58,22.72,58.85,18.79,69.67,0,0-16.17,1.7-27.73,1.7-6,0-24.11-1.92-24.11-1.92s-1.25-5.87.49-8.72,30.16-7.42,31.47-8.73-16.39-25.57-16.39-29.5S346.86,55.59,346.86,55.59Z"/><path class="cls-42" d="M339,138.88H107.17a4.5,4.5,0,0,0-4.49,4.5v5.86a4.5,4.5,0,0,0,4.49,4.49h112V267.29c-19.7.79-36.48,7.55-43.32,16.74H270c-6.8-9.22-23.32-15.94-43-16.74V153.73H339a4.5,4.5,0,0,0,4.49-4.49v-5.86A4.5,4.5,0,0,0,339,138.88Z"/><path class="cls-42" d="M678.88,157.15H524a3.45,3.45,0,0,0-3.45,3.44v6.1a3.45,3.45,0,0,0,3.45,3.44h74V269.4c-17.19.68-31.62,6.52-37.6,14.56l82,.07c-5.94-8.06-20.38-13.94-37.61-14.63V170.13h74a3.45,3.45,0,0,0,3.44-3.44v-6.1A3.45,3.45,0,0,0,678.88,157.15Z"/><path class="cls-43" d="M572.61,264.59s9.21,9.21,11.5,11.47S595,277.32,597.32,284H574a25.82,25.82,0,0,0-14.79-4s-1.71-6.37,0-8.83a18.64,18.64,0,0,0,2.35-6.54Z"/><path class="cls-43" d="M559.17,280l1.18,4h8.25v-3.4A22.88,22.88,0,0,0,559.17,280Z"/><path class="cls-44" d="M558.41,196.56s-.43,43.67,3.11,68h11.09l7.82-46Z"/><path class="cls-27" d="M605.44,264.59h-11.1c-.53-.55-34.53-35.8-39.83-57.94a60.41,60.41,0,0,0-7-.12c-1.12.06-2.29.14-3.45.29-5.14.64-72.55,3.11-76.09-.43s-2.12-23.9-2.12-23.9l6.63-3.51,7-3.71s77.74,1.22,85.84,7.33S592.42,229.38,605.44,264.59Z"/><path class="cls-45" d="M605.44,264.59s9.22,9.24,11.5,11.5,10.86,1.27,13.22,8H606.8A25.79,25.79,0,0,0,592,280s-1.72-6.38,0-8.85a18.87,18.87,0,0,0,2.34-6.56Z"/><path class="cls-45" d="M592,280l1.18,4h8.25v-3.4A22.88,22.88,0,0,0,592,280Z"/><path class="cls-46" d="M547.51,206.53c-1.12.06-2.29.14-3.45.29-5.14.64-72.55,3.11-76.09-.43s-2.12-23.9-2.12-23.9l6.63-3.51,11.13,4.72S482,204.72,547.51,206.53Z"/><path class="cls-47" d="M548.36,149.2a6.37,6.37,0,0,0-5.45-4.52,22.52,22.52,0,0,0-6.6.53c-2.77.82-7.36-.79-7.36-.79s-16.85-5.86-20.79-8.31c-8.45-5.26-23.73-39.35-28.94-35.2,0,0-6.72,6.35-3,17.27s18.29,25.93,27.15,28.36c6.54,1.79,23.65,2.74,25.92,2.87,2.82.36,6.65,2,7.68,2.07s3.66-1.59,5.41-1.34C548.73,151,548.36,149.2,548.36,149.2Z"/><path class="cls-48" d="M482.24,101.31a152,152,0,0,1-21.33-1.5c1.21-2,2.67-7.91,3.08-16v0l2.46.13,11.64.62s0,.17,0,.46c-.11,1.57-.45,6.71-.4,9.61a12.57,12.57,0,0,0,.78,3.63C479.7,99.31,481,100.32,482.24,101.31Z"/><path class="cls-3" d="M461.56,52.15c-.17-.67-2.31-7.82-13.46-5.75,0,0,5.58-.56,7.06,1.63,0,0-4.37-2.14-7.18-.52s-3.4,7.31-3,9.05,3.29,7,5.31,7a5.92,5.92,0,0,0,2.32-.51,27.37,27.37,0,0,0-.89,3c-2.41,10.05,4.11,17.9,7.63,16.09,2.26-1.16,3.85,2.78,3.85,2.78l19.12-24S469.8,45.1,461.56,52.15Z"/><path class="cls-47" d="M477.65,94.58c-7-.83-11.56-7-13.66-10.79l-.08-.13,2.54.24L478.05,85C477.94,86.55,477.59,91.69,477.65,94.58Z"/><path class="cls-48" d="M478.65,89.17S462.14,89,462.4,78.74s-1.71-17.22,8.84-17.56,12.5,3.64,13.25,7.09S483,89,478.65,89.17Z"/><path class="cls-3" d="M484.15,62.54c-2.47-3.15-4.42-2.52-5.52-1.62a11.54,11.54,0,0,0-14.89,2A19.63,19.63,0,0,1,457,74.34s3,1.93,9.94.33a11.79,11.79,0,0,0,5.71-3.73,38.32,38.32,0,0,1-6.83,7.92c8.38-3.61,12-15,12.36-16.26,1,.94,2.92,2.95,3.48,4.89.75,2.64,1,8,2.56,7.9C484.24,75.39,487.85,67.28,484.15,62.54Z"/><path class="cls-43" d="M494.91,120.36s10.61,13.72,13,13.93,1.29,9.35,0,11.69-9.54,7.38-14.82,2S494.91,120.36,494.91,120.36Z"/><path class="cls-45" d="M507.93,177.27c-7.88,1.13-21.62,2.09-24.32,6.43S463.8,185,462.4,182.25s2.93-24.94.68-28.71c-1.69-2.82-7.54-18.39-10.57-27.35a61,61,0,0,1-1.83-6c-.53-3.28-2.55-15.07,5.57-18.53,0,0,3.94-1.69,4.26-3.09a8.7,8.7,0,0,0,.09-1.42h0c0-1.88,0-4.46,1.8-3.72,2.39,1,4.93,3.32,9,3.11s7.63-2,8.16-.86-.95,2.75,0,3.53,12.92,8,16.62,18.62c0,0,3,7.64,3,14.05,0,.49,0,1,0,1.5-.08,3.82-.43,7.89-.05,11.4,0,.19,0,.38.07.56.6,4.46,1.25,8.68,1.92,11.94s1.33,5.5,2,6.16C506.32,166.66,515.81,176.14,507.93,177.27Z"/><path class="cls-48" d="M550.13,149.46a19,19,0,0,0-1.31-2.57c-.54-1-4.61-5.15-6.22-5.58s-9.48,1.77-9.48,1.77-31,.41-35.9-2.62c-6.43-4-22.05-20.32-32.92-28.67-5.18-4-9.28-6.14-10.8-4.27,0,0-4.14,4,1.07,13.78q.44.83,1,1.71c6.65,11.06,32.2,32.36,42.46,33.06s36.29-8,36.29-8,2.71-.74,4.1.33,6.78.87,7.54,1.6C547.36,151.37,550.48,150.53,550.13,149.46Z"/><path class="cls-43" d="M483.61,183.7c-2.69,4.34-19.81,1.29-21.21-1.45s2.93-24.94.68-28.71c-1.69-2.82-7.54-18.39-10.57-27.35a1.8,1.8,0,0,1,2.21-1.2c6.93,1.9,39.74,27.12,46.4,32.27.66,3.22,1.33,5.5,2,6.16C503.11,163.42,482.61,171.64,483.61,183.7Z"/><path class="cls-43" d="M499.13,144.76c-10.07-4.28-35.05-28.5-35.41-28.85.29.1,8.35-3.49,27.87,14.28a32.29,32.29,0,0,1,6.18,8A25.45,25.45,0,0,1,499.13,144.76Z"/><path class="cls-45" d="M455.68,106.84a22.94,22.94,0,0,1,9.76,4.47c4.82,3.75,28.91,27.28,32.94,28.27s12.71.52,12.6,3.06-2,15-4.6,17.21-16.19,3.33-22.08-.42-35.15-39-33.33-46.62S455.68,106.84,455.68,106.84Z"/><path class="cls-43" d="M467,101.64c-2.57-.64-10.77,0-10.77,0s3.94-1.69,4.26-3.09a8.7,8.7,0,0,0,.09-1.42c.42,1.69,1.68,2.49,5,2.65S469.59,102.28,467,101.64Z"/><path class="cls-46" d="M594.35,264.59h0c-.53-.55-34.53-35.8-39.83-57.94,0,0,8.35-2.32,13.38,4.32S594.35,264.59,594.35,264.59Z"/><path class="cls-15" d="M1076.3,68.43a7.22,7.22,0,0,0,.37-2.15c.28-9.18,2.37-15.28-7-16.09s-11.33,2.63-12.16,5.67.35,18.52,4.18,18.93a25.69,25.69,0,0,0,3-.08c.08,1,.23,2.75.38,4.68.31,3.67.67,8,.77,9l10.4-.51,5.49-6.84A30.24,30.24,0,0,1,1076.3,68.43Z"/><path class="cls-13" d="M1096.52,186.82a88.45,88.45,0,0,1-6.84,9.78c-7.52,9.5-15.71,17.33-17.14,24.73a33.29,33.29,0,0,1-1.32,4.74c-.6,1.69-1.33,3.47-2.18,5.32a165.25,165.25,0,0,1-12.74,21.77c-8.24,12.21-16,22.39-16,22.39l-14.21-.6c.57-1.43,6.77-18.28,15.06-38.89,3.37-8.36,6.95-17.26,10.4-25.84l1.38-3.41q1.57-3.94,3.11-7.73c7.78-19.35,14-34.75,14-34.75s31.12-11.79,34.35-4.15C1107,166.48,1104.87,172.65,1096.52,186.82Z"/><path class="cls-13" d="M1039.87,273.38s-.73,11.73-3,11.9c-.31,0-11.51,0-11.51,0l-14.3-.08s.09-3.45,4.27-4.18,11.18-3.66,13.71-9.19C1031.72,266,1039.87,273.38,1039.87,273.38Z"/><path class="cls-13" d="M1072.77,239.47s9.89,6.35,8.93,8.42c-.13.27-5.59,10.05-5.59,10.05l-7,12.45s-3-1.76-1.56-5.77,2.25-11.54-1.34-16.45C1062.38,243,1072.77,239.47,1072.77,239.47Z"/><path class="cls-31" d="M1063.45,78.47c.22-.08,14-3.39,15.5-2.82s2.18,3.47,2.18,3.47L1058.6,83S1060.54,79.52,1063.45,78.47Z"/><path class="cls-13" d="M1058.88,55.05s3.64,10.16,5.67,9.14,3.9-1.86,4.4,1.36-1.52,7.62,5.25,6.43,11.81-20.77,9.15-23.53C1075.64,40.49,1048.3,45.65,1058.88,55.05Z"/><path class="cls-18" d="M1105.11,160.42c-3.72,4.39-35.35,3.25-44.62-.46a6.37,6.37,0,0,1-1.63-.88c-5.45-4.36,6.85-8.19-6.91-41.41a.08.08,0,0,0,0,0c-8.64-24.6,2.74-31.74,6.73-35.37,0,0,19.32-5.87,29.86-2.61C1102.2,83.88,1109.1,155.7,1105.11,160.42Z"/><path class="cls-31" d="M1071.84,144.11c-.62,4.53-4.26,15.69-11.35,15.85a6.37,6.37,0,0,1-1.63-.88c-5.45-4.36,6.85-8.19-6.91-41.41a.08.08,0,0,0,0,0c2.3-1.58,6-3.37,8.45-.64C1064.09,121.18,1072.49,139.43,1071.84,144.11Z"/><path class="cls-24" d="M1058.86,159.08s-38.51,24-42.87,40.33,52,51.23,52,51.23,6.18-5.45,7.27-9.45c0,0-25.46-30.5-31-37.33-3.39-4.2,50.14-14.54,56.68-24.71s4.2-18.73,4.2-18.73Z"/><path class="cls-15" d="M1007.52,139s-5.91-2.53-7.84-1.33-5.26,5.59-5.66,6.65-.55,2.58,1.32,2.25,2-.31,2-.31,3.14-2.49,3.88-2.53,3.94,1.43,5.46-.31S1007.52,139,1007.52,139Z"/><path class="cls-18" d="M1058.6,83s-5.74,3.08-9.83,13.08c-4.23,10.35-9.84,33.54-11.38,34.55s-24.74,4.66-31.65,7.35c0,0-2.71,4.86-.15,6.87s33.63.9,35.51.41c15.69-4.06,23.93-35,25.8-39.75S1058.6,83,1058.6,83Z"/><path class="cls-13" d="M1098,273.69V257.31h16.73a1.2,1.2,0,0,0,1.19-1.19v-4.45a1.19,1.19,0,0,0-1.19-1.19H1098v-52.8a3.16,3.16,0,0,0-3.15-3.15h-3.38a3.16,3.16,0,0,0-3.15,3.15v52.8h-16.73a1.18,1.18,0,0,0-1.18,1.19v4.45a1.19,1.19,0,0,0,1.18,1.19h16.73v16.38c-12.35.93-22.92,5.86-25.69,11.61H1123C1120.24,279.55,1110.34,274.62,1098,273.69Z"/><rect class="cls-18" x="1050.27" y="189.97" width="85.74" height="21.8" rx="2.91"/><polygon class="cls-36" points="214.71 122.06 214.53 126.22 214.15 134.91 213.97 138.91 202.94 138.91 202.69 134.91 202.15 126.22 201.89 122.06 214.71 122.06"/><polygon class="cls-49" points="214.92 119.25 201.85 119.25 201.31 122.06 215.28 122.06 214.92 119.25"/><polygon class="cls-37" points="214.53 126.22 214.15 134.91 202.69 134.91 202.15 126.22 214.53 126.22"/><path class="cls-37" d="M234.82,123.25l-.08,1.71-.05,1.26-.35,8,0,.69-.17,4h-11l-.25-4,0-.69-.5-8-.08-1.26-.14-2.27,0-.07s2.57-.47,4.12.51,3.23-.93,4.63-.37,1.5,1.26,2.62.8A5.32,5.32,0,0,1,234.82,123.25Z"/><polygon class="cls-50" points="234.87 122.06 234.82 123.25 234.74 124.96 234.69 126.22 234.34 134.22 234.31 134.91 234.13 138.91 223.1 138.91 222.85 134.91 222.81 134.22 222.31 126.22 222.23 124.96 222.09 122.69 222.05 122.06 234.87 122.06"/><path class="cls-50" d="M234.94,122.06v-.2a6.42,6.42,0,1,0-12.84,0,1.34,1.34,0,0,0,0,.2Z"/><path class="cls-36" d="M227.41,137.89l-.56-.07c0-.35,1.83-24.1,2.11-25.68a3,3,0,0,1,2.07-2.28h0l9-1.59.1.55-9,1.59a2.5,2.5,0,0,0-1.66,1.83C229.23,113.8,227.42,137.81,227.41,137.89Z"/><polygon class="cls-36" points="234.74 124.96 234.69 126.22 234.34 134.22 222.81 134.22 222.31 126.22 222.23 124.96 234.74 124.96"/><path class="cls-49" d="M182.82,133.21c0-.1,0-2,3.15-2.65s2.21-2.25,2.21-2.25,4.58,2.24,3.67,4.9S182.82,133.21,182.82,133.21Z"/><polygon class="cls-37" points="191.93 138.91 182.68 138.91 181.09 132.22 193.3 132.22 191.93 138.91"/><polygon class="cls-27" points="626.99 137.49 613.93 137.49 613.39 140.3 613.97 140.3 614.23 144.46 614.77 153.15 615.02 157.15 626.05 157.15 626.22 153.15 626.6 144.46 626.78 140.3 627.36 140.3 626.99 137.49"/><path class="cls-27" d="M600.25,146.55s1,1.57-2.2,2.25a4,4,0,0,0-2.82,1.66h-2.06l1.58,6.69H604l1.38-6.69H604C603.74,148.26,600.25,146.55,600.25,146.55Z"/><path class="cls-43" d="M575.44,126.67a1,1,0,0,0-1.29.61L564,155.12h-29.6a1,1,0,0,0,0,2h30.36a1,1,0,0,0,1-.9L576.05,128A1,1,0,0,0,575.44,126.67Z"/><path class="cls-39" d="M1311.19,215.78s-20.39-11.42-10.88-26.92c0,0,7.62-9.52,15.78-12,0,0-4.36,23.12,0,23.66s3-26.1,3-26.1,21.48-10.34,29.91-9.52c0,0-13.33,22.57-9,22s19.3-23.39,19.3-23.39,22-4.08,25.57,9-2.18,19.58-5.44,20.4-24.21.54-23.66,3.26,14.68,7.07,22.57,4.63c0,0-8.7,21.48-20.12,20.39s-15-8.16-22-8.7-12.24,1.36-8.7,3.26,15.5.63,21.21,5.48,10.33,7.85-.27,10-29.65.82-33.45-7.34Z"/><path class="cls-51" d="M1374.82,176.62s-57.1,18.49-63.63,39.16a43.39,43.39,0,0,1-5.44,19.85h0a38.37,38.37,0,0,0-5.32,18.3h3.29c.06-4.86.57-10.45,2.23-14.68h0a.61.61,0,0,1,0-.12c.15-.35.37-.84.65-1.44v0c.67-1.3,1.12-2.26,1.4-3h0v0c2-4.18,5-9.6,6.92-10.74C1315,223.94,1302.22,206,1374.82,176.62Z"/><path class="cls-39" d="M1291,233.46s15.47-8.66,8.25-20.42c0,0-5.78-7.22-12-9.08,0,0,3.3,17.54,0,17.95s-2.27-19.8-2.27-19.8-16.29-7.84-22.69-7.22c0,0,10.11,17.12,6.81,16.71s-14.65-17.75-14.65-17.75-16.71-3.09-19.39,6.81,1.65,14.86,4.13,15.47,18.36.42,17.94,2.48S1246,224,1240,222.12c0,0,6.6,16.29,15.27,15.47s11.34-6.19,16.71-6.6,9.28,1,6.6,2.47-11.76.48-16.09,4.16-7.84,5.95.2,7.6,22.49.62,25.38-5.57Z"/><path class="cls-51" d="M1295.76,253.94h1.83a25.46,25.46,0,0,0-2.49-5.42,32.87,32.87,0,0,1-4.12-15.06c-5-15.68-48.28-29.7-48.28-29.7,55.08,22.28,45.39,35.89,45.39,35.89,1.48.87,3.7,5,5.24,8.14v0h0c.22.53.57,1.28,1.09,2.29v0c.19.43.35.78.46,1A18.69,18.69,0,0,1,1295.76,253.94Z"/><path class="cls-52" d="M1300.6,283.6a33.34,33.34,0,0,0,33.34-33.33h-66.67A33.33,33.33,0,0,0,1300.6,283.6Z"/><path class="cls-53" d="M1308.81,283.35a33.4,33.4,0,0,1-37.48-33.08h8.28A33.34,33.34,0,0,0,1308.81,283.35Z"/><path class="cls-52" d="M1334.23,285.3h-67.59a4.11,4.11,0,0,1,4.11-4.11h59.37a4.11,4.11,0,0,1,4.11,4.11Z"/><rect class="cls-39" x="1266.17" y="250.27" width="68.52" height="1.02"/></g></g></svg>