<svg xmlns="http://www.w3.org/2000/svg" xmlns:xlink="http://www.w3.org/1999/xlink" viewBox="0 0 536.83 384.3"><defs><style>.cls-1{fill:#fff;}.cls-2,.cls-37{fill:#466fd0;}.cls-3{fill:#f9ae8f;}.cls-22,.cls-4{fill:#e8394a;}.cls-34,.cls-5{fill:#f68928;}.cls-6{isolation:isolate;}.cls-26,.cls-40,.cls-7{fill:none;stroke-miterlimit:10;}.cls-7{stroke:#6f4d38;}.cls-26,.cls-7{stroke-width:4px;}.cls-8{fill:#f58f70;}.cls-9{fill:#231f20;}.cls-10{fill:#f8ab8a;}.cls-11{clip-path:url(#clip-path);}.cls-12{fill:#e7f2f6;}.cls-13{clip-path:url(#clip-path-2);}.cls-14{fill:#6997db;}.cls-15{fill:#627cbc;}.cls-16{clip-path:url(#clip-path-3);}.cls-17{fill:#6f4d38;}.cls-18{fill:#061f33;}.cls-19{fill:#ff836c;}.cls-20{fill:#f9604b;}.cls-21{clip-path:url(#clip-path-4);}.cls-22,.cls-34,.cls-37{mix-blend-mode:multiply;}.cls-23,.cls-34{opacity:0.5;}.cls-24{fill:#c8eff5;opacity:0.3;}.cls-25{fill:#936c51;}.cls-26{stroke:#382121;}.cls-27{fill:#382121;}.cls-28{clip-path:url(#clip-path-5);}.cls-29{clip-path:url(#clip-path-6);}.cls-30{fill:#634444;}.cls-31{fill:#0b2d4e;}.cls-32{fill:#f0652c;}.cls-33{clip-path:url(#clip-path-7);}.cls-35{fill:#5c8deb;}.cls-36{clip-path:url(#clip-path-8);}.cls-38{clip-path:url(#clip-path-9);}.cls-39{clip-path:url(#clip-path-10);}.cls-40{stroke:#0b2d4e;stroke-width:8px;}</style><clipPath id="clip-path"><path class="cls-1" d="M170.9,133.36c10.86,3.65,18.44,7,24.31,12.49,7.37,6.85,13.06,17.67,17.29,26.6,3.63,7.66,7.7,15.4,11.55,23.28,1-2.1,2.08-4.2,3.13-6.29,3.79-7.5,7.73-14.94,11.85-22.26,3.59-6.37,12.2-21.12,12.84-21.24.83-.16,6.42,2.49,7.53,3A111.49,111.49,0,0,1,277,159.25a7.67,7.67,0,0,1,2.36,2.28c.9,1.54.12,2.87-.49,4.33-5.62,13.53-10.71,27.27-16.38,40.79-5.43,12.93-10.58,27.11-18.72,38.64-6,8.53-13.44,16.07-24.71,15.22a9.5,9.5,0,0,1-1.51-.24l-.12,0-.08,0-.34-.09-.17-.06h0c-.28-.09-.57-.2-.85-.32a31.58,31.58,0,0,1-15-12.39c-15.19-23.47-24.3-53.34-30.07-80.49C169.11,158.52,163.5,140,170.9,133.36Z"/></clipPath><clipPath id="clip-path-2"><path class="cls-1" d="M63.74,288.53c5.46-54.72,10.85-86.73,16.79-125.1,1.18-7.67,3.49-15.9,6.73-19.82,5-6.11,12.31-8.76,19.47-11.44,8.79-3.28,18-5.81,27.36-6.29,1,0,1.91-.08,2.86-.08h0v-.2l.09.2h.06l.1-.2v.2h.08v-.2l.09.2h.06l.09-.2v.2h0c1,0,1.91,0,2.86.08,9.41.48,18.58,3,27.37,6.29,7.16,2.68,14.44,5.33,19.47,11.44,3.23,3.92,5.54,12.15,6.73,19.82,5.93,38.37,11.32,70.38,16.78,125.1,3.3,33.08,7.29,81.18,5.7,83.46-3,4.36-38.06,5.37-42.77,5.82-7.72.72-15.49.78-23.24.83q-6.58,0-13.18,0t-13.18,0c-7.76-.05-15.53-.11-23.25-.83C96.1,377.36,61.08,376.35,58,372,56.45,369.71,60.44,321.61,63.74,288.53Z"/></clipPath><clipPath id="clip-path-3"><path class="cls-3" d="M111.94,68.37a64,64,0,0,1,2.27-19.2c7.08-24,36.55-30.68,54.87-14.13,20.43,18.45,14.1,64.12-6.4,80.68a23.49,23.49,0,0,1-19.91,4.51C122,115.29,112.43,90.21,111.94,68.37Z"/></clipPath><clipPath id="clip-path-4"><path class="cls-4" d="M279.1,111.3h1.27a6.07,6.07,0,0,1,6.07,6.07v52.72a0,0,0,0,1,0,0H273a0,0,0,0,1,0,0V117.36A6.07,6.07,0,0,1,279.1,111.3Z" transform="translate(559.46 281.38) rotate(180)"/></clipPath><clipPath id="clip-path-5"><path class="cls-1" d="M463.54,286.34c-5.46-54.72-10.85-86.73-16.78-125.11-1.19-7.66-3.5-15.89-6.73-19.82-5-6.1-12.31-8.75-19.47-11.43-8.79-3.28-18-5.81-27.37-6.3-.95-.05-1.9-.07-2.86-.07h0v-.19l-.09.19h-.06l-.09-.19v.19H390v-.19l-.1.19h-.05l-.1-.19v.19h0c-.95,0-1.9,0-2.86.07-9.41.49-18.57,3-27.36,6.3-7.16,2.68-14.45,5.33-19.47,11.43-3.24,3.93-5.55,12.16-6.73,19.82-5.94,38.38-11.33,70.39-16.79,125.11-3.3,33.08-7.29,81.18-5.7,83.45,3,4.37,38.06,5.38,42.77,5.82,7.72.73,15.49.78,23.25.84q6.57,0,13.18,0t13.18,0c7.75-.06,15.52-.11,23.24-.84,4.71-.44,39.73-1.45,42.78-5.82C470.83,367.52,466.84,319.42,463.54,286.34Z"/></clipPath><clipPath id="clip-path-6"><path class="cls-3" d="M404.26,63.2a64.21,64.21,0,0,0-7.54-17.81c-13.5-21-43.67-19.24-56.64,1.76-14.46,23.43,3.82,65,25.8,77.44,6.13,3.48,22.47,1.06,27.74-3.63C410,106.36,409.89,84.3,404.26,63.2Z"/></clipPath><clipPath id="clip-path-7"><polygon class="cls-5" points="314.85 273.16 377.34 268.45 343.56 186.57 271.09 193.54 314.85 273.16"/></clipPath><clipPath id="clip-path-8"><path class="cls-2" d="M258.4,291.09h13.4a0,0,0,0,1,0,0v52.72a6.07,6.07,0,0,1-6.07,6.07h-1.27a6.07,6.07,0,0,1-6.07-6.07V291.09A0,0,0,0,1,258.4,291.09Z"/></clipPath><clipPath id="clip-path-9"><path class="cls-2" d="M284.61,291.09H298a0,0,0,0,1,0,0v52.72a6.07,6.07,0,0,1-6.07,6.07h-1.27a6.07,6.07,0,0,1-6.07-6.07V291.09A0,0,0,0,1,284.61,291.09Z"/></clipPath><clipPath id="clip-path-10"><path class="cls-2" d="M310.81,291.09h13.4a0,0,0,0,1,0,0v52.72a6.07,6.07,0,0,1-6.07,6.07h-1.27a6.07,6.07,0,0,1-6.07-6.07V291.09A0,0,0,0,1,310.81,291.09Z"/></clipPath></defs><g class="cls-6"><g id="Layer_2" data-name="Layer 2"><g id="Layer_1-2" data-name="Layer 1"><path class="cls-7" d="M104.66,61.22c-5.42,2.19-11,4.45-15.31,8.38-12.65,11.46-14,29.72-9.66,45.23.62,2.24,1.33,4.46,1.88,6.72,2,8.08,1.65,16.52,1.33,24.83"/><path class="cls-3" d="M24.35,324.18c-1.46,2.54-3.2,5-4.83,7.37-3.35,5-6.45,10.72-5.61,16.66.22,1.6,1.05,2.46,1.66,3.83.54,1.21.21,2.38.39,3.64a5.52,5.52,0,0,0,1.8,3.5,3.14,3.14,0,0,0,.85.49,4.47,4.47,0,0,0,2.53-.14c-.88,1.49-2.57,4.23-1.82,6,.51,1.22,3.85,2.73,5,1.69a7.07,7.07,0,0,0-2.2,4c-.24,1.39.11,3.08,1.38,3.69,1.54.72,5-.14,6.27-1.11A16,16,0,0,0,32,371.56,145.64,145.64,0,0,0,43.48,356.2c2.06-3.17,4.62-6.93,4.55-10.84s-1.57-7.42-2.07-11.17a21.64,21.64,0,0,1,.29-7.31c.71-3.32,2-6.53-.42-9.42A19,19,0,0,0,34.73,311c-4.35-.81-6.45.07-7.14,4.65A24.54,24.54,0,0,1,24.35,324.18Z"/><path class="cls-8" d="M24.14,367.22c1.11-1.34,2-2.81,3.05-4.19.27-.34.56-.68.87-1l.45-.46c.13-.15.27-.3.39-.46a13.64,13.64,0,0,0,1.34-2.1c.4-.74.79-1.51,1.2-2.27s.81-1.52,1.24-2.26c.84-1.51,1.72-3,2.68-4.44-.6,1.63-1.29,3.21-2,4.78-.35.78-.73,1.56-1.1,2.34s-.75,1.54-1.16,2.31a12.49,12.49,0,0,1-1.49,2.22c-.15.18-.31.34-.47.5l-.48.44c-.3.29-.6.58-.89.89A30.08,30.08,0,0,1,24.14,367.22Z"/><path class="cls-8" d="M21.4,359.45c.38-1.4.83-2.76,1.32-4.11s1-2.68,1.52-4,1.09-2.64,1.69-3.95,1.2-2.6,1.9-3.87a42,42,0,0,1-1.2,4.15c-.45,1.36-1,2.7-1.49,4s-1.11,2.65-1.73,3.94A40.93,40.93,0,0,1,21.4,359.45Z"/><path class="cls-8" d="M15.94,352.92a24.17,24.17,0,0,1,.84-2.7c.32-.88.67-1.74,1-2.59s.79-1.69,1.22-2.52a22.25,22.25,0,0,1,1.45-2.43,19.3,19.3,0,0,1-.75,2.73c-.31.89-.66,1.76-1,2.61s-.79,1.7-1.25,2.52A20,20,0,0,1,15.94,352.92Z"/><path class="cls-9" d="M88.4,74.85l-.43.67A43.32,43.32,0,0,0,81.38,96.8c-.31,8.12,1.27,16.28,1.7,24.38a105.36,105.36,0,0,1-2.9,30.64c9.08-3.14,18.71-6.66,24.49-14.33,4.79-6.35,6.18-14.66,6.25-22.61S109.86,99,110.29,91a61.67,61.67,0,0,1,3-16,17.45,17.45,0,0,0,1.29-5.64,9.39,9.39,0,0,0-5.48-7.89C101.45,57.73,92.28,68.91,88.4,74.85Z"/><path class="cls-9" d="M151.32,13.79a70.4,70.4,0,0,0-28.51,4.5,36.11,36.11,0,0,0-18.62,15.85c-4.61,8.28-4.44,17.71-3.3,26.86,2.71,21.76,13.83,44,33.26,52.84a39.74,39.74,0,0,0,16.56,3.32c13.3.09,23.24-12.54,28.49-24.11,5.45-12,7.77-25.8,7.63-38.95-.07-7.08-.41-15.62-3.55-22.12C177.37,19.74,164.72,14.57,151.32,13.79Z"/><path class="cls-10" d="M271.38,168.34c1.79-2.8,2.62-6.1,3.63-9.27a4.46,4.46,0,0,1,.58-1.32,4.27,4.27,0,0,1,.78-.81c3.91-3.49,6.65-8.43,10.24-12.3,1.58-1.71,2.89-3.61,4.51-5.25,2.39-2.43,4.49-4.83,5.25-8.27a5.21,5.21,0,0,0-.69-4.19,1.33,1.33,0,0,1-.34-.68,1,1,0,0,1,.11-.45c1.21-2.84,1.68-5.9-.66-8.36,1-2,1.68-3.72.21-5.81-2.37-3.38-5.84-2.69-9.16-1.72a39.84,39.84,0,0,0-19,12.27c-.9,1.06-1.75,2.16-2.74,3.14-1.61,1.59-3.61,2.55-5.06,4.32a17.45,17.45,0,0,0-3.06,6A84.14,84.14,0,0,0,254,145.88a127.69,127.69,0,0,1-3.89,15.1"/><path class="cls-1" d="M25.47,264.15a537.15,537.15,0,0,0-7.55,59c0-.78,35,9,35.51,8.71s5.2-29.74,8.3-43.84c9.43-42.8,19.2-83.86,38.58-123.43,3.76-7.67,13.45-24.48,7.9-32.76-6,0-17.89,4.5-24.92,8.37-12,6.62-18.71,18.54-25.28,30.09C49.37,185.49,41.57,201.26,36.56,218A448.44,448.44,0,0,0,25.47,264.15Z"/><path class="cls-10" d="M155.34,150.73c-7,7.91-20.36,8.54-29.73,5.3-6.38-2.2-10.89-7.23-11-14.15-.15-7.73,6.63-13.22,8.34-20.42,1-4.09.88-8.29.78-12.45-.12-4.85-.15-9.71-.39-14.56a51.69,51.69,0,0,1,13.79-1.31c4.22.18,8.43-.27,12.65,0a1.53,1.53,0,0,1,1,.28,1.38,1.38,0,0,1,.31.91c.57,6.55,0,13.18.46,19.74.4,6,1.75,12.1,5.28,17.1C161.07,137.24,160,145.42,155.34,150.73Z"/><path class="cls-1" d="M170.9,133.36c10.86,3.65,18.44,7,24.31,12.49,7.37,6.85,13.06,17.67,17.29,26.6,3.63,7.66,7.7,15.4,11.55,23.28,1-2.1,2.08-4.2,3.13-6.29,3.79-7.5,7.73-14.94,11.85-22.26,3.59-6.37,12.2-21.12,12.84-21.24.83-.16,6.42,2.49,7.53,3A111.49,111.49,0,0,1,277,159.25a7.67,7.67,0,0,1,2.36,2.28c.9,1.54.12,2.87-.49,4.33-5.62,13.53-10.71,27.27-16.38,40.79-5.43,12.93-10.58,27.11-18.72,38.64-6,8.53-13.44,16.07-24.71,15.22a9.5,9.5,0,0,1-1.51-.24l-.12,0-.08,0-.34-.09-.17-.06h0c-.28-.09-.57-.2-.85-.32a31.58,31.58,0,0,1-15-12.39c-15.19-23.47-24.3-53.34-30.07-80.49C169.11,158.52,163.5,140,170.9,133.36Z"/><g class="cls-11"><path class="cls-12" d="M245.84,239.12c-15.71,13-28,4.59-36.11-4.83s-12.93-22.23-12.93-22.23l3.62,48.37s6.28,14.2,27.06,11.06S254.53,232,254.53,232Z"/></g><path class="cls-8" d="M123.21,120.49A52.37,52.37,0,0,0,123.8,109c-.12-4.85-.16-9.72-.39-14.56a51.28,51.28,0,0,1,13.79-1.31c4.22.17,8.43-.27,12.65,0a1.47,1.47,0,0,1,1,.28,1.36,1.36,0,0,1,.31.91c.57,6.55,0,13.18.45,19.74a50.29,50.29,0,0,0,.71,5.61c-.66.58-1.33,1.14-2,1.65a21.59,21.59,0,0,1-18.45,3.36A28.07,28.07,0,0,1,123.21,120.49Z"/><path class="cls-1" d="M63.74,288.53c5.46-54.72,10.85-86.73,16.79-125.1,1.18-7.67,3.49-15.9,6.73-19.82,5-6.11,12.31-8.76,19.47-11.44,8.79-3.28,18-5.81,27.36-6.29,1,0,1.91-.08,2.86-.08h0v-.2l.09.2h.06l.1-.2v.2h.08v-.2l.09.2h.06l.09-.2v.2h0c1,0,1.91,0,2.86.08,9.41.48,18.58,3,27.37,6.29,7.16,2.68,14.44,5.33,19.47,11.44,3.23,3.92,5.54,12.15,6.73,19.82,5.93,38.37,11.32,70.38,16.78,125.1,3.3,33.08,7.29,81.18,5.7,83.46-3,4.36-38.06,5.37-42.77,5.82-7.72.72-15.49.78-23.24.83q-6.58,0-13.18,0t-13.18,0c-7.76-.05-15.53-.11-23.25-.83C96.1,377.36,61.08,376.35,58,372,56.45,369.71,60.44,321.61,63.74,288.53Z"/><g class="cls-13"><polygon class="cls-14" points="106.97 129.56 137.3 117.47 137.3 117.06 168.06 129.32 147.51 222.81 106.97 129.56"/><ellipse class="cls-15" cx="137.52" cy="117.06" rx="26.65" ry="33.29" transform="translate(-22.01 32.41) rotate(-12.45)"/><ellipse class="cls-10" cx="137.52" cy="117.06" rx="22.21" ry="27.74" transform="translate(-22.01 32.41) rotate(-12.45)"/></g><path class="cls-12" d="M67.77,288,96.08,283s-3.7,51.81-19,49.86S67.77,288,67.77,288Z"/><path class="cls-12" d="M207.12,288,178.81,283s3.71,51.81,19,49.86S207.12,288,207.12,288Z"/><path class="cls-8" d="M176,69.32c9-5.24,12.14,7.3,10.75,13.63a20,20,0,0,1-3.08,7.35A12.53,12.53,0,0,1,174,95.92a.34.34,0,0,1-.44-.33c-.54-3.46,1.47-6.92,1-10.39a7.49,7.49,0,0,0-2.27-4.42C168.8,77.51,172.56,71.35,176,69.32Z"/><path class="cls-3" d="M111.94,68.37a64,64,0,0,1,2.27-19.2c7.08-24,36.55-30.68,54.87-14.13,20.43,18.45,14.1,64.12-6.4,80.68a23.49,23.49,0,0,1-19.91,4.51C122,115.29,112.43,90.21,111.94,68.37Z"/><g class="cls-16"><path class="cls-8" d="M111.38,50.23a33.94,33.94,0,0,1,14.21-19.07,35.49,35.49,0,0,1,22.26-5.25,34.42,34.42,0,0,1,16.26,5.79c4,2.73,7.4,6.24,11.38,9,2.54,1.78,4.88,3.46,5,6.76q.48,13.11.27,26.25c0-1.47-2.15-4.24-2.83-5.58-.92-1.81-1.79-3.62-2.65-5.45a20.09,20.09,0,0,0-7-8.15c-3.1-2-6.65-3.49-8.91-6.53a67.87,67.87,0,0,1-17.86,10c-6.41,2.4-15.51,3.34-20.54,8.34-3.51,3.49-3.91,8.88-6.26,13.08-.88,1.55-2.61,2.8-3.84.86-1.65-2.61-1.78-6.86-1.85-9.86A67.52,67.52,0,0,1,111.38,50.23Z"/><path class="cls-17" d="M124.54,67.12a2.31,2.31,0,0,1-1.61-.64c-1.21-1.48.61-3.59,1.8-4.39,2.27-1.53,9.93-4,12-1,1.93,2.77-2,4.15-4,4.71C131.3,66.16,127,67.36,124.54,67.12Z"/><path class="cls-17" d="M174.74,65.7A2.26,2.26,0,0,0,176.3,65c1.13-1.54-.81-3.54-2.05-4.28-2.34-1.4-10.13-3.4-12-.33-1.77,2.87,2.22,4,4.3,4.47C167.93,65.13,172.26,66.09,174.74,65.7Z"/><path class="cls-18" d="M130.3,75.87c.39,2.93,2.15,5.1,3.93,4.87s2.9-2.8,2.51-5.73-2.15-5.1-3.93-4.86S129.91,73,130.3,75.87Z"/><path class="cls-18" d="M163,74.61c.09,3,1.61,5.3,3.4,5.25s3.18-2.49,3.1-5.44-1.61-5.29-3.4-5.24S163,71.66,163,74.61Z"/><ellipse class="cls-8" cx="151.1" cy="89.93" rx="5.55" ry="2.56" transform="translate(-2.48 4.3) rotate(-1.62)"/><path class="cls-19" d="M124.16,90.41c-3.15-.61-5.27-2.84-5.46-5.55-.18-2.39,1.78-4.08,4.56-4,3,.14,6.64,1.86,7.53,4.51C132.11,89.35,128,91.14,124.16,90.41Z"/><path class="cls-19" d="M176.84,88.86a6.18,6.18,0,0,0,5-5.82c0-2.39-2-4-4.67-3.7-2.94.3-6.35,2.2-7.06,4.89C169.05,88.23,173.19,89.79,176.84,88.86Z"/><path class="cls-20" d="M159.76,98.4a8.68,8.68,0,0,1-2.68,1.91,14.84,14.84,0,0,1-3.16,1,22.25,22.25,0,0,1-6.61.32,24.48,24.48,0,0,1-6.43-1.51,17.09,17.09,0,0,1-3-1.49c-.23-.16-.46-.3-.68-.47s-.44-.33-.65-.52a8.47,8.47,0,0,1-1.14-1.18,16.52,16.52,0,0,0,2.85,1.43,26.17,26.17,0,0,0,3,1,38,38,0,0,0,6.17,1.09,32.54,32.54,0,0,0,6.24.06,20,20,0,0,0,3.08-.52A13.25,13.25,0,0,0,159.76,98.4Z"/></g><path class="cls-3" d="M114.71,71.06c-9.26-4.73-11.71,8-10,14.21a20.07,20.07,0,0,0,3.49,7.16,12.53,12.53,0,0,0,10,5.07.46.46,0,0,0,.33-.09.44.44,0,0,0,.09-.27c.35-3.48-1.7-6.43-1.44-9.92.13-1.68.67-4.52,1.83-5.74C122.36,78,118.29,72.88,114.71,71.06Z"/><path class="cls-8" d="M269.19,125.38c-2.92,8.61,3,17,8.43,23.1,1.55,1.74,3.54,4.35,5.75,1.77,2.84-3.31.69-7.12,1.58-10.87.32-1.4.79-2.79,1.05-4.23a33.83,33.83,0,0,0,.49-12.4,11.71,11.71,0,0,0-.9-3.25,7,7,0,0,0-5.95-3.65C274.17,115.61,270.75,120.8,269.19,125.38Z"/><rect class="cls-1" x="273.03" y="96.4" width="13.4" height="28.8" transform="translate(559.46 221.6) rotate(180)"/><path class="cls-4" d="M279.1,111.3h1.27a6.07,6.07,0,0,1,6.07,6.07v52.72a0,0,0,0,1,0,0H273a0,0,0,0,1,0,0V117.36A6.07,6.07,0,0,1,279.1,111.3Z" transform="translate(559.46 281.38) rotate(180)"/><g class="cls-21"><circle class="cls-22" cx="283.24" cy="144.57" r="2.3"/><circle class="cls-22" cx="285.54" cy="129.75" r="2.3"/><circle class="cls-22" cx="274.77" cy="123.34" r="2.3"/><circle class="cls-22" cx="276.21" cy="155.18" r="2.3" transform="translate(-28.35 67.91) rotate(-13.34)"/><path class="cls-22" d="M276.21,134.26a1.43,1.43,0,1,0,1.43-1.43A1.43,1.43,0,0,0,276.21,134.26Z"/><path class="cls-22" d="M279.73,115.61a1.44,1.44,0,1,0,1.43-1.44A1.43,1.43,0,0,0,279.73,115.61Z"/><path class="cls-22" d="M280.37,164.65a1.44,1.44,0,1,0,1.44-1.43A1.44,1.44,0,0,0,280.37,164.65Z"/></g><path class="cls-1" d="M273.42,99.47H286a2.87,2.87,0,0,0,2.87-2.87h0A2.88,2.88,0,0,0,286,93.73H273.42a2.88,2.88,0,0,0-2.87,2.87h0A2.87,2.87,0,0,0,273.42,99.47Z"/><g class="cls-23"><path class="cls-1" d="M282,101.9v48.25a1.21,1.21,0,0,0,2.42,0V101.9a1.21,1.21,0,0,0-2.42,0Z"/></g><path class="cls-10" d="M254.74,141.25c.86-10.17,1.36-15.13,5.25-19.22a31.2,31.2,0,0,1,4.44-3.58,63.94,63.94,0,0,0,10.69-9.28,6.12,6.12,0,0,1,3.07-2.3c3.93-.77,2.57,6.26,1.69,8-2.4,4.79-7.67,7.84-8.14,13.67a33.23,33.23,0,0,0,.29,4.66,28.08,28.08,0,0,1-1.17,8.56,85.33,85.33,0,0,1-3.29,11.57"/><path class="cls-10" d="M285,109.65a3.62,3.62,0,0,0,1.4,2.72,2.63,2.63,0,0,0,1.07.33,4.44,4.44,0,0,0,4.11-2.45c1.4-3.23-.62-7.06-3.74-8.36a2.16,2.16,0,0,0-1.76,0c-.95.47-1.19,1.7-1.24,2.76A25,25,0,0,0,285,109.65Z"/><path class="cls-12" d="M179.83,137.47q-.83,5-1.71,9.88c-.58,3.3-1.19,6.58-1.79,9.87s-1.24,6.57-1.85,9.86l-1.9,9.85-.09.46-.47.07-5.34.81-5.34.8.19-1.37c1.51.68,3,1.35,4.51,2l4.49,2,.61.28-.24.62c-1.5,3.79-3,7.56-4.54,11.34s-3.05,7.55-4.59,11.32L159.45,211l-2.34,5.64q-2.34,5.64-4.76,11.25,2.06-5.74,4.19-11.47l2.13-5.73,2.15-5.71c1.45-3.81,2.88-7.62,4.35-11.42s2.93-7.6,4.42-11.39l.36.9-4.51-2-4.5-2-2.22-1,2.41-.34,5.35-.77,5.34-.75-.56.53,2.06-9.81c.7-3.27,1.39-6.54,2.11-9.81s1.42-6.53,2.16-9.79S179.07,140.72,179.83,137.47Z"/><path class="cls-12" d="M93.17,140.77q2.19,4.66,4.33,9.36t4.24,9.4c1.42,3.13,2.8,6.28,4.2,9.42l4.15,9.44-.66-.41,5.77-.38,5.76-.36,2.54-.16-2.08,1.46c-1.44,1-2.87,2-4.32,3l-4.32,3,.17-1q3.94,5.5,7.83,11c2.61,3.67,5.19,7.36,7.78,11l3.86,5.55,3.85,5.55q3.84,5.57,7.63,11.16-4.1-5.37-8.13-10.8l-4-5.42-4-5.44c-2.66-3.64-5.34-7.26-8-10.91s-5.3-7.28-7.93-10.94l-.42-.58.59-.41,4.3-3,4.32-3,.45,1.3-5.77.33q-2.88.18-5.77.32l-.47,0-.18-.43-4-9.51c-1.32-3.17-2.66-6.34-4-9.52s-2.61-6.36-3.9-9.54S94.43,144,93.17,140.77Z"/><path class="cls-9" d="M116.18,28.44c6-3.18,13.54-4.32,19.64-5.47,7.88-1.49,16.16-3,24.11-1.19a31,31,0,0,1,17.59,11.6c4.36,5.81,5.89,11.86,6.11,19,.26,8.64-.14,17.55-3.58,25.61,0-3.14-1.26-6.45-2-9.44-1.13-4.61-2.41-11.28-5.82-14.81-2.22-2.29-4.57-4.38-6.61-6.86-.59-.71-5.58-6.58-5.13-7.22-3.13,4.46-9,7.46-13.68,10a93.94,93.94,0,0,1-16.29,7.12,52.44,52.44,0,0,0-8.28,3.09c-3.24,1.72-5.85,4.21-6.22,7.87-.49,4.78-2.56,14.29-2.56,14.29s-4.4-15.11-5.1-18.17C105.66,52,103.38,35.23,116.18,28.44Z"/><path class="cls-24" d="M184.24,62.83l-1,19.4a3.12,3.12,0,0,1-2.77,3l-19.77,2.32a3.12,3.12,0,0,1-3.4-2.32c-.93-3.57-2.93-9.46-6.07-9.52S145.7,82.29,144.69,86a3.14,3.14,0,0,1-3.1,2.3l-21.6-.5A3.13,3.13,0,0,1,117,85l-2.53-19.11Z"/><path class="cls-1" d="M164,85.66a4.76,4.76,0,0,1-2.58-.22,4.13,4.13,0,0,1-2.07-1.72,3.37,3.37,0,0,1-.3-.64l-.22-.6c-.15-.39-.3-.79-.46-1.18-.32-.78-.64-1.55-1-2.31a19.29,19.29,0,0,0-2.61-4.17,7,7,0,0,0-1.74-1.5,3.49,3.49,0,0,0-2-.49,3.63,3.63,0,0,0-1,.24,5.16,5.16,0,0,0-1,.55,9.08,9.08,0,0,0-1.69,1.65,23.6,23.6,0,0,0-2.59,4.22c-.37.75-.71,1.52-1.05,2.3-.17.38-.33.77-.49,1.17l-.23.59-.11.29-.06.15-.07.16a3.9,3.9,0,0,1-1.89,1.93,4.73,4.73,0,0,1-2.55.44,4.91,4.91,0,0,0,2.35-.79,3.36,3.36,0,0,0,1.42-1.83l.36-1.22c.12-.41.25-.82.38-1.23.27-.82.58-1.63.91-2.43a24.17,24.17,0,0,1,1.12-2.36,19.61,19.61,0,0,1,1.42-2.24,10.46,10.46,0,0,1,1.92-2,7.67,7.67,0,0,1,1.25-.72,5.21,5.21,0,0,1,1.46-.36,5,5,0,0,1,2.86.72,7.86,7.86,0,0,1,2.08,1.84,18.26,18.26,0,0,1,2.59,4.6c.32.81.62,1.62.87,2.45.13.41.25.82.36,1.24l.17.62.08.28c0,.09.07.17.1.26a3.65,3.65,0,0,0,1.62,1.68,4.74,4.74,0,0,0,1.15.45A5.29,5.29,0,0,0,164,85.66Z"/><polygon class="cls-2" points="114.42 65.93 184.24 62.83 183.93 69.15 176.03 66.06 123.21 68.02 115.38 73.15 114.42 65.93"/><path class="cls-12" d="M191,151.18c.73,2,1.4,4.13,2,6.24.15.52.3,1.05.43,1.58l.4,1.58c.27,1.06.52,2.12.77,3.18,1,4.25,1.84,8.53,2.63,12.81s1.51,8.59,2.21,12.89,1.3,8.62,1.92,12.93,1.17,8.64,1.71,13,1.05,8.65,1.51,13c.95,8.66,1.8,17.33,2.43,26-1.23-8.63-2.39-17.26-3.55-25.89l-1.75-12.94c-.59-4.32-1.17-8.63-1.78-12.94s-1.21-8.62-1.85-12.92-1.29-8.61-2-12.9-1.41-8.59-2.22-12.86c-.19-1.07-.39-2.14-.62-3.21l-.32-1.59-.35-1.6-.35-1.59-.39-1.58-.19-.8c-.06-.26-.14-.52-.21-.79Z"/><path class="cls-12" d="M147.51,222.81c.34,6.48.57,13,.83,19.47l.33,9.73.29,9.74c.1,3.25.19,6.49.26,9.74l.24,9.74.4,19.48.3,19.48c.07,6.49.16,13,.2,19.48s.09,13,.11,19.48v14.62l0,4.87-.19-4.87-.16-4.87-.31-9.74q-.28-9.74-.53-19.47c-.08-3.25-.16-6.49-.23-9.74l-.22-9.74-.37-19.48-.32-19.48-.25-19.48-.2-19.48-.07-9.74,0-4.87Z"/><circle class="cls-12" cx="137.86" cy="262.55" r="3.38"/><circle class="cls-12" cx="138.73" cy="304.1" r="3.38"/><path class="cls-1" d="M169.74,68.07c1.24-.16,2.47-.25,3.7-.35l.93-.07a4.31,4.31,0,0,1,1,0,3.28,3.28,0,0,1,1,.32l.84.44,1.63.87.41.22.2.11.1.06.12.07a4,4,0,0,1,.86.72,3.76,3.76,0,0,1,.93,2,5.4,5.4,0,0,1,0,.56v.26l0,.23-.05.93c-.08,1.23-.16,2.46-.27,3.69,0,.61-.1,1.23-.16,1.84l0,.46,0,.24a1.81,1.81,0,0,1-.05.31,2.33,2.33,0,0,1-.6,1.07,2.24,2.24,0,0,1-1.06.59l-.15,0H179l-.23,0-.46,0-1.85.19c-1.23.1-2.46.21-3.71.25,1.19-.36,2.4-.65,3.6-1l1.8-.43.45-.1.23,0h.09s.06,0,.08,0a1.11,1.11,0,0,0,.75-.89.76.76,0,0,0,0-.15v-.69c0-.62.05-1.23.07-1.85,0-1.23.12-2.46.19-3.69l.07-.93V73a2.17,2.17,0,0,0,0-.36,2.5,2.5,0,0,0-.55-1.31,2.47,2.47,0,0,0-.53-.49l-.76-.48-1.56-1-.76-.5a2.9,2.9,0,0,0-.72-.31,3.87,3.87,0,0,0-.82-.11l-.93-.06C172.21,68.33,171,68.23,169.74,68.07Z"/><path class="cls-1" d="M114.42,65.93c.56,1.93,1,3.87,1.34,5.81s.68,3.91.94,5.87.47,3.93.62,5.9c0,.49.07,1,.1,1.48a2.84,2.84,0,0,0,.34,1.24A3,3,0,0,0,120,87.76a3.06,3.06,0,0,1-2.82-1.13,3.32,3.32,0,0,1-.69-1.51c-.1-.49-.2-1-.29-1.46q-.54-2.93-.93-5.86c-.26-2-.47-3.93-.62-5.91S114.39,67.93,114.42,65.93Z"/><path class="cls-12" d="M65.59,270.84c1.55-8.1,3.27-16.17,5.22-24.19l.72-3,.77-3c.51-2,1-4,1.53-6l1.61-6,1.65-6,3.43-11.89,1.74-5.93.85-3,.43-1.49L84,199l.83-3,.79-3L86,191.5l.36-1.5.72-3c.91-4,1.63-8.07,2.19-12.16a106.14,106.14,0,0,1-1.49,12.3c-.78,4.06-1.66,8.1-2.7,12.1s-2.11,8-3.2,12l-3.35,11.9-1.69,6L75.16,235c-.57,2-1.09,4-1.64,6l-.81,3-.8,3C69.75,254.88,67.72,262.87,65.59,270.84Z"/><path class="cls-25" d="M154.53,19.41c-1.54-.07-3.08-.12-4.62-.13s-3.08,0-4.62.13a38.58,38.58,0,0,0-4.56.53c-.38.07-.76.12-1.13.2l-1.12.24-.56.12-.56.15-1.11.3a42.35,42.35,0,0,0-8.45,3.48,40.5,40.5,0,0,0-7.49,5.22c-.59.49-1.13,1-1.68,1.55-.29.26-.54.54-.81.81l-.78.83a41,41,0,0,0-2.87,3.56,40.25,40.25,0,0,0-4.48,8,42.73,42.73,0,0,0-3.37,18l-.08-1.15c0-.39-.06-.77-.07-1.16,0-.77,0-1.55,0-2.32l0-1.16.09-1.16c0-.78.17-1.54.26-2.31a40.8,40.8,0,0,1,2.42-9,39.69,39.69,0,0,1,4.43-8.21,38.08,38.08,0,0,1,2.92-3.66l.8-.85c.27-.28.53-.58.82-.84.57-.54,1.11-1.09,1.71-1.59a40.67,40.67,0,0,1,7.7-5.3c.69-.36,1.38-.72,2.1-1l1.06-.48,1.09-.43.54-.22.55-.2,1.1-.38c.37-.13.75-.22,1.12-.34l1.13-.32a40.41,40.41,0,0,1,9.21-1.28c1.55,0,3.1,0,4.65.08.77,0,1.54.1,2.31.16Z"/><path class="cls-1" d="M290.26,263.84c9.6,8.49,26.88.4,31.46-11.72,6-15.9,7.76-33.13,13.39-49.23,4.93-14.1,12.52-27.09,19.07-40.46,3.76-7.67,13.45-24.48,7.9-32.76-6,0-17.89,4.5-24.92,8.37-12,6.62-18.71,18.54-25.28,30.08-8.64,15.17-16.44,30.95-21.45,47.72-3.73,12.51-9.8,28.76-4.54,41.62A16.85,16.85,0,0,0,290.26,263.84Z"/><polygon class="cls-12" points="334.09 163.23 325.26 209.87 340.02 205.47 334.09 163.23"/><path class="cls-26" d="M416.7,48.39a40.34,40.34,0,0,0-.05-17.53c-1.56-6.13-5.46-12.22-11.28-15S394.93,9.19,389.8,5.49a17.17,17.17,0,0,0-7.43-3.39c-6-.87-9.57,4.28-13.12,8.21a20.8,20.8,0,0,1-15.11,6.77c-4.67,0-9.25-1.53-13.92-1.5s-10,1.69-13.43,5.22c-4.57,4.68-3.18,10.75-3.85,16.67a28.69,28.69,0,0,1-6.14,14.74"/><path class="cls-9" d="M417.71,34.4c.28,1.17.5,2.36.66,3.54.65,5-.18,10-.62,14.92A168.57,168.57,0,0,1,414.55,78c-1.32,6.9-2.7,14-6.28,20s-8.89,10.47-14.28,14.73a26,26,0,0,1-7.3,4.52,24.42,24.42,0,0,1-8.77.91,29.33,29.33,0,0,1-9.24-1.4c-4.46-1.62-8.73-5.26-12.44-8.13a146.53,146.53,0,0,1-13.39-12.13,201.14,201.14,0,0,1-22.62-26.73c-3.63-5.13-7.17-11.34-5.42-17.39,1.32-4.55,5.32-7.73,8-11.64,4.77-7,5.7-17,12.82-21.56,6.8-4.39,15.95-1.66,23.71-4,4.81-1.46,8.86-4.81,13.6-6.5a21.22,21.22,0,0,1,16.41,1c2.68,1.33,5,3.22,7.7,4.58,3,1.55,6.4,2.37,9.37,4C412.34,21.52,416.08,27.75,417.71,34.4Z"/><path class="cls-27" d="M400,102.56a18.52,18.52,0,0,1-2.42,2.51c-3.61,3.12-8.22,4.85-12.88,5.92a41.27,41.27,0,0,1-13.05,1,34.59,34.59,0,0,1-20.33-9.46A68.85,68.85,0,0,1,342.15,91c-3.85-5.68-7.63-11.41-11.4-17.13-2.78-4.21-5.68-9-4.73-14,.83-4.35,5.33-8.15,9.84-7.92,4.89.24,9.37,3.69,13.46,6a85.21,85.21,0,0,0,17.91,7.7c8.63,2.58,17.69,3.78,26,7.14a17.83,17.83,0,0,1,11.22,16.8A20.3,20.3,0,0,1,400,102.56Z"/><path class="cls-1" d="M490.9,263.84c-9.61,8.49-26.89.4-31.46-11.72-6-15.9-7.77-33.13-13.39-49.23-4.94-14.1-12.52-27.09-19.08-40.46-3.76-7.67-13.45-24.48-7.89-32.76,5.95,0,17.88,4.5,24.91,8.37,12,6.62,18.71,18.54,25.29,30.08,8.63,15.17,16.44,30.95,21.44,47.72,3.74,12.51,9.8,28.76,4.54,41.62A16.83,16.83,0,0,1,490.9,263.84Z"/><path class="cls-10" d="M370.89,148.53c7.37,7.92,21.53,8.55,31.45,5.31,6.74-2.2,11.51-7.23,11.66-14.15.15-7.73-7-13.22-8.83-20.42-1-4.09-.93-8.3-.82-12.45.12-4.85.16-9.72.41-14.56A57.78,57.78,0,0,0,390.17,91c-4.46.17-8.92-.27-13.38,0a1.59,1.59,0,0,0-1,.28,1.3,1.3,0,0,0-.34.91c-.59,6.55,0,13.18-.48,19.74-.43,6-1.86,12.1-5.59,17.1C364.83,135,366,143.22,370.89,148.53Z"/><path class="cls-1" d="M463.54,286.34c-5.46-54.72-10.85-86.73-16.78-125.11-1.19-7.66-3.5-15.89-6.73-19.82-5-6.1-12.31-8.75-19.47-11.43-8.79-3.28-18-5.81-27.37-6.3-.95-.05-1.9-.07-2.86-.07h0v-.19l-.09.19h-.06l-.09-.19v.19H390v-.19l-.1.19h-.05l-.1-.19v.19h0c-.95,0-1.9,0-2.86.07-9.41.49-18.57,3-27.36,6.3-7.16,2.68-14.45,5.33-19.47,11.43-3.24,3.93-5.55,12.16-6.73,19.82-5.94,38.38-11.33,70.39-16.79,125.11-3.3,33.08-7.29,81.18-5.7,83.45,3,4.37,38.06,5.38,42.77,5.82,7.72.73,15.49.78,23.25.84q6.57,0,13.18,0t13.18,0c7.75-.06,15.52-.11,23.24-.84,4.71-.44,39.73-1.45,42.78-5.82C470.83,367.52,466.84,319.42,463.54,286.34Z"/><g class="cls-28"><polygon class="cls-14" points="420.31 127.36 389.99 115.28 389.99 114.87 359.22 127.12 379.77 220.62 420.31 127.36"/><ellipse class="cls-15" cx="389.76" cy="114.87" rx="33.29" ry="26.65" transform="translate(193.55 470.69) rotate(-77.55)"/><ellipse class="cls-10" cx="389.76" cy="114.87" rx="27.74" ry="22.21" transform="translate(193.55 470.69) rotate(-77.55)"/></g><path class="cls-8" d="M404.88,117.94s-.5-4-.56-5.31c-.11-2.13,0-4,0-6.16.12-4.85.06-9.42.3-14.26a57.24,57.24,0,0,0-14.59-1.32c-4.46.18-8.92-.26-13.38,0a1.63,1.63,0,0,0-1,.28,1.32,1.32,0,0,0-.33.91c-.42,4.62-.25,9.28-.28,13.92,0,1.65.38,3.66.11,5.27-.34,2-2,3.88-2.75,5.76-.87,2.27-1,5.1.65,6.87a7.93,7.93,0,0,0,4.42,1.94,33.49,33.49,0,0,0,14.4-.31,28.55,28.55,0,0,0,6.93-2.75c1.77-1,4.73-2.49,5.73-4.33Z"/><path class="cls-12" d="M459.52,285.82l-28.32-5.07s3.71,51.82,19,49.86S459.52,285.82,459.52,285.82Z"/><path class="cls-12" d="M320.16,285.82l28.32-5.07s-3.71,51.82-19,49.86S320.16,285.82,320.16,285.82Z"/><path class="cls-8" d="M343,82c-10.08-2.53-9.61,10.4-6.51,16.08a20,20,0,0,0,5,6.2,12.6,12.6,0,0,0,10.9,2.69.52.52,0,0,0,.3-.16.48.48,0,0,0,0-.29c-.45-3.47-3.34-6.23-3.87-9.69a7.44,7.44,0,0,1,.94-4.88C352.21,87.86,346.88,83,343,82Z"/><path class="cls-3" d="M404.26,63.2a64.21,64.21,0,0,0-7.54-17.81c-13.5-21-43.67-19.24-56.64,1.76-14.46,23.43,3.82,65,25.8,77.44,6.13,3.48,22.47,1.06,27.74-3.63C410,106.36,409.89,84.3,404.26,63.2Z"/><g class="cls-29"><path class="cls-8" d="M399.72,45.62a33.88,33.88,0,0,0-19-14.34,35.5,35.5,0,0,0-22.84,1.18,34.4,34.4,0,0,0-14,10.1c-1.47,1.81-2.76,3.74-4.05,5.67s-3.57,4.1-4.33,6.12c-1.47,3.91,4.06,6.66,7.35,7.45,8.39,2,17.14-.49,25.4-3l17.65-5.31a11.4,11.4,0,0,1,4-.7c3.47.23,5.91,3.42,7.6,6.45a62.46,62.46,0,0,1,5.27,12.44c1,3.41,5.32,6.33,6,1.22.36-2.69-.45-6-1.14-8.57A67.22,67.22,0,0,0,399.72,45.62Z"/><path class="cls-27" d="M391.52,65.49a2.79,2.79,0,0,0,1.6-1.25c.87-2.06-1.87-3.84-3.47-4.35-3-1-12.47-1.22-13.83,2.79-1.27,3.75,3.6,4,6.08,4C383.59,66.62,388.79,66.58,391.52,65.49Z"/><path class="cls-27" d="M343.44,78a2.68,2.68,0,0,1-2-.3c-1.74-1.35-.25-4.19.89-5.4,2.14-2.3,10.1-7,13.19-4.23,2.89,2.6-1.16,5.17-3.31,6.32C350.78,75.2,346.29,77.66,343.44,78Z"/><path class="cls-18" d="M388.73,75.53c.44,2.91-.64,5.49-2.42,5.76s-3.57-1.87-4-4.79.64-5.5,2.41-5.77S388.29,72.61,388.73,75.53Z"/><path class="cls-18" d="M356.93,83.46c.75,2.86-.06,5.54-1.79,6s-3.75-1.5-4.5-4.35.07-5.53,1.8-6S356.19,80.61,356.93,83.46Z"/><path class="cls-8" d="M378.06,93.44c.36,1.37-1.76,3.1-4.73,3.88s-5.66.29-6-1.08,1.76-3.11,4.73-3.88S377.7,92.07,378.06,93.44Z"/><path class="cls-19" d="M398.68,87.77c2.85-1.47,4.27-4.19,3.7-6.85-.5-2.35-2.86-3.42-5.49-2.52-2.86,1-5.85,3.64-6,6.43C390.75,89,395.24,89.53,398.68,87.77Z"/><path class="cls-19" d="M347.67,101a6.18,6.18,0,0,1-6.42-4.19c-.69-2.3.79-4.37,3.46-4.86,2.89-.54,6.7.34,8.14,2.73C355,98.21,351.43,100.88,347.67,101Z"/><path class="cls-20" d="M365.53,107.16a8.66,8.66,0,0,0,3.11,1.08,14.27,14.27,0,0,0,3.33.12,21.88,21.88,0,0,0,6.43-1.53,24,24,0,0,0,5.75-3.25,17.24,17.24,0,0,0,2.43-2.25c.17-.22.36-.42.52-.65s.33-.44.48-.67a8.45,8.45,0,0,0,.76-1.46,15.45,15.45,0,0,1-2.34,2.17,27,27,0,0,1-2.6,1.77,40.7,40.7,0,0,1-5.62,2.77,33.15,33.15,0,0,1-6,1.79,20.18,20.18,0,0,1-3.1.37A13.14,13.14,0,0,1,365.53,107.16Z"/></g><path class="cls-9" d="M410.9,77.55A109.12,109.12,0,0,0,413.1,58c.12-6-2.13-12.34-5.24-17.39a34.46,34.46,0,0,0-11-10.68c-12.55-8-28.76-9.66-42.83-5-7.84,2.58-16.94,9-19.47,17.26-1.24,4-.52,9.61,3.41,11.71,5.71,3.06,14.13,2.22,20.2,1,7.32-1.41,14.31-4.14,21.48-6.17a19.44,19.44,0,0,1,7.65-1c4.48.57,8.17,4,10.26,8s2.26,8.59,3.89,12.74c1.43,3.65,2.56,7.41,3.65,11.18a18.07,18.07,0,0,1,.77,2.7c.06.5-.14,1.1,0,1.57a1.78,1.78,0,0,0,3.07,1,3.45,3.45,0,0,0,.65-1.46C410.05,81.45,410.5,79.51,410.9,77.55Z"/><path class="cls-3" d="M402.35,66.54c7.57-7.12,13.47,4.39,13.54,10.87a20.17,20.17,0,0,1-1.35,7.85,12.56,12.56,0,0,1-8.2,7.66.41.41,0,0,1-.34,0,.43.43,0,0,1-.17-.24c-1.3-3.24-.16-6.64-1.39-9.92-.59-1.58-1.9-4.15-3.36-5C397,75.36,399.43,69.3,402.35,66.54Z"/><path class="cls-30" d="M345.78,29.24c.77-.15,1.54-.28,2.31-.45s1.53-.34,2.29-.55l1.14-.29,1.14-.33c.75-.21,1.5-.46,2.25-.69,3-1,5.93-2.11,8.84-3.27s5.82-2.36,8.75-3.45l2.2-.8a20.73,20.73,0,0,1,2.19-.72,8.3,8.3,0,0,1,2.2-.28,5.19,5.19,0,0,1,2.08.48c2.68,1.23,4.38,4.26,7.41,5.69A19.85,19.85,0,0,0,393.17,26c1.54.32,3.06.61,4.56,1a27,27,0,0,1,4.36,1.58A18,18,0,0,1,406,31.08a14.54,14.54,0,0,1,3.08,3.46,11.88,11.88,0,0,1,1,2.08,10.3,10.3,0,0,1,.63,2.25,10.72,10.72,0,0,0-.49-2.3,13.14,13.14,0,0,0-1-2.17,14.91,14.91,0,0,0-3-3.68,18.75,18.75,0,0,0-3.95-2.66,27.16,27.16,0,0,0-4.43-1.74c-.76-.23-1.53-.43-2.3-.62l-2.29-.51A18.58,18.58,0,0,1,389,23.76a9.61,9.61,0,0,1-1.88-1.22c-.59-.48-1.15-1-1.71-1.56s-1.13-1.1-1.76-1.62A9.84,9.84,0,0,0,381.57,18a6.31,6.31,0,0,0-2.46-.56,9,9,0,0,0-2.45.33,22.54,22.54,0,0,0-2.28.75c-.74.27-1.48.54-2.21.83-2.93,1.15-5.82,2.37-8.7,3.61A109.09,109.09,0,0,1,345.78,29.24Z"/><polygon class="cls-12" points="447.07 163.23 455.89 233.85 441.13 227.18 447.07 163.23"/><path class="cls-12" d="M347.45,135.27c.56,3.3,1.12,6.6,1.72,9.89s1.18,6.58,1.79,9.87,1.23,6.57,1.85,9.86l1.9,9.85.09.45.47.08,5.34.81,5.33.79-.19-1.36-4.5,2-4.5,2-.61.28.25.62c1.49,3.79,3,7.56,4.53,11.34s3.06,7.55,4.59,11.32l2.32,5.65,2.34,5.64q2.35,5.64,4.76,11.25-2.06-5.74-4.18-11.48l-2.13-5.72-2.15-5.72c-1.45-3.8-2.89-7.61-4.36-11.41s-2.92-7.6-4.41-11.39l-.37.9,4.51-2,4.5-2,2.23-1-2.42-.34-5.34-.77q-2.67-.39-5.35-.75l.56.53-2-9.81c-.71-3.27-1.39-6.55-2.11-9.81s-1.43-6.53-2.16-9.8S348.22,138.53,347.45,135.27Z"/><path class="cls-12" d="M434.11,138.58c-1.45,3.11-2.9,6.23-4.32,9.36s-2.84,6.26-4.25,9.4-2.79,6.28-4.19,9.42l-4.15,9.43.65-.4c-1.92-.14-3.84-.26-5.76-.38l-5.77-.36-2.54-.16,2.09,1.46q2.14,1.52,4.31,3l4.32,3-.17-1c-2.62,3.66-5.22,7.35-7.82,11s-5.19,7.37-7.78,11.06L394.86,209,391,214.54q-3.84,5.57-7.62,11.16,4.1-5.37,8.13-10.8l4-5.43,4-5.43c2.67-3.64,5.34-7.26,8-10.91s5.31-7.29,7.94-10.95l.41-.58-.58-.41-4.31-3q-2.14-1.52-4.31-3l-.45,1.3,5.76.33c1.93.12,3.85.22,5.77.32l.48,0,.18-.42,4-9.51c1.32-3.17,2.65-6.34,3.95-9.52s2.62-6.36,3.91-9.55S432.85,141.78,434.11,138.58Z"/><path class="cls-24" d="M333.29,78.07l6.34,18.36a3.15,3.15,0,0,0,3.49,2.08l19.63-3.3A3.14,3.14,0,0,0,365.37,92c-.11-3.68.17-9.89,3.17-10.83s7.19,4.8,9.19,8a3.15,3.15,0,0,0,3.62,1.34L402,84.06a3.14,3.14,0,0,0,2.16-3.47l-2.92-19Z"/><path class="cls-1" d="M359.07,94.35a4.69,4.69,0,0,0,2.42-.94A4.14,4.14,0,0,0,363,91.18a4,4,0,0,0,.11-.69l0-.64c0-.42.07-.84.11-1.26.09-.84.19-1.67.33-2.5a18.93,18.93,0,0,1,1.33-4.73,7,7,0,0,1,1.26-1.93,3.47,3.47,0,0,1,1.82-1,3.27,3.27,0,0,1,1,0,5.27,5.27,0,0,1,1.08.25,9.28,9.28,0,0,1,2.07,1.12A23.46,23.46,0,0,1,375.86,83c.57.61,1.11,1.26,1.65,1.91.27.32.54.65.8,1l.38.5.2.25.09.13.11.13a4,4,0,0,0,2.36,1.33A4.67,4.67,0,0,0,384,88a4.94,4.94,0,0,1-2.48-.09,3.54,3.54,0,0,1-1.88-1.36L379,85.45c-.23-.36-.47-.72-.71-1.07-.49-.71-1-1.4-1.55-2.08a22.87,22.87,0,0,0-1.74-2,16.72,16.72,0,0,0-2-1.75,9.61,9.61,0,0,0-2.39-1.35,6.37,6.37,0,0,0-1.4-.34,4.74,4.74,0,0,0-1.5.06,5,5,0,0,0-2.54,1.48,8,8,0,0,0-1.49,2.35,18.11,18.11,0,0,0-1.2,5.14c-.08.87-.14,1.73-.15,2.6q0,.64,0,1.29l0,.65v.28c0,.1,0,.19,0,.29a3.65,3.65,0,0,1-1.09,2.06,4.55,4.55,0,0,1-1,.75A5.26,5.26,0,0,1,359.07,94.35Z"/><polygon class="cls-2" points="401.19 61.55 333.29 78.07 335.36 84.05 342.07 78.89 393.34 66 402.29 68.74 401.19 61.55"/><path class="cls-12" d="M336.25,149c-.74,2-1.41,4.13-2,6.23-.14.53-.29,1.05-.43,1.58l-.39,1.59c-.28,1.06-.52,2.12-.77,3.18-1,4.25-1.84,8.53-2.64,12.81s-1.5,8.59-2.2,12.89-1.31,8.62-1.93,12.93-1.16,8.64-1.7,13-1.05,8.65-1.52,13c-.95,8.66-1.79,17.33-2.42,26,1.23-8.62,2.38-17.25,3.55-25.88l1.75-12.94q.87-6.48,1.78-12.94t1.84-12.92c.62-4.31,1.3-8.61,2-12.91s1.4-8.58,2.21-12.85c.2-1.07.4-2.14.62-3.21l.33-1.6.34-1.59.35-1.59.39-1.59.19-.79.21-.79Z"/><path class="cls-12" d="M379.77,220.62c-.33,6.48-.56,13-.83,19.46l-.33,9.74-.29,9.74q-.13,4.86-.26,9.74l-.23,9.74-.4,19.47-.3,19.48c-.07,6.5-.17,13-.21,19.49s-.08,13-.1,19.48v14.61l0,4.88.18-4.87.16-4.87.32-9.74q.29-9.74.52-19.47.13-4.87.23-9.74l.22-9.74.38-19.48.31-19.48.26-19.48.2-19.48.06-9.74,0-4.87Z"/><circle class="cls-12" cx="389.43" cy="260.36" r="3.38"/><circle class="cls-12" cx="388.55" cy="301.91" r="3.38"/><path class="cls-1" d="M348.67,79.06c-1.22.19-2.44.44-3.65.69l-.9.2a4.3,4.3,0,0,0-1,.3,3.36,3.36,0,0,0-.89.59l-.69.65-1.32,1.3-.33.33-.16.16-.08.08-.1.1a3.87,3.87,0,0,0-.62.93,3.74,3.74,0,0,0-.32,2.21,2.59,2.59,0,0,0,.13.55l0,.14,0,.1.08.22.3.87c.42,1.16.85,2.32,1.29,3.47.23.58.44,1.15.68,1.73l.17.43.08.22.14.28a2.2,2.2,0,0,0,.88.86,2.23,2.23,0,0,0,1.18.27h.28l.23,0,.46-.08,1.82-.34c1.21-.24,2.43-.48,3.63-.79-1.24,0-2.48,0-3.71.09-.62,0-1.24.06-1.85.09l-.47,0-.23,0h-.18a1.09,1.09,0,0,1-.58-.2,1.06,1.06,0,0,1-.39-.45l-.05-.14-.07-.22-.14-.44-.58-1.75c-.4-1.17-.81-2.34-1.22-3.5l-.32-.87-.08-.21,0-.11,0-.09a2.09,2.09,0,0,1-.08-.34,2.44,2.44,0,0,1,.16-1.41,2.61,2.61,0,0,1,.37-.62l.6-.67c.41-.46.81-.93,1.22-1.4l.59-.68a2.62,2.62,0,0,1,.6-.5,3.34,3.34,0,0,1,.76-.34l.87-.32C346.38,80,347.53,79.56,348.67,79.06Z"/><path class="cls-1" d="M401.19,61.55c0,2,.15,4,.34,6s.44,3.93.74,5.89.65,3.9,1.05,5.84c.1.49.21,1,.32,1.46a2.91,2.91,0,0,1,0,1.28A3,3,0,0,1,402,84.06a3.07,3.07,0,0,0,2.39-1.87,3.43,3.43,0,0,0,.24-1.65c0-.49-.08-1-.13-1.48q-.3-3-.75-5.89c-.3-2-.64-3.9-1.05-5.84S401.79,63.46,401.19,61.55Z"/><path class="cls-3" d="M386.89,195.65c1.34.81,10.09,6.68,5.81,8a4.82,4.82,0,0,1-2.52-.15c-8.36-2-17.22-3.22-25.5-.89-.69.19-1.67.26-1.88-.42a1.37,1.37,0,0,1,.16-.9c.81-1.93,1.63-3.85,2.44-5.77a6.63,6.63,0,0,1,1.13-2c2.9-3.13,8.55-1.25,12-.66a29.13,29.13,0,0,1,4.89,1.12A19.55,19.55,0,0,1,386.89,195.65Z"/><rect class="cls-31" x="373.58" y="166.26" width="4.95" height="59.32" transform="matrix(0.53, 0.85, -0.85, 0.53, 344.52, -226.94)"/><rect class="cls-31" x="397.44" y="175.17" width="2.6" height="13.55" transform="translate(343.38 -252.83) rotate(58.22)"/><path class="cls-3" d="M396.2,229.07c-2.93,0-5.89.23-8.8.4-6,.35-12.51.09-17.2-3.65-1.26-1-1.57-2.16-2.45-3.38s-1.94-1.4-2.93-2.2a5.44,5.44,0,0,1-2.09-3.32,2.74,2.74,0,0,1,0-1,4.41,4.41,0,0,1,1.41-2.1c-1.73,0-4.95.06-6.12-1.52-.79-1.05-.4-4.7,1.08-5.16a7.06,7.06,0,0,1-4.54-.13c-1.32-.5-2.6-1.67-2.47-3.07.16-1.69,2.67-4.25,4.15-4.83a15.61,15.61,0,0,1,3.08-.77,145.16,145.16,0,0,1,19.06-2c3.78-.15,8.32-.44,11.65,1.61s5.59,5.13,8.56,7.47a21.66,21.66,0,0,0,6.43,3.47c3.22,1.09,6.64,1.61,7.9,5.16a19.09,19.09,0,0,1-.1,12.85c-1.52,4.15-3.34,5.51-7.64,3.77A24.5,24.5,0,0,0,396.2,229.07Z"/><path class="cls-8" d="M359.06,207.33c1.71-.27,3.41-.26,5.16-.5a11.81,11.81,0,0,0,1.3-.23l.62-.15.6-.11a13.71,13.71,0,0,1,2.49-.08c.84,0,1.7.09,2.56.13s1.72.07,2.59.08c1.72,0,3.44.05,5.18-.05-1.71-.31-3.42-.52-5.14-.7-.85-.1-1.71-.16-2.57-.24s-1.71-.14-2.59-.18a12.57,12.57,0,0,0-2.66.14c-.23,0-.45.1-.67.15l-.63.19c-.4.11-.8.22-1.22.31A31.18,31.18,0,0,0,359.06,207.33Z"/><path class="cls-8" d="M364.35,213.64c1.39.39,2.8.69,4.2,1s2.82.52,4.23.74,2.84.4,4.26.56,2.85.29,4.3.33c-1.38-.44-2.78-.78-4.18-1.08s-2.81-.55-4.23-.77-2.84-.39-4.27-.52S365.8,213.64,364.35,213.64Z"/><path class="cls-8" d="M367.19,221.67a24.25,24.25,0,0,0,2.74.66c.92.16,1.85.3,2.77.41s1.86.19,2.79.23a24.3,24.3,0,0,0,2.83,0,19,19,0,0,0-2.73-.74c-.92-.19-1.85-.33-2.78-.44s-1.86-.18-2.8-.21A20.51,20.51,0,0,0,367.19,221.67Z"/><polygon class="cls-32" points="271.09 193.54 377.34 268.45 378.34 266.29 344.56 184.42 272.09 191.38 271.09 193.54"/><path class="cls-1" d="M483,232.4c5.06,2.71,9.54,6.19,11.58,11.94,2.66,7.52,1.17,18.08-6.94,21.58-5.05,2.17-11.15,1.27-16.33.08-11.16-2.55-79-28-79.13-30a3.24,3.24,0,0,1,.49-1.66,88.14,88.14,0,0,0,9.44-35.18c.06-1.17,53.53,20.35,70.39,28.32C475.92,229.08,479.61,230.56,483,232.4Z"/><path class="cls-12" d="M488.25,265.9a17.08,17.08,0,0,1-3,.82,20.69,20.69,0,0,1-3.13.28,29.87,29.87,0,0,1-3.14-.15c-1-.1-2.08-.27-3.11-.45s-2.05-.42-3.08-.66-2-.52-3-.83q-3-.95-6-2c-4-1.39-8-2.79-11.93-4.24s-7.94-2.87-11.89-4.34S432,251.44,428,250s-7.91-2.95-11.86-4.42l-5.93-2.24c-2-.74-3.94-1.5-5.91-2.26s-3.93-1.53-5.89-2.33q-1.47-.58-2.91-1.23-.74-.31-1.44-.66l-.7-.37-.33-.21a.7.7,0,0,1-.26-.28c0,.13.15.21.24.3l.32.24c.22.15.45.28.68.42l1.39.76c.94.49,1.89.95,2.85,1.4,1.91.91,3.84,1.76,5.78,2.62q5.82,2.52,11.7,4.89c3.91,1.6,7.85,3.12,11.79,4.65s7.9,3,11.87,4.46,7.94,2.88,11.93,4.27,8,2.75,12,4c2,.63,4,1.26,6.09,1.82l1.54.4c.52.12,1.05.23,1.57.33,1,.21,2.08.4,3.14.55a32.32,32.32,0,0,0,6.37.3,21.11,21.11,0,0,0,3.16-.46A17.45,17.45,0,0,0,488.25,265.9Z"/><polygon class="cls-5" points="314.85 273.16 377.34 268.45 343.56 186.57 271.09 193.54 314.85 273.16"/><g class="cls-33"><path class="cls-34" d="M281.8,246.36a27.51,27.51,0,0,0,4.49,11.3,7.36,7.36,0,0,0,1.49,1.61,7.12,7.12,0,0,0,3.59,1.23,12.52,12.52,0,0,0,6.55-.93c3.37-1.55,4.4-4.51,5.41-7.86l4.45-.83c2.24-.42,4.65-.92,6.19-2.6a2.61,2.61,0,0,0,.82-1.92c-.07-1.11-1.14-1.85-2.13-2.36,2.79-.9,6.83-.39,8.75-3a2.58,2.58,0,0,0-1.4-4.14,18.45,18.45,0,0,1-2.49-.38l1.5-.21a4.27,4.27,0,0,0,2.07-.67c1.28-1,.57-3-.44-3.95a7.26,7.26,0,0,0-2.51-1.31c-7.66-2.63-16.05-1.54-24-.07,2.14-1.37,4.5-3,7-3.53s4.7-.88,7.09-2.34a3.78,3.78,0,0,0,2.07-2.47c.5-3.79-8.75-2.5-10.81-2.3-3.77.35-7.46,2.42-11,3.81-2.19.87-4.49,1.83-5.92,3.7-1.87,2.47-1.83,5.81-1.7,8.74A77.09,77.09,0,0,0,281.8,246.36Z"/></g><path class="cls-3" d="M282.42,245.64a27.29,27.29,0,0,0,3.43,11.67,7.31,7.31,0,0,0,1.33,1.74,7.15,7.15,0,0,0,3.46,1.56,12.46,12.46,0,0,0,6.61-.32c3.5-1.23,4.8-4.09,6.11-7.32l4.5-.42c2.28-.21,4.72-.49,6.42-2a2.65,2.65,0,0,0,1-1.83c0-1.11-1-2-1.9-2.55,2.86-.64,6.84.25,9-2.21a2.59,2.59,0,0,0-1-4.25,18.3,18.3,0,0,1-2.45-.62l1.51-.06a4.17,4.17,0,0,0,2.13-.48c1.37-.9.85-3-.08-4a7.11,7.11,0,0,0-2.37-1.53c-7.38-3.33-15.84-3-23.9-2.3,2.26-1.16,4.75-2.58,7.29-2.87s4.77-.44,7.28-1.67a3.78,3.78,0,0,0,2.29-2.27c.85-3.73-8.48-3.29-10.55-3.29-3.79,0-7.65,1.72-11.27,2.79-2.26.66-4.64,1.4-6.24,3.13-2.09,2.28-2.35,5.61-2.5,8.55A77.23,77.23,0,0,0,282.42,245.64Z"/><path class="cls-8" d="M319.47,239.14a39.84,39.84,0,0,0-4.47-.67c-1.49-.15-3-.24-4.49-.27s-3,0-4.51.07a39.94,39.94,0,0,0-4.49.46c1.51.15,3,.23,4.5.29s3,.11,4.48.14,3,.06,4.48.06S318,239.22,319.47,239.14Z"/><path class="cls-8" d="M313.61,246.22a14.2,14.2,0,0,0-2.54-.67,20.12,20.12,0,0,0-5.22-.2,13.45,13.45,0,0,0-2.58.47c.87.15,1.73.22,2.59.29s1.71.1,2.57.14,1.71.05,2.57.06S312.73,246.3,313.61,246.22Z"/><path class="cls-35" d="M527.28,384.3H9.55A9.34,9.34,0,0,1,0,375.2H0a9.34,9.34,0,0,1,9.55-9.11H527.28a9.34,9.34,0,0,1,9.55,9.11h0A9.33,9.33,0,0,1,527.28,384.3Z"/><path class="cls-14" d="M336.26,346.71h57.46a0,0,0,0,1,0,0v1.06A10.19,10.19,0,0,1,383.53,358H336.26a0,0,0,0,1,0,0V346.71A0,0,0,0,1,336.26,346.71Z" transform="translate(729.98 704.67) rotate(-180)"/><path class="cls-14" d="M383.86,347.8,398.36,274a4.16,4.16,0,0,1,4.08-3.36h96.39a4.1,4.1,0,0,1,3.34,1.72l0,0,4.45,5.27-3.95-.87L488.41,349.4a4.16,4.16,0,0,1-4.08,3.36H387.94A4.15,4.15,0,0,1,383.86,347.8Z"/><path class="cls-12" d="M488.74,358h-96.4a4.16,4.16,0,0,1-4.08-5l14.5-73.82a4.17,4.17,0,0,1,4.08-3.36h96.4a4.16,4.16,0,0,1,4.08,5l-14.5,73.82A4.16,4.16,0,0,1,488.74,358Z"/><path class="cls-14" d="M458.42,315.06a11.26,11.26,0,0,1-10.63,9c-5,0-8.24-4-7.28-9a11.39,11.39,0,0,1,10.63-9C456.05,306,459.31,310.08,458.42,315.06Z"/><path class="cls-4" d="M200.18,333.53l-2.43,4.22A13.47,13.47,0,0,0,209.41,358h4.87a13.47,13.47,0,0,0,11.66-20.2l-2.43-4.22A13.47,13.47,0,0,0,200.18,333.53Z"/><rect class="cls-1" x="205.51" y="301.57" width="12.67" height="27.24"/><rect class="cls-4" x="205.51" y="315.66" width="12.67" height="13.15"/><path class="cls-1" d="M217.81,304.48H205.88a2.71,2.71,0,0,1-2.71-2.71h0a2.71,2.71,0,0,1,2.71-2.72h11.93a2.71,2.71,0,0,1,2.71,2.72h0A2.71,2.71,0,0,1,217.81,304.48Z"/><circle class="cls-22" cx="227.01" cy="347.96" r="2.18"/><circle class="cls-22" cx="201.81" cy="341.98" r="2.18" transform="translate(-177.28 460.17) rotate(-76.77)"/><circle class="cls-22" cx="216.53" cy="327.05" r="2.18"/><circle class="cls-22" cx="214.85" cy="352.81" r="2.18"/><circle class="cls-22" cx="215.18" cy="337.38" r="1.36"/><path class="cls-22" d="M211.85,319.74a1.36,1.36,0,1,1-1.36-1.36A1.35,1.35,0,0,1,211.85,319.74Z"/><circle class="cls-22" cx="201.81" cy="352.81" r="1.36"/><g class="cls-23"><path class="cls-1" d="M207.32,306.77c0,6.25-.14,12.52,0,18.77v.39c0,.23.11-.39,0-.22s-.2.51-.29.75l-1.48,3.81q-2.25,5.84-4.51,11.67l-3,7.87c-.56,1.45,1.77,2.08,2.33.65q3.55-9.21,7.12-18.41c.56-1.45,1.11-2.9,1.67-4.34a7.08,7.08,0,0,0,.59-1.75c.09-1,0-2.06,0-3.06V306.77a1.21,1.21,0,0,0-2.42,0Z"/></g><path class="cls-14" d="M104.78,231.55H81.71s-43.6,8.13-45,60.7c-1.29,48.68,36.75,55.88,36.75,55.88H98.08v-20.6L109,316.2H85.58a14.14,14.14,0,0,1-10,4.63c-6.18,0-19.83-9.79-19.31-29.1s10.3-29.1,18.8-29.1,12.62,13.9,12.62,13.9l17.14.52Z"/><path class="cls-15" d="M87.31,323.32s-5,6-13,6S48.73,316.67,49.4,291.73s13.3-37.58,24.28-37.58,16.29,18,16.29,18l4.66,4.63-6.82-.21s-4.12-13.9-12.62-13.9-18.29,9.78-18.8,29.1,13.13,29.1,19.31,29.1a14.11,14.11,0,0,0,10-4.63Z"/><rect class="cls-12" x="109.99" y="244.74" width="16.98" height="33.31" transform="translate(236.97 522.8) rotate(180)"/><rect class="cls-14" x="104.78" y="210.6" width="27.41" height="61.86" transform="translate(236.97 483.06) rotate(180)"/><polygon class="cls-31" points="104.78 210.6 132.19 210.6 126.98 203.38 110 203.38 104.78 210.6"/><rect class="cls-31" x="109.99" y="177.29" width="16.98" height="33.31" transform="translate(236.97 387.88) rotate(180)"/><circle class="cls-15" cx="86.26" cy="327.36" r="8.37" transform="translate(-72.9 28.58) rotate(-13.28)"/><rect class="cls-2" x="112.08" y="172.65" width="12.81" height="4.64" transform="translate(236.97 349.94) rotate(180)"/><rect class="cls-31" x="49" y="348.13" width="94.26" height="10.3" transform="translate(192.27 706.56) rotate(180)"/><polygon class="cls-15" points="94.63 327.36 94.63 348.13 56.99 348.13 80.08 321.71 94.63 327.36"/><rect class="cls-15" x="104.78" y="210.6" width="5.21" height="61.86" transform="translate(214.78 483.06) rotate(180)"/><rect class="cls-31" x="85.58" y="308.98" width="69.8" height="7.21" transform="translate(240.95 625.18) rotate(180)"/><rect class="cls-15" x="94.63" y="231.55" width="10.15" height="45.19" transform="translate(199.41 508.29) rotate(180)"/><circle class="cls-31" cx="86.26" cy="327.36" r="4.89" transform="translate(-249.19 281.78) rotate(-67.5)"/><rect class="cls-31" x="142.69" y="268.64" width="13.61" height="4.35" transform="translate(433.6 393.16) rotate(142.2)"/><rect class="cls-18" x="148.75" y="271.48" width="10.3" height="10.04" transform="translate(444.98 400.63) rotate(142.2)"/><circle class="cls-31" cx="99.23" cy="244.25" r="8.37"/><circle class="cls-31" cx="88.42" cy="264.86" r="5.91" transform="translate(-41.28 17.58) rotate(-9.22)"/><rect class="cls-31" x="111.79" y="279.21" width="13.61" height="4.35"/><rect class="cls-18" x="113.44" y="283.56" width="10.3" height="10.04"/><polygon class="cls-31" points="148.09 277.41 156.23 271.09 156.2 268.36 145.45 276.7 148.09 277.41"/><circle class="cls-18" cx="99.23" cy="244.25" r="4.89"/><circle class="cls-18" cx="88.42" cy="264.86" r="3.46"/><path class="cls-2" d="M135,278.75c14.1-4.82,20.38-13.51,20.38-13.51l-44.77,15.32S120.94,283.58,135,278.75Z"/><rect class="cls-31" x="108.63" y="268.5" width="47.33" height="4.47" transform="translate(345.11 484.07) rotate(161.11)"/><rect class="cls-31" x="128.08" y="276.44" width="13.61" height="4.35" transform="matrix(-0.94, 0.33, -0.33, -0.94, 354.56, 496.69)"/><polygon class="cls-31" points="123.74 285.74 113.44 285.73 111.79 283.56 125.39 283.56 123.74 285.74"/><rect class="cls-18" x="132.12" y="280.38" width="10.3" height="10.04" transform="translate(361.46 509.09) rotate(160.62)"/><polygon class="cls-31" points="131.47 284.42 141.18 281 142.02 278.4 129.19 282.92 131.47 284.42"/><rect class="cls-1" x="258.4" y="276.2" width="13.4" height="28.8"/><path class="cls-2" d="M258.4,291.09h13.4a0,0,0,0,1,0,0v52.72a6.07,6.07,0,0,1-6.07,6.07h-1.27a6.07,6.07,0,0,1-6.07-6.07V291.09A0,0,0,0,1,258.4,291.09Z"/><g class="cls-36"><circle class="cls-37" cx="261.59" cy="324.37" r="2.3"/><circle class="cls-37" cx="259.28" cy="309.55" r="2.3" transform="translate(-98.27 121.93) rotate(-22.36)"/><circle class="cls-37" cx="270.05" cy="303.14" r="2.3"/><circle class="cls-37" cx="268.62" cy="334.98" r="2.3"/><path class="cls-37" d="M268.62,314.06a1.44,1.44,0,1,1-1.43-1.44A1.43,1.43,0,0,1,268.62,314.06Z"/><path class="cls-37" d="M265.09,295.4a1.43,1.43,0,1,1-1.43-1.43A1.44,1.44,0,0,1,265.09,295.4Z"/><path class="cls-37" d="M264.45,344.45A1.43,1.43,0,1,1,263,343,1.43,1.43,0,0,1,264.45,344.45Z"/></g><path class="cls-1" d="M271.4,279.27H258.79a2.86,2.86,0,0,1-2.87-2.87h0a2.86,2.86,0,0,1,2.87-2.87H271.4a2.86,2.86,0,0,1,2.87,2.87h0A2.86,2.86,0,0,1,271.4,279.27Z"/><g class="cls-23"><path class="cls-1" d="M260.38,281.7V330a1.21,1.21,0,0,0,2.41,0V281.7a1.21,1.21,0,0,0-2.41,0Z"/></g><rect class="cls-1" x="284.61" y="276.2" width="13.4" height="28.8"/><path class="cls-2" d="M284.61,291.09H298a0,0,0,0,1,0,0v52.72a6.07,6.07,0,0,1-6.07,6.07h-1.27a6.07,6.07,0,0,1-6.07-6.07V291.09A0,0,0,0,1,284.61,291.09Z"/><g class="cls-38"><circle class="cls-37" cx="287.8" cy="324.37" r="2.3"/><circle class="cls-37" cx="285.49" cy="309.55" r="2.3" transform="translate(-96.3 131.9) rotate(-22.36)"/><circle class="cls-37" cx="296.26" cy="303.14" r="2.3"/><circle class="cls-37" cx="294.83" cy="334.98" r="2.3"/><path class="cls-37" d="M294.83,314.06a1.44,1.44,0,1,1-1.43-1.44A1.43,1.43,0,0,1,294.83,314.06Z"/><path class="cls-37" d="M291.3,295.4a1.43,1.43,0,1,1-1.43-1.43A1.44,1.44,0,0,1,291.3,295.4Z"/><path class="cls-37" d="M290.66,344.45a1.43,1.43,0,1,1-1.43-1.43A1.43,1.43,0,0,1,290.66,344.45Z"/></g><path class="cls-1" d="M297.61,279.27H285a2.87,2.87,0,0,1-2.88-2.87h0a2.87,2.87,0,0,1,2.88-2.87h12.61a2.86,2.86,0,0,1,2.87,2.87h0A2.86,2.86,0,0,1,297.61,279.27Z"/><g class="cls-23"><path class="cls-1" d="M286.59,281.7V330a1.21,1.21,0,0,0,2.41,0V281.7a1.21,1.21,0,0,0-2.41,0Z"/></g><rect class="cls-1" x="310.81" y="276.2" width="13.4" height="28.8"/><path class="cls-2" d="M310.81,291.09h13.4a0,0,0,0,1,0,0v52.72a6.07,6.07,0,0,1-6.07,6.07h-1.27a6.07,6.07,0,0,1-6.07-6.07V291.09A0,0,0,0,1,310.81,291.09Z"/><g class="cls-39"><circle class="cls-37" cx="314" cy="324.37" r="2.3"/><circle class="cls-37" cx="311.7" cy="309.55" r="2.3" transform="translate(-94.33 141.87) rotate(-22.36)"/><circle class="cls-37" cx="322.47" cy="303.14" r="2.3"/><circle class="cls-37" cx="321.04" cy="334.98" r="2.3"/><path class="cls-37" d="M321,314.06a1.44,1.44,0,1,1-1.44-1.44A1.43,1.43,0,0,1,321,314.06Z"/><path class="cls-37" d="M317.51,295.4a1.44,1.44,0,1,1-1.43-1.43A1.44,1.44,0,0,1,317.51,295.4Z"/><path class="cls-37" d="M316.87,344.45a1.44,1.44,0,1,1-1.43-1.43A1.43,1.43,0,0,1,316.87,344.45Z"/></g><path class="cls-1" d="M323.82,279.27H311.21a2.87,2.87,0,0,1-2.88-2.87h0a2.87,2.87,0,0,1,2.88-2.87h12.61a2.87,2.87,0,0,1,2.87,2.87h0A2.87,2.87,0,0,1,323.82,279.27Z"/><g class="cls-23"><path class="cls-1" d="M312.8,281.7V330a1.21,1.21,0,0,0,2.41,0V281.7a1.21,1.21,0,0,0-2.41,0Z"/></g><rect class="cls-31" x="242.92" y="352.75" width="98.48" height="5.12"/><rect class="cls-31" x="246.35" y="320.78" width="5.11" height="34.53"/><rect class="cls-31" x="332.5" y="320.78" width="5.11" height="34.53"/><line class="cls-40" x1="243.93" y1="320.78" x2="340.03" y2="320.78"/><line class="cls-40" x1="243.93" y1="338.05" x2="340.03" y2="338.05"/></g></g></g></svg>