<svg xmlns="http://www.w3.org/2000/svg" xmlns:xlink="http://www.w3.org/1999/xlink" viewBox="0 0 799.92 110.76"><defs><style>.cls-1{fill:none;}.cls-2{fill:#fff;}.cls-3{fill:#55a65c;}.cls-4{fill:#5ea37c;}.cls-5{fill:#51a775;}.cls-6{fill:#54a760;}.cls-7{fill:#579c59;}.cls-8{clip-path:url(#clip-path);}.cls-9{fill:url(#linear-gradient);}.cls-10{clip-path:url(#clip-path-2);}.cls-11{fill:url(#linear-gradient-2);}.cls-12{clip-path:url(#clip-path-3);}.cls-13{fill:url(#linear-gradient-3);}.cls-14{clip-path:url(#clip-path-4);}.cls-15{fill:url(#linear-gradient-4);}.cls-16{clip-path:url(#clip-path-5);}.cls-17{fill:url(#linear-gradient-5);}.cls-18{clip-path:url(#clip-path-6);}.cls-19{fill:url(#linear-gradient-6);}.cls-20{clip-path:url(#clip-path-7);}.cls-21{fill:url(#linear-gradient-7);}.cls-22{clip-path:url(#clip-path-8);}.cls-23{fill:url(#linear-gradient-8);}.cls-24{clip-path:url(#clip-path-9);}.cls-25{fill:url(#linear-gradient-9);}.cls-26{clip-path:url(#clip-path-10);}.cls-27{fill:url(#linear-gradient-10);}.cls-28{clip-path:url(#clip-path-11);}.cls-29{fill:url(#linear-gradient-11);}.cls-30{clip-path:url(#clip-path-12);}.cls-31{fill:url(#linear-gradient-12);}.cls-32{clip-path:url(#clip-path-13);}.cls-33{fill:url(#linear-gradient-13);}.cls-34{clip-path:url(#clip-path-14);}.cls-35{fill:url(#linear-gradient-14);}.cls-36{clip-path:url(#clip-path-15);}.cls-37{fill:url(#linear-gradient-15);}.cls-38{clip-path:url(#clip-path-16);}.cls-39{fill:url(#linear-gradient-16);}.cls-40{clip-path:url(#clip-path-17);}.cls-41{fill:url(#linear-gradient-17);}.cls-42{clip-path:url(#clip-path-18);}.cls-43{fill:url(#linear-gradient-18);}.cls-44{clip-path:url(#clip-path-19);}.cls-45{fill:url(#linear-gradient-19);}.cls-46{clip-path:url(#clip-path-20);}.cls-47{fill:url(#linear-gradient-20);}.cls-48{clip-path:url(#clip-path-21);}.cls-49{fill:url(#linear-gradient-21);}.cls-50{clip-path:url(#clip-path-22);}.cls-51{fill:url(#linear-gradient-22);}.cls-52{clip-path:url(#clip-path-23);}.cls-53{fill:url(#linear-gradient-23);}.cls-54{clip-path:url(#clip-path-24);}.cls-55{fill:url(#linear-gradient-24);}.cls-56{clip-path:url(#clip-path-25);}.cls-57{fill:url(#linear-gradient-25);}</style><clipPath id="clip-path"><path class="cls-1" d="M734.45,20.28l-2.55,5.36h-7.79l-2.68,5.72h24.82l-3.16,7.79H730.68l-2.92,5.71H711.69l-2.92,6.7h29.94l-3.28,8.32H724.35l-2.55,5.06h-9.74l-2.43,6.21h39.92a22,22,0,0,0,20.34-13.6l7.93-19.13L782,28.23l3.29-7.95H734.45Z"/></clipPath><linearGradient id="linear-gradient" x1="-559.67" y1="-78.71" x2="-558.53" y2="-78.71" gradientTransform="translate(38141.03 5310.24) scale(66.88)" gradientUnits="userSpaceOnUse"><stop offset="0" stop-color="#53a668"/><stop offset="0.21" stop-color="#51a36f"/><stop offset="0.52" stop-color="#4c9a83"/><stop offset="0.88" stop-color="#448ba4"/><stop offset="1" stop-color="#4186b0"/></linearGradient><clipPath id="clip-path-2"><rect class="cls-1" x="434.15" y="15.06" width="53.76" height="1.02" transform="translate(71.36 262.44) rotate(-34.29)"/></clipPath><linearGradient id="linear-gradient-2" x1="-570.75" y1="-76.87" x2="-569.54" y2="-76.87" gradientTransform="matrix(-99.35, 0, 0, 99.35, -56188.5, 7653.06)" gradientUnits="userSpaceOnUse"><stop offset="0" stop-color="#62b24f"/><stop offset="0.46" stop-color="#51b9b3"/><stop offset="1" stop-color="#0093d2"/></linearGradient><clipPath id="clip-path-3"><rect class="cls-1" x="435.14" y="12.59" width="43.08" height="1.02" transform="translate(72.55 260.43) rotate(-34.42)"/></clipPath><linearGradient id="linear-gradient-3" x1="-570.75" y1="-76.88" x2="-569.54" y2="-76.88" gradientTransform="matrix(-99.35, 0, 0, 99.35, -56191.21, 7651.41)" xlink:href="#linear-gradient-2"/><clipPath id="clip-path-4"><rect class="cls-1" x="436.28" y="10.71" width="30.01" height="1.02" transform="translate(72.44 256.69) rotate(-34.37)"/></clipPath><linearGradient id="linear-gradient-4" x1="-570.74" y1="-76.89" x2="-569.54" y2="-76.89" gradientTransform="matrix(-99.35, 0, 0, 99.35, -56190.92, 7649.93)" xlink:href="#linear-gradient-2"/><clipPath id="clip-path-5"><rect class="cls-1" x="437.83" y="10.13" width="12.49" height="1.02" transform="translate(72.47 254) rotate(-34.59)"/></clipPath><linearGradient id="linear-gradient-5" x1="-570.74" y1="-76.9" x2="-569.54" y2="-76.9" gradientTransform="matrix(-99.35, 0, 0, 99.35, -56193.12, 7650.22)" xlink:href="#linear-gradient-2"/><clipPath id="clip-path-6"><polygon class="cls-1" points="505.82 39.12 505.81 39.12 498.61 44.03 498.62 44.04 461.57 69.29 462.34 70.41 457.31 73.93 457.7 74.49 446.99 81.97 447.57 82.81 459.39 74.55 463.29 71.82 500.92 46.16 500.15 45.03 506.77 40.52 506.39 39.96 530.56 23.48 529.99 22.64 505.82 39.12"/></clipPath><linearGradient id="linear-gradient-6" x1="-570.74" y1="-76.8" x2="-569.54" y2="-76.8" gradientTransform="matrix(-99.35, 0, 0, 99.35, -56154.06, 7682.07)" xlink:href="#linear-gradient-2"/><clipPath id="clip-path-7"><polygon class="cls-1" points="507.86 43.2 507.86 43.2 500.15 48.45 500.16 48.46 464.31 72.9 465.07 74.02 459.68 77.78 460.06 78.32 449.56 85.67 450.15 86.5 460.65 79.16 460.65 79.17 466.02 75.41 466.03 75.42 502 50.9 501.23 49.77 508.82 44.6 508.44 44.05 530.53 28.98 529.96 28.14 507.86 43.2"/></clipPath><linearGradient id="linear-gradient-7" x1="-570.74" y1="-76.79" x2="-569.54" y2="-76.79" gradientTransform="matrix(-99.36, 0, 0, 99.36, -56156.09, 7686.72)" xlink:href="#linear-gradient-2"/><clipPath id="clip-path-8"><polygon class="cls-1" points="509.83 47.34 509.83 47.33 503.45 51.68 503.45 51.69 466.86 76.64 467.62 77.75 462.68 81.2 463.06 81.74 452.45 89.18 453.03 90.01 463.64 82.58 463.65 82.59 468.57 79.16 468.58 79.17 505.19 54.2 504.42 53.08 510.78 48.74 510.41 48.18 530.5 34.48 529.93 33.64 509.83 47.34"/></clipPath><linearGradient id="linear-gradient-8" x1="-570.75" y1="-76.78" x2="-569.54" y2="-76.78" gradientTransform="matrix(-99.35, 0, 0, 99.35, -56150.25, 7690.12)" xlink:href="#linear-gradient-2"/><clipPath id="clip-path-9"><polygon class="cls-1" points="512.84 50.77 512.84 50.76 506.51 55.07 506.52 55.08 469.52 80.2 470.3 81.35 463.99 85.75 464.38 86.31 455.62 92.44 456.21 93.27 466.21 86.28 466.21 86.27 472.94 81.57 508.57 57.39 507.8 56.25 513.8 52.16 513.41 51.61 530.47 39.99 529.89 39.15 512.84 50.77"/></clipPath><linearGradient id="linear-gradient-9" x1="-570.74" y1="-76.77" x2="-569.54" y2="-76.77" gradientTransform="matrix(-99.35, 0, 0, 99.35, -56144.07, 7693.36)" xlink:href="#linear-gradient-2"/><clipPath id="clip-path-10"><polygon class="cls-1" points="516.56 53.7 516.55 53.68 509.63 58.41 509.63 58.41 477.53 80.31 478.29 81.41 470.7 86.72 471.09 87.28 459.24 95.56 459.82 96.4 472.73 87.38 479.25 82.82 479.25 82.83 511.55 60.8 510.78 59.67 517.5 55.09 517.13 54.54 530.43 45.47 529.86 44.62 516.56 53.7"/></clipPath><linearGradient id="linear-gradient-10" x1="-570.74" y1="-76.77" x2="-569.54" y2="-76.77" gradientTransform="matrix(-99.35, 0, 0, 99.35, -56140.77, 7696.92)" xlink:href="#linear-gradient-2"/><clipPath id="clip-path-11"><polygon class="cls-1" points="524.79 53.97 524.6 53.68 516.48 59.22 485.4 80.41 486.18 81.54 477.81 87.39 478.2 87.95 463.5 98.22 464.09 99.05 479.81 88.06 487.9 82.41 518.2 61.75 517.43 60.63 525.55 55.09 525.07 54.39 525.37 54.81 530.41 51.25 529.82 50.41 524.79 53.97"/></clipPath><linearGradient id="linear-gradient-11" x1="-570.74" y1="-76.76" x2="-569.54" y2="-76.76" gradientTransform="matrix(-99.35, 0, 0, 99.35, -56137.44, 7700.38)" xlink:href="#linear-gradient-2"/><clipPath id="clip-path-12"><polygon class="cls-1" points="524.92 58.95 524.92 58.94 520.35 62.06 520.34 62.06 502.07 74.52 502.84 75.65 495.11 81.06 495.5 81.62 467.63 101.1 468.21 101.93 497.18 81.68 503.96 76.94 503.95 76.94 522.06 64.59 521.3 63.46 525.88 60.34 525.5 59.79 530.29 56.53 529.72 55.69 524.92 58.95"/></clipPath><linearGradient id="linear-gradient-12" x1="-570.74" y1="-76.75" x2="-569.54" y2="-76.75" gradientTransform="matrix(-99.35, 0, 0, 99.35, -56134.24, 7703.73)" xlink:href="#linear-gradient-2"/><clipPath id="clip-path-13"><polygon class="cls-1" points="525.84 64 525.74 63.87 521.43 66.8 521.42 66.8 506.92 76.69 507.69 77.82 500.94 82.54 501.32 83.1 471.95 103.63 472.53 104.46 503.41 82.88 503.41 82.87 509.35 78.74 523.14 69.32 522.39 68.21 526.69 65.27 526.22 64.57 529.5 62.32 529.13 61.77 525.84 64"/></clipPath><linearGradient id="linear-gradient-13" x1="-570.74" y1="-76.74" x2="-569.54" y2="-76.74" gradientTransform="matrix(-99.35, 0, 0, 99.35, -56133.44, 7707.63)" xlink:href="#linear-gradient-2"/><clipPath id="clip-path-14"><polygon class="cls-1" points="467.52 16 467.51 15.99 460.65 20.67 460.65 20.67 444.12 31.94 444.89 33.07 440.96 35.81 441.36 36.37 438.49 38.38 439.08 39.21 442.63 36.72 446.76 33.84 462.37 23.2 461.61 22.07 468.47 17.4 468.1 16.85 491.21 1.08 490.63 0.24 467.52 16"/></clipPath><linearGradient id="linear-gradient-14" x1="-570.74" y1="-76.86" x2="-569.54" y2="-76.86" gradientTransform="matrix(-99.35, 0, 0, 99.35, -56181.9, 7655.84)" xlink:href="#linear-gradient-2"/><clipPath id="clip-path-15"><polygon class="cls-1" points="472.23 18.3 472.21 18.27 466.89 21.89 446.35 35.89 447.13 37.03 443.59 39.49 443.98 40.05 438.45 43.92 439.04 44.75 445.23 40.43 445.23 40.43 449.3 37.58 468.6 24.42 467.84 23.3 473.16 19.66 472.81 19.15 497.96 1.84 497.38 1 472.23 18.3"/></clipPath><linearGradient id="linear-gradient-15" x1="-570.74" y1="-76.86" x2="-569.54" y2="-76.86" gradientTransform="matrix(-99.35, 0, 0, 99.35, -56178.98, 7658.24)" xlink:href="#linear-gradient-2"/><clipPath id="clip-path-16"><polygon class="cls-1" points="476.5 20.82 476.48 20.79 470.58 24.81 470.6 24.83 448.58 39.84 449.36 40.98 444.59 44.31 444.98 44.87 438.42 49.45 439.01 50.28 446.14 45.3 451.55 41.52 472.56 27.19 471.78 26.04 477.43 22.18 477.07 21.66 504.2 2.99 503.62 2.15 476.5 20.82"/></clipPath><linearGradient id="linear-gradient-16" x1="-570.74" y1="-76.85" x2="-569.54" y2="-76.85" gradientTransform="matrix(-99.35, 0, 0, 99.35, -56175.99, 7660.81)" xlink:href="#linear-gradient-2"/><clipPath id="clip-path-17"><polygon class="cls-1" points="480.36 23.6 480.38 23.62 474.79 27.44 450.8 43.8 451.58 44.94 446.11 48.77 446.49 49.33 438.46 54.94 439.04 55.78 448.31 49.31 454.2 45.18 476.53 29.96 475.76 28.83 481.72 24.76 481.32 24.18 510.38 4.59 509.81 3.75 480.36 23.6"/></clipPath><linearGradient id="linear-gradient-17" x1="-570.74" y1="-76.84" x2="-569.54" y2="-76.84" gradientTransform="matrix(-99.35, 0, 0, 99.35, -56172.86, 7663.58)" xlink:href="#linear-gradient-2"/><clipPath id="clip-path-18"><polygon class="cls-1" points="485.44 25.67 485.43 25.66 478.73 30.23 478.73 30.23 453.03 47.76 453.79 48.88 448.88 52.31 449.28 52.88 438.93 60.09 439.52 60.92 450.96 52.94 450.95 52.93 454.75 50.27 454.75 50.28 480.49 32.72 479.72 31.6 486.38 27.06 486.01 26.51 515.22 6.59 514.65 5.75 485.44 25.67"/></clipPath><linearGradient id="linear-gradient-18" x1="-570.74" y1="-76.83" x2="-569.54" y2="-76.83" gradientTransform="matrix(-99.35, 0, 0, 99.35, -56169.83, 7666.38)" xlink:href="#linear-gradient-2"/><clipPath id="clip-path-19"><polygon class="cls-1" points="490.11 27.95 490.1 27.94 482.3 33.26 482.3 33.27 455.25 51.7 456.03 52.84 451.39 56.08 451.78 56.64 439.84 64.98 440.42 65.81 453.51 56.68 453.51 56.67 457.85 53.63 484.46 35.49 483.69 34.37 491.06 29.34 490.68 28.79 520.7 8.32 520.12 7.48 490.11 27.95"/></clipPath><linearGradient id="linear-gradient-19" x1="-570.74" y1="-76.83" x2="-569.54" y2="-76.83" gradientTransform="matrix(-99.35, 0, 0, 99.35, -56166.84, 7668.93)" xlink:href="#linear-gradient-2"/><clipPath id="clip-path-20"><polygon class="cls-1" points="497.11 28.77 497.1 28.75 489.94 33.64 489.94 33.66 457.32 55.77 458.1 56.92 452.28 60.98 452.68 61.54 441.14 69.6 441.72 70.44 454.25 61.69 454.25 61.68 460.47 57.33 491.89 36.03 491.11 34.9 498.06 30.16 497.68 29.61 525.55 10.61 524.98 9.76 497.11 28.77"/></clipPath><linearGradient id="linear-gradient-20" x1="-570.74" y1="-76.82" x2="-569.54" y2="-76.82" gradientTransform="matrix(-99.35, 0, 0, 99.35, -56163.78, 7671.62)" xlink:href="#linear-gradient-2"/><clipPath id="clip-path-21"><polygon class="cls-1" points="499.9 32.24 499.89 32.23 492.92 36.99 492.91 36.98 458.05 60.76 458.82 61.89 452.92 66.01 453.31 66.57 442.77 73.93 443.35 74.77 455.03 66.61 455.02 66.61 460.53 62.76 494.63 39.5 493.88 38.39 500.86 33.64 500.48 33.08 529.97 12.97 529.39 12.13 499.9 32.24"/></clipPath><linearGradient id="linear-gradient-21" x1="-570.74" y1="-76.81" x2="-569.54" y2="-76.81" gradientTransform="matrix(-99.35, 0, 0, 99.35, -56160.8, 7674.21)" xlink:href="#linear-gradient-2"/><clipPath id="clip-path-22"><polygon class="cls-1" points="502.13 36.19 502.12 36.17 495.46 40.72 459.05 65.54 459.82 66.66 454.32 70.5 454.73 71.09 444.7 78.03 445.28 78.86 456.13 71.35 456.1 71.32 460.77 68.06 460.78 68.06 497.18 43.25 496.42 42.12 503.08 37.58 502.7 37.03 530.6 18.01 530.02 17.16 502.13 36.19"/></clipPath><linearGradient id="linear-gradient-22" x1="-570.75" y1="-76.8" x2="-569.54" y2="-76.8" gradientTransform="matrix(-99.35, 0, 0, 99.35, -56160.34, 7678.48)" xlink:href="#linear-gradient-2"/><clipPath id="clip-path-23"><rect class="cls-1" x="470.96" y="88.45" width="61.38" height="1.02" transform="translate(39.36 303.09) rotate(-34.91)"/></clipPath><linearGradient id="linear-gradient-23" x1="-570.74" y1="-76.73" x2="-569.54" y2="-76.73" gradientTransform="matrix(-99.21, 0, 0, 99.21, -56050.04, 7701.01)" xlink:href="#linear-gradient-2"/><clipPath id="clip-path-24"><polygon class="cls-1" points="480.2 109.92 480.78 110.76 523.2 81.27 522.61 80.43 480.2 109.92"/></clipPath><linearGradient id="linear-gradient-24" x1="-570.76" y1="-76.72" x2="-569.56" y2="-76.72" gradientTransform="matrix(-99.21, 0, 0, 99.21, -56048.11, 7707.59)" xlink:href="#linear-gradient-2"/><clipPath id="clip-path-25"><rect class="cls-1" x="493.47" y="98.47" width="22.7" height="1.02" transform="matrix(0.82, -0.57, 0.57, 0.82, 34.33, 307.02)"/></clipPath><linearGradient id="linear-gradient-25" x1="-570.76" y1="-76.72" x2="-569.56" y2="-76.72" gradientTransform="matrix(-99.21, 0, 0, 99.21, -56045.13, 7710.11)" xlink:href="#linear-gradient-2"/></defs><g id="Layer_2" data-name="Layer 2"><g id="Layer_1-2" data-name="Layer 1"><path class="cls-2" d="M599.49,35.3V50.11a8.29,8.29,0,0,1-.68,3.14,11.86,11.86,0,0,1-.75,1.37,8.43,8.43,0,0,1-1.15,1.4,13.44,13.44,0,0,1-1.63,1.35,13,13,0,0,1-2.15,1.15l-.07,0h0a4.46,4.46,0,0,1-2.47.33V55.6a2.22,2.22,0,0,0,1.31-.09c.25-.1.49-.22.72-.33a7.6,7.6,0,0,0,.7-.41,8.18,8.18,0,0,0,1.13-.87,5.7,5.7,0,0,0,.79-.88,7.08,7.08,0,0,0,.51-.85,4.43,4.43,0,0,0,.48-1.92v-15Z"/><path class="cls-2" d="M628.13,35.3V46.58a2.27,2.27,0,0,1-.16.83,2.18,2.18,0,0,1-1.11,1.1,1.84,1.84,0,0,1-.81.17h-7.34V41.87a7.53,7.53,0,0,0-15.05,0v2.52a7.53,7.53,0,0,0,6.67,7.47,6,6,0,0,0,.85,0h4.2a3.92,3.92,0,0,1-.56,1.29,4.07,4.07,0,0,1-.93,1,4,4,0,0,1-1.21.67,4.19,4.19,0,0,1-1.42.24h-5.1v3.24h5.1a7.11,7.11,0,0,0,2.69-.5,7.37,7.37,0,0,0,2.26-1.36,7.59,7.59,0,0,0,1.64-2,7.37,7.37,0,0,0,.84-2.55h7.36a5.1,5.1,0,0,0,2.07-.41A5.41,5.41,0,0,0,631,48.67a5.07,5.07,0,0,0,.42-2.09V35.3Zm-12.6,13.38h-5l-.29-.05a4.32,4.32,0,0,1-3.39-4.23V41.87a4.34,4.34,0,1,1,8.68,0Z"/><path class="cls-2" d="M670.94,34.35a7.53,7.53,0,0,0-7.52,7.52v2.52a7.46,7.46,0,0,0,1.35,4.29H640.35a1.87,1.87,0,0,1-.81-.17,2.23,2.23,0,0,1-.65-.45,2,2,0,0,1-.45-.65,2,2,0,0,1-.16-.81V28.86H635V46.6a5.18,5.18,0,0,0,.42,2.07,5.29,5.29,0,0,0,1.15,1.68,5.43,5.43,0,0,0,1.7,1.15,5.09,5.09,0,0,0,2.06.41h30.59a7.51,7.51,0,0,0,5.65-2.55,7.5,7.5,0,0,0,1.88-5V41.87a7.53,7.53,0,0,0-7.53-7.52m4.35,10a4.35,4.35,0,0,1-3.71,4.29,3.39,3.39,0,0,1-.64,0,3.28,3.28,0,0,1-.63,0,4.33,4.33,0,0,1-3.7-4.29V41.87a4.34,4.34,0,1,1,8.68,0Z"/><path class="cls-2" d="M582.59,52.36a7.5,7.5,0,0,1-7.49-7.49V42.35a7.49,7.49,0,0,1,15,0v2.52a7.5,7.5,0,0,1-7.49,7.49m0-14.38a4.37,4.37,0,0,0-4.37,4.37v2.52a4.37,4.37,0,0,0,8.74,0V42.35A4.37,4.37,0,0,0,582.59,38"/><path class="cls-2" d="M669.08,30a2,2,0,1,0,2-2,2,2,0,0,0-2,2"/><path class="cls-2" d="M629.37,30.87a2,2,0,1,0,2-2,2,2,0,0,0-2,2"/><path class="cls-2" d="M624.45,30.87a2,2,0,1,0,2-2,2,2,0,0,0-2,2"/><path class="cls-2" d="M582.82,30a2,2,0,1,0,2-2,2,2,0,0,0-2,2"/><path class="cls-2" d="M577.9,30a2,2,0,1,0,2-2,2,2,0,0,0-2,2"/><polygon class="cls-2" points="577.94 70.29 577.94 76.94 588.14 76.94 588.14 79.62 577.94 79.62 577.94 89.81 574.7 89.81 574.7 67.41 589.54 67.41 589.54 70.29 577.94 70.29"/><path class="cls-2" d="M612.57,76v9.27a4,4,0,0,0,.22,1.83c.18.32.65.48,1.38.48a5,5,0,0,0,1.35-.2l.22-.06v2.64l-.15,0a15.37,15.37,0,0,1-2,.13c-1.76,0-2.92-.45-3.46-1.34a3.61,3.61,0,0,1-.45-1.7c0-.46,0-1.56,0-3.27V76h-2.69v-2.5h2.69V70.06l3-1.21v4.62h3.17V76Z"/><path class="cls-2" d="M631.66,75.4A7.38,7.38,0,0,0,626,73a7.53,7.53,0,0,0-6.24,2.76,9.25,9.25,0,0,0-1.81,5.88,9.14,9.14,0,0,0,2,6.12,8.37,8.37,0,0,0,11.37.56,8.92,8.92,0,0,0,2.44-6.69,9,9,0,0,0-2.07-6.23m-2.61,11.12a4.23,4.23,0,0,1-3.15,1.22,4.51,4.51,0,0,1-3.51-1.45,6.78,6.78,0,0,1-1.45-4.63,6.71,6.71,0,0,1,1.5-4.68,4.54,4.54,0,0,1,3.48-1.43A4.29,4.29,0,0,1,629.27,77a6.79,6.79,0,0,1,1.43,4.58,6.8,6.8,0,0,1-1.65,4.93"/><path class="cls-2" d="M650,75.4a7.4,7.4,0,0,0-5.71-2.4A7.5,7.5,0,0,0,638,75.76a9.25,9.25,0,0,0-1.81,5.88,9.14,9.14,0,0,0,2,6.12,8.37,8.37,0,0,0,11.37.56A9,9,0,0,0,652,81.63,9,9,0,0,0,650,75.4m-2.61,11.12a4.25,4.25,0,0,1-3.15,1.22,4.5,4.5,0,0,1-3.51-1.45,6.73,6.73,0,0,1-1.46-4.63A6.72,6.72,0,0,1,640.75,77a4.52,4.52,0,0,1,3.47-1.43A4.31,4.31,0,0,1,647.58,77,6.79,6.79,0,0,1,649,81.59a6.84,6.84,0,0,1-1.65,4.93"/><path class="cls-2" d="M664.32,73v3.08h-.18a8,8,0,0,0-.81,0A4.55,4.55,0,0,0,660,77.37a5.38,5.38,0,0,0-1.34,3.18,23.69,23.69,0,0,0-.13,2.88v6.38h-3V73.48h2.78v2.8a6,6,0,0,1,3-2.82,7.49,7.49,0,0,1,2.81-.45Z"/><path class="cls-2" d="M678.83,76.82a3.93,3.93,0,0,0-1.05-2.19,7.07,7.07,0,0,0-5.1-1.63,7.46,7.46,0,0,0-5.11,1.59,5.33,5.33,0,0,0-1.76,4.06v.17h2.88l0-.15a3.84,3.84,0,0,1,.68-2,3.88,3.88,0,0,1,3.08-1.08c2.31,0,3.42.85,3.42,2.61a1.81,1.81,0,0,1-.3,1.12c-.29.41-1.08.7-2.36.85l-2.66.33a10.76,10.76,0,0,0-2.3.59,4.53,4.53,0,0,0-3.1,4.51,4.42,4.42,0,0,0,1.59,3.58,5.69,5.69,0,0,0,3.69,1.14A7.49,7.49,0,0,0,676,88.09v2h2.92V78.7c0-1.07,0-1.69,0-1.88M676,83.72a5.42,5.42,0,0,1-.11,1.26,3.25,3.25,0,0,1-1.28,1.7,5.52,5.52,0,0,1-3.36,1.09,3.26,3.26,0,0,1-2.2-.65,2.23,2.23,0,0,1-.8-1.78,2.06,2.06,0,0,1,1.25-2,10.81,10.81,0,0,1,3.14-.69,22.32,22.32,0,0,0,2.21-.33,4.15,4.15,0,0,0,1.15-.43Z"/><path class="cls-2" d="M604.06,76.59a3.86,3.86,0,0,0-1-2.19,7.06,7.06,0,0,0-5.11-1.63,7.39,7.39,0,0,0-5.1,1.59,5.4,5.4,0,0,0-1.77,4v.17h2.9v-.15a3.09,3.09,0,0,1,3.76-3.12c2.3,0,3.42.86,3.42,2.62a1.92,1.92,0,0,1-.29,1.11c-.3.42-1.1.7-2.36.85l-2.67.33a11.39,11.39,0,0,0-2.3.59,4.54,4.54,0,0,0-3.1,4.51A4.41,4.41,0,0,0,592,88.91a5.69,5.69,0,0,0,3.69,1.14,7.48,7.48,0,0,0,5.5-2.2v2h2.92V78.46c0-1.07,0-1.69,0-1.87m-2.88,6.9a5.44,5.44,0,0,1-.1,1.25,3.3,3.3,0,0,1-1.28,1.7,5.46,5.46,0,0,1-3.36,1.1,3.24,3.24,0,0,1-2.19-.66,2.21,2.21,0,0,1-.81-1.78,2,2,0,0,1,1.25-2,10.81,10.81,0,0,1,3.14-.69c1.08-.13,1.81-.24,2.21-.33a4.28,4.28,0,0,0,1.14-.43Z"/><path class="cls-3" d="M799.92,38.44,784.55,76.82a21.59,21.59,0,0,1-20,13.65H733.05l22.29-52H798Z"/><path class="cls-2" d="M793.48,28.25,778.15,66.63a21.54,21.54,0,0,1-20,13.65H726.75L749,28.22H791.6Z"/><polygon class="cls-4" points="707.76 31.31 718.96 31.31 720.42 28.69 709.22 28.69 707.76 31.31"/><polygon class="cls-5" points="715.25 39.78 724.94 39.78 726.2 37.05 716.51 37.05 715.25 39.78"/><polygon class="cls-6" points="697.82 48.41 707.51 48.41 708.77 45.23 699.09 45.23 697.82 48.41"/><polygon class="cls-7" points="707.4 60.51 714.7 60.51 715.65 57.69 708.36 57.69 707.4 60.51"/><polygon class="cls-7" points="692 69.84 706.7 69.84 707.79 67.06 693.09 67.06 692 69.84"/><polygon class="cls-7" points="694.34 84.14 715.52 84.14 716.92 81.3 695.74 81.3 694.34 84.14"/><g class="cls-8"><rect class="cls-9" x="708.77" y="20.28" width="76.55" height="50.87"/></g><path class="cls-2" d="M15.91,38H12.6a2.12,2.12,0,0,1-1.17-1.85A1,1,0,0,1,12.32,35h.23c.72,0,1.22.47,1.35,1.35h1.82C15.55,34.16,14.34,33,12.53,33a2.79,2.79,0,0,0-3,2.56,1.88,1.88,0,0,0,0,.41A2.9,2.9,0,0,0,10.33,38H9.17v2h6.74Z"/><path class="cls-2" d="M21.68,45.75c0,1.52-.62,2.77-2.6,2.77H7.25a3.25,3.25,0,0,1-3.4-3.08V40.06H0v5a7.06,7.06,0,0,0,6.84,7.28H20.5a4.91,4.91,0,0,0,5-4.79V28.93H21.68Z"/><path class="cls-2" d="M32,52.8a3.26,3.26,0,0,1-3.11,3.4H27v3.88h1.65a7.13,7.13,0,0,0,7.28-7c0-.1,0-.21,0-.31V36.14H32Z"/><path class="cls-2" d="M78.49,55.09a2.33,2.33,0,1,0-.29,4.65h.29a2.33,2.33,0,1,0,.28-4.65,1.31,1.31,0,0,0-.28,0"/><path class="cls-2" d="M94.21,47a1.4,1.4,0,0,1-1.3,1.51H88.38c-.7-.1-1.5-.21-3.43-4.55-3.37-7.26-8.69-10.09-14.76-7.86v3.53c5-2,8.06,0,10.51,4.79a27.45,27.45,0,0,0,2.16,4h-15a2.06,2.06,0,0,1-2.15-2,.67.67,0,0,1,0-.2V42.55a7.24,7.24,0,0,0-7.07-7.41h-.69a7.24,7.24,0,0,0-7.38,7.09v4.1a2.08,2.08,0,0,1-2,2.19h-3a1.42,1.42,0,0,1-1.42-1.41.41.41,0,0,1,0-.11V28.93H40.37V48.36a4,4,0,0,0,3.94,4h4.12a5.44,5.44,0,0,0,4.41-2.13,8.72,8.72,0,0,0,5.63,2,6.44,6.44,0,0,0,4.85-2.23,5.28,5.28,0,0,0,4.52,2.33H94.05a4,4,0,0,0,4-3.92.48.48,0,0,0,0-.12V28.92H94.19ZM61.84,44.88a3.45,3.45,0,0,1-3.34,3.53,5,5,0,0,1-4-1.85v-4A3.35,3.35,0,0,1,57.61,39h.75a3.35,3.35,0,0,1,3.53,3.16,2.41,2.41,0,0,1,0,.38Z"/><rect class="cls-2" x="102.71" y="28.93" width="3.88" height="23.46"/><path class="cls-2" d="M118.45,35.16h-.37a7.23,7.23,0,0,0-7.39,7.05v2.73a7.34,7.34,0,0,0,7.15,7.42h4.08V53c0,2.73-2.06,4.21-8.74,3v3.61c8.2,1.91,12.61-1,12.61-5.71V42.55a7.19,7.19,0,0,0-7-7.39h-.35m3.47,13.32h-4a3.53,3.53,0,0,1-3.3-3.53v-2.4A3.36,3.36,0,0,1,117.72,39h.75A3.33,3.33,0,0,1,122,42.17c0,.13,0,.25,0,.38Z"/><path class="cls-2" d="M140.68,32.43a2.34,2.34,0,1,0-2.35-2.35,2.35,2.35,0,0,0,2.35,2.35Z"/><path class="cls-2" d="M147.29,32.43a2.32,2.32,0,1,0,0-4.64A2.38,2.38,0,0,0,145,30.11a2.33,2.33,0,0,0,2.32,2.32"/><path class="cls-2" d="M160.32,56.2a2.35,2.35,0,1,0,2.36,2.34v0a2.38,2.38,0,0,0-2.36-2.32"/><path class="cls-2" d="M175.66,55.59a2.35,2.35,0,1,0,2.21,2.2,2.35,2.35,0,0,0-2.21-2.2"/><path class="cls-2" d="M177.18,48.35V36.42h-3.9V47A1.42,1.42,0,0,1,172,48.53h-7.1c-2,0-2.59-1.24-2.59-2.76V45.2c0-.32,0-.63,0-1V36.44h-3.91v9.41a2.33,2.33,0,0,1-2.57,2.65H153.1a2.08,2.08,0,0,1-2.19-2V35.14h-7.66a7.21,7.21,0,0,0-7.35,7.06c0,.11,0,.23,0,.35v2.33a7.31,7.31,0,0,0,7.18,7.41,6.65,6.65,0,0,0,5.25-2.16,6,6,0,0,0,4.82,2.26h2.65a5.7,5.7,0,0,0,4.55-1.89,5.57,5.57,0,0,0,4,1.89h8.76a4,4,0,0,0,4.05-3.94Zm-30-1.82a4.89,4.89,0,0,1-4,1.85,3.38,3.38,0,0,1-3.3-3.49V42.55A3.31,3.31,0,0,1,142.93,39h4.22Z"/><path class="cls-2" d="M169.06,55.59a2.35,2.35,0,0,0-.29,4.69h.29a2.35,2.35,0,0,0,0-4.69"/><path class="cls-2" d="M209.29,33.18a2.34,2.34,0,1,0-2.35-2.36,2.35,2.35,0,0,0,2.35,2.36"/><path class="cls-2" d="M223.31,47A1.41,1.41,0,0,1,222,48.51h-3.95v-3c0-6.9-2.86-10.15-8.59-10.15-3.74,0-7,2.56-9.61,5.57V37.09H196V48.52h-5.36V36.15h-3.91V52.8a3.23,3.23,0,0,1-3.06,3.4h-2v3.88h1.69a7.12,7.12,0,0,0,7.28-7,1.6,1.6,0,0,0,0-.31v-.41h32.55a4,4,0,0,0,4-4V28.92h-3.88Zm-9,1.52H199.85V44.66c3-3.53,6.07-5.4,9.13-5.4s5.3,1.82,5.3,6.31Z"/><rect class="cls-2" x="231.8" y="28.93" width="3.88" height="23.46"/><path class="cls-2" d="M247.53,35.16h-.37a7.22,7.22,0,0,0-7.38,7.05,1.93,1.93,0,0,0,0,.34v2.39a7.32,7.32,0,0,0,7.15,7.42H251V53c0,2.73-2.05,4.21-8.72,3v3.61c8.18,1.91,12.6-1,12.6-5.71V42.55a7.18,7.18,0,0,0-7-7.38h-.35M251,48.48h-4a3.53,3.53,0,0,1-3.3-3.53v-2.4A3.35,3.35,0,0,1,246.8,39h.75A3.32,3.32,0,0,1,251,42.17a2.41,2.41,0,0,1,0,.38Z"/><path class="cls-2" d="M276.31,32.91a2.35,2.35,0,1,0-2.2-2.2,2.34,2.34,0,0,0,2.2,2.2"/><path class="cls-2" d="M269.71,32.91a2.35,2.35,0,1,0-2.36-2.38,2.35,2.35,0,0,0,2.36,2.38Z"/><path class="cls-2" d="M272.6,35.14h-.53a7.2,7.2,0,0,0-7.22,7.18v2.86a7.14,7.14,0,0,0,7.09,7.18h1a6.9,6.9,0,0,0,6.88-6.92V42.32a7.15,7.15,0,0,0-7.14-7.18Zm3.31,10.45a2.89,2.89,0,0,1-2.84,2.89h-1a3.34,3.34,0,0,1-3.3-3.34V42.32a3.2,3.2,0,0,1,3.1-3.3.67.67,0,0,1,.2,0h.54a3.19,3.19,0,0,1,3.3,3.1.67.67,0,0,1,0,.2Z"/><path class="cls-2" d="M320.92,33.08a2.35,2.35,0,1,0-2.32-2.38v0a2.36,2.36,0,0,0,2.32,2.36"/><path class="cls-2" d="M328.91,47a1.41,1.41,0,0,1-1.3,1.51h-4.67V36.15H319V52.8A3.24,3.24,0,0,1,316,56.2h-2v3.88h1.68a7.13,7.13,0,0,0,7.28-7v-.71h5.83a4,4,0,0,0,4-3.92V28.92h-3.88Z"/><rect class="cls-2" x="337.4" y="28.93" width="3.88" height="23.46"/><path class="cls-2" d="M356.81,32.43a2.34,2.34,0,1,0-2.36-2.35,2.33,2.33,0,0,0,2.36,2.35Z"/><path class="cls-2" d="M363.41,32.43a2.32,2.32,0,1,0,0-4.64,2.38,2.38,0,0,0-2.32,2.32,2.35,2.35,0,0,0,2.32,2.32"/><path class="cls-2" d="M379.12,31.26h-3.54a2.23,2.23,0,0,1-1.21-1.92,1.09,1.09,0,0,1,.92-1.24.81.81,0,0,1,.22,0,1.44,1.44,0,0,1,1.42,1.41h2c-.17-2.36-1.48-3.53-3.43-3.53a2.94,2.94,0,0,0-3.2,2.67,2.69,2.69,0,0,0,0,.49,3.17,3.17,0,0,0,.81,2.16h-1.22v2.2h7.22Z"/><path class="cls-2" d="M385,55.53a2.34,2.34,0,1,0,2.34,2.35v0A2.38,2.38,0,0,0,385,55.53"/><path class="cls-2" d="M391.65,55.53A2.34,2.34,0,1,0,394,57.88v0a2.34,2.34,0,0,0-2.33-2.32"/><path class="cls-2" d="M404.36,35.74v2a6.05,6.05,0,0,0-4.66,5.9v1.76a4.7,4.7,0,0,0,1.19,3.14H393.5c-1.95,0-2.59-1.25-2.59-2.76v-.58c0-.31,0-.63,0-.94V36.44H387v9.41c0,1.45-.6,2.65-2.56,2.65H380.3c-2,0-2.6-1.25-2.6-2.76v-9.3h-3.87v9.31c0,1.52-.54,2.77-2.57,2.77h-1.93a2.09,2.09,0,0,1-2.19-2V35.14h-7.72a7.21,7.21,0,0,0-7.35,7.06c0,.11,0,.23,0,.35v2.33a7.31,7.31,0,0,0,7.18,7.41,6.65,6.65,0,0,0,5.25-2.16,6,6,0,0,0,4.82,2.26h2a5.74,5.74,0,0,0,4.55-1.89,5.47,5.47,0,0,0,4,1.89h4.62A5.74,5.74,0,0,0,389,50.5a5.57,5.57,0,0,0,4,1.89h21.6a7.24,7.24,0,0,0,7.25-7.23V42.82c-.15-5.53-7-9.64-17.51-7.08M363.25,46.53a4.89,4.89,0,0,1-4,1.85,3.4,3.4,0,0,1-3.31-3.49V42.55A3.33,3.33,0,0,1,359,39h4.22Zm46.3,2h-3.37A3.38,3.38,0,0,1,403,45.28V43.77c0-2,1.15-3.16,3.31-3.16a2.94,2.94,0,0,1,3.23,2.65,2.9,2.9,0,0,1,0,.51Zm4.95,0h-1.65V43.86a5,5,0,0,0-4-5.19c5.1-.5,8.94,1.48,9,4.15v2.23a3.47,3.47,0,0,1-3.44,3.47"/><path class="cls-2" d="M311.93,46a6.43,6.43,0,0,1-6.41,6.42H288a4,4,0,0,1-4-3.91V28.92h3.86V47a1.41,1.41,0,0,0,1.32,1.5h16.11a2.87,2.87,0,0,0,2.81-2.92.81.81,0,0,1,0-.16c0-2.11-1.59-3.2-3.71-3.2h-10.1l-.75-2.88,5.94-10.47,3.64,1.39-4.62,8.08h5.92a7.51,7.51,0,0,1,7.53,7.49Z"/><polygon class="cls-2" points="14.2 86.56 14.2 89.64 0 89.64 0 87.17 9.19 73.57 0.56 73.57 0.56 70.53 13.81 70.53 13.81 73.01 4.69 86.56 14.2 86.56"/><path class="cls-2" d="M18.3,78.29,17.71,76c4.55-1.9,10.74-2,10.74,4v9.61H25V87.82a5.87,5.87,0,0,1-4.41,2,3.6,3.6,0,0,1-3.78-3.44,2.81,2.81,0,0,1,0-.41c0-3.18,3.1-5.36,8.24-5.15V80c0-3.36-3.57-3-6.78-1.74M20,85.53c0,1.14.93,1.7,2.07,1.7a4.18,4.18,0,0,0,3-1.31V82.73C21.6,82.37,20,84.19,20,85.53"/><path class="cls-2" d="M47.48,78.29,46.89,76c4.52-1.9,10.7-2,10.7,4v9.61H54.21V87.82a5.87,5.87,0,0,1-4.42,2A3.6,3.6,0,0,1,46,86.34a2.81,2.81,0,0,1,0-.41c0-3.18,3.1-5.36,8.24-5.15V80c0-3.36-3.57-3-6.78-1.74m1.67,7.24c0,1.14.92,1.7,2.07,1.7a4.18,4.18,0,0,0,3-1.31V82.73c-3.47-.36-5.09,1.46-5.09,2.8"/><path class="cls-2" d="M65.19,86a1.28,1.28,0,0,0,1.13,1.43h.29a5.93,5.93,0,0,0,1.26-.14V89.7a18.1,18.1,0,0,1-2.65.22c-2.59,0-3.43-1.35-3.43-3.63V78.43H60l.45-2.55H61.8v-3.4l3.39-.84v4.24H68l-.45,2.55h-2.4Z"/><path class="cls-2" d="M73,94.24H71a38.67,38.67,0,0,0,1.11-6l.07-1h2.5l-.1,1A30.1,30.1,0,0,1,73,94.24"/><polygon class="cls-2" points="88.13 73.57 88.13 89.64 84.45 89.64 84.45 73.57 79.22 73.57 79.22 70.52 93.35 70.52 93.35 73.57 88.13 73.57"/><path class="cls-2" d="M97.6,78.29,97,76c4.53-1.9,10.71-2,10.71,3.93v9.61h-3.39V87.81a5.92,5.92,0,0,1-4.41,2,3.63,3.63,0,0,1-3.78-3.44c0-.14,0-.28,0-.42,0-3.18,3.1-5.36,8.24-5.14V80c0-3.35-3.53-3-6.79-1.73m1.68,7.24c0,1.14.89,1.7,2.07,1.7a4.14,4.14,0,0,0,3-1.31V82.73c-3.5-.36-5.08,1.46-5.08,2.8"/><polygon class="cls-2" points="114.59 75.57 116.57 78.56 117.71 80.65 118.92 78.51 120.88 75.57 124.41 75.57 119.83 82.45 124.55 89.65 120.5 89.65 118.53 86.67 117.35 84.52 116.18 86.69 114.28 89.63 110.53 89.63 115.29 82.43 110.58 75.57 114.59 75.57"/><path class="cls-2" d="M134.64,78.29,134.06,76c4.52-1.9,10.7-2,10.7,3.93v9.61h-3.39V87.81a5.92,5.92,0,0,1-4.41,2,3.61,3.61,0,0,1-3.78-3.44c0-.14,0-.28,0-.42,0-3.18,3.09-5.36,8.24-5.14V80c0-3.35-3.57-3-6.79-1.73m1.68,7.24c0,1.14.88,1.7,2.07,1.7a4.18,4.18,0,0,0,3-1.31V82.73c-3.46-.36-5.09,1.46-5.09,2.8"/><path class="cls-2" d="M148.39,89.57v-14h3.38v1.29a7.31,7.31,0,0,1,4.58-1.57c2.79,0,4.22,1.62,4.22,4.55v9.72h-3.38V81c0-1.54-.7-2.41-2.29-2.41a5.55,5.55,0,0,0-3.13,1.28v9.72Z"/><path class="cls-2" d="M169.23,89.8c-3.69,0-5.42-3.13-5.42-7.32s1.9-7.32,5.61-7.32a5,5,0,0,1,3.64,1.59V70.41h3.35V89.57h-3.35V88.13a5.29,5.29,0,0,1-3.83,1.67m1.22-11.9c-2,0-3.12,1.65-3.12,4.58s1.14,4.58,3.12,4.58a4.2,4.2,0,0,0,2.61-1V78.85a4.44,4.44,0,0,0-2.61-.95"/><path class="cls-2" d="M194.73,89.91c-6.11,0-8.63-4-8.63-9.83s2.52-9.81,8.63-9.81a15.55,15.55,0,0,1,6.46,1.46v2.81a21.7,21.7,0,0,0-6.06-1.23c-3.53,0-5.35,2.3-5.35,6.8s1.85,6.75,5.35,6.75a21,21,0,0,0,6.06-1.2v2.83a15.83,15.83,0,0,1-6.46,1.42"/><path class="cls-2" d="M216.94,75.57V89.7h-3.38V88.33A7.17,7.17,0,0,1,209,90c-2.81,0-4.21-1.64-4.21-4.55V75.57h3.39v8.69c0,1.53.69,2.4,2.28,2.4a5.72,5.72,0,0,0,3.13-1.28V75.57Z"/><path class="cls-2" d="M220.15,88.81V86.3A12.61,12.61,0,0,0,225,87.47c2.1,0,2.65-1,2.65-1.7,0-1.12-1.34-1.54-2.88-2.1-2-.67-4.36-1.56-4.36-4.35s2.14-4.64,6.1-4.64a10.58,10.58,0,0,1,4.78,1.14v2.49a7.94,7.94,0,0,0-3.89-1.12c-2.2,0-3.12,1-3.12,1.85,0,1.17,1.51,1.61,3.19,2.23,2,.7,4.13,1.62,4.13,4.14,0,2.93-2.49,4.61-5.9,4.61a13.7,13.7,0,0,1-5.56-1.21"/><path class="cls-2" d="M238.56,86a1.29,1.29,0,0,0,1.13,1.43h.3a6,6,0,0,0,1.26-.14V89.7a18.22,18.22,0,0,1-2.65.22c-2.61,0-3.44-1.35-3.44-3.63V78.43h-1.77l.45-2.55h1.35v-3.4l3.37-.84v4.24h2.85L241,78.43h-2.4Z"/><path class="cls-2" d="M243.67,82.48c0-4.13,2.07-7.32,6.57-7.32s6.56,3.19,6.56,7.32-2.06,7.32-6.56,7.32-6.57-3.19-6.57-7.32m3.13,0c0,2.74,1.09,4.89,3.44,4.89s3.38-2.15,3.38-4.89-1-4.89-3.38-4.89-3.44,2.15-3.44,4.89"/><path class="cls-2" d="M280.88,79.82v9.72h-3.39v-8.6c0-1.53-.7-2.4-2.3-2.4a5.3,5.3,0,0,0-3.07,1.32,6.52,6.52,0,0,1,.06,1.08v8.63h-3.36V80.94c0-1.53-.69-2.4-2.28-2.4a5.11,5.11,0,0,0-3,1.28v9.72h-3.38v-14h3.38v1.85A6,6,0,0,1,268,75.28a3.57,3.57,0,0,1,3.74,2.31,6.87,6.87,0,0,1,4.92-2.31c2.83,0,4.23,1.61,4.23,4.54"/><path class="cls-2" d="M284.09,88.81V86.3A12.62,12.62,0,0,0,289,87.47c2.09,0,2.65-1,2.65-1.7,0-1.12-1.34-1.54-2.88-2.1-2-.67-4.35-1.56-4.35-4.35s2.12-4.64,6.09-4.64a10.54,10.54,0,0,1,4.77,1.14v2.49a7.91,7.91,0,0,0-3.88-1.12c-2.21,0-3.14,1-3.14,1.85,0,1.17,1.52,1.61,3.19,2.23,2,.7,4.14,1.62,4.14,4.14,0,2.93-2.48,4.61-5.89,4.61a13.72,13.72,0,0,1-5.57-1.21"/><path class="cls-2" d="M309.09,85l-1.47,4.6H304l7.12-19.25h3L321,89.63h-3.75l-1.5-4.6Zm.68-2.74h5.39l-2.65-8.05Z"/><path class="cls-2" d="M335.94,75.57V89.7h-3.38V88.33A7.22,7.22,0,0,1,328,90c-2.82,0-4.22-1.64-4.22-4.55V75.57h3.39v8.69c0,1.53.69,2.4,2.28,2.4a5.72,5.72,0,0,0,3.13-1.28V75.57Z"/><path class="cls-2" d="M343.54,86a1.29,1.29,0,0,0,1.12,1.43H345a5.84,5.84,0,0,0,1.25-.14V89.7a18.1,18.1,0,0,1-2.65.22c-2.6,0-3.44-1.35-3.44-3.63V78.43h-1.76l.45-2.55h1.37v-3.4l3.38-.84v4.24h2.8l-.44,2.55h-2.39Z"/><path class="cls-2" d="M361.11,79.82v9.72h-3.38v-8.6c0-1.56-.73-2.34-2.07-2.37a5.92,5.92,0,0,0-3.35,1.25v9.72h-3.38v-19h3.38v6.19a7.34,7.34,0,0,1,4.25-1.59c2.65,0,4.55,1.58,4.55,4.7"/><path class="cls-2" d="M364.35,82.48c0-4.13,2.07-7.32,6.57-7.32s6.56,3.19,6.56,7.32-2.06,7.32-6.56,7.32-6.57-3.19-6.57-7.32m3.13,0c0,2.74,1.09,4.89,3.44,4.89s3.37-2.15,3.37-4.89-1-4.89-3.37-4.89-3.44,2.15-3.44,4.89"/><path class="cls-2" d="M380.81,89.57v-14h3.37v2.65A5.3,5.3,0,0,1,389,75.57v2.65c-1.9-.23-4.32,1.27-4.75,2.56v8.84Z"/><path class="cls-2" d="M391.31,72.54a1.77,1.77,0,1,1,1.77,1.76,1.77,1.77,0,0,1-1.77-1.76m3.49,17h-3.39V75.92h3.38Z"/><path class="cls-2" d="M403.35,86a1.28,1.28,0,0,0,1.11,1.43h.31a5.86,5.86,0,0,0,1.26-.14V89.7a18,18,0,0,1-2.65.22c-2.59,0-3.43-1.35-3.43-3.63V78.43h-1.77l.44-2.55H400v-3.4l3.38-.84v4.24h2.85l-.45,2.55h-2.4Z"/><polygon class="cls-2" points="421.96 75.57 415.16 94.68 411.95 94.68 413.38 90.62 407.79 75.61 411.59 75.61 414.92 86.51 418.32 75.57 421.96 75.57"/><polygon class="cls-2" points="43.79 89.56 39.82 89.56 35.36 83.1 35.36 89.56 31.99 89.56 31.99 70.52 35.36 70.52 35.36 81.37 39.58 75.23 43.36 75.23 38.32 82.02 43.79 89.56"/><g class="cls-10"><rect class="cls-11" x="433.87" y="-10.99" width="54.33" height="53.12" transform="translate(105.22 309.15) rotate(-41.46)"/></g><g class="cls-12"><rect class="cls-13" x="434.81" y="-8.29" width="43.73" height="42.77" transform="translate(105.76 305.65) rotate(-41.46)"/></g><g class="cls-14"><rect class="cls-15" x="435.9" y="-3.83" width="30.76" height="30.1" transform="translate(105.67 301.62) rotate(-41.46)"/></g><g class="cls-16"><rect class="cls-17" x="437.38" y="4.07" width="13.39" height="13.13" transform="translate(104.25 296.7) rotate(-41.46)"/></g><g class="cls-18"><rect class="cls-19" x="437.54" y="2.51" width="102.47" height="100.43" transform="translate(87.58 336.85) rotate(-41.46)"/></g><g class="cls-20"><rect class="cls-21" x="440.38" y="8.64" width="99.33" height="97.36" transform="translate(84.86 338.84) rotate(-41.46)"/></g><g class="cls-22"><rect class="cls-23" x="443.57" y="14.87" width="95.81" height="93.92" transform="translate(82.22 340.9) rotate(-41.46)"/></g><g class="cls-24"><rect class="cls-25" x="447.08" y="21.15" width="91.93" height="90.12" transform="translate(79.72 343.05) rotate(-41.46)"/></g><g class="cls-26"><rect class="cls-27" x="451.02" y="27.54" width="87.64" height="85.94" transform="translate(77.32 345.32) rotate(-41.46)"/></g><g class="cls-28"><rect class="cls-29" x="455.79" y="34.36" width="82.34" height="80.75" transform="translate(75.06 347.78) rotate(-41.46)"/></g><g class="cls-30"><rect class="cls-31" x="460.17" y="40.74" width="77.57" height="76.14" transform="translate(72.86 350.12) rotate(-41.46)"/></g><g class="cls-32"><rect class="cls-33" x="465.03" y="48.06" width="71.4" height="70.1" transform="translate(70.47 352.4) rotate(-41.47)"/></g><g class="cls-34"><rect class="cls-35" x="432.2" y="-12.32" width="65.31" height="64.11" transform="translate(103.43 312.74) rotate(-41.46)"/></g><g class="cls-36"><rect class="cls-37" x="431.43" y="-13.22" width="73.56" height="72.19" transform="translate(102.19 315.75) rotate(-41.46)"/></g><g class="cls-38"><rect class="cls-39" x="430.73" y="-13.6" width="81.17" height="79.63" transform="translate(100.76 318.64) rotate(-41.46)"/></g><g class="cls-40"><rect class="cls-41" x="430.25" y="-13.54" width="88.34" height="86.61" transform="translate(99.19 321.59) rotate(-41.46)"/></g><g class="cls-42"><rect class="cls-43" x="430.22" y="-12.6" width="93.71" height="91.86" transform="translate(97.49 324.24) rotate(-41.46)"/></g><g class="cls-44"><rect class="cls-45" x="430.66" y="-11.98" width="99.22" height="97.25" transform="translate(96.09 327.19) rotate(-41.46)"/></g><g class="cls-46"><rect class="cls-47" x="431.62" y="-10.59" width="103.44" height="101.37" transform="translate(94.58 330.09) rotate(-41.46)"/></g><g class="cls-48"><rect class="cls-49" x="432.96" y="-8.89" width="106.82" height="104.68" transform="translate(93.12 332.93) rotate(-41.46)"/></g><g class="cls-50"><rect class="cls-51" x="435.04" y="-3.54" width="105.22" height="103.11" transform="translate(90.41 334.9) rotate(-41.46)"/></g><g class="cls-52"><rect class="cls-53" x="470.67" y="58.63" width="61.95" height="60.67" transform="translate(67.12 354.95) rotate(-41.53)"/></g><g class="cls-54"><rect class="cls-55" x="475.54" y="70.01" width="52.31" height="51.17" transform="translate(61.91 355.25) rotate(-41.35)"/></g><g class="cls-56"><rect class="cls-57" x="493.05" y="87.45" width="23.53" height="23.05" transform="translate(60.45 358.16) rotate(-41.35)"/></g></g></g></svg>