<svg xmlns="http://www.w3.org/2000/svg" viewBox="0 0 2051.04 312.45"><defs><style>.cls-1{fill:#fff;}.cls-2{fill:#bcbec0;}.cls-3{fill:#f1f2f2;}.cls-4{fill:#6394f7;}.cls-5{fill:#e8932e;}</style></defs><g id="Layer_2" data-name="Layer 2"><g id="Layer_1-2" data-name="Layer 1"><path class="cls-1" d="M1194.18,177.3a883.59,883.59,0,0,1,122-20.74c82.87-8.44,211.33-10.48,352.71,27.74,248.94,67.29,325,14.37,340,.28H2051V168.44h-45.61l-3.86-.09-2.42,3.09c-.14.18-14.85,17.33-61.86,25.65-43.89,7.77-125.37,9.16-264.18-28.37-94.22-25.47-182.75-33.36-256.29-33.36a1014.38,1014.38,0,0,0-102.27,5.14c-53.21,5.42-94.59,13.87-120.37,20.14Z"/><path class="cls-2" d="M1668.9,184.3c248.94,67.29,325,14.37,340,.28H2051v-5.05h-42.18c-15,14.1-91,67-340-.27-141.38-38.22-269.84-36.19-352.71-27.75-54.7,5.58-97.1,14.55-122,20.75v5a883.59,883.59,0,0,1,122-20.74C1399.06,148.12,1527.52,146.08,1668.9,184.3Z"/><path class="cls-1" d="M856.86,177.3a883.67,883.67,0,0,0-122-20.74C652,148.12,523.52,146.08,382.15,184.3c-248.95,67.29-325,14.37-340,.28H0V168.44H45.61l3.86-.09,2.42,3.09c.15.18,14.85,17.33,61.86,25.65,43.9,7.77,125.37,9.16,264.19-28.37,94.21-25.47,182.74-33.36,256.29-33.36a1014,1014,0,0,1,102.26,5.14c53.21,5.42,94.59,13.87,120.37,20.14Z"/><path class="cls-2" d="M382.15,184.3c-248.95,67.29-325,14.37-340,.28H0v-5.05H42.18c15,14.1,91,67,340-.27C523.52,141,652,143.07,734.86,151.51c54.69,5.58,97.09,14.55,122,20.75v5a883.67,883.67,0,0,0-122-20.74C652,148.12,523.52,146.08,382.15,184.3Z"/><path class="cls-2" d="M1105.32,193.08a8.45,8.45,0,0,0-8.45-8.45h-70.49a8.44,8.44,0,0,0-8.44,8.45h0a8.44,8.44,0,0,0,8.44,8.43h70.49a8.44,8.44,0,0,0,8.45-8.43Z"/><path class="cls-3" d="M1026.38,193.08h70.49a8.39,8.39,0,0,0,7.27-4.23,8.29,8.29,0,0,1,1.18,4.23,8.44,8.44,0,0,1-8.45,8.43h-70.49a8.39,8.39,0,0,1-7.27-12.66A8.4,8.4,0,0,0,1026.38,193.08Z"/><path class="cls-2" d="M1105.32,117.59a8.44,8.44,0,0,0-8.45-8.44h-70.49a8.44,8.44,0,0,0-8.44,8.44h0a8.44,8.44,0,0,0,8.44,8.44h70.49a8.44,8.44,0,0,0,8.45-8.44Z"/><path class="cls-3" d="M1026.38,117.59h70.49a8.4,8.4,0,0,0,7.27-4.22,8.34,8.34,0,0,1,1.18,4.22,8.44,8.44,0,0,1-8.45,8.44h-70.49a8.39,8.39,0,0,1-7.27-12.66A8.41,8.41,0,0,0,1026.38,117.59Z"/><path class="cls-3" d="M1252.62,173.16h-68V137.51h68a16.07,16.07,0,0,1,16.08,16.07v3.51A16.07,16.07,0,0,1,1252.62,173.16Z"/><path class="cls-2" d="M1252.62,173.16h-68V162.24h60.22a16.07,16.07,0,0,0,16.08-16.07v-3.51a16.07,16.07,0,0,0-.3-3,16.06,16.06,0,0,1,8.12,14v3.51A16.07,16.07,0,0,1,1252.62,173.16Z"/><path class="cls-3" d="M1155,228.64h-69.39a16.78,16.78,0,0,1-16.79-16.79v-113A16.79,16.79,0,0,1,1085.61,82H1155Z"/><rect class="cls-2" x="1133.57" y="82.02" width="24.38" height="146.61"/><path class="cls-3" d="M1170.22,89.92c0-7.17-5.48-13-12.23-13h0c-6.76,0-12.24,5.81-12.24,13V220.74c0,7.17,5.48,13,12.24,13h0c6.75,0,12.23-5.81,12.23-13Z"/><path class="cls-2" d="M1158,233.72a11.7,11.7,0,0,1-6.12-1.74,13.15,13.15,0,0,0,6.12-11.24V89.92a13.13,13.13,0,0,0-6.12-11.23,11.61,11.61,0,0,1,6.12-1.75c6.75,0,12.23,5.81,12.23,13V220.74C1170.22,227.91,1164.74,233.72,1158,233.72Z"/><path class="cls-3" d="M1194.38,200.49h-24.16V110.18h24.16a13.28,13.28,0,0,1,13.28,13.27V187.2A13.29,13.29,0,0,1,1194.38,200.49Z"/><path class="cls-2" d="M1194.38,200.49h-11.17a13.3,13.3,0,0,0,13.29-13.29V123.45a13.29,13.29,0,0,0-13.29-13.27h11.17a13.28,13.28,0,0,1,13.28,13.27V187.2A13.29,13.29,0,0,1,1194.38,200.49Z"/><rect class="cls-2" x="1068.82" y="146.49" width="28.72" height="17.68"/><rect class="cls-3" x="1068.82" y="155.33" width="28.72" height="8.84"/><path class="cls-4" d="M1101.61,146.49v17.68a4.06,4.06,0,0,1-4.06,4.06h-28.73a4.06,4.06,0,0,1-4.06-4.06V146.49a4.06,4.06,0,0,1,4.06-4.06h28.73A4.06,4.06,0,0,1,1101.61,146.49Zm-28.73,13.62h20.6v-9.56h-20.6Z"/><path class="cls-4" d="M1187.51,124a4.07,4.07,0,0,0-4.06,4.07V182.6a4.07,4.07,0,0,0,8.13,0V128.07A4.07,4.07,0,0,0,1187.51,124Z"/><path class="cls-4" d="M993.07,268.8l-19.83,19.83a2.56,2.56,0,1,0,3.62,3.62l19.83-19.83a2.56,2.56,0,1,0-3.62-3.62Z"/><path class="cls-4" d="M1023.52,279.28a2.56,2.56,0,0,0-2.56,2.56v28.05a2.56,2.56,0,0,0,5.12,0V281.84A2.56,2.56,0,0,0,1023.52,279.28Z"/><path class="cls-4" d="M1053.53,267.73a2.56,2.56,0,1,0-3.62,3.61l19.83,19.84a2.56,2.56,0,1,0,3.62-3.62Z"/><path class="cls-4" d="M1018.09,30.56a2.35,2.35,0,0,0,2.36-2.36V2.36a2.36,2.36,0,1,0-4.71,0V28.2A2.35,2.35,0,0,0,1018.09,30.56Z"/><path class="cls-4" d="M990.45,41.21a2.36,2.36,0,0,0,3.34-3.33L975.51,19.6a2.35,2.35,0,0,0-3.33,3.33Z"/><path class="cls-4" d="M1044.47,40.91a2.39,2.39,0,0,0,1.68-.69L1064.42,22a2.36,2.36,0,1,0-3.33-3.34l-18.28,18.28a2.36,2.36,0,0,0,1.66,4Z"/><path class="cls-3" d="M786.78,173.16h68V137.51h-68a16.07,16.07,0,0,0-16.08,16.07v3.51A16.08,16.08,0,0,0,786.78,173.16Z"/><path class="cls-2" d="M786.78,173.16h68V162.24H794.6a16.06,16.06,0,0,1-16.07-16.07v-3.51a16.93,16.93,0,0,1,.29-3,16.08,16.08,0,0,0-8.12,14v3.51A16.08,16.08,0,0,0,786.78,173.16Z"/><path class="cls-3" d="M845,200.49h24.15V110.18H845a13.27,13.27,0,0,0-13.28,13.27V187.2A13.28,13.28,0,0,0,845,200.49Z"/><path class="cls-2" d="M845,200.49h11.16a13.29,13.29,0,0,1-13.28-13.29V123.45a13.28,13.28,0,0,1,13.28-13.27H845a13.27,13.27,0,0,0-13.28,13.27V187.2A13.28,13.28,0,0,0,845,200.49Z"/><path class="cls-5" d="M851.89,124a4.07,4.07,0,0,1,4.06,4.07V182.6a4.06,4.06,0,0,1-8.12,0V128.07A4.07,4.07,0,0,1,851.89,124Z"/><path class="cls-3" d="M955.35,82H886a16.78,16.78,0,0,0-16.79,16.79v113A16.78,16.78,0,0,0,886,228.64h69.38Z"/><rect class="cls-2" x="933.93" y="82.03" width="24.37" height="146.61"/><path class="cls-3" d="M970.58,220.74c0,7.17-5.48,13-12.23,13h0c-6.76,0-12.24-5.81-12.24-13V89.92c0-7.17,5.48-13,12.24-13h0c6.75,0,12.23,5.81,12.23,13Z"/><path class="cls-2" d="M958.35,76.94a11.59,11.59,0,0,0-6.12,1.75,13.13,13.13,0,0,1,6.12,11.23V220.74A13.14,13.14,0,0,1,952.23,232a11.67,11.67,0,0,0,6.12,1.74c6.75,0,12.23-5.81,12.23-13V89.92C970.58,82.75,965.1,76.94,958.35,76.94Z"/><path class="cls-5" d="M922.72,178.35H894.58a4.07,4.07,0,0,0,0,8.13h28.14a4.07,4.07,0,1,0,0-8.13Z"/><path class="cls-5" d="M894.58,168.42h28.14a4.06,4.06,0,1,0,0-8.12H894.58a4.06,4.06,0,0,0,0,8.12Z"/><path class="cls-5" d="M894.58,150.36h28.14a4.06,4.06,0,1,0,0-8.12H894.58a4.06,4.06,0,1,0,0,8.12Z"/><path class="cls-5" d="M894.58,132.31h28.14a4.06,4.06,0,1,0,0-8.12H894.58a4.06,4.06,0,0,0,0,8.12Z"/></g></g></svg>