<svg xmlns="http://www.w3.org/2000/svg" viewBox="0 0 2613.35 721.94"><defs><style>.cls-1,.cls-12,.cls-17{fill:#fff;}.cls-2{fill:#f06060;}.cls-3{fill:#e6e6e6;}.cls-4{fill:#3d4a60;}.cls-5{fill:#eaeaea;}.cls-6{fill:#e6b89c;}.cls-7{fill:#e8932e;}.cls-8{fill:#cc9c81;}.cls-10,.cls-9{fill:#1a1a1a;}.cls-10{opacity:0.49;}.cls-11{fill:#3a302c;}.cls-12{opacity:0.43;}.cls-13{fill:#aedbed;opacity:0.36;}.cls-14{fill:#333;}.cls-15{fill:#fe938c;}.cls-16{fill:#161616;opacity:0.27;}.cls-17{opacity:0.19;}.cls-18{fill:#c67824;}.cls-19{fill:#f2f2f2;}.cls-20{fill:#cbcfd1;}.cls-21{fill:gray;}</style></defs><g id="Layer_2" data-name="Layer 2"><g id="Layer_1-2" data-name="Layer 1"><path class="cls-1" d="M1195.17,677l4.84-31.27-22.12-1.47-9.83,42.27s7.87,6.39,17.7,5.41S1195.17,677,1195.17,677Z"/><path class="cls-2" d="M1162.35,711.74a5.57,5.57,0,0,0,.09,2.08c.54,1.74,2.5,2.35,4.18,2.69,2.89.59,84.53,3,89.05-1.6a12.45,12.45,0,0,0,3.67-7.47,8.46,8.46,0,0,0-3.09-7.52c-3-2.11-6.89-1.32-10.36-2.08-1.91-.42-40.74-21.58-50.72-20.82-3.05.23-7,5.54-10,6.43s-7.49,2-9.2-.68c-1.48-2.34-1.67-5.3-3.64-7.2s-4.21-2-5.87.41-2,5.52-2.22,8.48C1163.64,692.34,1163,703.87,1162.35,711.74Z"/><path class="cls-3" d="M1257.66,712.23l-95.45.92s-1.25,8.45-1,8.45l79.3.34S1255,719.54,1257.66,712.23Z"/><path class="cls-4" d="M1209.93,680.83s-7.2-10.51-9.91-11c0,0-9.28,5.18-11,9,0,0-3,6.76,38.27,24l.82.34s9.26-2.33,7.41-11Z"/><path class="cls-4" d="M1162.21,713.15l1.39-18.5s15.94,3.76,28.25,14.39l4.81,3.76Z"/><path class="cls-4" d="M1249.84,698.29s8.92-.84,9.77,7.49a12.67,12.67,0,0,1-1.95,6.45l-43.45.35s4.5-6.51,7.92-6.86,26.39,4.41,28.89,2.63C1255.84,704.92,1249.84,698.29,1249.84,698.29Z"/><path class="cls-4" d="M1168.62,674s-4.55.24-4.59,13.32c0,0,3.31,3.19,6-1.6s7.17.11,7.17.11,1.92.69,1.17-1.37c0,0-1.86-.41-3.35-4.75S1171.4,674,1168.62,674Z"/><path class="cls-5" d="M1202.66,691.68a.94.94,0,0,1-.36-.08,1,1,0,0,1-.43-1.21c3.3-7.85,7.49-10.27,7.66-10.37a.83.83,0,0,1,1.16.38.94.94,0,0,1-.36,1.23s-3.87,2.29-6.89,9.51A.87.87,0,0,1,1202.66,691.68Z"/><path class="cls-5" d="M1209.5,695.33a.77.77,0,0,1-.35-.08.94.94,0,0,1-.43-1.21c3.3-7.84,7.49-10.27,7.66-10.37a.84.84,0,0,1,1.16.38,1,1,0,0,1-.36,1.24s-3.87,2.28-6.89,9.5A.87.87,0,0,1,1209.5,695.33Z"/><path class="cls-5" d="M1216.35,699a.93.93,0,0,1-.35-.08,1,1,0,0,1-.43-1.21c3.29-7.85,7.48-10.27,7.66-10.37a.83.83,0,0,1,1.16.38.94.94,0,0,1-.36,1.23s-3.87,2.29-6.89,9.51A.87.87,0,0,1,1216.35,699Z"/><path class="cls-1" d="M1299.37,675.05l4.85-31.26-22.12-1.48-9.83,42.28s7.87,6.39,17.7,5.4S1299.37,675.05,1299.37,675.05Z"/><path class="cls-6" d="M1445.9,316.2c-2.48-.4-61-10.12-84.83-27.17s-50.43-85.94-53.36-93.73l17.91-6.75c10.3,27.32,32.05,74.53,46.58,84.9,16.83,12,61.13,21.3,76.79,23.86Z"/><path class="cls-6" d="M1078,316.2c2.48-.4,61-10.12,84.83-27.17s50.43-85.94,53.36-93.73l-17.91-6.75c-10.3,27.32-32,74.53-46.58,84.9-16.83,12-61.13,21.3-76.79,23.86Z"/><path class="cls-4" d="M1318.09,352.18s35.34,167.31-7,300.08l-36.47-2.15S1303.35,590.56,1295,466l-9-77.65s-12.54-15.79-39,4c0,0,12.47,130.13-38.17,259.17h-38.56s52.16-95.8,40.82-299.26Z"/><rect class="cls-7" x="1204.47" y="179.83" width="116.27" height="187.75"/><rect class="cls-8" x="1251.37" y="155.48" width="19.28" height="25.51"/><path class="cls-6" d="M1219.22,118.17s4.78,35.07,19.28,38,41.77,6.75,56.47.72,10.29-17.34,10.29-17.34l-8.81-40.51s-.19-30.19-3.67-44.27-12.55-20-15.94-23.9-35.73-16.29-50.67-4.67-22,28.61-22.68,35.14c-1.31,11.95,8.93,36.25,8.93,36.25s-14.94-5.41-9.34,14.53C1207.37,127.45,1219.22,118.17,1219.22,118.17Z"/><path class="cls-9" d="M1251.4,84.8a5.73,5.73,0,0,0-6.75-4.37,5.59,5.59,0,0,0-4,6.9,5.74,5.74,0,0,0,6.75,4.37A5.59,5.59,0,0,0,1251.4,84.8Z"/><path class="cls-9" d="M1286.38,82.93a4.71,4.71,0,0,0-5.55-3.59,4.57,4.57,0,0,0-3.25,5.66,4.7,4.7,0,0,0,5.54,3.59A4.59,4.59,0,0,0,1286.38,82.93Z"/><path class="cls-10" d="M1274.38,111.05a11.21,11.21,0,0,1-8-1,.66.66,0,0,1-.27-.84.59.59,0,0,1,.8-.26,10.62,10.62,0,0,0,11.31-1c1.84-1.45,2.74-3.28,2.4-4.92-.93-4.48-8.53-4.13-8.61-4.12a.61.61,0,0,1-.52-.26.64.64,0,0,1-.09-.58c5-14.8-1.89-19.57-2.19-19.76a.66.66,0,0,1-.21-.86.58.58,0,0,1,.81-.19c.33.21,7.8,5.26,3,20.4,2.26,0,8,.6,9,5.15.44,2.11-.62,4.41-2.83,6.14A12,12,0,0,1,1274.38,111.05Z"/><path class="cls-11" d="M1233.31,74.79s12,2.83,20.3-2.87c0,0,1-3.73-1.62-6.07s-11.25,3.25-19,4.27C1227,70.91,1233.31,74.79,1233.31,74.79Z"/><path class="cls-11" d="M1294.4,69.76s-12.32,3.28-14.68,2.69-3.13-4-1.69-5.85c0,0,12.54-1.45,14.64-.09A3.31,3.31,0,0,1,1294.4,69.76Z"/><path class="cls-10" d="M1252.56,91.86a7.5,7.5,0,0,1-3.9,4.18,4.38,4.38,0,0,1-5.21-1.59,6.22,6.22,0,0,0,4.9.09A15,15,0,0,0,1252.56,91.86Z"/><path class="cls-10" d="M1278.15,90.19c2.17,2.07,5.61,1.92,8.11.5a5.11,5.11,0,0,1-5.33,2.48A5,5,0,0,1,1278.15,90.19Z"/><path class="cls-10" d="M1208.23,110.63a4.42,4.42,0,0,1,2.34-4.89,6,6,0,0,1,6.72.84,6.45,6.45,0,0,1,1.77,6.78c-.54-2.06-1.35-4.45-3.31-5.12a5.22,5.22,0,0,0-1.8-.2,5.84,5.84,0,0,0-3.82,1.08C1209.51,109.66,1209,110.45,1208.23,110.63Z"/><path class="cls-12" d="M1247.73,83.27a1.69,1.69,0,0,0-2-1.29,1.64,1.64,0,0,0-1.16,2,1.68,1.68,0,0,0,2,1.29A1.63,1.63,0,0,0,1247.73,83.27Z"/><path class="cls-12" d="M1284.92,82.36a1.28,1.28,0,0,0-1.51-1,1.25,1.25,0,0,0-.88,1.54,1.28,1.28,0,0,0,1.51,1A1.24,1.24,0,0,0,1284.92,82.36Z"/><path d="M1238.28,135.56c-6.8-1.31-14.1-7.86-16.81-15.56,0-.13-2.4-2-2.39-1.7.8,14.56,1.44,25.1,8.89,33.38,6.79,7.55,15.83,8,25.58,8.95,13.2,1.25,26.63,1.56,39.36-1.72,5-1.3,10.4-3.59,12.54-8.5,1.84-4.21.79-9.19-.28-13.78q-4-17-7.94-34,1.63,12.84,3.29,25.68c.41,3.23.83,6.53.25,9.69s-2.33,6.25-5.16,7.48c-5.28,2.29-11.36-2.84-13.39-8.56a60.66,60.66,0,0,1-10.6,1c1.44,4.51-1.75,9.43-6,10.91s-9,.2-13.1-2C1245.32,143,1241.13,143.46,1238.28,135.56Z"/><path d="M1251,115.05a19,19,0,0,0-12.89,17.5c0,8,6.16,15.92,13.78,16.75a33.63,33.63,0,0,1-6.53-20.86c.07-2.16.41-4.44,1.77-6,1.75-2,4.66-2.4,7.31-2.6q16.1-1.28,32.26-1.69a14.38,14.38,0,0,1,5.61.61c3.14,1.2,5.24,4.37,6.61,7.56s2.28,6.62,4.16,9.54a105.3,105.3,0,0,0-1.82-13.67,14.34,14.34,0,0,0-2-5.61c-2.78-3.89-8.14-4.09-12.7-3.92l-24.46,1C1258.36,113.73,1254.57,113.88,1251,115.05Z"/><path class="cls-13" d="M1229,80.78l27.91-3.59c4.42-.57,8,4,6.6,8.34l-2.4,7.43a5.78,5.78,0,0,1-4.74,4l-21.55,2.77a6.09,6.09,0,0,1-6-3l-4-6.6C1222.54,86.27,1224.71,81.33,1229,80.78Z"/><path class="cls-14" d="M1256.54,98.32,1235,101.09a7.41,7.41,0,0,1-7.25-3.66l-4-6.6a7.91,7.91,0,0,1-.77-6.51,6.93,6.93,0,0,1,5.76-4.88l27.91-3.6a7.34,7.34,0,0,1,6.68,2.83A7.94,7.94,0,0,1,1264.7,86l-2.4,7.42a7.07,7.07,0,0,1-4.37,4.56h0A7.22,7.22,0,0,1,1256.54,98.32Zm-31.09-13a5.06,5.06,0,0,0,.5,4.18l4,6.61a4.76,4.76,0,0,0,4.67,2.35l21.55-2.77a4.5,4.5,0,0,0,3.71-3.15l2.4-7.42a5.09,5.09,0,0,0-.87-4.73,4.74,4.74,0,0,0-4.3-1.82l-27.91,3.6a4.47,4.47,0,0,0-3.71,3.15Z"/><path class="cls-13" d="M1275.53,75l23.26-2c3.69-.31,7,4.34,6,8.55l-1.59,7.15a4.36,4.36,0,0,1-3.76,3.67l-18,1.52a5.71,5.71,0,0,1-5.18-3.28l-3.7-6.7C1270.44,80,1272,75.27,1275.53,75Z"/><path class="cls-14" d="M1299.69,93.71l-18,1.51c-2.38.2-4.86-1.36-6.31-4l-3.7-6.7a9.26,9.26,0,0,1-1-6.42c.58-2.54,2.25-4.27,4.58-4.46l23.26-2a6.63,6.63,0,0,1,5.77,3.14,9.37,9.37,0,0,1,1.54,7.27l-1.6,7.15a5.51,5.51,0,0,1-3.42,4.22h0A4.8,4.8,0,0,1,1299.69,93.71Zm-26.86-14.54a6,6,0,0,0,.65,4.14l3.7,6.69a4.47,4.47,0,0,0,4.06,2.57l18-1.51a3.4,3.4,0,0,0,2.94-2.88l1.6-7.14a6,6,0,0,0-1-4.68,4.27,4.27,0,0,0-3.71-2l-23.27,2a3.11,3.11,0,0,0-.76.16A3.55,3.55,0,0,0,1272.83,79.17Z"/><path class="cls-15" d="M1269,77.42s8.73,5.93,2.4,20.62c0,0,8.72-1.18,9.78,5s-10.18,9.71-14.8,7.07S1262.4,79.91,1269,77.42Z"/><path class="cls-12" d="M1273,100.38a4.56,4.56,0,0,1,3.2-.68,1.83,1.83,0,0,1,1.31.74,1.41,1.41,0,0,1-.14,1.55,2.48,2.48,0,0,1-1.32.84,5.12,5.12,0,0,1-2.49.13,2.09,2.09,0,0,1-1-.47,1,1,0,0,1-.31-1.07c.21-.57,1-.67,1.27-1.22l.61.34"/><path class="cls-16" d="M1282.28,140a15,15,0,0,1,2,8.72,41.35,41.35,0,0,0-2.63-3.56,14.54,14.54,0,0,1-1.41,4.15c-.73-1.61-1.46-3.21-2.2-4.82a4.74,4.74,0,0,1-2.36,4.24q-.26-4.17-.71-8.33a1,1,0,0,1,1.28.05c.39.29.66.71,1,1a.39.39,0,0,0,.31.13c.12,0,.19-.13.25-.23a12.05,12.05,0,0,0,.64-1.3.41.41,0,0,1,.22-.29c.16-.05.32.08.44.21l1.75,1.82A2.28,2.28,0,0,1,1282.28,140Z"/><path d="M1282.71,0a11.33,11.33,0,0,1-8.57,10,14.23,14.23,0,0,0,4.32-8.39c-4.62,5.23-11.82,7.18-18.6,8.87l-36.95,9.23a57,57,0,0,0-12.29,4.08c-12.1,6.21-18.31,21.94-13.73,34.74a8.7,8.7,0,0,0,2,3.52c.89.85,2.08,1.37,2.85,2.32,1.31,1.64,1,4,.79,6.09-1.44,12.77-.31,16.64,7,27.19,4.22-1.18,5.26,1.81,8.85,3-4.48-13.39-1.64-17.52-2.82-31.59a16.05,16.05,0,0,1,.47-6.84c1.17-3.22,4.2-5.4,7.27-6.91,6.56-3.23,13.91-4.32,21-6.21s14.24-4.88,18.64-10.71a12.21,12.21,0,0,1-2.45,8.12,70,70,0,0,0,21.9-9.51c5.7,4.47,9,13,10.73,19.17,8.06-6.81,9.72-19.79,6.72-29.9S1289.94,7.69,1282.71,0Z"/><path class="cls-17" d="M1245.62,25.54a12.44,12.44,0,0,0,5-6.07c-6.12,2-12.8.08-19.19.81A27.93,27.93,0,0,0,1215.76,28a44.92,44.92,0,0,0-9.91,14.66A31.43,31.43,0,0,1,1224,33.53c-.44,1.87,2.07,3,4,3,13,.63,25-7.37,34.14-16.7A119.47,119.47,0,0,1,1245.62,25.54Z"/><path class="cls-14" d="M1210.33,99.07a1.61,1.61,0,0,0,1.29,0l14.2-6.69-1.09-3-19.09,7.85Z"/><path class="cls-14" d="M1263.76,87.53,1262.59,86c.51-.37,5-3.62,7.42-3.76,2.72-.21,4.28,2.34,4.34,2.45l-.11,2.34c0-.06-2.54-2.89-4.13-2.83C1268.72,84.23,1265.48,86.26,1263.76,87.53Z"/><path class="cls-14" d="M1294.05,121.4a10.36,10.36,0,0,1-2.6.88c-12.62,3-25.62,3.88-38.56,4.76a70.71,70.71,0,0,0,18.78.28c2.35-.28,4.68-.67,7-1.07C1284,125.34,1289.52,124.37,1294.05,121.4Z"/><path class="cls-10" d="M1284.3,130.81a33.74,33.74,0,0,1-14.93,2.4,16.7,16.7,0,0,0,6.28.8,5.35,5.35,0,0,1-2.71.88A12.12,12.12,0,0,0,1284.3,130.81Z"/><path class="cls-2" d="M1266.56,709.78a5.59,5.59,0,0,0,.09,2.08c.54,1.73,2.5,2.34,4.18,2.69,2.89.59,84.53,3,89.05-1.6a12.41,12.41,0,0,0,3.66-7.47,8.46,8.46,0,0,0-3.08-7.53c-3-2.11-6.89-1.31-10.37-2.08-1.9-.42-40.73-21.58-50.72-20.82-3,.24-7,5.54-9.95,6.44s-7.5,2-9.2-.69c-1.48-2.34-1.67-5.3-3.64-7.19s-4.21-2-5.88.4-2,5.52-2.21,8.49C1267.85,690.37,1267.2,701.9,1266.56,709.78Z"/><path class="cls-3" d="M1361.87,710.27l-95.46.91s-1.24,8.45-1,8.45l79.3.34S1359.16,717.58,1361.87,710.27Z"/><path class="cls-4" d="M1314.14,678.86s-7.2-10.5-9.91-11c0,0-9.28,5.18-11,9,0,0-3,6.76,38.27,24l.82.34s9.26-2.32,7.41-11Z"/><path class="cls-4" d="M1266.41,711.18l1.4-18.5s15.94,3.77,28.25,14.39l4.81,3.77Z"/><path class="cls-4" d="M1354.05,696.32s8.92-.84,9.77,7.5a12.69,12.69,0,0,1-2,6.45l-43.45.34s4.5-6.51,7.92-6.85,26.39,4.41,28.89,2.62C1360.05,703,1354.05,696.32,1354.05,696.32Z"/><path class="cls-4" d="M1272.82,672.05s-4.54.25-4.59,13.32c0,0,3.32,3.2,6-1.6s7.17.12,7.17.12,1.92.68,1.17-1.37c0,0-1.86-.41-3.36-4.75S1275.61,672.05,1272.82,672.05Z"/><path class="cls-5" d="M1306.86,689.71a.77.77,0,0,1-.35-.08,1,1,0,0,1-.43-1.21c3.3-7.85,7.49-10.27,7.66-10.37a.84.84,0,0,1,1.16.38,1,1,0,0,1-.36,1.24s-3.87,2.28-6.89,9.5A.87.87,0,0,1,1306.86,689.71Z"/><path class="cls-5" d="M1313.71,693.36a.91.91,0,0,1-.35-.07,1,1,0,0,1-.43-1.21c3.29-7.85,7.48-10.27,7.66-10.37a.83.83,0,0,1,1.16.38.94.94,0,0,1-.36,1.23s-3.87,2.29-6.89,9.51A.86.86,0,0,1,1313.71,693.36Z"/><path class="cls-5" d="M1320.56,697a.89.89,0,0,1-.35-.08,1,1,0,0,1-.43-1.21c3.29-7.85,7.48-10.27,7.66-10.37a.82.82,0,0,1,1.15.38,1,1,0,0,1-.35,1.24s-3.87,2.28-6.9,9.5A.85.85,0,0,1,1320.56,697Z"/><path class="cls-18" d="M1320.74,179.83s12.4,7.85,28.35,54.1l-20.73,19.14-10.63-28.71S1313.12,186.87,1320.74,179.83Z"/><path class="cls-18" d="M1203.11,179.83s-12.4,7.85-28.35,54.1l20.73,19.14,10.63-28.71S1210.73,186.87,1203.11,179.83Z"/><path class="cls-6" d="M1447.71,298.52s6.38-9.3,14.88-14.88,21-14.62,21-14.62,4.25.26.27,5.58-12.76,12.76-12.76,12.76l24.45,11.16s-6.91,23.13-15.42,21.8-28.7,3.45-36.14-5.32S1447.71,298.52,1447.71,298.52Z"/><path class="cls-6" d="M1081,295.33s-6.38-9.3-14.89-14.88-21-14.62-21-14.62-4.25.26-.26,5.58,12.75,12.76,12.75,12.76l-24.45,11.16s6.91,23.13,15.42,21.8,28.7,3.45,36.15-5.32S1081,295.33,1081,295.33Z"/><path class="cls-1" d="M1433.11,347.61h-9.67c0-15.67,5.79-27,17.21-37.65,53.07-49.67,213.59-40.7,222.5-39.13h950.2v9.4H1662.83l-.15-.07c-1.65-.11-165-10.47-215.43,36.69C1437.74,325.76,1433.11,335.08,1433.11,347.61Z"/><path class="cls-19" d="M1417.26,344h24.46a18.65,18.65,0,0,1,18.65,18.65v29.15a0,0,0,0,1,0,0H1398.6a0,0,0,0,1,0,0V362.68A18.65,18.65,0,0,1,1417.26,344Z"/><rect class="cls-20" x="1421.3" y="338.66" width="15.17" height="6.11"/><rect class="cls-1" x="1392.69" y="390.49" width="74.32" height="10.88"/><rect class="cls-21" x="1144.55" y="393.04" width="6.98" height="30.62" rx="2.11"/><rect class="cls-21" x="1108.7" y="392.23" width="6.98" height="30.62" rx="2.11"/><path class="cls-1" d="M1126.29,347.61H1136c0-15.67-5.79-27-17.21-37.65-53.07-49.67-213.59-39.13-222.5-39.13H0v9.4H896.57l.16-.07c1.64-.11,165-10.47,215.42,36.69C1121.66,325.76,1126.29,335.08,1126.29,347.61Z"/><path class="cls-19" d="M1099,344h61.77a0,0,0,0,1,0,0v29.15a18.65,18.65,0,0,1-18.65,18.65h-24.46A18.65,18.65,0,0,1,1099,373.18V344A0,0,0,0,1,1099,344Z" transform="translate(2259.83 735.86) rotate(180)"/><rect class="cls-20" x="1122.93" y="338.66" width="15.17" height="6.11" transform="translate(2261.04 683.43) rotate(180)"/><rect class="cls-1" x="1092.38" y="390.49" width="74.32" height="10.88" transform="translate(2259.09 791.86) rotate(180)"/><path class="cls-8" d="M1491.65,310.87l.5-.8a3.41,3.41,0,0,0-1.16-4.74l-22.83-13.55a3.43,3.43,0,0,0-4.64,1.14l-.5.79a3.42,3.42,0,0,0,1.16,4.75L1487,312A3.45,3.45,0,0,0,1491.65,310.87Z"/><path class="cls-8" d="M1486,318.48l.51-.79a3.4,3.4,0,0,0-1-4.76L1464.8,300a3.44,3.44,0,0,0-4.67,1l-.52.79a3.41,3.41,0,0,0,1.05,4.76l20.69,12.93A3.44,3.44,0,0,0,1486,318.48Z"/><path class="cls-8" d="M1479.78,325.05l.53-.78a3.41,3.41,0,0,0-1-4.78L1462,308.22a3.45,3.45,0,0,0-4.69.95l-.53.79a3.41,3.41,0,0,0,1,4.78L1475.09,326A3.44,3.44,0,0,0,1479.78,325.05Z"/><path class="cls-8" d="M1495,303.21l.5-.79a3.42,3.42,0,0,0-1.16-4.75l-22.83-13.54a3.44,3.44,0,0,0-4.64,1.13l-.5.8a3.41,3.41,0,0,0,1.16,4.74l22.83,13.55A3.43,3.43,0,0,0,1495,303.21Z"/><path class="cls-8" d="M1037.9,307.91l-.48-.77a3.32,3.32,0,0,1,1.13-4.61l22.2-13.18a3.36,3.36,0,0,1,4.52,1.11l.48.77a3.32,3.32,0,0,1-1.13,4.61L1042.42,309A3.36,3.36,0,0,1,1037.9,307.91Z"/><path class="cls-8" d="M1043.37,315.32l-.5-.76a3.32,3.32,0,0,1,1-4.64L1064,297.35a3.34,3.34,0,0,1,4.54,1l.5.76a3.32,3.32,0,0,1-1,4.64l-20.12,12.57A3.35,3.35,0,0,1,1043.37,315.32Z"/><path class="cls-8" d="M1049.45,321.71l-.52-.76a3.32,3.32,0,0,1,1-4.65l16.88-11a3.34,3.34,0,0,1,4.56.93l.52.76a3.32,3.32,0,0,1-.94,4.65L1054,322.63A3.34,3.34,0,0,1,1049.45,321.71Z"/><path class="cls-8" d="M1034.68,300.47l-.48-.78a3.32,3.32,0,0,1,1.13-4.61l22.2-13.17a3.35,3.35,0,0,1,4.52,1.1l.48.78a3.32,3.32,0,0,1-1.13,4.61l-22.2,13.17A3.34,3.34,0,0,1,1034.68,300.47Z"/></g></g></svg>