<svg xmlns="http://www.w3.org/2000/svg" xmlns:xlink="http://www.w3.org/1999/xlink" viewBox="0 0 1024 858"><defs><style>.cls-1{font-size:80.3px;font-family:Roboto-Black, Roboto Black;font-weight:800;}.cls-1,.cls-10{fill:#e8932e;}.cls-2{letter-spacing:0em;}.cls-3{letter-spacing:0em;}.cls-4{fill:#dca86e;}.cls-5{fill:url(#linear-gradient);}.cls-6{fill:#2167be;}.cls-7{fill:url(#linear-gradient-2);}.cls-8{fill:#277fd9;}.cls-9{fill:#fec4ad;}.cls-11{fill:#f8d2a1;}.cls-12,.cls-15{fill:none;stroke-miterlimit:10;stroke-width:2px;}.cls-12{stroke:#d4dbe2;}.cls-13{fill:#ffba01;}.cls-14{fill:#d2dceb;}.cls-15{stroke:#a6aeba;}.cls-16{fill:#50cc85;}.cls-17{fill:#77e6a6;}.cls-18{fill:#f3ba7a;}.cls-19{fill:#a6aeba;}.cls-20{fill:#b6bfcc;}.cls-21{fill:#fff;}</style><linearGradient id="linear-gradient" x1="-1459.73" y1="-424.55" x2="-1403.16" y2="-424.55" gradientTransform="matrix(0.81, 0.59, -0.59, 0.81, 1514.16, 2015.69)" gradientUnits="userSpaceOnUse"><stop offset="0" stop-color="#343a44"/><stop offset="0.3" stop-color="#232d3e"/><stop offset="0.64" stop-color="#182439"/><stop offset="1" stop-color="#142138"/></linearGradient><linearGradient id="linear-gradient-2" x1="665.62" y1="832.12" x2="722.19" y2="832.12" gradientTransform="matrix(1, 0, 0, 1, 0, 0)" xlink:href="#linear-gradient"/></defs><g id="Layer_2" data-name="Layer 2"><g id="Layer_1-2" data-name="Layer 1"><text class="cls-1" transform="translate(369.61 339.4)">ER<tspan class="cls-2" x="82.71" y="0">R</tspan><tspan class="cls-3" x="126.15" y="0">OR 404</tspan></text><polygon class="cls-4" points="875.54 718.59 939.89 857.68 947.15 857.66 891.5 709.56 875.54 718.59"/><polygon class="cls-4" points="808.99 721.57 744.64 857.68 737.38 857.66 793.03 718.48 808.99 721.57"/><path class="cls-5" d="M645.48,827.87l-32.71,28.62-38.55-27.13s13.12-4.4,35.62,1.59l23-19.35Z"/><path class="cls-6" d="M834.81,670S762.53,707.06,737,718.14s-112.43,98.09-112.43,98.09,11.13,22.65,16.69,18.68c49.06-35.08,94.25-66.47,123.3-77.42,57.51-21.68,73.54-26.39,88.27-43.47C852.82,714,844.18,693.5,834.81,670Z"/><path class="cls-7" d="M722.19,813.26l-9.43,42.43-47.14.94s8-11.31,29.66-19.8l7.11-29.22Z"/><path class="cls-8" d="M836.57,660.59s-67.24,7.26-91.76,20.46-44,134.24-44,134.24,19,10.34,21.4,3.92a881.22,881.22,0,0,1,40.1-92.33c24.16-4.41,80.12,22.82,120.57-17C882.86,709.86,847.88,683.22,836.57,660.59Z"/><path class="cls-9" d="M952.43,578.86A89.76,89.76,0,0,0,944.52,597l-27.66-2.55s14.28-21.64,13.19-34.76Z"/><path class="cls-9" d="M946.49,534.16c-1.57-.42-7.48-2-8.68-1.56-1.66.68.27,2.86-.9,4.18-1.89,2.15-5.67,2.2-8.11,3.5a16.26,16.26,0,0,0-6.56,6c-2.25,4,6,12.79,7.24,19.41,2.68,13.85,20.19,15.9,34.41,11.66,5.08-1.51,9.76-6.09,12.53-10.52,3.26-5.21,1.42-13.93-1.3-19.12-1.64-3.11-4.88-5.8-7.72-7.75-2.56-1.77-3.27-9.12-6.36-9.64C961,530.36,950,535.1,946.49,534.16Z"/><path d="M986.2,571.34s-.48-2.32,3.53-6.1c13.27-12.49-.92-36.93-15.38-41.19-7.4-2.18-12.13.12-14.78-7.23.19.52-3,1.87-3.31,2.14-1.73,1.47-2.56,2.5-2.61,4.93-.25,10.68,9.31,20.62,16.54,27.35,3.26,3-4.75.94-8,1.55-2.1.41-7.55,6.16-8.72,7,3,3.78,5.73.37,9.82,2.19,3.78,1.69,1.38,6.5-2.14,7.07-5.45.88-7.67-2.72-7.67-2.72-2.5,1.36-2.9,9.46-4.87,11.58,2.71,1.49,18.52,4.26,22.23,4.22C978.79,582.06,983.65,577.68,986.2,571.34Z"/><path class="cls-10" d="M951.54,583.17c5.8,64.68-68.68,126.69-68.68,126.69s-48.63,1.83-46.29-49.27c0,0,3.78-9.29,33.89-36.57,20.11-18.23,34.24-45.43,48.39-44.89C957.51,580.61,951.54,583.17,951.54,583.17Z"/><path d="M770.9,713.43s44.85,16.73,104.63-5.95,76.08-128.54,76.08-128.54l6.84,3.46s-6.65,116.84-85.36,142.23C812.93,744,770.9,720.92,770.9,720.92Z"/><path class="cls-11" d="M944.34,647.78s7.16,24.81,7.56,37.18S947,739.33,947,739.33l11.4,1.44s10.12-50,10.36-66.39-9.18-42.8-9.18-42.8Z"/><path class="cls-10" d="M943.63,648.83c8.27,36.13,4.84,84.57,4.84,84.57l12.37.79c13.55-28.35,12.28-91.17,5.11-117.6-4.21-15.53-6.69-31.18-17.19-33.59-6.57-1.51-20.08,3.29-21.89,9.78C922.94,606.87,939.57,631.1,943.63,648.83Z"/><path class="cls-11" d="M941.92,745.57c-2.73,5.2-4,9-2.36,10.32,1.11.9,2.89-4.14,5.05-5.94a15.58,15.58,0,0,1-.63,9.33c-1.52,3.75-1.39,7,1.46,7.22s7.47.09,8.5-2.27,3.37-12.19,4.64-15.47-.42-7,.07-8.91-8.41-5-8.41-5c-.49.75-3.23,4.49-3.23,4.49a28.06,28.06,0,0,1-3.1,3.26C943.12,743.1,941.92,745.57,941.92,745.57Z"/><line class="cls-12" x1="874.44" x2="874.44" y2="323.8"/><path class="cls-13" d="M889.7,356.93a15.11,15.11,0,1,1-13.91-16.23A15.12,15.12,0,0,1,889.7,356.93Z"/><polygon class="cls-14" points="945.79 362.18 803.09 362.18 865.54 316.74 883.34 316.74 945.79 362.18"/><line class="cls-12" x1="202.65" x2="202.65" y2="323.8"/><path class="cls-13" d="M217.9,356.93A15.11,15.11,0,1,1,204,340.7,15.12,15.12,0,0,1,217.9,356.93Z"/><polygon class="cls-14" points="274 362.18 131.29 362.18 193.75 316.74 211.54 316.74 274 362.18"/><line class="cls-15" y1="857" x2="1024" y2="857"/><path class="cls-16" d="M402.91,557.22a60.17,60.17,0,0,1,8.48-13.94c5.47-6.56,13.63-17.5,13.63-17.5s-4,7.79-9.38,16.58A67.27,67.27,0,0,1,402.91,557.22Z"/><path class="cls-16" d="M408.57,544.41s6.05-4.76,9.69-14.83,6.95-17.74,6.95-17.74-7.86,11.24-11.23,19S408.57,544.41,408.57,544.41Z"/><path class="cls-16" d="M403.32,555.79s3.17-11.51,3.79-20.71.55-15,.55-15-4,16.69-5.2,23.77A23,23,0,0,0,403.32,555.79Z"/><path class="cls-16" d="M400.61,563.44s1-11.86-2.32-22.47-3.52-17.35-3.52-17.35-1.6,11.11.3,20.69A137,137,0,0,0,400.61,563.44Z"/><path class="cls-16" d="M401.59,560.82s8.43-7.2,12.69-8.89,10.19-6.62,10.19-6.62-7.32,9.37-11.41,11.23S401.59,560.82,401.59,560.82Z"/><path class="cls-16" d="M398.68,570.89s.82-6.48-2.94-15.66-4.64-13.72-4.64-13.72-.23,12.47,2.25,17.14S398.68,570.89,398.68,570.89Z"/><path class="cls-16" d="M399.47,566.17s4.84-3.23,9.51-3.89S414.9,561,414.9,561a11.06,11.06,0,0,1-8.12,5C401,566.76,399.47,566.17,399.47,566.17Z"/><path class="cls-16" d="M396.3,577.07c1.05-4.07,2.4-10.37,3.79-14.58,3.06-9.28,10.35-21.25,10.35-21.25-4.45,9.88-7.7,15.44-9.94,24-.89,3.37-2.42,8.06-3.25,11.12C397.11,577.16,396.44,577.86,396.3,577.07Z"/><path class="cls-17" d="M398.45,560.54a63.65,63.65,0,0,0-3.7-16.94c-3.23-8.49-7.64-22.3-7.64-22.3s1.31,9.19,3.69,19.9A71.76,71.76,0,0,0,398.45,560.54Z"/><path class="cls-17" d="M397.2,545.7s-4.44-6.87-4.61-18.25-.85-20.24-.85-20.24,4,14,4.71,23S397.2,545.7,397.2,545.7Z"/><path class="cls-17" d="M398.54,559s.8-12.68,3.35-22.13,4.63-15.24,4.63-15.24-1.76,18.15-3,25.69A24.4,24.4,0,0,1,398.54,559Z"/><path class="cls-17" d="M398.62,567.59s3.08-12.27,10.1-21.79,9.54-16.22,9.54-16.22S416,541.3,410.8,550.27A145.61,145.61,0,0,1,398.62,567.59Z"/><path class="cls-17" d="M398.54,564.62s-6-10.15-9.68-13.33-7.95-10.18-7.95-10.18,4.12,11.95,7.58,15.23S398.54,564.62,398.54,564.62Z"/><path class="cls-17" d="M398,575.74S399.4,569,406.36,561s9.4-12.19,9.4-12.19-4.08,12.6-8.19,16.45A141.75,141.75,0,0,0,398,575.74Z"/><path class="cls-17" d="M398.82,570.73s-3.75-4.92-8.22-7.2-5.5-3.34-5.5-3.34a11.77,11.77,0,0,0,6.42,7.88C397.06,570.79,398.82,570.73,398.82,570.73Z"/><path class="cls-16" d="M398.23,582.78c.36-4.46,1.18-11.25,1.24-16,.13-10.39-3.06-24.94-3.06-24.94,1.06,11.47,2.41,18.18,1.71,27.51-.27,3.7-.35,8.94-.58,12.31C397.39,582.59,397.82,583.53,398.23,582.78Z"/><path class="cls-16" d="M392.05,562.29a60,60,0,0,0-8.48-13.93c-5.47-6.57-13.63-17.5-13.63-17.5s4,7.78,9.38,16.57A67.27,67.27,0,0,0,392.05,562.29Z"/><path class="cls-16" d="M386.39,549.48s-6.05-4.76-9.69-14.83-6.95-17.74-6.95-17.74,7.85,11.24,11.23,19S386.39,549.48,386.39,549.48Z"/><path class="cls-16" d="M391.64,560.87s-3.17-11.52-3.79-20.72-.55-15-.55-15,4,16.69,5.2,23.77A23,23,0,0,1,391.64,560.87Z"/><path class="cls-16" d="M394.35,568.51s-1-11.86,2.32-22.47,3.52-17.35,3.52-17.35,1.6,11.11-.3,20.69A137,137,0,0,1,394.35,568.51Z"/><path class="cls-16" d="M393.37,565.89s-8.43-7.19-12.69-8.89-10.19-6.62-10.19-6.62,7.32,9.37,11.41,11.23S393.37,565.89,393.37,565.89Z"/><path class="cls-16" d="M396.28,576s-.82-6.48,2.94-15.66,4.64-13.71,4.64-13.71.22,12.46-2.25,17.13S396.28,576,396.28,576Z"/><path class="cls-16" d="M395.49,571.24s-4.84-3.23-9.51-3.88-5.92-1.29-5.92-1.29a11.06,11.06,0,0,0,8.12,5C393.94,571.84,395.49,571.24,395.49,571.24Z"/><path class="cls-16" d="M398.66,582.14c-1.05-4.07-2.4-10.37-3.79-14.57-3.06-9.29-10.35-21.25-10.35-21.25,4.45,9.87,7.7,15.43,9.94,23.95.89,3.37,2.42,8.06,3.25,11.12C397.85,582.23,398.52,582.93,398.66,582.14Z"/><polygon class="cls-14" points="409.36 610.58 386.51 610.58 379.45 570.34 417.24 570.34 409.36 610.58"/><polygon class="cls-4" points="670.37 621.64 708.05 857.22 715.3 857.2 685.49 621.59 670.37 621.64"/><polygon class="cls-4" points="410.64 621.75 361.57 857.56 351.8 857.59 390.27 621.79 410.64 621.75"/><rect class="cls-4" x="333.4" y="607.87" width="405.4" height="18.14"/><rect class="cls-18" x="313.96" y="607.87" width="444.27" height="12.04"/><polygon class="cls-19" points="633.99 601.52 618.22 601.52 602.46 500.91 614.44 500.91 633.99 601.52"/><polygon class="cls-14" points="629.47 601.52 567.92 601.52 552.16 500.91 613.7 500.91 629.47 601.52"/><rect class="cls-14" x="567.1" y="599.24" width="66.9" height="7.51"/><rect class="cls-19" x="633.99" y="599.24" width="84.34" height="7.51"/><path class="cls-19" d="M595.67,556.11c1.78,7.7.52,16-2.8,18.58s-7.47-1.61-9.25-9.32-.53-16,2.8-18.57S593.89,548.41,595.67,556.11Z"/><path class="cls-19" d="M499.94,606.39h-8.73A7.31,7.31,0,0,1,484,600.2l-3.49-22.46h30.16l-3.49,22.46A7.31,7.31,0,0,1,499.94,606.39Z"/><path class="cls-19" d="M508,601.6l-1,0-.41,0-.32-.26c-.22-.16-5.32-4.15-5.32-9.86s3.88-10.6,8.66-10.6a9,9,0,0,1,7,3c1.13,1.36,2.33,3.82,1.61,7.86h0C517.15,598,513.43,601.6,508,601.6Zm-.33-2.75c5.51.18,7.25-4.05,7.9-7.67h0c.44-2.4.09-4.29-1-5.61a6.3,6.3,0,0,0-4.91-2c-3.26,0-5.91,3.52-5.91,7.85C503.76,595.07,506.72,598,507.69,598.85Z"/><polygon class="cls-14" points="477.49 608.36 515.71 608.36 521.81 601.61 471.39 601.61 477.49 608.36"/><rect class="cls-20" x="92.03" y="461.52" width="182.91" height="395.63"/><rect class="cls-14" x="113.09" y="478.8" width="140.79" height="41.48"/><rect class="cls-21" x="165.08" y="494.51" width="36.81" height="10.06" rx="0.8"/><rect class="cls-14" x="113.09" y="531.59" width="140.79" height="41.48"/><rect class="cls-21" x="165.08" y="547.31" width="36.81" height="10.06" rx="0.8"/><rect class="cls-14" x="113.09" y="584.39" width="140.79" height="41.48"/><rect class="cls-21" x="165.08" y="600.1" width="36.81" height="10.06" rx="0.8"/><rect class="cls-14" x="113.09" y="637.77" width="140.79" height="203.34"/><rect class="cls-21" x="165.08" y="653.49" width="36.81" height="10.06" rx="0.8"/></g></g></svg>