<svg xmlns="http://www.w3.org/2000/svg" viewBox="0 0 740.9 188.47"><defs><style>.cls-1{fill:#502c83;}.cls-2{fill:#02a97c;}.cls-3{fill:#a795c1;}.cls-4{fill:#02a97b;}.cls-5{fill:#043077;}.cls-6{fill:#eb001b;}.cls-7{fill:#f79e1b;}.cls-8{fill:#ff5f00;}.cls-9{fill:#002c8a;}.cls-10{fill:#009ae0;}.cls-11{fill:#001f6b;}.cls-12{fill:#070707;}.cls-13{fill:#030303;}.cls-14{fill:#009fde;}.cls-15{fill:#80ba00;}</style></defs><g id="Layer_2" data-name="Layer 2"><g id="Layer_1-2" data-name="Layer 1"><path class="cls-1" d="M92.07,177c-.64-.06-1.29-.11-1.93-.19a21.7,21.7,0,0,1-16.09-9.87,22.3,22.3,0,0,1-3.55-9.71,24.14,24.14,0,0,1,2.6-14.81,21,21,0,0,1,14.69-11,23.24,23.24,0,0,1,13.91,1.12,18.75,18.75,0,0,1,11.36,12.66c.08.27,0,.36-.23.44Q107.91,147.3,103,149c-.26.09-.36.06-.45-.22A10.73,10.73,0,0,0,100,144.4a9,9,0,0,0-5.61-2.59,11.74,11.74,0,0,0-5.89.82,9.94,9.94,0,0,0-5.7,6.24,14.76,14.76,0,0,0,.68,11.65,10.07,10.07,0,0,0,7.64,5.5,10.63,10.63,0,0,0,6.71-.81,9.63,9.63,0,0,0,5.15-6c.09-.28.17-.32.44-.23q4.8,1.62,9.61,3.21c.32.1.36.22.26.53a19.63,19.63,0,0,1-13.74,13.4,21,21,0,0,1-5,.81.51.51,0,0,0-.32.05Z"/><path class="cls-1" d="M0,163.64c.82-.25,1.67-.39,2.5-.58l7.22-1.58c.16,0,.35-.16.39.18a6.43,6.43,0,0,0,3.58,5.21,10,10,0,0,0,5,1.15,9.68,9.68,0,0,0,3.84-.69A3.91,3.91,0,0,0,25,164.71a3.49,3.49,0,0,0-1.55-4,11,11,0,0,0-3.35-1.26c-2.69-.67-5.41-1.21-8.07-2a19,19,0,0,1-6.56-3.24,10.46,10.46,0,0,1-4.21-7.43,12.84,12.84,0,0,1,6.36-13,18.65,18.65,0,0,1,7.9-2.67,22.49,22.49,0,0,1,10.26,1.08,16.27,16.27,0,0,1,7.34,4.92,11.74,11.74,0,0,1,2.69,5.9c.06.45.07.45-.38.55l-9,2c-.28.07-.39,0-.45-.29-.6-3-2.58-4.64-5.55-5.24a9.94,9.94,0,0,0-5.78.45,4.62,4.62,0,0,0-2,1.42,3.4,3.4,0,0,0,.68,5,8,8,0,0,0,3.18,1.2c2.81.57,5.64,1,8.41,1.72a16.83,16.83,0,0,1,7.88,4.37,11.81,11.81,0,0,1,3.46,9.5c-.37,5.2-3.14,8.8-7.7,11.12a20,20,0,0,1-6.93,2l-1.93.19H17.46a5.86,5.86,0,0,0-1.11-.05,19.66,19.66,0,0,1-4.51-.8A18.67,18.67,0,0,1,5.48,173a15,15,0,0,1-4.31-5.07,9.14,9.14,0,0,1-1.14-4,.09.09,0,0,0,0-.06Z"/><path class="cls-1" d="M56.42,177c-.59-.06-1.18-.11-1.76-.19a13.63,13.63,0,0,1-7.36-3.15,11.45,11.45,0,0,1-3.44-6,16,16,0,0,1-.46-3.83q0-10,0-20v-.2c.09-.07.19,0,.29,0h11c.28,0,.34.09.34.36q0,8.54,0,17.09a1,1,0,0,0,0,.39,7.48,7.48,0,0,0,.48,2.48,4,4,0,0,0,3.17,2.46,10.34,10.34,0,0,0,7.79-1.41l.14-.08c.11.06.06.16.06.24q0,4.49,0,9a.52.52,0,0,1-.24.46,11.67,11.67,0,0,1-4.16,1.87,18,18,0,0,1-3.58.54.58.58,0,0,0-.29.05Z"/><path class="cls-2" d="M192.61,132.29c-.39.9-.67,1.84-1,2.76l-7.74,22.31a10.27,10.27,0,0,1-1.12,2.34,5.21,5.21,0,0,1-4,2.41c-1.7.17-3.4,0-5.09.08-.17,0-.21-.06-.21-.21q0-2.1,0-4.2c0-.23.12-.21.27-.21H177a2.32,2.32,0,0,0,2.58-1.8c.2-.54.37-1.09.57-1.62a1,1,0,0,0,0-.76l-5.82-16-1.74-4.8c0-.12-.08-.23-.12-.38h1.4c1.18,0,2.36,0,3.54,0,.28,0,.37.09.46.34q2.31,7.17,4.65,14.34c0,.11,0,.24.15.33s.12-.19.16-.3q2.22-7.14,4.43-14.3a.48.48,0,0,1,.56-.41c1.6,0,3.2,0,4.8,0Z"/><path class="cls-1" d="M43.41,132.21q0-3.32,0-6.64c0-1.75,0-3.5,0-5.25H55a.59.59,0,0,1,0,.32v11.24c0,.38,0,.38-.37.38h-11C43.62,132.26,43.5,132.3,43.41,132.21Z"/><path class="cls-3" d="M43.41,132.21H51c1.22,0,2.45,0,3.67,0,.3,0,.36-.09.36-.37,0-3.85,0-7.69,0-11.54h.07c0,3.85,0,7.69,0,11.54,0,.29.07.37.36.37l10.88,0c.31,0,.41.08.41.4q0,5.29,0,10.58c0,.12,0,.25-.06.34-.15-.18-.1-.39-.1-.6,0-3.3,0-6.61,0-9.91,0-.62,0-.62-.61-.62H55.6c-.36,0-.39,0-.39.4,0,3.4,0,6.81,0,10.21,0,.4,0,.42.48.42H66.07a.9.9,0,0,1,.6.1c-.11.12-.25.06-.38.06H55.49c-.32,0-.4.08-.4.4q0,8.61,0,17.21c0,.07,0,.14,0,.2a.9.9,0,0,1-.05-.49q0-8.44,0-16.89c0-.43,0-.43-.42-.43H43.8l-.4,0c.09-.15.24-.08.35-.08H54.66c.3,0,.38-.09.37-.38q0-5.26,0-10.51c0-.29-.06-.37-.36-.37H43.77C43.65,132.28,43.5,132.35,43.41,132.21Z"/><path class="cls-4" d="M146.19,139.21a10,10,0,0,0-4.12-6,9.71,9.71,0,0,0-7-1.47,7.7,7.7,0,0,0-4.94,2.69s-.06.1-.14.06c0-.66,0-1.32,0-2,0-.23,0-.33-.3-.33q-2.24,0-4.47,0c-.25,0-.31.08-.3.32q0,14.67,0,29.33c0,.26.08.31.32.31h4.4c.29,0,.36-.07.36-.36q0-5,0-10a.61.61,0,0,1,0-.35l.09,0a8.36,8.36,0,0,0,7.73,2.82,9.1,9.1,0,0,0,7.19-4.79A13.38,13.38,0,0,0,146.19,139.21Zm-5.51,7.34a5.21,5.21,0,0,1-5.57,3,6.26,6.26,0,0,1-5.05-3.68.84.84,0,0,1-.08-.41c0-.84,0-1.68,0-2.51v-2.48a.74.74,0,0,1,.06-.36,6.16,6.16,0,0,1,7.82-3.36,5.19,5.19,0,0,1,3.25,3.85A8.71,8.71,0,0,1,140.68,146.55Z"/><path class="cls-2" d="M169.72,138.54a9.12,9.12,0,0,0-.07-1.38,5.07,5.07,0,0,0-3-4.24,7.87,7.87,0,0,0-3.27-.69H152.19c-.23,0-.28.07-.28.29,0,1.33,0,2.65,0,4,0,.3.08.36.37.36H163a1.59,1.59,0,0,1,1.54,1.41,10.17,10.17,0,0,1,.06,1.35c0,.2,0,.29-.26.31l-4,.51c-1.67.22-3.35.39-5,.67a6.21,6.21,0,0,0-4.49,3,6.56,6.56,0,0,0-.92,3.43,6.3,6.3,0,0,0,3.19,5.88,7.67,7.67,0,0,0,3.68,1c3,.15,5.71-.64,7.73-3.21v2.15c0,.43,0,.43.42.43,1.44,0,2.89,0,4.33,0,.31,0,.4-.06.4-.39Q169.72,146,169.72,138.54Zm-5.6,9a6.29,6.29,0,0,1-4.42,2.66,5.77,5.77,0,0,1-2.77-.18,2.34,2.34,0,0,1-1.76-2.09,2.56,2.56,0,0,1,1.45-2.66,6.11,6.11,0,0,1,2-.48l5.62-.78c.28,0,.4,0,.37.31s0,.71,0,1.06a4.42,4.42,0,0,0,0,.63A2.17,2.17,0,0,1,164.12,147.55Z"/><path class="cls-1" d="M66.67,143.53H55.5c-.35,0-.42-.09-.41-.42q0-5.22,0-10.44c0-.32.07-.41.4-.41q5.4,0,10.8,0c.31,0,.38.09.38.39,0,3.62,0,7.25,0,10.87Z"/><path d="M563.06,40.94c0-7.35,1.49-13.23,6.16-17.8,5-4.86,11-6.81,17.55-4,4.65,2,8.73,1.78,13.35-.1a17.14,17.14,0,0,1,19.45,4.22c1.09,1.22,1.11,1.81-.28,2.94-9.3,7.56-8.36,20.49,2,26.73,1.41.85,1.4,1.57.89,2.84a46.09,46.09,0,0,1-8.19,13.42c-3.67,4.19-7.42,5.14-12.53,2.87a17,17,0,0,0-14.49.08c-5,2.15-8.29,1.41-11.87-2.59A45.15,45.15,0,0,1,563.06,40.94Z"/><path d="M636.48,41.48c0-7.71,0-15.42,0-23.12,0-1.41.33-1.8,1.77-1.78,5.55.09,11.11,0,16.67,0,14.54,0,19.18,13.59,14.94,23.37-2.71,6.23-8,8.88-14.5,9.17-3.21.14-6.44.09-9.66,0-1.16,0-1.49.28-1.47,1.46.07,4.61,0,9.23,0,13.84,0,1.22-.29,1.66-1.55,1.57a27.53,27.53,0,0,0-4.54,0c-1.56.16-1.71-.53-1.7-1.83C636.51,56.64,636.48,49.06,636.48,41.48Zm7.75-8.56c0,2.84,0,5.67,0,8.51,0,.74,0,1.36,1,1.31,3.46-.15,6.94.26,10.39-.29,4.88-.78,7.69-4.16,7.79-9.38s-2.6-8.72-7.46-9.65c-3.44-.65-6.92-.14-10.38-.35-1.27-.08-1.42.46-1.4,1.52C644.27,27.36,644.23,30.14,644.23,32.92Z"/><path d="M696.54,60.4c-4.61,6.79-12.6,6.95-17.36,4.76a9.73,9.73,0,0,1-6-9.49c0-4.32,2.28-7.19,6.22-8.84,3.09-1.29,6.36-1.49,9.63-1.72,2.08-.14,4.16-.29,6.24-.36.83,0,1.19-.19,1.23-1.16.19-4.2-1.2-6.6-4.52-7.49-4.32-1.15-8.08.32-9.82,3.84-.14.28-.3.77-.47.78-2.13.06-4.27.13-6.4,0-.57,0-.28-.87-.2-1.32a10.3,10.3,0,0,1,5.55-7.49,18.35,18.35,0,0,1,17.61-.06,9.88,9.88,0,0,1,5.55,9.25c.05,7.83,0,15.65.06,23.48,0,1.18-.3,1.55-1.47,1.46-1.82-.13-4.09.52-5.34-.35S697,62.42,696.54,60.4Zm-.07-8.33c0-2.16,0-2.18-2.09-2.07-2.33.12-4.66.24-7,.43a10.47,10.47,0,0,0-4.34,1.19A4.45,4.45,0,0,0,683,59.5C687.41,62.07,696.62,60.08,696.47,52.07Z"/><path d="M707.12,30.19c2.56,0,4.88,0,7.21,0,1.15,0,1.07.84,1.28,1.51q4,12.72,7.91,25.44c.18.58.38,1.16.75,2.28.74-2.32,1.32-4.12,1.89-5.93,2.26-7.28,4.55-14.55,6.75-21.85.33-1.1.74-1.55,1.92-1.47a35.7,35.7,0,0,0,4.74,0c1.36-.08,1.58.25,1.1,1.58-3.68,10.18-7.28,20.4-10.92,30.6a95.2,95.2,0,0,1-3.55,9.36c-3,6.2-8.07,9-14.7,7.39-2-.48-.41-3.16-.82-4.78-.23-.95.44-1,1.15-.9a9.11,9.11,0,0,0,3.2-.24c3.21-.86,5.64-5.44,4.51-8.58C715.43,53.23,711.33,41.86,707.12,30.19Z"/><path d="M592.66,15C593,8,599.35,1,606,.05c1.07-.16,1.54,0,1.62,1.23.45,6.93-6,14.71-13,15.61C592.66,17.15,592.46,16.21,592.66,15Z"/><path class="cls-5" d="M529.32,70.26c-.29-1.31-.55-2.63-.82-4-.31-1.47-.63-2.93-.94-4.4-.4-1.91-.81-3.83-1.21-5.74-.37-1.74-.75-3.48-1.11-5.22s-.73-3.64-1.11-5.46c-.41-2-.85-4-1.27-6-.27-1.29-.53-2.58-.8-3.88s-.58-2.68-.86-4-.61-2.93-.92-4.4c-.26-1.29-.53-2.59-.8-3.88l-.78-3.64c0-.36-.21-.48-.47-.61a1.76,1.76,0,0,0-.82-.11c-2.29,0-4.58,0-6.87.05a31.35,31.35,0,0,0-4.1.15,6.1,6.1,0,0,0-4.61,3.35c-.19.36-.31.75-.47,1.12-1.11,2.63-2.24,5.24-3.34,7.87-1.64,3.91-3.27,7.84-4.9,11.76l-2.92,7c-1,2.44-2,4.88-3.07,7.32l-3,7.17c-.73,1.74-1.44,3.48-2.17,5.21-.36.84-.38.83.56.83H492c.94,0,1.89,0,2.83,0a.61.61,0,0,0,.71-.41c.59-1.68,1.18-3.36,1.82-5a7.27,7.27,0,0,1,1-2.36l.76,0h16a.58.58,0,0,1,.62.55c0,.25.05.51.11.76.52,1.91.82,3.88,1.25,5.81.14.63.11.64.77.64h10.69a3.54,3.54,0,0,0,.46,0C529.3,70.65,529.38,70.53,529.32,70.26ZM508,36c0,.16.06.32-.14.4C507.83,36.24,507.8,36.09,508,36ZM502.6,51.52c.76-2,1.49-4.06,2.23-6.09.94-2.58,1.88-5.16,2.8-7.75.1-.29.3-.6,0-.92.11,0,.17-.16.25-.25s.15-.4.23-.59a9.9,9.9,0,0,1,1-2.12.91.91,0,0,1,.28.61c.77,3.5,1.45,7,2.21,10.52.5,2.36.92,4.75,1.54,7.08a.09.09,0,0,1,0,.05,1.24,1.24,0,0,1-.92.37c-3,0-6,0-9,0C502.49,52.41,502.35,52.21,502.6,51.52Z"/><path class="cls-5" d="M444.07,25.4c-.43,2.24-1,4.46-1.47,6.69-.41,1.89-.77,3.78-1.17,5.67s-.81,3.51-1.16,5.27c-.38,1.94-.88,3.86-1.22,5.81-.21,1.2-.56,2.37-.78,3.56-.18.93-.44,1.83-.57,2.76-.09.58-.27,1.14-.38,1.71-.28,1.44-.6,2.88-.92,4.32s-.63,2.77-.92,4.16-.58,2.63-.8,4-.2,1.4-1.58,1.4H422c-.85,0-.86,0-.61-.79s.24-1.29.4-1.93c.34-1.3.51-2.64.82-4s.54-2.37.8-3.56.56-2.68.84-4c.25-1.16.5-2.32.76-3.49.22-1,.41-2,.63-3.05s.52-2.28.75-3.42c.3-1.44.61-2.88.91-4.32.26-1.16.53-2.32.77-3.49l.6-2.9c.24-1.14.52-2.28.75-3.42.28-1.42.6-2.83.91-4.24s.6-2.72.89-4.09c.16-.77.3-1.54.47-2.31s.35-1.53.51-2.3c.09-.42.37-.46.74-.46,2.55,0,5.1,0,7.64,0h4c.69,0,.71.06.59.77C444.92,21.64,444.43,23.5,444.07,25.4Z"/><path class="cls-5" d="M484.28,20.82q-.84,3.8-1.66,7.59c-.15.72-.29,1.45-.44,2.17-.09.43-.17.48-.56.3a24.43,24.43,0,0,0-6-1.81,21,21,0,0,0-6.76-.27,9.57,9.57,0,0,0-3.66,1.2,4.74,4.74,0,0,0-2,2.34,2.57,2.57,0,0,0,0,2,5.26,5.26,0,0,0,1.83,2.29,39.72,39.72,0,0,0,4.79,2.81,48,48,0,0,1,6.21,3.71,15.94,15.94,0,0,1,4.2,4.46A12.24,12.24,0,0,1,481.89,54a15.73,15.73,0,0,1-2.38,8.48A15.12,15.12,0,0,1,476,66.35a20.74,20.74,0,0,1-6.19,3.38A35.23,35.23,0,0,1,466,70.8a36.38,36.38,0,0,1-7.56.7,28.94,28.94,0,0,1-3.91-.19A41.46,41.46,0,0,1,444.31,69a.45.45,0,0,1-.34-.57c.18-.9.36-1.79.56-2.68.46-2,.92-4.06,1.3-6.11.1-.53.24-1,.35-1.56.06-.26.21-.33.45-.2.9.46,1.85.85,2.79,1.22a25.6,25.6,0,0,0,5.5,1.5,30.48,30.48,0,0,0,5.4.32,11.43,11.43,0,0,0,4.52-.93,5.48,5.48,0,0,0,2.81-2.35,4.23,4.23,0,0,0-.57-4.7,14.21,14.21,0,0,0-3.84-2.73,72,72,0,0,1-7.23-4,17.81,17.81,0,0,1-4.73-4.71,11.76,11.76,0,0,1-1.8-7.65,14.49,14.49,0,0,1,2.12-6.47,16.8,16.8,0,0,1,5.24-5.24,23.18,23.18,0,0,1,6.23-2.82c1.2-.33,2.41-.59,3.64-.8a34.5,34.5,0,0,1,4.86-.4,26.45,26.45,0,0,1,4.94.31c.92.15,1.85.29,2.78.48A40.21,40.21,0,0,1,484,20.24C484.27,20.34,484.35,20.5,484.28,20.82Z"/><path class="cls-5" d="M422.42,27.94c-1,2.32-1.92,4.65-2.89,7-.71,1.71-1.45,3.42-2.17,5.12-.88,2.07-1.74,4.13-2.6,6.19a3,3,0,0,1-.61,1.53c-1.13,2.65-2.26,5.28-3.34,8-.74,1.84-1.55,3.65-2.31,5.48-1,2.41-2,4.83-3,7.25a15.09,15.09,0,0,0-.72,1.76.65.65,0,0,1-.75.51c-.1,0-.2,0-.3,0H391c-.31,0-.45-.14-.53-.44-.26-1-.54-2.06-.81-3.09-.64-2.41-1.19-4.84-1.89-7.22-.3-1-.52-2-.78-3l-1.26-5c-.5-2-1-3.93-1.53-5.9s-.93-3.8-1.5-5.67c-.32-1-.53-2.11-.79-3.16-.08-.3-.17-.59-.25-.88a3.68,3.68,0,0,1-.45-1.43c-.55-2.17-1.13-4.32-1.71-6.48a13,13,0,0,1-.6-1.72,7.4,7.4,0,0,0-3-2.33,42.36,42.36,0,0,0-6.55-2.47c-1.42-.4-2.82-.83-4.25-1.2a7.84,7.84,0,0,1-1.19-.24c-.31-.12-.48-.28-.32-.63a3,3,0,0,0,.15-.51.44.44,0,0,1,.45-.34h19.4c.79,0,1.58,0,2.36,0a6.76,6.76,0,0,1,5.58,2.78,8.38,8.38,0,0,1,1.19,3.34c.19,1,.35,2.05.61,3.06.17.68.22,1.39.37,2.09.33,1.49.54,3,.82,4.49s.61,2.77.82,4.17c.12.81.32,1.59.44,2.4a29.27,29.27,0,0,0,.56,2.91c.17.74.26,1.5.4,2.25.42,2.08.77,4.19,1.16,6.28a2.35,2.35,0,0,0,.14.52c.08.2.1.49.41.47s.43-.23.52-.49c.23-.59.47-1.18.71-1.77l2.12-5.4,2.36-6c.81-2,1.65-4.05,2.45-6.09.68-1.7,1.31-3.41,2-5.12,1-2.48,2-4.95,3-7.43.21-.54.42-1.09.64-1.63.33-.79.33-.79,1.17-.79H425.2c1,0,1,0,.6.89C424.68,22.55,423.55,25.24,422.42,27.94Z"/><path class="cls-6" d="M270.84,73.15A9.64,9.64,0,0,1,269,74.57a32,32,0,0,1-21.81,5.2,32,32,0,0,1-21.57-12,32.45,32.45,0,0,1-7-21.84,32.09,32.09,0,0,1,11.21-23,31.55,31.55,0,0,1,10-5.92,30.49,30.49,0,0,1,7.84-1.8,2.84,2.84,0,0,0,1.18-.22h4.48c1.13.2,2.28.14,3.41.35a32.52,32.52,0,0,1,13.75,6,1.41,1.41,0,0,1,.51.52.38.38,0,0,1,0,.21,3.77,3.77,0,0,1-.92,1A32.5,32.5,0,0,0,259.53,41a30.64,30.64,0,0,0-.59,8.9,31.75,31.75,0,0,0,4,13.47,33.66,33.66,0,0,0,6.11,7.83A17.22,17.22,0,0,1,271,72.89.2.2,0,0,1,270.84,73.15Z"/><path class="cls-7" d="M270.84,73.15c0-.08,0-.1.1-.13a19.86,19.86,0,0,1,1.64-1.4,33,33,0,0,0,8-11,31.77,31.77,0,0,0,2.51-9,32.76,32.76,0,0,0-5.27-22.2A36,36,0,0,0,271,22a.13.13,0,0,1,0-.12,4.86,4.86,0,0,1,1.31-1,32.1,32.1,0,0,1,14.3-5.72c.8-.11,1.61,0,2.4-.19h4.35a2.94,2.94,0,0,0,1.24.23,31.55,31.55,0,0,1,9.9,2.67,32.6,32.6,0,0,1,18.07,21.21A32.65,32.65,0,0,1,323.46,51a31.61,31.61,0,0,1-3.35,11.3A32.35,32.35,0,0,1,300,78.8a32.93,32.93,0,0,1-11.21,1.13,30.6,30.6,0,0,1-5.27-.84,32.59,32.59,0,0,1-11.25-5.18c-.2-.15-.41-.29-.6-.45A1.22,1.22,0,0,0,270.84,73.15Z"/><path class="cls-8" d="M271,22a.67.67,0,0,1,.54.21,46.47,46.47,0,0,1,4.22,4.2A31.8,31.8,0,0,1,278.37,30a33.92,33.92,0,0,1,2.44,4.57,28.3,28.3,0,0,1,1.44,4,31.09,31.09,0,0,1,.8,3.62,37.71,37.71,0,0,1,.39,4.63c0,1.21-.06,2.41-.12,3.62a28.56,28.56,0,0,1-.61,4.13,21.85,21.85,0,0,1-.59,2.21c-.3,1-.61,1.92-1,2.86a33,33,0,0,1-4.44,7.76,34.1,34.1,0,0,1-4,4.29A4.72,4.72,0,0,1,270.94,73c-.73-.65-1.46-1.28-2.17-1.94a31,31,0,0,1-5.31-6.55,29.08,29.08,0,0,1-2.33-4.63c-.41-1-.82-2-1.13-3.11a38.93,38.93,0,0,1-.88-3.88,35.92,35.92,0,0,1-.4-6.87,31.49,31.49,0,0,1,.47-4.22,27.18,27.18,0,0,1,.8-3.49,30.33,30.33,0,0,1,1.75-4.59,33.69,33.69,0,0,1,3.81-6.21A31.05,31.05,0,0,1,270,22.85,8.77,8.77,0,0,1,271,22Z"/><path class="cls-9" d="M260.33,180.49H247.4c-2.47,0-3-.61-2.65-3.11.86-5.65,1.78-11.29,2.67-16.94q3.2-20.22,6.4-40.46c.42-2.72,1.48-3.67,4.24-3.67,7.34,0,14.68-.06,22,0a31.4,31.4,0,0,1,11.39,1.92A13.34,13.34,0,0,1,300,133.09c-.08.56-.08,1.13-.12,1.69.09.39.4.88-.41.78a4.27,4.27,0,0,0-2.33-1.51A25.65,25.65,0,0,0,290,132.9c-6.19,0-12.38,0-18.57,0-2.51,0-3.24.62-3.64,3.16-1.1,6.91-2.17,13.82-3.28,20.73a4,4,0,0,0,0,1c-1.38,6.46-2.13,13-3.23,19.54C261.11,178.39,261.16,179.58,260.33,180.49Z"/><path class="cls-10" d="M260.33,180.49c1.13-7,2.28-14,3.39-21a8.31,8.31,0,0,1,.59-1.72c.5-1.6,1.89-1.71,3.18-1.76,2.79-.1,5.58,0,8.36-.05a28.17,28.17,0,0,0,9.55-1.84c6.87-2.68,10.89-7.86,13-14.75.38-1.24.38-2.62,1.21-3.72l.3-.85a10.05,10.05,0,0,1,5.74,8.4c.7,7.65-1.14,14.59-6.84,20-3.48,3.34-8,4.62-12.66,5.05-1.6.15-3.21.13-4.81.17-2.11.06-3,.81-3.37,2.87q-1.14,7-2.24,14c-.38,2.45-1.19,3.16-3.65,3.16H261.7c-1.91,0-2.45-.6-2.18-2.52S260.06,182.31,260.33,180.49Z"/><path class="cls-10" d="M391.56,139.55c-3.42-.6-6.9-.11-10.34-.28-1.41-.07-1.9.6-2.1,1.89-1,6.39-2.06,12.77-3,19.17-.44,3-1.15,3,2.51,3,2.92,0,2.92,0,3.47-2.92.08-.46.12-.94.21-1.4.73-3.78-.12-3.78,4.33-3.76,5.94,0,8.9-2.47,9.95-8.3C397.32,142.92,395.56,140.25,391.56,139.55Zm-4.45,10.83c-.52.06-1,.07-1.56.1-1.82.05-1.83.05-1.57-1.78.17-1.17.41-2.33.55-3.5a1.06,1.06,0,0,1,1.33-1.08c.37,0,.75,0,1.13,0,2.2.06,3.14.76,3.21,2.38A3.39,3.39,0,0,1,387.11,150.38Z"/><path class="cls-9" d="M329.56,139.51a36.26,36.26,0,0,0-5.49-.22c-1.73,0-3.16.09-4.57,0s-2.08.55-2.3,2q-1.57,10.44-3.28,20.85c-.15,1,.22,1.22,1,1.23,1.14,0,2.27,0,3.41,0s1.54-.49,1.67-1.5c.18-1.41.41-2.8.61-4.2.33-2.21.5-2.36,2.68-2.36h1.85c5.69-.05,9.08-3.16,9.64-8.84Q335.36,140.58,329.56,139.51Zm-4.48,10.89c-.47,0-.93.06-1.24.08-2,.07-2,.07-1.77-1.72.17-1.17.4-2.32.54-3.49.1-.88.53-1.25,1.4-1.15.33,0,.66,0,1,0,2.3,0,3.25.74,3.29,2.4C328.36,148.78,327.21,150.18,325.08,150.4Z"/><path class="cls-10" d="M414.64,147.28c-.94,0-1.89.06-2.83,0-1.11-.09-1.75.27-1.7,1.72a5.51,5.51,0,0,0-2.86-1.8,9.48,9.48,0,0,0-11.68,8.19c-.38,2.91.15,5.58,2.75,7.24,2.76,1.77,5.66,1.44,8.44-.2.39-.23.76-.5,1.36-.89-.6,1.64.2,1.87,1.36,1.81.89,0,1.79,0,2.69,0a1.24,1.24,0,0,0,1.38-1.13l2.19-13.69C415.89,147.62,415.48,147.27,414.64,147.28Zm-10.06,12c-2.15,0-3.48-1.25-3.48-3.24a4.75,4.75,0,0,1,4.67-4.73,3.25,3.25,0,0,1,3.54,3.38A4.55,4.55,0,0,1,404.58,159.28Z"/><path class="cls-9" d="M352.75,147.28a24.1,24.1,0,0,1-2.55,0c-1.18-.11-2,.16-2.08,1.66a4.84,4.84,0,0,0-2.68-1.72,9.66,9.66,0,0,0-11.68,11.46,5.93,5.93,0,0,0,4.09,4.67,8.54,8.54,0,0,0,8.2-1.75c.2.62-.33,1.47.42,1.6a12.16,12.16,0,0,0,4.5,0c.46-.08.6-.54.67-1q1.1-6.84,2.2-13.69C354,147.65,353.63,147.25,352.75,147.28Zm-10.06,12c-2.16,0-3.46-1.24-3.46-3.25a4.68,4.68,0,0,1,4.64-4.73,3.22,3.22,0,0,1,3.54,3.37A4.58,4.58,0,0,1,342.69,159.3Z"/><path class="cls-9" d="M364.38,156.3c1.84-2.69,3.53-5.08,5.11-7.55a2.67,2.67,0,0,1,2.77-1.49,19.85,19.85,0,0,0,2.56,0c.43,0,.9,0,1.11.44s-.15.89-.41,1.27l-7.93,11.43c-1.7,2.44-3.43,4.87-5.09,7.35a2,2,0,0,1-2.07,1.11c-1.08-.09-2.18,0-3.27,0s-1.3-.44-.7-1.31c1.12-1.59,2.21-3.19,3.39-4.73a2.14,2.14,0,0,0,.35-2.31c-1.35-3.77-2.61-7.59-3.9-11.39-.54-1.58-.36-1.85,1.29-1.83,5,0,3.79-.59,5.23,3.84C363.34,152.74,363.8,154.37,364.38,156.3Z"/><path class="cls-10" d="M422.64,139.29c2.92,0,2.92,0,2.48,2.79q-1.56,9.79-3.09,19.58c-.17,1.11-.62,1.66-1.82,1.69-3.86.09-3.89.11-3.32-3.62,1-6.3,2-12.59,2.9-18.9C420.1,138.65,421.6,139.46,422.64,139.29Z"/><path class="cls-11" d="M299.59,135.63c-1.73,10.7-7.88,18-18.59,20.15-4.4.87-8.84.56-13.27.6a4.21,4.21,0,0,0-3.42,1.37c-.69-.87,0-1.76.09-2.58.84-5.71,1.82-11.4,2.74-17.1.14-.88.22-1.78.33-2.66a3,3,0,0,1,3.28-2.94c6.44,0,12.88,0,19.32,0a25.25,25.25,0,0,1,8.16,1.48C299,134.23,299.78,134.55,299.59,135.63Z"/><path class="cls-12" d="M150.42,29.92V28.66c0-6.09,1.17-7.39,7.28-8.09a8.88,8.88,0,0,1,9.79,6.69c1.25,5.59-.94,10.39-5.47,11.91a9.94,9.94,0,0,1-5,.47,35.12,35.12,0,0,0-7.4-.5c-7.9.23-15.81.09-23.72.08-.66,0-1.64.21-1.3-.94.28-1-.5-2.64,1.37-2.71q3.88-.12,7.76,0c1,0,1.37-.22,1.29-1.25-.15-2.08.2-4.18-.31-6.26-.64-2.58-1.7-3.5-4.38-3.6-.56,0-1.12,0-1.68,0-2.68,0-2.63,0-2.09-2.63.16-.75.32-1.08,1.14-1,1.82.07,3.65-.07,5.46.11,4.05.41,6.82,3.88,7,8.61.06,1.53.07,3.08,0,4.61-.06,1,.21,1.48,1.36,1.44,2.37-.09,4.76-.1,7.13,0,1.31.06,1.76-.48,1.75-1.67S150.42,31.25,150.42,29.92Zm4.92.11c0,1.25,0,2.51,0,3.77,0,.46-.14,1,.4,1.3,2.22,1.35,5.95-.05,6.75-2.56a8.44,8.44,0,0,0,.07-4.75c-.59-2.32-2-3-4.59-2.89s-3,1.34-2.65,3.45A10.46,10.46,0,0,1,155.34,30Z"/><path class="cls-12" d="M103.22,41.55c-3.85,0-7.69,0-11.54,0-5-.06-8.09-3.13-8.22-8.12a20.52,20.52,0,0,1,.39-6.25,7.64,7.64,0,0,1,7-5.93c2.16-.17,4.34-.12,6.5-.13.58,0,1.6-.12,1.15.83s.6,2.62-1.22,2.82c-1.31.14-2.65,0-4,0A4.09,4.09,0,0,0,89,28.54a16.37,16.37,0,0,0-.06,5.84c.39,2,1.52,3.3,3.66,3.34,4.19.09,8.38.09,12.58.12,2.8,0,5.59.1,8.39,0,2.24-.06,3.2-1,3.07-2.82-.14-2-1.49-2.39-3.23-2.37a28.63,28.63,0,0,1-6.27-.27c-2.64-.57-4.12-2-4.41-4.34-.4-3.19.6-5.21,3.18-6.38a8.76,8.76,0,0,1,3.64-.82c3.7,0,7.41-.05,11.12,0,.56,0,1.84-.65,1.61.71-.19,1.1.68,3.05-1.83,2.93-2.8-.13-5.6,0-8.4,0a22,22,0,0,0-2.29.15A2.06,2.06,0,0,0,107.66,27a2.23,2.23,0,0,0,2.47,2.28c1.82,0,3.64,0,5.46,0,4.74.15,7.44,4.23,5.71,8.65-1.09,2.79-3.53,3.46-6.12,3.54-4,.13-8,0-12,0Z"/><path class="cls-13" d="M83.44,65.6c0-2.09,0-4.19,0-6.29a2.51,2.51,0,0,1,1.86-2.7c3.52-1.1,7.08-1.65,10.62-.16a2.36,2.36,0,0,0,2-.09,13.11,13.11,0,0,1,6.39-.64,5.07,5.07,0,0,1,4.85,5.1c.1,3.84,0,7.69.06,11.53,0,.88-.23,1.18-1.16,1.24-4,.25-4,.29-4-3.63,0-2.44,0-4.89,0-7.34,0-1.1-.13-2.12-1.29-2.61a4.47,4.47,0,0,0-3.63.3c-.52.21-.31.65-.3,1.06.07,3.56,0,7.13.16,10.68,0,1.19-.31,1.53-1.5,1.54-3.68,0-3.68.09-3.68-3.54,0-2.38,0-4.76,0-7.13-.06-2.79-1.16-3.53-3.9-3-1.1.23-1.3.73-1.29,1.7,0,3.43,0,6.85,0,10.28,0,1.22-.21,1.69-1.58,1.68-3.61,0-3.62.05-3.62-3.59C83.43,68.54,83.43,67.07,83.44,65.6Z"/><path class="cls-12" d="M148.43,47.5c0,7.67,0,15.2,0,22.73A2.62,2.62,0,0,1,146.3,73a17.29,17.29,0,0,1-8.45.56,7.55,7.55,0,0,1-6.14-7,23.3,23.3,0,0,1-.08-2.51c.2-6.42,3.92-9.38,10.21-8,1.31.29,1.38-.2,1.35-1.21,0-1.67.05-3.35,0-5,0-1.11.22-1.63,1.45-1.67A30.42,30.42,0,0,0,148.43,47.5Zm-5.24,17.35c0-1.19,0-2.37,0-3.56,0-.45.14-.93-.38-1.3-1.34-.94-4.38-.41-5.31,1-1.1,1.65-1,6,.18,7.6s2.83,1.62,4.52,1.3.8-1.79,1-2.74A12.49,12.49,0,0,0,143.19,64.85Z"/><path class="cls-12" d="M167.65,74.22c-3.33-1.17-6.63-.6-10-.42-3.57.2-5.92-1.75-6.21-4.6-.33-3.13,1.51-5.41,4.87-5.88,1.45-.2,2.94-.12,4.38-.32.72-.1,2,.76,2.06-.88a2.15,2.15,0,0,0-2.1-2.57,16,16,0,0,0-5.79.62c-2.35.64-2.54.48-2.63-2,0-.72.06-1.06.86-1.31a21.5,21.5,0,0,1,9.67-1.15c2.85.41,4.67,2,4.79,4.91C167.79,65.08,167.65,69.54,167.65,74.22Zm-7-8.28c-1.43.21-3.06-.14-3.9,1.48a1.92,1.92,0,0,0,.28,2.34c1.23,1.21,2.73.65,4.16.52,2.33-.22,1.58-2,1.61-3.28C162.85,65.2,161.37,66.36,160.67,65.94Z"/><path class="cls-13" d="M128.48,66.82c0,2,0,3.91,0,5.86,0,1-.1,1.57-1.34,1.23a15.84,15.84,0,0,0-7.62-.1,7.18,7.18,0,0,1-3.51-.34,4.66,4.66,0,0,1-3.7-4.67c-.07-2.71.93-4.23,3.41-5.1a23.1,23.1,0,0,1,5.79-.74c.73-.07,2,.71,2.08-.85a2.2,2.2,0,0,0-2.16-2.56,18.47,18.47,0,0,0-6.18.71c-.54.14-1.75,1.4-1.89-.21-.1-1.1-1.5-2.82,1-3.4,2.94-.66,5.83-1.36,8.87-1,3.36.44,5.12,2.32,5.19,5.68C128.5,63.19,128.47,65,128.48,66.82Zm-4.76,1c.42-1.63-.55-1.87-2.07-1.83-3.07.1-4.43.75-4.34,2.43s1.21,2.12,2.74,2.1C123,70.44,123.72,70,123.72,67.79Z"/><rect class="cls-14" x="2.07" y="19.59" width="70.68" height="23.65"/><rect class="cls-15" x="2.07" y="51.08" width="70.68" height="23.65"/><path d="M559.22,126.8l4.23-.21c2.59-.11,2.86.12,3,2.66q.85,17.1,1.7,34.21c.07,1.51.08,3,.24,4.52.19,1.86-.57,2.59-2.43,2.67q-12.59.54-25.16,1.26a7.68,7.68,0,0,0-3.3,1c-6.33,3.71-12.57,7.59-18.94,11.22A13.05,13.05,0,0,1,513,185.8c-11.79.71-23.59,1.24-35.38,1.82-2.7.13-2.93-.08-3.06-2.78q-1.27-25.36-2.52-50.73c-.14-2.74.08-3.16,2.71-3.09,11.47.34,22.21-2.37,32.82-6.65,13.67-5.51,27.64-10.29,41.47-15.38,3.05-1.12,3.18-1.06,4.28,1.9ZM482.86,159c1.86-.6,3.56-1.07,5.21-1.69a17.68,17.68,0,0,0,4.16-1.91c4-2.85,7.9-5.86,11.83-8.82a7.39,7.39,0,0,1,6.67-1.48,2.42,2.42,0,0,0,2.81-.91,9.42,9.42,0,0,1,14.09,12.46,9.47,9.47,0,0,1-11.7,2.63c-.58-.28-1.53-.67-1.88-.41-2.1,1.5-4.07,3.17-6.43,5.06l45.93-2.28c.22-1.49,0-3.26.74-4s2.59-.75,3.91-1.06l-.75-15.19c-1.46-.2-3.22.07-4-.67s-.78-2.58-1.11-3.91L486.64,140c-.05,4-.05,4-4.48,5ZM478,184.36c.22,0,.41,0,.6,0,11.66-.57,23.32-1.12,35-1.76a8,8,0,0,0,3.28-1.14c3.91-2.26,7.77-4.62,11.65-6.94l3.07-1.86-.15-.36-1.92.1q-12.76.63-25.54,1.27c-5,.25-4.65.5-5-4.45a4.1,4.1,0,0,1,1.81-4c3.59-2.74,7.09-5.62,10.61-8.46,2.54-2,3-4.82,1.32-7s-4.5-2.39-7.14-.42c-4.36,3.25-8.68,6.56-13.07,9.77a6,6,0,0,1-2.65,1.06c-6.46.81-11.77,5.62-12.37,12.1C477.15,176.22,477.8,180.23,478,184.36Zm-2.64-50.19,1.51,30.41c2.86-3,2.86-3,2.67-6.76s-.35-7.74-.58-11.6c-.29-4.84-.11-4.35,4-4.65.11,0,.22-.11.43-.23,0-.26,0-.57,0-.89-.08-3.58-.08-3.58,3.47-3.75l65.06-3.23,1-.05c2.33-.09,2.65.19,2.8,2.44,0,.69.07,1.38.1,2.08h1.29c3.43-.11,3.44-.11,3.6,3.22.24,4.79.5,9.57.71,14.35.15,3.4,1.06,4.52-3.89,4.53-.16,0-.33.16-.52.25,0,.28,0,.54,0,.79.09,3.68.09,3.68-3.56,3.86l-48.55,2.41c-2.71.14-2.95.45-2.42,3.13l62.55-3.1-1.86-37.56Zm64.28-15c4.72-1.74,4.36-1.75,6,2.41,0,.11.19.17.29.25,4.29-1.29,4.29-1.29,5.78,2.76,1,2.68,1,2.68,4.18,2.25-1.85-5-3.65-9.92-5.51-15l-46.94,17.3A33.15,33.15,0,0,0,518.48,127M515,147.42c1.73,2.78,2.29,4.55,1.66,6.93-.42,1.55.31,2,1.45,2.4a6.29,6.29,0,0,0,5.39-11.29C520.6,143.68,517.24,144.42,515,147.42Zm9.43-19.27.12.3,24.68-1.22-.92-2.62c-4.22.85-4.22.85-6.33-2.92Z"/><path d="M704.54,134.9c.53.06,1,0,1.26.17.51.48,1.23,1.14,1.19,1.67s-.86,1.08-1.43,1.48c-.26.19-.74.05-1.13.05H674.86c-1.2,0-2.49,0-2.57-1.57s1.21-1.73,2.49-1.8V120.55c-1-1-2.24-1.69-2.44-2.58-.4-1.74-.24-3.38,1.76-4.6,4.76-2.92,9.35-6.11,14-9.26a2.55,2.55,0,0,1,3.27,0c4.75,3.24,9.55,6.39,14.33,9.59,1.36.91,2.12,3.78,1.17,5.06-.46.61-1.41.86-2.29,1.36Zm-21-15v15h12.23v-15Zm20.06-3.58c-4.67-3.11-8.93-6-13.24-8.76a1.93,1.93,0,0,0-1.67.16c-2.77,1.76-5.48,3.61-8.21,5.43l-4.77,3.17ZM680,134.9v-15h-1.77v15Zm19.31-15v15h1.77v-15Z"/><path d="M662.43,161.9v14.76c.42.05.91,0,1.13.16.54.51,1.28,1.13,1.31,1.74,0,.46-.88,1-1.43,1.45-.17.14-.53,0-.81,0H632.57c-.38,0-.88.11-1.12-.09-.51-.41-1.19-1-1.21-1.5s.61-1.15,1.1-1.58c.27-.24.83-.15,1.34-.22v-15c-1-.33-2.5-.21-2.54-1.91s-.2-3.32,1.74-4.52c4.74-2.93,9.34-6.11,14-9.26a2.62,2.62,0,0,1,3.41-.05c4.74,3.24,9.55,6.39,14.33,9.59,1.35.9,2.1,3.81,1.14,5.07C664.25,161.18,663.3,161.42,662.43,161.9Zm-8.75,14.82v-15H641.45v15Zm7.76-18.66c-4.55-3-8.72-5.84-12.94-8.59a1.8,1.8,0,0,0-1.54-.2c-4.34,2.81-8.63,5.7-13.26,8.79Zm-25.28,3.65v15h1.78v-15Zm21.05,0v15.09l1.73-.08v-15Z"/><path d="M677.26,173.63c1,.53,1.83.94,2.63,1.38s1.49,1.19,1,2.27a1.57,1.57,0,0,1-2.36.7c-2.26-1.11-4.5-2.27-6.73-3.43a1.65,1.65,0,0,1-.75-2.49c1.14-2.19,2.33-4.35,3.49-6.52a1.62,1.62,0,0,1,2.32-.88,1.58,1.58,0,0,1,.6,2.39c-.55,1.06-1.12,2.12-1.88,3.55.86-.26,1.4-.4,1.92-.58a26.91,26.91,0,0,0,17.19-17.71c.15-.47.26-.95.43-1.42a1.63,1.63,0,1,1,3.14.89,7.85,7.85,0,0,1-.26.95,30.27,30.27,0,0,1-18.62,20.11C678.76,173.08,678.14,173.3,677.26,173.63Z"/><path d="M660,114.77a13.72,13.72,0,0,1-2.86-1.57,2.56,2.56,0,0,1-.75-2,1.38,1.38,0,0,1,2.12-.84c2.37,1.13,4.7,2.34,7,3.56a1.6,1.6,0,0,1,.68,2.38c-1.16,2.24-2.36,4.45-3.56,6.66a1.58,1.58,0,0,1-2.35.77c-1-.56-1-1.46-.5-2.42a15,15,0,0,0,1.48-3.48c-1.59.64-3.24,1.16-4.77,1.93a26.88,26.88,0,0,0-14.14,16.85c-.15.47-.18,1.11-.5,1.36a2.6,2.6,0,0,1-1.81.65c-.45-.09-.92-.84-1.08-1.39a3,3,0,0,1,.27-1.58,30.26,30.26,0,0,1,18.63-20.08C658.51,115.3,659.12,115.09,660,114.77Z"/><path d="M689.51,143.54c-5.92,0-11.85,0-17.77,0a2.91,2.91,0,0,1-1.94-1.09c-.23-.29.06-1.37.45-1.67a3.37,3.37,0,0,1,2-.47q16.2,0,32.4,0c1,0,2,0,3,0s2,.34,2.09,1.57-.89,1.73-2.09,1.73Z"/><path d="M647.55,182h17.93c1.2,0,2.14.38,2.1,1.72s-1,1.61-2.08,1.58H633.43c-1.26,0-2.52,0-3.78,0s-2.14-.39-2.1-1.72,1-1.58,2.08-1.58Z"/></g></g></svg>