<svg xmlns="http://www.w3.org/2000/svg" viewBox="0 0 34.73 30.96"><defs><style>.cls-1{fill:#6393f6;}</style></defs><g id="Layer_2" data-name="Layer 2"><g id="Layer_1-2" data-name="Layer 1"><g id="gOPx3D.tif"><path class="cls-1" d="M34.29,13.73a1,1,0,0,1-1.13-.13L27.78,9.65C24.4,7.17,21,4.7,17.64,2.22a.38.38,0,0,0-.55,0L1.64,13.54C.92,14.07.41,14,0,13.18V12.7A5.07,5.07,0,0,1,.65,12q8-5.86,16-11.71a1,1,0,0,1,1.46,0L34.21,12.12C34.87,12.6,34.91,13.37,34.29,13.73Z"/><path class="cls-1" d="M30.91,29.79a2.44,2.44,0,0,1,0,.27A.9.9,0,0,1,30,31H21a.9.9,0,0,1-1-1V21.39a2.71,2.71,0,1,0-5.42,0c0,2.78,0,5.56,0,8.34V30a.91.91,0,0,1-1,1H4.78a.89.89,0,0,1-1-.89v-15a2.82,2.82,0,0,1,0-.41.86.86,0,0,1,.92-.76.88.88,0,0,1,.86.84c0,.12,0,.24,0,.37v14H12.5c.28,0,.36-.08.36-.36,0-2.46,0-4.93,0-7.39a4.5,4.5,0,0,1,9-.48c.08,1.38,0,2.76,0,4.14v3.76c0,.21,0,.33.29.33h6.75l.18,0V15c0-.66.36-1.06.93-1a.88.88,0,0,1,.85.74,3.15,3.15,0,0,1,0,.44Z"/></g></g></g></svg>