<svg xmlns="http://www.w3.org/2000/svg" viewBox="0 0 548.88 505"><defs><style>.cls-1,.cls-3{fill:#5c8deb;}.cls-2{fill:#fff;}.cls-3{font-size:26.57px;font-family:Effra-Bold, Effra;font-weight:700;}.cls-4{fill:#4c7dc9;}.cls-12,.cls-13,.cls-5{fill:#274040;}.cls-6{fill:#1c2b2b;}.cls-7{fill:#afcfd4;}.cls-8{fill:#f0aa86;}.cls-9{fill:#f19a88;}.cls-10{fill:#ec5448;}.cls-11{fill:#dd463e;}.cls-12{stroke:#274040;stroke-linejoin:round;stroke-width:5px;}.cls-13{font-size:17.34px;font-family:Roboto-Black, Roboto Black;font-weight:800;}.cls-14{letter-spacing:-0.01em;}.cls-15{letter-spacing:0em;}.cls-16{letter-spacing:0em;}.cls-17{font-size:18.92px;}.cls-18{letter-spacing:0em;}.cls-19{fill:#335062;}.cls-20{fill:#da7c7e;}.cls-21{fill:#e19698;}.cls-22{fill:#25373f;}.cls-23{fill:#436373;}</style></defs><g id="Layer_2" data-name="Layer 2"><g id="Layer_1-2" data-name="Layer 1"><path class="cls-1" d="M28.88,0h520a0,0,0,0,1,0,0V488.69A16.31,16.31,0,0,1,532.57,505H45.18a16.31,16.31,0,0,1-16.31-16.31V0a0,0,0,0,1,0,0Z"/><path class="cls-2" d="M136.21,132.73q-11.2,0-17.68-5t-6.61-13.91L111,51.66l15.48-2.76-.63,56.76c0,3.11.77,5.38,2.33,6.8s4.21,2.14,8,2.14l2,1.26v15.61Z"/><path class="cls-2" d="M178,132.73a29.72,29.72,0,0,1-12-2.14,19.17,19.17,0,0,1-8-6.55,21,21,0,0,1-8.81,6.36,33.94,33.94,0,0,1-13,2.33l-2-1.26V115.86l2-1.26q12.72,0,14.22-6.67.51-2.52,1.14-6.48c.42-2.65.84-5.56,1.26-8.75L166,94.34q-.75,6.16-1.13,9.88c-.25,2.47-.38,4-.38,4.47a4.7,4.7,0,0,0,3.21,4.53Q171,114.6,178,114.6l2,1.26v15.61ZM159.75,85.78l-10.95-11,10.95-11,10.95,11Z"/><path class="cls-2" d="M201.54,69.66l-8.43-8.43-8.44,8.43L173.72,58.71l10.95-11,8.44,8.44,8.43-8.44,11,11ZM176,131.47V115.86l2-1.26a39.5,39.5,0,0,0,12.65-1.7c3.32-1.13,5-2.53,5-4.21a21.73,21.73,0,0,0-.69-4.91,62.12,62.12,0,0,0-1.82-6.11q-1.14-3.21-2.71-6.61a70.11,70.11,0,0,0-3.46-6.54L201,76.59a54.1,54.1,0,0,1,3.27,6.73A65.31,65.31,0,0,1,206.89,91a67,67,0,0,1,1.64,8,55.7,55.7,0,0,1,.56,7.56q0,13.59-7.49,19.88t-23.6,6.3Z"/><path class="cls-2" d="M222.18,132.73l-1-81.07,15.48-2.76-1,83.83Z"/><path class="cls-2" d="M269.64,85.9,258.69,75l10.95-11,10.95,11Z"/><path class="cls-2" d="M241.19,142.42a120.93,120.93,0,0,0,12.53-5.92,75.71,75.71,0,0,0,9.81-6.29A36,36,0,0,0,270,124.1a9.12,9.12,0,0,0,2.33-5.47q0-2.52-2-7.62a111.3,111.3,0,0,0-5.41-11.39l14.85-6.92a66.15,66.15,0,0,1,4.47,12.21,47.8,47.8,0,0,1,1.57,11.83,33.7,33.7,0,0,1-2.45,12.65,39.38,39.38,0,0,1-7.12,11.39,54.51,54.51,0,0,1-11.32,9.63,76.84,76.84,0,0,1-15.11,7.49Z"/><path class="cls-2" d="M320.37,162.31l-8.44-8.44-8.43,8.44-10.95-10.95,10.95-11,8.43,8.43,8.44-8.43,10.95,11Z"/><path class="cls-2" d="M328.3,132.73q-11.46,0-17.88-5.1T304,113.47V111.2a39.88,39.88,0,0,1-7.93.76,52,52,0,0,1-10.32-1.13,36.89,36.89,0,0,1-9.44-3.15l3.4-15a78.81,78.81,0,0,0,8.75,1.13q4.85.38,9.25.38a105.1,105.1,0,0,0,10.89-.57q5.47-.56,10.76-1.57c-.42,3.11-.76,5.85-1,8.24s-.38,4-.38,4.85q0,5,2.4,7.24t7.93,2.2l2,1.26v15.61Z"/><path class="cls-2" d="M368.2,133.86a27.09,27.09,0,0,1-21.53-10.07,21.43,21.43,0,0,1-18.37,8.94l-2-1.26V115.86l2-1.26a19.5,19.5,0,0,0,4.15-.38,8.32,8.32,0,0,0,3.21-1.44,15.2,15.2,0,0,0,2.83-2.84,33,33,0,0,0,2.9-4.53l6.29-10.82a33,33,0,0,1,9.19-10.89A18.46,18.46,0,0,1,367.82,80a16.75,16.75,0,0,1,8.62,2.39,24.64,24.64,0,0,1,7.18,6.42,31.27,31.27,0,0,1,4.84,9.44,37,37,0,0,1,1.77,11.58q0,11.33-5.86,17.68T368.2,133.86Zm-14-24a18.05,18.05,0,0,0,6.48,5,18.67,18.67,0,0,0,8.12,1.89,8.61,8.61,0,0,0,6.17-2.26,7.8,7.8,0,0,0,2.39-5.92,10.91,10.91,0,0,0-3-7.74,9.67,9.67,0,0,0-7.3-3.21q-6.81,0-11.46,9.56Zm44.68,22.91a26.27,26.27,0,0,1-13.21-3.15,18.53,18.53,0,0,1-8.06-8.94l9.44-12.84q0,6.81,11.83,6.8l2,1.26v15.61Z"/><path class="cls-2" d="M438.81,133.86a27.08,27.08,0,0,1-21.52-10.07,21.46,21.46,0,0,1-18.38,8.94l-2-1.26V115.86l2-1.26a19.53,19.53,0,0,0,4.16-.38,8.32,8.32,0,0,0,3.21-1.44,15.5,15.5,0,0,0,2.83-2.84,32.08,32.08,0,0,0,2.89-4.53l6.3-10.82a32.81,32.81,0,0,1,9.19-10.89A18.46,18.46,0,0,1,438.44,80a16.77,16.77,0,0,1,8.62,2.39,24.48,24.48,0,0,1,7.17,6.42,31.29,31.29,0,0,1,4.85,9.44,37.34,37.34,0,0,1,1.76,11.58q0,11.33-5.85,17.68T438.81,133.86Zm-14-24a18.14,18.14,0,0,0,6.48,5,18.7,18.7,0,0,0,8.12,1.89,8.6,8.6,0,0,0,6.17-2.26,7.8,7.8,0,0,0,2.39-5.92,10.86,10.86,0,0,0-3-7.74,9.66,9.66,0,0,0-7.3-3.21q-6.8,0-11.45,9.56Z"/><rect class="cls-2" x="315.88" y="418" width="183" height="41" rx="8.71"/><text class="cls-3" transform="translate(360.3 446.15)">نأا نلعأ</text><circle class="cls-4" cx="160.12" cy="342.98" r="120.93" transform="translate(-195.63 213.68) rotate(-45)"/><circle class="cls-4" cx="160.12" cy="340.2" r="118.14"/><path class="cls-5" d="M110.63,320.51c-15,43.32-34.92,86.62-68.24,70C1,369.89-1.73,443.18,45.78,443.27c43.7.08,63.47-57.63,64.68-84.26S110.63,320.51,110.63,320.51Z"/><path class="cls-6" d="M106.19,360.12S78.06,422.81,60.89,418l-8.26-24.11a34.17,34.17,0,0,1-10.24-3.34C1,369.89-1.73,443.18,45.78,443.27c40.23.08,60.17-48.81,64-77.36Z"/><ellipse class="cls-7" cx="40.61" cy="407.66" rx="27.13" ry="26.46"/><ellipse class="cls-2" cx="40.61" cy="406.17" rx="25.6" ry="24.97"/><path class="cls-8" d="M60.66,322.19c-12-6.92,12.81-26.39,3.1-45.84-8.23-16.51-34.94-9.61-31.88,9.16s9.17,34.38-11.36,35.41a39.11,39.11,0,0,0,22.77,7C57.21,328,60.66,322.19,60.66,322.19Z"/><path class="cls-9" d="M60.66,322.19c-11-6.35,9-23.3,4.83-41.08,1.2,10.45-7.19,30-13.8,33.72s-9.91,4.95-31.17,6.09a39.11,39.11,0,0,0,22.77,7C57.21,328,60.66,322.19,60.66,322.19Z"/><ellipse class="cls-9" cx="38.43" cy="403.29" rx="22.65" ry="22.09"/><path class="cls-8" d="M54.71,322c-24.2,1.38-33.25-3.91-44.8,1.29C-.51,327.93.15,337.56,4.77,341.92c4.94,4.66-5.71,7.72-4.49,14.25S5.9,367.7,3.43,371.92-.68,377.1.28,382s7.3,8.07,6.75,12.87S.75,416,45.18,414.2c35-1.4,27.91-17.74,21.9-20.39,2.26-2.32,12.09-13.3-1-23.18,7.78-3.15,10.13-19.71-.5-25.14C80.36,340.45,76.14,320.73,54.71,322Z"/><path class="cls-9" d="M67.08,393.81l-40.53,2.5a2.5,2.5,0,1,1,0-5l40.53,2.5Z"/><path class="cls-9" d="M66.12,370.63l-39.55,2.62a2.51,2.51,0,1,1,0-5l39.59,2.38Z"/><path class="cls-9" d="M65.62,345.47l-39.05,2.62a2.51,2.51,0,1,1,0-5l39.09,2.38Z"/><path class="cls-5" d="M160.12,463.91A120.39,120.39,0,0,0,233.67,439V317.1c-35.8,22.73-98.78,20.74-120.59-5.2-11,35.5-14.55,83.85,6.23,145A120.72,120.72,0,0,0,160.12,463.91Z"/><path class="cls-6" d="M233.67,317.1c-35.8,22.73-98.78,20.74-120.59-5.2q-1.56,5-2.91,10.39c.33,1.48,2.91,8,15.22,21l.27-2.05s7.73,6.37,13.5,8.53c5.08,1.91,28.17,4.57,28.17,4.57,6.41.46,15.85-.35,19-2l-.72,2.09s34.65-8.32,48.06-28.56Z"/><path class="cls-7" d="M137.88,327.49c-.63-.22-1.91,29.21,13.64,63,0,0,15.57-41,28.6-57.68C180.12,332.85,156.81,334,137.88,327.49Z"/><path class="cls-2" d="M113.08,311.9s-1.1,1.87-2.45,8.61c.14.16,8.58,17,29.76,29.13l15.17-18,11.09,21.19c18.78,1.61,54.78-9.83,67-28.11v-7.6C197.87,339.83,134.89,337.84,113.08,311.9Z"/><path class="cls-7" d="M233.67,324.7v-7.6a85.88,85.88,0,0,1-13,6.73c-12.15,17-29.63,28.14-54,29C185.43,354.42,221.43,343,233.67,324.7Z"/><polygon class="cls-10" points="143.8 345.58 147.44 356.58 157.33 358.11 165.07 349.79 155.56 331.62 143.8 345.58"/><path class="cls-10" d="M147.44,356.58l-3.64,13.49s3.38,12.2,7.72,20.46c0,0,6.9-16.92,8.22-19.89l-2.41-12.53Z"/><path class="cls-11" d="M155.56,331.62l-11.76,14,.37,1.11,10.26-11.08,6.44,13.57-5.33,8.64-8.11-1.25,7.73,2.43,2,13.5-5.64,14.41L144,369.27h0l-.22.8s3.38,12.2,7.72,20.46c0,0,6.9-16.92,8.22-19.89l-2.41-12.53,7.74-8.32Z"/><path class="cls-8" d="M272.53,340.68c3-17.41,14.28-22.35,22.52-22.11S313.88,335,306.2,347.69A21.76,21.76,0,0,0,284,360.12Z"/><path class="cls-9" d="M301.3,334.29c-5.42-3.68-14-3.13-17.67,2.73l-.26-.15c.14-6.56,8.68-9.55,13.95-6.88a8.06,8.06,0,0,1,4.15,4.06l-.17.24Z"/><path class="cls-9" d="M296.19,316.75c9.36-.79,11.28,11.57,9.72,18.56l-.3,0a29.78,29.78,0,0,0-.71-5.53,16.17,16.17,0,0,0-3.25-7.19,47.67,47.67,0,0,0-3.38-3.71c-.71-.61-1.42-1.17-2.16-1.81l.08-.29Z"/><path class="cls-8" d="M273.35,336.94c-.47-9.28,9.24-10.9,1.23-25-5.19-9.14,3.94-18.31,9.4-15,11.48,7,1.92,23.37,5.18,22.41s18.76-8,32.91-5.29c11,2.09,4.67,10.6-.27,9.84-9.39-1.45-15.44.46-20.85,1.61S273.35,336.94,273.35,336.94Z"/><path class="cls-9" d="M289.16,303.5c1.16,5.34-1.83,13.27-5.53,16.64A24.56,24.56,0,0,0,278.1,328c1.8-2.78,4.95-5.85,11.06-8.68C286.71,320.06,291.49,311,289.16,303.5Z"/><path class="cls-9" d="M323,319.54c-6.37-1-14.07.59-19.68,3.25l1.06,1.94a43.65,43.65,0,0,1,17.39-.84c3.7.57,8.16-4.06,5.55-7.3C327.35,316.59,327.57,320.24,323,319.54Z"/><path class="cls-8" d="M297.7,325.5c12.55-4.32,26.54-6.13,32.77-1.52,4.85,3.58,1.62,10.7-3,9.27-8.93-2.72-20.61-1.13-25.67.4S297.7,325.5,297.7,325.5Z"/><path class="cls-9" d="M328.13,329.22a34.91,34.91,0,0,0-22.27.9v2.58c5.87-1.06,14.57-1.58,21.58.55,4.28,1.31,7.34-4.57,4.08-8.31A2.88,2.88,0,0,1,328.13,329.22Z"/><path class="cls-8" d="M298.6,333.49c11.08-4,23.43-5.63,28.93-1.4,4.28,3.29,1.43,9.82-2.69,8.52-7.87-2.5-18.19-1.05-22.65.36S298.6,333.49,298.6,333.49Z"/><path class="cls-9" d="M324.84,340.61c2.75.87,4.93-1.76,4.81-4.58h0c-1.52,4.75-8.94,0-21,1.81-3.57.54-3.6,1.17-3.19,2.33C310.61,339.15,318.51,338.6,324.84,340.61Z"/><path class="cls-8" d="M299.21,339.29c10.33-1.13,21.07.28,24.45,5.68,2.64,4.2-1.56,9.78-4.62,7.52-5.85-4.31-14.84-5.42-18.94-5.16S299.21,339.29,299.21,339.29Z"/><path class="cls-9" d="M306.18,347.69c4.18.63,9.15,2.07,12.86,4.8,1.91,1.41,4.27-.24,5.12-2.69-1.58,2.38-6.46-2-14.17-3.83-14.72-3.54-18.82,2.33-22.93-3-6.12-7.9-11.88-8.31-13.41-9.42a12.27,12.27,0,0,0-.3,3.38L284,360.12A21.76,21.76,0,0,1,306.18,347.69Z"/><path class="cls-5" d="M233.67,324.7c0,48.85,16.54,65.83,39.68,12.24,0,0,12.27,0,14.44,17.55-6.74,12.13-11.25,29.87-20.26,41.07-11.09,13.78-30.28,11-39.5.89Z"/><path class="cls-2" d="M273.35,336.94c-1.11,2.57-2.21,5-3.28,7.23,9,3.72,11.72,11.83,13.32,19.48,1.41-3.25,2.84-6.36,4.4-9.16C285.62,336.94,273.35,336.94,273.35,336.94Z"/><path class="cls-7" d="M286.56,348.74c-1,4.1-3.14,6.77-4.33,4.22-1.7-3.64-6.18-9.49-11.35-10.51h0c-.27.58-.54,1.16-.81,1.72,9,3.72,11.72,11.83,13.32,19.48,1.41-3.25,2.84-6.36,4.4-9.16A31.06,31.06,0,0,0,286.56,348.74Z"/><path class="cls-12" d="M100.58,267.7c10.58-5.72,17.64-16,17.64-27.72,0-18-16.55-32.52-37-32.52s-37,14.56-37,32.52,16.55,32.52,37,32.52a41.41,41.41,0,0,0,12.17-1.81c3.4,5.93,10.39,11.52,24.78,10.23C118.2,280.92,106.3,278.8,100.58,267.7Z"/><path class="cls-2" d="M100.58,267c10.58-5.72,17.64-16,17.64-27.72,0-18-16.55-32.52-37-32.52s-37,14.56-37,32.52,16.55,32.52,37,32.52A41.41,41.41,0,0,0,93.42,270c3.4,5.93,10.39,11.53,24.78,10.23C118.2,280.19,106.3,278.07,100.58,267Z"/><text class="cls-13" transform="translate(61.55 237.77)">G<tspan class="cls-14" x="11.2" y="0">r</tspan><tspan class="cls-15" x="16.7" y="0">e</tspan><tspan class="cls-16" x="25.39" y="0">a</tspan><tspan x="33.68" y="0">t</tspan><tspan class="cls-17"><tspan class="cls-18" x="-0.33" y="15.76">D</tspan><tspan x="12.34" y="15.76">eal!</tspan></tspan></text><path class="cls-19" d="M136.43,256.42s1.48-38,36.95-25.2L144,263.67Z"/><path class="cls-8" d="M146,263s-10.79-17.55-21.07-2.33c-8.88,13.15,5.41,40.87,20.84,29.85Z"/><path class="cls-9" d="M136.65,254.86c-6.61,7.39-9,18.41-10.52,29.61,4.38,7.3,11.87,11.58,19.64,6L146,263S142.05,256.56,136.65,254.86Z"/><path class="cls-8" d="M233.67,317.1V245.54c0-48.44-76.09-6.93-76.09-6.93s-29.34,24.52-44.5,73.29C134.89,337.84,197.87,339.83,233.67,317.1Z"/><path class="cls-9" d="M218.94,241.17c-12.6-4.93-46.83,12.81-73.21,9.86-1.12,1.34-2.28,2.78-3.49,4.34C175.43,257.25,205,237,218.94,241.17Z"/><path class="cls-9" d="M233.67,317.1V289.44l-5.37,1.65A92.11,92.11,0,0,1,225,310.18a19.7,19.7,0,0,1-12.51,13.65c-28.51,9.91-72.07,10.33-99.06-13.15,0,0-.16.59-.38,1.22C134.85,337.89,197.85,339.84,233.67,317.1Z"/><path class="cls-8" d="M228.3,263.57s10.94-17.46,21.09-2.16c8.77,13.22-5.75,40.82-21.09,29.68Z"/><path class="cls-9" d="M170.39,269.94c-4.23,9.29-18.45,20.54-15.89,27.12,1.45,3.72,12.21,5.52,15.91,2.36C177.88,293,170.39,269.94,170.39,269.94Z"/><path class="cls-20" d="M170.39,269.94c-4.23,9.29-19.17,19.81-16.61,26.39,1.44,3.73,11.48,4.8,15.18,1.63C176.43,291.57,170.39,269.94,170.39,269.94Z"/><path class="cls-21" d="M163.18,283.4c-.57,1.26-1.21,2.49-1.84,3.72s-1.33,2.43-2,3.62a16.51,16.51,0,0,0-.85,1.82c-.24.6-.51,1.16-.68,1.63a1.61,1.61,0,0,0-.1,1.21,6.28,6.28,0,0,0,1.15,1.53l-.08.2a3.36,3.36,0,0,1-2.25-.75,2.46,2.46,0,0,1-.79-1.26,3.28,3.28,0,0,1,0-1.42c.31-1.74,1.38-2.75,2.18-3.89s1.68-2.2,2.53-3.28l2.58-3.25Z"/><circle class="cls-22" cx="191.02" cy="271.64" r="7.21"/><circle class="cls-2" cx="193.22" cy="271.23" r="1.81"/><path class="cls-2" d="M196.19,269.61a1,1,0,1,1-1-1A1,1,0,0,1,196.19,269.61Z"/><path class="cls-9" d="M208.44,270.27a2.13,2.13,0,0,1-2.07-1.81c-.69-4-2.34-6.72-5-8.28-6.48-3.74-16.71.38-16.81.42a2.08,2.08,0,0,1-2.74-1.22,2.2,2.2,0,0,1,1.18-2.83c.5-.2,12.21-4.92,20.43-.18,3.82,2.21,6.23,6,7.13,11.34a2.16,2.16,0,0,1-1.71,2.52A2.21,2.21,0,0,1,208.44,270.27Z"/><path class="cls-22" d="M209.34,268.81a2.17,2.17,0,0,1-2.14-1.8c-.71-4-2.42-6.73-5.21-8.29-6.7-3.73-17.27.39-17.37.43a2.18,2.18,0,0,1-1.61-4c.51-.21,12.62-4.92,21.1-.18,4,2.2,6.44,6,7.38,11.33a2.18,2.18,0,0,1-1.77,2.53A2.43,2.43,0,0,1,209.34,268.81Z"/><circle class="cls-22" cx="152.64" cy="271.05" r="6.75"/><path class="cls-2" d="M156.39,270.66a1.7,1.7,0,1,1-1.7-1.69A1.69,1.69,0,0,1,156.39,270.66Z"/><circle class="cls-2" cx="156.51" cy="269.15" r="0.96"/><path class="cls-9" d="M136.18,269.31a2.43,2.43,0,0,1-.38,0,2.18,2.18,0,0,1-1.72-2.53c.86-5,3.15-8.62,6.79-10.71,7.79-4.47,18.89,0,19.36.16a2.2,2.2,0,0,1,1.19,2.83,2.11,2.11,0,0,1-2.76,1.22c-.15-.06-9.73-3.85-15.73-.4-2.5,1.44-4,3.95-4.67,7.66A2.13,2.13,0,0,1,136.18,269.31Z"/><path class="cls-22" d="M135.49,267.86a1.72,1.72,0,0,1-.39,0,2.18,2.18,0,0,1-1.76-2.52c.88-5,3.23-8.62,7-10.71,8-4.47,19.4,0,19.88.16a2.18,2.18,0,0,1-1.61,4.05c-.16-.06-10-3.85-16.15-.4-2.58,1.44-4.14,3.94-4.8,7.65A2.19,2.19,0,0,1,135.49,267.86Z"/><path class="cls-2" d="M156.87,306.69,205,287.77s4.05,28.67-18.57,34.18C163.43,327.57,156.87,306.69,156.87,306.69Z"/><path class="cls-7" d="M205,287.77l-3.35,1.32s3.77,26.67-17.28,31.8c-21.43,5.23-27.54-14.2-27.54-14.2s6.56,20.88,29.6,15.26C209.09,316.44,205,287.77,205,287.77Z"/><path class="cls-9" d="M197.4,283.4a19,19,0,0,1,5-2.87,10.64,10.64,0,0,1,2.94-.71,5.72,5.72,0,0,1,3.28.65,5.21,5.21,0,0,1,2.2,2.6,8.88,8.88,0,0,1,.61,3,15.81,15.81,0,0,1-.84,5.7c-.3-1.89-.46-3.74-.85-5.47s-1-3.32-2.2-3.95-2.94-.53-4.67-.19S199.28,283,197.4,283.4Z"/><path class="cls-9" d="M184.7,324.47a45.36,45.36,0,0,0,4.94-.79A18.25,18.25,0,0,0,194.3,322a13,13,0,0,0,3.83-3.1,18.88,18.88,0,0,0,2.64-4.21l.2.08a9.68,9.68,0,0,1-1.51,5.25,11.08,11.08,0,0,1-4.12,3.89,12.69,12.69,0,0,1-5.31,1.5,12.85,12.85,0,0,1-5.31-.68Z"/><path class="cls-19" d="M218.09,220a7.4,7.4,0,0,1,.82-1.11,12.53,12.53,0,0,1,2.78-2.21,11.32,11.32,0,0,1,3.47-1.36v-.29a10.52,10.52,0,0,0-4,.3,11.54,11.54,0,0,0-3.74,1.8,18.09,18.09,0,0,0-1.5,1.15q0-.69,0-1.35c0-.52,0-1-.07-1.54s-.05-1-.11-1.52l-.18-1.51-.29-1.48c-.1-.5-.23-1-.35-1.47s-.29-1-.44-1.45-.34-.94-.52-1.41a10.34,10.34,0,0,0-1.48-2.63l-.24.17a16.59,16.59,0,0,1,1.25,5.57,32.91,32.91,0,0,1,0,5.7,13.4,13.4,0,0,1-.18,1.4,12.65,12.65,0,0,1-.29,1.36,1.29,1.29,0,0,1,0,.19c-8.61-22-40.52-22.6-57.86,0-19.4,25.23-32.88,20.29-32.88,20.29,27.67,36.15,101.61-19.05,101.61,11.14l-1.73,17.92,11.53-9.1C248.77,228.8,228.59,217.8,218.09,220Z"/><path class="cls-22" d="M188.34,236.65c-19.46,9.29-51.91,13.33-65.09,3.14,28.39,33.67,100.62-19.9,100.62,9.94C225.83,226.72,208.57,227,188.34,236.65Z"/><path class="cls-22" d="M233.67,258.55c8.84-17.41,5.59-28.39-.72-34.07h0c7.87,9.66.44,28.67-4.55,38.23Z"/><path class="cls-23" d="M155.14,218.3a113.38,113.38,0,0,1-7.77,8.9c12-12.8,22.84-20.36,34.95-21.52,12.94-1.24,27,3.26,31.85,16.23C207.75,196.46,173.38,194.57,155.14,218.3Z"/><path class="cls-23" d="M134.11,240.69A97.39,97.39,0,0,1,147,238.78c1.06-.08,2.13-.17,3.19-.22s2.14-.05,3.2-.08l3.21,0c1.07,0,2.14-.08,3.21-.13s2.13-.17,3.19-.25,2.13-.19,3.19-.33,2.13-.22,3.19-.37l3.17-.49A70.42,70.42,0,0,0,185,233.71l.18.4A63.85,63.85,0,0,1,173,239a104.07,104.07,0,0,1-12.84,2.77c-1.08.17-2.16.33-3.25.52l-3.25.48a41.15,41.15,0,0,1-6.56.34c-1.09,0-2.19-.07-3.28-.17s-2.18-.2-3.27-.37a36.16,36.16,0,0,1-6.49-1.46Z"/><path class="cls-23" d="M201.8,215.79a38.07,38.07,0,0,0-4.48.65c-1.49.28-3,.62-4.41,1a66.9,66.9,0,0,0-8.5,2.88,69.18,69.18,0,0,0-8,3.86,66.37,66.37,0,0,0-7.41,4.72l-.87.66c-.3.23-.62.46-.91.7l-1.8,1.43c-1.2,1-2.39,2-3.63,2.89a38.18,38.18,0,0,1-8.16,4.93,31.24,31.24,0,0,1-9.68,2.63,27.16,27.16,0,0,1-9.81-.81l-.1-.87c2.89-1.56,5.69-2.79,8.23-4.18a81.18,81.18,0,0,0,7.25-4.39,82.12,82.12,0,0,1,7.54-4.61c1.33-.72,2.7-1.42,4.06-2.14l2-1.08,2.08-1.13a73.18,73.18,0,0,1,8.71-4.06,69.05,69.05,0,0,1,9.14-2.76,64.71,64.71,0,0,1,9.35-1.39,45.45,45.45,0,0,1,9.4.19Z"/><path class="cls-23" d="M155.43,218.38a43.79,43.79,0,0,1,10.27-7.44c1-.47,1.91-1,2.92-1.37s2-.83,3-1.13l1.56-.48c.52-.17,1.06-.25,1.59-.38l1.6-.36c.54-.1,1.09-.16,1.63-.24l1.64-.23,1.65-.13,1.67-.12h1.67l1.68.06c.55.08,1.1.16,1.65.26s1.1.21,1.65.33,1.06.34,1.59.52A23.38,23.38,0,0,1,202,215.14l-.29.42c-1.09-.22-2.1-.53-3.09-.83-.48-.17-1-.28-1.49-.41s-1-.26-1.47-.4c-.95-.32-1.94-.48-2.89-.72a28.42,28.42,0,0,0-2.85-.62l-1.42-.3c-.47-.07-.95-.15-1.42-.24l-1.41-.3-1.42-.22-1.44-.26-1.45-.13c-.49,0-1-.1-1.46-.12l-1.47,0c-.49,0-1,0-1.48.05l-1.47.16c-.49.06-1,.08-1.47.18l-1.47.28a29.32,29.32,0,0,0-2.92.66c-1,.22-1.92.59-2.88.9a46.68,46.68,0,0,0-11,5.51Z"/><path class="cls-23" d="M222.66,230.33a6.38,6.38,0,0,1,3.1,1.95,11.3,11.3,0,0,1,2,3,17,17,0,0,1,1.24,6.95,14.27,14.27,0,0,1,0,1.73c0,.58,0,1.15,0,1.72-.11,1.14-.18,2.28-.34,3.41s-.35,2.24-.59,3.35-.5,2.2-.76,3.3l-.29-.05c0-1.13.1-2.24.16-3.35s0-2.23,0-3.34-.1-2.21-.14-3.3c0-.55-.11-1.09-.16-1.63s-.1-1.09-.21-1.62-.2-1.06-.31-1.59-.3-1-.44-1.53-.32-1-.46-1.51-.28-1-.43-1.49a19.07,19.07,0,0,0-2.55-5.78Z"/><path class="cls-23" d="M231.49,245.52a22,22,0,0,0-1.49-4.34,15.35,15.35,0,0,0-1-1.92,9,9,0,0,0-.57-.89l-.3-.43-.33-.4a8,8,0,0,0-1.5-1.36,5,5,0,0,1-.74-.62c-.21-.24-.42-.47-.62-.72l-.28-.41a3.35,3.35,0,0,0-.29-.44,9.76,9.76,0,0,1-.59-.92c-.18-.36-.41-.68-.62-1.06a13.76,13.76,0,0,1-.63-1.32l.2-.47a6.59,6.59,0,0,1,5.55.78,5.53,5.53,0,0,1,1.93,2c.42.85.8,1.68,1.12,2.52l.26.62.2.63a11.91,11.91,0,0,1,.36,1.26,17.52,17.52,0,0,1,.36,2.56,15.6,15.6,0,0,1-.47,5Z"/><path class="cls-23" d="M220.58,223.84a9.94,9.94,0,0,1,3.5.37,11.52,11.52,0,0,1,3.23,1.62,13.93,13.93,0,0,1,4.37,5.78l.35.85a8.78,8.78,0,0,1,.33.85l.56,1.73a13.54,13.54,0,0,1,.44,3.57,17,17,0,0,1-1.47,6.95l-.29,0a26.4,26.4,0,0,1-.65-3.43c-.21-1.12-.3-2.22-.49-3.3a43.63,43.63,0,0,0-1-6.38,13.5,13.5,0,0,0-1.24-2.93,3.8,3.8,0,0,0-.4-.68l-.45-.67a14.65,14.65,0,0,0-1-1.2,10.26,10.26,0,0,0-2.61-1.89,10.12,10.12,0,0,0-3.18-.91Z"/><path class="cls-6" d="M220.41,343a61.07,61.07,0,0,0-4.63,13.61,60.23,60.23,0,0,0-1.4,14.21,49.19,49.19,0,0,0,.67,7.08,56.49,56.49,0,0,0,1.55,6.87,29.81,29.81,0,0,0,2.66,6.45,18.66,18.66,0,0,0,2,2.82,13.17,13.17,0,0,0,2.7,2.27l-.08.2a10.32,10.32,0,0,1-3.29-1.74,16,16,0,0,1-2.63-2.7,24.7,24.7,0,0,1-3.47-6.63,41.09,41.09,0,0,1-1.88-14.62,60,60,0,0,1,7.58-27.93Z"/><path class="cls-6" d="M160.12,463.91A120.39,120.39,0,0,0,233.67,439h0V401c6.3,3.59,17.88,7.07,28.54-.46,13.61-9.63,21.18-36.92,21.18-36.92s-.73-3.13-2-7.16c-4,9.17-15.22,42.54-32.28,45.71-15.38,2.86-30.4-9.26-30.4-9.26l0,32.79a20.41,20.41,0,0,1-10.35,17.84c-15,8.44-46.18,19.87-91.22,6.44l2.12,6.84A120.72,120.72,0,0,0,160.12,463.91Z"/><path class="cls-6" d="M185.14,356.54c-.62,1.69-1.21,3.39-1.87,5.07l-1.94,5-1.93,5-2,5-.15.35-.4.23-7.19,4.05a.91.91,0,0,0,.34-.51.81.81,0,0,0-.6-.94l-.13,0h.4l2.12.09c1.41.05,2.82.14,4.22.23l3.34.19L177.16,383l-6.73,8.21-6.81,8.15c-2.26,2.73-4.56,5.42-6.86,8.11l-6.91,8.07.43-1c-.4,3.76-.54,7.69-.58,11.56s0,7.77.23,11.66.66,7.76,1.14,11.64,1.25,7.71,2.08,11.56h0a.11.11,0,0,1-.08.13.11.11,0,0,1-.13-.08,109.78,109.78,0,0,1-2.79-11.45c-.73-3.86-1.26-7.76-1.64-11.68s-.59-7.84-.64-11.77,0-7.87.37-11.79v-.06l0-.05L162,398l13.73-16.21.12.29-4.22-.32-2.11-.16a4.16,4.16,0,0,1-.55-.06.82.82,0,0,1-.51-.38.87.87,0,0,1,.22-1.16c1.28-.69,2.51-1.31,3.77-2l3.75-1.95-.06.07,8.82-19.68a.12.12,0,0,1,.15-.06.12.12,0,0,1,.06.14Z"/><path class="cls-6" d="M125.78,350.29c.42,4.16.9,8.32,1.64,12.44a71,71,0,0,0,3.2,12.11l-.08-.1L134,376.8l1.73,1,.44.26a.83.83,0,0,1,.37.54.83.83,0,0,1-.69,1h0l-2.62-.11-1.31-.05h-.27l0,0,.3.53,2.63,4.55,5.27,9.09,10.53,18.19a.1.1,0,0,1,0,.14.11.11,0,0,1-.14,0h0c-2.15-2.8-4.15-5.69-6.14-8.59-1-1.46-2-2.91-2.92-4.38l-2.85-4.41L135.5,390c-.93-1.48-1.85-3-2.73-4.48L130.08,381l-.17-.28-.08-.14-.05-.07,0-.05a2.76,2.76,0,0,1-.18-.39,2.18,2.18,0,0,1,1.49-2.78,3.21,3.21,0,0,1,.43-.07H132l1.31.07,2.63.14-.39,0a1.29,1.29,0,0,0-.86.55,1.26,1.26,0,0,0-.2,1,1.34,1.34,0,0,0,.57.84l-.37-.22L133,378.58l-3.41-2.15-.58-.36-.18-.56a50.17,50.17,0,0,1-1.69-6.22,62.48,62.48,0,0,1-1-6.32c-.12-1.06-.22-2.11-.3-3.17s-.13-2.11-.17-3.16c-.09-2.11-.09-4.22,0-6.33v0a.1.1,0,0,1,.11-.1A.11.11,0,0,1,125.78,350.29Z"/><path class="cls-6" d="M155.65,418.38a2.77,2.77,0,0,1,2.51.63,5.11,5.11,0,0,1,1.5,2.25,6.52,6.52,0,0,1-.44,5.37,4.45,4.45,0,0,1-2.41,2,3.34,3.34,0,0,1-3.19-.68,4.43,4.43,0,0,1-1.37-2.42,5,5,0,0,1,.14-2.5v0a.07.07,0,0,1,.14,0,5,5,0,0,0,1.75,4,2.21,2.21,0,0,0,2.07.32,3.16,3.16,0,0,0,1.61-1.45,6.05,6.05,0,0,0,.58-4.36,4.83,4.83,0,0,0-1-2,2.62,2.62,0,0,0-1.93-1,.08.08,0,0,1-.07-.07.07.07,0,0,1,0-.07Z"/><path class="cls-2" d="M379.44,217.77q-5.08,0-5.69-4a6.9,6.9,0,0,1-3.5.85,7.79,7.79,0,0,1-2.25-.32,5.67,5.67,0,0,1-1.82-.92,4.42,4.42,0,0,1-1.24-1.5,4.36,4.36,0,0,1-.46-2,5.77,5.77,0,0,1,2.39-4.64,15.67,15.67,0,0,1,6.67-2.79v-2.16l2.79-.49-.14,12a2.62,2.62,0,0,0,.74,2.17,3.87,3.87,0,0,0,2.51.65l.57.36v2.47Zm-10.93-20.34-2.19-2.23,2.19-2.23,2.2,2.23Zm2.16,14.11a8.18,8.18,0,0,0,3-.49l-.07-5.7a16.64,16.64,0,0,0-2.51.48,10.73,10.73,0,0,0-2.14.85,5,5,0,0,0-1.48,1.17,2.14,2.14,0,0,0-.55,1.43,1.79,1.79,0,0,0,.3,1.06,2.28,2.28,0,0,0,.83.69,4.26,4.26,0,0,0,1.22.39A8.36,8.36,0,0,0,370.67,211.54Zm3-14.11-2.2-2.23,2.2-2.23,2.19,2.23Z"/><path class="cls-2" d="M378.88,217.41v-2.47l.56-.36a12.4,12.4,0,0,0,1.49-.08,6.2,6.2,0,0,0,1.33-.3,2.86,2.86,0,0,0,.95-.57,1.13,1.13,0,0,0,.37-.85l-.1-17.33,2.79-.5-.14,17.55a4.88,4.88,0,0,1-.59,2.49,4.66,4.66,0,0,1-1.52,1.63,6.17,6.17,0,0,1-2.12.88,11,11,0,0,1-2.46.27Z"/><path class="cls-2" d="M389.35,214.48a16.3,16.3,0,0,0,2,.26q1.08.09,2.07.09a19.94,19.94,0,0,0,2.07-.1,17.17,17.17,0,0,0,1.79-.27,5.15,5.15,0,0,0,1.25-.39c.32-.15.48-.3.48-.44a5.29,5.29,0,0,0-.4-1.87,12.53,12.53,0,0,0-1.14-2.2,19.61,19.61,0,0,0-1.73-2.28,24.69,24.69,0,0,0-2.17-2.17l2.19-2.09a22,22,0,0,1,2.37,2.47,17.46,17.46,0,0,1,1.8,2.68,13.85,13.85,0,0,1,1.15,2.7,9,9,0,0,1,.41,2.58,3.69,3.69,0,0,1-1.89,3.5c-1.27.71-3.32,1.07-6.18,1.07-.49,0-1.06,0-1.71-.08s-1.21-.1-1.68-.17Z"/><path class="cls-2" d="M411.1,217.77q-5.7,0-5.77-5l-.14-17.37,2.8-.5-.15,16.81a2.72,2.72,0,0,0,.77,2.17,3.75,3.75,0,0,0,2.49.65l.56.36v2.47Z"/><path class="cls-2" d="M422.77,217.77q-4.14,0-5.52-2.37a4.52,4.52,0,0,1-2.31,1.75,10.81,10.81,0,0,1-3.84.62l-.57-.36v-2.47l.57-.36a8.21,8.21,0,0,0,3.41-.53,2.47,2.47,0,0,0,1.4-1.76c0-.26.11-.59.18-1l.21-1.18q.1-.6.18-1.2c0-.41.09-.76.14-1.07l2.4.29c-.12,1-.22,1.9-.32,2.72s-.14,1.33-.14,1.52q0,2.19,4.21,2.19l.57.36v2.47Zm-5.48,7.28-2.19-2.22,2.19-2.23,2.19,2.23Z"/><path class="cls-2" d="M434.44,217.77q-4.14,0-5.51-2.37a4.59,4.59,0,0,1-2.32,1.75,10.73,10.73,0,0,1-3.84.62l-.56-.36v-2.47l.56-.36a8.21,8.21,0,0,0,3.41-.53,2.44,2.44,0,0,0,1.4-1.76c.05-.26.11-.59.18-1l.21-1.18q.11-.6.18-1.2c0-.41.09-.76.14-1.07l2.4.29c-.11,1-.22,1.9-.31,2.72s-.15,1.33-.15,1.52c0,1.46,1.41,2.19,4.21,2.19l.57.36v2.47ZM427.12,205l-2.19-2.23,2.19-2.23,2.19,2.23Zm5.17,0-2.2-2.23,2.2-2.23,2.19,2.23Z"/><path class="cls-2" d="M445.44,218a7.54,7.54,0,0,1-3.34-.76,7.65,7.65,0,0,1-2.63-2.14,6,6,0,0,1-2.16,2,6.23,6.23,0,0,1-2.87.62l-.56-.36v-2.47l.56-.36a5.67,5.67,0,0,0,1.22-.12,2.92,2.92,0,0,0,1-.41,3.18,3.18,0,0,0,.83-.74,6.58,6.58,0,0,0,.78-1.17l2-3.53a9.63,9.63,0,0,1,2.36-3,4.39,4.39,0,0,1,2.74-.93,4.19,4.19,0,0,1,2.15.6,6,6,0,0,1,1.79,1.62,8.67,8.67,0,0,1,1.22,2.39,8.87,8.87,0,0,1,.46,2.88,5.94,5.94,0,0,1-1.47,4.27A5.36,5.36,0,0,1,445.44,218Zm-4.6-5.45a5.78,5.78,0,0,0,2.07,1.7,6.13,6.13,0,0,0,2.75.67,3,3,0,0,0,2.12-.74,2.75,2.75,0,0,0,.78-2.09,4.93,4.93,0,0,0-.27-1.63,4.35,4.35,0,0,0-.74-1.36,3.68,3.68,0,0,0-1.1-.92,2.7,2.7,0,0,0-1.29-.34c-1.27,0-2.35.87-3.22,2.59Z"/><path class="cls-2" d="M475.12,217.77q-5.1,0-5.7-4a6.88,6.88,0,0,1-3.5.85,7.67,7.67,0,0,1-2.24-.32,5.62,5.62,0,0,1-1.83-.92,4.37,4.37,0,0,1-1.69-3.53,5.76,5.76,0,0,1,2.38-4.64,15.78,15.78,0,0,1,6.67-2.79v-2.16l2.8-.49-.15,12a2.62,2.62,0,0,0,.75,2.17,3.85,3.85,0,0,0,2.51.65l.56.36v2.47Zm-10.93-20.34L462,195.2l2.19-2.23,2.19,2.23Zm2.16,14.11a8.18,8.18,0,0,0,3-.49l-.07-5.7a16.4,16.4,0,0,0-2.51.48,10.27,10.27,0,0,0-2.14.85,5,5,0,0,0-1.49,1.17,2.14,2.14,0,0,0-.55,1.43,1.79,1.79,0,0,0,.3,1.06,2.28,2.28,0,0,0,.83.69,4.37,4.37,0,0,0,1.22.39A8.39,8.39,0,0,0,466.35,211.54Zm3-14.11-2.19-2.23,2.19-2.23,2.2,2.23Z"/><path class="cls-2" d="M490.11,217.77a23.93,23.93,0,0,1-3.89-.32,21.07,21.07,0,0,1-3.6-.92,21.43,21.43,0,0,1-3.61.92,23.84,23.84,0,0,1-3.89.32l-.57-.36v-2.47l.57-.36q1,0,2,0c.64,0,1.24-.06,1.8-.11a5.63,5.63,0,0,1-1.84-4.31,6.72,6.72,0,0,1,.45-2.46,6.27,6.27,0,0,1,1.2-2,5.68,5.68,0,0,1,1.77-1.34,4.77,4.77,0,0,1,2.14-.5,4.84,4.84,0,0,1,2.14.5,5.76,5.76,0,0,1,1.76,1.34,6.48,6.48,0,0,1,1.21,2,6.92,6.92,0,0,1,.44,2.46,5.66,5.66,0,0,1-1.84,4.31c.54.05,1.13.09,1.77.11s1.31,0,2,0l.57.36v2.47ZM480,201l-2.19-2.23,2.19-2.22,2.2,2.22Zm-.67,9.23q0,2.45,3.26,3.51,3.25-1.06,3.25-3.51a3.27,3.27,0,0,0-.25-1.3,3.18,3.18,0,0,0-.69-1.07,3,3,0,0,0-1-.7,3.38,3.38,0,0,0-2.55,0,3,3,0,0,0-1,.7,3.18,3.18,0,0,0-.69,1.07A3.27,3.27,0,0,0,479.36,210.23ZM485.2,201,483,198.77l2.19-2.22,2.19,2.22Z"/><path class="cls-2" d="M491.6,201l-2.19-2.23,2.19-2.22,2.19,2.22Zm-2.05,16.41v-2.47l.56-.36a11.16,11.16,0,0,0,4-.61c1-.42,1.55-.91,1.55-1.47a8.59,8.59,0,0,0-.16-1.56,14.8,14.8,0,0,0-.46-1.86c-.2-.64-.43-1.3-.69-2s-.54-1.28-.84-1.87l2.54-1.42a14.22,14.22,0,0,1,.8,1.86c.25.7.47,1.41.67,2.14A19.56,19.56,0,0,1,498,210a12,12,0,0,1,.16,1.86,5.2,5.2,0,0,1-2,4.51q-2,1.42-6.09,1.43Zm4.63-21L492,194.21l2.19-2.23,2.2,2.23Zm2.58,4.56-2.19-2.23,2.19-2.22,2.2,2.22Z"/><path class="cls-2" d="M352.07,284.4c.33.71.63,1.47.92,2.3s.53,1.65.74,2.48.38,1.61.51,2.37a11.82,11.82,0,0,1,.2,2,7.18,7.18,0,0,1-.69,3.14,7.55,7.55,0,0,1-1.91,2.5,8.89,8.89,0,0,1-2.9,1.62,11.17,11.17,0,0,1-3.7.59,11.81,11.81,0,0,1-3.78-.57,8.41,8.41,0,0,1-2.9-1.61,6.72,6.72,0,0,1-1.84-2.53,8.15,8.15,0,0,1-.64-3.29,11.67,11.67,0,0,1,.71-3.9,13,13,0,0,1,2-3.66l1.8,1.13a10.58,10.58,0,0,0-1.8,5.66,5.08,5.08,0,0,0,1.75,4.05,7,7,0,0,0,4.72,1.5,10.28,10.28,0,0,0,2.57-.32A8.13,8.13,0,0,0,350,297a5.3,5.3,0,0,0,1.46-1.29,2.51,2.51,0,0,0,.55-1.54,9.26,9.26,0,0,0-.18-1.67,19.09,19.09,0,0,0-.49-2q-.32-1.08-.78-2.28t-1-2.37ZM344.89,283l-2.2-2.23,2.2-2.23,2.19,2.23Zm12.34,11.35a6.74,6.74,0,0,1-3.5-.83,4.3,4.3,0,0,1-2-2.35l1.84-2.23a1.85,1.85,0,0,0,.94,1.65,5.09,5.09,0,0,0,2.67.58l.57.35V294Z"/><path class="cls-2" d="M368.23,294.55a7.41,7.41,0,0,1-3.34-.76,7.68,7.68,0,0,1-2.64-2.14,6,6,0,0,1-2.15,2,6.26,6.26,0,0,1-2.87.61l-.56-.35v-2.48l.56-.35a5.67,5.67,0,0,0,1.22-.12,2.92,2.92,0,0,0,1-.41,3.81,3.81,0,0,0,.83-.74,7.41,7.41,0,0,0,.78-1.17l2-3.54a9.71,9.71,0,0,1,2.35-2.95,4.44,4.44,0,0,1,2.75-.94,4.19,4.19,0,0,1,2.15.6,6.15,6.15,0,0,1,1.79,1.63,8.67,8.67,0,0,1,1.22,2.39,8.87,8.87,0,0,1,.46,2.88,5.9,5.9,0,0,1-1.47,4.26A5.32,5.32,0,0,1,368.23,294.55Zm-4.6-5.45a5.68,5.68,0,0,0,2.07,1.7,6,6,0,0,0,2.74.67,2.94,2.94,0,0,0,2.13-.74,2.76,2.76,0,0,0,.77-2.08,4.93,4.93,0,0,0-.26-1.63,4.56,4.56,0,0,0-.74-1.36,3.68,3.68,0,0,0-1.1-.92,2.59,2.59,0,0,0-1.29-.34c-1.27,0-2.35.86-3.22,2.58Z"/><path class="cls-2" d="M382,267.92a23.37,23.37,0,0,0-5.45,1.06l-.5-1.27.92-.32.82-.29a2.11,2.11,0,0,1-1.17-1.94,2.61,2.61,0,0,1,.81-1.93,2.68,2.68,0,0,1,1.95-.79,2.52,2.52,0,0,1,2,.88l-.71,1a2.08,2.08,0,0,0-1.13-.32,1.58,1.58,0,0,0-1,.32,1,1,0,0,0-.41.81,1,1,0,0,0,.55.88,3.31,3.31,0,0,0,1.46.46c.41-.07.78-.13,1.14-.17s.69-.09,1-.11Zm-4.11,26.38L377.68,272l2.79-.5-.18,22.81Z"/><path class="cls-2" d="M407.42,302.05a11.45,11.45,0,0,1-3.84,2.1,14.4,14.4,0,0,1-4.68.77,13.42,13.42,0,0,1-3.72-.48,8.75,8.75,0,0,1-2.83-1.35,6.06,6.06,0,0,1-1.8-2.08,5.92,5.92,0,0,1-.64-2.74,5.46,5.46,0,0,1,.37-2,6.65,6.65,0,0,1,1.15-1.8,14.14,14.14,0,0,1,2-1.79,29.52,29.52,0,0,1,2.77-1.85,18.27,18.27,0,0,1-2.63-2.51,27.9,27.9,0,0,1-2.32-3.15l.46-2.62a9,9,0,0,1,3-1.43,14.35,14.35,0,0,1,3.92-.51,11.35,11.35,0,0,1,5.22,1,3,3,0,0,1,1.93,2.71,5.06,5.06,0,0,1-1.13,2.9,17.17,17.17,0,0,1-3.29,3.25,14,14,0,0,0,2.72.52c.92.08,2,.12,3.26.12l.56.35V294l-.56.35a20.85,20.85,0,0,1-4.71-.47,16.77,16.77,0,0,1-4.14-1.61A19.61,19.61,0,0,0,394,295a3.6,3.6,0,0,0-1.34,2.63,3.3,3.3,0,0,0,1.78,3,9.93,9.93,0,0,0,5,1.06,19,19,0,0,0,2-.11,17.24,17.24,0,0,0,1.95-.32,14.52,14.52,0,0,0,1.76-.51,9.22,9.22,0,0,0,1.47-.66Zm-13.58-17.4a12.67,12.67,0,0,0,1,1.38c.39.47.79.92,1.22,1.36a11.93,11.93,0,0,0,1.31,1.18,10.63,10.63,0,0,0,1.27.89,9.72,9.72,0,0,0,1.52-1q.81-.64,1.5-1.29a10.61,10.61,0,0,0,1.15-1.26,1.77,1.77,0,0,0,.46-.88.74.74,0,0,0-.37-.59,3.68,3.68,0,0,0-1-.46,8.76,8.76,0,0,0-1.48-.3,14.85,14.85,0,0,0-1.81-.1,13.48,13.48,0,0,0-2.84.28A4.57,4.57,0,0,0,393.84,284.65Z"/><path class="cls-2" d="M417.4,287.23a5.32,5.32,0,0,1-1.65.88,6,6,0,0,1-2,.32,4.88,4.88,0,0,1-3.66-1.36,5.23,5.23,0,0,1-1.32-3.8,7.92,7.92,0,0,1,.42-2.6,7.07,7.07,0,0,1,1.15-2.12,5.29,5.29,0,0,1,1.71-1.42,4.58,4.58,0,0,1,2.13-.51,4.52,4.52,0,0,1,4.19,2.83q1.42,2.83,1.43,8.35a8.67,8.67,0,0,1-.57,3.55,3.79,3.79,0,0,1-1.94,1.86,7.94,7.94,0,0,1-1.47.51,18.84,18.84,0,0,1-1.89.34c-.73.09-1.57.16-2.51.19s-2,.05-3.29.05h-.82l-.56-.35v-2.48l.56-.35h.82a51.26,51.26,0,0,0,6.93-.35c1.56-.24,2.34-.59,2.34-1.06Zm-3.33-1.49a6.72,6.72,0,0,0,1.79-.24,4.09,4.09,0,0,0,1.39-.67,9.66,9.66,0,0,0-1-4,2.42,2.42,0,0,0-2.18-1.24,2.81,2.81,0,0,0-2.19,1,3.64,3.64,0,0,0-.89,2.49,2.46,2.46,0,0,0,.8,2A3.43,3.43,0,0,0,414.07,285.74Zm.07-11.95L412,271.56l2.19-2.23,2.19,2.23Z"/><path class="cls-2" d="M423,291a18.63,18.63,0,0,0,2,.27q1.08.09,2.07.09a19.9,19.9,0,0,0,2.07-.11c.67-.07,1.27-.16,1.79-.26a6,6,0,0,0,1.25-.39c.32-.15.48-.3.48-.44a5.38,5.38,0,0,0-.41-1.88,12,12,0,0,0-1.13-2.19,18.05,18.05,0,0,0-1.73-2.28,23.61,23.61,0,0,0-2.18-2.18l2.2-2.08a21.18,21.18,0,0,1,2.37,2.47,18.39,18.39,0,0,1,1.8,2.67,14.57,14.57,0,0,1,1.15,2.71,8.88,8.88,0,0,1,.41,2.58,3.7,3.7,0,0,1-1.9,3.5q-1.89,1.06-6.17,1.06c-.49,0-1.07,0-1.71-.07s-1.21-.1-1.68-.18Z"/><path class="cls-2" d="M444.59,307.74l-.21-14a2.35,2.35,0,0,1,.71-1.91,3.08,3.08,0,0,1,2.12-.67h2.19a4.87,4.87,0,0,1-1.55-3.71,6,6,0,0,1,.48-2.39,6.17,6.17,0,0,1,1.3-1.95,6.58,6.58,0,0,1,1.95-1.32,5.73,5.73,0,0,1,2.35-.5,5.89,5.89,0,0,1,2.42.5,5.69,5.69,0,0,1,1.93,1.38,6.54,6.54,0,0,1,1.28,2.1,7.59,7.59,0,0,1,.46,2.64,7.28,7.28,0,0,1-.45,2.6,6.08,6.08,0,0,1-1.22,2,5.47,5.47,0,0,1-1.85,1.33,5.75,5.75,0,0,1-2.36.47h-6.4c-.45,0-.67.18-.67.53l0,12.91Zm5.66-20.05a2.78,2.78,0,0,0,.43,1.49,4.14,4.14,0,0,0,1.18,1.18,6.13,6.13,0,0,0,1.81.8,9.44,9.44,0,0,0,2.28.31,3.63,3.63,0,0,0,1.66-3.25,3.79,3.79,0,0,0-1-2.78,4,4,0,0,0-5.3-.1A3.06,3.06,0,0,0,450.25,287.69Z"/><path class="cls-2" d="M469.74,294.3c-3.79,0-5.72-1.65-5.76-4.95L463.84,272l2.79-.5-.14,16.8a2.73,2.73,0,0,0,.76,2.18,3.85,3.85,0,0,0,2.49.65l.57.35V294Z"/><path class="cls-2" d="M469.74,294.3l-.56-.35v-2.48l.56-.35h2.48L472,272l2.79-.5-.24,15.74a18,18,0,0,1,3.68-5.06,5.94,5.94,0,0,1,4-1.8,5.16,5.16,0,0,1,2.37.55,5.92,5.92,0,0,1,1.91,1.52,7.43,7.43,0,0,1,1.27,2.28,8.25,8.25,0,0,1,.46,2.79q0,6.8-11.6,6.79Zm12.38-10.68a5.45,5.45,0,0,0-3.8,1.93,22.06,22.06,0,0,0-3.7,5.57h1.95a20.45,20.45,0,0,0,7-.85,2.9,2.9,0,0,0,2.14-2.79,4,4,0,0,0-.28-1.49,4.07,4.07,0,0,0-.78-1.24,3.64,3.64,0,0,0-1.15-.83A3.21,3.21,0,0,0,482.12,283.62Zm-.67-6.43L479.26,275l2.19-2.23,2.19,2.23Zm8.67,17.11a6.78,6.78,0,0,1-3.51-.83,4.25,4.25,0,0,1-1.94-2.35l1.84-2.23a1.85,1.85,0,0,0,.93,1.65,5.1,5.1,0,0,0,2.68.58l.56.35V294Z"/><path class="cls-2" d="M489.55,294v-2.48l.57-.35a10.9,10.9,0,0,0,4-.62c1-.41,1.55-.9,1.55-1.47a8.58,8.58,0,0,0-.16-1.55,14.8,14.8,0,0,0-.46-1.86c-.2-.65-.43-1.3-.68-2s-.55-1.29-.85-1.88l2.54-1.41a13.66,13.66,0,0,1,.8,1.86c.25.69.47,1.4.67,2.14a19.56,19.56,0,0,1,.46,2.14,11.86,11.86,0,0,1,.16,1.85,5.19,5.19,0,0,1-2,4.51c-1.32,1-3.35,1.43-6.08,1.43Zm4.63-16.41L492,275.31l2.19-2.23,2.2,2.23Z"/><path class="cls-2" d="M349.31,370.84q-5.1,0-5.7-4a6.88,6.88,0,0,1-3.5.85,7.35,7.35,0,0,1-2.24-.32,5.43,5.43,0,0,1-1.83-.92,4.37,4.37,0,0,1-1.69-3.53,5.76,5.76,0,0,1,2.38-4.64,15.78,15.78,0,0,1,6.67-2.79v-2.16l2.8-.49-.15,12a2.61,2.61,0,0,0,.75,2.17,3.85,3.85,0,0,0,2.51.66l.56.35v2.48ZM338.38,350.5l-2.19-2.23,2.19-2.22,2.19,2.22Zm2.16,14.12a8.18,8.18,0,0,0,3-.5l-.07-5.69a15.28,15.28,0,0,0-2.51.47,10.27,10.27,0,0,0-2.14.85,5,5,0,0,0-1.49,1.17,2.16,2.16,0,0,0-.55,1.43,1.77,1.77,0,0,0,.3,1.06,2.1,2.1,0,0,0,.83.69,4.37,4.37,0,0,0,1.22.39A8.38,8.38,0,0,0,340.54,364.62Zm3-14.12-2.19-2.23,2.19-2.22,2.2,2.22Z"/><path class="cls-2" d="M359.39,363.77a5.42,5.42,0,0,1-1.65.88,6.19,6.19,0,0,1-2,.32,4.89,4.89,0,0,1-3.67-1.36,5.24,5.24,0,0,1-1.32-3.8,7.92,7.92,0,0,1,.42-2.6,7.23,7.23,0,0,1,1.15-2.13,5.4,5.4,0,0,1,1.72-1.41,4.57,4.57,0,0,1,2.12-.51,4.51,4.51,0,0,1,4.19,2.82c1,1.89,1.43,4.67,1.43,8.35a8.93,8.93,0,0,1-.56,3.56,3.8,3.8,0,0,1-2,1.85,7.07,7.07,0,0,1-1.47.52,16.55,16.55,0,0,1-1.89.33c-.73.1-1.57.16-2.51.2s-2,0-3.29,0h-.81l-.57-.35V368l.57-.35h.81a49.12,49.12,0,0,0,6.93-.36c1.56-.23,2.34-.59,2.34-1.06Zm-5.84-13.44-2.19-2.23,2.19-2.23,2.2,2.23Zm2.51,11.95a6.29,6.29,0,0,0,1.79-.25,4,4,0,0,0,1.4-.67,9.69,9.69,0,0,0-1-4,2.42,2.42,0,0,0-2.18-1.23,2.8,2.8,0,0,0-2.19,1,3.67,3.67,0,0,0-.88,2.5,2.45,2.45,0,0,0,.79,2A3.43,3.43,0,0,0,356.06,362.28Zm2.66-11.95-2.2-2.23,2.2-2.23,2.19,2.23Z"/><path class="cls-2" d="M379,370.84h-2.34a9.78,9.78,0,0,1-3.46,4.72,12.84,12.84,0,0,1-6.09,2.35l-1.27-2.9q6.69-.94,8.42-4.49H373a8.16,8.16,0,0,1-5.3-1.52,5.27,5.27,0,0,1-1.88-4.35,8.33,8.33,0,0,1,.43-2.74,7.09,7.09,0,0,1,1.16-2.18,5.4,5.4,0,0,1,1.77-1.43,4.94,4.94,0,0,1,2.23-.51,4.82,4.82,0,0,1,4.3,2.44,13.39,13.39,0,0,1,1.54,7.07v.36H379l.56.35v2.48Zm-10.79-6.26q0,3.07,5.2,3.08h1.49a10.92,10.92,0,0,0-.94-5.06,2.89,2.89,0,0,0-2.64-1.73,2.79,2.79,0,0,0-2.24,1A4,4,0,0,0,368.16,364.58Z"/><path class="cls-2" d="M380.43,354.08l-2.19-2.23,2.19-2.23,2.2,2.23Zm-2.05,16.41V368l.57-.35a11.11,11.11,0,0,0,4-.62q1.56-.62,1.56-1.47a9.59,9.59,0,0,0-.16-1.56,16.62,16.62,0,0,0-.46-1.85c-.2-.65-.43-1.31-.69-2a18.89,18.89,0,0,0-.85-1.87l2.55-1.42a16.52,16.52,0,0,1,.79,1.86c.25.7.47,1.41.67,2.14a17.88,17.88,0,0,1,.46,2.14,12.08,12.08,0,0,1,.16,1.86,5.2,5.2,0,0,1-2,4.51q-2,1.43-6.08,1.43Zm4.64-21-2.2-2.23,2.2-2.22,2.19,2.22Zm2.58,4.57-2.2-2.23,2.2-2.23,2.19,2.23Z"/><path class="cls-2" d="M403.64,370.84H401.3a9.78,9.78,0,0,1-3.46,4.72,12.88,12.88,0,0,1-6.09,2.35l-1.27-2.9q6.69-.94,8.42-4.49h-1.24a8.19,8.19,0,0,1-5.31-1.52,5.27,5.27,0,0,1-1.87-4.35,8.6,8.6,0,0,1,.42-2.74,7.11,7.11,0,0,1,1.17-2.18,5.3,5.3,0,0,1,1.77-1.43,4.94,4.94,0,0,1,2.23-.51,4.8,4.8,0,0,1,4.29,2.44c1,1.63,1.54,4,1.54,7.07v.36h1.74l.56.35v2.48Zm-10.79-6.26q0,3.07,5.2,3.08h1.48a10.93,10.93,0,0,0-.93-5.06,2.9,2.9,0,0,0-2.64-1.73,2.82,2.82,0,0,0-2.25,1A4.08,4.08,0,0,0,392.85,364.58Z"/><path class="cls-2" d="M414.64,371.09a7.55,7.55,0,0,1-3.35-.76,7.74,7.74,0,0,1-2.63-2.14,6,6,0,0,1-2.16,2,6.22,6.22,0,0,1-2.86.62l-.57-.35V368l.57-.35a5.19,5.19,0,0,0,1.22-.13,3.08,3.08,0,0,0,1-.4,3.84,3.84,0,0,0,.83-.75,6.84,6.84,0,0,0,.78-1.16l2-3.54a9.56,9.56,0,0,1,2.35-2.95,4.36,4.36,0,0,1,2.74-.94,4.25,4.25,0,0,1,2.16.6,5.85,5.85,0,0,1,1.78,1.63,8.35,8.35,0,0,1,1.22,2.38,8.88,8.88,0,0,1,.46,2.89,6,6,0,0,1-1.46,4.26A5.32,5.32,0,0,1,414.64,371.09Zm-4.6-5.45a5.52,5.52,0,0,0,2.07,1.7,5.93,5.93,0,0,0,2.74.67,3,3,0,0,0,2.12-.74,2.75,2.75,0,0,0,.78-2.09,5,5,0,0,0-.27-1.63,4.26,4.26,0,0,0-.74-1.36,3.7,3.7,0,0,0-1.1-.92,2.69,2.69,0,0,0-1.29-.33c-1.27,0-2.34.86-3.22,2.58Z"/><path class="cls-2" d="M442.44,370.84a6.83,6.83,0,0,1-3.93-1,10.23,10.23,0,0,1-3.18,4.66,19.08,19.08,0,0,1-6.12,3.44l-1.63-2.79a22.3,22.3,0,0,0,6.26-3.43,7.1,7.1,0,0,0,2.76-4.07,19.33,19.33,0,0,1-1-2.26c-.34-.9-.73-2-1.18-3.36l2.65-1.24c.28.87.57,1.75.87,2.62s.52,1.5.69,1.87a6.33,6.33,0,0,0,.6,1.17,2.74,2.74,0,0,0,.74.74,2.64,2.64,0,0,0,1,.39,8.48,8.48,0,0,0,1.45.11l.56.35v2.48Z"/><path class="cls-2" d="M450.93,377.42l-2.2-2.23,2.2-2.23,2.19,2.23Z"/><path class="cls-2" d="M451.17,365.06c.83-.4,1.58-.75,2.25-1a16.66,16.66,0,0,1,1.93-.73l-1.81-.77c-.78-.33-1.45-.61-2-.83s-1.06-.4-1.49-.53-.8-.22-1.13-.28a5.33,5.33,0,0,0-1-.08,3.34,3.34,0,0,0-1.53.31,5.38,5.38,0,0,0-1.4,1.17L443.39,361a6.66,6.66,0,0,1,2.18-2.46,5.29,5.29,0,0,1,2.88-.76,6.74,6.74,0,0,1,1.08.09,10.83,10.83,0,0,1,1.22.28,14.82,14.82,0,0,1,1.54.55c.57.23,1.25.53,2,.88s1.2.53,1.68.73.91.36,1.29.49a6.32,6.32,0,0,0,1,.27,5.62,5.62,0,0,0,.92.07h.7v3q-.81.21-1.59.48a14.8,14.8,0,0,0-1.62.65q-.86.39-1.86.9c-.67.35-1.43.76-2.28,1.26-1.13.64-2.15,1.18-3.06,1.63A21.13,21.13,0,0,1,447,370.1a14.31,14.31,0,0,1-4.54.74l-.57-.35V368l.57-.35a14.6,14.6,0,0,0,2-.14,15.65,15.65,0,0,0,2-.45,20,20,0,0,0,2.2-.8C449.4,365.94,450.25,365.54,451.17,365.06Z"/><path class="cls-2" d="M470.1,370.84q-5.7,0-5.77-4.95l-.14-17.37L467,348l-.14,16.8a2.71,2.71,0,0,0,.76,2.17,3.8,3.8,0,0,0,2.5.66l.56.35v2.48Z"/><path class="cls-2" d="M481.77,370.84q-4.14,0-5.52-2.37a4.45,4.45,0,0,1-2.32,1.75,10.71,10.71,0,0,1-3.83.62l-.57-.35V368l.57-.35a8.38,8.38,0,0,0,3.41-.53,2.5,2.5,0,0,0,1.4-1.77c0-.26.1-.59.17-1l.21-1.19c.08-.4.13-.8.18-1.2s.1-.76.14-1.06l2.41.28c-.12,1-.23,1.9-.32,2.72s-.14,1.34-.14,1.52q0,2.21,4.21,2.2l.56.35v2.48Zm-7.32-12.77-2.2-2.23,2.2-2.22,2.19,2.22Zm5.16,0-2.19-2.23,2.19-2.22,2.19,2.22Z"/><path class="cls-2" d="M492.77,371.09a7.48,7.48,0,0,1-3.34-.76,7.68,7.68,0,0,1-2.64-2.14,6,6,0,0,1-2.16,2,6.19,6.19,0,0,1-2.86.62l-.57-.35V368l.57-.35a5.13,5.13,0,0,0,1.22-.13,3.08,3.08,0,0,0,1-.4,3.84,3.84,0,0,0,.83-.75,6.84,6.84,0,0,0,.78-1.16l2-3.54a9.56,9.56,0,0,1,2.35-2.95,4.36,4.36,0,0,1,2.74-.94,4.22,4.22,0,0,1,2.16.6A5.85,5.85,0,0,1,496.6,360a8.63,8.63,0,0,1,1.23,2.38,9.16,9.16,0,0,1,.46,2.89,5.93,5.93,0,0,1-1.47,4.26A5.32,5.32,0,0,1,492.77,371.09Zm-4.6-5.45a5.52,5.52,0,0,0,2.07,1.7A6,6,0,0,0,493,368a3,3,0,0,0,2.12-.74,2.75,2.75,0,0,0,.78-2.09,5,5,0,0,0-.27-1.63,4.26,4.26,0,0,0-.74-1.36,3.79,3.79,0,0,0-1.09-.92,2.76,2.76,0,0,0-1.3-.33q-1.91,0-3.21,2.58Z"/></g></g></svg>