<svg xmlns="http://www.w3.org/2000/svg" viewBox="0 0 520 505"><defs><style>.cls-1,.cls-3{fill:#5c8deb;}.cls-2{fill:#fff;}.cls-3{font-size:26.57px;font-family:Effra-Bold, Effra;font-weight:700;}.cls-4{fill:#4c7dc9;}.cls-12,.cls-13,.cls-5{fill:#274040;}.cls-6{fill:#1c2b2b;}.cls-7{fill:#afcfd4;}.cls-8{fill:#f0aa86;}.cls-9{fill:#f19a88;}.cls-10{fill:#ec5448;}.cls-11{fill:#dd463e;}.cls-12{stroke:#274040;stroke-linejoin:round;stroke-width:5px;}.cls-13{font-size:17.34px;font-family:Roboto-Black, Roboto Black;font-weight:800;}.cls-14{letter-spacing:-0.01em;}.cls-15{letter-spacing:0em;}.cls-16{letter-spacing:0em;}.cls-17{font-size:18.92px;}.cls-18{letter-spacing:0em;}.cls-19{fill:#335062;}.cls-20{fill:#da7c7e;}.cls-21{fill:#e19698;}.cls-22{fill:#25373f;}.cls-23{fill:#436373;}</style></defs><g id="Layer_2" data-name="Layer 2"><g id="Layer_1-2" data-name="Layer 1"><path class="cls-1" d="M0,0H520a0,0,0,0,1,0,0V488.69A16.31,16.31,0,0,1,503.69,505H16.31A16.31,16.31,0,0,1,0,488.69V0A0,0,0,0,1,0,0Z"/><path class="cls-2" d="M132.33,137.73q-11.21,0-17.68-5T108,118.85l-.88-62.19,15.48-2.76L122,110.66q0,4.66,2.33,6.8c1.55,1.43,4.22,2.14,8,2.14l2,1.26v15.61Z"/><path class="cls-2" d="M174.12,137.73a29.72,29.72,0,0,1-12-2.14,19.24,19.24,0,0,1-8-6.55,20.94,20.94,0,0,1-8.81,6.36,33.94,33.94,0,0,1-13,2.33l-2-1.26V120.86l2-1.26q12.72,0,14.23-6.67.49-2.52,1.13-6.48c.42-2.65.84-5.56,1.26-8.75l13.22,1.64c-.51,4.11-.88,7.4-1.14,9.88s-.37,4-.37,4.47a4.7,4.7,0,0,0,3.21,4.53c2.14.92,5.55,1.38,10.25,1.38l2,1.26v15.61ZM155.87,90.78l-11-11,11-11,10.95,11Z"/><path class="cls-2" d="M197.66,74.66l-8.43-8.43-8.43,8.43-11-10.95,11-11,8.43,8.44,8.43-8.44,11,11Zm-25.55,61.81V120.86l2-1.26a39.5,39.5,0,0,0,12.65-1.7q5-1.7,5-4.21a21.26,21.26,0,0,0-.7-4.91,62.12,62.12,0,0,0-1.82-6.11q-1.14-3.21-2.71-6.61a70.11,70.11,0,0,0-3.46-6.54l14.1-7.93a52.73,52.73,0,0,1,3.27,6.73A65.31,65.31,0,0,1,203,96a67,67,0,0,1,1.64,8,54.22,54.22,0,0,1,.57,7.56q0,13.59-7.49,19.88t-23.61,6.3Z"/><path class="cls-2" d="M218.31,137.73l-1-81.07,15.48-2.76-1,83.83Z"/><path class="cls-2" d="M265.76,90.9,254.81,80l10.95-11,10.95,11Z"/><path class="cls-2" d="M237.31,147.42a120,120,0,0,0,12.53-5.92,75.87,75.87,0,0,0,9.82-6.29,36.64,36.64,0,0,0,6.42-6.11,9.1,9.1,0,0,0,2.32-5.47q0-2.52-2-7.62A109.22,109.22,0,0,0,261,104.62l14.85-6.92a66.15,66.15,0,0,1,4.47,12.21,47.8,47.8,0,0,1,1.57,11.83,33.51,33.51,0,0,1-2.45,12.65,39.56,39.56,0,0,1-7.11,11.39A54.58,54.58,0,0,1,261,155.41a76.84,76.84,0,0,1-15.11,7.49Z"/><path class="cls-2" d="M316.49,167.31l-8.43-8.44-8.44,8.44-10.95-10.95,10.95-11,8.44,8.43,8.43-8.43,10.95,11Z"/><path class="cls-2" d="M324.42,137.73q-11.46,0-17.88-5.1t-6.41-14.16V116.2a40,40,0,0,1-7.93.76,52.2,52.2,0,0,1-10.33-1.13,37,37,0,0,1-9.44-3.15l3.4-15a78.81,78.81,0,0,0,8.75,1.13q4.85.38,9.25.38a105.1,105.1,0,0,0,10.89-.57q5.47-.56,10.76-1.57c-.42,3.11-.75,5.85-1,8.24s-.38,4-.38,4.85c0,3.36.79,5.77,2.39,7.24s4.24,2.2,7.93,2.2l2,1.26v15.61Z"/><path class="cls-2" d="M364.32,138.86a27.07,27.07,0,0,1-21.52-10.07,21.46,21.46,0,0,1-18.38,8.94l-2-1.26V120.86l2-1.26a19.44,19.44,0,0,0,4.15-.38,8.19,8.19,0,0,0,3.21-1.44,15.23,15.23,0,0,0,2.84-2.84,33,33,0,0,0,2.89-4.53l6.29-10.82A33,33,0,0,1,353,88.7,18.46,18.46,0,0,1,363.94,85a16.78,16.78,0,0,1,8.63,2.39,24.74,24.74,0,0,1,7.17,6.42,31.29,31.29,0,0,1,4.85,9.44,37.34,37.34,0,0,1,1.76,11.58q0,11.33-5.85,17.68T364.32,138.86Zm-14-24a18.14,18.14,0,0,0,6.48,5,18.7,18.7,0,0,0,8.12,1.89,8.61,8.61,0,0,0,6.17-2.26,7.8,7.8,0,0,0,2.39-5.92,10.91,10.91,0,0,0-3-7.74,9.66,9.66,0,0,0-7.3-3.21q-6.79,0-11.46,9.56ZM395,137.73a26.31,26.31,0,0,1-13.22-3.15,18.53,18.53,0,0,1-8.06-8.94l9.44-12.84q0,6.81,11.84,6.8l2,1.26v15.61Z"/><path class="cls-2" d="M434.94,138.86a27.09,27.09,0,0,1-21.53-10.07A21.43,21.43,0,0,1,395,137.73l-2-1.26V120.86l2-1.26a19.5,19.5,0,0,0,4.15-.38,8.32,8.32,0,0,0,3.21-1.44,15.2,15.2,0,0,0,2.83-2.84,33,33,0,0,0,2.9-4.53l6.29-10.82a32.93,32.93,0,0,1,9.19-10.89A18.46,18.46,0,0,1,434.56,85a16.77,16.77,0,0,1,8.62,2.39,24.64,24.64,0,0,1,7.18,6.42,31.27,31.27,0,0,1,4.84,9.44A37,37,0,0,1,457,114.82q0,11.33-5.86,17.68T434.94,138.86Zm-14-24a18,18,0,0,0,6.48,5,18.67,18.67,0,0,0,8.12,1.89,8.59,8.59,0,0,0,6.16-2.26,7.78,7.78,0,0,0,2.4-5.92,10.91,10.91,0,0,0-3-7.74,9.68,9.68,0,0,0-7.31-3.21q-6.8,0-11.45,9.56Z"/><rect class="cls-2" x="312" y="423" width="183" height="41" rx="8.71"/><text class="cls-3" transform="translate(356.42 451.15)">نأا نلعأ</text><circle class="cls-4" cx="168.24" cy="346.98" r="120.93" transform="translate(-196.08 220.59) rotate(-45)"/><circle class="cls-4" cx="168.24" cy="344.2" r="118.14"/><path class="cls-5" d="M118.75,324.51c-15,43.32-34.91,86.62-68.24,70C9.09,373.89,6.39,447.18,53.9,447.27c43.71.08,63.47-57.63,64.68-84.26S118.75,324.51,118.75,324.51Z"/><path class="cls-6" d="M114.31,364.12S86.18,426.81,69,422l-8.26-24.11a34.17,34.17,0,0,1-10.24-3.34C9.09,373.89,6.39,447.18,53.9,447.27c40.23.08,60.17-48.81,64-77.36Z"/><ellipse class="cls-7" cx="48.74" cy="411.66" rx="27.13" ry="26.46"/><ellipse class="cls-2" cx="48.74" cy="410.17" rx="25.6" ry="24.97"/><path class="cls-8" d="M68.78,326.19c-12-6.92,12.81-26.39,3.11-45.84C63.65,263.84,37,270.74,40,289.51s9.18,34.38-11.36,35.41a39.13,39.13,0,0,0,22.78,7C65.34,332,68.78,326.19,68.78,326.19Z"/><path class="cls-9" d="M68.78,326.19c-11-6.35,9-23.3,4.83-41.08,1.2,10.45-7.19,30-13.79,33.72s-9.91,4.95-31.18,6.09a39.13,39.13,0,0,0,22.78,7C65.34,332,68.78,326.19,68.78,326.19Z"/><ellipse class="cls-9" cx="46.56" cy="407.29" rx="22.65" ry="22.09"/><path class="cls-8" d="M62.84,326C38.63,327.33,29.58,322,18,327.24c-10.42,4.69-9.76,14.32-5.14,18.68,4.94,4.66-5.71,7.72-4.49,14.25S14,371.7,11.55,375.92,7.44,381.1,8.4,386s7.31,8.07,6.76,12.87S8.87,420,53.3,418.2c35-1.4,27.91-17.74,21.91-20.39,2.26-2.32,12.09-13.3-1-23.18,7.77-3.15,10.12-19.71-.5-25.14C88.48,344.45,84.26,324.73,62.84,326Z"/><path class="cls-9" d="M75.21,397.81l-40.53,2.5a2.51,2.51,0,1,1,0-5l40.53,2.5Z"/><path class="cls-9" d="M74.25,374.63,34.7,377.25a2.51,2.51,0,1,1,0-5l39.59,2.38Z"/><path class="cls-9" d="M73.75,349.47l-39,2.62a2.51,2.51,0,1,1,0-5l39.09,2.38Z"/><path class="cls-5" d="M168.24,467.91A120.4,120.4,0,0,0,241.8,443V321.1C206,343.83,143,341.84,121.2,315.9c-11,35.5-14.54,83.85,6.24,145A120.62,120.62,0,0,0,168.24,467.91Z"/><path class="cls-6" d="M241.8,321.1C206,343.83,143,341.84,121.2,315.9q-1.56,5-2.9,10.39c.32,1.48,2.9,8,15.22,21l.26-2.05s7.74,6.37,13.5,8.53c5.09,1.91,28.17,4.57,28.17,4.57,6.41.46,15.86-.35,19-2l-.72,2.09s34.65-8.32,48.06-28.56Z"/><path class="cls-7" d="M146,331.49c-.63-.22-1.92,29.21,13.63,63,0,0,15.57-41,28.61-57.68C188.25,336.85,164.93,338,146,331.49Z"/><path class="cls-2" d="M121.2,315.9s-1.1,1.87-2.45,8.61c.15.16,8.58,17,29.76,29.13l15.17-18,11.09,21.19c18.78,1.61,54.78-9.83,67-28.11v-7.6C206,343.83,143,341.84,121.2,315.9Z"/><path class="cls-7" d="M241.8,328.7v-7.6a86.35,86.35,0,0,1-13,6.73c-12.16,17-29.63,28.14-54,29C193.55,358.42,229.55,347,241.8,328.7Z"/><polygon class="cls-10" points="151.92 349.58 155.56 360.58 165.46 362.11 173.19 353.79 163.68 335.62 151.92 349.58"/><path class="cls-10" d="M155.56,360.58l-3.64,13.49s3.38,12.2,7.72,20.46c0,0,6.9-16.92,8.22-19.89l-2.4-12.53Z"/><path class="cls-11" d="M163.68,335.62l-11.76,14,.37,1.11,10.27-11.08L169,353.19l-5.32,8.64-8.11-1.25,7.72,2.43,1.95,13.5-5.64,14.41-7.45-17.65h0l-.22.8s3.38,12.2,7.72,20.46c0,0,6.9-16.92,8.22-19.89l-2.4-12.53,7.73-8.32Z"/><path class="cls-8" d="M280.65,344.68c3-17.41,14.29-22.35,22.52-22.11S322,339,314.32,351.69a21.77,21.77,0,0,0-22.22,12.43Z"/><path class="cls-9" d="M309.42,338.29c-5.42-3.68-14-3.13-17.67,2.73l-.25-.15c.13-6.56,8.67-9.55,13.95-6.88a8.1,8.1,0,0,1,4.15,4.06l-.18.24Z"/><path class="cls-9" d="M304.31,320.75c9.36-.79,11.28,11.57,9.73,18.56l-.3,0a30.65,30.65,0,0,0-.72-5.53,16.17,16.17,0,0,0-3.25-7.19,45.75,45.75,0,0,0-3.38-3.71c-.7-.61-1.42-1.17-2.16-1.81l.08-.29Z"/><path class="cls-8" d="M281.47,340.94c-.47-9.28,9.24-10.9,1.23-25-5.18-9.14,3.94-18.31,9.4-15,11.48,7,1.92,23.37,5.18,22.41s18.77-8,32.92-5.29c10.95,2.09,4.66,10.6-.28,9.84-9.38-1.45-15.44.46-20.85,1.61S281.47,340.94,281.47,340.94Z"/><path class="cls-9" d="M297.28,307.5c1.16,5.34-1.83,13.27-5.53,16.64a24.75,24.75,0,0,0-5.53,7.88c1.8-2.78,4.95-5.85,11.06-8.68C294.83,324.06,299.61,315,297.28,307.5Z"/><path class="cls-9" d="M331.16,323.54c-6.38-1-14.07.59-19.69,3.25l1.06,1.94a43.67,43.67,0,0,1,17.39-.84c3.71.57,8.16-4.06,5.56-7.3C335.48,320.59,335.69,324.24,331.16,323.54Z"/><path class="cls-8" d="M305.82,329.5c12.55-4.32,26.54-6.13,32.77-1.52,4.85,3.58,1.63,10.7-3,9.27-8.92-2.72-20.61-1.13-25.67.4S305.82,329.5,305.82,329.5Z"/><path class="cls-9" d="M336.26,333.22a34.94,34.94,0,0,0-22.28.9v2.58c5.86-1.06,14.56-1.58,21.57.55,4.28,1.31,7.34-4.57,4.08-8.31A2.88,2.88,0,0,1,336.26,333.22Z"/><path class="cls-8" d="M306.73,337.49c11.07-4,23.42-5.63,28.92-1.4,4.28,3.29,1.44,9.82-2.68,8.52-7.88-2.5-18.2-1.05-22.66.36S306.73,337.49,306.73,337.49Z"/><path class="cls-9" d="M333,344.61c2.75.87,4.93-1.76,4.8-4.58h0c-1.51,4.75-8.94,0-21,1.81-3.57.54-3.6,1.17-3.19,2.33C318.74,343.15,326.64,342.6,333,344.61Z"/><path class="cls-8" d="M307.33,343.29c10.33-1.13,21.07.28,24.46,5.68,2.64,4.2-1.56,9.78-4.62,7.52-5.86-4.31-14.85-5.42-18.95-5.16S307.33,343.29,307.33,343.29Z"/><path class="cls-9" d="M314.3,351.69c4.19.63,9.16,2.07,12.87,4.8,1.91,1.41,4.26-.24,5.12-2.69-1.59,2.38-6.46-2-14.18-3.83-14.71-3.54-18.81,2.33-22.93-3-6.11-7.9-11.87-8.31-13.41-9.42a12.27,12.27,0,0,0-.3,3.38l10.63,23.18A21.77,21.77,0,0,1,314.3,351.69Z"/><path class="cls-5" d="M241.8,328.7c0,48.85,16.53,65.83,39.67,12.24,0,0,12.27,0,14.44,17.55-6.74,12.13-11.25,29.87-20.26,41.07-11.09,13.78-30.27,11-39.49.89Z"/><path class="cls-2" d="M281.47,340.94q-1.67,3.85-3.28,7.23c9,3.72,11.73,11.83,13.33,19.48,1.4-3.25,2.84-6.36,4.39-9.16C293.74,340.94,281.47,340.94,281.47,340.94Z"/><path class="cls-7" d="M294.68,352.74c-1,4.1-3.14,6.77-4.33,4.22-1.7-3.64-6.18-9.49-11.35-10.51h0c-.27.58-.54,1.16-.81,1.72,9,3.72,11.73,11.83,13.33,19.48,1.4-3.25,2.84-6.36,4.39-9.16A31.06,31.06,0,0,0,294.68,352.74Z"/><path class="cls-12" d="M108.71,271.7c10.58-5.72,17.63-16,17.63-27.72,0-18-16.55-32.52-37-32.52s-37,14.56-37,32.52S69,276.5,89.38,276.5a41.51,41.51,0,0,0,12.17-1.81c3.39,5.93,10.38,11.52,24.77,10.23C126.32,284.92,114.42,282.8,108.71,271.7Z"/><path class="cls-2" d="M108.71,271c10.58-5.72,17.63-16,17.63-27.72,0-18-16.55-32.52-37-32.52s-37,14.56-37,32.52,16.55,32.52,37,32.52A41.51,41.51,0,0,0,101.55,274c3.39,5.93,10.38,11.53,24.77,10.23C126.32,284.19,114.42,282.07,108.71,271Z"/><text class="cls-13" transform="translate(69.67 241.77)">G<tspan class="cls-14" x="11.2" y="0">r</tspan><tspan class="cls-15" x="16.7" y="0">e</tspan><tspan class="cls-16" x="25.39" y="0">a</tspan><tspan x="33.68" y="0">t</tspan><tspan class="cls-17"><tspan class="cls-18" x="-0.33" y="15.76">D</tspan><tspan x="12.34" y="15.76">eal!</tspan></tspan></text><path class="cls-19" d="M144.56,260.42s1.47-38,36.94-25.2l-29.43,32.45Z"/><path class="cls-8" d="M154.13,267s-10.8-17.55-21.08-2.33c-8.88,13.15,5.41,40.87,20.85,29.85Z"/><path class="cls-9" d="M144.78,258.86c-6.61,7.39-9,18.41-10.52,29.61,4.38,7.3,11.86,11.58,19.64,6l.23-27.52S150.17,260.56,144.78,258.86Z"/><path class="cls-8" d="M241.8,321.1V249.54c0-48.44-76.09-6.93-76.09-6.93s-29.35,24.52-44.51,73.29C143,341.84,206,343.83,241.8,321.1Z"/><path class="cls-9" d="M227.06,245.17c-12.59-4.93-46.83,12.81-73.21,9.86-1.11,1.34-2.28,2.78-3.49,4.34C183.56,261.25,213.11,241,227.06,245.17Z"/><path class="cls-9" d="M241.8,321.1V293.44l-5.38,1.65a90.8,90.8,0,0,1-3.27,19.09,19.68,19.68,0,0,1-12.51,13.65c-28.51,9.91-72.06,10.33-99-13.15,0,0-.16.59-.39,1.22C143,341.89,206,343.84,241.8,321.1Z"/><path class="cls-8" d="M236.42,267.57s10.94-17.46,21.09-2.16c8.78,13.22-5.74,40.82-21.09,29.68Z"/><path class="cls-9" d="M178.51,273.94c-4.23,9.29-18.44,20.54-15.88,27.12,1.44,3.72,12.21,5.52,15.91,2.36C186,297,178.51,273.94,178.51,273.94Z"/><path class="cls-20" d="M178.51,273.94c-4.23,9.29-19.17,19.81-16.61,26.39,1.45,3.73,11.48,4.8,15.18,1.63C184.55,295.57,178.51,273.94,178.51,273.94Z"/><path class="cls-21" d="M171.31,287.4c-.57,1.26-1.22,2.49-1.85,3.72s-1.33,2.43-2,3.62c-.32.6-.6,1.22-.85,1.82s-.5,1.16-.67,1.63a1.52,1.52,0,0,0-.1,1.21,6,6,0,0,0,1.15,1.53l-.09.2a3.39,3.39,0,0,1-2.25-.75,2.45,2.45,0,0,1-.78-1.26,3.29,3.29,0,0,1-.06-1.42c.31-1.74,1.38-2.75,2.18-3.89s1.68-2.2,2.54-3.28l2.57-3.25Z"/><circle class="cls-22" cx="199.15" cy="275.64" r="7.21"/><circle class="cls-2" cx="201.35" cy="275.23" r="1.81"/><path class="cls-2" d="M204.31,273.61a1,1,0,1,1-1-1A1,1,0,0,1,204.31,273.61Z"/><path class="cls-9" d="M216.57,274.27a2.14,2.14,0,0,1-2.08-1.81c-.68-4-2.33-6.72-5-8.28-6.48-3.74-16.7.38-16.81.42a2.08,2.08,0,0,1-2.74-1.22,2.2,2.2,0,0,1,1.19-2.83c.49-.2,12.21-4.92,20.42-.18,3.83,2.21,6.23,6,7.14,11.34a2.18,2.18,0,0,1-1.71,2.52A2.46,2.46,0,0,1,216.57,274.27Z"/><path class="cls-22" d="M217.46,272.81a2.18,2.18,0,0,1-2.14-1.8c-.71-4-2.41-6.73-5.21-8.29-6.7-3.73-17.26.39-17.37.43a2.18,2.18,0,0,1-1.61-4c.51-.21,12.62-4.92,21.11-.18,3.95,2.2,6.43,6,7.37,11.33a2.18,2.18,0,0,1-1.76,2.53A2.56,2.56,0,0,1,217.46,272.81Z"/><circle class="cls-22" cx="160.76" cy="275.05" r="6.75"/><path class="cls-2" d="M164.51,274.66a1.69,1.69,0,1,1-1.69-1.69A1.69,1.69,0,0,1,164.51,274.66Z"/><circle class="cls-2" cx="164.64" cy="273.15" r="0.96"/><path class="cls-9" d="M144.3,273.31a2.31,2.31,0,0,1-.37,0,2.17,2.17,0,0,1-1.72-2.53c.86-5,3.14-8.62,6.79-10.71,7.79-4.47,18.88,0,19.35.16a2.2,2.2,0,0,1,1.19,2.83,2.1,2.1,0,0,1-2.76,1.22c-.15-.06-9.72-3.85-15.72-.4-2.51,1.44-4,3.95-4.67,7.66A2.15,2.15,0,0,1,144.3,273.31Z"/><path class="cls-22" d="M143.61,271.86a1.64,1.64,0,0,1-.38,0,2.18,2.18,0,0,1-1.77-2.52c.89-5,3.23-8.62,7-10.71,8-4.47,19.4,0,19.88.16a2.18,2.18,0,1,1-1.6,4.05c-.16-.06-10-3.85-16.16-.4-2.57,1.44-4.14,3.94-4.8,7.65A2.17,2.17,0,0,1,143.61,271.86Z"/><path class="cls-2" d="M165,310.69l48.18-18.92s4,28.67-18.58,34.18C171.56,331.57,165,310.69,165,310.69Z"/><path class="cls-7" d="M213.17,291.77l-3.35,1.32s3.76,26.67-17.29,31.8c-21.43,5.23-27.54-14.2-27.54-14.2s6.57,20.88,29.6,15.26C217.21,320.44,213.17,291.77,213.17,291.77Z"/><path class="cls-9" d="M205.52,287.4a19,19,0,0,1,5-2.87,10.73,10.73,0,0,1,2.94-.71,5.72,5.72,0,0,1,3.28.65,5.16,5.16,0,0,1,2.2,2.6,9.14,9.14,0,0,1,.62,3,16,16,0,0,1-.85,5.7c-.3-1.89-.46-3.74-.85-5.47s-1-3.32-2.19-3.95-2.95-.53-4.68-.19S207.4,287,205.52,287.4Z"/><path class="cls-9" d="M192.82,328.47a45.54,45.54,0,0,0,5-.79,18,18,0,0,0,4.65-1.72,13.08,13.08,0,0,0,3.84-3.1,18.84,18.84,0,0,0,2.63-4.21l.2.08a9.68,9.68,0,0,1-1.51,5.25,11.08,11.08,0,0,1-4.12,3.89,12.65,12.65,0,0,1-5.31,1.5,12.85,12.85,0,0,1-5.31-.68Z"/><path class="cls-19" d="M226.22,224a6.77,6.77,0,0,1,.82-1.11,12.3,12.3,0,0,1,2.78-2.21,11.26,11.26,0,0,1,3.46-1.36v-.29a10.53,10.53,0,0,0-4,.3,11.54,11.54,0,0,0-3.74,1.8,18,18,0,0,0-1.49,1.15c0-.46,0-.91,0-1.35s0-1-.06-1.54-.06-1-.12-1.52l-.18-1.51-.28-1.48c-.11-.5-.24-1-.35-1.47s-.3-1-.44-1.45-.35-.94-.53-1.41a10.34,10.34,0,0,0-1.48-2.63l-.24.17a16.85,16.85,0,0,1,1.26,5.57,33.93,33.93,0,0,1,0,5.7,13.4,13.4,0,0,1-.18,1.4,12.61,12.61,0,0,1-.28,1.36,1.29,1.29,0,0,0,0,.19c-8.62-22-40.53-22.6-57.87,0-19.4,25.23-32.88,20.29-32.88,20.29C158.06,278.74,232,223.54,232,253.73l-1.73,17.92,11.54-9.1C256.89,232.8,236.71,221.8,226.22,224Z"/><path class="cls-22" d="M196.47,240.65c-19.47,9.29-51.91,13.33-65.1,3.14,28.4,33.67,100.62-19.9,100.62,9.94C234,230.72,216.7,231,196.47,240.65Z"/><path class="cls-22" d="M241.8,262.55c8.83-17.41,5.58-28.39-.73-34.07h0c7.87,9.66.45,28.67-4.55,38.23Z"/><path class="cls-23" d="M163.26,222.3a115.55,115.55,0,0,1-7.76,8.9c12-12.8,22.83-20.36,34.95-21.52,12.93-1.24,27,3.26,31.84,16.23C215.87,200.46,181.5,198.57,163.26,222.3Z"/><path class="cls-23" d="M142.23,244.69a97.63,97.63,0,0,1,12.89-1.91c1.06-.08,2.13-.17,3.19-.22s2.14-.05,3.21-.08l3.21,0c1.06,0,2.13-.08,3.2-.13s2.13-.17,3.2-.25,2.13-.19,3.18-.33,2.13-.22,3.19-.37l3.17-.49a70.42,70.42,0,0,0,12.45-3.18l.18.4A63.5,63.5,0,0,1,181.16,243a104.23,104.23,0,0,1-12.85,2.77c-1.08.17-2.16.33-3.24.52l-3.26.48a41,41,0,0,1-6.55.34c-1.1,0-2.19-.07-3.29-.17s-2.18-.2-3.27-.37a36.16,36.16,0,0,1-6.49-1.46Z"/><path class="cls-23" d="M209.92,219.79a38.38,38.38,0,0,0-4.48.65c-1.49.28-3,.62-4.41,1a66.9,66.9,0,0,0-8.5,2.88,68.25,68.25,0,0,0-8,3.86,64.58,64.58,0,0,0-7.41,4.72l-.88.66-.91.7-1.8,1.43c-1.2,1-2.39,2-3.62,2.89a38.68,38.68,0,0,1-8.16,4.93,31.38,31.38,0,0,1-9.69,2.63,27.18,27.18,0,0,1-9.81-.81l-.1-.87c2.89-1.56,5.69-2.79,8.23-4.18a81.18,81.18,0,0,0,7.25-4.39,83.49,83.49,0,0,1,7.54-4.61c1.33-.72,2.7-1.42,4.06-2.14l2-1.08,2.08-1.13a73.92,73.92,0,0,1,8.71-4.06,69.05,69.05,0,0,1,9.14-2.76,64.85,64.85,0,0,1,9.36-1.39,45.35,45.35,0,0,1,9.39.19Z"/><path class="cls-23" d="M163.56,222.38a43.53,43.53,0,0,1,10.26-7.44c1-.47,1.91-1,2.92-1.37s2-.83,3-1.13l1.56-.48c.52-.17,1.06-.25,1.59-.38l1.61-.36c.53-.1,1.08-.16,1.62-.24l1.64-.23,1.65-.13,1.67-.12h1.67l1.68.06c.55.08,1.1.16,1.65.26s1.1.21,1.65.33,1.06.34,1.59.52a23.33,23.33,0,0,1,10.73,7.46l-.28.42c-1.1-.22-2.1-.53-3.1-.83-.48-.17-1-.28-1.49-.41s-1-.26-1.46-.4c-.95-.32-1.95-.48-2.89-.72a29.23,29.23,0,0,0-2.86-.62l-1.41-.3c-.48-.07-.95-.15-1.42-.24l-1.41-.3-1.43-.22-1.43-.26-1.46-.13c-.48,0-1-.1-1.46-.12l-1.47,0c-.49,0-1,0-1.48.05l-1.47.16c-.49.06-1,.08-1.47.18l-1.46.28c-1,.14-1.95.42-2.93.66s-1.92.59-2.88.9a46.88,46.88,0,0,0-11,5.51Z"/><path class="cls-23" d="M230.78,234.33a6.38,6.38,0,0,1,3.1,1.95,11.3,11.3,0,0,1,2,3,17.14,17.14,0,0,1,1.25,6.95c0,.58,0,1.15,0,1.73s0,1.15,0,1.72c-.12,1.14-.19,2.28-.35,3.41s-.35,2.24-.58,3.35-.5,2.2-.77,3.3l-.29,0c0-1.13.1-2.24.17-3.35s0-2.23,0-3.34-.09-2.21-.14-3.3c0-.55-.11-1.09-.16-1.63a14.64,14.64,0,0,0-.21-1.62q-.14-.79-.3-1.59c-.14-.52-.3-1-.45-1.53s-.32-1-.45-1.51-.29-1-.44-1.49a19.29,19.29,0,0,0-2.54-5.78Z"/><path class="cls-23" d="M239.61,249.52a22,22,0,0,0-1.49-4.34,15.35,15.35,0,0,0-1-1.92,9,9,0,0,0-.57-.89l-.29-.43-.34-.4a8,8,0,0,0-1.5-1.36,5,5,0,0,1-.74-.62c-.2-.24-.42-.47-.62-.72l-.28-.41a4.73,4.73,0,0,0-.28-.44,8.12,8.12,0,0,1-.6-.92c-.18-.36-.4-.68-.62-1.06a13.86,13.86,0,0,1-.62-1.32l.19-.47a6.58,6.58,0,0,1,5.55.78,5.53,5.53,0,0,1,1.93,2c.42.85.8,1.68,1.13,2.52l.25.62.21.63c.13.42.27.84.36,1.26a20.74,20.74,0,0,1,.36,2.56,15.89,15.89,0,0,1-.48,5Z"/><path class="cls-23" d="M228.7,227.84a9.94,9.94,0,0,1,3.5.37,11.39,11.39,0,0,1,3.23,1.62,13.93,13.93,0,0,1,4.37,5.78l.35.85a6.78,6.78,0,0,1,.33.85l.57,1.73a14,14,0,0,1,.43,3.57,16.84,16.84,0,0,1-1.47,6.95l-.29,0a28.19,28.19,0,0,1-.65-3.43c-.21-1.12-.29-2.22-.49-3.3a42.32,42.32,0,0,0-1-6.38,14,14,0,0,0-1.23-2.93,3.84,3.84,0,0,0-.41-.68l-.44-.67c-.33-.41-.68-.82-1-1.2a10.26,10.26,0,0,0-2.61-1.89,10.12,10.12,0,0,0-3.18-.91Z"/><path class="cls-6" d="M228.54,347a60.57,60.57,0,0,0-4.63,13.61,59.71,59.71,0,0,0-1.4,14.21,47.8,47.8,0,0,0,.67,7.08,56.46,56.46,0,0,0,1.54,6.87,30.32,30.32,0,0,0,2.66,6.45,18.72,18.72,0,0,0,2,2.82,12.66,12.66,0,0,0,2.7,2.27l-.09.2a10.42,10.42,0,0,1-3.29-1.74,16,16,0,0,1-2.63-2.7,24.67,24.67,0,0,1-3.46-6.63,40.87,40.87,0,0,1-1.89-14.62,60,60,0,0,1,7.58-27.93Z"/><path class="cls-6" d="M168.24,467.91A120.4,120.4,0,0,0,241.8,443h0V405c6.29,3.59,17.88,7.07,28.53-.46,13.61-9.63,21.19-36.92,21.19-36.92s-.73-3.13-2-7.16c-4,9.17-15.22,42.54-32.28,45.71-15.38,2.86-30.4-9.26-30.4-9.26l0,32.79a20.41,20.41,0,0,1-10.35,17.84c-15.05,8.44-46.18,19.87-91.22,6.44l2.12,6.84A120.72,120.72,0,0,0,168.24,467.91Z"/><path class="cls-6" d="M193.27,360.54c-.63,1.69-1.22,3.39-1.87,5.07l-1.94,5-1.94,5-2,5-.15.35-.4.23-7.19,4.05a.82.82,0,0,0,.34-.51.76.76,0,0,0-.09-.55.85.85,0,0,0-.5-.39l-.13,0h.39l2.12.09c1.41.05,2.82.14,4.23.23l3.33.19L185.28,387l-6.73,8.21-6.81,8.15c-2.26,2.73-4.55,5.42-6.86,8.11l-6.9,8.07.43-1c-.4,3.76-.55,7.69-.59,11.56s0,7.77.23,11.66.66,7.76,1.14,11.64,1.25,7.71,2.08,11.56h0a.11.11,0,0,1-.08.13.11.11,0,0,1-.13-.08,109.78,109.78,0,0,1-2.79-11.45c-.73-3.86-1.26-7.76-1.64-11.68s-.58-7.84-.63-11.77,0-7.87.37-11.79v-.06l0-.05L170.1,402l13.73-16.21.13.29-4.22-.32-2.11-.16a4.13,4.13,0,0,1-.56-.06.82.82,0,0,1-.51-.38.87.87,0,0,1,.22-1.16c1.28-.69,2.51-1.31,3.77-2l3.76-1.95-.07.07,8.83-19.68a.11.11,0,0,1,.14-.06.12.12,0,0,1,.06.14Z"/><path class="cls-6" d="M133.9,354.29c.43,4.16.91,8.32,1.64,12.44a71,71,0,0,0,3.2,12.11l-.08-.1,3.48,2.06,1.74,1,.44.26a.81.81,0,0,1,.36.54.83.83,0,0,1-.68,1h0l-2.63-.11-1.31-.05h-.26v0l.3.53,2.64,4.55,5.26,9.09,10.53,18.19a.1.1,0,0,1,0,.14.11.11,0,0,1-.14,0h0c-2.15-2.8-4.15-5.69-6.13-8.59-1-1.46-2-2.91-2.93-4.38l-2.85-4.41L143.62,394c-.93-1.48-1.85-3-2.73-4.48L138.2,385l-.17-.28-.08-.14,0-.07,0-.05a2.76,2.76,0,0,1-.18-.39,2.18,2.18,0,0,1,1.49-2.78,3.21,3.21,0,0,1,.43-.07h.5l1.31.07,2.62.14-.39,0a1.29,1.29,0,0,0-.86.55,1.31,1.31,0,0,0-.2,1,1.34,1.34,0,0,0,.57.84l-.37-.22-1.72-1.05-3.42-2.15-.57-.36-.19-.56a50.17,50.17,0,0,1-1.69-6.22,62.44,62.44,0,0,1-1-6.32c-.12-1.06-.23-2.11-.31-3.17s-.12-2.11-.17-3.16q-.12-3.17,0-6.33v0a.1.1,0,0,1,.11-.1A.1.1,0,0,1,133.9,354.29Z"/><path class="cls-6" d="M163.78,422.38a2.76,2.76,0,0,1,2.5.63,5.22,5.22,0,0,1,1.51,2.25,6.56,6.56,0,0,1-.45,5.37,4.46,4.46,0,0,1-2.4,2,3.33,3.33,0,0,1-3.19-.68,4.37,4.37,0,0,1-1.37-2.42,4.88,4.88,0,0,1,.14-2.5v0a.09.09,0,0,1,.09,0,.08.08,0,0,1,0,.07,5,5,0,0,0,1.75,4,2.22,2.22,0,0,0,2.08.32,3.14,3.14,0,0,0,1.6-1.45,6.05,6.05,0,0,0,.58-4.36,4.83,4.83,0,0,0-1-2,2.62,2.62,0,0,0-1.92-1,.08.08,0,0,1-.07-.07.07.07,0,0,1,0-.07Z"/><path class="cls-2" d="M382.57,222.77q-5.1,0-5.7-4a6.9,6.9,0,0,1-3.5.85,7.79,7.79,0,0,1-2.25-.32,5.67,5.67,0,0,1-1.82-.92,4.42,4.42,0,0,1-1.24-1.5,4.49,4.49,0,0,1-.46-2,5.77,5.77,0,0,1,2.39-4.64,15.72,15.72,0,0,1,6.67-2.79v-2.16l2.79-.49-.14,12a2.62,2.62,0,0,0,.75,2.17,3.83,3.83,0,0,0,2.51.65l.56.36v2.47Zm-10.93-20.34-2.2-2.23,2.2-2.23,2.19,2.23Zm2.15,14.11a8.2,8.2,0,0,0,3-.49l-.08-5.7a16.64,16.64,0,0,0-2.51.48,10.73,10.73,0,0,0-2.14.85,5,5,0,0,0-1.48,1.17,2.14,2.14,0,0,0-.55,1.43,1.79,1.79,0,0,0,.3,1.06,2.28,2.28,0,0,0,.83.69,4.37,4.37,0,0,0,1.22.39A8.36,8.36,0,0,0,373.79,216.54Zm3-14.11-2.19-2.23L376.8,198,379,200.2Z"/><path class="cls-2" d="M382,222.41v-2.47l.57-.36a12.23,12.23,0,0,0,1.48-.08,6.06,6.06,0,0,0,1.33-.3,2.67,2.67,0,0,0,.95-.57,1.13,1.13,0,0,0,.37-.85l-.1-17.33,2.79-.5-.14,17.55a4.64,4.64,0,0,1-2.1,4.12,6.31,6.31,0,0,1-2.13.88,11,11,0,0,1-2.45.27Z"/><path class="cls-2" d="M392.47,219.48a16.21,16.21,0,0,0,2,.26q1.08.09,2.07.09a20.21,20.21,0,0,0,2.07-.1,17.36,17.36,0,0,0,1.78-.27,5.39,5.39,0,0,0,1.26-.39c.32-.15.48-.3.48-.44a5.33,5.33,0,0,0-.41-1.87,12.44,12.44,0,0,0-1.13-2.2,19.74,19.74,0,0,0-1.74-2.28,23.39,23.39,0,0,0-2.17-2.17l2.19-2.09a22,22,0,0,1,2.37,2.47,17.46,17.46,0,0,1,1.8,2.68,13.85,13.85,0,0,1,1.15,2.7,8.66,8.66,0,0,1,.41,2.58,3.69,3.69,0,0,1-1.89,3.5q-1.89,1.06-6.17,1.07c-.5,0-1.07,0-1.72-.08s-1.21-.1-1.68-.17Z"/><path class="cls-2" d="M414.22,222.77c-3.79,0-5.72-1.65-5.76-5l-.14-17.37,2.79-.5L411,216.76a2.72,2.72,0,0,0,.76,2.17,3.79,3.79,0,0,0,2.49.65l.57.36v2.47Z"/><path class="cls-2" d="M425.89,222.77q-4.12,0-5.51-2.37a4.59,4.59,0,0,1-2.32,1.75,10.73,10.73,0,0,1-3.84.62l-.56-.36v-2.47l.56-.36a8.29,8.29,0,0,0,3.42-.53,2.45,2.45,0,0,0,1.39-1.76c.05-.26.11-.59.18-1l.21-1.18q.1-.6.18-1.2c0-.41.09-.76.14-1.07l2.41.29c-.12,1-.23,1.9-.32,2.72s-.14,1.33-.14,1.52q0,2.19,4.2,2.19l.57.36v2.47Zm-5.48,7.28-2.19-2.22,2.19-2.23,2.19,2.23Z"/><path class="cls-2" d="M437.57,222.77q-4.14,0-5.52-2.37a4.55,4.55,0,0,1-2.32,1.75,10.73,10.73,0,0,1-3.84.62l-.56-.36v-2.47l.56-.36a8.26,8.26,0,0,0,3.42-.53,2.43,2.43,0,0,0,1.39-1.76c.05-.26.11-.59.18-1l.21-1.18q.11-.6.18-1.2c.05-.41.09-.76.14-1.07l2.41.29c-.12,1-.23,1.9-.32,2.72s-.14,1.33-.14,1.52q0,2.19,4.21,2.19l.56.36v2.47ZM430.24,210l-2.19-2.23,2.19-2.23,2.2,2.23Zm5.17,0-2.19-2.23,2.19-2.23,2.19,2.23Z"/><path class="cls-2" d="M448.57,223a7.55,7.55,0,0,1-3.35-.76,7.74,7.74,0,0,1-2.63-2.14,6,6,0,0,1-2.16,2,6.22,6.22,0,0,1-2.86.62l-.57-.36v-2.47l.57-.36a5.8,5.8,0,0,0,1.22-.12,3.1,3.1,0,0,0,1-.41,3.54,3.54,0,0,0,.83-.74,6.58,6.58,0,0,0,.78-1.17l2-3.53a9.61,9.61,0,0,1,2.35-3,4.41,4.41,0,0,1,2.74-.93,4.25,4.25,0,0,1,2.16.6,5.94,5.94,0,0,1,1.78,1.62,8.41,8.41,0,0,1,1.22,2.39,8.87,8.87,0,0,1,.46,2.88,6,6,0,0,1-1.46,4.27A5.36,5.36,0,0,1,448.57,223Zm-4.6-5.45a5.61,5.61,0,0,0,2.07,1.7,6.06,6.06,0,0,0,2.74.67,3,3,0,0,0,2.12-.74,2.75,2.75,0,0,0,.78-2.09,4.93,4.93,0,0,0-.27-1.63,4.16,4.16,0,0,0-.74-1.36,3.56,3.56,0,0,0-1.1-.92,2.7,2.7,0,0,0-1.29-.34c-1.27,0-2.34.87-3.22,2.59Z"/><path class="cls-2" d="M478.24,222.77q-5.08,0-5.69-4a6.91,6.91,0,0,1-3.51.85,7.67,7.67,0,0,1-2.24-.32,5.57,5.57,0,0,1-1.82-.92,4.42,4.42,0,0,1-1.24-1.5,4.36,4.36,0,0,1-.46-2,5.77,5.77,0,0,1,2.39-4.64,15.68,15.68,0,0,1,6.66-2.79v-2.16l2.8-.49-.14,12a2.59,2.59,0,0,0,.74,2.17,3.87,3.87,0,0,0,2.51.65l.57.36v2.47Zm-10.93-20.34-2.19-2.23,2.19-2.23,2.19,2.23Zm2.16,14.11a8.18,8.18,0,0,0,3-.49l-.07-5.7a16.64,16.64,0,0,0-2.51.48,10.49,10.49,0,0,0-2.14.85,5,5,0,0,0-1.49,1.17,2.18,2.18,0,0,0-.54,1.43,1.72,1.72,0,0,0,.3,1.06,2.2,2.2,0,0,0,.83.69,4.26,4.26,0,0,0,1.22.39A8.28,8.28,0,0,0,469.47,216.54Zm3-14.11-2.2-2.23,2.2-2.23,2.19,2.23Z"/><path class="cls-2" d="M493.24,222.77a23.84,23.84,0,0,1-3.89-.32,21,21,0,0,1-3.61-.92,21,21,0,0,1-3.61.92,23.84,23.84,0,0,1-3.89.32l-.56-.36v-2.47l.56-.36c.68,0,1.35,0,2,0s1.24-.06,1.81-.11a5.6,5.6,0,0,1-1.84-4.31,6.71,6.71,0,0,1,.44-2.46,6.27,6.27,0,0,1,1.2-2,5.92,5.92,0,0,1,1.77-1.34,4.83,4.83,0,0,1,4.28,0,5.92,5.92,0,0,1,1.77,1.34,6.46,6.46,0,0,1,1.2,2,6.71,6.71,0,0,1,.44,2.46,5.66,5.66,0,0,1-1.84,4.31c.55.05,1.13.09,1.77.11s1.31,0,2,0l.56.36v2.47ZM483.16,206l-2.2-2.23,2.2-2.22,2.19,2.22Zm-.67,9.23q0,2.45,3.25,3.51,3.25-1.06,3.25-3.51a3.46,3.46,0,0,0-.24-1.3,3.51,3.51,0,0,0-.69-1.07,3.12,3.12,0,0,0-1.05-.7,3.35,3.35,0,0,0-2.54,0,3,3,0,0,0-1.05.7,3.51,3.51,0,0,0-.69,1.07A3.46,3.46,0,0,0,482.49,215.23Zm5.83-9.23-2.19-2.23,2.19-2.22,2.19,2.22Z"/><path class="cls-2" d="M494.72,206l-2.19-2.23,2.19-2.22,2.2,2.22Zm-2.05,16.41v-2.47l.57-.36a11.13,11.13,0,0,0,4-.61q1.56-.63,1.56-1.47a9.59,9.59,0,0,0-.16-1.56,16.77,16.77,0,0,0-.46-1.86c-.2-.64-.43-1.3-.69-2s-.55-1.28-.85-1.87l2.55-1.42a15.76,15.76,0,0,1,.79,1.86c.25.7.47,1.41.67,2.14a17.47,17.47,0,0,1,.46,2.14,12,12,0,0,1,.16,1.86,5.2,5.2,0,0,1-2,4.51q-2,1.42-6.08,1.43Zm4.64-21-2.2-2.23,2.2-2.23,2.19,2.23Zm2.58,4.56-2.2-2.23,2.2-2.22,2.19,2.22Z"/><path class="cls-2" d="M355.19,289.4a22.48,22.48,0,0,1,.92,2.3c.28.83.53,1.65.74,2.48s.39,1.61.52,2.37a11.71,11.71,0,0,1,.19,2,7.18,7.18,0,0,1-.69,3.14,7.55,7.55,0,0,1-1.91,2.5,8.79,8.79,0,0,1-2.9,1.62,11.17,11.17,0,0,1-3.7.59,11.81,11.81,0,0,1-3.78-.57,8.41,8.41,0,0,1-2.9-1.61,6.83,6.83,0,0,1-1.84-2.53,8.32,8.32,0,0,1-.64-3.29,11.67,11.67,0,0,1,.71-3.9,13,13,0,0,1,2-3.66L343.7,292a10.51,10.51,0,0,0-1.81,5.66,5.11,5.11,0,0,0,1.75,4.05,7,7,0,0,0,4.72,1.5,10.22,10.22,0,0,0,2.57-.32,8,8,0,0,0,2.14-.88,5.49,5.49,0,0,0,1.47-1.29,2.56,2.56,0,0,0,.54-1.54,9.15,9.15,0,0,0-.17-1.67c-.12-.63-.29-1.31-.5-2s-.47-1.48-.78-2.28-.64-1.59-1-2.37ZM348,288l-2.19-2.23,2.19-2.23,2.19,2.23Zm12.34,11.35a6.77,6.77,0,0,1-3.5-.83,4.25,4.25,0,0,1-1.94-2.35l1.84-2.23a1.85,1.85,0,0,0,.93,1.65,5.09,5.09,0,0,0,2.67.58l.57.35V299Z"/><path class="cls-2" d="M371.35,299.55a7.41,7.41,0,0,1-3.34-.76,7.74,7.74,0,0,1-2.63-2.14,6.1,6.1,0,0,1-2.16,2,6.23,6.23,0,0,1-2.87.61l-.56-.35v-2.48l.56-.35a5.83,5.83,0,0,0,1.23-.12,3.1,3.1,0,0,0,1-.41,4.05,4.05,0,0,0,.83-.74,6.78,6.78,0,0,0,.77-1.17l2-3.54a9.42,9.42,0,0,1,2.35-2.95,4.4,4.4,0,0,1,2.74-.94,4.25,4.25,0,0,1,2.16.6,6.11,6.11,0,0,1,1.78,1.63,8.41,8.41,0,0,1,1.22,2.39,8.87,8.87,0,0,1,.46,2.88A5.9,5.9,0,0,1,375.4,298,5.29,5.29,0,0,1,371.35,299.55Zm-4.59-5.45a5.52,5.52,0,0,0,2.07,1.7,5.93,5.93,0,0,0,2.74.67,2.93,2.93,0,0,0,2.12-.74,2.73,2.73,0,0,0,.78-2.08,4.93,4.93,0,0,0-.27-1.63,4.16,4.16,0,0,0-.74-1.36,3.56,3.56,0,0,0-1.1-.92,2.59,2.59,0,0,0-1.29-.34c-1.27,0-2.34.86-3.22,2.58Z"/><path class="cls-2" d="M385.08,272.92a23.37,23.37,0,0,0-5.45,1.06l-.49-1.27c.33-.12.63-.23.92-.32l.81-.29a2.11,2.11,0,0,1-1.17-1.94,2.59,2.59,0,0,1,.82-1.93,2.67,2.67,0,0,1,1.94-.79,2.52,2.52,0,0,1,2,.88l-.71,1a2.08,2.08,0,0,0-1.13-.32,1.59,1.59,0,0,0-1,.32,1,1,0,0,0-.41.81,1,1,0,0,0,.55.88,3.36,3.36,0,0,0,1.47.46c.4-.07.78-.13,1.13-.17s.7-.09,1-.11ZM381,299.3,380.8,277l2.79-.5-.17,22.81Z"/><path class="cls-2" d="M410.54,307.05a11.5,11.5,0,0,1-3.83,2.1,14.46,14.46,0,0,1-4.69.77,13.29,13.29,0,0,1-3.71-.48,8.65,8.65,0,0,1-2.83-1.35,6.09,6.09,0,0,1-1.81-2.08,5.91,5.91,0,0,1-.63-2.74,5.26,5.26,0,0,1,.37-2,6.41,6.41,0,0,1,1.15-1.8,14,14,0,0,1,2-1.79,29.77,29.77,0,0,1,2.78-1.85,18.34,18.34,0,0,1-2.64-2.51,27.85,27.85,0,0,1-2.31-3.15l.46-2.62a8.9,8.9,0,0,1,3-1.43,14.38,14.38,0,0,1,3.93-.51,11.34,11.34,0,0,1,5.21,1,3,3,0,0,1,1.93,2.71,5.06,5.06,0,0,1-1.13,2.9,16.88,16.88,0,0,1-3.29,3.25,14.19,14.19,0,0,0,2.72.52c.92.08,2,.12,3.26.12l.56.35V299l-.56.35a20.85,20.85,0,0,1-4.71-.47,16.86,16.86,0,0,1-4.13-1.61,19.72,19.72,0,0,0-4.5,2.81,3.63,3.63,0,0,0-1.34,2.63,3.29,3.29,0,0,0,1.79,3,9.89,9.89,0,0,0,5,1.06,18.84,18.84,0,0,0,2-.11,16.88,16.88,0,0,0,1.95-.32,15.24,15.24,0,0,0,1.77-.51,10.1,10.1,0,0,0,1.47-.66ZM397,289.65a14.15,14.15,0,0,0,1,1.38c.39.47.8.92,1.22,1.36a12.92,12.92,0,0,0,1.31,1.18,11.5,11.5,0,0,0,1.27.89,9.72,9.72,0,0,0,1.52-1c.55-.43,1-.86,1.51-1.29a11.55,11.55,0,0,0,1.15-1.26,1.87,1.87,0,0,0,.46-.88.76.76,0,0,0-.38-.59,3.61,3.61,0,0,0-1-.46,8.89,8.89,0,0,0-1.49-.3,14.69,14.69,0,0,0-1.8-.1,13.51,13.51,0,0,0-2.85.28A4.63,4.63,0,0,0,397,289.65Z"/><path class="cls-2" d="M420.52,292.23a5.21,5.21,0,0,1-1.65.88,5.93,5.93,0,0,1-2,.32,4.89,4.89,0,0,1-3.67-1.36,5.23,5.23,0,0,1-1.32-3.8,7.92,7.92,0,0,1,.42-2.6,7.3,7.3,0,0,1,1.15-2.12,5.43,5.43,0,0,1,1.72-1.42,4.55,4.55,0,0,1,6.31,2.32c1,1.89,1.43,4.67,1.43,8.35a8.87,8.87,0,0,1-.56,3.55,3.85,3.85,0,0,1-1.95,1.86,7.69,7.69,0,0,1-1.47.51,18.84,18.84,0,0,1-1.89.34c-.73.09-1.57.16-2.51.19s-2,.05-3.29.05h-.81l-.57-.35v-2.48l.57-.35h.81a51.06,51.06,0,0,0,6.93-.35c1.56-.24,2.34-.59,2.34-1.06Zm-3.33-1.49a6.66,6.66,0,0,0,1.79-.24,4.15,4.15,0,0,0,1.4-.67,9.64,9.64,0,0,0-1-4,2.41,2.41,0,0,0-2.18-1.24,2.81,2.81,0,0,0-2.19,1,3.63,3.63,0,0,0-.88,2.49,2.45,2.45,0,0,0,.79,2A3.43,3.43,0,0,0,417.19,290.74Zm.07-11.95-2.19-2.23,2.19-2.23,2.2,2.23Z"/><path class="cls-2" d="M426.11,296a18.43,18.43,0,0,0,2,.27q1.08.09,2.07.09a19.9,19.9,0,0,0,2.07-.11c.68-.07,1.27-.16,1.79-.26a5.91,5.91,0,0,0,1.26-.39c.31-.15.47-.3.47-.44a5.34,5.34,0,0,0-.4-1.88,12.12,12.12,0,0,0-1.14-2.19,18.05,18.05,0,0,0-1.73-2.28,24.8,24.8,0,0,0-2.17-2.18l2.19-2.08a21.18,21.18,0,0,1,2.37,2.47,16.91,16.91,0,0,1,1.8,2.67,13.93,13.93,0,0,1,1.15,2.71,8.88,8.88,0,0,1,.41,2.58,3.7,3.7,0,0,1-1.89,3.5c-1.27.71-3.32,1.06-6.18,1.06-.49,0-1.06,0-1.71-.07s-1.21-.1-1.68-.18Z"/><path class="cls-2" d="M447.72,312.74l-.21-14a2.35,2.35,0,0,1,.7-1.91,3.11,3.11,0,0,1,2.12-.67h2.2a4.84,4.84,0,0,1-1.56-3.71,6,6,0,0,1,.48-2.39,6.2,6.2,0,0,1,1.31-1.95,6.41,6.41,0,0,1,1.94-1.32,5.78,5.78,0,0,1,2.36-.5,5.85,5.85,0,0,1,4.35,1.88,6.52,6.52,0,0,1,1.27,2.1,7.36,7.36,0,0,1,.46,2.64,7.51,7.51,0,0,1-.44,2.6,6.43,6.43,0,0,1-1.22,2,5.51,5.51,0,0,1-1.86,1.33,5.7,5.7,0,0,1-2.35.47h-6.4c-.45,0-.68.18-.68.53l0,12.91Zm5.66-20.05a2.77,2.77,0,0,0,.42,1.49,4.06,4.06,0,0,0,1.19,1.18,6,6,0,0,0,1.8.8,9.58,9.58,0,0,0,2.28.31,3.63,3.63,0,0,0,1.66-3.25,3.83,3.83,0,0,0-1-2.78,4.06,4.06,0,0,0-5.31-.1A3.05,3.05,0,0,0,453.38,292.69Z"/><path class="cls-2" d="M472.87,299.3q-5.7,0-5.77-4.95L467,277l2.79-.5-.14,16.8a2.73,2.73,0,0,0,.76,2.18,3.86,3.86,0,0,0,2.5.65l.56.35V299Z"/><path class="cls-2" d="M472.87,299.3l-.57-.35v-2.48l.57-.35h2.47L475.09,277l2.8-.5-.25,15.74a18.19,18.19,0,0,1,3.68-5.06,5.94,5.94,0,0,1,4-1.8,5.16,5.16,0,0,1,2.37.55,5.82,5.82,0,0,1,1.91,1.52,7.22,7.22,0,0,1,1.27,2.28,8.25,8.25,0,0,1,.46,2.79q0,6.8-11.6,6.79Zm12.37-10.68a5.45,5.45,0,0,0-3.8,1.93,21.79,21.79,0,0,0-3.69,5.57h1.94a20.56,20.56,0,0,0,7-.85,2.91,2.91,0,0,0,2.14-2.79,4,4,0,0,0-.29-1.49,4,4,0,0,0-.77-1.24,3.76,3.76,0,0,0-1.15-.83A3.25,3.25,0,0,0,485.24,288.62Zm-.67-6.43L482.38,280l2.19-2.23,2.2,2.23Zm8.67,17.11a6.74,6.74,0,0,1-3.5-.83,4.26,4.26,0,0,1-1.95-2.35l1.84-2.23a1.84,1.84,0,0,0,.94,1.65,5,5,0,0,0,2.67.58l.56.35V299Z"/><path class="cls-2" d="M492.67,299v-2.48l.57-.35a10.9,10.9,0,0,0,4-.62q1.56-.62,1.56-1.47a9.59,9.59,0,0,0-.16-1.55,16.77,16.77,0,0,0-.46-1.86c-.2-.65-.43-1.3-.69-2a19.08,19.08,0,0,0-.85-1.88l2.55-1.41a15.08,15.08,0,0,1,.79,1.86c.25.69.47,1.4.67,2.14a17.47,17.47,0,0,1,.46,2.14,11.86,11.86,0,0,1,.16,1.85,5.19,5.19,0,0,1-2,4.51c-1.32,1-3.35,1.43-6.08,1.43Zm4.64-16.41-2.2-2.23,2.2-2.23,2.19,2.23Z"/><path class="cls-2" d="M352.43,375.84q-5.08,0-5.69-4a6.9,6.9,0,0,1-3.5.85,7.37,7.37,0,0,1-2.25-.32,5.38,5.38,0,0,1-1.82-.92,4.42,4.42,0,0,1-1.24-1.5,4.36,4.36,0,0,1-.46-2,5.77,5.77,0,0,1,2.39-4.64,15.68,15.68,0,0,1,6.66-2.79v-2.16l2.8-.49-.14,12a2.58,2.58,0,0,0,.74,2.17,3.87,3.87,0,0,0,2.51.66l.57.35v2.48ZM341.5,355.5l-2.19-2.23,2.19-2.22,2.2,2.22Zm2.16,14.12a8.18,8.18,0,0,0,3-.5l-.07-5.69a15.48,15.48,0,0,0-2.51.47,10.49,10.49,0,0,0-2.14.85,5,5,0,0,0-1.49,1.17,2.2,2.2,0,0,0-.54,1.43,1.77,1.77,0,0,0,.3,1.06,2,2,0,0,0,.83.69,4.26,4.26,0,0,0,1.22.39A8.26,8.26,0,0,0,343.66,369.62Zm3-14.12-2.2-2.23,2.2-2.22,2.19,2.22Z"/><path class="cls-2" d="M362.51,368.77a5.49,5.49,0,0,1-1.64.88,6.26,6.26,0,0,1-2,.32,4.85,4.85,0,0,1-3.66-1.36,5.21,5.21,0,0,1-1.33-3.8,7.67,7.67,0,0,1,.43-2.6,6.8,6.8,0,0,1,1.15-2.13,5.25,5.25,0,0,1,1.71-1.41,4.57,4.57,0,0,1,2.12-.51,4.51,4.51,0,0,1,4.19,2.82q1.44,2.83,1.44,8.35a8.73,8.73,0,0,1-.57,3.56,3.78,3.78,0,0,1-1.94,1.85,7.28,7.28,0,0,1-1.47.52,16.55,16.55,0,0,1-1.89.33c-.74.1-1.57.16-2.52.2s-2,0-3.28,0h-.82l-.56-.35V373l.56-.35h.82a49.32,49.32,0,0,0,6.93-.36c1.55-.23,2.33-.59,2.33-1.06Zm-5.83-13.44-2.2-2.23,2.2-2.23,2.19,2.23Zm2.51,11.95A6.22,6.22,0,0,0,361,367a3.89,3.89,0,0,0,1.4-.67,9.53,9.53,0,0,0-1-4,2.41,2.41,0,0,0-2.17-1.23,2.8,2.8,0,0,0-2.2,1,3.67,3.67,0,0,0-.88,2.5,2.46,2.46,0,0,0,.8,2A3.43,3.43,0,0,0,359.19,367.28Zm2.65-11.95-2.19-2.23,2.19-2.23L364,353.1Z"/><path class="cls-2" d="M382.07,375.84h-2.33a9.8,9.8,0,0,1-3.47,4.72,12.84,12.84,0,0,1-6.08,2.35l-1.28-2.9q6.69-.94,8.42-4.49h-1.24a8.18,8.18,0,0,1-5.3-1.52,5.27,5.27,0,0,1-1.88-4.35,8.6,8.6,0,0,1,.43-2.74,6.9,6.9,0,0,1,1.17-2.18,5.27,5.27,0,0,1,1.76-1.43,5,5,0,0,1,2.23-.51,4.82,4.82,0,0,1,4.3,2.44c1,1.63,1.54,4,1.54,7.07v.36h1.73l.57.35v2.48Zm-10.79-6.26c0,2.05,1.74,3.08,5.2,3.08H378a10.79,10.79,0,0,0-.94-5.06,2.87,2.87,0,0,0-2.63-1.73,2.82,2.82,0,0,0-2.25,1A4,4,0,0,0,371.28,369.58Z"/><path class="cls-2" d="M383.56,359.08l-2.2-2.23,2.2-2.23,2.19,2.23Zm-2.05,16.41V373l.56-.35a11.08,11.08,0,0,0,4-.62q1.56-.62,1.56-1.47a8.59,8.59,0,0,0-.16-1.56,16.62,16.62,0,0,0-.46-1.85c-.2-.65-.43-1.31-.69-2a18.89,18.89,0,0,0-.85-1.87l2.55-1.42a14.86,14.86,0,0,1,.79,1.86c.25.7.48,1.41.68,2.14A20.07,20.07,0,0,1,390,368a13.48,13.48,0,0,1,.16,1.86,5.18,5.18,0,0,1-2,4.51c-1.32.95-3.34,1.43-6.08,1.43Zm4.63-21L384,352.28l2.19-2.22,2.19,2.22Zm2.58,4.57-2.19-2.23,2.19-2.23,2.19,2.23Z"/><path class="cls-2" d="M406.76,375.84h-2.34a9.78,9.78,0,0,1-3.46,4.72,12.84,12.84,0,0,1-6.08,2.35L393.6,380q6.69-.94,8.42-4.49h-1.24a8.16,8.16,0,0,1-5.3-1.52,5.27,5.27,0,0,1-1.88-4.35,8.33,8.33,0,0,1,.43-2.74,7.09,7.09,0,0,1,1.16-2.18A5.4,5.4,0,0,1,397,363.3a5,5,0,0,1,2.23-.51,4.82,4.82,0,0,1,4.3,2.44A13.39,13.39,0,0,1,405,372.3v.36h1.73l.56.35v2.48ZM396,369.58q0,3.07,5.2,3.08h1.49a10.92,10.92,0,0,0-.94-5.06,2.89,2.89,0,0,0-2.64-1.73,2.8,2.8,0,0,0-2.24,1A4,4,0,0,0,396,369.58Z"/><path class="cls-2" d="M417.76,376.09a7.51,7.51,0,0,1-3.34-.76,7.68,7.68,0,0,1-2.64-2.14,5.83,5.83,0,0,1-2.16,2,6.19,6.19,0,0,1-2.86.62l-.57-.35V373l.57-.35a5.13,5.13,0,0,0,1.22-.13,3.08,3.08,0,0,0,1-.4,3.84,3.84,0,0,0,.83-.75,6.84,6.84,0,0,0,.78-1.16l2-3.54a9.56,9.56,0,0,1,2.35-2.95,4.38,4.38,0,0,1,2.74-.94,4.19,4.19,0,0,1,2.16.6A6,6,0,0,1,421.6,365a8.89,8.89,0,0,1,1.22,2.38,9.16,9.16,0,0,1,.46,2.89,5.93,5.93,0,0,1-1.47,4.26A5.32,5.32,0,0,1,417.76,376.09Zm-4.6-5.45a5.68,5.68,0,0,0,2.07,1.7A6,6,0,0,0,418,373a3,3,0,0,0,2.12-.74,2.75,2.75,0,0,0,.78-2.09,5.25,5.25,0,0,0-.26-1.63,4.49,4.49,0,0,0-.75-1.36,3.67,3.67,0,0,0-1.09-.92,2.75,2.75,0,0,0-1.29-.33c-1.28,0-2.35.86-3.22,2.58Z"/><path class="cls-2" d="M445.56,375.84a6.87,6.87,0,0,1-3.93-1,10.23,10.23,0,0,1-3.18,4.66,18.87,18.87,0,0,1-6.12,3.44l-1.63-2.79a22.3,22.3,0,0,0,6.26-3.43,7.1,7.1,0,0,0,2.76-4.07,19.44,19.44,0,0,1-1-2.26c-.35-.9-.74-2-1.19-3.36l2.65-1.24c.29.87.57,1.75.87,2.62s.52,1.5.69,1.87a6.33,6.33,0,0,0,.6,1.17,2.74,2.74,0,0,0,.74.74,2.7,2.7,0,0,0,1,.39,8.48,8.48,0,0,0,1.45.11l.57.35v2.48Z"/><path class="cls-2" d="M454.05,382.42l-2.19-2.23,2.19-2.23,2.19,2.23Z"/><path class="cls-2" d="M454.3,370.06c.82-.4,1.57-.75,2.24-1a17.37,17.37,0,0,1,1.93-.73l-1.8-.77c-.78-.33-1.45-.61-2-.83s-1.06-.4-1.49-.53-.8-.22-1.13-.28a5.3,5.3,0,0,0-.95-.08,3.35,3.35,0,0,0-1.54.31,5.55,5.55,0,0,0-1.4,1.17L446.51,366a6.75,6.75,0,0,1,2.18-2.46,5.29,5.29,0,0,1,2.88-.76,6.56,6.56,0,0,1,1.08.09,10.35,10.35,0,0,1,1.22.28,14.82,14.82,0,0,1,1.54.55c.58.23,1.26.53,2,.88s1.2.53,1.68.73.92.36,1.3.49a6,6,0,0,0,1,.27,5.7,5.7,0,0,0,.92.07h.71v3q-.82.21-1.59.48a15.77,15.77,0,0,0-1.63.65q-.86.39-1.86.9c-.67.35-1.43.76-2.28,1.26-1.13.64-2.15,1.18-3.06,1.63a21.13,21.13,0,0,1-2.55,1.06,14.31,14.31,0,0,1-4.54.74l-.57-.35V373l.57-.35a14.6,14.6,0,0,0,2-.14,15.79,15.79,0,0,0,2-.45,20.61,20.61,0,0,0,2.19-.8C452.53,370.94,453.38,370.54,454.3,370.06Z"/><path class="cls-2" d="M473.22,375.84q-5.7,0-5.77-4.95l-.14-17.37,2.8-.49-.15,16.8a2.71,2.71,0,0,0,.77,2.17,3.75,3.75,0,0,0,2.49.66l.56.35v2.48Z"/><path class="cls-2" d="M484.89,375.84q-4.14,0-5.52-2.37a4.47,4.47,0,0,1-2.31,1.75,10.81,10.81,0,0,1-3.84.62l-.57-.35V373l.57-.35a8.38,8.38,0,0,0,3.41-.53,2.5,2.5,0,0,0,1.4-1.77l.18-1,.21-1.19c.07-.4.13-.8.17-1.2s.1-.76.15-1.06l2.4.28c-.12,1-.22,1.9-.32,2.72s-.14,1.34-.14,1.52q0,2.21,4.21,2.2l.57.35v2.48Zm-7.32-12.77-2.19-2.23,2.19-2.22,2.19,2.22Zm5.16,0-2.19-2.23,2.19-2.22,2.2,2.22Z"/><path class="cls-2" d="M495.89,376.09a7.51,7.51,0,0,1-3.34-.76,7.68,7.68,0,0,1-2.64-2.14,5.88,5.88,0,0,1-2.15,2,6.26,6.26,0,0,1-2.87.62l-.57-.35V373l.57-.35a5.07,5.07,0,0,0,1.22-.13,2.9,2.9,0,0,0,1-.4,3.62,3.62,0,0,0,.83-.75,6.84,6.84,0,0,0,.78-1.16l2-3.54a9.71,9.71,0,0,1,2.35-2.95,4.38,4.38,0,0,1,2.74-.94,4.19,4.19,0,0,1,2.16.6,5.88,5.88,0,0,1,1.79,1.63A8.89,8.89,0,0,1,501,367.4a9.16,9.16,0,0,1,.46,2.89,5.93,5.93,0,0,1-1.47,4.26A5.32,5.32,0,0,1,495.89,376.09Zm-4.6-5.45a5.68,5.68,0,0,0,2.07,1.7,6,6,0,0,0,2.74.67,3,3,0,0,0,2.13-.74,2.79,2.79,0,0,0,.77-2.09,5.25,5.25,0,0,0-.26-1.63,4.69,4.69,0,0,0-.74-1.36,3.83,3.83,0,0,0-1.1-.92,2.69,2.69,0,0,0-1.29-.33c-1.28,0-2.35.86-3.22,2.58Z"/></g></g></svg>