<svg xmlns="http://www.w3.org/2000/svg" viewBox="0 0 476.15 442.82"><defs><style>.cls-1{isolation:isolate;}.cls-2{fill:#ce6c30;}.cls-3{fill:#e47636;}.cls-14,.cls-4{fill:#fff;}.cls-5{fill:#c3e6fa;}.cls-6{fill:#002e50;}.cls-7{fill:#eca53b;}.cls-8{fill:#e99539;}.cls-9{fill:#c03a2a;}.cls-10{fill:#e2c0d1;}.cls-10,.cls-13,.cls-16,.cls-23,.cls-27,.cls-30{mix-blend-mode:multiply;}.cls-11{fill:#f3a7c9;}.cls-11,.cls-14,.cls-25{mix-blend-mode:soft-light;}.cls-12{fill:#b1b1b1;}.cls-13{fill:#d5d5d5;}.cls-15{fill:#c6c6c5;}.cls-16{fill:#88b0c5;}.cls-17{fill:#f5f5f5;}.cls-18{fill:#cdcdcd;}.cls-19{fill:#ababaa;}.cls-20,.cls-26,.cls-34,.cls-35{fill:none;}.cls-20{stroke:#c03a2a;stroke-width:2.63px;}.cls-20,.cls-34,.cls-35{stroke-miterlimit:10;}.cls-21{fill:#ffca00;}.cls-22{fill:#f7ac00;}.cls-23{fill:#e3cec6;}.cls-24{fill:#c77700;}.cls-25{fill:#fbd1a3;}.cls-26{stroke:#f7ac00;stroke-linecap:round;stroke-linejoin:round;stroke-width:1.16px;}.cls-27{fill:#d7c8c0;}.cls-28,.cls-30{fill:#b7c4cb;}.cls-29{fill:#d6e5ed;}.cls-31{fill:#259caa;}.cls-32{fill:#083b5a;}.cls-33{fill:#454f56;}.cls-34{stroke:#454f56;stroke-width:0.59px;}.cls-35{stroke:#e20613;stroke-width:2.07px;}.cls-36{fill:#e20613;}</style></defs><g class="cls-1"><g id="Layer_2" data-name="Layer 2"><g id="Layer_1-2" data-name="Layer 1"><rect class="cls-2" x="206.84" y="38.21" width="138.86" height="248.02" transform="matrix(0.32, -0.95, 0.95, 0.32, 34.81, 372.78)"/><polygon class="cls-3" points="415.9 135.7 180.69 57.04 327.06 10.36 415.9 135.7"/><rect class="cls-4" x="188.25" y="44.29" width="202.02" height="150.87" transform="translate(83.98 356.08) rotate(-71.51)"/><polygon class="cls-5" points="328.76 239.44 185.69 191.59 249.76 0 193.64 186.94 328.76 239.44"/><rect class="cls-6" x="278.07" y="7.95" width="58.99" height="122.25" transform="translate(144.5 338.86) rotate(-71.51)"/><rect class="cls-6" x="291.49" y="43.24" width="8.55" height="122.25" transform="translate(102.99 351.77) rotate(-71.51)"/><rect class="cls-6" x="287.16" y="56.19" width="8.55" height="122.25" transform="matrix(0.32, -0.95, 0.95, 0.32, 87.74, 356.5)"/><rect class="cls-6" x="282.83" y="69.14" width="8.55" height="122.25" transform="translate(72.51 361.24) rotate(-71.51)"/><rect class="cls-6" x="278.5" y="82.09" width="8.55" height="122.25" transform="translate(57.27 365.97) rotate(-71.51)"/><rect class="cls-6" x="242.3" y="117.98" width="8.55" height="55.06" transform="matrix(0.32, -0.95, 0.95, 0.32, 30.38, 333.22)"/><rect class="cls-6" x="298.33" y="147.04" width="8.55" height="62.43" transform="translate(37.58 408.71) rotate(-71.51)"/><rect class="cls-6" x="294.15" y="159.51" width="8.55" height="62.43" transform="translate(22.91 413.26) rotate(-71.51)"/><rect class="cls-6" x="278.78" y="180.05" width="8.55" height="38.8" transform="translate(4.13 404.64) rotate(-71.51)"/><rect class="cls-6" x="215.14" y="147.11" width="43.4" height="55.06" transform="matrix(0.32, -0.95, 0.95, 0.32, -3.9, 343.86)"/><path class="cls-4" d="M298.41,74.71l-4.6,13.76a4,4,0,0,1-2.19,2.43,4.17,4.17,0,0,1-3.23.27l-7.49-2.51a.93.93,0,0,1-.66-1.34l6.64-19.86a.94.94,0,0,1,1.34-.67l7.47,2.5a4.15,4.15,0,0,1,2.43,2.18A4.07,4.07,0,0,1,298.41,74.71Zm-8.64,12.43,4.61-13.8-4.46-1.49L285.3,85.64Z"/><path class="cls-4" d="M304.11,95.52l.56-4.33-4.24-1.41-2.16,3.79a1,1,0,0,1-1.26.48l-2.08-.7a1,1,0,0,1-.65-.62.94.94,0,0,1,.07-.9L305,73.29a1,1,0,0,1,1.24-.48l4,1.35A1,1,0,0,1,311,75.3l-2.68,21.19a1.06,1.06,0,0,1-1.37.87l-2.09-.7A1,1,0,0,1,304.11,95.52Zm1.1-8.64.88-7L302.59,86Z"/><path class="cls-4" d="M317.17,91.83l-2.36,7.06a.93.93,0,0,1-1.33.66l-2.09-.69a.94.94,0,0,1-.67-1.34l2.37-7.09-.22-13.91a1,1,0,0,1,.43-.87,1,1,0,0,1,1-.15l2,.68a1,1,0,0,1,.72,1l0,8.3,5-6.63a1,1,0,0,1,1.17-.36l2.16.72a1,1,0,0,1,.66.7,1,1,0,0,1-.18,1Z"/><path class="cls-4" d="M304.21,45.4,301,44.34l-6,17.81a1,1,0,0,1-1.41.71l-2.17-.73a1,1,0,0,1-.7-1.41l5.95-17.81-3.18-1.07a1,1,0,0,1-.71-1.4l.72-2.17a1,1,0,0,1,1.42-.7l10.65,3.56a1,1,0,0,1,.71,1.42l-.73,2.16A1,1,0,0,1,304.21,45.4Z"/><path class="cls-4" d="M307.84,66.65l.58-4.59-4.48-1.49-2.29,4a1,1,0,0,1-1.33.51l-2.2-.74a1,1,0,0,1-.69-.66,1,1,0,0,1,.07-.95l11.25-19.62a1,1,0,0,1,1.31-.51L314.34,44a1,1,0,0,1,.76,1.2l-2.84,22.43a1.1,1.1,0,0,1-1.45.92l-2.21-.73A1,1,0,0,1,307.84,66.65ZM309,57.5l.93-7.38-3.7,6.46Z"/><path class="cls-4" d="M326.81,74l-2.36-.79a1,1,0,0,1-.75-1l-.54-6.61-4.41,5a1,1,0,0,1-1.19.32l-2.36-.79a1,1,0,0,1-.71-.76,1,1,0,0,1,.23-1l7.94-8.94-.9-11.16a1,1,0,0,1,.4-1,1.08,1.08,0,0,1,1-.18l2.35.79a1.05,1.05,0,0,1,.76,1l.49,5.89,3.93-4.42a1,1,0,0,1,1.19-.32l2.36.79a1.06,1.06,0,0,1,.72.77,1.14,1.14,0,0,1-.24,1l-7.46,8.37,1,11.92a1.23,1.23,0,0,1-.43,1A1.09,1.09,0,0,1,326.81,74Z"/><polygon class="cls-7" points="136.65 188.74 180.69 57.04 273.99 161.46 136.65 188.74"/><polygon class="cls-7" points="371.87 267.4 415.9 135.7 278.56 162.98 371.87 267.4"/><polygon class="cls-8" points="371.87 267.4 136.65 188.74 283.02 142.05 371.87 267.4"/><polygon class="cls-9" points="305.31 425.72 297.02 425.72 287.14 367.71 332.83 391.01 305.31 425.72"/><path class="cls-10" d="M287.14,367.72l.8,4.72c17.62,11.84,23.61,35.49,13.87,53.28h3.5L332.83,391Z"/><path class="cls-10" d="M312.13,417.13,332.83,391l-24-12.23a37.09,37.09,0,0,1,4,7.33C317,396.5,315.45,407,312.13,417.13Z"/><path class="cls-11" d="M290.48,379.32c3.93,7,3.75,15.88,4,23.81a78.58,78.58,0,0,0,1,9.11c.24,1.56-.05,5.56,1.07,6.75,4.51,4.8,6.28-9.17,6.28-11.07,0-7.56-2.67-15.74-6.48-22.19-.47-.79-.89-1.61-1.35-2.36Z"/><polygon class="cls-9" points="427.01 425.72 435.31 425.72 445.19 367.71 399.5 391.01 427.01 425.72"/><path class="cls-10" d="M445.19,367.72l-.81,4.72c-17.61,11.84-23.6,35.49-13.87,53.28H427L399.5,391Z"/><path class="cls-10" d="M420.2,417.13,399.5,391l24-12.23a36.58,36.58,0,0,0-4,7.33C415.34,396.5,416.87,407,420.2,417.13Z"/><path class="cls-11" d="M441.85,379.32c-3.94,7-3.76,15.88-4.05,23.81a76.46,76.46,0,0,1-1,9.11c-.24,1.56.06,5.56-1.06,6.75-4.52,4.8-6.28-9.17-6.28-11.07,0-7.56,2.67-15.74,6.48-22.19.47-.79.89-1.61,1.34-2.36Z"/><rect class="cls-12" x="289.62" y="193.09" width="13.64" height="29.03" transform="translate(-64.48 234.34) rotate(-39.24)"/><rect class="cls-13" x="290.52" y="195.6" width="5.7" height="29.03" transform="translate(-66.77 232.84) rotate(-39.22)"/><path class="cls-9" d="M264,225a36.15,36.15,0,0,1,56-45.74Z"/><path class="cls-11" d="M275.29,173.16a14.78,14.78,0,0,0-.61,4.34c0,2.39.22,5.84,2,7.68,2.53,2.54,8.55,3.08,11.44.94,1.74-1.28,3.15-3,4.76-4.4,2.07-1.83,4.53-3.49,6-5.92a17.88,17.88,0,0,0,2.23-6.34A23.66,23.66,0,0,0,276,172.52Z"/><path class="cls-10" d="M309,170.25c-.81,4.79-2.51,9.32-6,12.87s-7.53,6.7-11.15,10.22c-2.08,2-4.36,4.16-7.36,4.66-5.62.95-14.19.47-17-5.55A24.86,24.86,0,0,1,266,177.06,36.15,36.15,0,0,0,264,225l56-45.74A36.05,36.05,0,0,0,309,170.25Z"/><path class="cls-10" d="M258,189.76A36.12,36.12,0,0,0,264,225l15.89-13C268.12,212.85,261.21,201.59,258,189.76Z"/><path class="cls-9" d="M272.24,171.59a4,4,0,1,1-5.69-.58A4,4,0,0,1,272.24,171.59Z"/><path class="cls-14" d="M302,205c.54.61.65,1.41.23,1.78h0c-.42.37-1.19.18-1.74-.43l-4.2-4.71c-.55-.61-.65-1.4-.23-1.78h0c.41-.37,1.19-.17,1.74.44Z"/><rect class="cls-12" x="421.02" y="200.78" width="29.03" height="13.64" transform="translate(-0.76 413.6) rotate(-50.76)"/><rect class="cls-13" x="424.1" y="207.27" width="29.03" height="5.7" transform="translate(-1.54 416.99) rotate(-50.77)"/><path class="cls-9" d="M468,225a36.15,36.15,0,0,0-56-45.74Z"/><path class="cls-11" d="M456.69,173.16a14.78,14.78,0,0,1,.61,4.34c0,2.39-.22,5.84-2,7.68-2.53,2.54-8.55,3.08-11.44.94-1.74-1.28-3.15-3-4.76-4.4-2.07-1.83-4.53-3.49-6-5.92a17.88,17.88,0,0,1-2.23-6.34A23.66,23.66,0,0,1,456,172.52Z"/><path class="cls-10" d="M423,170.25c.81,4.79,2.51,9.32,6,12.87s7.53,6.7,11.14,10.22c2.09,2,4.37,4.16,7.37,4.66,5.62.95,14.19.47,17-5.55A24.79,24.79,0,0,0,466,177.06,36.15,36.15,0,0,1,468,225l-56-45.74A36.05,36.05,0,0,1,423,170.25Z"/><path class="cls-10" d="M474,189.76A36.12,36.12,0,0,1,468,225l-15.89-13C463.85,212.85,470.76,201.59,474,189.76Z"/><path class="cls-9" d="M459.74,171.59a4,4,0,1,0,5.69-.58A4,4,0,0,0,459.74,171.59Z"/><path class="cls-14" d="M430,205c-.54.61-.65,1.41-.23,1.78h0c.42.37,1.2.18,1.74-.43l4.2-4.71c.55-.61.65-1.4.23-1.78h0c-.41-.37-1.19-.17-1.74.44Z"/><rect class="cls-12" x="355.76" y="168.38" width="20.5" height="16.9"/><rect class="cls-13" x="355.76" y="168.38" width="11.6" height="16.9"/><rect class="cls-13" x="355.76" y="168.38" width="5.8" height="16.9"/><rect class="cls-9" x="353.06" y="178.45" width="25.9" height="13.66"/><rect class="cls-10" x="353.06" y="178.45" width="14.23" height="13.66"/><rect class="cls-10" x="353.06" y="178.45" width="7.12" height="13.66"/><rect class="cls-15" x="347.13" y="158.39" width="37.77" height="11.33" rx="2.43"/><path class="cls-13" d="M352.12,166.62a2.42,2.42,0,0,1-2.43-2.42v-5.81h-.14a2.42,2.42,0,0,0-2.42,2.43v6.48a2.42,2.42,0,0,0,2.42,2.43h32.91a2.43,2.43,0,0,0,2.43-2.43v-.68Z"/><path class="cls-14" d="M375.11,176.3a1,1,0,0,1-1,1h0a1,1,0,0,1-1-1V172a1,1,0,0,1,1-1h0a1,1,0,0,1,1,1Z"/><path class="cls-11" d="M376.12,186.69a1,1,0,0,1-1,1h0a1,1,0,0,1-1-1v-4.32a1,1,0,0,1,1-1h0a1,1,0,0,1,1,1Z"/><path class="cls-14" d="M383.27,160.89a1.28,1.28,0,0,1-1.28,1.28h-29.4a1.28,1.28,0,0,1-1.28-1.28h0a1.28,1.28,0,0,1,1.28-1.28H382a1.28,1.28,0,0,1,1.28,1.28Z"/><path class="cls-9" d="M473.4,295A107.32,107.32,0,1,1,366.08,187.7,107.32,107.32,0,0,1,473.4,295Z"/><path class="cls-10" d="M383.27,381.82A107.34,107.34,0,0,1,293,216.42,107.32,107.32,0,1,0,456.33,353.1,106.91,106.91,0,0,1,383.27,381.82Z"/><path class="cls-16" d="M367.9,379a90.56,90.56,0,0,1-83.51-125.5,90.53,90.53,0,1,0,161.68,80.64A90.51,90.51,0,0,1,367.9,379Z"/><path class="cls-17" d="M457.13,291.51A90.52,90.52,0,1,1,366.61,201,90.52,90.52,0,0,1,457.13,291.51Z"/><path class="cls-9" d="M371.92,291.51a5.31,5.31,0,1,1-5.31-5.31A5.32,5.32,0,0,1,371.92,291.51Z"/><path class="cls-18" d="M372,371.35a90.56,90.56,0,0,1-83.51-125.49,90.53,90.53,0,1,0,161.67,80.63A90.48,90.48,0,0,1,372,371.35Z"/><path class="cls-19" d="M369.91,208.5a3.4,3.4,0,1,1-3.4-3.4A3.4,3.4,0,0,1,369.91,208.5Z"/><path class="cls-19" d="M369.91,374.42a3.4,3.4,0,1,1-3.4-3.41A3.4,3.4,0,0,1,369.91,374.42Z"/><path class="cls-19" d="M449.47,294.86a3.41,3.41,0,1,1,3.4-3.4A3.4,3.4,0,0,1,449.47,294.86Z"/><path class="cls-19" d="M283.56,294.86a3.41,3.41,0,1,1,3.4-3.4A3.41,3.41,0,0,1,283.56,294.86Z"/><path class="cls-19" d="M427.58,235.21a3.41,3.41,0,1,1,0-4.82A3.43,3.43,0,0,1,427.58,235.21Z"/><path class="cls-19" d="M310.26,352.52a3.4,3.4,0,1,1,0-4.81A3.4,3.4,0,0,1,310.26,352.52Z"/><path class="cls-19" d="M422.76,352.52a3.4,3.4,0,1,1,4.82,0A3.42,3.42,0,0,1,422.76,352.52Z"/><path class="cls-19" d="M305.45,235.21a3.4,3.4,0,1,1,4.81,0A3.41,3.41,0,0,1,305.45,235.21Z"/><line class="cls-20" x1="366.61" y1="291.51" x2="366.61" y2="225.5"/><line class="cls-20" x1="366.61" y1="291.51" x2="398.13" y2="269.81"/><path class="cls-21" d="M182.53,194.6a66.38,66.38,0,1,1-66.38-66.37A66.37,66.37,0,0,1,182.53,194.6Z"/><circle class="cls-22" cx="116.15" cy="194.6" r="56.5"/><path class="cls-23" d="M121.09,247a56.48,56.48,0,0,1-38.51-97.82,56.49,56.49,0,1,0,72.08,86.77A56.29,56.29,0,0,1,121.09,247Z"/><path class="cls-24" d="M121.62,151.8v5a29.12,29.12,0,0,1,8.58,2.06,17,17,0,0,1,6.24,4.67,20.18,20.18,0,0,1,3.25,4.91,11.33,11.33,0,0,1,1.14,4.63,5.54,5.54,0,0,1-1.7,4,5.64,5.64,0,0,1-4.14,1.71c-3.05,0-5-1.66-5.94-5a10.58,10.58,0,0,0-7.43-7.76V185.6q5.8,1.59,9.23,2.89a19.34,19.34,0,0,1,6.15,3.79,17.39,17.39,0,0,1,4.46,6.15,19.18,19.18,0,0,1,1.57,7.83,20.8,20.8,0,0,1-2.5,10,19.71,19.71,0,0,1-7.36,7.6,26.33,26.33,0,0,1-11.55,3.51V239a11,11,0,0,1-.54,4,2.26,2.26,0,0,1-2.36,1.27,2.63,2.63,0,0,1-2.36-1,5.92,5.92,0,0,1-.68-3.18V227.43a29.56,29.56,0,0,1-9.55-2.57A22.7,22.7,0,0,1,99.3,220a20.28,20.28,0,0,1-4-6.07A16.18,16.18,0,0,1,94,207.7a5.65,5.65,0,0,1,1.75-4,5.86,5.86,0,0,1,4.37-1.8,6.24,6.24,0,0,1,3.56,1,5.16,5.16,0,0,1,2,2.76,60.11,60.11,0,0,0,2.19,5.87,11.44,11.44,0,0,0,2.83,3.71,12.65,12.65,0,0,0,5,2.57V196a56.72,56.72,0,0,1-10.46-3.86,17.55,17.55,0,0,1-6.83-6,20,20,0,0,1,2.5-23.28q5.11-5.13,14.79-6V151.9c0-2.62,1-3.93,2.95-3.93S121.62,149.25,121.62,151.8Zm-5.94,32.07V166a16.23,16.23,0,0,0-6.12,3.08q-2.19,1.92-2.19,5.8a7.21,7.21,0,0,0,2,5.58A19,19,0,0,0,115.68,183.87Zm5.94,13.88v20.47a12.78,12.78,0,0,0,7.29-3.78,9.59,9.59,0,0,0,2.57-6.64,8,8,0,0,0-2.5-6.29A20.31,20.31,0,0,0,121.62,197.75Z"/><path class="cls-25" d="M155.39,159.59c13.84,15.06,15.43,36.13,13.25,38.13s-7.29-15.83-21.13-30.89-31.17-21.65-29-23.65S141.55,144.53,155.39,159.59Z"/><line class="cls-26" x1="70.1" y1="240.8" x2="75.34" y2="235.57"/><line class="cls-26" x1="156.97" y1="153.93" x2="162.21" y2="148.69"/><line class="cls-26" x1="70.1" y1="148.69" x2="75.34" y2="153.93"/><line class="cls-26" x1="156.97" y1="235.57" x2="162.21" y2="240.8"/><line class="cls-26" x1="116.15" y1="259.88" x2="116.15" y2="252.47"/><line class="cls-26" x1="116.15" y1="137.02" x2="116.15" y2="129.62"/><line class="cls-26" x1="51.02" y1="194.75" x2="58.43" y2="194.75"/><line class="cls-26" x1="173.88" y1="194.75" x2="181.29" y2="194.75"/><line class="cls-26" x1="55.66" y1="218.88" x2="62.54" y2="216.14"/><line class="cls-26" x1="169.77" y1="173.36" x2="176.65" y2="170.61"/><line class="cls-26" x1="92.02" y1="134.25" x2="94.76" y2="141.13"/><line class="cls-26" x1="137.54" y1="248.37" x2="140.29" y2="255.24"/><line class="cls-26" x1="90.44" y1="254.59" x2="93.37" y2="247.78"/><line class="cls-26" x1="138.94" y1="141.71" x2="141.86" y2="134.91"/><line class="cls-26" x1="56.31" y1="169.04" x2="63.12" y2="171.96"/><line class="cls-26" x1="169.19" y1="217.53" x2="176" y2="220.46"/><line class="cls-26" x1="62.48" y1="231.64" x2="68.58" y2="227.44"/><line class="cls-26" x1="163.73" y1="162.05" x2="169.83" y2="157.86"/><line class="cls-26" x1="79.27" y1="141.07" x2="83.46" y2="147.17"/><line class="cls-26" x1="148.85" y1="242.32" x2="153.04" y2="248.43"/><line class="cls-26" x1="104.28" y1="258.79" x2="105.63" y2="251.51"/><line class="cls-26" x1="126.68" y1="137.99" x2="128.03" y2="130.71"/><line class="cls-26" x1="52.11" y1="182.88" x2="59.39" y2="184.22"/><line class="cls-26" x1="172.92" y1="205.27" x2="180.2" y2="206.62"/><line class="cls-26" x1="52.27" y1="207.45" x2="59.54" y2="206"/><line class="cls-26" x1="172.77" y1="183.49" x2="180.03" y2="182.04"/><line class="cls-26" x1="103.45" y1="130.86" x2="104.9" y2="138.13"/><line class="cls-26" x1="127.41" y1="251.37" x2="128.86" y2="258.63"/><line class="cls-26" x1="79.97" y1="248.9" x2="84.08" y2="242.74"/><line class="cls-26" x1="148.23" y1="146.75" x2="152.34" y2="140.59"/><line class="cls-26" x1="62" y1="158.56" x2="68.16" y2="162.67"/><line class="cls-26" x1="164.15" y1="226.82" x2="170.31" y2="230.94"/><path class="cls-21" d="M199.53,415.4c0,3.83-3.5,7-7.82,7H93.05c-4.32,0-7.82-3.12-7.82-7V403c0-3.84,3.5-7,7.82-7h98.66c4.32,0,7.82,3.11,7.82,7Z"/><line class="cls-26" x1="93.25" y1="420.2" x2="93.25" y2="399.87"/><line class="cls-26" x1="102.71" y1="420.2" x2="102.71" y2="399.87"/><line class="cls-26" x1="112.18" y1="420.2" x2="112.18" y2="399.87"/><line class="cls-26" x1="121.64" y1="420.2" x2="121.64" y2="399.87"/><line class="cls-26" x1="131.1" y1="420.2" x2="131.1" y2="399.87"/><line class="cls-26" x1="140.56" y1="420.2" x2="140.56" y2="399.87"/><line class="cls-26" x1="150.02" y1="420.2" x2="150.02" y2="399.87"/><line class="cls-26" x1="159.49" y1="420.2" x2="159.49" y2="399.87"/><line class="cls-26" x1="168.95" y1="420.2" x2="168.95" y2="399.87"/><line class="cls-26" x1="178.41" y1="420.2" x2="178.41" y2="399.87"/><line class="cls-26" x1="187.87" y1="420.2" x2="187.87" y2="399.87"/><line class="cls-26" x1="194.05" y1="420.2" x2="194.05" y2="399.87"/><path class="cls-25" d="M192.4,402a2.13,2.13,0,0,1-2.13,2.13h-98A2.13,2.13,0,0,1,90.17,402h0a2.13,2.13,0,0,1,2.12-2.13h98A2.13,2.13,0,0,1,192.4,402Z"/><path class="cls-27" d="M196.65,413.59H98c-4.32,0-7.82-3.11-7.82-6.95V396.59A7,7,0,0,0,85.23,403V415.4c0,3.83,3.5,7,7.82,7h98.66c4.32,0,7.82-3.12,7.82-7v-2.31A8.75,8.75,0,0,1,196.65,413.59Z"/><path class="cls-21" d="M190.26,389.13c0,3.85-3.51,7-7.82,7H83.78c-4.32,0-7.82-3.11-7.82-7V376.78c0-3.84,3.5-6.95,7.82-6.95h98.66c4.31,0,7.82,3.11,7.82,6.95Z"/><line class="cls-26" x1="83.98" y1="393.94" x2="83.98" y2="373.62"/><line class="cls-26" x1="93.44" y1="393.94" x2="93.44" y2="373.62"/><line class="cls-26" x1="102.9" y1="393.94" x2="102.9" y2="373.62"/><line class="cls-26" x1="112.37" y1="393.94" x2="112.37" y2="373.62"/><line class="cls-26" x1="121.83" y1="393.94" x2="121.83" y2="373.62"/><line class="cls-26" x1="131.29" y1="393.94" x2="131.29" y2="373.62"/><line class="cls-26" x1="140.75" y1="393.94" x2="140.75" y2="373.62"/><line class="cls-26" x1="150.21" y1="393.94" x2="150.21" y2="373.62"/><line class="cls-26" x1="159.68" y1="393.94" x2="159.68" y2="373.62"/><line class="cls-26" x1="169.14" y1="393.94" x2="169.14" y2="373.62"/><line class="cls-26" x1="178.6" y1="393.94" x2="178.6" y2="373.62"/><line class="cls-26" x1="184.77" y1="393.94" x2="184.77" y2="373.62"/><path class="cls-25" d="M183.13,375.74a2.13,2.13,0,0,1-2.13,2.13H83a2.13,2.13,0,0,1-2.13-2.13h0A2.12,2.12,0,0,1,83,373.62h98a2.13,2.13,0,0,1,2.13,2.12Z"/><path class="cls-27" d="M187.37,387.33H88.72c-4.33,0-7.83-3.11-7.83-6.95V370.33A7,7,0,0,0,76,376.78v12.35c0,3.85,3.5,7,7.82,7h98.66c4.31,0,7.82-3.11,7.82-7v-2.3A8.86,8.86,0,0,1,187.37,387.33Z"/><path class="cls-21" d="M199.53,362.88c0,3.84-3.5,6.95-7.82,6.95H93.05c-4.32,0-7.82-3.11-7.82-6.95V350.52c0-3.84,3.5-6.95,7.82-6.95h98.66c4.32,0,7.82,3.11,7.82,6.95Z"/><line class="cls-26" x1="93.25" y1="367.68" x2="93.25" y2="347.36"/><line class="cls-26" x1="102.71" y1="367.68" x2="102.71" y2="347.36"/><line class="cls-26" x1="112.18" y1="367.68" x2="112.18" y2="347.36"/><line class="cls-26" x1="121.64" y1="367.68" x2="121.64" y2="347.36"/><line class="cls-26" x1="131.1" y1="367.68" x2="131.1" y2="347.36"/><line class="cls-26" x1="140.56" y1="367.68" x2="140.56" y2="347.36"/><line class="cls-26" x1="150.02" y1="367.68" x2="150.02" y2="347.36"/><line class="cls-26" x1="159.49" y1="367.68" x2="159.49" y2="347.36"/><line class="cls-26" x1="168.95" y1="367.68" x2="168.95" y2="347.36"/><line class="cls-26" x1="178.41" y1="367.68" x2="178.41" y2="347.36"/><line class="cls-26" x1="187.87" y1="367.68" x2="187.87" y2="347.36"/><line class="cls-26" x1="194.05" y1="367.68" x2="194.05" y2="347.36"/><path class="cls-25" d="M192.4,349.48a2.13,2.13,0,0,1-2.13,2.13h-98a2.12,2.12,0,0,1-2.12-2.13h0a2.12,2.12,0,0,1,2.12-2.12h98a2.12,2.12,0,0,1,2.13,2.12Z"/><path class="cls-27" d="M196.65,361.07H98c-4.32,0-7.82-3.11-7.82-6.95V344.07a7,7,0,0,0-4.94,6.45v12.36c0,3.84,3.5,6.95,7.82,6.95h98.66c4.32,0,7.82-3.11,7.82-6.95v-2.31A8.5,8.5,0,0,1,196.65,361.07Z"/><path class="cls-21" d="M194.05,336.62c0,3.84-3.51,6.95-7.83,6.95H87.57c-4.32,0-7.83-3.11-7.83-6.95V324.26c0-3.84,3.51-6.95,7.83-6.95h98.65c4.32,0,7.83,3.11,7.83,6.95Z"/><line class="cls-26" x1="87.77" y1="341.42" x2="87.77" y2="321.1"/><line class="cls-26" x1="97.23" y1="341.42" x2="97.23" y2="321.1"/><line class="cls-26" x1="106.69" y1="341.42" x2="106.69" y2="321.1"/><line class="cls-26" x1="116.15" y1="341.42" x2="116.15" y2="321.1"/><line class="cls-26" x1="125.61" y1="341.42" x2="125.61" y2="321.1"/><line class="cls-26" x1="135.08" y1="341.42" x2="135.08" y2="321.1"/><line class="cls-26" x1="144.54" y1="341.42" x2="144.54" y2="321.1"/><line class="cls-26" x1="154" y1="341.42" x2="154" y2="321.1"/><line class="cls-26" x1="163.46" y1="341.42" x2="163.46" y2="321.1"/><line class="cls-26" x1="172.93" y1="341.42" x2="172.93" y2="321.1"/><line class="cls-26" x1="182.39" y1="341.42" x2="182.39" y2="321.1"/><line class="cls-26" x1="188.56" y1="341.42" x2="188.56" y2="321.1"/><path class="cls-25" d="M186.92,323.23a2.13,2.13,0,0,1-2.13,2.12h-98a2.12,2.12,0,0,1-2.13-2.12h0a2.13,2.13,0,0,1,2.13-2.13h98a2.13,2.13,0,0,1,2.13,2.13Z"/><path class="cls-27" d="M191.16,334.81H92.5c-4.32,0-7.82-3.11-7.82-6.95V317.81a7,7,0,0,0-4.94,6.45v12.36c0,3.84,3.51,6.95,7.83,6.95h98.65c4.32,0,7.83-3.11,7.83-6.95v-2.31A8.6,8.6,0,0,1,191.16,334.81Z"/><path class="cls-21" d="M196.87,310.86c0,3.84-3.51,6.95-7.83,6.95H90.39c-4.32,0-7.83-3.11-7.83-6.95V298.51c0-3.84,3.51-7,7.83-7H189c4.32,0,7.83,3.12,7.83,7Z"/><line class="cls-26" x1="90.59" y1="315.66" x2="90.59" y2="295.34"/><line class="cls-26" x1="100.05" y1="315.66" x2="100.05" y2="295.34"/><line class="cls-26" x1="109.51" y1="315.66" x2="109.51" y2="295.34"/><line class="cls-26" x1="118.97" y1="315.66" x2="118.97" y2="295.34"/><line class="cls-26" x1="128.43" y1="315.66" x2="128.43" y2="295.34"/><line class="cls-26" x1="137.9" y1="315.66" x2="137.9" y2="295.34"/><line class="cls-26" x1="147.36" y1="315.66" x2="147.36" y2="295.34"/><line class="cls-26" x1="156.82" y1="315.66" x2="156.82" y2="295.34"/><line class="cls-26" x1="166.28" y1="315.66" x2="166.28" y2="295.34"/><line class="cls-26" x1="175.75" y1="315.66" x2="175.75" y2="295.34"/><line class="cls-26" x1="185.21" y1="315.66" x2="185.21" y2="295.34"/><line class="cls-26" x1="191.38" y1="315.66" x2="191.38" y2="295.34"/><path class="cls-25" d="M189.74,297.47a2.14,2.14,0,0,1-2.13,2.13h-98a2.13,2.13,0,0,1-2.13-2.13h0a2.13,2.13,0,0,1,2.13-2.13h98a2.14,2.14,0,0,1,2.13,2.13Z"/><path class="cls-27" d="M194,309.06H95.32c-4.32,0-7.82-3.11-7.82-6.95V292.06a7,7,0,0,0-4.94,6.45v12.35c0,3.84,3.51,6.95,7.83,6.95H189c4.32,0,7.83-3.11,7.83-6.95v-2.3A8.86,8.86,0,0,1,194,309.06Z"/><path class="cls-21" d="M187.59,284.61c0,3.84-3.5,6.94-7.82,6.94H81.11c-4.32,0-7.82-3.1-7.82-6.94V272.25c0-3.84,3.5-6.95,7.82-6.95h98.66c4.32,0,7.82,3.11,7.82,6.95Z"/><line class="cls-26" x1="81.31" y1="289.41" x2="81.31" y2="269.09"/><line class="cls-26" x1="90.78" y1="289.41" x2="90.78" y2="269.09"/><line class="cls-26" x1="100.24" y1="289.41" x2="100.24" y2="269.09"/><line class="cls-26" x1="109.7" y1="289.41" x2="109.7" y2="269.09"/><line class="cls-26" x1="119.16" y1="289.41" x2="119.16" y2="269.09"/><line class="cls-26" x1="128.62" y1="289.41" x2="128.62" y2="269.09"/><line class="cls-26" x1="138.09" y1="289.41" x2="138.09" y2="269.09"/><line class="cls-26" x1="147.55" y1="289.41" x2="147.55" y2="269.09"/><line class="cls-26" x1="157.01" y1="289.41" x2="157.01" y2="269.09"/><line class="cls-26" x1="166.47" y1="289.41" x2="166.47" y2="269.09"/><line class="cls-26" x1="175.94" y1="289.41" x2="175.94" y2="269.09"/><line class="cls-26" x1="182.11" y1="289.41" x2="182.11" y2="269.09"/><path class="cls-25" d="M180.46,271.21a2.12,2.12,0,0,1-2.12,2.13h-98a2.12,2.12,0,0,1-2.12-2.13h0a2.12,2.12,0,0,1,2.12-2.12h98a2.12,2.12,0,0,1,2.12,2.12Z"/><path class="cls-27" d="M184.71,282.8H86.05c-4.32,0-7.82-3.11-7.82-6.95V265.8a7,7,0,0,0-4.94,6.45v12.36c0,3.84,3.5,6.94,7.82,6.94h98.66c4.32,0,7.82-3.1,7.82-6.94V282.3A8.75,8.75,0,0,1,184.71,282.8Z"/><path class="cls-21" d="M123.58,427.94c0,3.84-3.51,6.95-7.83,6.95H17.1c-4.32,0-7.83-3.11-7.83-6.95V415.58c0-3.84,3.51-6.95,7.83-6.95h98.65c4.32,0,7.83,3.11,7.83,6.95Z"/><line class="cls-26" x1="17.3" y1="432.74" x2="17.3" y2="412.42"/><line class="cls-26" x1="26.76" y1="432.74" x2="26.76" y2="412.42"/><line class="cls-26" x1="36.22" y1="432.74" x2="36.22" y2="412.42"/><line class="cls-26" x1="45.68" y1="432.74" x2="45.68" y2="412.42"/><line class="cls-26" x1="55.15" y1="432.74" x2="55.15" y2="412.42"/><line class="cls-26" x1="64.61" y1="432.74" x2="64.61" y2="412.42"/><line class="cls-26" x1="74.07" y1="432.74" x2="74.07" y2="412.42"/><line class="cls-26" x1="83.53" y1="432.74" x2="83.53" y2="412.42"/><line class="cls-26" x1="93" y1="432.74" x2="93" y2="412.42"/><line class="cls-26" x1="102.46" y1="432.74" x2="102.46" y2="412.42"/><line class="cls-26" x1="111.92" y1="432.74" x2="111.92" y2="412.42"/><line class="cls-26" x1="118.09" y1="432.74" x2="118.09" y2="412.42"/><path class="cls-25" d="M116.45,414.55a2.13,2.13,0,0,1-2.13,2.12h-98a2.12,2.12,0,0,1-2.13-2.12h0a2.13,2.13,0,0,1,2.13-2.13h98a2.13,2.13,0,0,1,2.13,2.13Z"/><path class="cls-27" d="M120.69,426.13H22c-4.32,0-7.82-3.11-7.82-6.95V409.13a7,7,0,0,0-4.94,6.45v12.36c0,3.84,3.51,6.95,7.83,6.95h98.65c4.32,0,7.83-3.11,7.83-6.95v-2.31A8.6,8.6,0,0,1,120.69,426.13Z"/><path class="cls-21" d="M114.3,401.68c0,3.84-3.5,6.95-7.82,6.95H7.82c-4.32,0-7.82-3.11-7.82-6.95V389.32c0-3.83,3.5-6.95,7.82-6.95h98.66c4.32,0,7.82,3.12,7.82,6.95Z"/><line class="cls-26" x1="8.02" y1="406.48" x2="8.02" y2="386.16"/><line class="cls-26" x1="17.49" y1="406.48" x2="17.49" y2="386.16"/><line class="cls-26" x1="26.95" y1="406.48" x2="26.95" y2="386.16"/><line class="cls-26" x1="36.41" y1="406.48" x2="36.41" y2="386.16"/><line class="cls-26" x1="45.87" y1="406.48" x2="45.87" y2="386.16"/><line class="cls-26" x1="55.33" y1="406.48" x2="55.33" y2="386.16"/><line class="cls-26" x1="64.8" y1="406.48" x2="64.8" y2="386.16"/><line class="cls-26" x1="74.26" y1="406.48" x2="74.26" y2="386.16"/><line class="cls-26" x1="83.72" y1="406.48" x2="83.72" y2="386.16"/><line class="cls-26" x1="93.18" y1="406.48" x2="93.18" y2="386.16"/><line class="cls-26" x1="102.65" y1="406.48" x2="102.65" y2="386.16"/><line class="cls-26" x1="108.82" y1="406.48" x2="108.82" y2="386.16"/><path class="cls-25" d="M107.17,388.29a2.12,2.12,0,0,1-2.12,2.12h-98a2.12,2.12,0,0,1-2.12-2.12h0a2.12,2.12,0,0,1,2.12-2.13h98a2.12,2.12,0,0,1,2.12,2.13Z"/><path class="cls-27" d="M111.42,399.87H12.76c-4.32,0-7.82-3.11-7.82-6.94V382.88A7,7,0,0,0,0,389.32v12.36c0,3.84,3.5,6.95,7.82,6.95h98.66c4.32,0,7.82-3.11,7.82-6.95v-2.31A8.5,8.5,0,0,1,111.42,399.87Z"/><path class="cls-21" d="M123.58,375.42c0,3.84-3.51,6.95-7.83,6.95H17.1c-4.32,0-7.83-3.11-7.83-6.95V363.06c0-3.83,3.51-6.94,7.83-6.94h98.65c4.32,0,7.83,3.11,7.83,6.94Z"/><line class="cls-26" x1="17.3" y1="380.22" x2="17.3" y2="359.9"/><line class="cls-26" x1="26.76" y1="380.22" x2="26.76" y2="359.9"/><line class="cls-26" x1="36.22" y1="380.22" x2="36.22" y2="359.9"/><line class="cls-26" x1="45.68" y1="380.22" x2="45.68" y2="359.9"/><line class="cls-26" x1="55.15" y1="380.22" x2="55.15" y2="359.9"/><line class="cls-26" x1="64.61" y1="380.22" x2="64.61" y2="359.9"/><line class="cls-26" x1="74.07" y1="380.22" x2="74.07" y2="359.9"/><line class="cls-26" x1="83.53" y1="380.22" x2="83.53" y2="359.9"/><line class="cls-26" x1="93" y1="380.22" x2="93" y2="359.9"/><line class="cls-26" x1="102.46" y1="380.22" x2="102.46" y2="359.9"/><line class="cls-26" x1="111.92" y1="380.22" x2="111.92" y2="359.9"/><line class="cls-26" x1="118.09" y1="380.22" x2="118.09" y2="359.9"/><path class="cls-25" d="M116.45,362a2.13,2.13,0,0,1-2.13,2.12h-98A2.12,2.12,0,0,1,14.21,362h0a2.13,2.13,0,0,1,2.13-2.13h98a2.13,2.13,0,0,1,2.13,2.13Z"/><path class="cls-27" d="M120.69,373.62H22c-4.32,0-7.82-3.11-7.82-6.95V356.62a7,7,0,0,0-4.94,6.44v12.36c0,3.84,3.51,6.95,7.83,6.95h98.65c4.32,0,7.83-3.11,7.83-6.95v-2.31A8.61,8.61,0,0,1,120.69,373.62Z"/><path class="cls-21" d="M118.09,349.17c0,3.83-3.5,6.95-7.82,6.95H11.61c-4.32,0-7.82-3.12-7.82-6.95V336.81c0-3.84,3.5-6.95,7.82-6.95h98.66c4.32,0,7.82,3.11,7.82,6.95Z"/><line class="cls-26" x1="11.81" y1="353.96" x2="11.81" y2="333.64"/><line class="cls-26" x1="21.27" y1="353.96" x2="21.27" y2="333.64"/><line class="cls-26" x1="30.74" y1="353.96" x2="30.74" y2="333.64"/><line class="cls-26" x1="40.2" y1="353.96" x2="40.2" y2="333.64"/><line class="cls-26" x1="49.66" y1="353.96" x2="49.66" y2="333.64"/><line class="cls-26" x1="59.12" y1="353.96" x2="59.12" y2="333.64"/><line class="cls-26" x1="68.59" y1="353.96" x2="68.59" y2="333.64"/><line class="cls-26" x1="78.05" y1="353.96" x2="78.05" y2="333.64"/><line class="cls-26" x1="87.51" y1="353.96" x2="87.51" y2="333.64"/><line class="cls-26" x1="96.97" y1="353.96" x2="96.97" y2="333.64"/><line class="cls-26" x1="106.43" y1="353.96" x2="106.43" y2="333.64"/><line class="cls-26" x1="112.6" y1="353.96" x2="112.6" y2="333.64"/><path class="cls-25" d="M111,335.77a2.13,2.13,0,0,1-2.12,2.13h-98a2.13,2.13,0,0,1-2.12-2.13h0a2.13,2.13,0,0,1,2.12-2.13h98a2.13,2.13,0,0,1,2.12,2.13Z"/><path class="cls-27" d="M115.21,347.36H16.55c-4.32,0-7.82-3.12-7.82-6.95V330.36a7,7,0,0,0-4.94,6.45v12.36c0,3.83,3.5,6.95,7.82,6.95h98.66c4.32,0,7.82-3.12,7.82-6.95v-2.31A8.75,8.75,0,0,1,115.21,347.36Z"/><path class="cls-28" d="M315.52,206.22a5.49,5.49,0,0,1-5.49,5.49h0a5.49,5.49,0,0,1-5.49-5.49V184.81a5.49,5.49,0,0,1,5.49-5.49h0a5.49,5.49,0,0,1,5.49,5.49Z"/><path class="cls-28" d="M315.52,244.25a5.49,5.49,0,0,1-5.49,5.5h0a5.49,5.49,0,0,1-5.49-5.5v-21.4a5.49,5.49,0,0,1,5.49-5.49h0a5.49,5.49,0,0,1,5.49,5.49Z"/><path class="cls-28" d="M315.52,411.29a5.49,5.49,0,0,1-5.49,5.49h0a5.49,5.49,0,0,1-5.49-5.49V389.88A5.48,5.48,0,0,1,310,384.4h0a5.48,5.48,0,0,1,5.49,5.48Z"/><rect class="cls-28" x="154.83" y="134.62" width="157.63" height="308.2" rx="9.41"/><path class="cls-29" d="M166.36,144H300.93a9.12,9.12,0,0,1,9.12,9.12V433.7a9.13,9.13,0,0,1-9.13,9.13H166.36a9.12,9.12,0,0,1-9.12-9.12V153.16A9.12,9.12,0,0,1,166.36,144Z"/><path class="cls-30" d="M290,138.74c0,1.19-3.6,2.16-8,2.16s-8-1-8-2.16,3.6-2.16,8-2.16S290,137.55,290,138.74Z"/><rect class="cls-31" x="162.08" y="167.56" width="143.12" height="249.22"/><path class="cls-28" d="M239.93,157.56a3.35,3.35,0,0,1-3.35,3.35H220.23a3.35,3.35,0,0,1-3.35-3.35h0a3.35,3.35,0,0,1,3.35-3.35h16.35a3.35,3.35,0,0,1,3.35,3.35Z"/><path class="cls-28" d="M250.41,157.56a3.36,3.36,0,1,1-3.36-3.35A3.36,3.36,0,0,1,250.41,157.56Z"/><path class="cls-28" d="M243.78,420.53c2.87,0,5.2,4.17,5.2,9.31h0c0,5.14-2.33,9.31-5.2,9.31H223.51c-2.87,0-5.2-4.17-5.2-9.31h0c0-5.14,2.33-9.31,5.2-9.31Z"/><rect class="cls-4" x="167.35" y="172.85" width="132.58" height="238.65"/><rect class="cls-32" x="167.35" y="172.85" width="132.58" height="20.89"/><path class="cls-4" d="M247.05,183.29c0,3.47-1.19,6.29-2.65,6.29H176c-1.46,0-2.65-2.82-2.65-6.29h0c0-3.47,1.19-6.29,2.65-6.29H244.4c1.46,0,2.65,2.82,2.65,6.29Z"/><path class="cls-4" d="M263.14,183.29a5.89,5.89,0,1,1-5.89-5.89A5.89,5.89,0,0,1,263.14,183.29Z"/><path class="cls-4" d="M279.85,183.29A5.9,5.9,0,1,1,274,177.4,5.89,5.89,0,0,1,279.85,183.29Z"/><path class="cls-4" d="M296.56,183.29a5.9,5.9,0,1,1-5.89-5.89A5.89,5.89,0,0,1,296.56,183.29Z"/><rect class="cls-12" x="228.48" y="200.63" width="62.18" height="11.02"/><rect class="cls-12" x="228.48" y="218.22" width="62.18" height="11.02"/><rect class="cls-12" x="228.48" y="235.81" width="37.54" height="11.02"/><path class="cls-33" d="M191.85,232.86v13.59a3.78,3.78,0,0,1-1.22,2.8,3.86,3.86,0,0,1-2.79,1.2h-7.39a.88.88,0,0,1-1-1V229.85a.88.88,0,0,1,1-1h7.38a3.89,3.89,0,0,1,2.8,1.21A3.8,3.8,0,0,1,191.85,232.86Zm-4,13.6V232.85h-4.41v13.61Z"/><path class="cls-33" d="M203.09,249.65l-.79-4h-4.18l-.8,4a.9.9,0,0,1-1,.8h-2a.93.93,0,0,1-.77-.36.92.92,0,0,1-.21-.82l3.93-19.61a.9.9,0,0,1,1-.8h4a.89.89,0,0,1,1,.8l3.92,19.61a1,1,0,0,1-.21.82.94.94,0,0,1-.75.36h-2.06A.9.9,0,0,1,203.09,249.65Zm-1.59-8-1.29-6.45-1.29,6.45Z"/><path class="cls-33" d="M213.59,242.49v7a.88.88,0,0,1-1,1h-2.06a.88.88,0,0,1-1-1v-7l-4.33-12.28a.89.89,0,0,1,.13-.9,1,1,0,0,1,.8-.42h2a.92.92,0,0,1,.94.68l2.48,7.36,2.45-7.36a.9.9,0,0,1,.93-.68h2.13a1,1,0,0,1,.92,1.32Z"/><path class="cls-33" d="M188.3,205.13h-3.14v17.58a.92.92,0,0,1-1,1H182a.92.92,0,0,1-1-1V205.13h-3.14a.93.93,0,0,1-1-1V202a.93.93,0,0,1,1-1H188.3a.93.93,0,0,1,1,1v2.14A.93.93,0,0,1,188.3,205.13Z"/><path class="cls-33" d="M197.83,222.91l-.84-4.25h-4.42l-.85,4.25a1,1,0,0,1-1,.84h-2.17a1,1,0,0,1-1-1.25l4.16-20.75a.94.94,0,0,1,1-.84h4.22a1,1,0,0,1,1,.84l4.14,20.75a1,1,0,0,1-.22.88,1,1,0,0,1-.8.37h-2.18A.94.94,0,0,1,197.83,222.91Zm-1.69-8.46-1.36-6.84-1.37,6.84Z"/><path class="cls-33" d="M216.84,223.75h-2.33a1,1,0,0,1-1-.63l-2.44-5.72-2.45,5.72a1,1,0,0,1-1,.63h-2.32a.92.92,0,0,1-.86-.46.94.94,0,0,1-.1-1l4.39-10.3-4.12-9.64a1,1,0,0,1,.08-1,1,1,0,0,1,.87-.46H208a1,1,0,0,1,1,.64l2.18,5.09,2.18-5.09a.94.94,0,0,1,1-.64h2.33a1,1,0,0,1,.87.46,1.06,1.06,0,0,1,.08,1L213.41,212l4.39,10.3a1.15,1.15,0,0,1-.09,1A1,1,0,0,1,216.84,223.75Z"/><rect class="cls-33" x="176.61" y="263.58" width="114.06" height="23.15"/><path class="cls-33" d="M289.82,264.42v83.86H177.45V264.42H289.82m.85-.84H176.61v85.54H290.67V263.58Z"/><line class="cls-34" x1="176.61" y1="296.71" x2="290.67" y2="296.71"/><line class="cls-34" x1="176.61" y1="307.04" x2="290.67" y2="307.04"/><line class="cls-34" x1="176.61" y1="317.36" x2="290.67" y2="317.36"/><line class="cls-34" x1="176.61" y1="327.69" x2="290.67" y2="327.69"/><line class="cls-34" x1="176.61" y1="338.02" x2="290.67" y2="338.02"/><line class="cls-34" x1="195.33" y1="349.12" x2="195.33" y2="263.58"/><line class="cls-34" x1="232.06" y1="349.12" x2="232.06" y2="263.58"/><line class="cls-34" x1="261.99" y1="349.12" x2="261.99" y2="263.58"/><path class="cls-35" d="M266.92,311.6a7.29,7.29,0,0,1-3.88,9.54L223.36,337.4a7.28,7.28,0,0,1-9.46-4.07l-9.3-22.71a7.28,7.28,0,0,1,3.88-9.54l39.68-16.26a7.29,7.29,0,0,1,9.46,4.08Z"/><path class="cls-36" d="M221.09,333.85,209.26,305l6-2.46a5.11,5.11,0,0,1,2.44-.46,3.53,3.53,0,0,1,2.05,1,10.22,10.22,0,0,1,2,2.65,56.06,56.06,0,0,1,3.8,9.28,11.14,11.14,0,0,1,.52,3.35,3.84,3.84,0,0,1-.73,2.29,4.94,4.94,0,0,1-2.07,1.47l-2.6,1.06,3.83,9.35Zm.22-14.93a1.27,1.27,0,0,0,.66-.63,2.65,2.65,0,0,0,.12-1.27,10.73,10.73,0,0,0-.49-2.17c-.27-.88-.68-2-1.22-3.31s-1-2.34-1.41-3.12a9,9,0,0,0-1.11-1.73,1.82,1.82,0,0,0-.94-.64,1.47,1.47,0,0,0-.89.1l-2,.83,5.24,12.78Z"/><path class="cls-36" d="M239.34,326.37l-3.87-7.59L232.38,320l2.57,8.13-3.4,1.4-9-30.07,5.72-2.35L242.81,325ZM228.6,305.05l-.86-1.65-.85-1.66-.27.11.55,1.78c.18.59.36,1.18.55,1.78l3.45,11.25,2.79-1.14Z"/><path class="cls-36" d="M244.72,324.17l-11.84-28.9,3.48-1.42,11.84,28.89Z"/><path class="cls-36" d="M250.75,321.7l-11.84-28.9,5.61-2.3a7.36,7.36,0,0,1,3.15-.7A3.75,3.75,0,0,1,250,291a14,14,0,0,1,1,1.2,15.16,15.16,0,0,1,1.14,1.92c.43.84.94,1.93,1.53,3.3s1.33,3.14,2.22,5.32,1.66,4.11,2.2,5.53.94,2.56,1.21,3.44a16.46,16.46,0,0,1,.54,2.12,9.07,9.07,0,0,1,.11,1.52,3.51,3.51,0,0,1-.8,2.4,7.76,7.76,0,0,1-2.79,1.7Zm4.08-5.82a2.28,2.28,0,0,0,1-.71,1.73,1.73,0,0,0,.18-1.12,9.92,9.92,0,0,0-.18-1,12.68,12.68,0,0,0-.5-1.62c-.26-.7-.62-1.63-1.08-2.77s-1.06-2.67-1.84-4.55-1.36-3.32-1.84-4.44-.87-2-1.18-2.73-.57-1.21-.77-1.56a5.24,5.24,0,0,0-.63-.88,2.08,2.08,0,0,0-1-.67,2,2,0,0,0-1.2.18l-2.17.89,9,21.91Z"/><rect class="cls-12" x="177.95" y="358.1" width="112.72" height="9.52"/><rect class="cls-12" x="177.95" y="373.32" width="112.72" height="9.53"/><rect class="cls-12" x="177.95" y="388.53" width="60.06" height="9.53"/></g></g></g></svg>