<svg xmlns="http://www.w3.org/2000/svg" viewBox="0 0 217.58 78.73"><defs><style>.cls-1{fill:#fff;}</style></defs><g id="Layer_2" data-name="Layer 2"><g id="Layer_1-2" data-name="Layer 1"><path class="cls-1" d="M70.13,32.39v1a1,1,0,0,0,0-.17c0-.1,0-.2,0-.3s0-.31,0-.48"/><path class="cls-1" d="M37.45,51.48a2.63,2.63,0,0,1-1.91-.85,2.7,2.7,0,0,1,.1-3.84A2.65,2.65,0,0,1,37.58,46h0a7.67,7.67,0,0,0,5.66-2.19,7.47,7.47,0,0,0,2.42-5,3.85,3.85,0,0,1,0-.48l.25-10.31a3.14,3.14,0,0,1,.86-2.28,2.7,2.7,0,0,1,3.84.1,3.19,3.19,0,0,1,.75,2.37l-.25,10.3A12.87,12.87,0,0,1,47,47.76a13.68,13.68,0,0,1-9.54,3.72"/><path class="cls-1" d="M132.16,23.41A13.25,13.25,0,1,0,126,34.57a10.34,10.34,0,0,1-9.45,6.17H85.48a10.33,10.33,0,0,1-9.92-7.49c-.07-.22-.12-.44-.17-.66a8.17,8.17,0,0,1-.14-.84V4.93A2.71,2.71,0,0,0,74.5,3a2.44,2.44,0,0,0-3.61,0,2.72,2.72,0,0,0-.76,1.92V32.39c0,.17,0,.32,0,.48s0,.2,0,.3a1,1,0,0,1,0,.17,7.47,7.47,0,0,1-2.2,4.6,7.63,7.63,0,0,1-5.59,2.39h0a2.73,2.73,0,0,0-2.7,2.75A2.61,2.61,0,0,0,60.45,45a2.58,2.58,0,0,0,1.93.78,13.68,13.68,0,0,0,9.41-4.05A13.46,13.46,0,0,0,73.23,40c.1.13.2.27.31.4A15.55,15.55,0,0,0,85.48,46h31.09a15.61,15.61,0,0,0,15.59-15.58V24.67a3,3,0,0,0,0-.42c0-.27,0-.56,0-.84m-13.23,8a8,8,0,1,1,8-8,8,8,0,0,1-8,8"/><path class="cls-1" d="M41.2,14a2.68,2.68,0,0,1-3,2.37.11.11,0,0,1-.08,0v0a13.06,13.06,0,0,0-8.22,2.9,13.28,13.28,0,0,0-4.11,5.21H35.6a2.77,2.77,0,0,1,2.73,2.73,18.07,18.07,0,0,1-5.64,13.13A18.46,18.46,0,0,1,19.15,46,18.45,18.45,0,0,1,5.61,40.39,18.41,18.41,0,0,1,0,26.85,18.46,18.46,0,0,1,5.61,13.31,18.39,18.39,0,0,1,18.75,7.72h.4a2.75,2.75,0,0,1,.31,5.46l-.42,0a2.69,2.69,0,0,1-.4,0,13.14,13.14,0,0,0-9.18,4,13.22,13.22,0,0,0-4,9.68,13.16,13.16,0,0,0,4,9.68,13.15,13.15,0,0,0,9.69,4,13.45,13.45,0,0,0,2.94-.31,12.67,12.67,0,0,0,5-2.25,14.6,14.6,0,0,0,1.71-1.48c2.47-2.47,3.72-4.52,3.72-6.16a2.22,2.22,0,0,0,0-.37H21.35a2.31,2.31,0,0,1-2-2.3v-.07c0-.17.05-.34.08-.51A17.62,17.62,0,0,1,20,24.53a18.19,18.19,0,0,1,6.34-9.35l.19-.16a19.67,19.67,0,0,1,4.89-2.82,17.85,17.85,0,0,1,7.36-1.26v0h.07a2.68,2.68,0,0,1,2.37,3"/><path class="cls-1" d="M64.29,35.71A2.61,2.61,0,0,1,62,33.14C61.7,14.18,44.85,5.37,44.13,5A2.62,2.62,0,0,1,46.5.32c.83.42,20.4,10.55,20.72,32.75a2.62,2.62,0,0,1-2.59,2.66,1.94,1.94,0,0,1-.34,0"/><path class="cls-1" d="M18.65,51.27a3,3,0,1,0,3-3,3,3,0,0,0-3,3"/><path class="cls-1" d="M10.84,51.27a3,3,0,1,0,3-3,3,3,0,0,0-3,3"/><path class="cls-1" d="M119.8,5.9a3,3,0,1,0,3-3,3,3,0,0,0-3,3"/><path class="cls-1" d="M112,5.9a3,3,0,1,0,3-3,3,3,0,0,0-3,3"/><path class="cls-1" d="M178.22,78.73a39.37,39.37,0,1,1,39.36-39.37,39.4,39.4,0,0,1-39.36,39.37m0-75a35.62,35.62,0,1,0,35.62,35.62A35.68,35.68,0,0,0,178.22,3.74"/><path class="cls-1" d="M204.69,28.18c-.26-.62-.53-1.22-.83-1.81A29,29,0,0,0,199.45,20L193,24.55,180.8,33.18c-.15-.2-.27-.35-.38-.51a7.21,7.21,0,0,0-10-1.54,7.06,7.06,0,0,0-2.93,5.36c0,.45-.21.57-.61.68a5.37,5.37,0,0,0,1.48,10.58h19.83a5.37,5.37,0,0,0,1.48-10.58,1.05,1.05,0,0,1-.58-.32l8.39-5.93a21,21,0,0,1-19.21,29.43A21,21,0,1,1,188,20.82l.36.2a3.69,3.69,0,0,0,1.66.37,3.9,3.9,0,0,0,2-7.24l-.23-.12c-.76-.41-1.55-.79-2.35-1.13A28.74,28.74,0,1,0,198.25,60l.29-.3a28.77,28.77,0,0,0,6.15-31.52M187.22,38.49v0a.26.26,0,0,0,.24.19c.4,0,.81.06,1.23.11a3.58,3.58,0,0,1-.25,7.12c-.87.05-1.74.06-2.61.06H169a4.52,4.52,0,0,1-2.9-.76,3.57,3.57,0,0,1-.71-5,3.64,3.64,0,0,1,2.8-1.43,1.19,1.19,0,0,0,1.14-1.19c0-3.34,1.29-5.15,4-5.86,2.32-.61,4.18.19,5.78,2.63a9.76,9.76,0,0,1,.58,1,.75.75,0,0,0,1,.31.9.9,0,0,0,.19-.15A3.63,3.63,0,0,1,187.22,38v.46Z"/><path class="cls-1" d="M71.21,61.72l0,8.65h-4a5,5,0,0,1-.84-.11,4.07,4.07,0,0,1-.86-.32,2.5,2.5,0,0,1-.58-.46,3.37,3.37,0,0,1-.38-.51A4,4,0,0,1,61,70.53a5.17,5.17,0,0,1-1-.07,4,4,0,0,1-.91-.26,3.63,3.63,0,0,1-.82-.49,3.22,3.22,0,0,1-.66-.79A4.79,4.79,0,0,1,56.11,70a4.58,4.58,0,0,1-1.83.38H32.74a1.32,1.32,0,0,1-1.32-1.32V56.5a1.18,1.18,0,0,1,1.18-1.18h0a1.18,1.18,0,0,1,1.18,1.18V68H42.6a10,10,0,0,0,.21-1.22,10.33,10.33,0,0,0,.07-1.19,3.29,3.29,0,0,0-.19-1.09,2.21,2.21,0,0,0-.63-1,2.91,2.91,0,0,0-2-.65,4.3,4.3,0,0,0-1.23.17l-.33.11a1,1,0,0,1-1.35-.51h0a1.2,1.2,0,0,1,.63-1.63l.59-.21a6.63,6.63,0,0,1,2-.28,5,5,0,0,1,1.89.34,3.84,3.84,0,0,1,1.46,1,5.21,5.21,0,0,1,1.09,1.65,5.62,5.62,0,0,1,.42,2.28,10.38,10.38,0,0,1,0,1.12c0,.37-.1.74-.17,1.1h5.2V63a1.25,1.25,0,0,1,1.25-1.25h0a1.11,1.11,0,0,1,1.11,1.11V68h1.72a3.51,3.51,0,0,0,.77-.09,2,2,0,0,0,.73-.34,1.69,1.69,0,0,0,.52-.65,2.23,2.23,0,0,0,.2-1V62.84a1.12,1.12,0,0,1,1.12-1.12h.13a1.12,1.12,0,0,1,1.12,1.12v3a2.41,2.41,0,0,0,.58,1.79,2.08,2.08,0,0,0,1.54.59,1.94,1.94,0,0,0,1.52-.58A2.22,2.22,0,0,0,63,66.06V60.9a1.21,1.21,0,0,1,1.21-1.2h.08a1,1,0,0,1,1,1v5a6,6,0,0,1,0,.76,6.77,6.77,0,0,1-.08.7,3.06,3.06,0,0,0,2.36.8h1.3V56.45A1.12,1.12,0,0,1,70,55.32h0a1.19,1.19,0,0,1,1.19,1.19v5.21Z"/><path class="cls-1" d="M25.85,62v5.64a.33.33,0,0,1-.33.33H21.33a.33.33,0,0,1-.33-.33V61.93a1,1,0,0,0-1.05-1h-.17A1.14,1.14,0,0,0,18.64,62v5.66a.33.33,0,0,1-.33.33H14.22a.33.33,0,0,1-.33-.33V61.21A1.18,1.18,0,0,0,12.72,60h-.87a.33.33,0,0,0-.33.33v.19a.33.33,0,0,1-.33.33h0a7.68,7.68,0,0,0-2.44.36,5.39,5.39,0,0,0-1.8,1,4.13,4.13,0,0,0-1.14,1.49,5,5,0,0,0,.05,4,4,4,0,0,0,1.2,1.49,5.27,5.27,0,0,0,1.81.88,9.34,9.34,0,0,0,2.32.28h16.7a.32.32,0,0,0,.33-.32V62a1.11,1.11,0,0,0-1.11-1.11H27A1.16,1.16,0,0,0,25.85,62ZM11.52,67.68a.33.33,0,0,1-.33.33H10.5a3.43,3.43,0,0,1-1-.15,2.59,2.59,0,0,1-.87-.46A2.31,2.31,0,0,1,8,66.66a2.22,2.22,0,0,1-.23-1,2.15,2.15,0,0,1,.25-1,2.47,2.47,0,0,1,.65-.75,3.12,3.12,0,0,1,.91-.46,3.26,3.26,0,0,1,1-.16h.57a.32.32,0,0,1,.33.33Z"/><path class="cls-1" d="M67.24,70.37Z"/><path class="cls-1" d="M73.38,57V69.65a1.18,1.18,0,0,0,1.18,1.18h0a1.18,1.18,0,0,0,1.18-1.18V57a1.18,1.18,0,0,0-1.18-1.18h0A1.18,1.18,0,0,0,73.38,57Z"/><path class="cls-1" d="M88.33,60.65v.23H88a7.68,7.68,0,0,0-2.44.36,5.43,5.43,0,0,0-1.81,1,4.26,4.26,0,0,0-1.13,1.51,4.53,4.53,0,0,0-.39,1.89,4.7,4.7,0,0,0,.43,2.09,4.17,4.17,0,0,0,1.2,1.49,5.21,5.21,0,0,0,1.82.87,8.82,8.82,0,0,0,2.32.29h.82a1.88,1.88,0,0,0,1.88-1.87V61.34A1.31,1.31,0,0,0,89.38,60h-.44A.61.61,0,0,0,88.33,60.65Zm0,7.36h-1a3.38,3.38,0,0,1-1-.15,2.42,2.42,0,0,1-.87-.46,2.16,2.16,0,0,1-.84-1.77,2,2,0,0,1,.25-1,2.24,2.24,0,0,1,.65-.75,3,3,0,0,1,.91-.46,3.24,3.24,0,0,1,1-.16h.92Z"/><path class="cls-1" d="M95.74,60.88a1.23,1.23,0,0,0-1.23,1.23v8a2.17,2.17,0,0,1-.28,1.26,1.11,1.11,0,0,1-1,.39,3.08,3.08,0,0,1-.53,0h0a.49.49,0,0,0-.54.52l.09,1.23a.66.66,0,0,0,.57.61h0a4.87,4.87,0,0,0,.66,0,4.41,4.41,0,0,0,1.55-.25,2.37,2.37,0,0,0,1-.79,3.5,3.5,0,0,0,.59-1.35,9.22,9.22,0,0,0,.18-2V62a1.08,1.08,0,0,0-1.09-1.08Z"/><path class="cls-1" d="M99.31,57.88V69.19a1.18,1.18,0,0,0,1.18,1.18h0a1.18,1.18,0,0,0,1.18-1.18V57.88a1.18,1.18,0,0,0-1.18-1.19h0A1.18,1.18,0,0,0,99.31,57.88Z"/><path class="cls-1" d="M111.24,63.6a3.14,3.14,0,0,0-.76-1.46,3.64,3.64,0,0,0-1.5-1,6.34,6.34,0,0,0-2-.29h0a.77.77,0,0,0-.78.77v.81a.78.78,0,0,0,.78.78h.23a2,2,0,0,1,.84.18,1.55,1.55,0,0,1,.6.46,1.88,1.88,0,0,1,.34.66,3.38,3.38,0,0,1,.11.89V68a0,0,0,0,1,0,0H104.4a1.18,1.18,0,0,0-1.18,1.19h0a1.17,1.17,0,0,0,1.17,1.17H110a1.45,1.45,0,0,0,1.45-1.45V65.53A7.81,7.81,0,0,0,111.24,63.6Z"/><path class="cls-1" d="M117,71.67H114a.3.3,0,0,0-.3.3v.47a2,2,0,0,0,.57,1.62,2.33,2.33,0,0,0,1.56.48h.54a.3.3,0,0,0,.3-.3v-.17a.29.29,0,0,0-.3-.29H116a.94.94,0,0,1-.7-.22.75.75,0,0,1-.15-.24.3.3,0,0,1,.29-.39H117a.29.29,0,0,0,.3-.29V72A.29.29,0,0,0,117,71.67ZM114.72,56.5v9.44A1.23,1.23,0,0,0,116,67.17h0A1.14,1.14,0,0,0,117.08,66V56.59a1.22,1.22,0,0,0-1.22-1.22h0A1.14,1.14,0,0,0,114.72,56.5Z"/><path class="cls-1" d="M124,70.36h0Z"/><path class="cls-1" d="M128,56.58V68.35a2,2,0,0,1-2,2h-2a4.43,4.43,0,0,1-1-.14,3.18,3.18,0,0,1-.89-.39,2.28,2.28,0,0,1-.58-.52,2.45,2.45,0,0,1-.34-.57,3.82,3.82,0,0,1-2.17,1.35,9.3,9.3,0,0,1-2.42.28h-2.42a1.81,1.81,0,0,1-1.8-1.6l-.09-.76h4.8a4,4,0,0,0,1.07-.14,2.57,2.57,0,0,0,.84-.43,2,2,0,0,0,.52-.71,2.5,2.5,0,0,0,.19-1v-9A1.23,1.23,0,0,1,121,55.44h0a1.14,1.14,0,0,1,1.13,1.13v9a6.85,6.85,0,0,1-.19,1.55,3.11,3.11,0,0,0,2.43.86h.5a.81.81,0,0,0,.81-.81V56.66a1.22,1.22,0,0,1,1.22-1.22h0A1.14,1.14,0,0,1,128,56.58Z"/><circle class="cls-1" cx="25.18" cy="72.37" r="1.15"/><circle class="cls-1" cx="18.44" cy="72.37" r="1.15"/><circle class="cls-1" cx="15.68" cy="72.37" r="1.15"/><circle class="cls-1" cx="11.08" cy="57.97" r="1.15"/><circle class="cls-1" cx="8.33" cy="57.97" r="1.15"/><circle class="cls-1" cx="87.83" cy="58.28" r="1.15"/><circle class="cls-1" cx="85.08" cy="58.28" r="1.15"/></g></g></svg>