<svg xmlns="http://www.w3.org/2000/svg" viewBox="0 0 1319.72 1319.72"><defs><style>.cls-1{fill:#6394f7;}.cls-2{fill:#e8932e;}.cls-3{fill:#fff;}</style></defs><g id="Layer_2" data-name="Layer 2"><g id="Layer_4" data-name="Layer 4"><path class="cls-1" d="M659.86,1319.72C296.05,1319.72,0,1024,0,659.86S296.05,0,659.86,0s659.86,296,659.86,659.86-296,659.86-659.86,659.86m0-1257C331,62.75,62.72,330.62,62.72,659.86S331,1257,659.86,1257,1257,989.09,1257,659.86,989.09,62.75,659.86,62.75"/></g><g id="Layer_16" data-name="Layer 16"><path class="cls-2" d="M1103.72,472.35c-4.39-10.32-9-20.4-14.07-30.23a475.8,475.8,0,0,0-73.89-106.5L908.21,411.48l-205,144.75c-2.57-3.36-4.56-6-6.46-8.6-39.18-53.07-114.4-64.65-168-25.85a118.69,118.69,0,0,0-49.11,89.83c-.5,7.61-3.48,9.66-10.26,11.55-48.63,12.59-77.75,61.83-65,110,10.65,40.3,47.79,68.13,89.85,67.3H826.71c50.25,1.17,91.94-38.21,93.13-88,1-41.9-27.32-79-68.31-89.4a18,18,0,0,1-9.69-5.32L982.5,518.3a350.22,350.22,0,0,1,29.8,141.56c0,193.9-157.88,351.76-351.83,351.76S308.09,853.76,308.09,659.86,465.87,308.1,659.82,308.1a349.06,349.06,0,0,1,164,41c2,1.14,4.05,2.29,6.12,3.27a63.76,63.76,0,0,0,27.89,6.31c36.54-.73,65.57-30.67,64.83-66.85a65.42,65.42,0,0,0-31.74-54.64l-3.89-2c-12.74-6.8-25.9-13.11-39.3-18.85a483.64,483.64,0,0,0-375.06,0c-115.92,49.21-207.92,141.18-256.5,256.41-76.5,180.52-35.8,388.88,103.17,528.14,185.39,186.26,488.2,188.46,676.33,4.91q2.49-2.43,5-4.91C1139.32,861.27,1180,653,1103.72,472.35"/></g><g id="Layer_15" data-name="Layer 15"><path class="cls-3" d="M810.82,645.19v.49a4.45,4.45,0,0,0,4,3.28c6.7.49,13.65.9,20.6,1.8,33.15,4.4,56.43,34.57,52,67.4A60.32,60.32,0,0,1,831.25,770c-14.56.9-29.2,1-43.77,1H505.25c-17.29,0-34.25-1.56-48.73-12.7a59.88,59.88,0,0,1-11.88-84.44,61.06,61.06,0,0,1,47-23.94,20.15,20.15,0,0,0,19.19-20c0-56,21.59-86.34,67.1-98.3,39-10.16,70.16,3.19,97,44.15a172.49,172.49,0,0,1,9.68,16.38,12.55,12.55,0,0,0,16.87,5.2,12.38,12.38,0,0,0,3.24-2.41c19.2-19.33,42-26.54,67.93-15.89s38.23,30.71,38.23,58.4a9.14,9.14,0,0,0,0,1.48Z"/></g></g></svg>