<svg xmlns="http://www.w3.org/2000/svg" viewBox="0 0 148.77 157.1"><defs><style>.cls-1{fill:#f8a94e;}</style></defs><g id="Layer_2" data-name="Layer 2"><g id="Layer_1-2" data-name="Layer 1"><g id="pnhX4D.tif"><path class="cls-1" d="M109.48,76.87C106,63.81,99.33,52.4,90.83,42,85,34.91,78.39,28.66,70.23,24.24,65.75,21.82,61,20.1,55.82,20.71A11.07,11.07,0,0,0,46.6,27Q34.84,50.86,23.06,74.69a6.34,6.34,0,0,1-2,2.25c-4.12,2.87-8.34,5.6-12.46,8.48a19,19,0,0,0-8.64,16A20.39,20.39,0,0,0,21,122a20.09,20.09,0,0,0,10-3.21c.4.57.76,1.06,1.1,1.57L52.7,150.69a14.1,14.1,0,0,0,5.56,4.95,39.77,39.77,0,0,0,4,1.46H65a6.47,6.47,0,0,1,.84-.3A12.07,12.07,0,0,0,75.93,146a12.47,12.47,0,0,0-2.4-9q-9.07-13.36-18.13-26.74l-1-1.55c.66-.1,1.09-.21,1.54-.24q21.78-1.74,43.55-3.47a10.9,10.9,0,0,0,6.06-2.39,14.55,14.55,0,0,0,5.08-8.88C111.76,88,111,82.41,109.48,76.87Zm-82,37c-6.48,4.16-14.42,2.33-18.85-4.23s-3.15-14.49,3.05-19c4-2.86,8.1-5.54,12.23-8.37l15.77,23.22c-.41.3-.76.58-1.13.83C34.9,108.91,31.27,111.5,27.52,113.9Zm41.11,26.69c2.77,4.11,1,9.12-3.65,10.22-2.64.62-5.22-.48-7-3.07Q48.67,134,39.35,120.27l-3.26-4.81c2.93-2,5.66-3.9,8.44-5.73a2.51,2.51,0,0,1,3.75.83Q58.45,125.57,68.63,140.59Zm6-39.61c-9.31.74-18.61,1.46-27.91,2.22a1.91,1.91,0,0,1-2-1C39.52,94.45,34.23,86.7,29,78.91A2.27,2.27,0,0,1,28.75,77c5.13-10.61,10.34-21.17,15.53-31.75a2.26,2.26,0,0,1,.26-.37c5.85,23,18.39,41.39,37.61,55.43C79.61,100.56,77.14,100.78,74.67,101Zm29.78-9.63a10,10,0,0,1-2.79,5.54A7.18,7.18,0,0,1,94.78,99a32.88,32.88,0,0,1-13.66-7.08A88.77,88.77,0,0,1,51.42,47a27,27,0,0,1-.81-3.75C50.35,41.5,50.2,39.76,50,38c.12-1.31.14-2.71.37-4.07.94-5.58,4.84-8.14,10.36-6.83,4.85,1.14,9,3.68,12.87,6.66,8.64,6.6,15.31,14.94,21,24.13,4.2,6.84,7.7,14,9.42,21.91A28.7,28.7,0,0,1,104.45,91.35Z"/><path class="cls-1" d="M148.77,63.2v1.54c-1.24,2.24-2.07,2.65-4.61,2.2Q132.59,64.88,121,62.81c-1.8-.32-2.88-1.35-3-2.84A2.77,2.77,0,0,1,120,57a4.62,4.62,0,0,1,2.25-.11c7.93,1.39,15.85,2.76,23.75,4.31C147,61.36,147.84,62.5,148.77,63.2Z"/><path class="cls-1" d="M138.52,28.65Q128.32,35.37,118.1,42a7.5,7.5,0,0,1-1.6.65c-1.85,0-2.84-.73-3.32-2.07A2.94,2.94,0,0,1,114.57,37c4.65-3.08,9.32-6.13,14-9.19,2.18-1.43,4.35-2.88,6.55-4.29,1.78-1.16,3.58-.9,4.59.62S140.27,27.49,138.52,28.65Z"/><path class="cls-1" d="M106.14,3.56Q105,14.71,103.83,25.85a3,3,0,0,1-3.25,2.93,3,3,0,0,1-2.75-3.41c.6-5.9,1.22-12,1.83-18,.15-1.48.3-2.95.47-4.43a3,3,0,1,1,6,.63Z"/><path class="cls-1" d="M82.4,79.54a6.47,6.47,0,0,1-2,1.16A3,3,0,0,1,78,75.31a10.42,10.42,0,0,0,4.38-7.12,9.87,9.87,0,0,0-4.23-9.91,10,10,0,0,0-10.9-.74c-.41.21-.78.48-1.19.69A3,3,0,0,1,62.93,53a15.26,15.26,0,0,1,7.66-2.78c8.59,0,14.77,4.38,17.1,11A16.41,16.41,0,0,1,82.4,79.54Z"/></g></g></g></svg>