<svg xmlns="http://www.w3.org/2000/svg" viewBox="0 0 156.14 156.14"><defs><style>.cls-1{fill:#f8a94e;}</style></defs><g id="Layer_2" data-name="Layer 2"><g id="Layer_1-2" data-name="Layer 1"><g id="O6dXMt.tif"><path class="cls-1" d="M156.14,10.67V50.93a6,6,0,0,0-.27.7,12.38,12.38,0,0,1-12.51,9.94q-21.5,0-43,0H85.89V76.91a8.1,8.1,0,0,1,8.41,1.58c4.18-2.82,6.79-2.83,10.91,0a8.13,8.13,0,0,1,6.26-2,7.61,7.61,0,0,1,6.8,7.41c.07,11.17.24,22.36-.1,33.52-.13,4.25-1.57,8.46-2.43,12.68q-.63,3.06-1.33,6.09a1.76,1.76,0,0,0,.66,2,9.23,9.23,0,0,1,3.19,7.14c0,2.69.14,5.4-.06,8.08-.07,1-.91,1.87-1.4,2.8h-1.52a3,3,0,0,1-1.61-3c.08-2.53,0-5.07,0-7.61,0-3.25-2-5.26-5.23-5.26q-17.13,0-34.28,0a4.87,4.87,0,0,0-5.26,5.2c0,2.49-.07,5,0,7.46a3.27,3.27,0,0,1-1.54,3.22H65.87a3.17,3.17,0,0,1-1.55-3.2c.09-2.13.1-4.27,0-6.4-.22-4.77,1.7-8.24,6.19-10.36-.26-.5-.48-1-.74-1.44L63,122.84c-.58-1-.8-2.15.15-2.91a3.39,3.39,0,0,1,2.46-.58c.59.11,1.16.92,1.53,1.55,2.63,4.51,5.24,9,7.79,13.61a2,2,0,0,0,2,1.19q15.85,0,31.71,0c.92,0,1.32-.21,1.51-1.17,1-5.12,2.19-10.22,3.26-15.34a14.62,14.62,0,0,0,.33-3q0-15.61,0-31.25a8.24,8.24,0,0,0,0-1.22,3.14,3.14,0,0,0-3-2.76,3.06,3.06,0,0,0-3.12,2.57,10,10,0,0,0-.14,1.82c0,2.84,0,5.69,0,8.54a2.27,2.27,0,1,1-4.53,0c-.06-3.25,0-6.5,0-9.76a3,3,0,0,0-4-3,3,3,0,0,0-2.16,3.14c0,2.84,0,5.69,0,8.53,0,.41,0,.82,0,1.22a2.32,2.32,0,0,1-2.31,2.35A2.27,2.27,0,0,1,92.09,94c0-3.2,0-6.4,0-9.6,0-2.52-2.18-4.07-4.32-3.16a3.24,3.24,0,0,0-2,3.32c0,2.84,0,5.69,0,8.54,0,.5.14,1.16-.11,1.48-.55.7-1.29,1.64-2,1.69S82,95.5,81.47,94.84c-.35-.41-.24-1.26-.24-1.91q0-16,0-32a15.74,15.74,0,0,0-.06-1.82A3.08,3.08,0,0,0,75,59.2c0,.5,0,1,0,1.52q0,18.82,0,37.65v1.22a3.76,3.76,0,0,1-6.66,2.62L56.66,90c-.77-.8-1.6-2-2.76-1.36a4.42,4.42,0,0,0-2.06,2.71,6.79,6.79,0,0,0,.72,4c2.69,5,5.59,9.89,8.41,14.83a5.72,5.72,0,0,1,.65,1.37,2.1,2.1,0,0,1-1.1,2.58,2.18,2.18,0,0,1-2.86-.61,3.82,3.82,0,0,1-.4-.64c-3-5.29-6.1-10.55-9.06-15.87a9.06,9.06,0,0,1,.15-9.44c2.52-4.32,7.58-4.93,11-1.34,3.25,3.36,6.46,6.75,9.68,10.14a13.71,13.71,0,0,1,.9,1.22l.34-.22V61.58H13.86C6.35,61.58,2.21,58.44.15,51.2A1.43,1.43,0,0,0,0,50.93V10.67c.78-3.16,2-6.14,4.83-8A41.91,41.91,0,0,1,10.67,0H115c1,.81,1.83,1.65,1.27,3.08s-1.74,1.5-3,1.5H13.51c-5.84,0-8.94,3.1-8.94,8.92V48.4c0,5.38,3.24,8.61,8.66,8.61h56.1c.74,0,1.39.12,1.86-.84a7.25,7.25,0,0,1,7.07-4.39,7.5,7.5,0,0,1,6.87,4.51c.12.23.25.44.4.72h57c5.93,0,9-3.1,9-9V13.26c0-5.5-3.2-8.68-8.71-8.69-5.75,0-11.49,0-17.23,0-1.32,0-2.5-.19-3-1.59s.31-2.32,1.45-3h21.35c.38.12.76.24,1.15.34a12.35,12.35,0,0,1,8.49,7.18A31.32,31.32,0,0,1,156.14,10.67Z"/><path class="cls-1" d="M137.29,26.79c-2.22,6.42-4.48,12.84-6.68,19.27-.41,1.18-1.08,2-2.36,2s-1.94-.88-2.32-2.05c-1.29-3.9-2.63-7.79-4-11.68-.17-.51-.36-1-.68-1.88l-4.48,12.66c-.17.47-.21,1.08-.54,1.39-.66.62-1.45,1.44-2.21,1.47a2.66,2.66,0,0,1-2-1.46c-2.4-6.74-4.68-13.52-7-20.3a2.16,2.16,0,0,1,1.44-2.79,2.23,2.23,0,0,1,2.95,1.65c1.35,3.88,2.66,7.78,4,11.66.19.57.41,1.13.73,2L118,28.07l1.11-3.15a2.2,2.2,0,0,1,2.19-1.77,2.29,2.29,0,0,1,2.33,1.8q2.09,6.21,4.2,12.4c.1.32.24.63.47,1.23.29-.76.5-1.26.68-1.77,1.33-3.83,2.65-7.67,4-11.5.6-1.73,1.7-2.39,3.06-1.91S137.88,25.07,137.29,26.79Z"/><path class="cls-1" d="M91.49,23.42A12.34,12.34,0,1,0,103.75,35.7,12.23,12.23,0,0,0,91.49,23.42Zm.12,20.1a7.77,7.77,0,0,1-7.76-7.73,7.66,7.66,0,1,1,7.76,7.73Z"/><path class="cls-1" d="M43.87,23.41A12.35,12.35,0,1,0,56.18,35.65,12.25,12.25,0,0,0,43.87,23.41Zm0,20.11a7.75,7.75,0,0,1-7.61-7.72,7.66,7.66,0,1,1,7.61,7.72Z"/><path class="cls-1" d="M26.5,20.53v3.13c3.69.53,4.42,1,4.39,2.52s-.74,1.91-4.39,2.37v1.59c0,5.08.06,10.16-.05,15.23a3.45,3.45,0,0,1-1.26,2.35A2.28,2.28,0,0,1,23,47.61a3.43,3.43,0,0,1-1-2.33c-.09-5-.05-10.05-.05-15.07V28.6c-2.59-.49-3.36-1.07-3.35-2.49s.78-2,3.35-2.47c0-1.43,0-2.9,0-4.36a5.67,5.67,0,0,1,7.62-5.57,2.13,2.13,0,0,1,1.67,2.53,2.16,2.16,0,0,1-2.36,1.93C26.5,18.19,26.5,18.17,26.5,20.53Z"/><path class="cls-1" d="M75.62,45.23c0,2.26-1.82,3.63-3.39,2.47a3.49,3.49,0,0,1-1.13-2.43c-.1-4.87,0-9.75,0-14.62V16.49c0-1.91.83-3,2.27-3s2.3,1.08,2.3,3Q75.63,30.85,75.62,45.23Z"/><path class="cls-1" d="M65.12,44.63c0,.25,0,.5,0,.76-.07,1.66-.93,2.68-2.27,2.69s-2.27-1-2.28-2.67c0-4.92,0-9.84,0-14.77,0-4.66,0-9.33,0-14a3.75,3.75,0,0,1,.58-2.26,2.59,2.59,0,0,1,2.1-.75,3.17,3.17,0,0,1,1.68,1.51,3.69,3.69,0,0,1,.18,1.78Q65.13,30.78,65.12,44.63Z"/></g></g></g></svg>