<svg xmlns="http://www.w3.org/2000/svg" viewBox="0 0 126.7 125.07"><defs><style>.cls-1{fill:#f8a94e;}</style></defs><g id="Layer_2" data-name="Layer 2"><g id="Layer_1-2" data-name="Layer 1"><g id="T7YqZb.tif"><path class="cls-1" d="M125.72,33.23A14,14,0,0,0,98,36.73a14.33,14.33,0,0,0,4.28,9,1.82,1.82,0,0,1-.22.34q-9.15,9.49-18.3,19c-.51.53-.87.35-1.39.12a12.55,12.55,0,0,0-8.86-.85A56,56,0,0,0,67.26,67L56.94,57.67a13.74,13.74,0,0,0,1.41-10.53c-1.5-5.47-5.08-9-10.64-10.17a13.18,13.18,0,0,0-14,5.19c-3.5,4.59-3.85,9.66-1.32,14.86a1.46,1.46,0,0,1-.24,1.92q-5.73,6.63-11.37,13.35a1.47,1.47,0,0,1-2,.51A14,14,0,0,0,.6,82c-.22.74-.4,1.5-.6,2.25v3.49a6.8,6.8,0,0,1,.26.8A14.07,14.07,0,1,0,24.7,76.7c-.21-.24-.39-.5-.6-.77L36.2,61.74c6.06,4.07,11.92,3.9,17.69-.27L64.41,71c-3.95,7.82-.73,14.95,4,18.33a14,14,0,0,0,17.48-.8,13.66,13.66,0,0,0,4.49-7.84,14.07,14.07,0,0,0-3.26-12C93.43,62.08,99.7,55.56,106,49.09a1.65,1.65,0,0,1,1.38-.24A14,14,0,0,0,125.72,33.23ZM14.33,95a9,9,0,1,1,9-9A9.08,9.08,0,0,1,14.33,95Zm30.5-35.22a9.06,9.06,0,1,1,9.06-9A9,9,0,0,1,44.83,59.81ZM76.61,87a9.05,9.05,0,1,1,9-9A9.06,9.06,0,0,1,76.61,87Zm35.24-42.29a9,9,0,1,1,9.1-8.94A9,9,0,0,1,111.85,44.67Z"/><path class="cls-1" d="M115.5,67.71v52.54c2.66,0,5.27.1,7.86,0a3,3,0,0,1,3.34,2.09v.5c-.84,2-1.24,2.26-3.46,2.26H4.17c-2.22,0-3.36-.81-3.4-2.39s1.18-2.5,3.44-2.5c2.48,0,5,0,7.62,0v-1.45c0-3.86,0-7.72,0-11.57a2.57,2.57,0,0,1,1.53-2.73,2.42,2.42,0,0,1,3.34,2.46c0,3.94,0,7.88,0,11.82v1.45h57.4c0-.43,0-.87,0-1.31,0-6.55,0-13.1,0-19.65a7.43,7.43,0,0,1,0-1.25,2.44,2.44,0,0,1,2.35-2,2.38,2.38,0,0,1,2.37,1.82,7.16,7.16,0,0,1,.13,1.6q0,9.65,0,19.29v1.54h31.4V67.42c-.28.23-.53.39-.74.59q-3.09,3.08-6.16,6.16c-1.36,1.34-2.86,1.5-3.92.41s-.9-2.51.41-3.83q5.26-5.3,10.56-10.56c1.55-1.55,2.73-1.56,4.27,0q5.3,5.27,10.55,10.57a12,12,0,0,1,1.26,1.79V73c-1.14,2.76-2.8,3.08-4.93,1-1.5-1.49-3-3-4.48-4.48Z"/><path class="cls-1" d="M115.28,12.92a2.17,2.17,0,0,1-2.52,1.87,2.33,2.33,0,0,1-2.22-2.26c-.06-1.58,0-3.16,0-4.73,0-2.13-.8-2.92-3-2.92H19.47c-2.69,0-3.3.61-3.3,3.28q0,26.37,0,52.76a8.26,8.26,0,0,1-.06,1.49,2.43,2.43,0,0,1-4.77.09,6.22,6.22,0,0,1-.09-1.36q0-26.64,0-53.26c0-5,2.89-7.87,7.89-7.88H107.6c3.8,0,6.71,1.74,7.38,5A36.46,36.46,0,0,1,115.28,12.92Z"/><path class="cls-1" d="M47.3,87h0a12.3,12.3,0,0,1,0,1.36A2.38,2.38,0,0,1,45,90.52a2.28,2.28,0,0,1-2.53-1.88,12.12,12.12,0,0,1-.07-3A2.41,2.41,0,0,1,45,83.48a2.45,2.45,0,0,1,2.31,2.45C47.31,86.3,47.3,86.67,47.3,87Z"/><path class="cls-1" d="M47.29,100.16c0,2.31-.78,3.45-2.4,3.47s-2.51-1.19-2.5-3.52a8.07,8.07,0,0,1,.07-1.48,2.34,2.34,0,0,1,2.54-2,2.38,2.38,0,0,1,2.29,2.32C47.32,99.33,47.29,99.74,47.29,100.16Z"/><path class="cls-1" d="M47.3,112.64c0,1.65-.56,2.62-1.7,2.94a2.32,2.32,0,0,1-2.74-.92,3.94,3.94,0,0,1,.13-4.11,2.28,2.28,0,0,1,2.81-.68A2.51,2.51,0,0,1,47.3,112.64Z"/><path class="cls-1" d="M47.3,74.48c0,1.74-.78,2.81-2.17,3a2.46,2.46,0,0,1-2.62-1.83c-.49-1.76.08-3.46,1.35-4C45.69,70.83,47.31,72.16,47.3,74.48Z"/></g></g></g></svg>