<svg xmlns="http://www.w3.org/2000/svg" xmlns:xlink="http://www.w3.org/1999/xlink" viewBox="0 0 206.11 83.76"><defs><style>.cls-1{fill:none;}.cls-2{clip-path:url(#clip-path);}.cls-3{fill:#f75b13;}.cls-4{fill:#f75a12;}.cls-5{fill:#f75912;}.cls-6{fill:#f75812;}.cls-7{fill:#f75712;}.cls-8{fill:#f75612;}.cls-9{fill:#f75511;}.cls-10{fill:#f75411;}.cls-11{fill:#f75311;}.cls-12{fill:#f75211;}.cls-13{fill:#f75111;}.cls-14{fill:#f85010;}.cls-15{fill:#f84f10;}.cls-16{fill:#f84e10;}.cls-17{fill:#f84d10;}.cls-18{fill:#f84c10;}.cls-19{fill:#f84b0f;}.cls-20{fill:#f84a0f;}.cls-21{fill:#f8490f;}.cls-22{fill:#f8480f;}.cls-23{fill:#f8470f;}.cls-24{fill:#f8460e;}.cls-25{fill:#f8450e;}.cls-26{fill:#f9430e;}.cls-27{fill:#f9420e;}.cls-28{fill:#f9410d;}.cls-29{fill:#f9400d;}.cls-30{fill:#f93f0d;}.cls-31{fill:#f93e0d;}.cls-32{fill:#f93d0d;}.cls-33{fill:#f93c0c;}.cls-34{fill:#f93b0c;}.cls-35{fill:#f93a0c;}.cls-36{fill:#f9390c;}.cls-37{fill:#f9380c;}.cls-38{fill:#fa370b;}.cls-39{fill:#fa360b;}.cls-40{fill:#fa350b;}.cls-41{fill:#fa340b;}.cls-42{fill:#fa330b;}.cls-43{fill:#fa320a;}.cls-44{fill:#fa310a;}.cls-45{fill:#fa300a;}.cls-46{fill:#fa2f0a;}.cls-47{fill:#fa2e0a;}.cls-48{fill:#fa2d09;}.cls-49{fill:#fa2c09;}.cls-50{fill:#fa2b09;}.cls-51{fill:#fb2a09;}.cls-52{fill:#fb2909;}.cls-53{fill:#fb2808;}.cls-54{fill:#fb2708;}.cls-55{fill:#fb2608;}.cls-56{fill:#fb2508;}.cls-57{fill:#fb2407;}.cls-58{fill:#fb2307;}.cls-59{fill:#fb2207;}.cls-60{fill:#fb2107;}.cls-61{fill:#fb2007;}.cls-62{fill:#fb1f06;}.cls-63{fill:#fc1e06;}.cls-64{fill:#fc1d06;}.cls-65{fill:#f3871c;}.cls-66{fill:#f3861c;}.cls-67{fill:#f3851c;}.cls-68{fill:#f3841b;}.cls-69{fill:#f3831b;}.cls-70{fill:#f3821b;}.cls-71{fill:#f3811b;}.cls-72{fill:#f4801b;}.cls-73{fill:#f4801a;}.cls-74{fill:#f47f1a;}.cls-75{fill:#f47e1a;}.cls-76{fill:#f47d1a;}.cls-77{fill:#f47c1a;}.cls-78{fill:#f47b19;}.cls-79{fill:#f47a19;}.cls-80{fill:#f47919;}.cls-81{fill:#f47819;}.cls-82{fill:#f47718;}.cls-83{fill:#f47618;}.cls-84{fill:#f57518;}.cls-85{fill:#f57418;}.cls-86{fill:#f57318;}.cls-87{fill:#f57217;}.cls-88{fill:#f57117;}.cls-89{fill:#f57017;}.cls-90{fill:#f56f17;}.cls-91{fill:#f56e17;}.cls-92{fill:#f56d16;}.cls-93{fill:#f56c16;}.cls-94{fill:#f56b16;}.cls-95{fill:#f56a16;}.cls-96{fill:#f66916;}.cls-97{fill:#f66815;}.cls-98{fill:#f66715;}.cls-99{fill:#f66615;}.cls-100{fill:#f66515;}.cls-101{fill:#f66415;}.cls-102{fill:#f66314;}.cls-103{fill:#f66214;}.cls-104{fill:#f66114;}.cls-105{fill:#f66014;}.cls-106{fill:#f65f13;}.cls-107{fill:#f65e13;}.cls-108{fill:#f75d13;}.cls-109{fill:#f75c13;}.cls-110{fill:#fc1c06;}.cls-111{fill:#fc1b06;}.cls-112{fill:#fc1a05;}.cls-113{fill:#fc1905;}.cls-114{fill:#fc1805;}.cls-115{fill:#fc1705;}.cls-116{fill:#fc1605;}.cls-117{fill:#fc1504;}.cls-118{fill:#fc1404;}.cls-119{fill:#fc1304;}.cls-120{fill:#fd1204;}.cls-121{fill:#fd1104;}.cls-122{fill:#fd1003;}.cls-123{fill:#fd0f03;}.cls-124{fill:#fd0e03;}.cls-125{fill:#fd0d03;}.cls-126{fill:#fd0c02;}.cls-127{fill:#fd0b02;}.cls-128{fill:#fd0a02;}.cls-129{fill:#fd0902;}.cls-130{fill:#fd0802;}.cls-131{fill:#fd0701;}.cls-132{fill:#ff0601;}.cls-133{fill:#ff0501;}.cls-134{fill:#ff0401;}.cls-135{fill:#ff0301;}.cls-136{fill:#ff0200;}.cls-137{fill:#ff0100;}.cls-138{fill:red;}.cls-139{clip-path:url(#clip-path-2);}.cls-140{clip-path:url(#clip-path-3);}.cls-141{fill:#e00;}</style><clipPath id="clip-path"><path class="cls-1" d="M72.12,16.49a15.36,15.36,0,0,0-5.78-12A20,20,0,0,0,53.74.2C41.34,0,28.93.07,16.53,0c-1,0-1.5.42-1.49,1.45a7.06,7.06,0,0,1-.14,1.28c-.8,4.17-2,8.27-2.71,12.47-.41,2.42-1,4.82-1.52,7.23C9.91,26,9.33,29.49,8.36,33c-.06.47-.08.95-.18,1.41-.87,4-1.82,8-2.62,12C4,53.91,2.6,61.51.71,69A46.61,46.61,0,0,0,0,73.74a5,5,0,0,0,.66-.27q8-4.77,16.06-9.53a2,2,0,0,0,.94-1.5q1.57-7.51,3.21-15c.14-.6.09-1.31,1.13-1.3,5.51.07,11,.07,16.53.09h2.3a12.08,12.08,0,0,1,3.29.15,4,4,0,0,0,3.12-.58c4.32-2.63,8.7-5.18,13.06-7.75a20.74,20.74,0,0,0,5.76-4.37A25.14,25.14,0,0,0,72.12,16.49ZM56.25,20.26c-.66,7.3-4.87,11.38-12.39,12.08-3.5.33-7,.14-9.84.21-3.43,0-6.21,0-9,0-.79,0-1-.2-.81-1,1.2-5.62,2.36-11.24,3.54-16.87.11-.55.27-1,1-.94,7.27.2,14.56-.44,21.82.47a11.67,11.67,0,0,1,2.1.5A4.86,4.86,0,0,1,56.25,20.26Z"/></clipPath><clipPath id="clip-path-2"><path class="cls-1" d="M68.05,56.45A29.39,29.39,0,0,1,55.74,75.27a3.31,3.31,0,0,0-.5.49c-6.61,4.29-14,5.81-21.72,5.78-10.54-.05-21.08,0-31.62,0H.28c1.16-.79,2-1.43,2.92-2q9.63-5.72,19.28-11.42a4.1,4.1,0,0,1,2.05-.48c5-.09,10,.27,14.94-.22a11.92,11.92,0,0,0,4.93-1.38c5-2,7.43-5.9,8.3-11a8.36,8.36,0,0,0-.07-4.07.83.83,0,0,1,.46-1.06c3.89-2.32,7.8-4.6,11.65-7,1-.61,1.29-.17,1.71.58C68.75,47.59,68.92,52,68.05,56.45Z"/></clipPath><clipPath id="clip-path-3"><path class="cls-1" d="M40.34,46.22H38.53"/></clipPath></defs><g id="Layer_2" data-name="Layer 2"><g id="Layer_1-2" data-name="Layer 1"><g id="URSwKn"><g class="cls-2"><rect class="cls-3" x="24.05" y="13.33" width="0.35" height="19.34"/><rect class="cls-4" x="24.4" y="13.33" width="0.53" height="19.34"/><rect class="cls-5" x="24.93" y="13.33" width="0.53" height="19.34"/><rect class="cls-6" x="25.46" y="13.33" width="0.53" height="19.34"/><rect class="cls-7" x="25.99" y="13.33" width="0.53" height="19.34"/><rect class="cls-8" x="26.52" y="13.33" width="0.53" height="19.34"/><rect class="cls-9" x="27.05" y="13.33" width="0.53" height="19.34"/><rect class="cls-10" x="27.58" y="13.33" width="0.53" height="19.34"/><rect class="cls-11" x="28.11" y="13.33" width="0.53" height="19.34"/><rect class="cls-12" x="28.64" y="13.33" width="0.53" height="19.34"/><rect class="cls-13" x="29.17" y="13.33" width="0.53" height="19.34"/><rect class="cls-14" x="29.7" y="13.33" width="0.53" height="19.34"/><rect class="cls-15" x="30.23" y="13.33" width="0.53" height="19.34"/><rect class="cls-16" x="30.76" y="13.33" width="0.53" height="19.34"/><rect class="cls-17" x="31.29" y="13.33" width="0.53" height="19.34"/><rect class="cls-18" x="31.83" y="13.33" width="0.53" height="19.34"/><rect class="cls-19" x="32.36" y="13.33" width="0.53" height="19.34"/><rect class="cls-20" x="32.89" y="13.33" width="0.53" height="19.34"/><rect class="cls-21" x="33.42" y="13.33" width="0.53" height="19.34"/><rect class="cls-22" x="33.95" y="13.33" width="0.53" height="19.34"/><rect class="cls-23" x="34.48" y="13.33" width="0.53" height="19.34"/><rect class="cls-24" x="35.01" y="13.33" width="0.53" height="19.34"/><rect class="cls-25" x="35.54" y="13.33" width="0.53" height="19.34"/><rect class="cls-26" x="36.07" y="13.33" width="0.53" height="19.34"/><rect class="cls-27" x="36.6" y="13.33" width="0.53" height="19.34"/><rect class="cls-28" x="37.13" y="13.33" width="0.53" height="19.34"/><rect class="cls-29" x="37.66" y="13.33" width="0.53" height="19.34"/><rect class="cls-30" x="38.19" y="13.33" width="0.53" height="19.34"/><rect class="cls-31" x="38.72" y="13.33" width="0.53" height="19.34"/><rect class="cls-32" x="39.25" y="13.33" width="0.53" height="19.34"/><rect class="cls-33" x="39.78" y="13.33" width="0.53" height="19.34"/><rect class="cls-34" x="40.31" y="13.33" width="0.53" height="19.34"/><rect class="cls-35" x="40.84" y="13.33" width="0.53" height="19.34"/><rect class="cls-36" x="41.37" y="13.33" width="0.53" height="19.34"/><rect class="cls-37" x="41.9" y="13.33" width="0.53" height="19.34"/><rect class="cls-38" x="42.43" y="13.33" width="0.53" height="19.34"/><rect class="cls-39" x="42.96" y="13.33" width="0.53" height="19.34"/><rect class="cls-40" x="43.49" y="13.33" width="0.53" height="19.34"/><rect class="cls-41" x="44.02" y="13.33" width="0.53" height="19.34"/><rect class="cls-42" x="44.56" y="13.33" width="0.53" height="19.34"/><rect class="cls-43" x="45.09" y="13.33" width="0.53" height="19.34"/><rect class="cls-44" x="45.62" y="13.33" width="0.53" height="19.34"/><rect class="cls-45" x="46.15" y="13.33" width="0.53" height="19.34"/><rect class="cls-46" x="46.68" y="13.33" width="0.53" height="19.34"/><rect class="cls-47" x="47.21" y="13.33" width="0.53" height="19.34"/><rect class="cls-48" x="47.74" y="13.33" width="0.53" height="19.34"/><rect class="cls-49" x="48.27" y="13.33" width="0.53" height="19.34"/><rect class="cls-50" x="48.8" y="13.33" width="0.53" height="19.34"/><rect class="cls-51" x="49.33" y="13.33" width="0.53" height="19.34"/><rect class="cls-52" x="49.86" y="13.33" width="0.53" height="19.34"/><rect class="cls-53" x="50.39" y="13.33" width="0.53" height="19.34"/><rect class="cls-54" x="50.92" y="13.33" width="0.53" height="19.34"/><rect class="cls-55" x="51.45" y="13.33" width="0.53" height="19.34"/><rect class="cls-56" x="51.98" y="13.33" width="0.53" height="19.34"/><rect class="cls-57" x="52.51" y="13.33" width="0.53" height="19.34"/><rect class="cls-58" x="53.04" y="13.33" width="0.53" height="19.34"/><rect class="cls-59" x="53.57" y="13.33" width="0.53" height="19.34"/><rect class="cls-60" x="54.1" y="13.33" width="0.53" height="19.34"/><rect class="cls-61" x="54.63" y="13.33" width="0.53" height="19.34"/><rect class="cls-62" x="55.16" y="13.33" width="0.53" height="19.34"/><rect class="cls-63" x="55.69" y="13.33" width="0.53" height="19.34"/><rect class="cls-64" x="56.22" y="13.33" width="0.27" height="19.34"/><rect class="cls-65" width="0.53" height="73.74"/><rect class="cls-66" x="0.53" width="0.53" height="73.74"/><rect class="cls-67" x="1.06" width="0.53" height="73.74"/><rect class="cls-68" x="1.59" width="0.53" height="73.74"/><rect class="cls-69" x="2.12" width="0.53" height="73.74"/><rect class="cls-70" x="2.65" width="0.53" height="73.74"/><rect class="cls-71" x="3.18" width="0.53" height="73.74"/><rect class="cls-72" x="3.71" width="0.53" height="73.74"/><rect class="cls-73" x="4.24" width="0.53" height="73.74"/><rect class="cls-74" x="4.77" width="0.53" height="73.74"/><rect class="cls-75" x="5.3" width="0.53" height="73.74"/><rect class="cls-76" x="5.83" width="0.53" height="73.74"/><rect class="cls-77" x="6.37" width="0.53" height="73.74"/><rect class="cls-78" x="6.9" width="0.53" height="73.74"/><rect class="cls-79" x="7.43" width="0.53" height="73.74"/><rect class="cls-80" x="7.96" width="0.53" height="73.74"/><rect class="cls-81" x="8.49" width="0.53" height="73.74"/><rect class="cls-82" x="9.02" width="0.53" height="73.74"/><rect class="cls-83" x="9.55" width="0.53" height="73.74"/><rect class="cls-84" x="10.08" width="0.53" height="73.74"/><rect class="cls-85" x="10.61" width="0.53" height="73.74"/><rect class="cls-86" x="11.14" width="0.53" height="73.74"/><rect class="cls-87" x="11.67" width="0.53" height="73.74"/><rect class="cls-88" x="12.2" width="0.53" height="73.74"/><rect class="cls-89" x="12.73" width="0.53" height="73.74"/><rect class="cls-90" x="13.26" width="0.53" height="73.74"/><rect class="cls-91" x="13.79" width="0.53" height="73.74"/><rect class="cls-92" x="14.32" width="0.53" height="73.74"/><rect class="cls-93" x="14.85" width="0.53" height="73.74"/><rect class="cls-94" x="15.38" width="0.53" height="73.74"/><rect class="cls-95" x="15.91" width="0.53" height="73.74"/><rect class="cls-96" x="16.44" width="0.53" height="73.74"/><rect class="cls-97" x="16.97" width="0.53" height="73.74"/><rect class="cls-98" x="17.5" width="0.53" height="73.74"/><rect class="cls-99" x="18.03" width="0.53" height="73.74"/><rect class="cls-100" x="18.56" width="0.53" height="73.74"/><rect class="cls-101" x="19.1" width="0.53" height="73.74"/><rect class="cls-102" x="19.63" width="0.53" height="73.74"/><rect class="cls-103" x="20.16" width="0.53" height="73.74"/><rect class="cls-104" x="20.69" width="0.53" height="73.74"/><rect class="cls-105" x="21.22" width="0.53" height="73.74"/><rect class="cls-106" x="21.75" width="0.53" height="73.74"/><rect class="cls-107" x="22.28" width="0.53" height="73.74"/><rect class="cls-108" x="22.81" width="0.53" height="73.74"/><rect class="cls-109" x="23.34" width="0.53" height="73.74"/><rect class="cls-3" x="23.87" width="0.53" height="73.74"/><rect class="cls-4" x="24.4" width="0.53" height="73.74"/><rect class="cls-5" x="24.93" width="0.53" height="73.74"/><rect class="cls-6" x="25.46" width="0.53" height="73.74"/><rect class="cls-7" x="25.99" width="0.53" height="73.74"/><rect class="cls-8" x="26.52" width="0.53" height="73.74"/><rect class="cls-9" x="27.05" width="0.53" height="73.74"/><rect class="cls-10" x="27.58" width="0.53" height="73.74"/><rect class="cls-11" x="28.11" width="0.53" height="73.74"/><rect class="cls-12" x="28.64" width="0.53" height="73.74"/><rect class="cls-13" x="29.17" width="0.53" height="73.74"/><rect class="cls-14" x="29.7" width="0.53" height="73.74"/><rect class="cls-15" x="30.23" width="0.53" height="73.74"/><rect class="cls-16" x="30.76" width="0.53" height="73.74"/><rect class="cls-17" x="31.29" width="0.53" height="73.74"/><rect class="cls-18" x="31.83" width="0.53" height="73.74"/><rect class="cls-19" x="32.36" width="0.53" height="73.74"/><rect class="cls-20" x="32.89" width="0.53" height="73.74"/><rect class="cls-21" x="33.42" width="0.53" height="73.74"/><rect class="cls-22" x="33.95" width="0.53" height="73.74"/><rect class="cls-23" x="34.48" width="0.53" height="73.74"/><rect class="cls-24" x="35.01" width="0.53" height="73.74"/><rect class="cls-25" x="35.54" width="0.53" height="73.74"/><rect class="cls-26" x="36.07" width="0.53" height="73.74"/><rect class="cls-27" x="36.6" width="0.53" height="73.74"/><rect class="cls-28" x="37.13" width="0.53" height="73.74"/><rect class="cls-29" x="37.66" width="0.53" height="73.74"/><rect class="cls-30" x="38.19" width="0.53" height="73.74"/><rect class="cls-31" x="38.72" width="0.53" height="73.74"/><rect class="cls-32" x="39.25" width="0.53" height="73.74"/><rect class="cls-33" x="39.78" width="0.53" height="73.74"/><rect class="cls-34" x="40.31" width="0.53" height="73.74"/><rect class="cls-35" x="40.84" width="0.53" height="73.74"/><rect class="cls-36" x="41.37" width="0.53" height="73.74"/><rect class="cls-37" x="41.9" width="0.53" height="73.74"/><rect class="cls-38" x="42.43" width="0.53" height="73.74"/><rect class="cls-39" x="42.96" width="0.53" height="73.74"/><rect class="cls-40" x="43.49" width="0.53" height="73.74"/><rect class="cls-41" x="44.02" width="0.53" height="73.74"/><rect class="cls-42" x="44.56" width="0.53" height="73.74"/><rect class="cls-43" x="45.09" width="0.53" height="73.74"/><rect class="cls-44" x="45.62" width="0.53" height="73.74"/><rect class="cls-45" x="46.15" width="0.53" height="73.74"/><rect class="cls-46" x="46.68" width="0.53" height="73.74"/><rect class="cls-47" x="47.21" width="0.53" height="73.74"/><rect class="cls-48" x="47.74" width="0.53" height="73.74"/><rect class="cls-49" x="48.27" width="0.53" height="73.74"/><rect class="cls-50" x="48.8" width="0.53" height="73.74"/><rect class="cls-51" x="49.33" width="0.53" height="73.74"/><rect class="cls-52" x="49.86" width="0.53" height="73.74"/><rect class="cls-53" x="50.39" width="0.53" height="73.74"/><rect class="cls-54" x="50.92" width="0.53" height="73.74"/><rect class="cls-55" x="51.45" width="0.53" height="73.74"/><rect class="cls-56" x="51.98" width="0.53" height="73.74"/><rect class="cls-57" x="52.51" width="0.53" height="73.74"/><rect class="cls-58" x="53.04" width="0.53" height="73.74"/><rect class="cls-59" x="53.57" width="0.53" height="73.74"/><rect class="cls-60" x="54.1" width="0.53" height="73.74"/><rect class="cls-61" x="54.63" width="0.53" height="73.74"/><rect class="cls-62" x="55.16" width="0.53" height="73.74"/><rect class="cls-63" x="55.69" width="0.53" height="73.74"/><rect class="cls-64" x="56.22" width="0.53" height="73.74"/><rect class="cls-110" x="56.75" width="0.53" height="73.74"/><rect class="cls-111" x="57.29" width="0.53" height="73.74"/><rect class="cls-112" x="57.82" width="0.53" height="73.74"/><rect class="cls-113" x="58.35" width="0.53" height="73.74"/><rect class="cls-114" x="58.88" width="0.53" height="73.74"/><rect class="cls-115" x="59.41" width="0.53" height="73.74"/><rect class="cls-116" x="59.94" width="0.53" height="73.74"/><rect class="cls-117" x="60.47" width="0.53" height="73.74"/><rect class="cls-118" x="61" width="0.53" height="73.74"/><rect class="cls-119" x="61.53" width="0.53" height="73.74"/><rect class="cls-120" x="62.06" width="0.53" height="73.74"/><rect class="cls-121" x="62.59" width="0.53" height="73.74"/><rect class="cls-122" x="63.12" width="0.53" height="73.74"/><rect class="cls-123" x="63.65" width="0.53" height="73.74"/><rect class="cls-124" x="64.18" width="0.53" height="73.74"/><rect class="cls-125" x="64.71" width="0.53" height="73.74"/><rect class="cls-126" x="65.24" width="0.53" height="73.74"/><rect class="cls-127" x="65.77" width="0.53" height="73.74"/><rect class="cls-128" x="66.3" width="0.53" height="73.74"/><rect class="cls-129" x="66.83" width="0.53" height="73.74"/><rect class="cls-130" x="67.36" width="0.53" height="73.74"/><rect class="cls-131" x="67.89" width="0.53" height="73.74"/><rect class="cls-132" x="68.42" width="0.53" height="73.74"/><rect class="cls-133" x="68.95" width="0.53" height="73.74"/><rect class="cls-134" x="69.48" width="0.53" height="73.74"/><rect class="cls-135" x="70.02" width="0.53" height="73.74"/><rect class="cls-136" x="70.55" width="0.53" height="73.74"/><rect class="cls-137" x="71.08" width="0.53" height="73.74"/><rect class="cls-138" x="71.61" width="0.53" height="73.74"/><rect class="cls-138" x="72.14" width="0.2" height="73.74"/></g><g class="cls-139"><rect class="cls-65" x="0.28" y="42.28" width="0.5" height="39.29"/><rect class="cls-66" x="0.78" y="42.28" width="0.5" height="39.29"/><rect class="cls-67" x="1.28" y="42.28" width="0.5" height="39.29"/><rect class="cls-68" x="1.78" y="42.28" width="0.5" height="39.29"/><rect class="cls-69" x="2.28" y="42.28" width="0.5" height="39.29"/><rect class="cls-70" x="2.79" y="42.28" width="0.5" height="39.29"/><rect class="cls-71" x="3.29" y="42.28" width="0.5" height="39.29"/><rect class="cls-72" x="3.79" y="42.28" width="0.5" height="39.29"/><rect class="cls-73" x="4.29" y="42.28" width="0.5" height="39.29"/><rect class="cls-74" x="4.79" y="42.28" width="0.5" height="39.29"/><rect class="cls-75" x="5.29" y="42.28" width="0.5" height="39.29"/><rect class="cls-76" x="5.8" y="42.28" width="0.5" height="39.29"/><rect class="cls-77" x="6.3" y="42.28" width="0.5" height="39.29"/><rect class="cls-78" x="6.8" y="42.28" width="0.5" height="39.29"/><rect class="cls-79" x="7.3" y="42.28" width="0.5" height="39.29"/><rect class="cls-80" x="7.8" y="42.28" width="0.5" height="39.29"/><rect class="cls-81" x="8.31" y="42.28" width="0.5" height="39.29"/><rect class="cls-82" x="8.81" y="42.28" width="0.5" height="39.29"/><rect class="cls-83" x="9.31" y="42.28" width="0.5" height="39.29"/><rect class="cls-84" x="9.81" y="42.28" width="0.5" height="39.29"/><rect class="cls-85" x="10.31" y="42.28" width="0.5" height="39.29"/><rect class="cls-86" x="10.82" y="42.28" width="0.5" height="39.29"/><rect class="cls-87" x="11.32" y="42.28" width="0.5" height="39.29"/><rect class="cls-88" x="11.82" y="42.28" width="0.5" height="39.29"/><rect class="cls-89" x="12.32" y="42.28" width="0.5" height="39.29"/><rect class="cls-90" x="12.82" y="42.28" width="0.5" height="39.29"/><rect class="cls-91" x="13.33" y="42.28" width="0.5" height="39.29"/><rect class="cls-92" x="13.83" y="42.28" width="0.5" height="39.29"/><rect class="cls-93" x="14.33" y="42.28" width="0.5" height="39.29"/><rect class="cls-94" x="14.83" y="42.28" width="0.5" height="39.29"/><rect class="cls-95" x="15.33" y="42.28" width="0.5" height="39.29"/><rect class="cls-96" x="15.83" y="42.28" width="0.5" height="39.29"/><rect class="cls-97" x="16.34" y="42.28" width="0.5" height="39.29"/><rect class="cls-98" x="16.84" y="42.28" width="0.5" height="39.29"/><rect class="cls-99" x="17.34" y="42.28" width="0.5" height="39.29"/><rect class="cls-100" x="17.84" y="42.28" width="0.5" height="39.29"/><rect class="cls-101" x="18.34" y="42.28" width="0.5" height="39.29"/><rect class="cls-102" x="18.85" y="42.28" width="0.5" height="39.29"/><rect class="cls-103" x="19.35" y="42.28" width="0.5" height="39.29"/><rect class="cls-104" x="19.85" y="42.28" width="0.5" height="39.29"/><rect class="cls-105" x="20.35" y="42.28" width="0.5" height="39.29"/><rect class="cls-106" x="20.85" y="42.28" width="0.5" height="39.29"/><rect class="cls-107" x="21.36" y="42.28" width="0.5" height="39.29"/><rect class="cls-108" x="21.86" y="42.28" width="0.5" height="39.29"/><rect class="cls-109" x="22.36" y="42.28" width="0.5" height="39.29"/><rect class="cls-3" x="22.86" y="42.28" width="0.5" height="39.29"/><rect class="cls-4" x="23.36" y="42.28" width="0.5" height="39.29"/><rect class="cls-5" x="23.86" y="42.28" width="0.5" height="39.29"/><rect class="cls-6" x="24.37" y="42.28" width="0.5" height="39.29"/><rect class="cls-7" x="24.87" y="42.28" width="0.5" height="39.29"/><rect class="cls-8" x="25.37" y="42.28" width="0.5" height="39.29"/><rect class="cls-9" x="25.87" y="42.28" width="0.5" height="39.29"/><rect class="cls-10" x="26.37" y="42.28" width="0.5" height="39.29"/><rect class="cls-11" x="26.88" y="42.28" width="0.5" height="39.29"/><rect class="cls-12" x="27.38" y="42.28" width="0.5" height="39.29"/><rect class="cls-13" x="27.88" y="42.28" width="0.5" height="39.29"/><rect class="cls-14" x="28.38" y="42.28" width="0.5" height="39.29"/><rect class="cls-15" x="28.88" y="42.28" width="0.5" height="39.29"/><rect class="cls-16" x="29.39" y="42.28" width="0.5" height="39.29"/><rect class="cls-17" x="29.89" y="42.28" width="0.5" height="39.29"/><rect class="cls-18" x="30.39" y="42.28" width="0.5" height="39.29"/><rect class="cls-19" x="30.89" y="42.28" width="0.5" height="39.29"/><rect class="cls-20" x="31.39" y="42.28" width="0.5" height="39.29"/><rect class="cls-21" x="31.89" y="42.28" width="0.5" height="39.29"/><rect class="cls-22" x="32.4" y="42.28" width="0.5" height="39.29"/><rect class="cls-23" x="32.9" y="42.28" width="0.5" height="39.29"/><rect class="cls-24" x="33.4" y="42.28" width="0.5" height="39.29"/><rect class="cls-25" x="33.9" y="42.28" width="0.5" height="39.29"/><rect class="cls-26" x="34.4" y="42.28" width="0.5" height="39.29"/><rect class="cls-27" x="34.91" y="42.28" width="0.5" height="39.29"/><rect class="cls-28" x="35.41" y="42.28" width="0.5" height="39.29"/><rect class="cls-29" x="35.91" y="42.28" width="0.5" height="39.29"/><rect class="cls-30" x="36.41" y="42.28" width="0.5" height="39.29"/><rect class="cls-31" x="36.91" y="42.28" width="0.5" height="39.29"/><rect class="cls-32" x="37.42" y="42.28" width="0.5" height="39.29"/><rect class="cls-33" x="37.92" y="42.28" width="0.5" height="39.29"/><rect class="cls-34" x="38.42" y="42.28" width="0.5" height="39.29"/><rect class="cls-35" x="38.92" y="42.28" width="0.5" height="39.29"/><rect class="cls-36" x="39.42" y="42.28" width="0.5" height="39.29"/><rect class="cls-37" x="39.93" y="42.28" width="0.5" height="39.29"/><rect class="cls-38" x="40.43" y="42.28" width="0.5" height="39.29"/><rect class="cls-39" x="40.93" y="42.28" width="0.5" height="39.29"/><rect class="cls-40" x="41.43" y="42.28" width="0.5" height="39.29"/><rect class="cls-41" x="41.93" y="42.28" width="0.5" height="39.29"/><rect class="cls-42" x="42.43" y="42.28" width="0.5" height="39.29"/><rect class="cls-43" x="42.94" y="42.28" width="0.5" height="39.29"/><rect class="cls-44" x="43.44" y="42.28" width="0.5" height="39.29"/><rect class="cls-45" x="43.94" y="42.28" width="0.5" height="39.29"/><rect class="cls-46" x="44.44" y="42.28" width="0.5" height="39.29"/><rect class="cls-47" x="44.94" y="42.28" width="0.5" height="39.29"/><rect class="cls-48" x="45.45" y="42.28" width="0.5" height="39.29"/><rect class="cls-49" x="45.95" y="42.28" width="0.5" height="39.29"/><rect class="cls-50" x="46.45" y="42.28" width="0.5" height="39.29"/><rect class="cls-51" x="46.95" y="42.28" width="0.5" height="39.29"/><rect class="cls-52" x="47.45" y="42.28" width="0.5" height="39.29"/><rect class="cls-53" x="47.96" y="42.28" width="0.5" height="39.29"/><rect class="cls-54" x="48.46" y="42.28" width="0.5" height="39.29"/><rect class="cls-55" x="48.96" y="42.28" width="0.5" height="39.29"/><rect class="cls-56" x="49.46" y="42.28" width="0.5" height="39.29"/><rect class="cls-57" x="49.96" y="42.28" width="0.5" height="39.29"/><rect class="cls-58" x="50.46" y="42.28" width="0.5" height="39.29"/><rect class="cls-59" x="50.97" y="42.28" width="0.5" height="39.29"/><rect class="cls-60" x="51.47" y="42.28" width="0.5" height="39.29"/><rect class="cls-61" x="51.97" y="42.28" width="0.5" height="39.29"/><rect class="cls-62" x="52.47" y="42.28" width="0.5" height="39.29"/><rect class="cls-63" x="52.97" y="42.28" width="0.5" height="39.29"/><rect class="cls-64" x="53.48" y="42.28" width="0.5" height="39.29"/><rect class="cls-110" x="53.98" y="42.28" width="0.5" height="39.29"/><rect class="cls-111" x="54.48" y="42.28" width="0.5" height="39.29"/><rect class="cls-112" x="54.98" y="42.28" width="0.5" height="39.29"/><rect class="cls-113" x="55.48" y="42.28" width="0.5" height="39.29"/><rect class="cls-114" x="55.99" y="42.28" width="0.5" height="39.29"/><rect class="cls-115" x="56.49" y="42.28" width="0.5" height="39.29"/><rect class="cls-116" x="56.99" y="42.28" width="0.5" height="39.29"/><rect class="cls-117" x="57.49" y="42.28" width="0.5" height="39.29"/><rect class="cls-118" x="57.99" y="42.28" width="0.5" height="39.29"/><rect class="cls-119" x="58.49" y="42.28" width="0.5" height="39.29"/><rect class="cls-120" x="59" y="42.28" width="0.5" height="39.29"/><rect class="cls-121" x="59.5" y="42.28" width="0.5" height="39.29"/><rect class="cls-122" x="60" y="42.28" width="0.5" height="39.29"/><rect class="cls-123" x="60.5" y="42.28" width="0.5" height="39.29"/><rect class="cls-124" x="61" y="42.28" width="0.5" height="39.29"/><rect class="cls-125" x="61.51" y="42.28" width="0.5" height="39.29"/><rect class="cls-126" x="62.01" y="42.28" width="0.5" height="39.29"/><rect class="cls-127" x="62.51" y="42.28" width="0.5" height="39.29"/><rect class="cls-128" x="63.01" y="42.28" width="0.5" height="39.29"/><rect class="cls-129" x="63.51" y="42.28" width="0.5" height="39.29"/><rect class="cls-130" x="64.02" y="42.28" width="0.5" height="39.29"/><rect class="cls-131" x="64.52" y="42.28" width="0.5" height="39.29"/><rect class="cls-132" x="65.02" y="42.28" width="0.5" height="39.29"/><rect class="cls-133" x="65.52" y="42.28" width="0.5" height="39.29"/><rect class="cls-134" x="66.02" y="42.28" width="0.5" height="39.29"/><rect class="cls-135" x="66.52" y="42.28" width="0.5" height="39.29"/><rect class="cls-136" x="67.03" y="42.28" width="0.5" height="39.29"/><rect class="cls-137" x="67.53" y="42.28" width="0.5" height="39.29"/><rect class="cls-138" x="68.03" y="42.28" width="0.5" height="39.29"/><rect class="cls-138" x="68.53" y="42.28" width="0.39" height="39.29"/></g><g class="cls-140"><rect class="cls-65" x="38.53" y="46.22" width="0.01"/><rect class="cls-66" x="38.55" y="46.22" width="0.01"/><rect class="cls-67" x="38.56" y="46.22" width="0.01"/><rect class="cls-68" x="38.57" y="46.22" width="0.01"/><rect class="cls-69" x="38.59" y="46.22" width="0.01"/><rect class="cls-70" x="38.6" y="46.22" width="0.01"/><rect class="cls-71" x="38.61" y="46.22" width="0.01"/><rect class="cls-72" x="38.63" y="46.22" width="0.01"/><rect class="cls-73" x="38.64" y="46.22" width="0.01"/><rect class="cls-74" x="38.65" y="46.22" width="0.01"/><rect class="cls-75" x="38.67" y="46.22" width="0.01"/><rect class="cls-76" x="38.68" y="46.22" width="0.01"/><rect class="cls-77" x="38.69" y="46.22" width="0.01"/><rect class="cls-78" x="38.71" y="46.22" width="0.01"/><rect class="cls-79" x="38.72" y="46.22" width="0.01"/><rect class="cls-80" x="38.73" y="46.22" width="0.01"/><rect class="cls-81" x="38.75" y="46.22" width="0.01"/><rect class="cls-82" x="38.76" y="46.22" width="0.01"/><rect class="cls-83" x="38.77" y="46.22" width="0.01"/><rect class="cls-84" x="38.79" y="46.22" width="0.01"/><rect class="cls-85" x="38.8" y="46.22" width="0.01"/><rect class="cls-86" x="38.81" y="46.22" width="0.01"/><rect class="cls-87" x="38.83" y="46.22" width="0.01"/><rect class="cls-88" x="38.84" y="46.22" width="0.01"/><rect class="cls-89" x="38.85" y="46.22" width="0.01"/><rect class="cls-90" x="38.86" y="46.22" width="0.01"/><rect class="cls-91" x="38.88" y="46.22" width="0.01"/><rect class="cls-92" x="38.89" y="46.22" width="0.01"/><rect class="cls-93" x="38.9" y="46.22" width="0.01"/><rect class="cls-94" x="38.92" y="46.22" width="0.01"/><rect class="cls-95" x="38.93" y="46.22" width="0.01"/><rect class="cls-96" x="38.94" y="46.22" width="0.01"/><rect class="cls-97" x="38.96" y="46.22" width="0.01"/><rect class="cls-98" x="38.97" y="46.22" width="0.01"/><rect class="cls-99" x="38.98" y="46.22" width="0.01"/><rect class="cls-100" x="39" y="46.22" width="0.01"/><rect class="cls-101" x="39.01" y="46.22" width="0.01"/><rect class="cls-102" x="39.02" y="46.22" width="0.01"/><rect class="cls-103" x="39.04" y="46.22" width="0.01"/><rect class="cls-104" x="39.05" y="46.22" width="0.01"/><rect class="cls-105" x="39.06" y="46.22" width="0.01"/><rect class="cls-106" x="39.08" y="46.22" width="0.01"/><rect class="cls-107" x="39.09" y="46.22" width="0.01"/><rect class="cls-108" x="39.1" y="46.22" width="0.01"/><rect class="cls-109" x="39.12" y="46.22" width="0.01"/><rect class="cls-3" x="39.13" y="46.22" width="0.01"/><rect class="cls-4" x="39.14" y="46.22" width="0.01"/><rect class="cls-5" x="39.16" y="46.22" width="0.01"/><rect class="cls-6" x="39.17" y="46.22" width="0.01"/><rect class="cls-7" x="39.18" y="46.22" width="0.01"/><rect class="cls-8" x="39.2" y="46.22" width="0.01"/><rect class="cls-9" x="39.21" y="46.22" width="0.01"/><rect class="cls-10" x="39.22" y="46.22" width="0.01"/><rect class="cls-11" x="39.24" y="46.22" width="0.01"/><rect class="cls-12" x="39.25" y="46.22" width="0.01"/><rect class="cls-13" x="39.26" y="46.22" width="0.01"/><rect class="cls-14" x="39.28" y="46.22" width="0.01"/><rect class="cls-15" x="39.29" y="46.22" width="0.01"/><rect class="cls-16" x="39.3" y="46.22" width="0.01"/><rect class="cls-17" x="39.32" y="46.22" width="0.01"/><rect class="cls-18" x="39.33" y="46.22" width="0.01"/><rect class="cls-19" x="39.34" y="46.22" width="0.01"/><rect class="cls-20" x="39.36" y="46.22" width="0.01"/><rect class="cls-21" x="39.37" y="46.22" width="0.01"/><rect class="cls-22" x="39.38" y="46.22" width="0.01"/><rect class="cls-23" x="39.4" y="46.22" width="0.01"/><rect class="cls-24" x="39.41" y="46.22" width="0.01"/><rect class="cls-25" x="39.42" y="46.22" width="0.01"/><rect class="cls-26" x="39.44" y="46.22" width="0.01"/><rect class="cls-27" x="39.45" y="46.22" width="0.01"/><rect class="cls-28" x="39.46" y="46.22" width="0.01"/><rect class="cls-29" x="39.47" y="46.22" width="0.01"/><rect class="cls-30" x="39.49" y="46.22" width="0.01"/><rect class="cls-31" x="39.5" y="46.22" width="0.01"/><rect class="cls-32" x="39.51" y="46.22" width="0.01"/><rect class="cls-33" x="39.53" y="46.22" width="0.01"/><rect class="cls-34" x="39.54" y="46.22" width="0.01"/><rect class="cls-35" x="39.55" y="46.22" width="0.01"/><rect class="cls-36" x="39.57" y="46.22" width="0.01"/><rect class="cls-37" x="39.58" y="46.22" width="0.01"/><rect class="cls-38" x="39.59" y="46.22" width="0.01"/><rect class="cls-39" x="39.61" y="46.22" width="0.01"/><rect class="cls-40" x="39.62" y="46.22" width="0.01"/><rect class="cls-41" x="39.63" y="46.22" width="0.01"/><rect class="cls-42" x="39.65" y="46.22" width="0.01"/><rect class="cls-43" x="39.66" y="46.22" width="0.01"/><rect class="cls-44" x="39.67" y="46.22" width="0.01"/><rect class="cls-45" x="39.69" y="46.22" width="0.01"/><rect class="cls-46" x="39.7" y="46.22" width="0.01"/><rect class="cls-47" x="39.71" y="46.22" width="0.01"/><rect class="cls-48" x="39.73" y="46.22" width="0.01"/><rect class="cls-49" x="39.74" y="46.22" width="0.01"/><rect class="cls-50" x="39.75" y="46.22" width="0.01"/><rect class="cls-51" x="39.77" y="46.22" width="0.01"/><rect class="cls-52" x="39.78" y="46.22" width="0.01"/><rect class="cls-53" x="39.79" y="46.22" width="0.01"/><rect class="cls-54" x="39.81" y="46.22" width="0.01"/><rect class="cls-55" x="39.82" y="46.22" width="0.01"/><rect class="cls-56" x="39.83" y="46.22" width="0.01"/><rect class="cls-57" x="39.85" y="46.22" width="0.01"/><rect class="cls-58" x="39.86" y="46.22" width="0.01"/><rect class="cls-59" x="39.87" y="46.22" width="0.01"/><rect class="cls-60" x="39.89" y="46.22" width="0.01"/><rect class="cls-61" x="39.9" y="46.22" width="0.01"/><rect class="cls-62" x="39.91" y="46.22" width="0.01"/><rect class="cls-63" x="39.93" y="46.22" width="0.01"/><rect class="cls-64" x="39.94" y="46.22" width="0.01"/><rect class="cls-110" x="39.95" y="46.22" width="0.01"/><rect class="cls-111" x="39.97" y="46.22" width="0.01"/><rect class="cls-112" x="39.98" y="46.22" width="0.01"/><rect class="cls-113" x="39.99" y="46.22" width="0.01"/><rect class="cls-114" x="40.01" y="46.22" width="0.01"/><rect class="cls-115" x="40.02" y="46.22" width="0.01"/><rect class="cls-116" x="40.03" y="46.22" width="0.01"/><rect class="cls-117" x="40.04" y="46.22" width="0.01"/><rect class="cls-118" x="40.06" y="46.22" width="0.01"/><rect class="cls-119" x="40.07" y="46.22" width="0.01"/><rect class="cls-120" x="40.08" y="46.22" width="0.01"/><rect class="cls-121" x="40.1" y="46.22" width="0.01"/><rect class="cls-122" x="40.11" y="46.22" width="0.01"/><rect class="cls-123" x="40.12" y="46.22" width="0.01"/><rect class="cls-124" x="40.14" y="46.22" width="0.01"/><rect class="cls-125" x="40.15" y="46.22" width="0.01"/><rect class="cls-126" x="40.16" y="46.22" width="0.01"/><rect class="cls-127" x="40.18" y="46.22" width="0.01"/><rect class="cls-128" x="40.19" y="46.22" width="0.01"/><rect class="cls-129" x="40.2" y="46.22" width="0.01"/><rect class="cls-130" x="40.22" y="46.22" width="0.01"/><rect class="cls-131" x="40.23" y="46.22" width="0.01"/><rect class="cls-132" x="40.24" y="46.22" width="0.01"/><rect class="cls-133" x="40.26" y="46.22" width="0.01"/><rect class="cls-134" x="40.27" y="46.22" width="0.01"/><rect class="cls-135" x="40.28" y="46.22" width="0.01"/><rect class="cls-136" x="40.3" y="46.22" width="0.01"/><rect class="cls-137" x="40.31" y="46.22" width="0.01"/><rect class="cls-138" x="40.32" y="46.22" width="0.01"/></g></g><path class="cls-141" d="M83.1,15.58h9.12a11,11,0,0,1,3.64.54A7.5,7.5,0,0,1,98.4,17.6a6,6,0,0,1,1.51,2.18,7,7,0,0,1,.51,2.66,5.59,5.59,0,0,1-.45,2.3,7.17,7.17,0,0,1-1.09,1.76,5.7,5.7,0,0,1-1.43,1.19,4.94,4.94,0,0,1-1.43.56,9.26,9.26,0,0,1,1.81.5,6.14,6.14,0,0,1,3.39,3.15,6.79,6.79,0,0,1,.61,3.05,7.48,7.48,0,0,1-.79,3.61,6.36,6.36,0,0,1-2.14,2.32,8.87,8.87,0,0,1-3.21,1.25,19.85,19.85,0,0,1-4,.37H83.1ZM91.66,26.8a7.66,7.66,0,0,0,1.77-.22,5.25,5.25,0,0,0,1.62-.71,3.79,3.79,0,0,0,1.17-1.25,3.71,3.71,0,0,0,.44-1.86,3.87,3.87,0,0,0-.44-2,3.45,3.45,0,0,0-1.17-1.17,4.58,4.58,0,0,0-1.62-.56,11.73,11.73,0,0,0-1.77-.14H86.85V26.8Zm-.12,12.35A20.75,20.75,0,0,0,93.72,39a6.34,6.34,0,0,0,2.07-.57,3.89,3.89,0,0,0,1.56-1.31,4.18,4.18,0,0,0,.6-2.4,4.18,4.18,0,0,0-.58-2.34A4.49,4.49,0,0,0,95.88,31a6.18,6.18,0,0,0-2-.7,13,13,0,0,0-2.1-.18H86.85v9Z"/><path class="cls-141" d="M123.46,39.75a13.34,13.34,0,0,1-1,.93,8,8,0,0,1-1.68,1.09,12.92,12.92,0,0,1-2.42.91,12.11,12.11,0,0,1-3.16.38,10.55,10.55,0,0,1-4-.73,8.88,8.88,0,0,1-3.11-2,9.25,9.25,0,0,1-2-3.19,11.53,11.53,0,0,1-.7-4.12,10.86,10.86,0,0,1,.68-3.85A9.36,9.36,0,0,1,108,26a9.25,9.25,0,0,1,3-2.08,9.14,9.14,0,0,1,3.77-.76,8.81,8.81,0,0,1,4.16.92,8.18,8.18,0,0,1,2.84,2.47,10.5,10.5,0,0,1,1.64,3.51,16,16,0,0,1,.52,4.11H109.13A5.78,5.78,0,0,0,111,38.3,6.55,6.55,0,0,0,113,39.51a5.92,5.92,0,0,0,2.3.44,8.34,8.34,0,0,0,3.91-.8,8.16,8.16,0,0,0,2.22-1.58Zm-3.27-8.27a6.11,6.11,0,0,0-1.53-3.71,4.92,4.92,0,0,0-3.88-1.54,5.75,5.75,0,0,0-2.32.45,5.53,5.53,0,0,0-1.76,1.17,5.11,5.11,0,0,0-1.12,1.67,5.6,5.6,0,0,0-.45,2Z"/><path class="cls-141" d="M128,42.5V24.92c0-.25,0-.65,0-1.19h3.47l.12,2.83c.24-.33.54-.68.89-1.07a6,6,0,0,1,1.29-1.07,7.51,7.51,0,0,1,4.12-1.13c2.44,0,4.26.71,5.44,2.14a8.77,8.77,0,0,1,1.78,5.81V42.5h-3.63v-11a5.57,5.57,0,0,0-1.13-3.85,4.1,4.1,0,0,0-3.19-1.24,4.89,4.89,0,0,0-2.62.65,5.06,5.06,0,0,0-1.68,1.67,7.52,7.52,0,0,0-.91,2.35,12.5,12.5,0,0,0-.28,2.68V42.5Z"/><path class="cls-141" d="M167,39.75a11.53,11.53,0,0,1-1,.93,7.91,7.91,0,0,1-1.67,1.09,13.2,13.2,0,0,1-2.42.91,12.24,12.24,0,0,1-3.17.38,10.53,10.53,0,0,1-4-.73,8.79,8.79,0,0,1-3.11-2,9.25,9.25,0,0,1-2-3.19A11.53,11.53,0,0,1,149,33a10.65,10.65,0,0,1,.69-3.85A9.2,9.2,0,0,1,151.63,26a9.32,9.32,0,0,1,3-2.08,9.22,9.22,0,0,1,3.78-.76,8.77,8.77,0,0,1,4.15.92,8.21,8.21,0,0,1,2.85,2.47A10.48,10.48,0,0,1,167,30.07a16,16,0,0,1,.53,4.11H152.72a5.63,5.63,0,0,0,.54,2.3,6,6,0,0,0,1.35,1.82,6.68,6.68,0,0,0,1.94,1.21,6,6,0,0,0,2.3.44,8.39,8.39,0,0,0,3.92-.8A8.16,8.16,0,0,0,165,37.57Zm-3.27-8.27a6,6,0,0,0-1.53-3.71,4.9,4.9,0,0,0-3.87-1.54,5.72,5.72,0,0,0-2.32.45,5.42,5.42,0,0,0-1.76,1.17,5.3,5.3,0,0,0-1.13,1.67,5.37,5.37,0,0,0-.44,2Z"/><path class="cls-141" d="M173,26.76h-3.39v-3H173v-.81a9.36,9.36,0,0,1,.66-3.71,6.48,6.48,0,0,1,1.84-2.48,7.47,7.47,0,0,1,2.74-1.39,12.29,12.29,0,0,1,3.39-.45,12.46,12.46,0,0,1,3.47.53A10.59,10.59,0,0,1,188.31,17l-1.65,2.7a11,11,0,0,0-2.24-1.17,7.93,7.93,0,0,0-2.81-.48,6,6,0,0,0-3.69,1c-.88.66-1.31,1.82-1.31,3.49v1.25h11.74V42.5h-3.63V26.76h-8.11V42.5H173Z"/><path class="cls-141" d="M194.93,26.76h-3.39v-3h3.39V17.6h3.63v6.13h5.49v3h-5.49V36a5,5,0,0,0,.71,3.11,2.46,2.46,0,0,0,2,.84,4,4,0,0,0,1.73-.32,5.09,5.09,0,0,0,1.37-1L206,40.88a7.67,7.67,0,0,1-2.4,1.64,7.88,7.88,0,0,1-2.93.5,5.51,5.51,0,0,1-4.38-1.61q-1.4-1.62-1.39-5Z"/><path class="cls-141" d="M144.24,48.28h9.81a11.4,11.4,0,0,1,4.28.73,8.63,8.63,0,0,1,2.92,1.92,7.43,7.43,0,0,1,1.7,2.76,10,10,0,0,1,.54,3.27,9.1,9.1,0,0,1-.75,3.82,7.76,7.76,0,0,1-2,2.72,8.72,8.72,0,0,1-2.93,1.65,10.57,10.57,0,0,1-3.47.57h-4.16V75.2h-5.93Zm9.49,12.52a3.58,3.58,0,0,0,2.68-1,3.72,3.72,0,0,0,1-2.69,3.86,3.86,0,0,0-1-2.76,3.55,3.55,0,0,0-2.7-1.07h-3.52V60.8Z"/><path class="cls-141" d="M177.25,73.43a6.27,6.27,0,0,1-2.44,1.73,8.46,8.46,0,0,1-3.29.61,9,9,0,0,1-2.12-.28,6.43,6.43,0,0,1-2.06-.95,5.41,5.41,0,0,1-1.57-1.8,5.71,5.71,0,0,1-.62-2.82,6.38,6.38,0,0,1,.66-3,6.28,6.28,0,0,1,1.84-2.16,8.4,8.4,0,0,1,2.76-1.31,12.63,12.63,0,0,1,3.45-.44c.67,0,1.35,0,2,0a6.94,6.94,0,0,1,1.35.12v-.41a2.39,2.39,0,0,0-.3-1.23,2.73,2.73,0,0,0-.81-.85,3.49,3.49,0,0,0-1.15-.48,6.7,6.7,0,0,0-1.37-.14,9.2,9.2,0,0,0-3.21.48,10.85,10.85,0,0,0-2.16,1.09l-2.38-3.55c.41-.29.86-.59,1.37-.89a10.77,10.77,0,0,1,1.82-.8,14.27,14.27,0,0,1,2.36-.59,18,18,0,0,1,3-.22q4.32,0,6.37,2.32a9,9,0,0,1,2.06,6.24v11h-5.45Zm0-6.58c-.13,0-.39-.06-.76-.1a12.5,12.5,0,0,0-1.3-.06,6.47,6.47,0,0,0-3.43.68,2.22,2.22,0,0,0-1,1.94q0,2.34,2.82,2.34a4.15,4.15,0,0,0,1.35-.22,3.65,3.65,0,0,0,1.17-.63,3.13,3.13,0,0,0,.83-1,3,3,0,0,0,.32-1.42Z"/><path class="cls-141" d="M187.3,78.19a6.62,6.62,0,0,0,1.07.65,3,3,0,0,0,1.27.28,2.21,2.21,0,0,0,1.56-.59,5.71,5.71,0,0,0,1.19-2L193,75l-8.63-18.72h6.61l4.73,11.94,4.27-11.94h6.18l-7.75,18.8-1.27,3.13A12.77,12.77,0,0,1,195.56,81a7.44,7.44,0,0,1-2.22,2,6.48,6.48,0,0,1-3.29.77,9,9,0,0,1-2.79-.41,7.69,7.69,0,0,1-2.3-1.17Z"/></g></g></svg>