<svg xmlns="http://www.w3.org/2000/svg" xmlns:xlink="http://www.w3.org/1999/xlink" viewBox="0 0 85.24 34.64"><defs><style>.cls-1{fill:none;}.cls-2{clip-path:url(#clip-path);}.cls-3{fill:#f75b13;}.cls-4{fill:#f75a12;}.cls-5{fill:#f75912;}.cls-6{fill:#f75812;}.cls-7{fill:#f75712;}.cls-8{fill:#f75612;}.cls-9{fill:#f75511;}.cls-10{fill:#f75411;}.cls-11{fill:#f75311;}.cls-12{fill:#f75211;}.cls-13{fill:#f75111;}.cls-14{fill:#f85010;}.cls-15{fill:#f84f10;}.cls-16{fill:#f84e10;}.cls-17{fill:#f84d10;}.cls-18{fill:#f84c10;}.cls-19{fill:#f84b0f;}.cls-20{fill:#f84a0f;}.cls-21{fill:#f8490f;}.cls-22{fill:#f8480f;}.cls-23{fill:#f8470f;}.cls-24{fill:#f8460e;}.cls-25{fill:#f8450e;}.cls-26{fill:#f9430e;}.cls-27{fill:#f9420e;}.cls-28{fill:#f9410d;}.cls-29{fill:#f9400d;}.cls-30{fill:#f93f0d;}.cls-31{fill:#f93e0d;}.cls-32{fill:#f93d0d;}.cls-33{fill:#f93c0c;}.cls-34{fill:#f93b0c;}.cls-35{fill:#f93a0c;}.cls-36{fill:#f9390c;}.cls-37{fill:#f9380c;}.cls-38{fill:#fa370b;}.cls-39{fill:#fa360b;}.cls-40{fill:#fa350b;}.cls-41{fill:#fa340b;}.cls-42{fill:#fa330b;}.cls-43{fill:#fa320a;}.cls-44{fill:#fa310a;}.cls-45{fill:#fa300a;}.cls-46{fill:#fa2f0a;}.cls-47{fill:#fa2e0a;}.cls-48{fill:#fa2d09;}.cls-49{fill:#fa2c09;}.cls-50{fill:#fa2b09;}.cls-51{fill:#fb2a09;}.cls-52{fill:#fb2909;}.cls-53{fill:#fb2808;}.cls-54{fill:#fb2708;}.cls-55{fill:#fb2608;}.cls-56{fill:#fb2508;}.cls-57{fill:#fb2407;}.cls-58{fill:#fb2307;}.cls-59{fill:#fb2207;}.cls-60{fill:#fb2107;}.cls-61{fill:#fb2007;}.cls-62{fill:#fb1f06;}.cls-63{fill:#fc1e06;}.cls-64{fill:#fc1d06;}.cls-65{fill:#f3871c;}.cls-66{fill:#f3861c;}.cls-67{fill:#f3851c;}.cls-68{fill:#f3841b;}.cls-69{fill:#f3831b;}.cls-70{fill:#f3821b;}.cls-71{fill:#f3811b;}.cls-72{fill:#f4801b;}.cls-73{fill:#f4801a;}.cls-74{fill:#f47f1a;}.cls-75{fill:#f47e1a;}.cls-76{fill:#f47d1a;}.cls-77{fill:#f47c1a;}.cls-78{fill:#f47b19;}.cls-79{fill:#f47a19;}.cls-80{fill:#f47919;}.cls-81{fill:#f47819;}.cls-82{fill:#f47718;}.cls-83{fill:#f47618;}.cls-84{fill:#f57518;}.cls-85{fill:#f57418;}.cls-86{fill:#f57318;}.cls-87{fill:#f57217;}.cls-88{fill:#f57117;}.cls-89{fill:#f57017;}.cls-90{fill:#f56f17;}.cls-91{fill:#f56e17;}.cls-92{fill:#f56d16;}.cls-93{fill:#f56c16;}.cls-94{fill:#f56b16;}.cls-95{fill:#f56a16;}.cls-96{fill:#f66916;}.cls-97{fill:#f66815;}.cls-98{fill:#f66715;}.cls-99{fill:#f66615;}.cls-100{fill:#f66515;}.cls-101{fill:#f66415;}.cls-102{fill:#f66314;}.cls-103{fill:#f66214;}.cls-104{fill:#f66114;}.cls-105{fill:#f66014;}.cls-106{fill:#f65f13;}.cls-107{fill:#f65e13;}.cls-108{fill:#f75d13;}.cls-109{fill:#f75c13;}.cls-110{fill:#fc1c06;}.cls-111{fill:#fc1b06;}.cls-112{fill:#fc1a05;}.cls-113{fill:#fc1905;}.cls-114{fill:#fc1805;}.cls-115{fill:#fc1705;}.cls-116{fill:#fc1605;}.cls-117{fill:#fc1504;}.cls-118{fill:#fc1404;}.cls-119{fill:#fc1304;}.cls-120{fill:#fd1204;}.cls-121{fill:#fd1104;}.cls-122{fill:#fd1003;}.cls-123{fill:#fd0f03;}.cls-124{fill:#fd0e03;}.cls-125{fill:#fd0d03;}.cls-126{fill:#fd0c02;}.cls-127{fill:#fd0b02;}.cls-128{fill:#fd0a02;}.cls-129{fill:#fd0902;}.cls-130{fill:#fd0802;}.cls-131{fill:#fd0701;}.cls-132{fill:#ff0601;}.cls-133{fill:#ff0501;}.cls-134{fill:#ff0401;}.cls-135{fill:#ff0301;}.cls-136{fill:#ff0200;}.cls-137{fill:#ff0100;}.cls-138{fill:red;}.cls-139{clip-path:url(#clip-path-2);}.cls-140{clip-path:url(#clip-path-3);}.cls-141{fill:#e00;}</style><clipPath id="clip-path"><path class="cls-1" d="M29.83,6.82a6.42,6.42,0,0,0-2.39-5A8.37,8.37,0,0,0,22.22.08C17.1,0,12,0,6.83,0c-.41,0-.62.17-.61.6a3.19,3.19,0,0,1-.06.53C5.83,2.87,5.34,4.56,5,6.3c-.17,1-.41,2-.63,3-.31,1.44-.55,2.91-1,4.33,0,.2,0,.4-.08.59C3,15.86,2.63,17.5,2.3,19.16c-.63,3.13-1.23,6.28-2,9.39C.14,29.16.1,29.81,0,30.49a1.6,1.6,0,0,0,.27-.11l6.64-3.94a.79.79,0,0,0,.39-.62q.66-3.11,1.33-6.2c.06-.25,0-.55.47-.54,2.28,0,4.56,0,6.84,0h1a4.78,4.78,0,0,1,1.36.06,1.66,1.66,0,0,0,1.29-.24c1.78-1.09,3.59-2.14,5.4-3.2a8.67,8.67,0,0,0,2.38-1.81A10.44,10.44,0,0,0,29.83,6.82ZM23.26,8.38c-.27,3-2,4.7-5.12,5-1.45.13-2.89,0-4.07.08-1.42,0-2.57,0-3.72,0-.33,0-.41-.08-.34-.41.5-2.32,1-4.65,1.47-7,0-.22.11-.39.41-.38,3,.08,6-.19,9,.19a4.32,4.32,0,0,1,.86.21A2,2,0,0,1,23.26,8.38Z"/></clipPath><clipPath id="clip-path-2"><path class="cls-1" d="M28.14,23.35a12.17,12.17,0,0,1-5.09,7.78,1.31,1.31,0,0,0-.21.2,15.94,15.94,0,0,1-9,2.39c-4.36,0-8.72,0-13.08,0H.11c.49-.32.84-.59,1.21-.81l8-4.72a1.56,1.56,0,0,1,.84-.2c2.06,0,4.13.11,6.18-.1a4.86,4.86,0,0,0,2-.56,5.54,5.54,0,0,0,3.43-4.57,3.45,3.45,0,0,0,0-1.69.33.33,0,0,1,.19-.44c1.61-.95,3.22-1.9,4.81-2.88.41-.26.53-.07.71.24A7.64,7.64,0,0,1,28.14,23.35Z"/></clipPath><clipPath id="clip-path-3"><path class="cls-1" d="M16.68,19.11h-.74"/></clipPath></defs><g id="Layer_2" data-name="Layer 2"><g id="Layer_1-2" data-name="Layer 1"><g id="URSwKn"><g class="cls-2"><rect class="cls-3" x="9.94" y="5.51" width="0.15" height="8"/><rect class="cls-4" x="10.09" y="5.51" width="0.22" height="8"/><rect class="cls-5" x="10.31" y="5.51" width="0.22" height="8"/><rect class="cls-6" x="10.53" y="5.51" width="0.22" height="8"/><rect class="cls-7" x="10.75" y="5.51" width="0.22" height="8"/><rect class="cls-8" x="10.97" y="5.51" width="0.22" height="8"/><rect class="cls-9" x="11.19" y="5.51" width="0.22" height="8"/><rect class="cls-10" x="11.41" y="5.51" width="0.22" height="8"/><rect class="cls-11" x="11.63" y="5.51" width="0.22" height="8"/><rect class="cls-12" x="11.85" y="5.51" width="0.22" height="8"/><rect class="cls-13" x="12.06" y="5.51" width="0.22" height="8"/><rect class="cls-14" x="12.28" y="5.51" width="0.22" height="8"/><rect class="cls-15" x="12.5" y="5.51" width="0.22" height="8"/><rect class="cls-16" x="12.72" y="5.51" width="0.22" height="8"/><rect class="cls-17" x="12.94" y="5.51" width="0.22" height="8"/><rect class="cls-18" x="13.16" y="5.51" width="0.22" height="8"/><rect class="cls-19" x="13.38" y="5.51" width="0.22" height="8"/><rect class="cls-20" x="13.6" y="5.51" width="0.22" height="8"/><rect class="cls-21" x="13.82" y="5.51" width="0.22" height="8"/><rect class="cls-22" x="14.04" y="5.51" width="0.22" height="8"/><rect class="cls-23" x="14.26" y="5.51" width="0.22" height="8"/><rect class="cls-24" x="14.48" y="5.51" width="0.22" height="8"/><rect class="cls-25" x="14.7" y="5.51" width="0.22" height="8"/><rect class="cls-26" x="14.92" y="5.51" width="0.22" height="8"/><rect class="cls-27" x="15.14" y="5.51" width="0.22" height="8"/><rect class="cls-28" x="15.35" y="5.51" width="0.22" height="8"/><rect class="cls-29" x="15.57" y="5.51" width="0.22" height="8"/><rect class="cls-30" x="15.79" y="5.51" width="0.22" height="8"/><rect class="cls-31" x="16.01" y="5.51" width="0.22" height="8"/><rect class="cls-32" x="16.23" y="5.51" width="0.22" height="8"/><rect class="cls-33" x="16.45" y="5.51" width="0.22" height="8"/><rect class="cls-34" x="16.67" y="5.51" width="0.22" height="8"/><rect class="cls-35" x="16.89" y="5.51" width="0.22" height="8"/><rect class="cls-36" x="17.11" y="5.51" width="0.22" height="8"/><rect class="cls-37" x="17.33" y="5.51" width="0.22" height="8"/><rect class="cls-38" x="17.55" y="5.51" width="0.22" height="8"/><rect class="cls-39" x="17.77" y="5.51" width="0.22" height="8"/><rect class="cls-40" x="17.99" y="5.51" width="0.22" height="8"/><rect class="cls-41" x="18.21" y="5.51" width="0.22" height="8"/><rect class="cls-42" x="18.43" y="5.51" width="0.22" height="8"/><rect class="cls-43" x="18.65" y="5.51" width="0.22" height="8"/><rect class="cls-44" x="18.86" y="5.51" width="0.22" height="8"/><rect class="cls-45" x="19.08" y="5.51" width="0.22" height="8"/><rect class="cls-46" x="19.3" y="5.51" width="0.22" height="8"/><rect class="cls-47" x="19.52" y="5.51" width="0.22" height="8"/><rect class="cls-48" x="19.74" y="5.51" width="0.22" height="8"/><rect class="cls-49" x="19.96" y="5.51" width="0.22" height="8"/><rect class="cls-50" x="20.18" y="5.51" width="0.22" height="8"/><rect class="cls-51" x="20.4" y="5.51" width="0.22" height="8"/><rect class="cls-52" x="20.62" y="5.51" width="0.22" height="8"/><rect class="cls-53" x="20.84" y="5.51" width="0.22" height="8"/><rect class="cls-54" x="21.06" y="5.51" width="0.22" height="8"/><rect class="cls-55" x="21.28" y="5.51" width="0.22" height="8"/><rect class="cls-56" x="21.5" y="5.51" width="0.22" height="8"/><rect class="cls-57" x="21.72" y="5.51" width="0.22" height="8"/><rect class="cls-58" x="21.94" y="5.51" width="0.22" height="8"/><rect class="cls-59" x="22.15" y="5.51" width="0.22" height="8"/><rect class="cls-60" x="22.37" y="5.51" width="0.22" height="8"/><rect class="cls-61" x="22.59" y="5.51" width="0.22" height="8"/><rect class="cls-62" x="22.81" y="5.51" width="0.22" height="8"/><rect class="cls-63" x="23.03" y="5.51" width="0.22" height="8"/><rect class="cls-64" x="23.25" y="5.51" width="0.11" height="8"/><rect class="cls-65" width="0.22" height="30.49"/><rect class="cls-66" x="0.22" width="0.22" height="30.49"/><rect class="cls-67" x="0.44" width="0.22" height="30.49"/><rect class="cls-68" x="0.66" width="0.22" height="30.49"/><rect class="cls-69" x="0.88" width="0.22" height="30.49"/><rect class="cls-70" x="1.1" width="0.22" height="30.49"/><rect class="cls-71" x="1.32" width="0.22" height="30.49"/><rect class="cls-72" x="1.54" width="0.22" height="30.49"/><rect class="cls-73" x="1.75" width="0.22" height="30.49"/><rect class="cls-74" x="1.97" width="0.22" height="30.49"/><rect class="cls-75" x="2.19" width="0.22" height="30.49"/><rect class="cls-76" x="2.41" width="0.22" height="30.49"/><rect class="cls-77" x="2.63" width="0.22" height="30.49"/><rect class="cls-78" x="2.85" width="0.22" height="30.49"/><rect class="cls-79" x="3.07" width="0.22" height="30.49"/><rect class="cls-80" x="3.29" width="0.22" height="30.49"/><rect class="cls-81" x="3.51" width="0.22" height="30.49"/><rect class="cls-82" x="3.73" width="0.22" height="30.49"/><rect class="cls-83" x="3.95" width="0.22" height="30.49"/><rect class="cls-84" x="4.17" width="0.22" height="30.49"/><rect class="cls-85" x="4.39" width="0.22" height="30.49"/><rect class="cls-86" x="4.61" width="0.22" height="30.49"/><rect class="cls-87" x="4.83" width="0.22" height="30.49"/><rect class="cls-88" x="5.05" width="0.22" height="30.49"/><rect class="cls-89" x="5.26" width="0.22" height="30.49"/><rect class="cls-90" x="5.48" width="0.22" height="30.49"/><rect class="cls-91" x="5.7" width="0.22" height="30.49"/><rect class="cls-92" x="5.92" width="0.22" height="30.49"/><rect class="cls-93" x="6.14" width="0.22" height="30.49"/><rect class="cls-94" x="6.36" width="0.22" height="30.49"/><rect class="cls-95" x="6.58" width="0.22" height="30.49"/><rect class="cls-96" x="6.8" width="0.22" height="30.49"/><rect class="cls-97" x="7.02" width="0.22" height="30.49"/><rect class="cls-98" x="7.24" width="0.22" height="30.49"/><rect class="cls-99" x="7.46" width="0.22" height="30.49"/><rect class="cls-100" x="7.68" width="0.22" height="30.49"/><rect class="cls-101" x="7.9" width="0.22" height="30.49"/><rect class="cls-102" x="8.12" width="0.22" height="30.49"/><rect class="cls-103" x="8.34" width="0.22" height="30.49"/><rect class="cls-104" x="8.55" width="0.22" height="30.49"/><rect class="cls-105" x="8.77" width="0.22" height="30.49"/><rect class="cls-106" x="8.99" width="0.22" height="30.49"/><rect class="cls-107" x="9.21" width="0.22" height="30.49"/><rect class="cls-108" x="9.43" width="0.22" height="30.49"/><rect class="cls-109" x="9.65" width="0.22" height="30.49"/><rect class="cls-3" x="9.87" width="0.22" height="30.49"/><rect class="cls-4" x="10.09" width="0.22" height="30.49"/><rect class="cls-5" x="10.31" width="0.22" height="30.49"/><rect class="cls-6" x="10.53" width="0.22" height="30.49"/><rect class="cls-7" x="10.75" width="0.22" height="30.49"/><rect class="cls-8" x="10.97" width="0.22" height="30.49"/><rect class="cls-9" x="11.19" width="0.22" height="30.49"/><rect class="cls-10" x="11.41" width="0.22" height="30.49"/><rect class="cls-11" x="11.63" width="0.22" height="30.49"/><rect class="cls-12" x="11.85" width="0.22" height="30.49"/><rect class="cls-13" x="12.06" width="0.22" height="30.49"/><rect class="cls-14" x="12.28" width="0.22" height="30.49"/><rect class="cls-15" x="12.5" width="0.22" height="30.49"/><rect class="cls-16" x="12.72" width="0.22" height="30.49"/><rect class="cls-17" x="12.94" width="0.22" height="30.49"/><rect class="cls-18" x="13.16" width="0.22" height="30.49"/><rect class="cls-19" x="13.38" width="0.22" height="30.49"/><rect class="cls-20" x="13.6" width="0.22" height="30.49"/><rect class="cls-21" x="13.82" width="0.22" height="30.49"/><rect class="cls-22" x="14.04" width="0.22" height="30.49"/><rect class="cls-23" x="14.26" width="0.22" height="30.49"/><rect class="cls-24" x="14.48" width="0.22" height="30.49"/><rect class="cls-25" x="14.7" width="0.22" height="30.49"/><rect class="cls-26" x="14.92" width="0.22" height="30.49"/><rect class="cls-27" x="15.14" width="0.22" height="30.49"/><rect class="cls-28" x="15.35" width="0.22" height="30.49"/><rect class="cls-29" x="15.57" width="0.22" height="30.49"/><rect class="cls-30" x="15.79" width="0.22" height="30.49"/><rect class="cls-31" x="16.01" width="0.22" height="30.49"/><rect class="cls-32" x="16.23" width="0.22" height="30.49"/><rect class="cls-33" x="16.45" width="0.22" height="30.49"/><rect class="cls-34" x="16.67" width="0.22" height="30.49"/><rect class="cls-35" x="16.89" width="0.22" height="30.49"/><rect class="cls-36" x="17.11" width="0.22" height="30.49"/><rect class="cls-37" x="17.33" width="0.22" height="30.49"/><rect class="cls-38" x="17.55" width="0.22" height="30.49"/><rect class="cls-39" x="17.77" width="0.22" height="30.49"/><rect class="cls-40" x="17.99" width="0.22" height="30.49"/><rect class="cls-41" x="18.21" width="0.22" height="30.49"/><rect class="cls-42" x="18.43" width="0.22" height="30.49"/><rect class="cls-43" x="18.65" width="0.22" height="30.49"/><rect class="cls-44" x="18.86" width="0.22" height="30.49"/><rect class="cls-45" x="19.08" width="0.22" height="30.49"/><rect class="cls-46" x="19.3" width="0.22" height="30.49"/><rect class="cls-47" x="19.52" width="0.22" height="30.49"/><rect class="cls-48" x="19.74" width="0.22" height="30.49"/><rect class="cls-49" x="19.96" width="0.22" height="30.49"/><rect class="cls-50" x="20.18" width="0.22" height="30.49"/><rect class="cls-51" x="20.4" width="0.22" height="30.49"/><rect class="cls-52" x="20.62" width="0.22" height="30.49"/><rect class="cls-53" x="20.84" width="0.22" height="30.49"/><rect class="cls-54" x="21.06" width="0.22" height="30.49"/><rect class="cls-55" x="21.28" width="0.22" height="30.49"/><rect class="cls-56" x="21.5" width="0.22" height="30.49"/><rect class="cls-57" x="21.72" width="0.22" height="30.49"/><rect class="cls-58" x="21.94" width="0.22" height="30.49"/><rect class="cls-59" x="22.15" width="0.22" height="30.49"/><rect class="cls-60" x="22.37" width="0.22" height="30.49"/><rect class="cls-61" x="22.59" width="0.22" height="30.49"/><rect class="cls-62" x="22.81" width="0.22" height="30.49"/><rect class="cls-63" x="23.03" width="0.22" height="30.49"/><rect class="cls-64" x="23.25" width="0.22" height="30.49"/><rect class="cls-110" x="23.47" width="0.22" height="30.49"/><rect class="cls-111" x="23.69" width="0.22" height="30.49"/><rect class="cls-112" x="23.91" width="0.22" height="30.49"/><rect class="cls-113" x="24.13" width="0.22" height="30.49"/><rect class="cls-114" x="24.35" width="0.22" height="30.49"/><rect class="cls-115" x="24.57" width="0.22" height="30.49"/><rect class="cls-116" x="24.79" width="0.22" height="30.49"/><rect class="cls-117" x="25.01" width="0.22" height="30.49"/><rect class="cls-118" x="25.23" width="0.22" height="30.49"/><rect class="cls-119" x="25.45" width="0.22" height="30.49"/><rect class="cls-120" x="25.66" width="0.22" height="30.49"/><rect class="cls-121" x="25.88" width="0.22" height="30.49"/><rect class="cls-122" x="26.1" width="0.22" height="30.49"/><rect class="cls-123" x="26.32" width="0.22" height="30.49"/><rect class="cls-124" x="26.54" width="0.22" height="30.49"/><rect class="cls-125" x="26.76" width="0.22" height="30.49"/><rect class="cls-126" x="26.98" width="0.22" height="30.49"/><rect class="cls-127" x="27.2" width="0.22" height="30.49"/><rect class="cls-128" x="27.42" width="0.22" height="30.49"/><rect class="cls-129" x="27.64" width="0.22" height="30.49"/><rect class="cls-130" x="27.86" width="0.22" height="30.49"/><rect class="cls-131" x="28.08" width="0.22" height="30.49"/><rect class="cls-132" x="28.3" width="0.22" height="30.49"/><rect class="cls-133" x="28.52" width="0.22" height="30.49"/><rect class="cls-134" x="28.74" width="0.22" height="30.49"/><rect class="cls-135" x="28.95" width="0.22" height="30.49"/><rect class="cls-136" x="29.17" width="0.22" height="30.49"/><rect class="cls-137" x="29.39" width="0.22" height="30.49"/><rect class="cls-138" x="29.61" width="0.22" height="30.49"/><rect class="cls-138" x="29.83" width="0.08" height="30.49"/></g><g class="cls-139"><rect class="cls-65" x="0.11" y="17.48" width="0.21" height="16.25"/><rect class="cls-66" x="0.32" y="17.48" width="0.21" height="16.25"/><rect class="cls-67" x="0.53" y="17.48" width="0.21" height="16.25"/><rect class="cls-68" x="0.74" y="17.48" width="0.21" height="16.25"/><rect class="cls-69" x="0.94" y="17.48" width="0.21" height="16.25"/><rect class="cls-70" x="1.15" y="17.48" width="0.21" height="16.25"/><rect class="cls-71" x="1.36" y="17.48" width="0.21" height="16.25"/><rect class="cls-72" x="1.57" y="17.48" width="0.21" height="16.25"/><rect class="cls-73" x="1.77" y="17.48" width="0.21" height="16.25"/><rect class="cls-74" x="1.98" y="17.48" width="0.21" height="16.25"/><rect class="cls-75" x="2.19" y="17.48" width="0.21" height="16.25"/><rect class="cls-76" x="2.4" y="17.48" width="0.21" height="16.25"/><rect class="cls-77" x="2.6" y="17.48" width="0.21" height="16.25"/><rect class="cls-78" x="2.81" y="17.48" width="0.21" height="16.25"/><rect class="cls-79" x="3.02" y="17.48" width="0.21" height="16.25"/><rect class="cls-80" x="3.23" y="17.48" width="0.21" height="16.25"/><rect class="cls-81" x="3.44" y="17.48" width="0.21" height="16.25"/><rect class="cls-82" x="3.64" y="17.48" width="0.21" height="16.25"/><rect class="cls-83" x="3.85" y="17.48" width="0.21" height="16.25"/><rect class="cls-84" x="4.06" y="17.48" width="0.21" height="16.25"/><rect class="cls-85" x="4.27" y="17.48" width="0.21" height="16.25"/><rect class="cls-86" x="4.47" y="17.48" width="0.21" height="16.25"/><rect class="cls-87" x="4.68" y="17.48" width="0.21" height="16.25"/><rect class="cls-88" x="4.89" y="17.48" width="0.21" height="16.25"/><rect class="cls-89" x="5.1" y="17.48" width="0.21" height="16.25"/><rect class="cls-90" x="5.3" y="17.48" width="0.21" height="16.25"/><rect class="cls-91" x="5.51" y="17.48" width="0.21" height="16.25"/><rect class="cls-92" x="5.72" y="17.48" width="0.21" height="16.25"/><rect class="cls-93" x="5.93" y="17.48" width="0.21" height="16.25"/><rect class="cls-94" x="6.13" y="17.48" width="0.21" height="16.25"/><rect class="cls-95" x="6.34" y="17.48" width="0.21" height="16.25"/><rect class="cls-96" x="6.55" y="17.48" width="0.21" height="16.25"/><rect class="cls-97" x="6.76" y="17.48" width="0.21" height="16.25"/><rect class="cls-98" x="6.96" y="17.48" width="0.21" height="16.25"/><rect class="cls-99" x="7.17" y="17.48" width="0.21" height="16.25"/><rect class="cls-100" x="7.38" y="17.48" width="0.21" height="16.25"/><rect class="cls-101" x="7.59" y="17.48" width="0.21" height="16.25"/><rect class="cls-102" x="7.79" y="17.48" width="0.21" height="16.25"/><rect class="cls-103" x="8" y="17.48" width="0.21" height="16.25"/><rect class="cls-104" x="8.21" y="17.48" width="0.21" height="16.25"/><rect class="cls-105" x="8.42" y="17.48" width="0.21" height="16.25"/><rect class="cls-106" x="8.62" y="17.48" width="0.21" height="16.25"/><rect class="cls-107" x="8.83" y="17.48" width="0.21" height="16.25"/><rect class="cls-108" x="9.04" y="17.48" width="0.21" height="16.25"/><rect class="cls-109" x="9.25" y="17.48" width="0.21" height="16.25"/><rect class="cls-3" x="9.45" y="17.48" width="0.21" height="16.25"/><rect class="cls-4" x="9.66" y="17.48" width="0.21" height="16.25"/><rect class="cls-5" x="9.87" y="17.48" width="0.21" height="16.25"/><rect class="cls-6" x="10.08" y="17.48" width="0.21" height="16.25"/><rect class="cls-7" x="10.28" y="17.48" width="0.21" height="16.25"/><rect class="cls-8" x="10.49" y="17.48" width="0.21" height="16.25"/><rect class="cls-9" x="10.7" y="17.48" width="0.21" height="16.25"/><rect class="cls-10" x="10.91" y="17.48" width="0.21" height="16.25"/><rect class="cls-11" x="11.11" y="17.48" width="0.21" height="16.25"/><rect class="cls-12" x="11.32" y="17.48" width="0.21" height="16.25"/><rect class="cls-13" x="11.53" y="17.48" width="0.21" height="16.25"/><rect class="cls-14" x="11.74" y="17.48" width="0.21" height="16.25"/><rect class="cls-15" x="11.94" y="17.48" width="0.21" height="16.25"/><rect class="cls-16" x="12.15" y="17.48" width="0.21" height="16.25"/><rect class="cls-17" x="12.36" y="17.48" width="0.21" height="16.25"/><rect class="cls-18" x="12.57" y="17.48" width="0.21" height="16.25"/><rect class="cls-19" x="12.78" y="17.48" width="0.21" height="16.25"/><rect class="cls-20" x="12.98" y="17.48" width="0.21" height="16.25"/><rect class="cls-21" x="13.19" y="17.48" width="0.21" height="16.25"/><rect class="cls-22" x="13.4" y="17.48" width="0.21" height="16.25"/><rect class="cls-23" x="13.61" y="17.48" width="0.21" height="16.25"/><rect class="cls-24" x="13.81" y="17.48" width="0.21" height="16.25"/><rect class="cls-25" x="14.02" y="17.48" width="0.21" height="16.25"/><rect class="cls-26" x="14.23" y="17.48" width="0.21" height="16.25"/><rect class="cls-27" x="14.44" y="17.48" width="0.21" height="16.25"/><rect class="cls-28" x="14.64" y="17.48" width="0.21" height="16.25"/><rect class="cls-29" x="14.85" y="17.48" width="0.21" height="16.25"/><rect class="cls-30" x="15.06" y="17.48" width="0.21" height="16.25"/><rect class="cls-31" x="15.27" y="17.48" width="0.21" height="16.25"/><rect class="cls-32" x="15.47" y="17.48" width="0.21" height="16.25"/><rect class="cls-33" x="15.68" y="17.48" width="0.21" height="16.25"/><rect class="cls-34" x="15.89" y="17.48" width="0.21" height="16.25"/><rect class="cls-35" x="16.1" y="17.48" width="0.21" height="16.25"/><rect class="cls-36" x="16.3" y="17.48" width="0.21" height="16.25"/><rect class="cls-37" x="16.51" y="17.48" width="0.21" height="16.25"/><rect class="cls-38" x="16.72" y="17.48" width="0.21" height="16.25"/><rect class="cls-39" x="16.93" y="17.48" width="0.21" height="16.25"/><rect class="cls-40" x="17.13" y="17.48" width="0.21" height="16.25"/><rect class="cls-41" x="17.34" y="17.48" width="0.21" height="16.25"/><rect class="cls-42" x="17.55" y="17.48" width="0.21" height="16.25"/><rect class="cls-43" x="17.76" y="17.48" width="0.21" height="16.25"/><rect class="cls-44" x="17.96" y="17.48" width="0.21" height="16.25"/><rect class="cls-45" x="18.17" y="17.48" width="0.21" height="16.25"/><rect class="cls-46" x="18.38" y="17.48" width="0.21" height="16.25"/><rect class="cls-47" x="18.59" y="17.48" width="0.21" height="16.25"/><rect class="cls-48" x="18.79" y="17.48" width="0.21" height="16.25"/><rect class="cls-49" x="19" y="17.48" width="0.21" height="16.25"/><rect class="cls-50" x="19.21" y="17.48" width="0.21" height="16.25"/><rect class="cls-51" x="19.42" y="17.48" width="0.21" height="16.25"/><rect class="cls-52" x="19.62" y="17.48" width="0.21" height="16.25"/><rect class="cls-53" x="19.83" y="17.48" width="0.21" height="16.25"/><rect class="cls-54" x="20.04" y="17.48" width="0.21" height="16.25"/><rect class="cls-55" x="20.25" y="17.48" width="0.21" height="16.25"/><rect class="cls-56" x="20.45" y="17.48" width="0.21" height="16.25"/><rect class="cls-57" x="20.66" y="17.48" width="0.21" height="16.25"/><rect class="cls-58" x="20.87" y="17.48" width="0.21" height="16.25"/><rect class="cls-59" x="21.08" y="17.48" width="0.21" height="16.25"/><rect class="cls-60" x="21.28" y="17.48" width="0.21" height="16.25"/><rect class="cls-61" x="21.49" y="17.48" width="0.21" height="16.25"/><rect class="cls-62" x="21.7" y="17.48" width="0.21" height="16.25"/><rect class="cls-63" x="21.91" y="17.48" width="0.21" height="16.25"/><rect class="cls-64" x="22.11" y="17.48" width="0.21" height="16.25"/><rect class="cls-110" x="22.32" y="17.48" width="0.21" height="16.25"/><rect class="cls-111" x="22.53" y="17.48" width="0.21" height="16.25"/><rect class="cls-112" x="22.74" y="17.48" width="0.21" height="16.25"/><rect class="cls-113" x="22.95" y="17.48" width="0.21" height="16.25"/><rect class="cls-114" x="23.15" y="17.48" width="0.21" height="16.25"/><rect class="cls-115" x="23.36" y="17.48" width="0.21" height="16.25"/><rect class="cls-116" x="23.57" y="17.48" width="0.21" height="16.25"/><rect class="cls-117" x="23.78" y="17.48" width="0.21" height="16.25"/><rect class="cls-118" x="23.98" y="17.48" width="0.21" height="16.25"/><rect class="cls-119" x="24.19" y="17.48" width="0.21" height="16.25"/><rect class="cls-120" x="24.4" y="17.48" width="0.21" height="16.25"/><rect class="cls-121" x="24.61" y="17.48" width="0.21" height="16.25"/><rect class="cls-122" x="24.81" y="17.48" width="0.21" height="16.25"/><rect class="cls-123" x="25.02" y="17.48" width="0.21" height="16.25"/><rect class="cls-124" x="25.23" y="17.48" width="0.21" height="16.25"/><rect class="cls-125" x="25.44" y="17.48" width="0.21" height="16.25"/><rect class="cls-126" x="25.64" y="17.48" width="0.21" height="16.25"/><rect class="cls-127" x="25.85" y="17.48" width="0.21" height="16.25"/><rect class="cls-128" x="26.06" y="17.48" width="0.21" height="16.25"/><rect class="cls-129" x="26.27" y="17.48" width="0.21" height="16.25"/><rect class="cls-130" x="26.47" y="17.48" width="0.21" height="16.25"/><rect class="cls-131" x="26.68" y="17.48" width="0.21" height="16.25"/><rect class="cls-132" x="26.89" y="17.48" width="0.21" height="16.25"/><rect class="cls-133" x="27.1" y="17.48" width="0.21" height="16.25"/><rect class="cls-134" x="27.3" y="17.48" width="0.21" height="16.25"/><rect class="cls-135" x="27.51" y="17.48" width="0.21" height="16.25"/><rect class="cls-136" x="27.72" y="17.48" width="0.21" height="16.25"/><rect class="cls-137" x="27.93" y="17.48" width="0.21" height="16.25"/><rect class="cls-138" x="28.13" y="17.48" width="0.21" height="16.25"/><rect class="cls-138" x="28.34" y="17.48" width="0.16" height="16.25"/></g><g class="cls-140"><rect class="cls-65" x="15.94" y="19.11" width="0.01"/><rect class="cls-66" x="15.94" y="19.11" width="0.01"/><rect class="cls-67" x="15.95" y="19.11" width="0.01"/><rect class="cls-68" x="15.95" y="19.11" width="0.01"/><rect class="cls-69" x="15.96" y="19.11" width="0.01"/><rect class="cls-70" x="15.96" y="19.11" width="0.01"/><rect class="cls-71" x="15.97" y="19.11" width="0.01"/><rect class="cls-72" x="15.97" y="19.11" width="0.01"/><rect class="cls-73" x="15.98" y="19.11" width="0.01"/><rect class="cls-74" x="15.98" y="19.11" width="0.01"/><rect class="cls-75" x="15.99" y="19.11" width="0.01"/><rect class="cls-76" x="16" y="19.11" width="0.01"/><rect class="cls-77" x="16" y="19.11" width="0.01"/><rect class="cls-78" x="16.01" y="19.11" width="0.01"/><rect class="cls-79" x="16.01" y="19.11" width="0.01"/><rect class="cls-80" x="16.02" y="19.11" width="0.01"/><rect class="cls-81" x="16.02" y="19.11" width="0.01"/><rect class="cls-82" x="16.03" y="19.11" width="0.01"/><rect class="cls-83" x="16.03" y="19.11" width="0.01"/><rect class="cls-84" x="16.04" y="19.11" width="0.01"/><rect class="cls-85" x="16.05" y="19.11" width="0.01"/><rect class="cls-86" x="16.05" y="19.11" width="0.01"/><rect class="cls-87" x="16.06" y="19.11" width="0.01"/><rect class="cls-88" x="16.06" y="19.11" width="0.01"/><rect class="cls-89" x="16.07" y="19.11" width="0.01"/><rect class="cls-90" x="16.07" y="19.11" width="0.01"/><rect class="cls-91" x="16.08" y="19.11" width="0.01"/><rect class="cls-92" x="16.08" y="19.11" width="0.01"/><rect class="cls-93" x="16.09" y="19.11" width="0.01"/><rect class="cls-94" x="16.09" y="19.11" width="0.01"/><rect class="cls-95" x="16.1" y="19.11" width="0.01"/><rect class="cls-96" x="16.11" y="19.11" width="0.01"/><rect class="cls-97" x="16.11" y="19.11" width="0.01"/><rect class="cls-98" x="16.12" y="19.11" width="0.01"/><rect class="cls-99" x="16.12" y="19.11" width="0.01"/><rect class="cls-100" x="16.13" y="19.11" width="0.01"/><rect class="cls-101" x="16.13" y="19.11" width="0.01"/><rect class="cls-102" x="16.14" y="19.11" width="0.01"/><rect class="cls-103" x="16.14" y="19.11" width="0.01"/><rect class="cls-104" x="16.15" y="19.11" width="0.01"/><rect class="cls-105" x="16.15" y="19.11" width="0.01"/><rect class="cls-106" x="16.16" y="19.11" width="0.01"/><rect class="cls-107" x="16.17" y="19.11" width="0.01"/><rect class="cls-108" x="16.17" y="19.11" width="0.01"/><rect class="cls-109" x="16.18" y="19.11" width="0.01"/><rect class="cls-3" x="16.18" y="19.11" width="0.01"/><rect class="cls-4" x="16.19" y="19.11" width="0.01"/><rect class="cls-5" x="16.19" y="19.11" width="0.01"/><rect class="cls-6" x="16.2" y="19.11" width="0.01"/><rect class="cls-7" x="16.2" y="19.11" width="0.01"/><rect class="cls-8" x="16.21" y="19.11" width="0.01"/><rect class="cls-9" x="16.22" y="19.11" width="0.01"/><rect class="cls-10" x="16.22" y="19.11" width="0.01"/><rect class="cls-11" x="16.23" y="19.11" width="0.01"/><rect class="cls-12" x="16.23" y="19.11" width="0.01"/><rect class="cls-13" x="16.24" y="19.11" width="0.01"/><rect class="cls-14" x="16.24" y="19.11" width="0.01"/><rect class="cls-15" x="16.25" y="19.11" width="0.01"/><rect class="cls-16" x="16.25" y="19.11" width="0.01"/><rect class="cls-17" x="16.26" y="19.11" width="0.01"/><rect class="cls-18" x="16.26" y="19.11" width="0.01"/><rect class="cls-19" x="16.27" y="19.11" width="0.01"/><rect class="cls-20" x="16.28" y="19.11" width="0.01"/><rect class="cls-21" x="16.28" y="19.11" width="0.01"/><rect class="cls-22" x="16.29" y="19.11" width="0.01"/><rect class="cls-23" x="16.29" y="19.11" width="0.01"/><rect class="cls-24" x="16.3" y="19.11" width="0.01"/><rect class="cls-25" x="16.3" y="19.11" width="0.01"/><rect class="cls-26" x="16.31" y="19.11" width="0.01"/><rect class="cls-27" x="16.31" y="19.11" width="0.01"/><rect class="cls-28" x="16.32" y="19.11" width="0.01"/><rect class="cls-29" x="16.32" y="19.11" width="0.01"/><rect class="cls-30" x="16.33" y="19.11" width="0.01"/><rect class="cls-31" x="16.34" y="19.11" width="0.01"/><rect class="cls-32" x="16.34" y="19.11" width="0.01"/><rect class="cls-33" x="16.35" y="19.11" width="0.01"/><rect class="cls-34" x="16.35" y="19.11" width="0.01"/><rect class="cls-35" x="16.36" y="19.11" width="0.01"/><rect class="cls-36" x="16.36" y="19.11" width="0.01"/><rect class="cls-37" x="16.37" y="19.11" width="0.01"/><rect class="cls-38" x="16.37" y="19.11" width="0.01"/><rect class="cls-39" x="16.38" y="19.11" width="0.01"/><rect class="cls-40" x="16.39" y="19.11" width="0.01"/><rect class="cls-41" x="16.39" y="19.11" width="0.01"/><rect class="cls-42" x="16.4" y="19.11" width="0.01"/><rect class="cls-43" x="16.4" y="19.11" width="0.01"/><rect class="cls-44" x="16.41" y="19.11" width="0.01"/><rect class="cls-45" x="16.41" y="19.11" width="0.01"/><rect class="cls-46" x="16.42" y="19.11" width="0.01"/><rect class="cls-47" x="16.42" y="19.11" width="0.01"/><rect class="cls-48" x="16.43" y="19.11" width="0.01"/><rect class="cls-49" x="16.43" y="19.11" width="0.01"/><rect class="cls-50" x="16.44" y="19.11" width="0.01"/><rect class="cls-51" x="16.45" y="19.11" width="0.01"/><rect class="cls-52" x="16.45" y="19.11" width="0.01"/><rect class="cls-53" x="16.46" y="19.11" width="0.01"/><rect class="cls-54" x="16.46" y="19.11" width="0.01"/><rect class="cls-55" x="16.47" y="19.11" width="0.01"/><rect class="cls-56" x="16.47" y="19.11" width="0.01"/><rect class="cls-57" x="16.48" y="19.11" width="0.01"/><rect class="cls-58" x="16.48" y="19.11" width="0.01"/><rect class="cls-59" x="16.49" y="19.11" width="0.01"/><rect class="cls-60" x="16.49" y="19.11" width="0.01"/><rect class="cls-61" x="16.5" y="19.11" width="0.01"/><rect class="cls-62" x="16.51" y="19.11" width="0.01"/><rect class="cls-63" x="16.51" y="19.11" width="0.01"/><rect class="cls-64" x="16.52" y="19.11" width="0.01"/><rect class="cls-110" x="16.52" y="19.11" width="0.01"/><rect class="cls-111" x="16.53" y="19.11" width="0.01"/><rect class="cls-112" x="16.53" y="19.11" width="0.01"/><rect class="cls-113" x="16.54" y="19.11" width="0.01"/><rect class="cls-114" x="16.54" y="19.11" width="0.01"/><rect class="cls-115" x="16.55" y="19.11" width="0.01"/><rect class="cls-116" x="16.56" y="19.11" width="0.01"/><rect class="cls-117" x="16.56" y="19.11" width="0.01"/><rect class="cls-118" x="16.57" y="19.11" width="0.01"/><rect class="cls-119" x="16.57" y="19.11" width="0.01"/><rect class="cls-120" x="16.58" y="19.11" width="0.01"/><rect class="cls-121" x="16.58" y="19.11" width="0.01"/><rect class="cls-122" x="16.59" y="19.11" width="0.01"/><rect class="cls-123" x="16.59" y="19.11" width="0.01"/><rect class="cls-124" x="16.6" y="19.11" width="0.01"/><rect class="cls-125" x="16.6" y="19.11" width="0.01"/><rect class="cls-126" x="16.61" y="19.11" width="0.01"/><rect class="cls-127" x="16.62" y="19.11" width="0.01"/><rect class="cls-128" x="16.62" y="19.11" width="0.01"/><rect class="cls-129" x="16.63" y="19.11" width="0.01"/><rect class="cls-130" x="16.63" y="19.11" width="0.01"/><rect class="cls-131" x="16.64" y="19.11" width="0.01"/><rect class="cls-132" x="16.64" y="19.11" width="0.01"/><rect class="cls-133" x="16.65" y="19.11" width="0.01"/><rect class="cls-134" x="16.65" y="19.11" width="0.01"/><rect class="cls-135" x="16.66" y="19.11" width="0.01"/><rect class="cls-136" x="16.66" y="19.11" width="0.01"/><rect class="cls-137" x="16.67" y="19.11" width="0.01"/><rect class="cls-138" x="16.68" y="19.11" width="0.01"/></g></g><path class="cls-141" d="M34.37,6.44h3.77a4.46,4.46,0,0,1,1.5.23,3,3,0,0,1,1,.61,2.37,2.37,0,0,1,.63.9,2.87,2.87,0,0,1,.21,1.1,2.21,2.21,0,0,1-.19,1,2.81,2.81,0,0,1-.45.73,2.27,2.27,0,0,1-.59.49,1.93,1.93,0,0,1-.59.23,4.84,4.84,0,0,1,.75.21,2.65,2.65,0,0,1,.78.48,2.5,2.5,0,0,1,.62.82,2.8,2.8,0,0,1,.25,1.26,3.2,3.2,0,0,1-.32,1.5,2.82,2.82,0,0,1-.89,1,3.69,3.69,0,0,1-1.33.51,8.44,8.44,0,0,1-1.63.15H34.37Zm3.53,4.64a3.12,3.12,0,0,0,.74-.09,2.23,2.23,0,0,0,.67-.29,1.59,1.59,0,0,0,.48-.52A1.54,1.54,0,0,0,40,9.41a1.62,1.62,0,0,0-.18-.81,1.38,1.38,0,0,0-.48-.48,1.9,1.9,0,0,0-.67-.23,4.62,4.62,0,0,0-.74-.06h-2v3.25Zm0,5.11c.29,0,.59,0,.91-.05a2.73,2.73,0,0,0,.86-.23,1.7,1.7,0,0,0,.64-.55,1.77,1.77,0,0,0,.25-1,1.76,1.76,0,0,0-.24-1,1.81,1.81,0,0,0-.62-.58,2.34,2.34,0,0,0-.83-.29,5.29,5.29,0,0,0-.86-.08h-2v3.74Z"/><path class="cls-141" d="M51.06,16.44a5.3,5.3,0,0,1-.4.38,3,3,0,0,1-.7.45,5,5,0,0,1-1,.38,5.16,5.16,0,0,1-1.31.16,4.4,4.4,0,0,1-1.65-.3,3.82,3.82,0,0,1-1.29-.85,3.88,3.88,0,0,1-.82-1.32,4.63,4.63,0,0,1-.29-1.7,4.45,4.45,0,0,1,.28-1.6,3.91,3.91,0,0,1,.8-1.28,3.84,3.84,0,0,1,1.23-.86,3.78,3.78,0,0,1,1.56-.32,3.67,3.67,0,0,1,1.72.38,3.41,3.41,0,0,1,1.17,1A4.4,4.4,0,0,1,51,12.43a6.91,6.91,0,0,1,.22,1.71H45.13a2.33,2.33,0,0,0,.23.95,2.31,2.31,0,0,0,.56.75,2.64,2.64,0,0,0,.8.5,2.51,2.51,0,0,0,1,.18,3.54,3.54,0,0,0,1.62-.33,3.14,3.14,0,0,0,.91-.65ZM49.7,13a2.51,2.51,0,0,0-.63-1.54,2,2,0,0,0-1.6-.63,2.42,2.42,0,0,0-1,.18,2.23,2.23,0,0,0-.73.49,2.34,2.34,0,0,0-.47.69,2.27,2.27,0,0,0-.18.81Z"/><path class="cls-141" d="M52.93,17.57V10.31c0-.11,0-.27,0-.5h1.43l0,1.17c.1-.13.23-.28.37-.44a2.41,2.41,0,0,1,.54-.44A2.81,2.81,0,0,1,56,9.76a3.14,3.14,0,0,1,1-.13,2.76,2.76,0,0,1,2.25.88A3.67,3.67,0,0,1,60,12.92v4.65h-1.5V13A2.31,2.31,0,0,0,58,11.44a1.73,1.73,0,0,0-1.32-.51,2,2,0,0,0-1.09.27,2.07,2.07,0,0,0-.69.69,3.33,3.33,0,0,0-.38,1A5.8,5.8,0,0,0,54.43,14v3.6Z"/><path class="cls-141" d="M69.08,16.44a3.87,3.87,0,0,1-.4.38,3.17,3.17,0,0,1-.69.45,5.5,5.5,0,0,1-1,.38,5.22,5.22,0,0,1-1.31.16,4.46,4.46,0,0,1-1.66-.3,3.68,3.68,0,0,1-1.28-.85,3.9,3.9,0,0,1-.83-1.32,4.85,4.85,0,0,1-.29-1.7A4.45,4.45,0,0,1,61.9,12a3.86,3.86,0,0,1,2-2.14,3.85,3.85,0,0,1,1.56-.32,3.67,3.67,0,0,1,1.72.38,3.54,3.54,0,0,1,1.18,1,4.38,4.38,0,0,1,.67,1.45,6.47,6.47,0,0,1,.22,1.71H63.16a2.32,2.32,0,0,0,.22.95,2.46,2.46,0,0,0,.56.75,2.64,2.64,0,0,0,.8.5,2.55,2.55,0,0,0,1,.18,3.48,3.48,0,0,0,1.62-.33,3.36,3.36,0,0,0,.92-.65ZM67.73,13a2.57,2.57,0,0,0-.64-1.54,2,2,0,0,0-1.6-.63,2.49,2.49,0,0,0-1,.18,2.29,2.29,0,0,0-.72.49,2.17,2.17,0,0,0-.47.69,2.27,2.27,0,0,0-.18.81Z"/><path class="cls-141" d="M71.53,11.07h-1.4V9.81h1.4V9.48a4,4,0,0,1,.28-1.54,2.63,2.63,0,0,1,.76-1,3.11,3.11,0,0,1,1.13-.58,5.34,5.34,0,0,1,1.41-.18,5,5,0,0,1,1.43.22A4.24,4.24,0,0,1,77.88,7l-.69,1.12a4.44,4.44,0,0,0-.92-.49,3.36,3.36,0,0,0-1.16-.2,2.51,2.51,0,0,0-1.53.41A1.73,1.73,0,0,0,73,9.3v.51h4.85v7.76h-1.5v-6.5H73v6.5H71.53Z"/><path class="cls-141" d="M80.61,11.07h-1.4V9.81h1.4V7.28h1.5V9.81h2.27v1.26H82.11v3.82a2,2,0,0,0,.3,1.28,1,1,0,0,0,.82.35,1.69,1.69,0,0,0,.72-.13,2.2,2.2,0,0,0,.57-.4l.68.92a2.89,2.89,0,0,1-2.2.88,2.25,2.25,0,0,1-1.81-.67A3.09,3.09,0,0,1,80.61,15Z"/><path class="cls-141" d="M59.65,20h4.06a4.68,4.68,0,0,1,1.77.3,3.48,3.48,0,0,1,1.21.79,3.2,3.2,0,0,1,.7,1.14,4.17,4.17,0,0,1,.22,1.36,3.67,3.67,0,0,1-.31,1.57,3.16,3.16,0,0,1-.83,1.13,3.61,3.61,0,0,1-1.21.68,4.35,4.35,0,0,1-1.44.24H62.1V31.1H59.65Zm3.92,5.17a1.47,1.47,0,0,0,1.11-.42,1.53,1.53,0,0,0,.41-1.11,1.61,1.61,0,0,0-.42-1.15A1.46,1.46,0,0,0,63.56,22H62.1v3.12Z"/><path class="cls-141" d="M73.3,30.37a2.47,2.47,0,0,1-1,.71,3.47,3.47,0,0,1-1.36.25,3.84,3.84,0,0,1-.87-.11,2.46,2.46,0,0,1-.85-.4,2.16,2.16,0,0,1-.66-.74,2.41,2.41,0,0,1-.25-1.17,2.63,2.63,0,0,1,.27-1.21,2.54,2.54,0,0,1,.76-.9,3.34,3.34,0,0,1,1.14-.54,5.44,5.44,0,0,1,1.43-.18h.84a3.54,3.54,0,0,1,.56.05V26a1,1,0,0,0-.12-.51,1.14,1.14,0,0,0-.34-.35,1.24,1.24,0,0,0-.47-.2,2.62,2.62,0,0,0-.57-.06,3.65,3.65,0,0,0-1.33.2,4.11,4.11,0,0,0-.89.45L68.6,24c.16-.12.35-.24.56-.37a4.81,4.81,0,0,1,.75-.33,6.11,6.11,0,0,1,1-.24A7.67,7.67,0,0,1,72.13,23a3.36,3.36,0,0,1,2.64,1,3.71,3.71,0,0,1,.85,2.57V31.1H73.37Zm0-2.72a2,2,0,0,0-.31,0l-.54,0a2.63,2.63,0,0,0-1.42.28.91.91,0,0,0-.41.8c0,.65.39,1,1.16,1a1.77,1.77,0,0,0,.56-.09,1.53,1.53,0,0,0,.49-.26,1.28,1.28,0,0,0,.34-.42,1.18,1.18,0,0,0,.13-.58Z"/><path class="cls-141" d="M77.46,32.34a2.69,2.69,0,0,0,.44.26,1.18,1.18,0,0,0,.53.12.91.91,0,0,0,.64-.24,2.29,2.29,0,0,0,.49-.83L79.8,31l-3.58-7.75H79l2,4.94,1.77-4.94h2.56L82,31.05c-.18.43-.35.87-.52,1.29a5.27,5.27,0,0,1-.64,1.15,3,3,0,0,1-.92.83,2.66,2.66,0,0,1-1.36.32,3.8,3.8,0,0,1-1.15-.17,3.4,3.4,0,0,1-1-.48Z"/></g></g></svg>