<svg xmlns="http://www.w3.org/2000/svg" viewBox="0 0 182.86 62.62"><defs><style>.cls-1{fill:#282a2e;}.cls-2{fill:#1898d6;}.cls-3{fill:#82b736;}</style></defs><g id="Layer_2" data-name="Layer 2"><g id="Layer_1-2" data-name="Layer 1"><g id="gqUUQo"><path class="cls-1" d="M182.71,10.17a9.69,9.69,0,0,0-8-8.39,14.68,14.68,0,0,0-7.74.65,5.48,5.48,0,0,0-4.06,5.76c0,2.77,0,5.54,0,8.31,0,.36,0,.72,0,1.07-.06.63-.28,1-1,1-3.16-.05-6.31-.06-9.47,0-.82,0-1-.23-1-1a45.47,45.47,0,0,0-.26-7.91,8.9,8.9,0,0,0-7.83-7.7,61.78,61.78,0,0,0-6.94-.13c-.41,0-.44.26-.48.54-.16,1.08-.3,2.16-.48,3.24-.08.51.08.65.58.64q2.37,0,4.74,0a4,4,0,0,1,4.1,2.89,5.48,5.48,0,0,1,.31,1.1c.44,2.85.11,5.72.23,8.65a4.37,4.37,0,0,0-1.58-.34h-9.23c-.37,0-.53.08-.58.48-.13,1.06-.27,2.12-.5,3.16-.15.69.06.79.69.79q13.69,0,27.4,0a15.55,15.55,0,0,0,2.72-.25,4,4,0,0,1,2.09-.2,18.28,18.28,0,0,0,5.22,1c5.35.39,9.62-2.55,10.93-7.52.1-.38.06-.8.35-1.11V10.56C182.67,10.49,182.73,10.31,182.71,10.17Zm-6,5a4,4,0,0,1-4.28,3.22,23,23,0,0,1-3.11-.25c-.49-.06-.67-.23-.66-.76,0-1.42,0-2.85,0-4.27,0-1.19,0-2.39,0-3.58,0-.36,0-.71,0-1.07-.11-1.11-.12-1.1,1-1.42a10.9,10.9,0,0,1,3.4-.38,3.59,3.59,0,0,1,3.69,3A11.06,11.06,0,0,1,176.73,15.16Z"/><path class="cls-1" d="M182.71,46.74a5.87,5.87,0,0,0-4.15-4.9,11.89,11.89,0,0,0-3.29-.57c-3.49-.18-6.78.77-10.07,1.79-.29.09-.33.22-.28.49.2,1.31.39,2.61.59,4l.83-.26a23.16,23.16,0,0,1,7.37-1.41c2.44,0,3.43,1,3.35,3.45,0,.41-.14.51-.52.5-1.28,0-2.55,0-3.82,0a14.81,14.81,0,0,0-4.57.73,5.52,5.52,0,0,0-4,5.85,5.56,5.56,0,0,0,4.43,5.48,14.54,14.54,0,0,0,6.94-.1,6.44,6.44,0,0,1,2.55,0c1.57.3,3.15.55,4.73.82l0,0h.06V47.2C182.63,47.1,182.73,46.89,182.71,46.74Zm-5.58,10.33c0,.28,0,.47-.36.55a15.16,15.16,0,0,1-4.11.72c-1.58-.05-2.55-.89-2.61-2.22a2.45,2.45,0,0,1,2.43-2.66c.76-.08,1.52-.08,2.29-.12v0c.61,0,1.22,0,1.83,0,.38,0,.55.09.54.51C177.11,54.94,177.13,56,177.13,57.07Z"/><path class="cls-1" d="M131.22,2.35c-.17,1-.35,2.06-.46,3.09-.06.62-.28.82-.94.82-3.92,0-7.84,0-11.75,0a9.48,9.48,0,0,0-1.6.09A2.33,2.33,0,0,0,114.35,9a2.44,2.44,0,0,0,2.49,2.47c2,0,3.92,0,5.87,0A10,10,0,0,1,126,12a6.44,6.44,0,0,1,4.41,6.44,10.33,10.33,0,0,1-.3,2.41c-.71,2.6-2.61,3.82-5.08,4.38a17.26,17.26,0,0,1-3.86.38c-8.47,0-16.94,0-25.41-.08-5.33-.06-8.75-3.42-9.1-8.72A22.5,22.5,0,0,1,87.13,9,9,9,0,0,1,96,2.17c2.54,0,5.08,0,7.63,0a4,4,0,0,1,.46,0c-.19,1.28-.41,2.54-.56,3.8,0,.47-.23.57-.66.56-1.5,0-3,0-4.5,0-3.2,0-4.77,1.23-5.3,4.38a17.87,17.87,0,0,0,0,6.68,4.1,4.1,0,0,0,4,3.5c2.43.2,4.88.06,7.32.08,5.52,0,11,0,16.56,0a6.16,6.16,0,0,0,1.06-.07,2.9,2.9,0,0,0-.44-5.77c-2.41,0-4.83.11-7.25-.1a6,6,0,0,1-5.55-4.15,6.79,6.79,0,0,1,1.91-7.37,9,9,0,0,1,5.61-1.88c4.84-.09,9.67,0,14.51-.08C131.24,1.81,131.29,2,131.22,2.35Z"/><path class="cls-1" d="M116.11,54.27c0,2.34,0,4.68,0,7,0,.54-.09.75-.7.73-1.55-.05-3.1,0-4.65,0-.58,0-.72-.14-.71-.71,0-3.92,0-7.84,0-11.75,0-.41,0-.82,0-1.22a2.23,2.23,0,0,0-2-2.05,7,7,0,0,0-3.57.58c-.3.12-.39.22-.25.55a3.47,3.47,0,0,1,.22,1.5q0,6.21,0,12.44c0,.54-.15.67-.67.66-1.55,0-3.11,0-4.66,0-.55,0-.72-.11-.72-.7,0-3.69,0-7.38,0-11.06V49.5c0-2.69-1.23-3.67-3.9-3.16-1.77.34-1.77.34-1.77,2.14,0,4.27,0,8.54,0,12.82,0,.57-.16.72-.72.71-1.61,0-3.21,0-4.82,0-.51,0-.62-.16-.62-.65,0-2.65,0-5.29,0-7.93s0-5,0-7.48c0-2.15.59-3,2.63-3.64a19.3,19.3,0,0,1,10.22-.62,3.83,3.83,0,0,1,1.54.63,1.41,1.41,0,0,0,1.65.09,14.1,14.1,0,0,1,8.88-.71A5.73,5.73,0,0,1,116,47C116.23,49.43,116.08,51.85,116.11,54.27Z"/><path class="cls-1" d="M160.79,32.78c0-.52,0-.71-.65-.58-1.59.32-3.2.57-4.81.81-.49.08-.66.26-.65.78,0,2.47,0,4.94,0,7.4,0,1,0,1-.9.71a12.69,12.69,0,0,0-4.29-.5,7.81,7.81,0,0,0-7.39,5.6,16.34,16.34,0,0,0-.61,6.56A8.79,8.79,0,0,0,149.06,62a20.05,20.05,0,0,0,9-.66c2.23-.69,2.75-1.42,2.75-3.75q0-6,0-12C160.79,41.32,160.78,37.05,160.79,32.78Zm-6.7,24.7a17.92,17.92,0,0,1-2.19.26,3.9,3.9,0,0,1-4.11-3.06,10.87,10.87,0,0,1,0-5.88A3.68,3.68,0,0,1,152,46c2.68.3,2.68.3,2.68,3V52c0,1.58,0,3.15,0,4.73C154.71,57.22,154.59,57.42,154.09,57.48Z"/><path class="cls-1" d="M138.11,54.89h0c0-2.35.05-4.69,0-7C138,45.19,137,43.09,134.35,42a11.19,11.19,0,0,0-3.87-.76A29.18,29.18,0,0,0,120.56,43c-.35.11-.35.29-.31.56.16,1.13.35,2.27.47,3.4.06.49.21.51.63.37a24.11,24.11,0,0,1,4.25-1.17,13,13,0,0,1,4.7-.22,2.85,2.85,0,0,1,2,3.62c-.11.3-.33.18-.5.19h-2.75a17.1,17.1,0,0,0-5.64.74,5.52,5.52,0,0,0-4,5.84,5.54,5.54,0,0,0,4.42,5.49,15.6,15.6,0,0,0,7-.09,4,4,0,0,1,1.58-.18c1.66.33,3.35.59,5,.94.59.13.68,0,.67-.55C138.1,59.62,138.11,57.25,138.11,54.89Zm-6.05,2.73a15.09,15.09,0,0,1-4.11.72c-1.6-.05-2.58-.91-2.62-2.27a2.45,2.45,0,0,1,2.41-2.61c.76-.08,1.52-.08,2.28-.12a0,0,0,0,1,0,0c.61,0,1.21,0,1.82,0,.38,0,.56.08.55.5,0,1.07,0,2.14,0,3.2C132.43,57.34,132.41,57.54,132.06,57.62Z"/></g><rect class="cls-2" width="67.94" height="25.67" rx="1.47"/><rect class="cls-3" y="36.25" width="67.94" height="25.67" rx="1.47"/></g></g></svg>