<svg xmlns="http://www.w3.org/2000/svg" viewBox="0 0 34.47 40.86"><defs><style>.cls-1{fill:#002d88;}.cls-2{fill:#0099df;}.cls-3{fill:#001e6b;}</style></defs><g id="Layer_2" data-name="Layer 2"><g id="Layer_1-2" data-name="Layer 1"><g id="eoZcmu"><path class="cls-1" d="M31.26,9a5,5,0,0,0-.12,1.45l-.09,0A2,2,0,0,0,30.3,10a11.93,11.93,0,0,0-4.7-.92c-3.68-.09-7.36,0-11,0A1.67,1.67,0,0,0,13,10.43c-.11.59-.19,1.18-.28,1.78-.49,3.08-1,6.15-1.44,9.24A5,5,0,0,0,11,23.6,4.33,4.33,0,0,0,10.66,25q-.9,5.65-1.79,11.3H1.61C.1,36.31-.16,36,.07,34.52L2.71,17.75c.79-5,1.63-10,2.37-15C5.42.37,5.82,0,8.28,0c4.28.07,8.57,0,12.86,0A15.3,15.3,0,0,1,26,.89a8.13,8.13,0,0,1,4.43,3.62A9.42,9.42,0,0,1,31.26,9Z"/><path class="cls-2" d="M31.49,25.52a10.51,10.51,0,0,1-6.27,3.61,21.61,21.61,0,0,1-4.61.41c-1.08,0-1.59.36-1.77,1.42-.42,2.44-.8,4.89-1.19,7.34,0,.36-.09.71-.16,1.06a1.64,1.64,0,0,1-1.83,1.5H9.6c-1,0-1.39-.47-1.21-1.5s.32-2,.48-3q.9-5.64,1.79-11.3A4.33,4.33,0,0,1,11,23.6a2.14,2.14,0,0,1,2-.92,55.62,55.62,0,0,0,6.19-.15A13.8,13.8,0,0,0,25.9,20c3.15-2.4,4.58-5.75,5.15-9.56l.09,0a6.1,6.1,0,0,1,3.32,5.45A14.06,14.06,0,0,1,31.49,25.52Z"/><path class="cls-3" d="M31.05,10.45c-.57,3.81-2,7.16-5.15,9.56a13.8,13.8,0,0,1-6.71,2.52,55.62,55.62,0,0,1-6.19.15,2.14,2.14,0,0,0-2,.92,5,5,0,0,1,.2-2.15c.43-3.09.95-6.16,1.44-9.24.09-.6.17-1.19.28-1.78a1.67,1.67,0,0,1,1.61-1.37c3.68,0,7.36-.06,11,0a11.93,11.93,0,0,1,4.7.92A2,2,0,0,1,31.05,10.45Z"/></g></g></g></svg>