<svg xmlns="http://www.w3.org/2000/svg" viewBox="0 0 61.96 38.32"><defs><style>.cls-1{fill:#ec0005;}.cls-2{fill:#f79d00;}.cls-3{fill:#fd5e00;}</style></defs><g id="Layer_2" data-name="Layer 2"><g id="Layer_1-2" data-name="Layer 1"><g id="VUe86N"><path class="cls-1" d="M30.16,33.54l.77.69a.46.46,0,0,1-.07.07A19.11,19.11,0,0,1,13.8,37.55,19.17,19.17,0,0,1,.14,21.5,4.65,4.65,0,0,0,0,20.45V17.87c.07,0,.05-.11.05-.16a18.17,18.17,0,0,1,.56-3.35A18.89,18.89,0,0,1,8.84,3a18.65,18.65,0,0,1,8-2.88A6.88,6.88,0,0,0,17.92,0h2.43c0,.06.08,0,.13.05a18.1,18.1,0,0,1,4.07.72,19,19,0,0,1,6.38,3.32,1.42,1.42,0,0,1-.12.13,20.32,20.32,0,0,0-2.28,2.17,19.37,19.37,0,0,0-2.66,3.84,19,19,0,0,0-2.18,9.53A19.4,19.4,0,0,0,24,22.51a19.15,19.15,0,0,0,2.65,6.87A18.13,18.13,0,0,0,30.16,33.54Z"/><path class="cls-2" d="M62,18.07v2.28c-.06,0,0,.1-.05.16a18.92,18.92,0,0,1-1.11,5.25A19.12,19.12,0,0,1,44,38.27a18.93,18.93,0,0,1-9.23-1.72A20.33,20.33,0,0,1,31,34.21a18,18,0,0,0,3.16-3.12,18.42,18.42,0,0,0,3.19-5.91,18.57,18.57,0,0,0,.93-6.69c0-.77-.1-1.51-.2-2.26a18.76,18.76,0,0,0-1.74-5.53,18.49,18.49,0,0,0-2.22-3.5A18,18,0,0,0,31,4.1L31.13,4A18.94,18.94,0,0,1,40.5.14,8.91,8.91,0,0,0,41.67,0H44c0,.06.09,0,.14.05a16,16,0,0,1,2.5.33A19.26,19.26,0,0,1,61.82,16.82,12.57,12.57,0,0,0,62,18.07Z"/><path class="cls-3" d="M38.27,18.49a18.57,18.57,0,0,1-.93,6.69,18.42,18.42,0,0,1-3.19,5.91A18,18,0,0,1,31,34.21l-.06,0-.77-.69a18.13,18.13,0,0,1-3.55-4.16A19.15,19.15,0,0,1,24,22.51a19.4,19.4,0,0,1-.27-2.75,19,19,0,0,1,2.18-9.53,19.37,19.37,0,0,1,2.66-3.84,20.32,20.32,0,0,1,2.28-2.17,1.42,1.42,0,0,0,.12-.13H31a18,18,0,0,1,3.12,3.1,18.49,18.49,0,0,1,2.22,3.5,18.76,18.76,0,0,1,1.74,5.53C38.17,17,38.24,17.72,38.27,18.49Z"/></g></g></g></svg>