<svg xmlns="http://www.w3.org/2000/svg" viewBox="0 0 110.89 33.88"><defs><style>.cls-1{fill:#08c58d;}.cls-2{fill:#52038e;}</style></defs><g id="Layer_2" data-name="Layer 2"><g id="Layer_1-2" data-name="Layer 1"><path class="cls-1" d="M98.51,8.18A2.87,2.87,0,0,0,95.64,5c-1.91-.15-3.85,0-5.76-.14-1.2-.06-.88.75-.9,1.37s-.23,1.39.94,1.33c1.58-.09,3.17,0,4.75,0a1,1,0,0,1,1.07,1c.07.79-.48.77-1,.84-1.27.16-2.55.3-3.81.52a3.46,3.46,0,0,0-3,4,3.58,3.58,0,0,0,3.3,3.48,4.9,4.9,0,0,0,4.41-1.6c-.13,1.93,1.17,1.19,2,1.32.67.12.88-.18.86-.85C98.5,13.57,98.55,10.87,98.51,8.18Zm-3,5.36a3.36,3.36,0,0,1-3,1.56c-.84,0-1.65-.25-1.75-1.35s.62-1.51,1.54-1.69a16.86,16.86,0,0,1,2.15-.3c.39,0,1-.37,1.16.07A1.72,1.72,0,0,1,95.52,13.54Z"/><path class="cls-1" d="M110.79,5.7c-1.52,4.53-3,9.08-4.61,13.58a3.86,3.86,0,0,1-4.87,2c-.8-.36-.29-1.22-.37-1.84s.38-.68.84-.65c1.17.07,2.25.06,2.59-1.42a2.61,2.61,0,0,0-.12-1.49c-1.17-3.3-2.28-6.62-3.48-9.91-.29-.82-.15-1,.71-1a1.81,1.81,0,0,1,2.28,1.66c.52,2.15,1.3,4.24,2.06,6.65.8-2.66,1.49-5,2.2-7.32A2.23,2.23,0,0,1,110.74,5C111,5.21,110.86,5.48,110.79,5.7Z"/><path class="cls-1" d="M83.6,5.85c-1.87-1.29-4-1.18-6.24.32V5.51a.62.62,0,0,0-.62-.62H75.08a.62.62,0,0,0-.62.59c-.17.25,0,.71,0,1,0,4.52,0,9.05,0,13.57,0,1.09.38,1.29,1.32,1.23s1.61.13,1.49-1.19,0-2.82,0-4.39c3.74,2.69,7.68,1.15,8.66-3.09A6.61,6.61,0,0,0,83.6,5.85Zm-2.36,8.52a3,3,0,0,1-3.53-1,4.37,4.37,0,0,1-.29-4.13,2.82,2.82,0,0,1,3.17-1.63C82.2,7.74,83.14,9,83.15,11,83.17,12.74,82.53,13.88,81.24,14.37Z"/><g id="ACb8et"><path class="cls-2" d="M67.9,25.15a11.4,11.4,0,0,1-7.06,7.74A13.63,13.63,0,0,1,42.31,18.12C43.75,7.37,54.56,3.94,62.05,7.8A11.22,11.22,0,0,1,67.75,15l-6,2a5,5,0,0,1-.3-.45C60.08,13.62,58,12.34,55,12.67A6.28,6.28,0,0,0,49.3,18a12.44,12.44,0,0,0,.05,4.26,6.37,6.37,0,0,0,5.81,5.22c2.89.35,5.2-1.08,6.78-4.29,1,.31,2,.61,3,.94S66.82,24.78,67.9,25.15Z"/><path class="cls-2" d="M18.65,31.52C14.12,35.05,6,34.45,2.09,30.29A7.36,7.36,0,0,1,0,25.93c.43-.12.78-.24,1.13-.32l4.55-1c1,3.51,4.12,4.42,7.3,3.64A2.41,2.41,0,0,0,15.05,26a2.26,2.26,0,0,0-1.89-2.4c-1.72-.52-3.5-.86-5.24-1.35a19,19,0,0,1-3.11-1.14c-5.72-2.74-5-9.59-1.25-12.45a12,12,0,0,1,9.08-2.25,10.86,10.86,0,0,1,6.51,2.94,7.19,7.19,0,0,1,2.19,4.32l-5.58,1.26c-1.4-2.92-3.22-3.86-6.18-3.29C8,11.93,7.05,12.86,7,14.05s.71,2,2.35,2.42,3.08.53,4.57,1A16.69,16.69,0,0,1,18,19,7.53,7.53,0,0,1,18.65,31.52Z"/><path class="cls-2" d="M39.84,31.86a1.29,1.29,0,0,1-.69.88,10.26,10.26,0,0,1-10-.36,5.86,5.86,0,0,1-2.93-4.9c-.17-4.46,0-8.93,0-13.48h6.75v6.91c0,1.12,0,2.22,0,3.33,0,2.51,1.43,3.75,4,3.45a25.34,25.34,0,0,0,3-.71C39.87,28.6,39.91,30.23,39.84,31.86Z"/><rect class="cls-2" x="26.2" width="6.72" height="6.96"/><polygon class="cls-2" points="32.93 7 32.93 6.96 32.97 6.96 32.93 7"/><polygon class="cls-2" points="32.97 6.96 32.97 7 32.93 7 32.97 6.96"/><rect class="cls-2" x="32.97" y="7" width="6.81" height="6.58"/></g></g></g></svg>