<svg xmlns="http://www.w3.org/2000/svg" viewBox="0 0 142.54 109.06"><g id="Layer_2" data-name="Layer 2"><g id="Layer_1-2" data-name="Layer 1"><g id="eDiNGC.tif"><path d="M104.41.28Q90.27,13.56,76.11,26.79a2.42,2.42,0,0,1-1.55.52q-7.35-.18-14.7-.46a19.31,19.31,0,0,0-14.5,5.48C40.26,37.16,35.25,42.09,30,46.7,26,50.11,23.06,54,21.78,59a4.59,4.59,0,0,1-.27.7,8.32,8.32,0,0,1-3.41,3.65L15.42,60.5,0,75l32,34.09L47.4,94.58,43.1,90c1.35-1.43,2.51-2.68,4.55-2.93a20.34,20.34,0,0,0,8.4-3.29c.93-.59,1.8-1.28,2.79-2l18.53,19.76,1.15-1.09,37.57-35.22L142.54,40.4,104.65,0A2.2,2.2,0,0,1,104.41.28ZM41.32,94.45l-9.17,8.6L6,75.19l9.16-8.59Zm6.4-23a1.6,1.6,0,0,1,1.93.49c2,2.21,4.07,4.37,6.18,6.62a18.45,18.45,0,0,1-6.18,3.59,4.43,4.43,0,0,1-.47.17c-3.33.75-6.89,1-8.83,4.57L21.18,66.51a12.54,12.54,0,0,0,2.5-2.42,43.53,43.53,0,0,0,3.1-6.46,13.74,13.74,0,0,1,3.67-5.52c5.93-5.45,11.8-11,17.65-16.53A15.6,15.6,0,0,1,60,31.1c3.6.17,7.2.24,11.18.37-3.33,3.12-6.55,5.84-9.39,8.91-2.29,2.47-4.75,3.64-8.07,3a16.89,16.89,0,0,0-2.47-.14c0,1.46,0,2.81,0,4.59a3.41,3.41,0,0,1,1.11-.24c6.57.19,13.13.38,19.69.64a4.24,4.24,0,0,1,3.67,6.48,4.3,4.3,0,0,1-4.13,2c-5.32-.19-10.64-.35-16-.53a12.73,12.73,0,0,1-1.3-.18C52.43,65,50.71,66.69,42.08,68.3c.09,1.3.18,2.62.3,4.3C44.22,72.23,46,72,47.72,71.5ZM86.08,60.32a10.56,10.56,0,0,0,8.57.71,10.76,10.76,0,0,0-2.2-20.87,10.4,10.4,0,0,0-8,2.33,11.57,11.57,0,0,0-4.11,7.37,9.3,9.3,0,0,0-4.54-5.06L96.5,25.35a13.09,13.09,0,0,0,14.75.46l6,6.41a13.07,13.07,0,0,0-.42,14.83l-1,1Q101.22,61.69,86.63,75.4a1.47,1.47,0,0,1-2.17.28,12.39,12.39,0,0,0-12.81-.3l-.85.42-6-6.43a13.13,13.13,0,0,0,2.5-8.5l3.24.07c5.66.18,8.58-1.95,10.15-7.61A11.11,11.11,0,0,0,86.08,60.32Zm.32-5.08a6.38,6.38,0,1,1,9,.24A6.46,6.46,0,0,1,86.4,55.24Zm50-15L77.53,95.44,52.62,68.87a16.09,16.09,0,0,0,5.12-8.05L63,61a6.67,6.67,0,0,1-.92,4.6,47,47,0,0,1-3,3.86L70.51,81.7c2.1-2.18,4.45-3.78,7.61-3.67s5.41,1.86,7.29,4.22l37.3-35c-2.22-2.09-3.8-4.45-3.7-7.61s1.87-5.4,4.19-7.36L111.55,19.88c-2,2.16-4.35,3.8-7.5,3.72s-5.46-1.74-7.49-4.26l-1.13,1.05Q83.39,31.7,71.34,43a2.65,2.65,0,0,1-2.2.85c-1.46-.13-2.94-.14-4.66-.2l40-37.5Z"/></g></g></g></svg>