<svg xmlns="http://www.w3.org/2000/svg" viewBox="0 0 182.68 74.98"><g id="Layer_2" data-name="Layer 2"><g id="Layer_1-2" data-name="Layer 1"><g id="Q7ifY8"><path d="M49.08,44.33c-.08.25-.16.52-.25.79a36.34,36.34,0,0,1-7.27,12.13A8.72,8.72,0,0,1,37.46,60a8.53,8.53,0,0,1-5.65-.53,28.57,28.57,0,0,0-3.3-1.24,11.43,11.43,0,0,0-7.47.61A33.84,33.84,0,0,1,17.81,60,6.86,6.86,0,0,1,11,58.35a25.47,25.47,0,0,1-3.74-4.29A37.93,37.93,0,0,1,.72,39.27,27.58,27.58,0,0,1,.48,28a16.52,16.52,0,0,1,5.87-10,14,14,0,0,1,8.87-3.14,13,13,0,0,1,4.64,1c1.14.42,2.28.86,3.41,1.27a4.6,4.6,0,0,0,3.25,0c1.53-.57,3.07-1.15,4.62-1.69A13.2,13.2,0,0,1,36,14.56,14.17,14.17,0,0,1,46.4,19.09c.41.46.77,1,1.16,1.44-4.36,3-6.83,7-6.49,12.37S44.34,41.94,49.08,44.33Z"/><path d="M103.51,16.61a16.31,16.31,0,0,0-7-9.51,18.66,18.66,0,0,0-10.3-2.87c-6.87,0-13.74,0-20.61,0-.13,0-.25,0-.38,0V59.84H73.8v-19h12a20.88,20.88,0,0,0,5-.57c5.76-1.43,10-4.77,12.19-10.32A20.1,20.1,0,0,0,103.51,16.61ZM95,26.51a9.27,9.27,0,0,1-6.88,6.54,16.59,16.59,0,0,1-4.38.55H74.16l-.36,0V11.52l.28,0c3.3,0,6.61,0,9.92,0a14.57,14.57,0,0,1,5.42,1A9.09,9.09,0,0,1,95.08,19,13.8,13.8,0,0,1,95,26.51Z"/><path d="M141,31.54a11.57,11.57,0,0,0-2.79-7.4,14.05,14.05,0,0,0-6.77-4.24,23.21,23.21,0,0,0-8.65-.85,18.14,18.14,0,0,0-8.29,2.6,12.18,12.18,0,0,0-5.54,7,10.39,10.39,0,0,0-.43,2.74h7.74a.56.56,0,0,0,.07-.16,6.42,6.42,0,0,1,3.89-4.62,11.19,11.19,0,0,1,8.09-.3,5.72,5.72,0,0,1,4.26,5c.17,1.46.09,2.95.12,4.42,0,0,0,0,0,.07a1.2,1.2,0,0,1-.2,0c-3.65.22-7.3.43-10.94.66A25.57,25.57,0,0,0,114,38a12.38,12.38,0,0,0-5,3.26,9.88,9.88,0,0,0-2.52,6.94,11,11,0,0,0,6.68,10.65,15.77,15.77,0,0,0,10.39,1.06,13.45,13.45,0,0,0,9.18-6.51,1.74,1.74,0,0,1,.18-.22l.1,0v6.62h8V38.18C141,36,141.05,33.75,141,31.54Zm-8.47,14.91A7.53,7.53,0,0,1,129,51.71,11.44,11.44,0,0,1,118.45,53a4.93,4.93,0,0,1-3.38-3.55,5,5,0,0,1,3.13-6.14,12.73,12.73,0,0,1,4.29-1c3.28-.23,6.57-.43,9.86-.64h.43C132.7,43.27,132.75,44.88,132.52,46.45Z"/><path d="M182.68,19.5c-.05.15-.07.27-.11.37Q175,41.2,167.35,62.52a30.2,30.2,0,0,1-3.23,6.7A12.25,12.25,0,0,1,155,74.79a29.6,29.6,0,0,1-6.17.06l-.4-.08V68.13l1.74.09a9.58,9.58,0,0,0,3.87-.47A5.92,5.92,0,0,0,157,65.32a13.61,13.61,0,0,0,1.36-3.13c.2-.64.42-1.26.6-1.9a1,1,0,0,0,0-.58q-3.94-11-7.92-22l-6.45-17.84c0-.12-.07-.24-.12-.39h9q5.09,16.41,10.17,32.86h.14a2,2,0,0,0,.13-.34q5-16,9.93-32.11c.11-.32.23-.45.58-.45,2.62,0,5.24,0,7.86,0Z"/><path d="M36.58,0V1.22a13.37,13.37,0,0,1-8.26,12.07,8.74,8.74,0,0,1-3.9.6C23.18,8,30.18-.09,36.58,0Z"/></g></g></g></svg>