<svg xmlns="http://www.w3.org/2000/svg" viewBox="0 0 214.21 69.46"><defs><style>.cls-1{fill:#002d88;}</style></defs><g id="Layer_2" data-name="Layer 2"><g id="Layer_1-2" data-name="Layer 1"><g id="yKm4M8"><path class="cls-1" d="M200.23,1.11a3.21,3.21,0,0,0-.51,0c-4.76,0-9.51,0-14.26,0a7.75,7.75,0,0,0-1.6.16A6.93,6.93,0,0,0,179.37,4a15.28,15.28,0,0,0-1.83,3.34Q170.27,24.78,163,42.22L152.47,67.55c-.08.23-.18.46-.31.77h18.16c.08-.25.16-.46.24-.66q1.53-4.48,3.08-8.95c.2-.56.2-.56.74-.56H195.5c.57,0,.57,0,.67.54.62,2.85,1.21,5.73,1.83,8.58.07.36.15.69.23,1,.82.13,15.49.08,16,0Q207.24,34.68,200.23,1.11ZM179,44.48c0-.46,8.71-24.64,9.05-25.13,1.8,8.4,3.57,16.75,5.37,25.08C192.91,44.56,179.6,44.58,179,44.48Z"/><path class="cls-1" d="M81.3,1.08c-.08.26-.16.46-.24.67C78.65,7.48,76.26,13.24,73.87,19Q63.66,43.32,53.49,67.71a1.07,1.07,0,0,0-.12.33.43.43,0,0,1-.52.31H35c-.05-.23-.12-.41-.17-.62l-12-46.38c-.62-2.44-1.28-4.88-1.9-7.34a8.16,8.16,0,0,0-4.68-5.63,66,66,0,0,0-7.6-3,68.91,68.91,0,0,0-8-2.13A4.82,4.82,0,0,1,0,3.16c.13-.72.23-1.36.36-2a3.25,3.25,0,0,1,.51-.05h28.6a8.3,8.3,0,0,1,3.24.61,7.58,7.58,0,0,1,4.91,6q1.31,6.78,2.57,13.57,1.34,7,2.69,14c.7,3.65,1.36,7.3,2.06,11a2.87,2.87,0,0,0,.18.49c6-15.32,12-30.5,18-45.69Z"/><path class="cls-1" d="M129.42,17.66a3.7,3.7,0,0,0,0,4.23A6.1,6.1,0,0,0,131,23.62c1,.69,2,1.38,3,2,1.8,1.06,3.63,2,5.45,3a42.62,42.62,0,0,1,6.89,4.48A18.94,18.94,0,0,1,151,38.36a15.79,15.79,0,0,1,2,7.2,21.13,21.13,0,0,1-2.57,11.2,21.93,21.93,0,0,1-8.3,8.2A33.3,33.3,0,0,1,132,68.63a44.19,44.19,0,0,1-11.07.77,54.22,54.22,0,0,1-16.32-3.29c-.23-.07-.46-.18-.69-.25-.08,0-.13-.08-.29-.16,1-4.83,2.08-9.71,3.11-14.62.21.11.36.16.49.23a36.72,36.72,0,0,0,11.67,3.78,31.23,31.23,0,0,0,6.26.33,15.35,15.35,0,0,0,5.58-1.28,8.2,8.2,0,0,0,2.9-2.16,5,5,0,0,0,1.24-3.65,4.61,4.61,0,0,0-.83-2.15,7.87,7.87,0,0,0-1.85-1.93,26.17,26.17,0,0,0-4.11-2.65c-1.87-1.05-3.77-2.05-5.65-3.13a34.72,34.72,0,0,1-5.52-3.73,18.3,18.3,0,0,1-4.27-5,15,15,0,0,1-1.85-8.4,20.59,20.59,0,0,1,1.59-7.07,20.83,20.83,0,0,1,7.76-9A31.14,31.14,0,0,1,130.73.93a41.47,41.47,0,0,1,11-.88,46.48,46.48,0,0,1,13.61,2.6c.29.1.54.21.85.33-1,4.71-2,9.38-3.05,14.11a4.44,4.44,0,0,1-.44-.15,35.22,35.22,0,0,0-10.82-2.86,20.84,20.84,0,0,0-7.09.31,11.13,11.13,0,0,0-3.42,1.36A6.13,6.13,0,0,0,129.42,17.66Z"/><path class="cls-1" d="M106,1.11Q98.85,34.75,91.78,68.32H74.44Q81.57,34.68,88.7,1.11Z"/></g></g></g></svg>