<svg xmlns="http://www.w3.org/2000/svg" viewBox="0 0 91.67 37.63"><g id="Layer_2" data-name="Layer 2"><g id="Layer_1-2" data-name="Layer 1"><g id="Q7ifY8"><path d="M24.63,22.24c0,.13-.08.27-.13.4a18.16,18.16,0,0,1-3.64,6.09A4.39,4.39,0,0,1,18.8,30.1,4.28,4.28,0,0,1,16,29.84a14.35,14.35,0,0,0-1.65-.63,5.76,5.76,0,0,0-3.75.31,15.75,15.75,0,0,1-1.62.6,3.47,3.47,0,0,1-3.41-.84,12.46,12.46,0,0,1-1.87-2.16,19,19,0,0,1-3.3-7.41A13.89,13.89,0,0,1,.24,14,8.25,8.25,0,0,1,3.18,9,7,7,0,0,1,7.64,7.42,6.68,6.68,0,0,1,10,7.93l1.71.64a2.29,2.29,0,0,0,1.63,0l2.31-.84a6.72,6.72,0,0,1,2.43-.42,7.07,7.07,0,0,1,5.23,2.27c.21.23.39.48.59.72a6.7,6.7,0,0,0-3.26,6.21A6.62,6.62,0,0,0,24.63,22.24Z"/><path d="M51.94,8.34a8.19,8.19,0,0,0-3.53-4.78,9.44,9.44,0,0,0-5.17-1.44c-3.45,0-6.89,0-10.34,0h-.19V30H37V20.5h6a11.09,11.09,0,0,0,2.5-.29A8.42,8.42,0,0,0,51.66,15,10.11,10.11,0,0,0,51.94,8.34Zm-4.29,5a4.64,4.64,0,0,1-3.45,3.28,7.82,7.82,0,0,1-2.2.28H37V5.78h5.12a7,7,0,0,1,2.72.49,4.55,4.55,0,0,1,2.84,3.25A6.84,6.84,0,0,1,47.65,13.3Z"/><path d="M70.75,15.83a5.79,5.79,0,0,0-1.4-3.71A7,7,0,0,0,66,10a11.38,11.38,0,0,0-4.34-.43,9,9,0,0,0-4.16,1.31,6.08,6.08,0,0,0-2.78,3.51,5.23,5.23,0,0,0-.21,1.38h3.88a.32.32,0,0,0,0-.09,3.23,3.23,0,0,1,2-2.31,5.55,5.55,0,0,1,4-.15,2.86,2.86,0,0,1,2.14,2.5c.09.73,0,1.48.07,2.22t0,0l-.1,0L61,18.31a12.82,12.82,0,0,0-3.76.75A6.26,6.26,0,0,0,54.7,20.7a4.94,4.94,0,0,0-1.26,3.48,5.54,5.54,0,0,0,3.35,5.35,8,8,0,0,0,5.21.53,6.75,6.75,0,0,0,4.61-3.27.87.87,0,0,1,.09-.11l0,0V30h4V19.16C70.76,18.05,70.78,16.94,70.75,15.83ZM66.5,23.31A3.78,3.78,0,0,1,64.75,26a5.74,5.74,0,0,1-5.31.63,2.47,2.47,0,0,1-1.7-1.78,2.52,2.52,0,0,1,1.57-3.08,6.19,6.19,0,0,1,2.15-.5c1.65-.12,3.3-.22,4.95-.32h.22C66.59,21.71,66.61,22.52,66.5,23.31Z"/><path d="M91.67,9.78a1.45,1.45,0,0,1-.06.19Q87.8,20.68,84,31.37a14.91,14.91,0,0,1-1.63,3.36,6.14,6.14,0,0,1-4.57,2.8,15.29,15.29,0,0,1-3.1,0l-.2,0V34.19l.88,0A4.91,4.91,0,0,0,77.3,34a3,3,0,0,0,1.46-1.22,7,7,0,0,0,.68-1.57c.1-.32.21-.64.3-1a.41.41,0,0,0,0-.29l-4-11-3.24-9c0-.06,0-.12-.06-.2H77q2.55,8.24,5.1,16.5h.07a.87.87,0,0,0,.07-.17q2.49-8,5-16.11c.06-.16.12-.22.29-.22h4.18Z"/><path d="M18.36,0V.61a6.7,6.7,0,0,1-4.15,6.06,4.32,4.32,0,0,1-2,.3C11.63,4,15.15,0,18.36,0Z"/></g></g></g></svg>