<svg xmlns="http://www.w3.org/2000/svg" viewBox="0 0 123.49 76.36"><defs><style>.cls-1{fill:#ec0005;}.cls-2{fill:#f79d00;}.cls-3{fill:#fd5e00;}</style></defs><g id="Layer_2" data-name="Layer 2"><g id="Layer_1-2" data-name="Layer 1"><g id="VUe86N"><path class="cls-1" d="M60.1,66.85l1.54,1.36a.92.92,0,0,1-.14.14,38,38,0,0,1-34,6.48,38.14,38.14,0,0,1-27.21-32A8.79,8.79,0,0,0,0,40.75V35.6c.14-.06.1-.2.1-.3A38.16,38.16,0,0,1,17.62,6,36.82,36.82,0,0,1,33.51.29,12.51,12.51,0,0,0,35.71,0h4.83c.07.12.17.08.27.1a36.4,36.4,0,0,1,8.11,1.44A37.51,37.51,0,0,1,61.64,8.15a2.05,2.05,0,0,1-.25.27,39.31,39.31,0,0,0-4.53,4.32,38.63,38.63,0,0,0-5.3,7.66,37.79,37.79,0,0,0-4.35,19,40.33,40.33,0,0,0,.54,5.5A38.06,38.06,0,0,0,53,58.55,36.66,36.66,0,0,0,60.1,66.85Z"/><path class="cls-2" d="M123.49,36v4.52c-.13.09-.09.21-.11.33a38.16,38.16,0,0,1-54,32,40.09,40.09,0,0,1-7.58-4.66A36.07,36.07,0,0,0,68.06,62a37,37,0,0,0,6.36-11.77,37.57,37.57,0,0,0,1.85-13.34,44.58,44.58,0,0,0-.41-4.49,38.16,38.16,0,0,0-7.88-18,36,36,0,0,0-6.22-6.17L62,8A37.73,37.73,0,0,1,80.72.29,16.34,16.34,0,0,0,83,0h4.63c.07.12.17.08.27.1a31.56,31.56,0,0,1,5,.66A38.33,38.33,0,0,1,123.2,33.53,23.15,23.15,0,0,0,123.49,36Z"/><path class="cls-3" d="M76.27,36.84a37.57,37.57,0,0,1-1.85,13.34A37,37,0,0,1,68.06,62a36.07,36.07,0,0,1-6.3,6.23l-.12,0L60.1,66.85A36.66,36.66,0,0,1,53,58.55a38.06,38.06,0,0,1-5.29-13.68,40.33,40.33,0,0,1-.54-5.5,37.79,37.79,0,0,1,4.35-19,38.63,38.63,0,0,1,5.3-7.66,39.31,39.31,0,0,1,4.53-4.32,2.05,2.05,0,0,0,.25-.27l.12,0A36,36,0,0,1,68,14.34a38.16,38.16,0,0,1,7.88,18A44.58,44.58,0,0,1,76.27,36.84Z"/></g></g></g></svg>