<svg xmlns="http://www.w3.org/2000/svg" viewBox="0 0 123.13 122.62"><g id="Layer_2" data-name="Layer 2"><g id="Layer_1-2" data-name="Layer 1"><g id="s5UBE8.tif"><path d="M117.31,44.72a6.33,6.33,0,0,0,5.35-4.07c.17-.4.31-.81.47-1.21V37c-.72-2.56-2.54-4.06-4.78-5.35Q92,16.53,65.61,1.3A22.88,22.88,0,0,0,62.29,0H60.85c-2.05,1-4.18,1.8-6.14,2.93Q29.15,17.62,3.63,32.39A6.48,6.48,0,0,0,0,38.33,5.87,5.87,0,0,0,3.37,43.9a24.47,24.47,0,0,0,4.7,1.18V64.43H3.68C1,64.43,0,65.43,0,68.14,0,70,0,71.75,0,73.55a3,3,0,0,0,3.16,3.29c1.12,0,2.24,0,3.55,0v4c0,2.94.86,3.81,3.76,3.83h1.18v17.61c-.65,0-1.31,0-2,0a2.86,2.86,0,0,0-3,3.08c0,1.55,0,3.1,0,4.78-1.2,0-2.27,0-3.35,0-2.2,0-3.34,1.15-3.36,3.32,0,2,0,3.93,0,5.89a3,3,0,0,0,3.1,3.23c.28,0,.57,0,.84,0H56.74a5.68,5.68,0,0,0,1.65-.17,1.61,1.61,0,0,0,1.19-1.86A1.66,1.66,0,0,0,58,119c-.44,0-.88,0-1.32,0h-53v-5.15H119.45V119H67.06c-1.9,0-2.71.53-2.71,1.77s.87,1.84,2.69,1.84q26.08,0,52.18,0c1.77,0,3.11-.51,3.91-2.14V112.3a3.56,3.56,0,0,0-3.87-2.17c-.9.08-1.81,0-2.83,0,0-1.57,0-3,0-4.43,0-2.37-1-3.41-3.45-3.44h-1.51V84.67c.71,0,1.42,0,2.12,0a2.77,2.77,0,0,0,2.83-2.81c0-1.59,0-3.19,0-5,.94,0,1.8,0,2.65,0a3.8,3.8,0,0,0,4.06-2.07V66.61a3.43,3.43,0,0,0-3.72-2.2c-1.39.09-2.79,0-4.3,0V44.73A20.11,20.11,0,0,0,117.31,44.72ZM10.42,81v-4H32.61v4Zm17.12,3.73v17.46H15.44V84.72ZM32.61,110H10.41V106h22.2Zm14.18-4.68c0,1.55,0,3.1,0,4.72H36.29v-3.89c0-3-.92-3.88-3.86-3.91-.35,0-.7,0-1.12-.06V84.68c.67,0,1.3,0,1.93,0a2.87,2.87,0,0,0,3-3c0-1.2,0-2.4,0-3.6V76.89H46.78c0,1.2.06,2.39,0,3.56-.21,3.14,1.15,4.54,4.11,4.24a4.16,4.16,0,0,1,.88.08v17.51c-.63,0-1.25,0-1.87,0A2.88,2.88,0,0,0,46.79,105.36ZM50.48,81V77H72.7v4Zm17.14,3.78v17.46H55.52V84.75Zm5,25.3H50.47V106h22.2Zm14.18-4.57c0,1.51,0,3,0,4.6H76.36v-4c0-2.82-1-3.78-3.73-3.8H71.38V84.68c.69,0,1.32,0,2,0a2.78,2.78,0,0,0,3-2.89c.06-1.59,0-3.18,0-4.85H86.85v3.78c0,3.07.86,4,3.89,4h1.05v17.6c-.57,0-1.19,0-1.81,0A2.94,2.94,0,0,0,86.85,105.48Zm25.88.48v4.11H90.52V106Zm-17.15-3.77V84.75h12.1v17.44ZM112.74,81H90.54v-4h22.2ZM119.44,68v5.12H3.68V68H56.87c1.84,0,2.73-.59,2.74-1.8s-.87-1.81-2.7-1.81H11.81c0-.43-.06-.81-.06-1.19,0-6.45,0-12.9,0-19.35a1.7,1.7,0,0,1,1-1.68q24-13.82,47.94-27.68a1.61,1.61,0,0,1,1.86,0q24,13.9,48,27.78a1.65,1.65,0,0,1,.81,1.13c0,6.85,0,13.7,0,20.56a3.92,3.92,0,0,1-.1.41H66.77c-1.86,0-2.72.55-2.75,1.76S64.91,68,66.82,68Zm-5.1-27.72Q88.92,25.65,63.5,10.94a3.35,3.35,0,0,0-3.84,0Q34.22,25.72,8.71,40.37a5.55,5.55,0,0,1-2.11.74,2.67,2.67,0,0,1-2.78-1.85,2.76,2.76,0,0,1,.79-3.16,6.74,6.74,0,0,1,1.09-.74Q32.43,19.94,59.14,4.49a4.37,4.37,0,0,1,4.83,0q26.72,15.47,53.44,30.88a6.57,6.57,0,0,1,1.19.81,2.81,2.81,0,0,1,.69,3.19,3,3,0,0,1-3.15,1.79A15.83,15.83,0,0,1,114.34,40.32Z"/><path d="M40.39,49.7a1.12,1.12,0,0,1-.22-1.35,5,5,0,0,0-4.7-7c-1.16,0-2.32,0-3.48,0-1.63,0-2.27.62-2.29,2.25,0,2.2,0,4.4,0,6.61s0,4.4,0,6.61c0,1.52.63,2.11,2.13,2.13s2.88,0,4.32,0a5.35,5.35,0,0,0,5.18-3.25A5.27,5.27,0,0,0,40.39,49.7Zm-7-4.69c.8,0,1.52,0,2.23,0A1.35,1.35,0,0,1,37,46.43a1.33,1.33,0,0,1-1.35,1.4c-.72.06-1.44,0-2.24,0Zm3,10.34c-.67,0-1.36,0-2,0-.27,0-.55,0-1,0V51.48c1.07,0,2.07-.06,3.05,0a1.93,1.93,0,0,1,0,3.86Z"/><path d="M76.87,56.57a2,2,0,0,1-3.81,1.13l-5.89-8.51c0,.59-.09.92-.09,1.25,0,2.17,0,4.33,0,6.5,0,1.3-.75,2.07-1.86,2s-1.73-.74-1.74-2c0-4.49,0-9,0-13.47a1.8,1.8,0,0,1,1.25-2,1.78,1.78,0,0,1,2.16.87c1.78,2.56,3.55,5.14,5.33,7.7.24.35.5.68,1,1.31v-2c0-2-.06-4.09,0-6.13a1.82,1.82,0,0,1,1.75-1.93,1.79,1.79,0,0,1,1.83,1.83Q76.83,49.91,76.87,56.57Z"/><path d="M59.56,56.55c-1.71-4.61-3.42-9.22-5.26-13.78a2.54,2.54,0,0,0-1.91-1.27,2.52,2.52,0,0,0-1.9,1.27c-1.85,4.55-3.57,9.16-5.3,13.76a1.75,1.75,0,0,0,1,2.36,1.8,1.8,0,0,0,2.33-1.13c.31-.69.56-1.41.86-2.19a28.76,28.76,0,0,0,3.36,0c1.8-.23,3,.14,3.44,2.18a1.66,1.66,0,0,0,2.28,1.17A1.78,1.78,0,0,0,59.56,56.55ZM50.82,51.9c.25-.69.47-1.32.7-1.94s.5-1.26.87-2.2c.57,1.51,1,2.78,1.57,4.14Z"/><path d="M93.56,58.13a1.63,1.63,0,0,1-2.07.75,3.59,3.59,0,0,1-1.15-.82c-1.47-1.39-2.92-2.8-4.64-4.44,0,1.31,0,2.3,0,3.28,0,1.36-.68,2.08-1.8,2.08s-1.78-.74-1.79-2.1q0-6.72,0-13.45c0-1.4.72-2.2,1.84-2.18s1.72.79,1.75,2.14c0,.79,0,1.58,0,2.71l3.19-2.89c.38-.35.75-.71,1.14-1.06,1.06-.94,2.08-1,2.85-.13s.59,1.84-.37,2.75c-1.31,1.23-2.65,2.44-4,3.66l-1.48,1.38.43-.29c1.91,2.1,3.81,4.21,5.73,6.31A1.81,1.81,0,0,1,93.56,58.13Z"/><path d="M61.81,20.82a7.56,7.56,0,1,0,7.6,7.53A7.52,7.52,0,0,0,61.81,20.82Zm.07,11.51a4,4,0,1,1,3.92-4A4,4,0,0,1,61.88,32.33Z"/></g></g></g></svg>