<svg xmlns="http://www.w3.org/2000/svg" viewBox="0 0 248.89 76.03"><defs><style>.cls-1{fill:#08c58d;}.cls-2{fill:#52038e;}</style></defs><g id="Layer_2" data-name="Layer 2"><g id="Layer_1-2" data-name="Layer 1"><path class="cls-1" d="M221.09,18.36c-.07-4.21-2.27-6.74-6.43-7.06S206,11.2,201.72,11c-2.68-.12-2,1.69-2,3.08s-.52,3.13,2.11,3c3.54-.2,7.1,0,10.65,0a2.12,2.12,0,0,1,2.39,2.24c.16,1.77-1.06,1.73-2.21,1.88-2.85.37-5.72.68-8.55,1.18-4.54.8-6.9,4-6.67,8.91A8,8,0,0,0,204.85,39a11,11,0,0,0,9.91-3.61c-.3,4.34,2.61,2.68,4.45,3,1.52.26,2-.42,1.95-1.92C221.08,30.45,221.19,24.4,221.09,18.36Zm-6.71,12a7.5,7.5,0,0,1-6.7,3.5c-1.88-.09-3.7-.55-3.93-3s1.4-3.38,3.45-3.78A39.07,39.07,0,0,1,212,26.4c.88-.06,2.14-.84,2.62.15A3.85,3.85,0,0,1,214.38,30.39Z"/><path class="cls-1" d="M248.66,12.8c-3.42,10.17-6.74,20.37-10.34,30.48-1.4,3.94-7.13,6.12-10.95,4.39-1.78-.8-.63-2.73-.82-4.13s.86-1.51,1.9-1.45c2.61.15,5.05.13,5.8-3.19a5.79,5.79,0,0,0-.27-3.35c-2.62-7.41-5.13-14.85-7.8-22.24-.66-1.83-.35-2.18,1.58-2.36,3-.26,4.4.68,5.13,3.73,1.17,4.82,2.91,9.5,4.63,14.92,1.78-6,3.34-11.2,4.92-16.42.54-1.8,4.71-3.11,6.1-2C249.13,11.7,248.83,12.29,248.66,12.8Z"/><path class="cls-1" d="M187.63,13.12c-4.19-2.88-9-2.65-14,.72V12.37A1.39,1.39,0,0,0,172.24,11h-3.73a1.38,1.38,0,0,0-1.38,1.31c-.38.57-.06,1.61-.06,2.29-.06,10.16.05,20.32-.1,30.48,0,2.43.86,2.87,3,2.76,1.86-.11,3.59.27,3.33-2.68-.28-3.14-.06-6.32-.06-9.85,8.38,6,17.24,2.58,19.42-6.94C194,22.44,191.88,16,187.63,13.12Zm-5.3,19.13a6.75,6.75,0,0,1-7.92-2.34c-2.13-2.89-1.63-6.24-.64-9.27.9-2.76,3.94-4,7.1-3.65,3.62.39,5.74,3.18,5.77,7.6Q186.69,30.61,182.33,32.25Z"/><g id="ACb8et"><path class="cls-2" d="M152.39,56.44c-2.57,8.46-7.8,14.26-15.83,17.39C114.28,82.5,91.76,64.41,95,40.67c3.24-24.13,27.52-31.82,44.31-23.16,6.49,3.35,10.58,8.7,12.81,16.05l-13.56,4.57a9.15,9.15,0,0,1-.67-1c-3-6.57-7.75-9.44-14.41-8.69a14.12,14.12,0,0,0-12.78,11.93,28.21,28.21,0,0,0,.11,9.57c1.28,6.67,6.32,10.92,13,11.72,6.5.77,11.68-2.43,15.22-9.63,2.17.68,4.41,1.37,6.63,2.1S150,55.61,152.39,56.44Z"/><path class="cls-2" d="M41.86,70.75C31.68,78.66,13.55,77.31,4.7,68A16.47,16.47,0,0,1,0,58.2c1-.27,1.74-.55,2.54-.72q5.12-1.09,10.22-2.15c2.32,7.87,9.24,9.91,16.38,8.16,2.6-.65,4.46-2.17,4.64-5.13s-1.7-4.64-4.24-5.4c-3.87-1.15-7.87-1.91-11.76-3a44.14,44.14,0,0,1-7-2.55C-2,41.23-.37,25.85,8,19.44c6.06-4.65,13-5.94,20.39-5.06A24.42,24.42,0,0,1,43,21a16.23,16.23,0,0,1,4.93,9.71L35.38,33.51c-3.15-6.55-7.23-8.66-13.89-7.38-3.46.66-5.67,2.73-5.77,5.4S17.3,36.08,21,37c3.4.82,6.91,1.2,10.26,2.16a37.28,37.28,0,0,1,9.2,3.56A16.91,16.91,0,0,1,41.86,70.75Z"/><path class="cls-2" d="M89.42,71.5a2.9,2.9,0,0,1-1.54,2c-7.6,3.42-15.18,3.58-22.47-.79a13.19,13.19,0,0,1-6.56-11c-.38-10-.12-20-.12-30.27H73.89V46.94c0,2.49,0,5,0,7.47.09,5.64,3.21,8.42,8.92,7.74a59,59,0,0,0,6.66-1.6C89.49,64.2,89.57,67.86,89.42,71.5Z"/><rect class="cls-2" x="58.81" width="15.09" height="15.62"/><polygon class="cls-2" points="73.91 15.71 73.91 15.62 74 15.62 73.91 15.71"/><polygon class="cls-2" points="74 15.62 74 15.71 73.91 15.71 74 15.62"/><rect class="cls-2" x="74" y="15.71" width="15.28" height="14.78"/></g></g></g></svg>