<svg xmlns="http://www.w3.org/2000/svg" xmlns:xlink="http://www.w3.org/1999/xlink" viewBox="0 0 1317.22 224.54"><defs><style>.cls-1{fill:none;}.cls-2{fill:#002d88;}.cls-3{fill:#ec0005;}.cls-4{fill:#f79d00;}.cls-5{fill:#fd5e00;}.cls-6{fill:#0099df;}.cls-7{fill:#001e6b;}.cls-8{fill:#282a2e;}.cls-9{fill:#1898d6;}.cls-10{fill:#82b736;}.cls-11{clip-path:url(#clip-path);}.cls-12{fill:#f75b13;}.cls-13{fill:#f75a12;}.cls-14{fill:#f75912;}.cls-15{fill:#f75812;}.cls-16{fill:#f75712;}.cls-17{fill:#f75612;}.cls-18{fill:#f75511;}.cls-19{fill:#f75411;}.cls-20{fill:#f75311;}.cls-21{fill:#f75211;}.cls-22{fill:#f75111;}.cls-23{fill:#f85010;}.cls-24{fill:#f84f10;}.cls-25{fill:#f84e10;}.cls-26{fill:#f84d10;}.cls-27{fill:#f84c10;}.cls-28{fill:#f84b0f;}.cls-29{fill:#f84a0f;}.cls-30{fill:#f8490f;}.cls-31{fill:#f8480f;}.cls-32{fill:#f8470f;}.cls-33{fill:#f8460e;}.cls-34{fill:#f8450e;}.cls-35{fill:#f9430e;}.cls-36{fill:#f9420e;}.cls-37{fill:#f9410d;}.cls-38{fill:#f9400d;}.cls-39{fill:#f93f0d;}.cls-40{fill:#f93e0d;}.cls-41{fill:#f93d0d;}.cls-42{fill:#f93c0c;}.cls-43{fill:#f93b0c;}.cls-44{fill:#f93a0c;}.cls-45{fill:#f9390c;}.cls-46{fill:#f9380c;}.cls-47{fill:#fa370b;}.cls-48{fill:#fa360b;}.cls-49{fill:#fa350b;}.cls-50{fill:#fa340b;}.cls-51{fill:#fa330b;}.cls-52{fill:#fa320a;}.cls-53{fill:#fa310a;}.cls-54{fill:#fa300a;}.cls-55{fill:#fa2f0a;}.cls-56{fill:#fa2e0a;}.cls-57{fill:#fa2d09;}.cls-58{fill:#fa2c09;}.cls-59{fill:#fa2b09;}.cls-60{fill:#fb2a09;}.cls-61{fill:#fb2909;}.cls-62{fill:#fb2808;}.cls-63{fill:#fb2708;}.cls-64{fill:#fb2608;}.cls-65{fill:#fb2508;}.cls-66{fill:#fb2407;}.cls-67{fill:#fb2307;}.cls-68{fill:#fb2207;}.cls-69{fill:#fb2107;}.cls-70{fill:#fb2007;}.cls-71{fill:#fb1f06;}.cls-72{fill:#fc1e06;}.cls-73{fill:#fc1d06;}.cls-74{fill:#f3871c;}.cls-75{fill:#f3861c;}.cls-76{fill:#f3851c;}.cls-77{fill:#f3841b;}.cls-78{fill:#f3831b;}.cls-79{fill:#f3821b;}.cls-80{fill:#f3811b;}.cls-81{fill:#f4801b;}.cls-82{fill:#f4801a;}.cls-83{fill:#f47f1a;}.cls-84{fill:#f47e1a;}.cls-85{fill:#f47d1a;}.cls-86{fill:#f47c1a;}.cls-87{fill:#f47b19;}.cls-88{fill:#f47a19;}.cls-89{fill:#f47919;}.cls-90{fill:#f47819;}.cls-91{fill:#f47718;}.cls-92{fill:#f47618;}.cls-93{fill:#f57518;}.cls-94{fill:#f57418;}.cls-95{fill:#f57318;}.cls-96{fill:#f57217;}.cls-97{fill:#f57117;}.cls-98{fill:#f57017;}.cls-99{fill:#f56f17;}.cls-100{fill:#f56e17;}.cls-101{fill:#f56d16;}.cls-102{fill:#f56c16;}.cls-103{fill:#f56b16;}.cls-104{fill:#f56a16;}.cls-105{fill:#f66916;}.cls-106{fill:#f66815;}.cls-107{fill:#f66715;}.cls-108{fill:#f66615;}.cls-109{fill:#f66515;}.cls-110{fill:#f66415;}.cls-111{fill:#f66314;}.cls-112{fill:#f66214;}.cls-113{fill:#f66114;}.cls-114{fill:#f66014;}.cls-115{fill:#f65f13;}.cls-116{fill:#f65e13;}.cls-117{fill:#f75d13;}.cls-118{fill:#f75c13;}.cls-119{fill:#fc1c06;}.cls-120{fill:#fc1b06;}.cls-121{fill:#fc1a05;}.cls-122{fill:#fc1905;}.cls-123{fill:#fc1805;}.cls-124{fill:#fc1705;}.cls-125{fill:#fc1605;}.cls-126{fill:#fc1504;}.cls-127{fill:#fc1404;}.cls-128{fill:#fc1304;}.cls-129{fill:#fd1204;}.cls-130{fill:#fd1104;}.cls-131{fill:#fd1003;}.cls-132{fill:#fd0f03;}.cls-133{fill:#fd0e03;}.cls-134{fill:#fd0d03;}.cls-135{fill:#fd0c02;}.cls-136{fill:#fd0b02;}.cls-137{fill:#fd0a02;}.cls-138{fill:#fd0902;}.cls-139{fill:#fd0802;}.cls-140{fill:#fd0701;}.cls-141{fill:#ff0601;}.cls-142{fill:#ff0501;}.cls-143{fill:#ff0401;}.cls-144{fill:#ff0301;}.cls-145{fill:#ff0200;}.cls-146{fill:#ff0100;}.cls-147{fill:red;}.cls-148{clip-path:url(#clip-path-2);}.cls-149{clip-path:url(#clip-path-3);}.cls-150{fill:#e00;}.cls-151{fill:#08c58d;}.cls-152{fill:#52038e;}</style><clipPath id="clip-path"><path class="cls-1" d="M498.48,143a15.41,15.41,0,0,0-5.78-12,20.08,20.08,0,0,0-12.6-4.31c-12.4-.2-24.81-.13-37.22-.17-1,0-1.5.42-1.49,1.45a6.12,6.12,0,0,1-.14,1.28c-.8,4.18-2,8.27-2.7,12.47-.41,2.43-1,4.83-1.53,7.23-.76,3.5-1.34,7-2.31,10.49a13.78,13.78,0,0,1-.18,1.42c-.86,4-1.82,8-2.62,12-1.51,7.59-3,15.2-4.85,22.71-.37,1.5-.47,3.06-.71,4.71A5.6,5.6,0,0,0,427,200q8-4.77,16.05-9.53A2,2,0,0,0,444,189q1.58-7.5,3.22-15c.13-.61.08-1.31,1.13-1.3,5.51.07,11,.06,16.53.08h2.3a11.63,11.63,0,0,1,3.28.16,4.07,4.07,0,0,0,3.12-.59c4.33-2.63,8.7-5.17,13.07-7.74a20.88,20.88,0,0,0,5.75-4.38A25.1,25.1,0,0,0,498.48,143ZM482.6,146.8c-.65,7.31-4.87,11.38-12.39,12.09-3.5.33-7,.13-9.84.2-3.43,0-6.21,0-9,0-.8,0-1-.19-.82-1q1.8-8.43,3.54-16.87c.12-.55.27-1,1-.94,7.28.2,14.57-.44,21.83.47a10.78,10.78,0,0,1,2.09.5A4.84,4.84,0,0,1,482.6,146.8Z"/></clipPath><clipPath id="clip-path-2"><path class="cls-1" d="M494.4,183a29.33,29.33,0,0,1-12.3,18.81,5.9,5.9,0,0,0-.51.49c-6.61,4.29-13.94,5.81-21.71,5.78-10.55,0-21.09,0-31.63,0h-1.62c1.17-.79,2-1.43,2.93-2,6.42-3.81,12.85-7.59,19.27-11.41a3.9,3.9,0,0,1,2.05-.48c5-.1,10,.27,14.94-.23a11.86,11.86,0,0,0,4.93-1.37c5-2,7.43-5.91,8.3-11a8.28,8.28,0,0,0-.06-4.08.81.81,0,0,1,.46-1.06c3.89-2.31,7.8-4.6,11.64-7,1-.61,1.29-.17,1.71.59C495.1,174.13,495.27,178.52,494.4,183Z"/></clipPath><clipPath id="clip-path-3"><path class="cls-1" d="M466.69,172.77h-1.8"/></clipPath></defs><g id="Layer_2" data-name="Layer 2"><g id="Layer_1-2" data-name="Layer 1"><g id="yKm4M8"><path class="cls-2" d="M200.23,9.85a3.21,3.21,0,0,0-.51,0c-4.76,0-9.51,0-14.26,0a8.51,8.51,0,0,0-1.6.15,7,7,0,0,0-4.49,2.78,15.28,15.28,0,0,0-1.83,3.34Q170.27,33.5,163,51L152.47,76.29c-.08.23-.18.46-.31.77h18.16c.08-.26.16-.46.24-.67q1.53-4.47,3.08-8.94c.2-.56.2-.56.74-.56H195.5c.57,0,.57,0,.67.54.62,2.85,1.21,5.73,1.83,8.58.07.36.15.69.23,1,.82.13,15.49.08,16,0Q207.24,43.41,200.23,9.85ZM179,53.22c0-.47,8.71-24.64,9.05-25.13,1.8,8.4,3.57,16.75,5.37,25.08C192.91,53.29,179.6,53.32,179,53.22Z"/><path class="cls-2" d="M81.3,9.82c-.08.26-.16.46-.24.67q-3.61,8.6-7.19,17.21Q63.66,52.06,53.49,76.44a1.25,1.25,0,0,0-.12.34.43.43,0,0,1-.52.31H35c-.05-.23-.12-.41-.17-.62l-12-46.38c-.62-2.44-1.28-4.88-1.9-7.35a8.14,8.14,0,0,0-4.68-5.62,66,66,0,0,0-7.6-3A67,67,0,0,0,.57,12L0,11.9c.13-.72.23-1.36.36-2.05a3.34,3.34,0,0,1,.51-.06h28.6a8.13,8.13,0,0,1,3.24.62,7.58,7.58,0,0,1,4.91,6Q38.93,23.23,40.19,30c.89,4.7,1.79,9.37,2.69,14.05.7,3.65,1.36,7.3,2.06,11a2.86,2.86,0,0,0,.18.48c6-15.31,12-30.49,18-45.68Z"/><path class="cls-2" d="M129.42,26.39a3.72,3.72,0,0,0,0,4.24A5.93,5.93,0,0,0,131,32.35c1,.7,2,1.39,3,2,1.8,1.06,3.63,2,5.45,3a42.57,42.57,0,0,1,6.89,4.47A19.12,19.12,0,0,1,151,47.1a15.79,15.79,0,0,1,2,7.2,21.18,21.18,0,0,1-2.57,11.2,21.93,21.93,0,0,1-8.3,8.2A33.3,33.3,0,0,1,132,77.37a44.66,44.66,0,0,1-11.07.77,54.53,54.53,0,0,1-16.32-3.29l-.69-.26a2,2,0,0,1-.29-.15c1-4.83,2.08-9.71,3.11-14.62.21.1.36.15.49.23a36.72,36.72,0,0,0,11.67,3.78,31.23,31.23,0,0,0,6.26.33,15.56,15.56,0,0,0,5.58-1.28,8.32,8.32,0,0,0,2.9-2.16,5,5,0,0,0,1.24-3.65,4.65,4.65,0,0,0-.83-2.16A8,8,0,0,0,132.19,53a26.17,26.17,0,0,0-4.11-2.65c-1.87-1.05-3.77-2.06-5.65-3.14a34,34,0,0,1-5.52-3.72,18.3,18.3,0,0,1-4.27-5,15,15,0,0,1-1.85-8.4,20.54,20.54,0,0,1,1.59-7.07,20.92,20.92,0,0,1,7.76-9,31.12,31.12,0,0,1,10.59-4.36,41.47,41.47,0,0,1,11-.88,46.48,46.48,0,0,1,13.61,2.6c.29.1.54.2.85.33-1,4.7-2,9.38-3.05,14.11a4.26,4.26,0,0,1-.44-.16,35.49,35.49,0,0,0-10.82-2.85,20.35,20.35,0,0,0-7.09.31,10.89,10.89,0,0,0-3.42,1.36A6.21,6.21,0,0,0,129.42,26.39Z"/><path class="cls-2" d="M106,9.85Q98.85,43.5,91.78,77.06H74.44Q81.57,43.42,88.7,9.85Z"/></g><g id="VUe86N"><path class="cls-3" d="M400.7,72.13l1.55,1.36c-.05,0-.09.11-.15.15a38.15,38.15,0,0,1-61.21-25.5,9.31,9.31,0,0,0-.28-2.1V40.89c.14-.06.1-.2.1-.31a36.12,36.12,0,0,1,1.11-6.68,37.69,37.69,0,0,1,16.4-22.6,36.91,36.91,0,0,1,15.89-5.72,14.72,14.72,0,0,0,2.2-.29h4.84c.06.12.16.08.27.1a36.5,36.5,0,0,1,8.11,1.44,37.51,37.51,0,0,1,12.72,6.61c-.09.08-.15.18-.25.27A37.72,37.72,0,0,0,397.47,18a38.2,38.2,0,0,0-5.31,7.65,37.74,37.74,0,0,0-4.34,19,40.18,40.18,0,0,0,.53,5.49,38.41,38.41,0,0,0,5.29,13.69A36.64,36.64,0,0,0,400.7,72.13Z"/><path class="cls-4" d="M464.09,41.3v4.53c-.12.08-.08.21-.1.33a38.06,38.06,0,0,1-35.67,35.4,37.68,37.68,0,0,1-18.38-3.44,40.28,40.28,0,0,1-7.57-4.65,36.42,36.42,0,0,0,6.3-6.23A36.89,36.89,0,0,0,415,55.46a37.71,37.71,0,0,0,1.85-13.33c-.06-1.53-.21-3-.41-4.49a38,38,0,0,0-7.89-18,36.26,36.26,0,0,0-6.21-6.17l.27-.19a37.68,37.68,0,0,1,18.68-7.69,19.77,19.77,0,0,0,2.33-.29h4.63c.06.12.16.08.27.1a30.58,30.58,0,0,1,5,.66A38.34,38.34,0,0,1,463.8,38.81C463.91,39.66,463.91,40.48,464.09,41.3Z"/><path class="cls-5" d="M416.88,42.13A37.71,37.71,0,0,1,415,55.46a36.89,36.89,0,0,1-6.36,11.78,36.42,36.42,0,0,1-6.3,6.23l-.12,0-1.55-1.36a36.64,36.64,0,0,1-7.06-8.29,38.41,38.41,0,0,1-5.29-13.69,40.18,40.18,0,0,1-.53-5.49,37.74,37.74,0,0,1,4.34-19A38.2,38.2,0,0,1,397.47,18,37.72,37.72,0,0,1,402,13.71c.1-.09.16-.19.25-.27l.12,0a36.26,36.26,0,0,1,6.21,6.17,38,38,0,0,1,7.89,18C416.67,39.12,416.82,40.6,416.88,42.13Z"/></g><g id="eoZcmu"><path class="cls-2" d="M682.08,20.6a10.11,10.11,0,0,0-.24,2.9l-.19.08a3.7,3.7,0,0,0-1.48-.87,23.93,23.93,0,0,0-9.37-1.84c-7.33-.18-14.67-.08-22-.05a3.3,3.3,0,0,0-3.2,2.72c-.21,1.18-.38,2.36-.56,3.55-1,6.13-2,12.26-2.87,18.41-.19,1.41-.82,2.81-.4,4.28a9,9,0,0,0-.74,2.83q-1.78,11.25-3.56,22.52H623c-3,0-3.54-.61-3.07-3.57q2.63-16.71,5.25-33.42c1.58-10,3.26-20,4.72-30,.68-4.66,1.47-5.47,6.37-5.39,8.55.14,17.09,0,25.64.07a30.7,30.7,0,0,1,9.71,1.7,16.24,16.24,0,0,1,8.82,7.21A18.75,18.75,0,0,1,682.08,20.6Z"/><path class="cls-6" d="M682.53,53.62c-3.21,4-7.56,6.14-12.49,7.19a42.27,42.27,0,0,1-9.18.81c-2.15,0-3.17.72-3.53,2.83-.85,4.87-1.59,9.76-2.37,14.64-.11.71-.18,1.42-.32,2.11a3.28,3.28,0,0,1-3.65,3H638.92c-2,0-2.78-.94-2.43-3s.65-4,1-6.06q1.78-11.26,3.56-22.52a9,9,0,0,1,.74-2.83A4.32,4.32,0,0,1,645.69,48c4.11-.05,8.23.23,12.32-.3a27.23,27.23,0,0,0,13.38-5c6.29-4.79,9.13-11.46,10.26-19.05l.19-.08a12.19,12.19,0,0,1,6.62,10.87C688.73,41.42,687,48,682.53,53.62Z"/><path class="cls-7" d="M681.65,23.58c-1.13,7.59-4,14.26-10.26,19.05a27.23,27.23,0,0,1-13.38,5c-4.09.53-8.21.25-12.32.3a4.34,4.34,0,0,0-3.94,1.83c-.42-1.47.21-2.87.41-4.28.86-6.15,1.89-12.28,2.86-18.41.19-1.19.36-2.37.58-3.55a3.28,3.28,0,0,1,3.2-2.72c7.33,0,14.67-.13,22,0a24.09,24.09,0,0,1,9.37,1.85A3.82,3.82,0,0,1,681.65,23.58Z"/></g><g id="Q7ifY8"><path d="M888.22,44.33c-.08.25-.15.52-.25.79a36.31,36.31,0,0,1-7.26,12.13A8.75,8.75,0,0,1,876.6,60a8.51,8.51,0,0,1-5.64-.53,28.57,28.57,0,0,0-3.3-1.24,11.43,11.43,0,0,0-7.47.61A33.84,33.84,0,0,1,857,60a6.87,6.87,0,0,1-6.79-1.68,26.4,26.4,0,0,1-3.74-4.29,38.06,38.06,0,0,1-6.56-14.79,27.58,27.58,0,0,1-.25-11.3,16.52,16.52,0,0,1,5.87-10,14,14,0,0,1,8.88-3.14,13,13,0,0,1,4.64,1c1.14.42,2.27.86,3.41,1.27a4.58,4.58,0,0,0,3.24,0c1.54-.57,3.08-1.15,4.62-1.69a13.29,13.29,0,0,1,4.83-.84,14.13,14.13,0,0,1,10.43,4.53c.42.46.78,1,1.17,1.44-4.36,3-6.84,7-6.5,12.37S883.48,41.94,888.22,44.33Z"/><path d="M942.65,16.61a16.25,16.25,0,0,0-7-9.51,18.67,18.67,0,0,0-10.31-2.87c-6.87,0-13.73,0-20.6,0l-.39,0V59.84h8.62v-19h12a20.94,20.94,0,0,0,5-.57c5.76-1.43,10-4.77,12.19-10.32A20,20,0,0,0,942.65,16.61Zm-8.54,9.9a9.28,9.28,0,0,1-6.88,6.54,16.72,16.72,0,0,1-4.39.55h-9.53l-.36,0V11.52l.27,0c3.31,0,6.62,0,9.93,0a14.48,14.48,0,0,1,5.41,1A9.09,9.09,0,0,1,934.23,19,13.8,13.8,0,0,1,934.11,26.51Z"/><path d="M980.14,31.54a11.58,11.58,0,0,0-2.8-7.4,14,14,0,0,0-6.77-4.24,23.16,23.16,0,0,0-8.64-.85,18.18,18.18,0,0,0-8.3,2.6,12.17,12.17,0,0,0-5.53,7,10,10,0,0,0-.43,2.74h7.74a1.11,1.11,0,0,0,.07-.16,6.38,6.38,0,0,1,3.89-4.62,11.16,11.16,0,0,1,8.08-.3,5.7,5.7,0,0,1,4.26,5,43.41,43.41,0,0,1,.13,4.42s0,0-.05.07a1,1,0,0,1-.19,0c-3.65.22-7.3.43-10.94.66a25.7,25.7,0,0,0-7.5,1.5,12.35,12.35,0,0,0-5,3.26,9.84,9.84,0,0,0-2.52,6.94,11,11,0,0,0,6.68,10.65A15.74,15.74,0,0,0,962.7,59.9a13.41,13.41,0,0,0,9.18-6.51c0-.08.13-.14.19-.22l.09,0v6.62h8V38.18C980.16,36,980.19,33.75,980.14,31.54Zm-8.48,14.91a7.55,7.55,0,0,1-3.47,5.26A11.46,11.46,0,0,1,957.59,53a4.93,4.93,0,0,1-3.37-3.55,5,5,0,0,1,3.13-6.14,12.62,12.62,0,0,1,4.28-1c3.29-.23,6.57-.43,9.86-.64h.44A47.46,47.46,0,0,1,971.66,46.45Z"/><path d="M1021.83,19.5c-.05.15-.08.27-.12.37q-7.59,21.33-15.21,42.65a30.64,30.64,0,0,1-3.23,6.7,12.28,12.28,0,0,1-9.13,5.57,29.5,29.5,0,0,1-6.16.06l-.4-.08V68.13l1.74.09a9.58,9.58,0,0,0,3.87-.47,5.86,5.86,0,0,0,2.9-2.43,12.8,12.8,0,0,0,1.36-3.13c.21-.64.43-1.26.61-1.9a1,1,0,0,0,0-.58q-3.94-11-7.92-22l-6.45-17.84c0-.12-.08-.24-.12-.39h9q5.09,16.41,10.18,32.86h.13A2,2,0,0,0,1003,52q5-16,9.93-32.11c.1-.32.23-.45.58-.45,2.62,0,5.23,0,7.85,0Z"/><path d="M875.73,0V1.22a13.37,13.37,0,0,1-8.26,12.07,8.76,8.76,0,0,1-3.9.6C862.33,8,869.33-.09,875.73,0Z"/></g><g id="gqUUQo"><path class="cls-8" d="M1317.07,22.33a9.69,9.69,0,0,0-8-8.39,14.69,14.69,0,0,0-7.74.65,5.49,5.49,0,0,0-4.06,5.76c0,2.77,0,5.54,0,8.31a9.48,9.48,0,0,1,0,1.07c0,.63-.28,1-1,1-3.16-.05-6.31-.06-9.47,0-.82,0-1-.23-1-1a45.47,45.47,0,0,0-.27-7.91,8.9,8.9,0,0,0-7.83-7.7,61.78,61.78,0,0,0-6.94-.13c-.41,0-.44.26-.48.54-.16,1.08-.3,2.16-.48,3.24-.08.51.08.65.59.64,1.57,0,3.15,0,4.73,0a4,4,0,0,1,4.1,2.9,6.26,6.26,0,0,1,.32,1.1c.43,2.85.1,5.72.22,8.65a4.37,4.37,0,0,0-1.58-.34h-9.23c-.37,0-.53.08-.58.48-.13,1.06-.27,2.12-.5,3.16-.15.69.06.79.69.79q13.7,0,27.4,0a15.55,15.55,0,0,0,2.72-.25,4,4,0,0,1,2.09-.2,18.28,18.28,0,0,0,5.22,1c5.35.39,9.62-2.55,10.93-7.52.1-.38.06-.8.35-1.11V22.72C1317,22.65,1317.09,22.47,1317.07,22.33Zm-6,5a4,4,0,0,1-4.28,3.22,23.15,23.15,0,0,1-3.11-.25c-.49-.06-.67-.23-.66-.76,0-1.42,0-2.85,0-4.27,0-1.19,0-2.39,0-3.58,0-.36,0-.71,0-1.07-.11-1.11-.12-1.1,1-1.43a11.2,11.2,0,0,1,3.4-.37,3.59,3.59,0,0,1,3.69,3A11.06,11.06,0,0,1,1311.09,27.32Z"/><path class="cls-8" d="M1317.07,58.9a5.86,5.86,0,0,0-4.15-4.9,11.83,11.83,0,0,0-3.29-.57c-3.49-.18-6.78.77-10.06,1.79-.3.09-.34.22-.29.49.21,1.3.39,2.61.59,4l.83-.26a23.16,23.16,0,0,1,7.37-1.41c2.44,0,3.43,1,3.35,3.45,0,.41-.14.51-.52.5-1.27,0-2.55,0-3.82,0a14.81,14.81,0,0,0-4.57.73,5.91,5.91,0,0,0,.4,11.33,14.54,14.54,0,0,0,6.94-.1,6.44,6.44,0,0,1,2.55,0c1.57.3,3.15.55,4.73.82l0,0h.06V59.35C1317,59.26,1317.09,59.05,1317.07,58.9Zm-5.58,10.33c0,.28,0,.47-.36.55a15.16,15.16,0,0,1-4.11.72c-1.58,0-2.55-.89-2.61-2.22a2.45,2.45,0,0,1,2.43-2.66c.76-.09,1.52-.09,2.29-.13v0c.61,0,1.22,0,1.83,0,.38,0,.55.09.54.51C1311.47,67.09,1311.49,68.17,1311.49,69.23Z"/><path class="cls-8" d="M1265.59,14.51c-.18,1-.36,2.06-.47,3.09-.06.62-.28.82-.94.81-3.91,0-7.83,0-11.75,0a9.31,9.31,0,0,0-1.59.09,2.34,2.34,0,0,0-2.13,2.68,2.44,2.44,0,0,0,2.49,2.47c2,.05,3.92,0,5.88,0a9.75,9.75,0,0,1,3.3.49,6.46,6.46,0,0,1,4.42,6.44,10.9,10.9,0,0,1-.31,2.41c-.71,2.6-2.61,3.82-5.07,4.38a17.36,17.36,0,0,1-3.86.37c-8.48,0-17,0-25.42-.07-5.33-.06-8.75-3.42-9.1-8.72a22.5,22.5,0,0,1,.46-7.8,9,9,0,0,1,8.85-6.83c2.54,0,5.09,0,7.63,0a4.45,4.45,0,0,1,.47,0c-.2,1.28-.42,2.54-.56,3.8-.05.47-.24.57-.67.56-1.5,0-3,0-4.5,0-3.2,0-4.77,1.22-5.3,4.38a18.29,18.29,0,0,0,0,6.68,4.11,4.11,0,0,0,4,3.5c2.44.2,4.88.06,7.32.08,5.52,0,11,0,16.56,0a6.34,6.34,0,0,0,1.07-.07,2.9,2.9,0,0,0-.45-5.77c-2.41,0-4.83.11-7.24-.1a6,6,0,0,1-5.56-4.15,6.79,6.79,0,0,1,1.91-7.37,9,9,0,0,1,5.61-1.88c4.84-.09,9.67-.05,14.51-.08C1265.6,14,1265.65,14.13,1265.59,14.51Z"/><path class="cls-8" d="M1250.47,66.43c0,2.34,0,4.68,0,7,0,.53-.09.75-.7.73-1.55-.05-3.1,0-4.65,0-.58,0-.72-.14-.71-.71,0-3.92,0-7.84,0-11.75,0-.41,0-.82,0-1.22a2.21,2.21,0,0,0-2-2,7,7,0,0,0-3.57.58c-.29.12-.39.22-.24.55a3.62,3.62,0,0,1,.21,1.5q0,6.21,0,12.44c0,.54-.14.67-.67.66-1.55,0-3.11,0-4.66,0-.55,0-.72-.11-.72-.7,0-3.69,0-7.38,0-11.07v-.76c0-2.68-1.23-3.66-3.9-3.15-1.77.34-1.77.34-1.77,2.14,0,4.27,0,8.54,0,12.82,0,.57-.15.72-.72.71-1.61,0-3.21,0-4.81,0-.52,0-.63-.17-.63-.65,0-2.65,0-5.29,0-7.93s0-5,0-7.48c0-2.15.6-3,2.63-3.64a19.31,19.31,0,0,1,10.22-.62,3.83,3.83,0,0,1,1.54.63,1.41,1.41,0,0,0,1.65.09,14.1,14.1,0,0,1,8.88-.71,5.72,5.72,0,0,1,4.5,5.32C1250.59,61.59,1250.44,64,1250.47,66.43Z"/><path class="cls-8" d="M1295.15,44.94c0-.52-.05-.71-.65-.58-1.59.32-3.2.57-4.81.81-.49.08-.66.26-.65.78,0,2.47,0,4.93,0,7.4,0,1,0,1-.9.71a12.69,12.69,0,0,0-4.29-.5,7.79,7.79,0,0,0-7.38,5.6,16.35,16.35,0,0,0-.62,6.56,8.79,8.79,0,0,0,7.56,8.42,20,20,0,0,0,9-.66c2.23-.69,2.75-1.42,2.75-3.75q0-6,0-12C1295.15,53.48,1295.14,49.21,1295.15,44.94Zm-6.7,24.7a17.92,17.92,0,0,1-2.19.26,3.9,3.9,0,0,1-4.11-3.06,10.87,10.87,0,0,1,0-5.88,3.68,3.68,0,0,1,4.23-2.79c2.67.3,2.67.3,2.67,3v3.05c0,1.58,0,3.15,0,4.73C1289.07,69.38,1289,69.58,1288.45,69.64Z"/><path class="cls-8" d="M1272.48,67h0c0-2.34,0-4.68,0-7-.07-2.67-1.14-4.77-3.74-5.84a11.19,11.19,0,0,0-3.87-.76,29.18,29.18,0,0,0-9.92,1.78c-.35.11-.35.28-.31.56.17,1.13.35,2.27.47,3.4.06.49.21.51.63.37a23.28,23.28,0,0,1,4.25-1.17,13,13,0,0,1,4.7-.22,2.85,2.85,0,0,1,2,3.62c-.11.3-.33.18-.5.19h-2.75a17.1,17.1,0,0,0-5.64.74,5.91,5.91,0,0,0,.38,11.33,15.6,15.6,0,0,0,7-.09,4,4,0,0,1,1.58-.18c1.66.33,3.35.59,5,.94.59.13.68,0,.68-.55C1272.46,71.78,1272.48,69.41,1272.48,67Zm-6,2.74a15.23,15.23,0,0,1-4.12.72c-1.6,0-2.58-.91-2.62-2.27a2.45,2.45,0,0,1,2.41-2.61c.76-.09,1.52-.09,2.28-.13a.08.08,0,0,1,0,0c.61,0,1.22,0,1.82,0,.38,0,.56.08.55.5,0,1.07,0,2.14,0,3.2C1266.79,69.5,1266.77,69.7,1266.43,69.78Z"/></g><rect class="cls-9" x="1134.36" y="12.16" width="67.94" height="25.67" rx="1.47"/><rect class="cls-10" x="1134.36" y="48.41" width="67.94" height="25.67" rx="1.47"/><g id="URSwKn"><g class="cls-11"><rect class="cls-12" x="450.4" y="139.88" width="0.35" height="19.34"/><rect class="cls-13" x="450.75" y="139.88" width="0.53" height="19.34"/><rect class="cls-14" x="451.28" y="139.88" width="0.53" height="19.34"/><rect class="cls-15" x="451.81" y="139.88" width="0.53" height="19.34"/><rect class="cls-16" x="452.35" y="139.88" width="0.53" height="19.34"/><rect class="cls-17" x="452.88" y="139.88" width="0.53" height="19.34"/><rect class="cls-18" x="453.41" y="139.88" width="0.53" height="19.34"/><rect class="cls-19" x="453.94" y="139.88" width="0.53" height="19.34"/><rect class="cls-20" x="454.47" y="139.88" width="0.53" height="19.34"/><rect class="cls-21" x="455" y="139.88" width="0.53" height="19.34"/><rect class="cls-22" x="455.53" y="139.88" width="0.53" height="19.34"/><rect class="cls-23" x="456.06" y="139.88" width="0.53" height="19.34"/><rect class="cls-24" x="456.59" y="139.88" width="0.53" height="19.34"/><rect class="cls-25" x="457.12" y="139.88" width="0.53" height="19.34"/><rect class="cls-26" x="457.65" y="139.88" width="0.53" height="19.34"/><rect class="cls-27" x="458.18" y="139.88" width="0.53" height="19.34"/><rect class="cls-28" x="458.71" y="139.88" width="0.53" height="19.34"/><rect class="cls-29" x="459.24" y="139.88" width="0.53" height="19.34"/><rect class="cls-30" x="459.77" y="139.88" width="0.53" height="19.34"/><rect class="cls-31" x="460.3" y="139.88" width="0.53" height="19.34"/><rect class="cls-32" x="460.83" y="139.88" width="0.53" height="19.34"/><rect class="cls-33" x="461.36" y="139.88" width="0.53" height="19.34"/><rect class="cls-34" x="461.89" y="139.88" width="0.53" height="19.34"/><rect class="cls-35" x="462.42" y="139.88" width="0.53" height="19.34"/><rect class="cls-36" x="462.95" y="139.88" width="0.53" height="19.34"/><rect class="cls-37" x="463.48" y="139.88" width="0.53" height="19.34"/><rect class="cls-38" x="464.01" y="139.88" width="0.53" height="19.34"/><rect class="cls-39" x="464.55" y="139.88" width="0.53" height="19.34"/><rect class="cls-40" x="465.08" y="139.88" width="0.53" height="19.34"/><rect class="cls-41" x="465.61" y="139.88" width="0.53" height="19.34"/><rect class="cls-42" x="466.14" y="139.88" width="0.53" height="19.34"/><rect class="cls-43" x="466.67" y="139.88" width="0.53" height="19.34"/><rect class="cls-44" x="467.2" y="139.88" width="0.53" height="19.34"/><rect class="cls-45" x="467.73" y="139.88" width="0.53" height="19.34"/><rect class="cls-46" x="468.26" y="139.88" width="0.53" height="19.34"/><rect class="cls-47" x="468.79" y="139.88" width="0.53" height="19.34"/><rect class="cls-48" x="469.32" y="139.88" width="0.53" height="19.34"/><rect class="cls-49" x="469.85" y="139.88" width="0.53" height="19.34"/><rect class="cls-50" x="470.38" y="139.88" width="0.53" height="19.34"/><rect class="cls-51" x="470.91" y="139.88" width="0.53" height="19.34"/><rect class="cls-52" x="471.44" y="139.88" width="0.53" height="19.34"/><rect class="cls-53" x="471.97" y="139.88" width="0.53" height="19.34"/><rect class="cls-54" x="472.5" y="139.88" width="0.53" height="19.34"/><rect class="cls-55" x="473.03" y="139.88" width="0.53" height="19.34"/><rect class="cls-56" x="473.56" y="139.88" width="0.53" height="19.34"/><rect class="cls-57" x="474.09" y="139.88" width="0.53" height="19.34"/><rect class="cls-58" x="474.62" y="139.88" width="0.53" height="19.34"/><rect class="cls-59" x="475.15" y="139.88" width="0.53" height="19.34"/><rect class="cls-60" x="475.68" y="139.88" width="0.53" height="19.34"/><rect class="cls-61" x="476.21" y="139.88" width="0.53" height="19.34"/><rect class="cls-62" x="476.74" y="139.88" width="0.53" height="19.34"/><rect class="cls-63" x="477.28" y="139.88" width="0.53" height="19.34"/><rect class="cls-64" x="477.81" y="139.88" width="0.53" height="19.34"/><rect class="cls-65" x="478.34" y="139.88" width="0.53" height="19.34"/><rect class="cls-66" x="478.87" y="139.88" width="0.53" height="19.34"/><rect class="cls-67" x="479.4" y="139.88" width="0.53" height="19.34"/><rect class="cls-68" x="479.93" y="139.88" width="0.53" height="19.34"/><rect class="cls-69" x="480.46" y="139.88" width="0.53" height="19.34"/><rect class="cls-70" x="480.99" y="139.88" width="0.53" height="19.34"/><rect class="cls-71" x="481.52" y="139.88" width="0.53" height="19.34"/><rect class="cls-72" x="482.05" y="139.88" width="0.53" height="19.34"/><rect class="cls-73" x="482.58" y="139.88" width="0.27" height="19.34"/><rect class="cls-74" x="426.35" y="126.54" width="0.53" height="73.74"/><rect class="cls-75" x="426.89" y="126.54" width="0.53" height="73.74"/><rect class="cls-76" x="427.42" y="126.54" width="0.53" height="73.74"/><rect class="cls-77" x="427.95" y="126.54" width="0.53" height="73.74"/><rect class="cls-78" x="428.48" y="126.54" width="0.53" height="73.74"/><rect class="cls-79" x="429.01" y="126.54" width="0.53" height="73.74"/><rect class="cls-80" x="429.54" y="126.54" width="0.53" height="73.74"/><rect class="cls-81" x="430.07" y="126.54" width="0.53" height="73.74"/><rect class="cls-82" x="430.6" y="126.54" width="0.53" height="73.74"/><rect class="cls-83" x="431.13" y="126.54" width="0.53" height="73.74"/><rect class="cls-84" x="431.66" y="126.54" width="0.53" height="73.74"/><rect class="cls-85" x="432.19" y="126.54" width="0.53" height="73.74"/><rect class="cls-86" x="432.72" y="126.54" width="0.53" height="73.74"/><rect class="cls-87" x="433.25" y="126.54" width="0.53" height="73.74"/><rect class="cls-88" x="433.78" y="126.54" width="0.53" height="73.74"/><rect class="cls-89" x="434.31" y="126.54" width="0.53" height="73.74"/><rect class="cls-90" x="434.84" y="126.54" width="0.53" height="73.74"/><rect class="cls-91" x="435.37" y="126.54" width="0.53" height="73.74"/><rect class="cls-92" x="435.9" y="126.54" width="0.53" height="73.74"/><rect class="cls-93" x="436.43" y="126.54" width="0.53" height="73.74"/><rect class="cls-94" x="436.96" y="126.54" width="0.53" height="73.74"/><rect class="cls-95" x="437.49" y="126.54" width="0.53" height="73.74"/><rect class="cls-96" x="438.02" y="126.54" width="0.53" height="73.74"/><rect class="cls-97" x="438.55" y="126.54" width="0.53" height="73.74"/><rect class="cls-98" x="439.08" y="126.54" width="0.53" height="73.74"/><rect class="cls-99" x="439.62" y="126.54" width="0.53" height="73.74"/><rect class="cls-100" x="440.15" y="126.54" width="0.53" height="73.74"/><rect class="cls-101" x="440.68" y="126.54" width="0.53" height="73.74"/><rect class="cls-102" x="441.21" y="126.54" width="0.53" height="73.74"/><rect class="cls-103" x="441.74" y="126.54" width="0.53" height="73.74"/><rect class="cls-104" x="442.27" y="126.54" width="0.53" height="73.74"/><rect class="cls-105" x="442.8" y="126.54" width="0.53" height="73.74"/><rect class="cls-106" x="443.33" y="126.54" width="0.53" height="73.74"/><rect class="cls-107" x="443.86" y="126.54" width="0.53" height="73.74"/><rect class="cls-108" x="444.39" y="126.54" width="0.53" height="73.74"/><rect class="cls-109" x="444.92" y="126.54" width="0.53" height="73.74"/><rect class="cls-110" x="445.45" y="126.54" width="0.53" height="73.74"/><rect class="cls-111" x="445.98" y="126.54" width="0.53" height="73.74"/><rect class="cls-112" x="446.51" y="126.54" width="0.53" height="73.74"/><rect class="cls-113" x="447.04" y="126.54" width="0.53" height="73.74"/><rect class="cls-114" x="447.57" y="126.54" width="0.53" height="73.74"/><rect class="cls-115" x="448.1" y="126.54" width="0.53" height="73.74"/><rect class="cls-116" x="448.63" y="126.54" width="0.53" height="73.74"/><rect class="cls-117" x="449.16" y="126.54" width="0.53" height="73.74"/><rect class="cls-118" x="449.69" y="126.54" width="0.53" height="73.74"/><rect class="cls-12" x="450.22" y="126.54" width="0.53" height="73.74"/><rect class="cls-13" x="450.75" y="126.54" width="0.53" height="73.74"/><rect class="cls-14" x="451.28" y="126.54" width="0.53" height="73.74"/><rect class="cls-15" x="451.81" y="126.54" width="0.53" height="73.74"/><rect class="cls-16" x="452.35" y="126.54" width="0.53" height="73.74"/><rect class="cls-17" x="452.88" y="126.54" width="0.53" height="73.74"/><rect class="cls-18" x="453.41" y="126.54" width="0.53" height="73.74"/><rect class="cls-19" x="453.94" y="126.54" width="0.53" height="73.74"/><rect class="cls-20" x="454.47" y="126.54" width="0.53" height="73.74"/><rect class="cls-21" x="455" y="126.54" width="0.53" height="73.74"/><rect class="cls-22" x="455.53" y="126.54" width="0.53" height="73.74"/><rect class="cls-23" x="456.06" y="126.54" width="0.53" height="73.74"/><rect class="cls-24" x="456.59" y="126.54" width="0.53" height="73.74"/><rect class="cls-25" x="457.12" y="126.54" width="0.53" height="73.74"/><rect class="cls-26" x="457.65" y="126.54" width="0.53" height="73.74"/><rect class="cls-27" x="458.18" y="126.54" width="0.53" height="73.74"/><rect class="cls-28" x="458.71" y="126.54" width="0.53" height="73.74"/><rect class="cls-29" x="459.24" y="126.54" width="0.53" height="73.74"/><rect class="cls-30" x="459.77" y="126.54" width="0.53" height="73.74"/><rect class="cls-31" x="460.3" y="126.54" width="0.53" height="73.74"/><rect class="cls-32" x="460.83" y="126.54" width="0.53" height="73.74"/><rect class="cls-33" x="461.36" y="126.54" width="0.53" height="73.74"/><rect class="cls-34" x="461.89" y="126.54" width="0.53" height="73.74"/><rect class="cls-35" x="462.42" y="126.54" width="0.53" height="73.74"/><rect class="cls-36" x="462.95" y="126.54" width="0.53" height="73.74"/><rect class="cls-37" x="463.48" y="126.54" width="0.53" height="73.74"/><rect class="cls-38" x="464.01" y="126.54" width="0.53" height="73.74"/><rect class="cls-39" x="464.55" y="126.54" width="0.53" height="73.74"/><rect class="cls-40" x="465.08" y="126.54" width="0.53" height="73.74"/><rect class="cls-41" x="465.61" y="126.54" width="0.53" height="73.74"/><rect class="cls-42" x="466.14" y="126.54" width="0.53" height="73.74"/><rect class="cls-43" x="466.67" y="126.54" width="0.53" height="73.74"/><rect class="cls-44" x="467.2" y="126.54" width="0.53" height="73.74"/><rect class="cls-45" x="467.73" y="126.54" width="0.53" height="73.74"/><rect class="cls-46" x="468.26" y="126.54" width="0.53" height="73.74"/><rect class="cls-47" x="468.79" y="126.54" width="0.53" height="73.74"/><rect class="cls-48" x="469.32" y="126.54" width="0.53" height="73.74"/><rect class="cls-49" x="469.85" y="126.54" width="0.53" height="73.74"/><rect class="cls-50" x="470.38" y="126.54" width="0.53" height="73.74"/><rect class="cls-51" x="470.91" y="126.54" width="0.53" height="73.74"/><rect class="cls-52" x="471.44" y="126.54" width="0.53" height="73.74"/><rect class="cls-53" x="471.97" y="126.54" width="0.53" height="73.74"/><rect class="cls-54" x="472.5" y="126.54" width="0.53" height="73.74"/><rect class="cls-55" x="473.03" y="126.54" width="0.53" height="73.74"/><rect class="cls-56" x="473.56" y="126.54" width="0.53" height="73.74"/><rect class="cls-57" x="474.09" y="126.54" width="0.53" height="73.74"/><rect class="cls-58" x="474.62" y="126.54" width="0.53" height="73.74"/><rect class="cls-59" x="475.15" y="126.54" width="0.53" height="73.74"/><rect class="cls-60" x="475.68" y="126.54" width="0.53" height="73.74"/><rect class="cls-61" x="476.21" y="126.54" width="0.53" height="73.74"/><rect class="cls-62" x="476.74" y="126.54" width="0.53" height="73.74"/><rect class="cls-63" x="477.28" y="126.54" width="0.53" height="73.74"/><rect class="cls-64" x="477.81" y="126.54" width="0.53" height="73.74"/><rect class="cls-65" x="478.34" y="126.54" width="0.53" height="73.74"/><rect class="cls-66" x="478.87" y="126.54" width="0.53" height="73.74"/><rect class="cls-67" x="479.4" y="126.54" width="0.53" height="73.74"/><rect class="cls-68" x="479.93" y="126.54" width="0.53" height="73.74"/><rect class="cls-69" x="480.46" y="126.54" width="0.53" height="73.74"/><rect class="cls-70" x="480.99" y="126.54" width="0.53" height="73.74"/><rect class="cls-71" x="481.52" y="126.54" width="0.53" height="73.74"/><rect class="cls-72" x="482.05" y="126.54" width="0.53" height="73.74"/><rect class="cls-73" x="482.58" y="126.54" width="0.53" height="73.74"/><rect class="cls-119" x="483.11" y="126.54" width="0.53" height="73.74"/><rect class="cls-120" x="483.64" y="126.54" width="0.53" height="73.74"/><rect class="cls-121" x="484.17" y="126.54" width="0.53" height="73.74"/><rect class="cls-122" x="484.7" y="126.54" width="0.53" height="73.74"/><rect class="cls-123" x="485.23" y="126.54" width="0.53" height="73.74"/><rect class="cls-124" x="485.76" y="126.54" width="0.53" height="73.74"/><rect class="cls-125" x="486.29" y="126.54" width="0.53" height="73.74"/><rect class="cls-126" x="486.82" y="126.54" width="0.53" height="73.74"/><rect class="cls-127" x="487.35" y="126.54" width="0.53" height="73.74"/><rect class="cls-128" x="487.88" y="126.54" width="0.53" height="73.74"/><rect class="cls-129" x="488.41" y="126.54" width="0.53" height="73.74"/><rect class="cls-130" x="488.94" y="126.54" width="0.53" height="73.74"/><rect class="cls-131" x="489.47" y="126.54" width="0.53" height="73.74"/><rect class="cls-132" x="490.01" y="126.54" width="0.53" height="73.74"/><rect class="cls-133" x="490.54" y="126.54" width="0.53" height="73.74"/><rect class="cls-134" x="491.07" y="126.54" width="0.53" height="73.74"/><rect class="cls-135" x="491.6" y="126.54" width="0.53" height="73.74"/><rect class="cls-136" x="492.13" y="126.54" width="0.53" height="73.74"/><rect class="cls-137" x="492.66" y="126.54" width="0.53" height="73.74"/><rect class="cls-138" x="493.19" y="126.54" width="0.53" height="73.74"/><rect class="cls-139" x="493.72" y="126.54" width="0.53" height="73.74"/><rect class="cls-140" x="494.25" y="126.54" width="0.53" height="73.74"/><rect class="cls-141" x="494.78" y="126.54" width="0.53" height="73.74"/><rect class="cls-142" x="495.31" y="126.54" width="0.53" height="73.74"/><rect class="cls-143" x="495.84" y="126.54" width="0.53" height="73.74"/><rect class="cls-144" x="496.37" y="126.54" width="0.53" height="73.74"/><rect class="cls-145" x="496.9" y="126.54" width="0.53" height="73.74"/><rect class="cls-146" x="497.43" y="126.54" width="0.53" height="73.74"/><rect class="cls-147" x="497.96" y="126.54" width="0.53" height="73.74"/><rect class="cls-147" x="498.49" y="126.54" width="0.2" height="73.74"/></g><g class="cls-148"><rect class="cls-74" x="426.63" y="168.82" width="0.5" height="39.29"/><rect class="cls-75" x="427.13" y="168.82" width="0.5" height="39.29"/><rect class="cls-76" x="427.63" y="168.82" width="0.5" height="39.29"/><rect class="cls-77" x="428.14" y="168.82" width="0.5" height="39.29"/><rect class="cls-78" x="428.64" y="168.82" width="0.5" height="39.29"/><rect class="cls-79" x="429.14" y="168.82" width="0.5" height="39.29"/><rect class="cls-80" x="429.64" y="168.82" width="0.5" height="39.29"/><rect class="cls-81" x="430.14" y="168.82" width="0.5" height="39.29"/><rect class="cls-82" x="430.65" y="168.82" width="0.5" height="39.29"/><rect class="cls-83" x="431.15" y="168.82" width="0.5" height="39.29"/><rect class="cls-84" x="431.65" y="168.82" width="0.5" height="39.29"/><rect class="cls-85" x="432.15" y="168.82" width="0.5" height="39.29"/><rect class="cls-86" x="432.65" y="168.82" width="0.5" height="39.29"/><rect class="cls-87" x="433.16" y="168.82" width="0.5" height="39.29"/><rect class="cls-88" x="433.66" y="168.82" width="0.5" height="39.29"/><rect class="cls-89" x="434.16" y="168.82" width="0.5" height="39.29"/><rect class="cls-90" x="434.66" y="168.82" width="0.5" height="39.29"/><rect class="cls-91" x="435.16" y="168.82" width="0.5" height="39.29"/><rect class="cls-92" x="435.66" y="168.82" width="0.5" height="39.29"/><rect class="cls-93" x="436.17" y="168.82" width="0.5" height="39.29"/><rect class="cls-94" x="436.67" y="168.82" width="0.5" height="39.29"/><rect class="cls-95" x="437.17" y="168.82" width="0.5" height="39.29"/><rect class="cls-96" x="437.67" y="168.82" width="0.5" height="39.29"/><rect class="cls-97" x="438.17" y="168.82" width="0.5" height="39.29"/><rect class="cls-98" x="438.68" y="168.82" width="0.5" height="39.29"/><rect class="cls-99" x="439.18" y="168.82" width="0.5" height="39.29"/><rect class="cls-100" x="439.68" y="168.82" width="0.5" height="39.29"/><rect class="cls-101" x="440.18" y="168.82" width="0.5" height="39.29"/><rect class="cls-102" x="440.68" y="168.82" width="0.5" height="39.29"/><rect class="cls-103" x="441.19" y="168.82" width="0.5" height="39.29"/><rect class="cls-104" x="441.69" y="168.82" width="0.5" height="39.29"/><rect class="cls-105" x="442.19" y="168.82" width="0.5" height="39.29"/><rect class="cls-106" x="442.69" y="168.82" width="0.5" height="39.29"/><rect class="cls-107" x="443.19" y="168.82" width="0.5" height="39.29"/><rect class="cls-108" x="443.7" y="168.82" width="0.5" height="39.29"/><rect class="cls-109" x="444.2" y="168.82" width="0.5" height="39.29"/><rect class="cls-110" x="444.7" y="168.82" width="0.5" height="39.29"/><rect class="cls-111" x="445.2" y="168.82" width="0.5" height="39.29"/><rect class="cls-112" x="445.7" y="168.82" width="0.5" height="39.29"/><rect class="cls-113" x="446.2" y="168.82" width="0.5" height="39.29"/><rect class="cls-114" x="446.71" y="168.82" width="0.5" height="39.29"/><rect class="cls-115" x="447.21" y="168.82" width="0.5" height="39.29"/><rect class="cls-116" x="447.71" y="168.82" width="0.5" height="39.29"/><rect class="cls-117" x="448.21" y="168.82" width="0.5" height="39.29"/><rect class="cls-118" x="448.71" y="168.82" width="0.5" height="39.29"/><rect class="cls-12" x="449.22" y="168.82" width="0.5" height="39.29"/><rect class="cls-13" x="449.72" y="168.82" width="0.5" height="39.29"/><rect class="cls-14" x="450.22" y="168.82" width="0.5" height="39.29"/><rect class="cls-15" x="450.72" y="168.82" width="0.5" height="39.29"/><rect class="cls-16" x="451.22" y="168.82" width="0.5" height="39.29"/><rect class="cls-17" x="451.73" y="168.82" width="0.5" height="39.29"/><rect class="cls-18" x="452.23" y="168.82" width="0.5" height="39.29"/><rect class="cls-19" x="452.73" y="168.82" width="0.5" height="39.29"/><rect class="cls-20" x="453.23" y="168.82" width="0.5" height="39.29"/><rect class="cls-21" x="453.73" y="168.82" width="0.5" height="39.29"/><rect class="cls-22" x="454.23" y="168.82" width="0.5" height="39.29"/><rect class="cls-23" x="454.74" y="168.82" width="0.5" height="39.29"/><rect class="cls-24" x="455.24" y="168.82" width="0.5" height="39.29"/><rect class="cls-25" x="455.74" y="168.82" width="0.5" height="39.29"/><rect class="cls-26" x="456.24" y="168.82" width="0.5" height="39.29"/><rect class="cls-27" x="456.74" y="168.82" width="0.5" height="39.29"/><rect class="cls-28" x="457.25" y="168.82" width="0.5" height="39.29"/><rect class="cls-29" x="457.75" y="168.82" width="0.5" height="39.29"/><rect class="cls-30" x="458.25" y="168.82" width="0.5" height="39.29"/><rect class="cls-31" x="458.75" y="168.82" width="0.5" height="39.29"/><rect class="cls-32" x="459.25" y="168.82" width="0.5" height="39.29"/><rect class="cls-33" x="459.76" y="168.82" width="0.5" height="39.29"/><rect class="cls-34" x="460.26" y="168.82" width="0.5" height="39.29"/><rect class="cls-35" x="460.76" y="168.82" width="0.5" height="39.29"/><rect class="cls-36" x="461.26" y="168.82" width="0.5" height="39.29"/><rect class="cls-37" x="461.76" y="168.82" width="0.5" height="39.29"/><rect class="cls-38" x="462.26" y="168.82" width="0.5" height="39.29"/><rect class="cls-39" x="462.77" y="168.82" width="0.5" height="39.29"/><rect class="cls-40" x="463.27" y="168.82" width="0.5" height="39.29"/><rect class="cls-41" x="463.77" y="168.82" width="0.5" height="39.29"/><rect class="cls-42" x="464.27" y="168.82" width="0.5" height="39.29"/><rect class="cls-43" x="464.77" y="168.82" width="0.5" height="39.29"/><rect class="cls-44" x="465.28" y="168.82" width="0.5" height="39.29"/><rect class="cls-45" x="465.78" y="168.82" width="0.5" height="39.29"/><rect class="cls-46" x="466.28" y="168.82" width="0.5" height="39.29"/><rect class="cls-47" x="466.78" y="168.82" width="0.5" height="39.29"/><rect class="cls-48" x="467.28" y="168.82" width="0.5" height="39.29"/><rect class="cls-49" x="467.79" y="168.82" width="0.5" height="39.29"/><rect class="cls-50" x="468.29" y="168.82" width="0.5" height="39.29"/><rect class="cls-51" x="468.79" y="168.82" width="0.5" height="39.29"/><rect class="cls-52" x="469.29" y="168.82" width="0.5" height="39.29"/><rect class="cls-53" x="469.79" y="168.82" width="0.5" height="39.29"/><rect class="cls-54" x="470.29" y="168.82" width="0.5" height="39.29"/><rect class="cls-55" x="470.8" y="168.82" width="0.5" height="39.29"/><rect class="cls-56" x="471.3" y="168.82" width="0.5" height="39.29"/><rect class="cls-57" x="471.8" y="168.82" width="0.5" height="39.29"/><rect class="cls-58" x="472.3" y="168.82" width="0.5" height="39.29"/><rect class="cls-59" x="472.8" y="168.82" width="0.5" height="39.29"/><rect class="cls-60" x="473.31" y="168.82" width="0.5" height="39.29"/><rect class="cls-61" x="473.81" y="168.82" width="0.5" height="39.29"/><rect class="cls-62" x="474.31" y="168.82" width="0.5" height="39.29"/><rect class="cls-63" x="474.81" y="168.82" width="0.5" height="39.29"/><rect class="cls-64" x="475.31" y="168.82" width="0.5" height="39.29"/><rect class="cls-65" x="475.82" y="168.82" width="0.5" height="39.29"/><rect class="cls-66" x="476.32" y="168.82" width="0.5" height="39.29"/><rect class="cls-67" x="476.82" y="168.82" width="0.5" height="39.29"/><rect class="cls-68" x="477.32" y="168.82" width="0.5" height="39.29"/><rect class="cls-69" x="477.82" y="168.82" width="0.5" height="39.29"/><rect class="cls-70" x="478.33" y="168.82" width="0.5" height="39.29"/><rect class="cls-71" x="478.83" y="168.82" width="0.5" height="39.29"/><rect class="cls-72" x="479.33" y="168.82" width="0.5" height="39.29"/><rect class="cls-73" x="479.83" y="168.82" width="0.5" height="39.29"/><rect class="cls-119" x="480.33" y="168.82" width="0.5" height="39.29"/><rect class="cls-120" x="480.83" y="168.82" width="0.5" height="39.29"/><rect class="cls-121" x="481.34" y="168.82" width="0.5" height="39.29"/><rect class="cls-122" x="481.84" y="168.82" width="0.5" height="39.29"/><rect class="cls-123" x="482.34" y="168.82" width="0.5" height="39.29"/><rect class="cls-124" x="482.84" y="168.82" width="0.5" height="39.29"/><rect class="cls-125" x="483.34" y="168.82" width="0.5" height="39.29"/><rect class="cls-126" x="483.85" y="168.82" width="0.5" height="39.29"/><rect class="cls-127" x="484.35" y="168.82" width="0.5" height="39.29"/><rect class="cls-128" x="484.85" y="168.82" width="0.5" height="39.29"/><rect class="cls-129" x="485.35" y="168.82" width="0.5" height="39.29"/><rect class="cls-130" x="485.85" y="168.82" width="0.5" height="39.29"/><rect class="cls-131" x="486.36" y="168.82" width="0.5" height="39.29"/><rect class="cls-132" x="486.86" y="168.82" width="0.5" height="39.29"/><rect class="cls-133" x="487.36" y="168.82" width="0.5" height="39.29"/><rect class="cls-134" x="487.86" y="168.82" width="0.5" height="39.29"/><rect class="cls-135" x="488.36" y="168.82" width="0.5" height="39.29"/><rect class="cls-136" x="488.86" y="168.82" width="0.5" height="39.29"/><rect class="cls-137" x="489.37" y="168.82" width="0.5" height="39.29"/><rect class="cls-138" x="489.87" y="168.82" width="0.5" height="39.29"/><rect class="cls-139" x="490.37" y="168.82" width="0.5" height="39.29"/><rect class="cls-140" x="490.87" y="168.82" width="0.5" height="39.29"/><rect class="cls-141" x="491.37" y="168.82" width="0.5" height="39.29"/><rect class="cls-142" x="491.88" y="168.82" width="0.5" height="39.29"/><rect class="cls-143" x="492.38" y="168.82" width="0.5" height="39.29"/><rect class="cls-144" x="492.88" y="168.82" width="0.5" height="39.29"/><rect class="cls-145" x="493.38" y="168.82" width="0.5" height="39.29"/><rect class="cls-146" x="493.88" y="168.82" width="0.5" height="39.29"/><rect class="cls-147" x="494.39" y="168.82" width="0.5" height="39.29"/><rect class="cls-147" x="494.89" y="168.82" width="0.39" height="39.29"/></g><g class="cls-149"><rect class="cls-74" x="464.89" y="172.76" width="0.01"/><rect class="cls-75" x="464.9" y="172.76" width="0.01"/><rect class="cls-76" x="464.91" y="172.76" width="0.01"/><rect class="cls-77" x="464.93" y="172.76" width="0.01"/><rect class="cls-78" x="464.94" y="172.76" width="0.01"/><rect class="cls-79" x="464.95" y="172.76" width="0.01"/><rect class="cls-80" x="464.97" y="172.76" width="0.01"/><rect class="cls-81" x="464.98" y="172.76" width="0.01"/><rect class="cls-82" x="464.99" y="172.76" width="0.01"/><rect class="cls-83" x="465.01" y="172.76" width="0.01"/><rect class="cls-84" x="465.02" y="172.76" width="0.01"/><rect class="cls-85" x="465.03" y="172.76" width="0.01"/><rect class="cls-86" x="465.05" y="172.76" width="0.01"/><rect class="cls-87" x="465.06" y="172.76" width="0.01"/><rect class="cls-88" x="465.07" y="172.76" width="0.01"/><rect class="cls-89" x="465.09" y="172.76" width="0.01"/><rect class="cls-90" x="465.1" y="172.76" width="0.01"/><rect class="cls-91" x="465.11" y="172.76" width="0.01"/><rect class="cls-92" x="465.13" y="172.76" width="0.01"/><rect class="cls-93" x="465.14" y="172.76" width="0.01"/><rect class="cls-94" x="465.15" y="172.76" width="0.01"/><rect class="cls-95" x="465.17" y="172.76" width="0.01"/><rect class="cls-96" x="465.18" y="172.76" width="0.01"/><rect class="cls-97" x="465.19" y="172.76" width="0.01"/><rect class="cls-98" x="465.21" y="172.76" width="0.01"/><rect class="cls-99" x="465.22" y="172.76" width="0.01"/><rect class="cls-100" x="465.23" y="172.76" width="0.01"/><rect class="cls-101" x="465.25" y="172.76" width="0.01"/><rect class="cls-102" x="465.26" y="172.76" width="0.01"/><rect class="cls-103" x="465.27" y="172.76" width="0.01"/><rect class="cls-104" x="465.29" y="172.76" width="0.01"/><rect class="cls-105" x="465.3" y="172.76" width="0.01"/><rect class="cls-106" x="465.31" y="172.76" width="0.01"/><rect class="cls-107" x="465.33" y="172.76" width="0.01"/><rect class="cls-108" x="465.34" y="172.76" width="0.01"/><rect class="cls-109" x="465.35" y="172.76" width="0.01"/><rect class="cls-110" x="465.37" y="172.76" width="0.01"/><rect class="cls-111" x="465.38" y="172.76" width="0.01"/><rect class="cls-112" x="465.39" y="172.76" width="0.01"/><rect class="cls-113" x="465.41" y="172.76" width="0.01"/><rect class="cls-114" x="465.42" y="172.76" width="0.01"/><rect class="cls-115" x="465.43" y="172.76" width="0.01"/><rect class="cls-116" x="465.45" y="172.76" width="0.01"/><rect class="cls-117" x="465.46" y="172.76" width="0.01"/><rect class="cls-118" x="465.47" y="172.76" width="0.01"/><rect class="cls-12" x="465.48" y="172.76" width="0.01"/><rect class="cls-13" x="465.5" y="172.76" width="0.01"/><rect class="cls-14" x="465.51" y="172.76" width="0.01"/><rect class="cls-15" x="465.52" y="172.76" width="0.01"/><rect class="cls-16" x="465.54" y="172.76" width="0.01"/><rect class="cls-17" x="465.55" y="172.76" width="0.01"/><rect class="cls-18" x="465.56" y="172.76" width="0.01"/><rect class="cls-19" x="465.58" y="172.76" width="0.01"/><rect class="cls-20" x="465.59" y="172.76" width="0.01"/><rect class="cls-21" x="465.6" y="172.76" width="0.01"/><rect class="cls-22" x="465.62" y="172.76" width="0.01"/><rect class="cls-23" x="465.63" y="172.76" width="0.01"/><rect class="cls-24" x="465.64" y="172.76" width="0.01"/><rect class="cls-25" x="465.66" y="172.76" width="0.01"/><rect class="cls-26" x="465.67" y="172.76" width="0.01"/><rect class="cls-27" x="465.68" y="172.76" width="0.01"/><rect class="cls-28" x="465.7" y="172.76" width="0.01"/><rect class="cls-29" x="465.71" y="172.76" width="0.01"/><rect class="cls-30" x="465.72" y="172.76" width="0.01"/><rect class="cls-31" x="465.74" y="172.76" width="0.01"/><rect class="cls-32" x="465.75" y="172.76" width="0.01"/><rect class="cls-33" x="465.76" y="172.76" width="0.01"/><rect class="cls-34" x="465.78" y="172.76" width="0.01"/><rect class="cls-35" x="465.79" y="172.76" width="0.01"/><rect class="cls-36" x="465.8" y="172.76" width="0.01"/><rect class="cls-37" x="465.82" y="172.76" width="0.01"/><rect class="cls-38" x="465.83" y="172.76" width="0.01"/><rect class="cls-39" x="465.84" y="172.76" width="0.01"/><rect class="cls-40" x="465.86" y="172.76" width="0.01"/><rect class="cls-41" x="465.87" y="172.76" width="0.01"/><rect class="cls-42" x="465.88" y="172.76" width="0.01"/><rect class="cls-43" x="465.9" y="172.76" width="0.01"/><rect class="cls-44" x="465.91" y="172.76" width="0.01"/><rect class="cls-45" x="465.92" y="172.76" width="0.01"/><rect class="cls-46" x="465.94" y="172.76" width="0.01"/><rect class="cls-47" x="465.95" y="172.76" width="0.01"/><rect class="cls-48" x="465.96" y="172.76" width="0.01"/><rect class="cls-49" x="465.98" y="172.76" width="0.01"/><rect class="cls-50" x="465.99" y="172.76" width="0.01"/><rect class="cls-51" x="466" y="172.76" width="0.01"/><rect class="cls-52" x="466.02" y="172.76" width="0.01"/><rect class="cls-53" x="466.03" y="172.76" width="0.01"/><rect class="cls-54" x="466.04" y="172.76" width="0.01"/><rect class="cls-55" x="466.06" y="172.76" width="0.01"/><rect class="cls-56" x="466.07" y="172.76" width="0.01"/><rect class="cls-57" x="466.08" y="172.76" width="0.01"/><rect class="cls-58" x="466.09" y="172.76" width="0.01"/><rect class="cls-59" x="466.11" y="172.76" width="0.01"/><rect class="cls-60" x="466.12" y="172.76" width="0.01"/><rect class="cls-61" x="466.13" y="172.76" width="0.01"/><rect class="cls-62" x="466.15" y="172.76" width="0.01"/><rect class="cls-63" x="466.16" y="172.76" width="0.01"/><rect class="cls-64" x="466.17" y="172.76" width="0.01"/><rect class="cls-65" x="466.19" y="172.76" width="0.01"/><rect class="cls-66" x="466.2" y="172.76" width="0.01"/><rect class="cls-67" x="466.21" y="172.76" width="0.01"/><rect class="cls-68" x="466.23" y="172.76" width="0.01"/><rect class="cls-69" x="466.24" y="172.76" width="0.01"/><rect class="cls-70" x="466.25" y="172.76" width="0.01"/><rect class="cls-71" x="466.27" y="172.76" width="0.01"/><rect class="cls-72" x="466.28" y="172.76" width="0.01"/><rect class="cls-73" x="466.29" y="172.76" width="0.01"/><rect class="cls-119" x="466.31" y="172.76" width="0.01"/><rect class="cls-120" x="466.32" y="172.76" width="0.01"/><rect class="cls-121" x="466.33" y="172.76" width="0.01"/><rect class="cls-122" x="466.35" y="172.76" width="0.01"/><rect class="cls-123" x="466.36" y="172.76" width="0.01"/><rect class="cls-124" x="466.37" y="172.76" width="0.01"/><rect class="cls-125" x="466.39" y="172.76" width="0.01"/><rect class="cls-126" x="466.4" y="172.76" width="0.01"/><rect class="cls-127" x="466.41" y="172.76" width="0.01"/><rect class="cls-128" x="466.43" y="172.76" width="0.01"/><rect class="cls-129" x="466.44" y="172.76" width="0.01"/><rect class="cls-130" x="466.45" y="172.76" width="0.01"/><rect class="cls-131" x="466.47" y="172.76" width="0.01"/><rect class="cls-132" x="466.48" y="172.76" width="0.01"/><rect class="cls-133" x="466.49" y="172.76" width="0.01"/><rect class="cls-134" x="466.51" y="172.76" width="0.01"/><rect class="cls-135" x="466.52" y="172.76" width="0.01"/><rect class="cls-136" x="466.53" y="172.76" width="0.01"/><rect class="cls-137" x="466.55" y="172.76" width="0.01"/><rect class="cls-138" x="466.56" y="172.76" width="0.01"/><rect class="cls-139" x="466.57" y="172.76" width="0.01"/><rect class="cls-140" x="466.59" y="172.76" width="0.01"/><rect class="cls-141" x="466.6" y="172.76" width="0.01"/><rect class="cls-142" x="466.61" y="172.76" width="0.01"/><rect class="cls-143" x="466.63" y="172.76" width="0.01"/><rect class="cls-144" x="466.64" y="172.76" width="0.01"/><rect class="cls-145" x="466.65" y="172.76" width="0.01"/><rect class="cls-146" x="466.66" y="172.76" width="0.01"/><rect class="cls-147" x="466.68" y="172.76" width="0.01"/></g></g><path class="cls-150" d="M509.46,142.12h9.12a10.91,10.91,0,0,1,3.63.55,7.23,7.23,0,0,1,2.54,1.47,6.1,6.1,0,0,1,1.52,2.18,7.15,7.15,0,0,1,.5,2.66,5.72,5.72,0,0,1-.44,2.3,7,7,0,0,1-1.09,1.76,5.38,5.38,0,0,1-1.44,1.19,4.88,4.88,0,0,1-1.43.57,8.68,8.68,0,0,1,1.82.5,6.44,6.44,0,0,1,1.89,1.15,6.22,6.22,0,0,1,1.5,2,6.89,6.89,0,0,1,.6,3,7.52,7.52,0,0,1-.78,3.62,6.53,6.53,0,0,1-2.14,2.32,8.94,8.94,0,0,1-3.21,1.25,20.82,20.82,0,0,1-4,.36h-8.63ZM518,153.34a7.23,7.23,0,0,0,1.78-.22,5,5,0,0,0,1.61-.71,3.51,3.51,0,0,0,1.17-1.25,3.6,3.6,0,0,0,.45-1.85,3.77,3.77,0,0,0-.45-2,3.13,3.13,0,0,0-1.17-1.17,4.75,4.75,0,0,0-1.61-.57,11.86,11.86,0,0,0-1.78-.14h-4.8v7.87Zm-.12,12.35a20.61,20.61,0,0,0,2.18-.12,6.65,6.65,0,0,0,2.08-.56,3.88,3.88,0,0,0,1.55-1.32,4.06,4.06,0,0,0,.61-2.4,4.18,4.18,0,0,0-.59-2.34,4.37,4.37,0,0,0-1.49-1.41,5.89,5.89,0,0,0-2-.71,12.77,12.77,0,0,0-2.1-.18h-4.92v9Z"/><path class="cls-150" d="M549.81,166.3a11.53,11.53,0,0,1-1,.93,7.91,7.91,0,0,1-1.67,1.08,12.51,12.51,0,0,1-2.42.91,11.81,11.81,0,0,1-3.17.39,10.82,10.82,0,0,1-4-.73,8.73,8.73,0,0,1-3.1-2.06,9.25,9.25,0,0,1-2-3.19,11.47,11.47,0,0,1-.71-4.11,10.7,10.7,0,0,1,.69-3.86,9.16,9.16,0,0,1,8.68-5.95,8.65,8.65,0,0,1,4.15.93,8.29,8.29,0,0,1,2.85,2.46,10.48,10.48,0,0,1,1.63,3.51,16,16,0,0,1,.53,4.12H535.49A5.51,5.51,0,0,0,536,163a5.92,5.92,0,0,0,1.35,1.81,6.28,6.28,0,0,0,1.94,1.21,6,6,0,0,0,2.3.45,8.38,8.38,0,0,0,3.92-.81,7.93,7.93,0,0,0,2.21-1.57ZM546.54,158a6.05,6.05,0,0,0-1.53-3.71,4.94,4.94,0,0,0-3.87-1.53,5.85,5.85,0,0,0-2.32.44,5.64,5.64,0,0,0-1.76,1.17,5.47,5.47,0,0,0-1.57,3.63Z"/><path class="cls-150" d="M554.33,169V151.47c0-.26,0-.66,0-1.19h3.47l.12,2.82c.25-.32.54-.68.89-1.07a6,6,0,0,1,1.29-1.07,7.58,7.58,0,0,1,4.12-1.13c2.45,0,4.26.71,5.45,2.14a8.84,8.84,0,0,1,1.77,5.81V169h-3.63v-11a5.59,5.59,0,0,0-1.13-3.85,4.1,4.1,0,0,0-3.19-1.23,4.92,4.92,0,0,0-2.62.64,5,5,0,0,0-1.67,1.68,7.56,7.56,0,0,0-.91,2.34,12.57,12.57,0,0,0-.28,2.68V169Z"/><path class="cls-150" d="M593.4,166.3a13.34,13.34,0,0,1-1,.93,8.18,8.18,0,0,1-1.67,1.08,12.62,12.62,0,0,1-2.43.91,11.68,11.68,0,0,1-3.16.39,10.75,10.75,0,0,1-4-.73,8.77,8.77,0,0,1-3.11-2.06,9.22,9.22,0,0,1-2-3.19,11.47,11.47,0,0,1-.71-4.11,10.7,10.7,0,0,1,.69-3.86,9.13,9.13,0,0,1,1.93-3.1,9.31,9.31,0,0,1,3-2.08,9.14,9.14,0,0,1,3.77-.77,8.69,8.69,0,0,1,4.16.93,8.26,8.26,0,0,1,2.84,2.46,10.5,10.5,0,0,1,1.64,3.51,16,16,0,0,1,.52,4.12H579.07a5.68,5.68,0,0,0,.55,2.3,5.61,5.61,0,0,0,1.35,1.81,6.16,6.16,0,0,0,1.94,1.21,5.93,5.93,0,0,0,2.3.45,8.34,8.34,0,0,0,3.91-.81,8.16,8.16,0,0,0,2.22-1.57ZM590.13,158a6.11,6.11,0,0,0-1.53-3.71,5,5,0,0,0-3.88-1.53,5.92,5.92,0,0,0-2.32.44,5.71,5.71,0,0,0-1.75,1.17,5,5,0,0,0-1.13,1.68,5.54,5.54,0,0,0-.45,2Z"/><path class="cls-150" d="M599.33,153.3h-3.39v-3h3.39v-.81a9.18,9.18,0,0,1,.67-3.71,6.39,6.39,0,0,1,1.83-2.49,7.68,7.68,0,0,1,2.75-1.39,12.69,12.69,0,0,1,3.39-.44,12.49,12.49,0,0,1,3.47.52,10.49,10.49,0,0,1,3.23,1.54L613,146.2a9.65,9.65,0,0,0-2.24-1.17,7.87,7.87,0,0,0-2.8-.48,6.05,6.05,0,0,0-3.7,1A4.13,4.13,0,0,0,603,149v1.26h11.75V169h-3.64V153.3H603V169h-3.63Z"/><path class="cls-150" d="M621.28,153.3h-3.39v-3h3.39v-6.14h3.64v6.14h5.48v3h-5.48v9.24a5,5,0,0,0,.7,3.11,2.45,2.45,0,0,0,2,.85,4.19,4.19,0,0,0,1.74-.32,5.68,5.68,0,0,0,1.37-1l1.65,2.22a7,7,0,0,1-5.32,2.14,5.45,5.45,0,0,1-4.38-1.62c-.93-1.07-1.4-2.76-1.4-5Z"/><path class="cls-150" d="M570.6,174.83h9.8a11.17,11.17,0,0,1,4.28.73,8.51,8.51,0,0,1,2.93,1.91,7.53,7.53,0,0,1,1.69,2.77,10,10,0,0,1,.55,3.27,9.06,9.06,0,0,1-.75,3.81,7.72,7.72,0,0,1-2,2.72,8.87,8.87,0,0,1-2.92,1.66,10.6,10.6,0,0,1-3.47.56h-4.16v9.49H570.6Zm9.48,12.51a3.53,3.53,0,0,0,2.68-1,3.7,3.7,0,0,0,1-2.68,3.86,3.86,0,0,0-1-2.77,3.54,3.54,0,0,0-2.7-1.07h-3.51v7.55Z"/><path class="cls-150" d="M603.61,200a6.37,6.37,0,0,1-2.44,1.74,8.68,8.68,0,0,1-3.29.6,8.47,8.47,0,0,1-2.12-.28,6.13,6.13,0,0,1-2.06-.95,5.18,5.18,0,0,1-1.57-1.79,5.78,5.78,0,0,1-.63-2.83,6.31,6.31,0,0,1,.67-3,6,6,0,0,1,1.83-2.15,8.37,8.37,0,0,1,2.77-1.32,13,13,0,0,1,3.45-.44c.67,0,1.35,0,2,0a9.46,9.46,0,0,1,1.35.12v-.4a2.25,2.25,0,0,0-.31-1.23,2.7,2.7,0,0,0-.8-.85,3.19,3.19,0,0,0-1.15-.48,6.06,6.06,0,0,0-1.37-.15,9.1,9.1,0,0,0-3.21.49,9.88,9.88,0,0,0-2.16,1.09l-2.38-3.55a14.83,14.83,0,0,1,1.37-.89,10.21,10.21,0,0,1,1.81-.81,15.23,15.23,0,0,1,2.37-.58,17.77,17.77,0,0,1,3-.23q4.32,0,6.38,2.33a9,9,0,0,1,2.06,6.23v11h-5.45Zm0-6.58-.77-.1a12.43,12.43,0,0,0-1.29-.06,6.34,6.34,0,0,0-3.43.69,2.22,2.22,0,0,0-1,1.94c0,1.56.94,2.34,2.83,2.34a4.25,4.25,0,0,0,1.35-.23,3.64,3.64,0,0,0,1.17-.62,3.25,3.25,0,0,0,.82-1,2.88,2.88,0,0,0,.33-1.41Z"/><path class="cls-150" d="M613.66,204.73a6,6,0,0,0,1.07.65,2.85,2.85,0,0,0,1.27.28,2.18,2.18,0,0,0,1.55-.58,5.66,5.66,0,0,0,1.19-2l.57-1.53-8.64-18.73h6.62l4.72,12,4.28-12h6.17l-7.75,18.81-1.27,3.12a12.05,12.05,0,0,1-1.53,2.79,7.44,7.44,0,0,1-2.22,2,6.43,6.43,0,0,1-3.29.76,9,9,0,0,1-2.78-.4,8.05,8.05,0,0,1-2.3-1.17Z"/><path class="cls-151" d="M247.34,140.77c-.07-4.21-2.27-6.74-6.43-7.05s-8.63-.11-12.94-.31c-2.68-.12-2,1.68-2,3.07s-.52,3.13,2.11,3c3.54-.19,7.1,0,10.65,0a2.13,2.13,0,0,1,2.39,2.24c.16,1.77-1.06,1.73-2.21,1.88-2.85.37-5.71.68-8.54,1.18-4.55.81-6.91,4-6.68,8.91a8,8,0,0,0,7.41,7.81,11.05,11.05,0,0,0,9.91-3.6c-.3,4.33,2.62,2.68,4.45,3,1.52.25,2-.43,1.95-1.92C247.33,152.86,247.44,146.81,247.34,140.77Zm-6.71,12a7.5,7.5,0,0,1-6.7,3.5c-1.88-.08-3.7-.55-3.93-3s1.4-3.37,3.45-3.78a39.07,39.07,0,0,1,4.82-.67c.88-.06,2.14-.84,2.62.16A3.83,3.83,0,0,1,240.63,152.8Z"/><path class="cls-151" d="M274.91,135.21c-3.42,10.17-6.73,20.38-10.34,30.48-1.4,3.94-7.13,6.12-10.95,4.4-1.78-.81-.63-2.74-.81-4.14s.85-1.51,1.89-1.45c2.61.16,5.05.13,5.8-3.19a5.79,5.79,0,0,0-.27-3.35c-2.62-7.4-5.12-14.85-7.8-22.24-.66-1.83-.35-2.18,1.58-2.35,3-.27,4.4.67,5.13,3.72,1.17,4.83,2.91,9.51,4.63,14.92,1.78-6,3.34-11.19,4.92-16.41.54-1.8,4.71-3.12,6.1-2C275.38,134.11,275.08,134.7,274.91,135.21Z"/><path class="cls-151" d="M213.88,135.53c-4.19-2.87-9-2.64-14,.73v-1.48a1.39,1.39,0,0,0-1.39-1.39h-3.73a1.38,1.38,0,0,0-1.38,1.31c-.38.58-.06,1.61-.06,2.29-.06,10.16.05,20.32-.1,30.48,0,2.44.86,2.88,3,2.76,1.86-.1,3.59.27,3.33-2.68-.28-3.14-.06-6.32-.06-9.85,8.39,6,17.24,2.58,19.42-6.94C220.23,144.86,218.13,138.45,213.88,135.53Zm-5.3,19.13a6.74,6.74,0,0,1-7.92-2.34c-2.13-2.89-1.63-6.24-.64-9.27.9-2.76,3.95-4,7.1-3.65,3.62.39,5.74,3.18,5.77,7.61Q212.94,153,208.58,154.66Z"/><g id="ACb8et"><path class="cls-152" d="M178.64,178.85c-2.57,8.47-7.8,14.27-15.83,17.39-22.28,8.67-44.8-9.41-41.61-33.16,3.24-24.12,27.52-31.82,44.31-23.15,6.49,3.34,10.58,8.69,12.81,16l-13.56,4.57a9.15,9.15,0,0,1-.67-1c-3-6.57-7.75-9.45-14.41-8.7a14.13,14.13,0,0,0-12.78,11.93,28.27,28.27,0,0,0,.11,9.58c1.28,6.66,6.32,10.91,13,11.71,6.49.78,11.67-2.42,15.21-9.63,2.17.69,4.41,1.37,6.63,2.1S176.22,178,178.64,178.85Z"/><path class="cls-152" d="M68.11,193.16c-10.18,7.92-28.31,6.57-37.16-2.77a16.5,16.5,0,0,1-4.7-9.77c1-.28,1.75-.55,2.54-.72,3.41-.74,6.82-1.44,10.22-2.16,2.32,7.88,9.24,9.92,16.38,8.16,2.6-.64,4.47-2.17,4.64-5.12s-1.7-4.65-4.23-5.4c-3.88-1.16-7.88-1.92-11.77-3a43.17,43.17,0,0,1-7-2.55c-12.84-6.16-11.16-21.54-2.81-28,6.06-4.65,13-5.94,20.39-5a24.35,24.35,0,0,1,14.59,6.59,16.23,16.23,0,0,1,4.93,9.71l-12.52,2.82c-3.15-6.55-7.23-8.66-13.89-7.38-3.45.66-5.66,2.73-5.77,5.41s1.58,4.54,5.26,5.42c3.4.82,6.91,1.2,10.26,2.16a37.15,37.15,0,0,1,9.2,3.57A16.9,16.9,0,0,1,68.11,193.16Z"/><path class="cls-152" d="M115.67,193.91a2.9,2.9,0,0,1-1.54,2c-7.6,3.41-15.18,3.57-22.46-.8a13.16,13.16,0,0,1-6.57-11c-.37-10-.12-20.05-.12-30.27h15.17v15.54c0,2.49,0,5,0,7.47.09,5.63,3.21,8.41,8.92,7.74a59.18,59.18,0,0,0,6.66-1.61C115.74,186.61,115.82,190.27,115.67,193.91Z"/><rect class="cls-152" x="85.06" y="122.41" width="15.09" height="15.62"/><polygon class="cls-152" points="100.16 138.12 100.16 138.03 100.25 138.03 100.16 138.12"/><polygon class="cls-152" points="100.25 138.03 100.25 138.12 100.16 138.12 100.25 138.03"/><rect class="cls-152" x="100.25" y="138.12" width="15.28" height="14.78"/></g><g id="eDiNGC.tif"><path d="M967.8,107.18q-14.14,13.26-28.3,26.51a2.4,2.4,0,0,1-1.54.51q-7.37-.18-14.71-.45a19.24,19.24,0,0,0-14.5,5.48c-5.1,4.82-10.11,9.76-15.4,14.37-3.91,3.4-6.9,7.24-8.18,12.31a4.12,4.12,0,0,1-.27.69,8.32,8.32,0,0,1-3.41,3.65l-2.68-2.85-15.42,14.46,32,34.09,15.43-14.47-4.3-4.59c1.35-1.42,2.51-2.68,4.55-2.93a20.56,20.56,0,0,0,8.41-3.28c.93-.6,1.79-1.29,2.78-2l18.53,19.76,1.16-1.08,37.56-35.23,26.45-24.83L968,106.89A3.36,3.36,0,0,1,967.8,107.18Zm-63.09,94.16-9.17,8.6-26.12-27.85,9.17-8.6Zm6.4-23a1.61,1.61,0,0,1,1.93.49c2,2.21,4.07,4.37,6.18,6.62a18.18,18.18,0,0,1-6.18,3.59,4.43,4.43,0,0,1-.47.17c-3.33.75-6.89,1-8.83,4.58L884.57,173.4a12.54,12.54,0,0,0,2.5-2.42,43.11,43.11,0,0,0,3.11-6.46,13.65,13.65,0,0,1,3.66-5.51c5.93-5.46,11.8-11,17.65-16.53A15.52,15.52,0,0,1,923.37,138c3.6.16,7.2.23,11.19.36-3.34,3.13-6.56,5.84-9.4,8.91-2.29,2.47-4.75,3.64-8.07,3a16.89,16.89,0,0,0-2.47-.13c0,1.46,0,2.81,0,4.58a3.7,3.7,0,0,1,1.11-.24c6.57.19,13.13.38,19.69.64a4.24,4.24,0,0,1,3.67,6.49,4.29,4.29,0,0,1-4.13,2c-5.32-.19-10.64-.35-16-.53a10.19,10.19,0,0,1-1.3-.18c-1.87,9-3.59,10.67-12.22,12.29.09,1.3.18,2.61.3,4.29C907.61,179.12,909.39,178.87,911.11,178.39Zm38.36-11.18a10.52,10.52,0,0,0,8.57.71,10.76,10.76,0,0,0-2.2-20.87,10.48,10.48,0,0,0-8,2.33,11.53,11.53,0,0,0-4.1,7.37,9.39,9.39,0,0,0-4.55-5.06l20.74-19.45a13.09,13.09,0,0,0,14.74.47l6,6.4a13.07,13.07,0,0,0-.42,14.83l-1,1Q964.6,168.6,950,182.29a1.47,1.47,0,0,1-2.17.29,12.38,12.38,0,0,0-12.81-.31l-.85.43-6-6.44a13.1,13.1,0,0,0,2.5-8.5c1.12,0,2.18,0,3.24.08,5.66.18,8.59-2,10.15-7.61A11.11,11.11,0,0,0,949.47,167.21Zm.33-5.07a6.37,6.37,0,0,1,.26-9.06,6.3,6.3,0,0,1,9,.24,6.37,6.37,0,0,1-.22,9.06A6.47,6.47,0,0,1,949.8,162.14Zm50-15-58.88,55.22L916,175.77a16.17,16.17,0,0,0,5.13-8.05l5.2.16a6.66,6.66,0,0,1-.92,4.6,47,47,0,0,1-3,3.86L933.9,188.6c2.1-2.18,4.45-3.79,7.61-3.68s5.41,1.87,7.3,4.23l37.3-35c-2.23-2.1-3.81-4.46-3.71-7.62s1.87-5.4,4.19-7.36l-11.65-12.42c-2,2.17-4.35,3.8-7.5,3.72s-5.46-1.74-7.49-4.26l-1.13,1q-12,11.31-24.09,22.62a2.62,2.62,0,0,1-2.2.85c-1.46-.13-2.94-.13-4.65-.2l40-37.49Z"/></g><g id="s5UBE8.tif"><path d="M1275.53,146.63a6.31,6.31,0,0,0,5.36-4.06c.17-.4.31-.81.47-1.22V139c-.73-2.57-2.54-4.07-4.79-5.35q-26.38-15.15-52.73-30.39a23.3,23.3,0,0,0-3.32-1.29h-1.45c-2,1-4.17,1.8-6.13,2.92q-25.56,14.68-51.08,29.46a6.51,6.51,0,0,0-3.61,5.94,5.88,5.88,0,0,0,3.35,5.57,24.36,24.36,0,0,0,4.69,1.18v19.36h-4.38c-2.68,0-3.67,1-3.67,3.71,0,1.8,0,3.61,0,5.41a3,3,0,0,0,3.16,3.28c1.11.05,2.24,0,3.54,0v4c0,2.93.87,3.81,3.77,3.82h1.18V204.2c-.65,0-1.32,0-2,0a2.86,2.86,0,0,0-3,3.08c0,1.55,0,3.1,0,4.77h-3.34c-2.2,0-3.35,1.15-3.36,3.32,0,2,0,3.93,0,5.9a3,3,0,0,0,3.1,3.23c.28,0,.56,0,.84,0q26.4,0,52.78,0a6.08,6.08,0,0,0,1.66-.17,1.6,1.6,0,0,0,1.18-1.86,1.65,1.65,0,0,0-1.57-1.55c-.44,0-.88,0-1.32,0h-53v-5.15h115.75v5.15h-52.4c-1.89,0-2.7.53-2.7,1.77s.87,1.83,2.69,1.83q26.09,0,52.18,0c1.77,0,3.11-.51,3.91-2.15v-8.17a3.54,3.54,0,0,0-3.87-2.17c-.9.07-1.81,0-2.84,0,0-1.56,0-3,0-4.42,0-2.38-1.05-3.42-3.45-3.44h-1.51V186.59c.71,0,1.42,0,2.12,0a2.76,2.76,0,0,0,2.82-2.8c0-1.6,0-3.19,0-5,.93,0,1.8,0,2.65,0a3.77,3.77,0,0,0,4.06-2.07v-8.17a3.43,3.43,0,0,0-3.72-2.2c-1.39.09-2.8,0-4.3,0v-19.7A17.65,17.65,0,0,0,1275.53,146.63Zm-106.88,36.28v-4.06h22.19v4.06Zm17.12,3.73V204.1h-12.1V186.64Zm5.07,25.32h-22.2v-4.08h22.2Zm14.18-4.68c0,1.55,0,3.1,0,4.72h-10.5v-3.89c0-3-.91-3.88-3.85-3.91l-1.12-.06V186.59c.67,0,1.3,0,1.93,0a2.88,2.88,0,0,0,3-3c0-1.2,0-2.4,0-3.61V178.8H1205c0,1.21.06,2.39,0,3.57-.21,3.14,1.16,4.54,4.12,4.23a4.08,4.08,0,0,1,.87.09V204.2c-.62,0-1.24,0-1.86,0A2.89,2.89,0,0,0,1205,207.28Zm3.68-24.39v-4h22.23v4Zm17.14,3.77v17.47h-12.1V186.66ZM1230.9,212h-22.21v-4.09h22.21Zm14.18-4.58c0,1.52,0,3,0,4.6h-10.5c0-1.37,0-2.69,0-4,0-2.81-.95-3.77-3.72-3.79h-1.25V186.59c.69,0,1.32,0,2,0a2.8,2.8,0,0,0,3-2.9c.06-1.58,0-3.18,0-4.85h10.5v3.79c0,3.07.86,3.94,3.9,4h1V204.2c-.58,0-1.2,0-1.82,0A2.94,2.94,0,0,0,1245.08,207.39Zm25.88.49V212h-22.21v-4.11Zm-17.16-3.77V186.66h12.11v17.45ZM1271,182.88h-22.19v-4H1271Zm6.7-12.93v5.13H1161.9V170h53.2c1.83,0,2.72-.58,2.74-1.79s-.87-1.81-2.7-1.81H1170c0-.43-.07-.81-.07-1.19,0-6.46,0-12.91,0-19.36a1.68,1.68,0,0,1,1-1.67q24-13.81,47.94-27.69a1.61,1.61,0,0,1,1.85,0q24,13.89,48,27.78a1.66,1.66,0,0,1,.81,1.13c0,6.85,0,13.7,0,20.55a2.53,2.53,0,0,1-.11.42H1225c-1.86,0-2.72.55-2.75,1.75s.89,1.85,2.8,1.85Zm-5.09-27.71q-25.44-14.67-50.84-29.38a3.37,3.37,0,0,0-3.85,0q-25.43,14.78-50.94,29.43a5.63,5.63,0,0,1-2.11.75,2.66,2.66,0,0,1-2.78-1.85,2.77,2.77,0,0,1,.78-3.17,7.5,7.5,0,0,1,1.1-.73q26.71-15.44,53.44-30.87a4.37,4.37,0,0,1,4.83,0q26.7,15.47,53.44,30.87a6.91,6.91,0,0,1,1.18.82,2.78,2.78,0,0,1,.69,3.19,3,3,0,0,1-3.15,1.79A19,19,0,0,1,1272.57,142.24Z"/><path d="M1198.62,151.62a1.1,1.1,0,0,1-.22-1.35,5,5,0,0,0-4.7-7c-1.16,0-2.32,0-3.48,0-1.64,0-2.27.62-2.29,2.24,0,2.21,0,4.41,0,6.61s0,4.41,0,6.61c0,1.52.62,2.12,2.12,2.14s2.89,0,4.33,0a5.33,5.33,0,0,0,5.18-3.25A5.27,5.27,0,0,0,1198.62,151.62Zm-7-4.69c.8,0,1.52-.05,2.23,0a1.41,1.41,0,0,1,0,2.81c-.71.05-1.43,0-2.23,0Zm3,10.33c-.68.05-1.36,0-2,0-.27,0-.55,0-1-.05v-3.86c1.07,0,2.06,0,3.05,0a1.93,1.93,0,0,1,0,3.85Z"/><path d="M1235.1,158.49a2,2,0,0,1-3.81,1.13l-5.89-8.51c0,.59-.09.92-.09,1.25,0,2.17,0,4.33,0,6.49,0,1.31-.74,2.07-1.85,2.05s-1.73-.75-1.74-2c0-4.49,0-9,0-13.47a1.8,1.8,0,0,1,1.25-2,1.77,1.77,0,0,1,2.16.86l5.33,7.71c.23.35.5.67,1,1.31,0-.89,0-1.43,0-2,0-2-.05-4.09,0-6.14a1.81,1.81,0,0,1,1.74-1.92,1.77,1.77,0,0,1,1.83,1.82Q1235.06,151.82,1235.1,158.49Z"/><path d="M1217.79,158.46c-1.71-4.61-3.42-9.22-5.26-13.77a2.07,2.07,0,0,0-3.82,0c-1.85,4.55-3.56,9.16-5.29,13.76a1.76,1.76,0,0,0,1,2.36,1.81,1.81,0,0,0,2.34-1.13c.3-.7.56-1.41.86-2.19a28.7,28.7,0,0,0,3.36,0c1.8-.22,3,.14,3.44,2.18a1.65,1.65,0,0,0,2.28,1.17A1.77,1.77,0,0,0,1217.79,158.46Zm-8.74-4.64c.25-.69.46-1.32.7-1.94s.49-1.26.87-2.21c.57,1.52,1.05,2.78,1.56,4.15Z"/><path d="M1251.79,160a1.63,1.63,0,0,1-2.07.76,3.48,3.48,0,0,1-1.15-.82c-1.47-1.39-2.92-2.8-4.64-4.45,0,1.32,0,2.31,0,3.29,0,1.36-.68,2.08-1.8,2.08s-1.79-.75-1.79-2.1q0-6.72,0-13.45c0-1.41.72-2.2,1.84-2.18s1.72.79,1.75,2.14c0,.79,0,1.58,0,2.71l3.18-2.89c.39-.35.76-.72,1.15-1.06,1.06-.94,2.08-1,2.85-.13a1.85,1.85,0,0,1-.37,2.74c-1.31,1.24-2.65,2.44-4,3.66l-1.47,1.39.42-.3q2.86,3.16,5.74,6.32A1.79,1.79,0,0,1,1251.79,160Z"/><path d="M1220,122.74a7.56,7.56,0,1,0,7.6,7.53A7.51,7.51,0,0,0,1220,122.74Zm.07,11.5a4,4,0,0,1-.1-7.9,4,4,0,1,1,.1,7.9Z"/></g></g></g></svg>