<svg xmlns="http://www.w3.org/2000/svg" viewBox="0 0 68.7 81.42"><defs><style>.cls-1{fill:#002d88;}.cls-2{fill:#0099df;}.cls-3{fill:#001e6b;}</style></defs><g id="Layer_2" data-name="Layer 2"><g id="Layer_1-2" data-name="Layer 1"><g id="eoZcmu"><path class="cls-1" d="M62.3,17.85a10,10,0,0,0-.24,2.89.66.66,0,0,0-.19.09A3.72,3.72,0,0,0,60.39,20,23.93,23.93,0,0,0,51,18.11c-7.33-.18-14.67-.08-22-.05a3.3,3.3,0,0,0-3.2,2.72c-.21,1.18-.38,2.37-.56,3.55-1,6.14-2,12.26-2.87,18.42-.2,1.4-.83,2.8-.4,4.28a8.91,8.91,0,0,0-.74,2.82c-1.2,7.51-2.37,15-3.56,22.52H3.22c-3,0-3.54-.61-3.07-3.57Q2.78,52.08,5.4,35.37c1.57-10,3.26-20,4.72-30C10.8.73,11.59-.07,16.49,0,25,.14,33.58,0,42.13.07a30.44,30.44,0,0,1,9.71,1.71A16.23,16.23,0,0,1,60.66,9,18.79,18.79,0,0,1,62.3,17.85Z"/><path class="cls-2" d="M62.75,50.87c-3.21,4-7.56,6.13-12.49,7.18a42.27,42.27,0,0,1-9.18.81c-2.15,0-3.17.72-3.53,2.84-.85,4.87-1.59,9.75-2.37,14.63-.11.71-.18,1.42-.32,2.12a3.28,3.28,0,0,1-3.65,3H19.14c-2.05,0-2.78-.94-2.43-3s.65-4,1-6.06c1.19-7.51,2.36-15,3.56-22.52A8.91,8.91,0,0,1,22,47a4.3,4.3,0,0,1,3.93-1.84c4.11,0,8.23.23,12.32-.3a27.23,27.23,0,0,0,13.38-5c6.29-4.78,9.13-11.46,10.26-19a.66.66,0,0,1,.19-.09,12.17,12.17,0,0,1,6.61,10.87C69,38.66,67.25,45.24,62.75,50.87Z"/><path class="cls-3" d="M61.87,20.82c-1.13,7.59-4,14.27-10.26,19a27.23,27.23,0,0,1-13.38,5c-4.09.53-8.21.25-12.32.31A4.32,4.32,0,0,0,22,47c-.42-1.48.21-2.88.41-4.29.86-6.15,1.89-12.27,2.86-18.41.19-1.18.36-2.37.58-3.55A3.28,3.28,0,0,1,29,18.06c7.33,0,14.67-.13,22,.05A23.93,23.93,0,0,1,60.39,20,3.82,3.82,0,0,1,61.87,20.82Z"/></g></g></g></svg>