<svg xmlns="http://www.w3.org/2000/svg" viewBox="0 0 107.49 34.86"><defs><style>.cls-1{fill:#002d88;}</style></defs><g id="Layer_2" data-name="Layer 2"><g id="Layer_1-2" data-name="Layer 1"><g id="yKm4M8"><path class="cls-1" d="M100.48.56a1.28,1.28,0,0,0-.26,0c-2.39,0-4.77,0-7.16,0a4.26,4.26,0,0,0-.8.08A3.54,3.54,0,0,0,90,2a7.85,7.85,0,0,0-.92,1.68q-3.66,8.75-7.28,17.49-2.66,6.38-5.3,12.72c0,.11-.09.23-.16.38h9.12l.11-.33c.52-1.5,1-3,1.55-4.49.1-.28.1-.28.38-.28H98.1c.29,0,.29,0,.34.27.31,1.43.6,2.87.91,4.31,0,.18.08.34.12.5.41.06,7.77,0,8,0Q104,17.41,100.48.56ZM89.81,22.32c0-.23,4.37-12.36,4.54-12.61.9,4.22,1.79,8.41,2.7,12.58C96.8,22.36,90.12,22.37,89.81,22.32Z"/><path class="cls-1" d="M40.79.54a2.27,2.27,0,0,1-.11.34c-1.21,2.87-2.41,5.76-3.61,8.64Q31.94,21.75,26.84,34a1.15,1.15,0,0,0-.06.17.22.22,0,0,1-.26.16h-9c0-.12-.06-.21-.09-.31l-6-23.27c-.31-1.23-.65-2.45-1-3.69A4.08,4.08,0,0,0,8.14,4.2,34.66,34.66,0,0,0,4.32,2.72a34.8,34.8,0,0,0-4-1.07L0,1.59C.06,1.23.12.9.18.56l.26,0H14.79a4,4,0,0,1,1.62.31,3.81,3.81,0,0,1,2.47,3q.64,3.4,1.28,6.81c.46,2.36.91,4.7,1.36,7.05.35,1.83.68,3.66,1,5.49a1.31,1.31,0,0,0,.09.25c3-7.69,6-15.31,9.05-22.93Z"/><path class="cls-1" d="M64.94,8.86a1.87,1.87,0,0,0,0,2.13,3.12,3.12,0,0,0,.8.86,16.18,16.18,0,0,0,1.5,1c.9.53,1.82,1,2.73,1.5a22,22,0,0,1,3.46,2.24,9.89,9.89,0,0,1,2.32,2.67,7.85,7.85,0,0,1,1,3.61,10.49,10.49,0,0,1-1.29,5.62A11,11,0,0,1,71.3,32.6a16.78,16.78,0,0,1-5.07,1.84,22.52,22.52,0,0,1-5.56.39,27.56,27.56,0,0,1-8.18-1.65l-.35-.13L52,33c.51-2.42,1-4.87,1.56-7.34a2.65,2.65,0,0,1,.24.12,18.46,18.46,0,0,0,5.86,1.89,15.68,15.68,0,0,0,3.14.17,7.73,7.73,0,0,0,2.8-.64,4.21,4.21,0,0,0,1.46-1.09,2.48,2.48,0,0,0,.62-1.83,2.31,2.31,0,0,0-.42-1.08,4.06,4.06,0,0,0-.93-1,13.1,13.1,0,0,0-2.06-1.32c-.94-.53-1.89-1-2.83-1.58a17.12,17.12,0,0,1-2.78-1.87,9.3,9.3,0,0,1-2.14-2.49,7.6,7.6,0,0,1-.93-4.21,10.36,10.36,0,0,1,.8-3.55,10.44,10.44,0,0,1,3.9-4.52A15.28,15.28,0,0,1,65.6.47,20.88,20.88,0,0,1,71.12,0,23.08,23.08,0,0,1,78,1.33l.43.17c-.52,2.36-1,4.7-1.54,7.08l-.22-.08A17.67,17.67,0,0,0,71.2,7.07a10.38,10.38,0,0,0-3.56.15,5.36,5.36,0,0,0-1.72.69A3,3,0,0,0,64.94,8.86Z"/><path class="cls-1" d="M53.18.56q-3.57,16.88-7.13,33.72h-8.7Q40.94,17.41,44.51.56Z"/></g></g></g></svg>