<svg xmlns="http://www.w3.org/2000/svg" viewBox="0 0 91.76 31.42"><defs><style>.cls-1{fill:#282a2e;}.cls-2{fill:#1898d6;}.cls-3{fill:#82b736;}</style></defs><g id="Layer_2" data-name="Layer 2"><g id="Layer_1-2" data-name="Layer 1"><g id="gqUUQo"><path class="cls-1" d="M91.68,5.1a4.86,4.86,0,0,0-4-4.21,7.44,7.44,0,0,0-3.88.33,2.75,2.75,0,0,0-2,2.89V8.28a4.87,4.87,0,0,1,0,.54c0,.31-.14.48-.52.48-1.58,0-3.17,0-4.75,0-.41,0-.48-.12-.49-.5a21.91,21.91,0,0,0-.13-4A4.47,4.47,0,0,0,71.9,1,31,31,0,0,0,68.42.9c-.21,0-.22.13-.24.27-.08.54-.15,1.09-.24,1.63,0,.25,0,.32.29.32.79,0,1.59,0,2.38,0a2,2,0,0,1,2.06,1.46,2.64,2.64,0,0,1,.15.55,39,39,0,0,1,.12,4.34,2.21,2.21,0,0,0-.8-.17H67.51c-.18,0-.27,0-.29.24-.07.53-.14,1.06-.25,1.58-.08.34,0,.4.35.4H81.06a7.84,7.84,0,0,0,1.37-.12c.35-.06.7-.24,1-.1a9.35,9.35,0,0,0,2.62.5A5,5,0,0,0,91.58,8c0-.19,0-.4.18-.56V5.3C91.66,5.26,91.69,5.17,91.68,5.1Zm-3,2.51a2,2,0,0,1-2.15,1.61A11.7,11.7,0,0,1,85,9.1c-.24,0-.33-.12-.33-.39,0-.71,0-1.42,0-2.13V4.78a4.87,4.87,0,0,0,0-.54c0-.56-.06-.55.51-.71a5.14,5.14,0,0,1,1.7-.19,1.79,1.79,0,0,1,1.85,1.5A5.53,5.53,0,0,1,88.68,7.61Z"/><path class="cls-1" d="M91.68,23.45A2.93,2.93,0,0,0,89.6,21,5.78,5.78,0,0,0,88,20.71a14.53,14.53,0,0,0-5,.9c-.15,0-.17.11-.15.24.11.66.2,1.31.3,2l.42-.14a11.61,11.61,0,0,1,3.7-.7c1.22,0,1.72.51,1.68,1.73,0,.21-.07.25-.26.25H86.67a7.72,7.72,0,0,0-2.29.36,2.76,2.76,0,0,0-2,2.94A2.78,2.78,0,0,0,84.58,31,7.19,7.19,0,0,0,88.06,31a3.07,3.07,0,0,1,1.28,0c.79.15,1.58.27,2.37.41l0,0h0V23.68C91.64,23.64,91.69,23.53,91.68,23.45Zm-2.8,5.19c0,.14,0,.23-.18.27a7.25,7.25,0,0,1-2.06.36,1.18,1.18,0,0,1-1.31-1.11,1.23,1.23,0,0,1,1.22-1.34c.38,0,.76,0,1.15-.06v0h.92c.19,0,.27,0,.27.25C88.87,27.57,88.88,28.1,88.88,28.64Z"/><path class="cls-1" d="M65.85,1.18c-.09.51-.18,1-.23,1.55,0,.31-.15.41-.48.41-2,0-3.93,0-5.89,0a4.25,4.25,0,0,0-.8.05,1.17,1.17,0,0,0-1.07,1.34,1.22,1.22,0,0,0,1.25,1.24c1,0,2,0,2.95,0A4.86,4.86,0,0,1,63.23,6a3.23,3.23,0,0,1,2.22,3.23,5.49,5.49,0,0,1-.15,1.21,3,3,0,0,1-2.55,2.19,8.46,8.46,0,0,1-1.94.19c-4.25,0-8.5,0-12.75,0A4.35,4.35,0,0,1,43.5,8.43a11.18,11.18,0,0,1,.22-3.91,4.53,4.53,0,0,1,4.45-3.43c1.27,0,2.55,0,3.83,0l.23,0C52.13,1.75,52,2.38,52,3c0,.23-.12.28-.33.28H49.35a2.3,2.3,0,0,0-2.65,2.2,9,9,0,0,0,0,3.35,2.06,2.06,0,0,0,2,1.76c1.22.1,2.45,0,3.67,0h8.31a3.26,3.26,0,0,0,.54,0A1.46,1.46,0,0,0,61,7.72c-1.21,0-2.42.06-3.63,0a3,3,0,0,1-2.79-2.08,3.41,3.41,0,0,1,1-3.7A4.52,4.52,0,0,1,58.36,1c2.42,0,4.85,0,7.27,0C65.86.91,65.88,1,65.85,1.18Z"/><path class="cls-1" d="M58.26,27.23c0,1.17,0,2.35,0,3.52,0,.27,0,.38-.35.37-.77,0-1.55,0-2.33,0-.29,0-.36-.07-.36-.36,0-2,0-3.93,0-5.89,0-.21,0-.41,0-.61a1.11,1.11,0,0,0-1-1,3.44,3.44,0,0,0-1.79.29c-.15.06-.2.11-.13.28a1.71,1.71,0,0,1,.11.75q0,3.12,0,6.24c0,.27-.08.34-.34.33q-1.17,0-2.34,0c-.27,0-.36-.05-.36-.35,0-1.85,0-3.7,0-5.55v-.38c0-1.35-.62-1.84-1.95-1.59-.89.17-.89.17-.89,1.08,0,2.14,0,4.28,0,6.43,0,.29-.07.36-.36.35-.8,0-1.61,0-2.41,0-.26,0-.32-.08-.32-.32,0-1.33,0-2.66,0-4V23.06a1.57,1.57,0,0,1,1.32-1.83,9.72,9.72,0,0,1,5.13-.31,1.83,1.83,0,0,1,.77.32.72.72,0,0,0,.83,0A7,7,0,0,1,56,20.93a2.87,2.87,0,0,1,2.25,2.67C58.32,24.81,58.25,26,58.26,27.23Z"/><path class="cls-1" d="M80.68,16.45c0-.26,0-.36-.32-.29-.8.16-1.61.28-2.42.41-.24,0-.33.12-.32.39,0,1.23,0,2.47,0,3.71,0,.48,0,.48-.45.36A6.26,6.26,0,0,0,75,20.77a3.93,3.93,0,0,0-3.71,2.81A8.32,8.32,0,0,0,71,26.87a4.43,4.43,0,0,0,3.8,4.23,10.08,10.08,0,0,0,4.5-.33c1.12-.35,1.38-.71,1.38-1.88V16.45ZM77.32,28.84a8.07,8.07,0,0,1-1.1.14,2,2,0,0,1-2.06-1.54,5.47,5.47,0,0,1,0-3,1.84,1.84,0,0,1,2.12-1.4c1.34.15,1.34.15,1.34,1.48V26.1c0,.79,0,1.59,0,2.38C77.63,28.71,77.57,28.81,77.32,28.84Z"/><path class="cls-1" d="M69.31,27.54h0c0-1.18,0-2.35,0-3.52a3,3,0,0,0-1.87-2.94,5.67,5.67,0,0,0-2-.37,14.65,14.65,0,0,0-5,.89c-.17,0-.17.14-.15.28.08.57.18,1.14.24,1.7,0,.25.1.26.31.19A12.24,12.24,0,0,1,63,23.18a6.69,6.69,0,0,1,2.36-.11,1.44,1.44,0,0,1,1,1.82c-.06.15-.17.09-.25.09H64.78a8.47,8.47,0,0,0-2.83.36,2.79,2.79,0,0,0-2,2.94A2.77,2.77,0,0,0,62.14,31a7.79,7.79,0,0,0,3.53,0,1.91,1.91,0,0,1,.79-.09c.83.16,1.68.29,2.51.47.3.06.34,0,.34-.28C69.3,29.91,69.31,28.73,69.31,27.54Zm-3,1.37a7.62,7.62,0,0,1-2.06.36c-.81,0-1.3-.45-1.32-1.14a1.24,1.24,0,0,1,1.21-1.31c.38,0,.76,0,1.14-.06a0,0,0,0,1,0,0h.91c.19,0,.28,0,.28.25,0,.53,0,1.07,0,1.6C66.45,28.77,66.44,28.87,66.27,28.91Z"/></g><rect class="cls-2" width="34.09" height="12.88" rx="1.47"/><rect class="cls-3" y="18.19" width="34.09" height="12.88" rx="1.47"/></g></g></svg>