<svg xmlns="http://www.w3.org/2000/svg" viewBox="0 0 205.87 169.56"><defs><style>.cls-1{fill:none;stroke:#fff;stroke-miterlimit:10;}.cls-2{fill:#6394f7;}.cls-3{fill:#e8932e;}</style></defs><g id="Layer_2" data-name="Layer 2"><g id="Layer_1-2" data-name="Layer 1"><path class="cls-1" d="M196.85.5H9A8.51,8.51,0,0,0,.5,9V127.71A8.52,8.52,0,0,0,9,136.23H91.43l-1.64,15.91a10.49,10.49,0,0,1-10.44,9.41H61.06c-2.17,0-3.94,1.44-3.94,3.21v1.1c0,1.77,1.77,3.2,3.94,3.2h83.75c2.17,0,3.93-1.43,3.93-3.2v-1.1c0-1.77-1.76-3.21-3.93-3.21h-17A11.88,11.88,0,0,1,116,150.9l-1.51-14.67h82.4a8.52,8.52,0,0,0,8.53-8.52V9A8.52,8.52,0,0,0,196.85.5Zm.07,109.33H8.94V8.25h188Z"/><circle class="cls-1" cx="103" cy="122.82" r="4.97"/><path class="cls-2" d="M100.34,79.83A19.43,19.43,0,1,1,119.77,60.4a19.45,19.45,0,0,1-19.43,19.43m0-37A17.58,17.58,0,1,0,117.93,60.4a17.61,17.61,0,0,0-17.59-17.58"/><path class="cls-3" d="M113.41,54.88c-.13-.31-.26-.6-.41-.89a14.12,14.12,0,0,0-2.18-3.14l-3.17,2.24-6,4.26-.19-.25a3.56,3.56,0,0,0-5-.77A3.49,3.49,0,0,0,95,59c0,.22-.11.28-.31.34a2.65,2.65,0,0,0-1.91,3.24,2.68,2.68,0,0,0,2.64,2h9.79A2.68,2.68,0,0,0,108,62a2.66,2.66,0,0,0-2-2.63.57.57,0,0,1-.28-.16l4.14-2.93a10.47,10.47,0,1,1-4.67-5l.18.09a1.8,1.8,0,0,0,.82.19,1.93,1.93,0,0,0,1-3.58l-.11-.06c-.38-.2-.76-.38-1.16-.55a14.19,14.19,0,1,0,4.36,23.25l.15-.15a14.21,14.21,0,0,0,3-15.56M104.79,60h0a.12.12,0,0,0,.11.1l.61.05a1.76,1.76,0,0,1-.12,3.51c-.43,0-.86,0-1.29,0H95.79a2.23,2.23,0,0,1-1.44-.37A1.77,1.77,0,0,1,94,60.81a1.79,1.79,0,0,1,1.39-.7.6.6,0,0,0,.56-.59c0-1.65.64-2.54,2-2.89a2.43,2.43,0,0,1,2.85,1.3,3.58,3.58,0,0,1,.29.48.36.36,0,0,0,.49.15l.1-.07a1.79,1.79,0,0,1,3.13,1.25V60Z"/><path class="cls-2" d="M115,45.3h-.7V41.35h1.48a1.81,1.81,0,0,1,.65.1,1.42,1.42,0,0,1,.45.27,1,1,0,0,1,.26.38,1.2,1.2,0,0,1,.09.45,1.28,1.28,0,0,1-.09.48,1.22,1.22,0,0,1-.27.41,1.44,1.44,0,0,1-.45.28,1.79,1.79,0,0,1-.64.1H115Zm0-2.13h.63a1.9,1.9,0,0,0,.35,0,.79.79,0,0,0,.27-.1.45.45,0,0,0,.18-.18.65.65,0,0,0,.06-.29.47.47,0,0,0-.21-.43,1.14,1.14,0,0,0-.65-.14H115Z"/><path class="cls-2" d="M121.59,44.12a2,2,0,0,1-.42.65,1.94,1.94,0,0,1-.65.43,2.19,2.19,0,0,1-.83.16,2.23,2.23,0,0,1-.83-.16,2,2,0,0,1-1.07-1.08,2.24,2.24,0,0,1,0-1.61,1.8,1.8,0,0,1,.43-.65,2.06,2.06,0,0,1,.64-.43,2.23,2.23,0,0,1,.83-.16,2.19,2.19,0,0,1,.83.16,2.1,2.1,0,0,1,.65.43,1.92,1.92,0,0,1,.42.65,2.24,2.24,0,0,1,0,1.61Zm-.69-1.37a1.12,1.12,0,0,0-.27-.43,1.07,1.07,0,0,0-.42-.28,1.24,1.24,0,0,0-.52-.1,1.25,1.25,0,0,0-.51.1,1.07,1.07,0,0,0-.42.28,1.26,1.26,0,0,0-.27.43,1.47,1.47,0,0,0-.1.56,1.48,1.48,0,0,0,.1.57,1.26,1.26,0,0,0,.27.43,1.19,1.19,0,0,0,.42.28,1.25,1.25,0,0,0,.51.1,1.24,1.24,0,0,0,.52-.1,1.19,1.19,0,0,0,.42-.28,1.12,1.12,0,0,0,.27-.43,1.48,1.48,0,0,0,.1-.57A1.47,1.47,0,0,0,120.9,42.75Z"/><path class="cls-2" d="M122.63,44.51l.29.1.31.06.32,0a1.69,1.69,0,0,0,.33,0,1.07,1.07,0,0,0,.27-.09.69.69,0,0,0,.18-.16.48.48,0,0,0,.06-.24.46.46,0,0,0,0-.21.54.54,0,0,0-.15-.15,1.33,1.33,0,0,0-.24-.11l-.31-.08-.33-.09a1.5,1.5,0,0,1-.81-.43,1.08,1.08,0,0,1-.27-.75.88.88,0,0,1,.1-.43,1.09,1.09,0,0,1,.29-.35,1.51,1.51,0,0,1,.46-.22,2.08,2.08,0,0,1,.58-.08l.38,0,.37.07a2.69,2.69,0,0,1,.34.12,1.57,1.57,0,0,1,.29.14l-.27.62a1.84,1.84,0,0,0-.53-.23,2.38,2.38,0,0,0-.58-.08,1.12,1.12,0,0,0-.27,0,.57.57,0,0,0-.23.08.47.47,0,0,0-.15.13.31.31,0,0,0-.06.19.37.37,0,0,0,.15.31,1.21,1.21,0,0,0,.48.2l.33.08a4.29,4.29,0,0,1,.47.16,1.53,1.53,0,0,1,.39.25,1,1,0,0,1,.26.34,1,1,0,0,1,.1.47,1,1,0,0,1-.12.5,1.14,1.14,0,0,1-.32.37,1.53,1.53,0,0,1-.5.23,2.45,2.45,0,0,1-.62.08,2.73,2.73,0,0,1-.41,0l-.4-.07-.36-.11a2,2,0,0,1-.29-.15l.28-.61Z"/></g></g></svg>