<svg xmlns="http://www.w3.org/2000/svg" viewBox="0 0 217.44 180.2"><defs><style>.cls-1{fill:none;stroke:#fff;stroke-miterlimit:10;}.cls-2{fill:#6394f7;}.cls-3{fill:#e8932e;}</style></defs><g id="Layer_2" data-name="Layer 2"><g id="Layer_1-2" data-name="Layer 1"><rect class="cls-1" x="8.64" y="142.84" width="183.65" height="30.76"/><rect class="cls-1" x="8.64" y="142.84" width="183.65" height="30.76"/><circle class="cls-1" cx="100.47" cy="158.21" r="3.39"/><path class="cls-1" d="M68.79,32.39V116.7h141.6V32.39Z"/><path class="cls-1" d="M209.34,26.68H69.84a7.6,7.6,0,0,0-7.6,7.6v83.24a7.6,7.6,0,0,0,7.6,7.6h35.83v11.61H.5v36.09a6.88,6.88,0,0,0,6.88,6.88h186a7.08,7.08,0,0,0,7.09-7.09V136.73H178.49V125.12h30.85a7.6,7.6,0,0,0,7.6-7.6V34.28A7.6,7.6,0,0,0,209.34,26.68Zm1,90H68.79V32.39h141.6Z"/><line class="cls-1" x1="182.04" y1="125.12" x2="101.83" y2="125.12"/><rect class="cls-1" x="11.58" y="103.18" width="37.54" height="33.47"/><path class="cls-1" d="M15.2,103.18l2.28-11.74a1.5,1.5,0,0,1,2.83-.34l.43.92a1.5,1.5,0,0,0,2.73,0l.92-2.09a1.49,1.49,0,0,1,2.72,0l1.16,2.46A1.5,1.5,0,0,0,31,92.4l1.48-2.78a1.51,1.51,0,0,1,2.7.1l1.13,2.58a1.49,1.49,0,0,0,2.67.13l1.2-2.12a1.5,1.5,0,0,1,2.77.41l2.74,12.46"/><rect class="cls-1" x="110.64" y="0.5" width="57.9" height="18.55"/><line class="cls-1" x1="124.16" y1="19.05" x2="124.16" y2="26.68"/><line class="cls-1" x1="155.37" y1="19.05" x2="155.37" y2="26.68"/><path class="cls-2" d="M139.36,95.15a19.43,19.43,0,1,1,19.43-19.43,19.45,19.45,0,0,1-19.43,19.43m0-37a17.58,17.58,0,1,0,17.58,17.58,17.61,17.61,0,0,0-17.58-17.58"/><path class="cls-3" d="M152.43,70.2c-.13-.31-.27-.6-.42-.89a14.18,14.18,0,0,0-2.17-3.14l-3.17,2.24-6,4.26-.19-.26a3.54,3.54,0,0,0-6.39,1.89c0,.22-.1.28-.3.34a2.66,2.66,0,0,0-1.92,3.24,2.7,2.7,0,0,0,2.65,2h9.79a2.65,2.65,0,0,0,.73-5.22.56.56,0,0,1-.29-.16l4.15-2.93a10.5,10.5,0,1,1-4.68-5,1.51,1.51,0,0,0,.18.09,1.83,1.83,0,0,0,.82.19,1.93,1.93,0,0,0,1-3.58l-.12-.06c-.37-.2-.76-.38-1.15-.55a14.19,14.19,0,1,0,4.35,23.24l.15-.14a14.23,14.23,0,0,0,3-15.56m-8.63,5.09h0a.14.14,0,0,0,.12.1l.6,0A1.76,1.76,0,0,1,144.4,79c-.43,0-.86,0-1.29,0H134.8a2.19,2.19,0,0,1-1.43-.37,1.77,1.77,0,0,1-.35-2.49,1.79,1.79,0,0,1,1.38-.7.6.6,0,0,0,.57-.59c0-1.65.63-2.54,2-2.9a2.46,2.46,0,0,1,2.86,1.3,4.51,4.51,0,0,1,.28.49.38.38,0,0,0,.5.15.31.31,0,0,0,.09-.07,1.73,1.73,0,0,1,2-.47,1.71,1.71,0,0,1,1.13,1.72v.23Z"/><path class="cls-2" d="M154,60.62h-.7v-4h1.48a1.82,1.82,0,0,1,.66.11,1.42,1.42,0,0,1,.45.27,1.22,1.22,0,0,1,.26.38,1.42,1.42,0,0,1,.08.45,1.28,1.28,0,0,1-.09.48,1.06,1.06,0,0,1-.26.41,1.49,1.49,0,0,1-.46.28,1.76,1.76,0,0,1-.64.1H154Zm0-2.13h.63a1.83,1.83,0,0,0,.35,0,.66.66,0,0,0,.27-.1.52.52,0,0,0,.18-.18.65.65,0,0,0,.06-.29.47.47,0,0,0-.21-.43,1.12,1.12,0,0,0-.65-.14H154Z"/><path class="cls-2" d="M160.61,59.44a2,2,0,0,1-1.07,1.08,2.23,2.23,0,0,1-1.66,0,1.94,1.94,0,0,1-.65-.43,2,2,0,0,1-.42-.65,2.24,2.24,0,0,1,0-1.61,1.92,1.92,0,0,1,.42-.65,2.1,2.1,0,0,1,.65-.43,2.1,2.1,0,0,1,2.3.43,1.8,1.8,0,0,1,.43.65,2.24,2.24,0,0,1,0,1.61Zm-.69-1.37a1.33,1.33,0,0,0-.28-.44,1,1,0,0,0-.41-.27,1.4,1.4,0,0,0-1,0,1,1,0,0,0-.41.27,1.33,1.33,0,0,0-.28.44,1.65,1.65,0,0,0,0,1.13,1.28,1.28,0,0,0,.28.43,1.07,1.07,0,0,0,.41.28,1.4,1.4,0,0,0,1,0,1.07,1.07,0,0,0,.41-.28,1.28,1.28,0,0,0,.28-.43,1.48,1.48,0,0,0,.1-.57A1.47,1.47,0,0,0,159.92,58.07Z"/><path class="cls-2" d="M161.64,59.83a1.4,1.4,0,0,0,.29.09l.32.07.31,0a1.87,1.87,0,0,0,.34,0,.88.88,0,0,0,.26-.09.47.47,0,0,0,.18-.16.48.48,0,0,0,.07-.24.37.37,0,0,0-.06-.21.36.36,0,0,0-.15-.15A.9.9,0,0,0,163,59l-.3-.08-.33-.09a1.57,1.57,0,0,1-.81-.43,1,1,0,0,1-.28-.75,1.09,1.09,0,0,1,.1-.44,1.07,1.07,0,0,1,.3-.34,1.35,1.35,0,0,1,.45-.22,2.14,2.14,0,0,1,.58-.08,2.43,2.43,0,0,1,.38,0l.38.07a3.4,3.4,0,0,1,.34.12,2,2,0,0,1,.29.14l-.28.62a1.9,1.9,0,0,0-.52-.23,2.46,2.46,0,0,0-.59-.08l-.27,0a.53.53,0,0,0-.22.08.42.42,0,0,0-.16.13.38.38,0,0,0-.05.19.37.37,0,0,0,.15.31,1.38,1.38,0,0,0,.48.2l.33.08a3.71,3.71,0,0,1,.47.16,1.53,1.53,0,0,1,.39.25,1.1,1.1,0,0,1,.26.34,1.16,1.16,0,0,1,.1.47,1,1,0,0,1-.12.5,1.06,1.06,0,0,1-.33.37,1.48,1.48,0,0,1-.49.23,2.53,2.53,0,0,1-.63.08l-.41,0-.4-.07-.35-.11a1.57,1.57,0,0,1-.29-.15l.27-.61Z"/></g></g></svg>