<svg xmlns="http://www.w3.org/2000/svg" viewBox="0 0 255.17 164.74"><defs><style>.cls-1{fill:none;stroke:#fff;stroke-miterlimit:10;}.cls-2{fill:#6394f7;}.cls-3{fill:#e8932e;}</style></defs><g id="Layer_2" data-name="Layer 2"><g id="Layer_1-2" data-name="Layer 1"><path class="cls-1" d="M241.29,11.68V138.61a11.31,11.31,0,0,1-.11,1.55h-9.8V10.94H23.79V140.16H14a11.32,11.32,0,0,1-.1-1.55V11.68A11.17,11.17,0,0,1,25.06.5H230.11A11.17,11.17,0,0,1,241.29,11.68Z"/><path class="cls-1" d="M254.67,140.16a24.09,24.09,0,0,1-24.08,24.08h-206A24.09,24.09,0,0,1,.5,140.16H97.39A14.78,14.78,0,0,0,99.84,146a14.92,14.92,0,0,0,12.29,6.42H143a14.89,14.89,0,0,0,12.3-6.42,14.68,14.68,0,0,0,2.44-5.88Z"/><line class="cls-1" x1="98.02" y1="142.51" x2="156.86" y2="142.51"/><circle class="cls-1" cx="127.58" cy="5.85" r="2.68"/><path class="cls-2" d="M131.76,96.42A19.43,19.43,0,1,1,151.19,77a19.44,19.44,0,0,1-19.43,19.43m0-37A17.59,17.59,0,1,0,149.34,77,17.62,17.62,0,0,0,131.76,59.4"/><path class="cls-3" d="M144.83,71.47c-.13-.31-.27-.61-.42-.89a13.85,13.85,0,0,0-2.17-3.14l-3.17,2.23-6,4.27-.19-.26a3.56,3.56,0,0,0-4.94-.76,3.5,3.5,0,0,0-1.45,2.65c0,.22-.1.28-.3.34a2.65,2.65,0,0,0-1.92,3.23,2.69,2.69,0,0,0,2.65,2h9.79a2.66,2.66,0,0,0,.73-5.23.48.48,0,0,1-.28-.15l4.14-2.93a10.45,10.45,0,1,1-4.68-5l.19.1a1.9,1.9,0,0,0,.82.19,1.93,1.93,0,0,0,1-3.58l-.11-.06c-.38-.2-.77-.39-1.16-.56a14.19,14.19,0,1,0,4.36,23.25,1.85,1.85,0,0,1,.14-.14,14.21,14.21,0,0,0,3-15.56m-8.63,5.09h0a.15.15,0,0,0,.12.1c.2,0,.4,0,.61,0a1.76,1.76,0,0,1-.13,3.51c-.42,0-.86,0-1.28,0H127.2a2.28,2.28,0,0,1-1.43-.37,1.77,1.77,0,0,1-.35-2.49,1.79,1.79,0,0,1,1.38-.7.6.6,0,0,0,.57-.59c0-1.65.63-2.55,2-2.9a2.45,2.45,0,0,1,2.86,1.3,5.5,5.5,0,0,1,.28.48.38.38,0,0,0,.5.16l.1-.07a1.79,1.79,0,0,1,3.12,1.25v.23Z"/><path class="cls-2" d="M146.42,61.88h-.71v-4h1.49a2.06,2.06,0,0,1,.65.1,1.42,1.42,0,0,1,.45.27,1.4,1.4,0,0,1,.26.39,1.12,1.12,0,0,1,.08.45,1.51,1.51,0,0,1-.08.48,1.09,1.09,0,0,1-.27.4,1.23,1.23,0,0,1-.46.28,1.73,1.73,0,0,1-.63.11h-.78Zm0-2.13h.63l.34,0a1,1,0,0,0,.28-.1.52.52,0,0,0,.17-.19.61.61,0,0,0,.06-.28.5.5,0,0,0-.21-.44,1.2,1.2,0,0,0-.64-.13h-.63Z"/><path class="cls-2" d="M153,60.71a2,2,0,0,1-.42.65,2.13,2.13,0,0,1-3,0,2,2,0,0,1-.42-.65,2.16,2.16,0,0,1-.15-.81,2.11,2.11,0,0,1,.15-.8,1.92,1.92,0,0,1,.42-.65,2.13,2.13,0,0,1,3,0,1.92,1.92,0,0,1,.42.65,2.11,2.11,0,0,1,.15.8A2.16,2.16,0,0,1,153,60.71Zm-.69-1.37a1.48,1.48,0,0,0-.27-.44,1.34,1.34,0,0,0-.42-.28,1.55,1.55,0,0,0-1,0,1.3,1.3,0,0,0-.41.28,1.33,1.33,0,0,0-.28.44,1.6,1.6,0,0,0-.1.56,1.7,1.7,0,0,0,.1.57,1.39,1.39,0,0,0,.28.43,1.3,1.3,0,0,0,.41.28,1.55,1.55,0,0,0,1,0,1.34,1.34,0,0,0,.42-.28,1.57,1.57,0,0,0,.27-.43,1.48,1.48,0,0,0,.1-.57A1.4,1.4,0,0,0,152.32,59.34Z"/><path class="cls-2" d="M154,61.1a2.46,2.46,0,0,0,.29.09l.32.07.31,0a1.79,1.79,0,0,0,.34,0,.88.88,0,0,0,.26-.09.42.42,0,0,0,.18-.17.35.35,0,0,0,.07-.23.37.37,0,0,0-.06-.21.36.36,0,0,0-.15-.15,1,1,0,0,0-.23-.11l-.31-.09-.33-.08a1.57,1.57,0,0,1-.81-.43,1.06,1.06,0,0,1-.28-.75,1,1,0,0,1,.11-.44.85.85,0,0,1,.29-.34,1.35,1.35,0,0,1,.45-.22,2.16,2.16,0,0,1,.59-.08,3.74,3.74,0,0,1,.75.1l.34.11a2.64,2.64,0,0,1,.29.14l-.28.62a1.77,1.77,0,0,0-.52-.22,2,2,0,0,0-.59-.08l-.27,0-.22.08a.34.34,0,0,0-.15.14.29.29,0,0,0-.06.19.37.37,0,0,0,.15.31,1.38,1.38,0,0,0,.48.2l.33.08a3.24,3.24,0,0,1,.47.16,1.84,1.84,0,0,1,.39.24,1.1,1.1,0,0,1,.26.35,1,1,0,0,1,.1.46,1,1,0,0,1-.45.88,1.47,1.47,0,0,1-.49.22,2.09,2.09,0,0,1-.63.08l-.41,0-.39-.08a1.89,1.89,0,0,1-.36-.11,1.57,1.57,0,0,1-.29-.14l.27-.62A1.36,1.36,0,0,0,154,61.1Z"/></g></g></svg>