<svg xmlns="http://www.w3.org/2000/svg" viewBox="0 0 232.87 166.31"><defs><style>.cls-1,.cls-2{fill:none;stroke:#fff;stroke-miterlimit:10;}.cls-2{stroke-linecap:round;}.cls-3{fill:#6394f7;}.cls-4{fill:#e8932e;}</style></defs><g id="Layer_2" data-name="Layer 2"><g id="Layer_1-2" data-name="Layer 1"><path class="cls-1" d="M8.9,8.68V58a8.84,8.84,0,0,1,5.64,8.24v33.88a8.84,8.84,0,0,1-5.64,8.25v49.29H224V8.68Z"/><path class="cls-1" d="M221,.5H11.9A11.39,11.39,0,0,0,.5,11.9V154.41a11.39,11.39,0,0,0,11.4,11.4H221a11.4,11.4,0,0,0,11.4-11.4V11.9A11.4,11.4,0,0,0,221,.5Z"/><line class="cls-2" x1="219.02" y1="64.2" x2="219.02" y2="104.51"/><path class="cls-3" d="M119,104.2a19.43,19.43,0,1,1,19.43-19.43A19.44,19.44,0,0,1,119,104.2m0-37a17.59,17.59,0,1,0,17.59,17.58A17.61,17.61,0,0,0,119,67.19"/><path class="cls-4" d="M132,79.25c-.13-.3-.26-.6-.41-.89a13.83,13.83,0,0,0-2.18-3.13l-3.16,2.23-6,4.26-.19-.25a3.57,3.57,0,0,0-5-.76,3.46,3.46,0,0,0-1.44,2.64c0,.23-.11.29-.31.34a2.65,2.65,0,0,0,.74,5.22h9.79a2.65,2.65,0,0,0,.73-5.22.56.56,0,0,1-.29-.16l4.14-2.92A10.34,10.34,0,0,1,119,95.13a10.36,10.36,0,1,1,0-20.71,10.25,10.25,0,0,1,4.83,1.2l.18.1a2,2,0,0,0,.82.18,1.93,1.93,0,0,0,1.91-2,1.91,1.91,0,0,0-.93-1.61l-.12-.06c-.37-.2-.76-.39-1.16-.56a14.19,14.19,0,0,0-18.59,7.55,14.19,14.19,0,0,0,23,15.7l.15-.15a14.21,14.21,0,0,0,3-15.56m-8.62,5.09v0a.12.12,0,0,0,.11.09c.2,0,.41,0,.61.06a1.76,1.76,0,0,1,1.53,2A1.78,1.78,0,0,1,124,88q-.65,0-1.29,0H114.4a2.24,2.24,0,0,1-1.44-.38,1.76,1.76,0,0,1-.35-2.48,1.83,1.83,0,0,1,1.39-.71.59.59,0,0,0,.56-.59c0-1.64.64-2.54,2-2.89a2.42,2.42,0,0,1,2.85,1.3,4.36,4.36,0,0,1,.29.48.36.36,0,0,0,.5.15.28.28,0,0,0,.09-.07,1.8,1.8,0,0,1,3.13,1.26v.22Z"/><path class="cls-3" d="M133.61,69.67h-.7v-4h1.48a1.78,1.78,0,0,1,.65.1,1.23,1.23,0,0,1,.45.27.93.93,0,0,1,.26.39,1.13,1.13,0,0,1,.09.45,1.27,1.27,0,0,1-.09.47,1.13,1.13,0,0,1-.27.41,1.28,1.28,0,0,1-.45.28,1.76,1.76,0,0,1-.64.1h-.78Zm0-2.13h.63a1.9,1.9,0,0,0,.35,0,.72.72,0,0,0,.27-.1.39.39,0,0,0,.18-.18.62.62,0,0,0,.06-.29.48.48,0,0,0-.21-.43,1.23,1.23,0,0,0-.65-.14h-.63Z"/><path class="cls-3" d="M140.21,68.49a2.1,2.1,0,0,1-.43.65,1.8,1.8,0,0,1-.65.43,2.21,2.21,0,0,1-1.65,0,1.8,1.8,0,0,1-.65-.43,2.1,2.1,0,0,1-.43-.65,2.07,2.07,0,0,1-.15-.8,2.16,2.16,0,0,1,.15-.81,2.06,2.06,0,0,1,.43-.64,2,2,0,0,1,.65-.44,2.34,2.34,0,0,1,1.65,0,2,2,0,0,1,.65.44,2.06,2.06,0,0,1,.43.64,2.16,2.16,0,0,1,.15.81A2.07,2.07,0,0,1,140.21,68.49Zm-.69-1.37a1.28,1.28,0,0,0-.28-.43,1.3,1.3,0,0,0-.41-.28,1.5,1.5,0,0,0-.52-.1,1.46,1.46,0,0,0-.52.1,1.34,1.34,0,0,0-.42.28,1.43,1.43,0,0,0-.27.43,1.48,1.48,0,0,0-.1.57,1.43,1.43,0,0,0,.1.56,1.48,1.48,0,0,0,.27.44,1.17,1.17,0,0,0,.42.27,1.27,1.27,0,0,0,.52.1,1.3,1.3,0,0,0,.52-.1,1.13,1.13,0,0,0,.41-.27,1.33,1.33,0,0,0,.28-.44,1.64,1.64,0,0,0,.1-.56A1.7,1.7,0,0,0,139.52,67.12Z"/><path class="cls-3" d="M141.24,68.88l.29.1.31.06.32,0a1.69,1.69,0,0,0,.33,0,.72.72,0,0,0,.27-.1.55.55,0,0,0,.18-.16.45.45,0,0,0,.06-.24.31.31,0,0,0-.05-.2.75.75,0,0,0-.15-.16,1.33,1.33,0,0,0-.24-.1l-.31-.09-.32-.08a1.61,1.61,0,0,1-.82-.44,1.07,1.07,0,0,1-.27-.74.92.92,0,0,1,.1-.44,1.05,1.05,0,0,1,.29-.34,1.53,1.53,0,0,1,.46-.23,2.1,2.1,0,0,1,.58-.07,2.42,2.42,0,0,1,.38,0l.37.08.35.11.29.14-.28.62a1.89,1.89,0,0,0-.52-.22,2.06,2.06,0,0,0-.59-.09,1.12,1.12,0,0,0-.27,0,.63.63,0,0,0-.22.08.53.53,0,0,0-.16.13.32.32,0,0,0-.05.19.38.38,0,0,0,.14.31,1.21,1.21,0,0,0,.48.2l.34.09a2.6,2.6,0,0,1,.47.16,1.36,1.36,0,0,1,.38.24,1.17,1.17,0,0,1,.27.35,1.08,1.08,0,0,1,.09.46,1.07,1.07,0,0,1-.12.51,1,1,0,0,1-.32.36,1.53,1.53,0,0,1-.5.23,2.45,2.45,0,0,1-.62.08,2.83,2.83,0,0,1-.41,0l-.4-.07-.36-.11a2,2,0,0,1-.29-.14l.28-.62A1.34,1.34,0,0,0,141.24,68.88Z"/></g></g></svg>