<svg xmlns="http://www.w3.org/2000/svg" viewBox="0 0 70.01 142.89"><defs><style>.cls-1,.cls-2{fill:none;stroke:#fff;stroke-miterlimit:10;}.cls-2{stroke-linecap:round;}.cls-3{fill:#6394f7;}.cls-4{fill:#e8932e;}</style></defs><g id="Layer_2" data-name="Layer 2"><g id="Layer_1-2" data-name="Layer 1"><path class="cls-1" d="M69.51,6.76V136.12a6.26,6.26,0,0,1-6.26,6.27H6.76A6.26,6.26,0,0,1,.5,136.12V6.76A6.26,6.26,0,0,1,6.76.5H63.25A6.26,6.26,0,0,1,69.51,6.76Z"/><path class="cls-1" d="M46.3.5V.57a3.87,3.87,0,0,1-3.87,3.87H27.58A3.87,3.87,0,0,1,23.71.57V.5Z"/><line class="cls-2" x1="42.23" y1="137.4" x2="26.6" y2="137.4"/><path class="cls-3" d="M35.45,83.22A14.16,14.16,0,1,1,49.6,69.06,14.17,14.17,0,0,1,35.45,83.22m0-27A12.82,12.82,0,1,0,48.26,69.06,12.84,12.84,0,0,0,35.45,56.25"/><path class="cls-4" d="M45,65c-.09-.22-.19-.44-.3-.65a10,10,0,0,0-1.59-2.28l-2.3,1.62-4.4,3.11-.14-.18a2.6,2.6,0,0,0-3.61-.56A2.55,2.55,0,0,0,31.58,68c0,.16-.07.21-.22.25a1.93,1.93,0,0,0,.53,3.8H39a1.93,1.93,0,0,0,.53-3.81.36.36,0,0,1-.21-.11l3-2.13A7.59,7.59,0,1,1,39,62.39l.14.07a1.35,1.35,0,0,0,.59.14A1.4,1.4,0,0,0,40.4,60l-.08,0a9.2,9.2,0,0,0-.84-.4,10.34,10.34,0,1,0,3.17,16.93l.11-.1A10.36,10.36,0,0,0,45,65m-6.28,3.71h0a.08.08,0,0,0,.08.07l.44,0a1.29,1.29,0,0,1-.09,2.56c-.31,0-.62,0-.94,0h-6a1.69,1.69,0,0,1-1.05-.27,1.29,1.29,0,0,1-.25-1.82,1.32,1.32,0,0,1,1-.51.43.43,0,0,0,.41-.43,1.87,1.87,0,0,1,1.44-2.11,1.78,1.78,0,0,1,2.08,1c.07.11.14.22.21.35a.27.27,0,0,0,.36.11l.07,0a1.31,1.31,0,0,1,2.28.91,0,0,0,0,0,0,0Z"/><path class="cls-3" d="M46.13,58.06h-.51V55.18H46.7a1.33,1.33,0,0,1,.47.07,1.08,1.08,0,0,1,.33.2.87.87,0,0,1,.19.28,1,1,0,0,1,.06.33,1,1,0,0,1-.06.35.84.84,0,0,1-.2.29.93.93,0,0,1-.33.21,1.31,1.31,0,0,1-.46.07h-.57Zm0-1.55h.46l.25,0a.6.6,0,0,0,.2-.08.33.33,0,0,0,.13-.13.46.46,0,0,0,0-.21.34.34,0,0,0-.15-.31.83.83,0,0,0-.47-.11h-.46Z"/><path class="cls-3" d="M50.93,57.2a1.25,1.25,0,0,1-.31.47,1.4,1.4,0,0,1-.47.32,1.64,1.64,0,0,1-.6.11,1.74,1.74,0,0,1-.61-.11,1.4,1.4,0,0,1-.47-.32,1.54,1.54,0,0,1-.31-.47,1.61,1.61,0,0,1,0-1.17,1.54,1.54,0,0,1,.31-.47,1.4,1.4,0,0,1,.47-.32,1.54,1.54,0,0,1,.61-.11,1.46,1.46,0,0,1,.6.11,1.4,1.4,0,0,1,.47.32,1.25,1.25,0,0,1,.31.47,1.43,1.43,0,0,1,.11.58A1.44,1.44,0,0,1,50.93,57.2Zm-.5-1a1,1,0,0,0-.2-.31,1,1,0,0,0-.3-.21,1.22,1.22,0,0,0-.38-.07,1.17,1.17,0,0,0-.38.07.9.9,0,0,0-.3.21.83.83,0,0,0-.2.31,1.07,1.07,0,0,0-.07.41,1.16,1.16,0,0,0,.07.42.92.92,0,0,0,.2.31.75.75,0,0,0,.3.2,1,1,0,0,0,.38.07,1,1,0,0,0,.38-.07.83.83,0,0,0,.3-.2,1.1,1.1,0,0,0,.2-.31,1.16,1.16,0,0,0,.07-.42A1.07,1.07,0,0,0,50.43,56.2Z"/><path class="cls-3" d="M51.69,57.48a.65.65,0,0,0,.21.07l.23.05.23,0,.24,0a.84.84,0,0,0,.19-.07.3.3,0,0,0,.13-.12.34.34,0,0,0,0-.17.24.24,0,0,0,0-.15.23.23,0,0,0-.11-.11.45.45,0,0,0-.17-.08l-.23-.07-.23-.06a1.18,1.18,0,0,1-.6-.31.81.81,0,0,1-.2-.55.72.72,0,0,1,.08-.32.82.82,0,0,1,.21-.25,1,1,0,0,1,.33-.16,1.45,1.45,0,0,1,.43,0,1.23,1.23,0,0,1,.27,0l.27.05.26.08.21.1-.21.46a1.21,1.21,0,0,0-.38-.17,1.59,1.59,0,0,0-.43-.06l-.19,0a.38.38,0,0,0-.16.06.4.4,0,0,0-.12.1.27.27,0,0,0,.07.36.89.89,0,0,0,.35.15l.24.06.35.11a1.34,1.34,0,0,1,.28.18.92.92,0,0,1,.19.25.74.74,0,0,1,.07.34.75.75,0,0,1-.09.37.67.67,0,0,1-.23.27,1.17,1.17,0,0,1-.36.16,1.7,1.7,0,0,1-.46.06l-.3,0-.29,0L51.52,58l-.21-.1.2-.46A.51.51,0,0,0,51.69,57.48Z"/></g></g></svg>