<svg xmlns="http://www.w3.org/2000/svg" viewBox="0 0 606.89 516.11"><defs><style>.cls-1{fill:#283044;opacity:0.56;}.cls-2{fill:#3063a0;opacity:0.25;}.cls-2,.cls-3{fill-rule:evenodd;}.cls-3{fill:#5c8deb;}.cls-4{fill:#989898;}.cls-5{fill:#dedede;}.cls-6{fill:#dc8613;}.cls-7{fill:#f39b25;}.cls-8{fill:#ff9b16;}.cls-9{fill:#faa93d;}.cls-10{fill:#f4f4f4;}.cls-11{fill:#1a1a1a;}.cls-12{fill:#fff;}.cls-13{fill:#ea997d;}.cls-14{fill:#d87e66;}.cls-15{fill:#fdfafd;}.cls-16{fill:#eaeaea;}.cls-17{fill:#161516;}.cls-18{fill:#282828;}.cls-19{fill-opacity:0.2;}</style></defs><g id="Layer_2" data-name="Layer 2"><g id="Layer_1-2" data-name="Layer 1"><ellipse class="cls-1" cx="307.39" cy="488.56" rx="299.5" ry="27.56"/><path class="cls-2" d="M114.67,186.78a18.94,18.94,0,1,1-7.16,25.81,18.93,18.93,0,0,1,7.16-25.81M70.47,71.88a17,17,0,0,1,7.29,2.65,26.4,26.4,0,0,1,13,29.86C87.12,118.3,75.56,123.88,64.3,130.7l29.25,51.75,26.16-14.61-17-30.54c4.83-5.4,7.48-6.68,12.43-14.34,13.34-20.66,10-44.78-5.24-63.33-17.19-21-46.54-28.3-73.66-13C21,55.21,12.05,67.28,8.32,80.34c-3.61,12.58-3.23,31,4.8,42.22l27.37-15.45a26.41,26.41,0,0,1,30-35.23Z"/><path class="cls-3" d="M108.53,190.25a18.94,18.94,0,1,1-7.16,25.81,18.95,18.95,0,0,1,7.16-25.81M64.33,75.35A17,17,0,0,1,71.63,78a26.41,26.41,0,0,1,13,29.86C81,121.77,69.43,127.34,58.17,134.17l29.24,51.75,26.17-14.61-17-30.54c4.83-5.4,7.49-6.68,12.43-14.34,13.34-20.66,10-44.78-5.23-63.33-17.19-21-46.55-28.3-73.66-13C14.83,58.68,5.92,70.75,2.18,83.81-1.42,96.39-1,114.76,7,126l27.37-15.45a26.41,26.41,0,0,1,30-35.23Z"/><g id="Chair_4" data-name="Chair 4"><path class="cls-4" d="M457.67,436.16q11.7,0,23.4,0,7.2,30.79,14.39,61.63-9.82,0-19.66,0Q466.74,467,457.67,436.16Z"/><path class="cls-4" d="M365,436.16q11.71,0,23.41,0,4,30.79,8.09,61.63-9.83,0-19.67,0Q370.89,467,365,436.16Z"/><path class="cls-4" d="M223.51,436.16l-23.41-22.3q-7.14,42-14.3,83.93,9.84,0,19.66,0Z"/><path class="cls-5" d="M316.29,436.16q-11.7,0-23.41,0-4.08,30.79-8.17,61.63,9.84,0,19.66,0Q310.34,467,316.29,436.16Z"/><path class="cls-6" d="M193.2,447.48q0-4.35,0-8.68a2.66,2.66,0,0,1,2.64-2.64H482.18a2.65,2.65,0,0,1,2.64,2.64v8.68a2.65,2.65,0,0,1-2.64,2.64H195.93A2.79,2.79,0,0,1,193.2,447.48Z"/><path class="cls-7" d="M272.79,122.33c-28.09.17-35.07,35-33.79,54.31.94,14.38,10.81,101.12,3.91,101.12H182.39c-19.91,0-23.23,15-22.13,24.94s10.13,89.88,11.84,104.86,7.32,31.84,18.55,31.84H390.42c6.22,0,3.58-90.57,3.24-104.27s-93-137.3-93.12-149.81,11.41-48.09.42-56.77C293.05,122.33,277,122.33,272.79,122.33Z"/><path class="cls-8" d="M172.52,423.91q-7.35-65.31-14.72-130.58a13.59,13.59,0,0,1,13.78-15.57h12.86a17.87,17.87,0,0,1,17.45,16.77q2.34,65.27,4.68,130.57a13.54,13.54,0,0,1-13.88,14.38h-2.8A18,18,0,0,1,172.52,423.91Z"/><path class="cls-8" d="M238.49,277.84c4.17-5.27,4.85-18.21,4-33.79-1.28-24.26-3.92-54.73-4.43-73-.51-19.58,9.2-41.88,22.64-46.13,11.07-3.58,20.86,1.1,15.75,4.68-8.09,5.62-15.66,25.36-16.34,41.19-.26,7,.85,59.93,1.7,73.89,1.28,21.53-5.62,33.11-10.81,33.11C249.81,277.76,243.17,277.76,238.49,277.84Z"/><path class="cls-9" d="M209.55,425.27q-1-29.5-2-59A27.44,27.44,0,0,1,235,337.94H348.71A11.22,11.22,0,0,1,360,349.17q0,37.88,0,75.76a11.22,11.22,0,0,1-11.24,11.23q-64,0-128,0A11.13,11.13,0,0,1,209.55,425.27Z"/><path class="cls-9" d="M278.41,320.66q3.88-81.9,7.74-163.77c.51-11,10.13-18.81,21-22.39,45.79-15,112.52-14.21,170.74,2.81,2.73.85,5.2,2.3,5.2,5v186.4a5.08,5.08,0,0,1-5.2,5H291.6A12.92,12.92,0,0,1,278.41,320.66Z"/></g><path class="cls-10" d="M244.91,468.17q-.66-9-1.33-18h22.54q.28,9.06.56,18.13Z"/><path class="cls-11" d="M244.25,467.47,221.18,480l-13,2.53a13.71,13.71,0,0,0-11,12.18l-.26,2.83,72.11.32-2-30.32Z"/><polyline class="cls-12" points="269.32 498.36 196.65 498.04 196.68 491.81 269.35 492.13 269.32 498.36"/><path class="cls-10" d="M332.86,467.47q-.58-8.69-1.16-17.37l21.84,0,.7,17.42Z"/><path class="cls-11" d="M332.05,467.47,309,480l-13,2.53a13.7,13.7,0,0,0-11,12.18l-.26,2.83,72.11.32-2-30.32Z"/><polyline class="cls-12" points="357.13 498.36 284.45 498.04 284.48 491.81 357.16 492.13 357.13 498.36"/><path class="cls-13" d="M348.17,127.22h0a18.63,18.63,0,0,0,18.62-18.63V69H329.54v39.64A18.63,18.63,0,0,0,348.17,127.22Z"/><path class="cls-13" d="M378.28,48.88a8.91,8.91,0,0,0-2.28.06c.95-23.32-11.65-36.3-28.71-36.3S317.94,26.44,318.6,49a9.1,9.1,0,0,0-2.31-.07c-5.46.47-3.6,14.5,1.2,16.81a3.68,3.68,0,0,0,2.9.29c3.7,21.63,12.09,29.92,26.9,29.92,14.61,0,22.89-9.78,26.71-30a3.63,3.63,0,0,0,3.08-.22C381.89,63.38,383.74,49.35,378.28,48.88Z"/><path class="cls-14" d="M375.68,39.36l.55,2.49s-11.51.84-14-14.1c0,0-6.93-3.88-15.36,3.45s-18.08,12.39-26.66,10.65l.13-.75,17-10.62,20.05-10.06,11.47,5.25Z"/><path class="cls-11" d="M377.91,27c-.67-5.78-5.05-5.45-5.05-5.45a2.2,2.2,0,0,0-.28-2.51c-1.06-1-1.74-.21-1.74-.21s1.91-2.67,1.13-3.27-2.81,1.25-2.81,1.25,1.91-4.08,1.35-4.3-3.77,2.12-3.77,2.12S359.66-.94,336.86,0,311,21.36,311,21.36c2.36-2.21,6.41-2.36,6.41-2.36a11.35,11.35,0,0,0-4.95,13.93c1.24-3.27,6.18-4.13,6.18-4.13-4.6,2.62-4,11.33-4,11.33a20.57,20.57,0,0,0,3.72.82v7.26l2.58,26.21a18,18,0,0,0,1.68,6A34.31,34.31,0,0,0,347.19,99.4h.05A34.33,34.33,0,0,0,373,77.7a5.36,5.36,0,0,0,.32-1.37l2.76-28.12V41.79l.14.06S378.59,32.78,377.91,27ZM357.15,76.14a10.13,10.13,0,0,1-3.71,7.93,9.43,9.43,0,0,1-4.8,2.09l1.15-3.32h-5.13l1.13,3.25a10.26,10.26,0,0,1-8.61-10.19V72.78s10.47-2.94,20,0Zm16-12a14.52,14.52,0,0,1-4,10c-.52.54-1.07,1.09-1.68,1.62A27.61,27.61,0,0,1,361,80l0-8a2.28,2.28,0,0,0-1.56-2.15,39.24,39.24,0,0,0-4.91-1.33,40.85,40.85,0,0,0-6.43-.78h0v0a40.12,40.12,0,0,0-8.14.81,41.73,41.73,0,0,0-5,1.35,2.18,2.18,0,0,0-1.46,2l-.06,8a27.79,27.79,0,0,1-8.8-6.63,13.4,13.4,0,0,1-3.31-8.89V47.15L322.62,41C334,40,343,29.78,350,25.87a13.34,13.34,0,0,1,15.06.86c.05.61.76,7.64,4.43,11h0l3.65,9.42Z"/><path class="cls-15" d="M355.05,74.2h-15.9s1.38,6.06,7.56,6.55v0l.39,0,.4,0v0C353.67,80.26,355.05,74.2,355.05,74.2Z"/><path class="cls-12" d="M402.84,284.11h0s-.44-119-.59-160.68l-35.46-14.72v-6.22H329.54v6.27l-27.68,14.72-5.79,164.15a2,2,0,0,0,0,.21,11.77,11.77,0,0,0-3.57.16l-50.64,3.35a23.23,23.23,0,0,0-4,.73,21.23,21.23,0,0,0-15.55,25.17q2.66,67.35,5.32,134.7l44.82-.51v0H350l16.07,0q-.83-58.65-1.66-117.29a77,77,0,0,0,16.86.16c4-.41,5.55-.87,6.64-1.36a25.21,25.21,0,0,0,10-8.15l.06-.07C408.69,310.35,402.68,284.11,402.84,284.11Z"/><polyline class="cls-16" points="343.39 102.7 343.39 186.86 342.94 186.86 342.94 102.7"/><path class="cls-16" d="M345.27,157.65a2.11,2.11,0,1,1-2.11-2.11A2.1,2.1,0,0,1,345.27,157.65Z"/><path class="cls-16" d="M345.27,174.84a2.11,2.11,0,1,1-2.11-2.11A2.1,2.1,0,0,1,345.27,174.84Z"/><path class="cls-16" d="M345.27,187.73a2.11,2.11,0,1,1-2.11-2.11A2.1,2.1,0,0,1,345.27,187.73Z"/><path class="cls-16" d="M345.27,141.3a2.11,2.11,0,1,1-2.11-2.11A2.1,2.1,0,0,1,345.27,141.3Z"/><path class="cls-16" d="M345.27,125a2.11,2.11,0,1,1-2.11-2.11A2.1,2.1,0,0,1,345.27,125Z"/><path class="cls-16" d="M345.27,108.59a2.11,2.11,0,1,1-2.11-2.1A2.1,2.1,0,0,1,345.27,108.59Z"/><rect class="cls-16" x="359.25" y="152.3" width="21.99" height="1.52"/><path class="cls-12" d="M418.46,138c5.47,24.58,19.84,79.45,27.12,107a17.8,17.8,0,0,1-11.91,21.54h0a17.81,17.81,0,0,1-22.51-12.36L382.1,146.5a18.66,18.66,0,0,1,14.84-22.77h0A18.67,18.67,0,0,1,418.46,138Z"/><path class="cls-12" d="M284.17,138c-5.48,24.58-19.84,79.45-27.12,107A17.79,17.79,0,0,0,269,266.59h0a17.8,17.8,0,0,0,22.5-12.36L320.53,146.5a18.67,18.67,0,0,0-14.85-22.77h0A18.66,18.66,0,0,0,284.17,138Z"/><path class="cls-13" d="M318.25,279.18h0a8.34,8.34,0,0,0,9.89,6.41l20.29-4.45a8.33,8.33,0,0,0,6.41-9.88h0a8.33,8.33,0,0,0-9.89-6.42l-20.28,4.45A8.34,8.34,0,0,0,318.25,279.18Z"/><path class="cls-13" d="M327.05,285.88a6.92,6.92,0,0,0,6.84-7.37l-.17-2.81a6.93,6.93,0,0,0-7-6.48h-.22a61.41,61.41,0,0,0-22.76-1c-16.25,2.35-22.73,11-21.62,16,1.05,4.71,20.34,2.92,27.5,2.34a25,25,0,0,0,12.46.84A24.07,24.07,0,0,0,327.05,285.88Z"/><path class="cls-12" d="M432.3,268.67l-92.88,23.4-9.69-34.52,95-23.82a17.86,17.86,0,0,1,21.59,14.54h0A17.87,17.87,0,0,1,432.3,268.67Z"/><path class="cls-17" d="M360.21,295.9H313v-7.57h47.23a3.79,3.79,0,0,1,3.78,3.79h0A3.78,3.78,0,0,1,360.21,295.9Z"/><path class="cls-18" d="M321.81,295.9H227.24a11.39,11.39,0,0,1-11-8.34l-17.33-62.24a8.63,8.63,0,0,1,8.32-10.95h87.32a7.51,7.51,0,0,1,7.27,5.6Z"/><path class="cls-12" d="M263.9,258.62a8.41,8.41,0,1,1-8.4-8.41A8.4,8.4,0,0,1,263.9,258.62Z"/><g id="Chair_4-2" data-name="Chair 4"><path class="cls-8" d="M374.25,293.33V423.91a15.45,15.45,0,0,0,15.49,15.57H492.22c6.21,0,13.7-2.55,15-16.25s23.92-224.55,25.2-237.06,11.32-48.94,1.36-57.62c-7.24-6.22-21.11-6.22-25.45-6.13a30.55,30.55,0,0,0-11.49,2.24l-.77.23c-13.87,4.25-26.13,26.55-27.83,46.13-1.62,18.3-2.39,48.77-3.83,73-.94,15.58-3.07,28.52-7.83,33.79l4.62,0a.92.92,0,0,1-.28,0H404.27c-.53,0-1.06-.08-1.59-.08H389.82A15.58,15.58,0,0,0,374.25,293.33Z"/><path class="cls-19" d="M392.55,439.48h99.67c6.21,0,13.7-2.55,15-16.25s23.92-224.55,25.2-237.06,11.32-48.94,1.36-57.62c-7.24-6.22-21.11-6.22-25.45-6.13a30.55,30.55,0,0,0-11.49,2.24c11.13-3.13,19.87,1.41,14.47,4.91-8.77,5.62-18.56,25.36-21,41.19-1.1,7-5.87,59.93-6.64,73.89-1.1,21.53-9.36,33.11-14.55,33.11-.83,0-4.29,0-7.89,0a.92.92,0,0,1-.28,0H404.27a15.61,15.61,0,0,1,13.9,16.69Q413.1,359.8,408,425.1A15.53,15.53,0,0,1,392.55,439.48Z"/></g></g></g></svg>