<svg xmlns="http://www.w3.org/2000/svg" xmlns:xlink="http://www.w3.org/1999/xlink" viewBox="0 0 671 546.48"><defs><style>.cls-1{isolation:isolate;}.cls-15,.cls-2{fill:#5c8deb;}.cls-2{opacity:0.05;}.cls-3{fill:#112b46;}.cls-4{fill:#22b473;opacity:0.44;}.cls-5,.cls-7{fill:#e6e7e8;}.cls-5,.cls-6{mix-blend-mode:multiply;}.cls-8{fill:#bee1f4;}.cls-9{fill:#7aabbc;}.cls-10{fill:#b2b2b2;}.cls-11{fill:url(#radial-gradient);}.cls-12{fill:#efa78b;}.cls-13{fill:#ffc8af;}.cls-14{fill:#f9fbfc;}.cls-16{fill:#243c55;}.cls-17{fill:#0a2033;}.cls-18{fill:#3c6dbc;}.cls-19{fill:#8eacdd;}.cls-20{fill:url(#radial-gradient-2);}.cls-21{fill:url(#radial-gradient-3);}.cls-22{fill:#4c80d3;}.cls-23{fill:#f8a94e;}.cls-24{fill:#bc8867;}</style><radialGradient id="radial-gradient" cx="160.32" cy="62.15" r="59.43" gradientTransform="matrix(-1, 0, 0, 1, 552.3, 0)" gradientUnits="userSpaceOnUse"><stop offset="0" stop-color="#ffc8af"/><stop offset="1" stop-color="#ffbb9c"/></radialGradient><radialGradient id="radial-gradient-2" cx="220.55" cy="217.9" r="75.23" xlink:href="#radial-gradient"/><radialGradient id="radial-gradient-3" cx="160.33" cy="62.15" r="59.41" xlink:href="#radial-gradient"/></defs><g class="cls-1"><g id="Layer_2" data-name="Layer 2"><g id="Layer_1-2" data-name="Layer 1"><path class="cls-2" d="M670.67,367.28,646,546H18.84L.32,409.65c-2.06-15.27,6.12-30.07,19.93-36l55.66-23.83V292.7c0-16.83,11.94-31.1,28.08-33.52l13.16-2,22.11-77.13a33,33,0,0,1,31.48-24.27H396.88a32.26,32.26,0,0,1,22.36,9.06,34.28,34.28,0,0,1,10.37,22.35l107.68,11.74c16,1.75,28.39,15.15,29.34,31.7L571,307.72l76.1,22.18C662.91,334.51,673,350.49,670.67,367.28Z"/><path class="cls-2" d="M637.1,470.94l-10.36,75H181.82l-6.22-45.84a23.43,23.43,0,0,1,13.72-24.78l38.32-16.41V419.61c0-11.57,8.22-21.41,19.32-23.08l9.08-1.36,15.21-53.11a22.69,22.69,0,0,1,21.67-16.71H448.59a22.22,22.22,0,0,1,15.4,6.24,23.45,23.45,0,0,1,7.15,15.4l74.13,8.07a23,23,0,0,1,20.2,21.84l3,53.05,52.41,15.27C631.76,448.39,638.68,459.39,637.1,470.94Z"/><path class="cls-3" d="M551.26,461s1.19,3.55,2.46,8a78.46,78.46,0,0,1,2.87,13.48l-2.12.16a78,78,0,0,0-2.8-13.06c-.63-2.19-1.23-4.17-1.69-5.59s-.74-2.3-.74-2.3l2-.68Z"/><path class="cls-3" d="M571.36,454.43s0,.51-.11,1.44c-.19,2.79-.58,9.28-.58,16.33,0,3.3.09,6.73.31,9.94l-2.12.3c-.23-3.35-.32-6.86-.32-10.24,0-9.61.7-18.09.7-18.12l2.12.35Z"/><path class="cls-3" d="M580.86,476.84h0a7.83,7.83,0,0,0-.91,1.32,5.34,5.34,0,0,0-.75,2.56h-2.13a7.64,7.64,0,0,1,1.12-3.77,9,9,0,0,1,1.11-1.56l1.57,1.44Z"/><path class="cls-4" d="M553.8,463.16s10.92-13.85-5.86-42.61-51.4-35.69-53-32,17.58,10.92,22.9,33,6,34.36,12.7,41S546.25,471.94,553.8,463.16Z"/><path class="cls-4" d="M576.28,466s1.19-15.58,29.39-24.25,54.9,7.6,53.71,11-18-3.44-34.75,7.77-24.55,18.76-32.88,19.1S575.92,476.2,576.28,466Z"/><path class="cls-4" d="M562.82,449.45s-16.79-18,2.68-46.88,62.4-30.85,63.81-26.86-16.8,11.55-23.87,34.23S594.51,444,587.11,450.48,570.08,459.13,562.82,449.45Z"/><path class="cls-5" d="M549.36,458.88a.9.9,0,0,0,.28,0,1.07,1.07,0,0,0,.75-1.31c-.49-1.75-12.19-43.26-33.82-59.11a1.06,1.06,0,1,0-1.26,1.71c21,15.42,32.9,57.55,33,58A1.07,1.07,0,0,0,549.36,458.88Z"/><path class="cls-5" d="M571.14,453.62a1.17,1.17,0,0,0,1.07-.79,4.49,4.49,0,0,0,.12-1.15c1-14.6,7.2-63,46.28-73.26a1.06,1.06,0,1,0-.54-2.06c-40.46,10.58-46.86,60.21-47.86,75.17,0,.41-.05.67-.06.77a1,1,0,0,0,.69,1.28A1,1,0,0,0,571.14,453.62Z"/><g class="cls-6"><path class="cls-7" d="M584.3,473c.48,0,1-.43,2.52-1.84,17.52-15.86,34.41-23.37,50.21-22.34a1.07,1.07,0,0,0,.14-2.13c-16.41-1.09-33.82,6.63-51.78,22.89-.63.57-1.27,1.15-1.52,1.34a1,1,0,0,0-.63.66,1.07,1.07,0,0,0,.67,1.35A1.46,1.46,0,0,0,584.3,473Z"/></g><path class="cls-8" d="M540.71,545.18h54.94a3,3,0,0,0,2.89-2.3l14.38-62.15H523.44l14.38,62.15A3,3,0,0,0,540.71,545.18Z"/><polygon class="cls-9" points="608.74 498.81 527.62 498.81 523.44 480.73 612.92 480.73 608.74 498.81"/><polygon class="cls-8" points="612.07 484.4 524.28 484.4 523.44 480.73 612.92 480.73 612.07 484.4"/><polygon class="cls-10" points="158.58 263.97 278.75 263.97 278.75 257.14 162.63 257.14 106.73 155 100.74 158.27 158.58 263.97"/><path class="cls-11" d="M351,47.05a58,58,0,0,0,8,20.49c6.4,9.89,20.84,24.41,24.83,25.66,1.61.49,7.33-2.1,13.58-5.38,2.05-1.06,4.15-2.22,6.19-3.34,7.2-4,13.53-7.84,13.53-7.84l9.54-13.46c-3.87-19.51-10.76-34.14-21.37-48S371,9.67,362.41,16.32,349.1,33.4,351,47.05Z"/><path class="cls-12" d="M404,48.67c.28,8.71-5.47,12-6.62,13.48s6.57,9.52,10,5.91S404,48.67,404,48.67Z"/><polygon class="cls-13" points="188.14 487.32 183.88 507.83 212.03 512.68 218.51 489.2 188.14 487.32"/><path class="cls-14" d="M129.91,517.31l-1.83,10.26,89.29,15.93,1.81-10.17s-79.15-15-87.77-15.81Z"/><path class="cls-15" d="M167.85,505.21a1.39,1.39,0,0,1-.26-.7c-1.79.69-3.65,1.39-5.54,2.13l6.31,8.75a1.56,1.56,0,0,1-.35,2.17,1.55,1.55,0,0,1-2.15-.35l-6.54-9a.81.81,0,0,1-.17-.44c-12,4.53-24.57,9.16-27.74,9.79,8.62.78,87.77,15.81,87.77,15.81l-2.82-23.62a1.75,1.75,0,0,0-2.09-1.48c-21,4.11-28.23-5-30.21-8.55a1.7,1.7,0,0,0-2.12-.75l-3.85,1.5,6.24,8.64a1.53,1.53,0,0,1-.36,2.14,1.59,1.59,0,0,1-1.18.29,1.53,1.53,0,0,1-1-.65l-6.51-9a.68.68,0,0,1-.12-.24l-4.8,1.85,6.51,9a1.56,1.56,0,0,1-1.53,2.44,1.46,1.46,0,0,1-1-.64Z"/><path class="cls-14" d="M165.86,517.21a1.55,1.55,0,0,0,2.15.35,1.56,1.56,0,0,0,.35-2.17l-6.31-8.75-2.9,1.09a.81.81,0,0,0,.17.44Z"/><path class="cls-14" d="M170.37,503.43l-2.78,1.08a1.39,1.39,0,0,0,.26.7l6.54,9.05a1.46,1.46,0,0,0,1,.64,1.56,1.56,0,0,0,1.53-2.44Z"/><path class="cls-14" d="M181.8,510.85a1.53,1.53,0,0,0,1,.65,1.59,1.59,0,0,0,1.18-.29,1.53,1.53,0,0,0,.36-2.14l-6.24-8.64-2.92,1.15a.68.68,0,0,0,.12.24Z"/><path class="cls-16" d="M341,355.37c18.29.92,42.72,2.22,74.63,3.45,89.26,3.41,71.08-83,71.08-83l-85.31-1.13s-126.84-1.88-153.55,15.18S182.17,487,182.17,487l42.48,11.86s34.43-74,54.53-113.41c8.26-16.21,14.23-28.12,14.74-29.42C295,353.08,308.08,353.66,341,355.37Z"/><path class="cls-17" d="M398.69,274.64l2.72,0,85.31,1.13s10.19,48.48-22.18,71.39c-32.23-7.8-51.43-40.5-68.35-69.84Z"/><path class="cls-17" d="M279.18,385.4l7.06,106.8,7.68.17v-4.43h30.44v5.18l8.39.21,8.26-138c-32.93-1.71-46-2.29-47.09.61C293.41,357.28,287.44,369.19,279.18,385.4Z"/><polygon class="cls-13" points="293.92 492.37 293.92 511.82 324.36 511.82 324.36 493.12 293.92 492.37"/><polygon class="cls-17" points="293.92 487.94 293.92 492.37 324.36 493.12 324.36 487.94 293.92 487.94"/><path class="cls-14" d="M242.31,531v10.42H333V531.05s-80.56-.9-89.18-.16Z"/><path class="cls-15" d="M277.54,512.38a1.39,1.39,0,0,1-.38-.65l-5.08,3.07,7.75,7.5a1.55,1.55,0,0,1-1.08,2.67,1.52,1.52,0,0,1-1.06-.43l-8-7.76a.78.78,0,0,1-.25-.4c-11,6.57-22.57,13.33-25.58,14.51,8.62-.74,89.18.16,89.18.16l-6.93-22.76a1.74,1.74,0,0,0-2.31-1.09c-19.91,7.72-28.67,0-31.24-3.11a1.71,1.71,0,0,0-2.22-.37l-3.53,2.15,7.66,7.41a1.52,1.52,0,0,1,0,2.17,1.63,1.63,0,0,1-1.12.5,1.56,1.56,0,0,1-1.08-.47l-8-7.75a.45.45,0,0,1-.16-.22l-4.4,2.67,8,7.75a1.57,1.57,0,0,1-1.09,2.67,1.44,1.44,0,0,1-1.05-.47Z"/><path class="cls-14" d="M277.69,524.54a1.52,1.52,0,0,0,1.06.43,1.55,1.55,0,0,0,1.08-2.67l-7.75-7.5-2.67,1.58a.78.78,0,0,0,.25.4Z"/><path class="cls-14" d="M279.71,510.18l-2.55,1.55a1.39,1.39,0,0,0,.38.65l8,7.75a1.44,1.44,0,0,0,1.05.47,1.57,1.57,0,0,0,1.09-2.67Z"/><path class="cls-14" d="M292.27,515.48a1.56,1.56,0,0,0,1.08.47,1.63,1.63,0,0,0,1.12-.5,1.52,1.52,0,0,0,0-2.17l-7.66-7.41-2.67,1.64a.45.45,0,0,0,.16.22Z"/><path class="cls-12" d="M244.44,250.78h50.34s75.92-12.25,90.69-21.32c5.5-3.38,14.92-13.72,24.64-25.39l-34.29-28.56c-6,9.52-11.47,17.27-13.65,18.12-6,2.25-62.55,33.81-69.1,33.81S255.26,226.9,244.44,250.78Z"/><path class="cls-18" d="M373.49,174.79l36.62,29.28c16.58-19.89,33.95-43.71,33.95-43.71L392.14,129S378.81,160.72,373.49,174.79Z"/><path class="cls-15" d="M404.82,102.9l37.54-14.78s44.76,5.2,47.85,113c.59,20.82.39,135.89-6,138.84-25.29,11.78-90.42-65.4-90.42-65.4-1.29-2.39.55-27.27,0-29.73a26.57,26.57,0,0,0,3.89-1.77c6.66-3.93,19.08-20.41,31.29-38.22l-38.62-30.1c-1.54,2.43-3.07,4.78-4.54,7.07C384.83,124.32,404.82,102.9,404.82,102.9Z"/><path class="cls-19" d="M393.83,244.88a26.57,26.57,0,0,0,3.89-1.77c6.66-3.93,19.08-20.41,31.29-38.22l-18.95-14.77L429,162l34.17-22.34v15.39s-14.63,39.8-32,71c-9.45,16.95-25.1,25.26-37.43,29.33C393.9,250.25,394.05,245.84,393.83,244.88Z"/><path class="cls-20" d="M283.69,238.85s79.33-32.42,84.73-33.59c1.7-.37,7.54-8.43,14.72-19.3,1.51-2.34,5.73-8.77,7.25-11.17L429,204.89c-12.21,17.81-24.63,34.29-31.29,38.22a26.57,26.57,0,0,1-3.89,1.77,1.89,1.89,0,0,0-.05-.23c0,.07,0,.14.05.22-23.06,8.64-106.07,12.62-107.68,13.16-3,2.31-10,2.46-16.3.72a23.51,23.51,0,0,1-7.83-3.61c-5.55-4.16-13.83,1.71-17.58,4.53-2.43,1.84-8.09,1.78-10-.09C238.74,235.69,283.69,238.85,283.69,238.85Z"/><polygon class="cls-21" points="396.26 85.55 397.38 87.82 399.79 92.71 400.23 93.6 404.82 102.89 442.36 88.12 426.64 63.18 401.75 81.51 396.26 85.55"/><path class="cls-22" d="M463.18,155.06l-39.13,60.12-44.74-25.69s12.18-46.85,24-72.63c7.35-16,28.49-24,48.95-11.22C470.28,116.86,469.74,143.07,463.18,155.06Z"/><path d="M389.39,46.87c1.43-6.52,7.4-12.53,12.78-3.8a17.08,17.08,0,0,1,2.05,7.28c1,9.09,11.54,13.09,19.45,13.69a15.19,15.19,0,0,0,3.81-.13s-2-15-6.44-33-14.49-36.41-29-29c0,0-13.37-6.23-21.5,4.11,0,0-13.8-4.94-20.94,6.15,0,0-19.38,3.66-23,15.7-4.6,15.29,16.82,19,24,14.68S363.11,30,368,30.11s3.81,7.71,4.55,12.39,8-.13,11.07,6.15,4.62,9.8,6.46,8.69S389.39,46.87,389.39,46.87Z"/><path class="cls-12" d="M392,48.46c-.55-2.35.91-5.68,3-5.82,2.62-.18,3.83,3,4,5.84.17,2.59-.6,7.07-3.46,6.09-2.19-.74.25-3.38-.54-4.81S392,51,392,48.46Z"/><path class="cls-12" d="M397.38,87.82l2.41,4.89a17.82,17.82,0,0,0,7.58-14.18S405.09,83.4,397.38,87.82Z"/><path class="cls-3" d="M539.23,174.9c0,.31,0,.42,0,.53,0,.36-.05.45-.07.65-.09.68-.27,1.88-.54,3.71-2,13.61-9.32,60.27-16.11,103.57s-13.06,83.19-13.06,83.19l-13.49-2.12s.47-2.95,1.28-8.12c2.84-18.08,9.95-63.33,16.35-104.23,3.2-20.46,6.22-39.82,8.44-54.17,1.11-7.17,2-13.09,2.65-17.25.32-2.07.57-3.72.73-4.84l.18-1.28,0-.27h0l4,.44-4-.34v-.1l4,.44-4-.34,6.31.53h-6.33a3.86,3.86,0,0,1,0-.53l6.31.53h7.32Z"/><path class="cls-17" d="M402.11,385h16.53a0,0,0,0,1,0,0V544.85a1.63,1.63,0,0,1-1.63,1.63H403.73a1.63,1.63,0,0,1-1.63-1.63V385a0,0,0,0,1,0,0Z"/><path class="cls-17" d="M402.11,506.82h16.53a0,0,0,0,1,0,0v38a1.63,1.63,0,0,1-1.63,1.63H403.73a1.63,1.63,0,0,1-1.63-1.63v-38A0,0,0,0,1,402.11,506.82Z"/><path class="cls-3" d="M364.92,387.24h90.9a0,0,0,0,1,0,0v7.45a6.34,6.34,0,0,1-6.34,6.34H371.26a6.34,6.34,0,0,1-6.34-6.34v-7.45A0,0,0,0,1,364.92,387.24Z"/><rect class="cls-23" x="309.66" y="355.47" width="201.42" height="32.2" rx="7.4"/><path class="cls-17" d="M496.14,536.8a9.67,9.67,0,1,1-9.67-9.67A9.67,9.67,0,0,1,496.14,536.8Z"/><circle class="cls-17" cx="334.27" cy="536.8" r="9.67"/><rect class="cls-3" x="393.74" y="494.5" width="33.25" height="29.06"/><path class="cls-16" d="M330.35,516.72h160a5.75,5.75,0,0,1,5.75,5.75v7.92a0,0,0,0,1,0,0H324.6a0,0,0,0,1,0,0v-7.92A5.75,5.75,0,0,1,330.35,516.72Z"/><path class="cls-23" d="M543.29,186.15l-7.28,54a14.06,14.06,0,0,1-27.87-3.76l7.28-54a14.06,14.06,0,0,1,27.87,3.76"/><rect class="cls-24" x="48.6" y="280.04" width="14.79" height="264.59" transform="translate(111.99 824.68) rotate(-180)"/><rect class="cls-24" x="271.36" y="280.04" width="14.79" height="264.59" transform="translate(557.51 824.68) rotate(-180)"/><rect class="cls-14" x="33.78" y="263.55" width="263.45" height="18.48" transform="translate(331.02 545.58) rotate(-180)"/></g></g></g></svg>