<svg xmlns="http://www.w3.org/2000/svg" xmlns:xlink="http://www.w3.org/1999/xlink" viewBox="0 0 56 34.98"><defs><style>.cls-1{fill:none;}.cls-2{clip-path:url(#clip-path);}.cls-3{fill:#006e2e;}.cls-4{fill:#f6f9f8;}.cls-5{fill:#f3f8f6;}</style><clipPath id="clip-path"><rect class="cls-1" width="56" height="34.98" rx="6.31"/></clipPath></defs><g id="Layer_2" data-name="Layer 2"><g id="Layer_1-2" data-name="Layer 1"><g class="cls-2"><g id="_1I0WDh" data-name="1I0WDh"><path class="cls-3" d="M-5,40.69Q-5,19.11-5-2.47c0-.35.08-.43.43-.43H60c.36,0,.44.08.44.43q0,21.36,0,42.73c0,.36-.08.44-.44.44Zm17.23-29a.07.07,0,0,0,0-.06L12,11.05h0a1,1,0,0,0-.09-.47h0a.4.4,0,0,0-.08-.33l0,0,0,0c0-.08,0-.17-.09-.22l-.08-.07,0,.07a4.16,4.16,0,0,0,.14,2.24.68.68,0,0,0,.63.47.41.41,0,0,0,.46-.37l0,0v0a1,1,0,0,0,.08-.6v-.42c.12-.19,0-.51.36-.58a18.2,18.2,0,0,0,.1,1.83h0a.69.69,0,0,0,.72.47c.29,0,.4.17.41.45a4.93,4.93,0,0,0,.08,1.21v.24l0,.76c0,.06,0,.09.07.08.35,0,.42-.29.47-.54a4.84,4.84,0,0,0,0-2.11l0-.14a1.37,1.37,0,0,1,.1-.63.08.08,0,0,0,.07,0,.71.71,0,0,1,.44.15,1.08,1.08,0,0,0,1.41-.09.91.91,0,0,0,.24-1.14l0,0h0a2.4,2.4,0,0,0-.13-.59c0-.13-.27-.32,0-.41s.25.19.28.34c.15.83.28,1.66.43,2.49,0,.21.08.42-.14.54s-.34-.11-.44-.24a1,1,0,0,0-1.69.43,3.74,3.74,0,0,0-.06.75c0,.35.22.5.53.53a1.07,1.07,0,0,0,.72-.15c.09-.06.2-.22.32-.09s0,.25-.06.34a2.44,2.44,0,0,1-1.73,1.24c-.72.18-1.1-.12-1.17-.85,0-.32.08-.86-.27-.88s-.31.56-.36.88a1.54,1.54,0,0,0,1.63,1.86,2.45,2.45,0,0,0,2.2-1.5,3.69,3.69,0,0,0,.33-1.07c0-.1.08-.23.21-.21s.09.14.09.24a3,3,0,0,1-2.6,3c-1.19.15-1.77-.26-1.95-1.32,0-.25.11-.71-.24-.71s-.29.47-.33.74c-.17,1.33.42,2.16,1.66,2.21a4.24,4.24,0,0,0,3.56-1.56,2.26,2.26,0,0,0,.5-1.34c0-.46,0-.92,0-1.42a.93.93,0,0,0,1.12,0,.56.56,0,0,1,.64-.07.68.68,0,0,0,1-.59,3.51,3.51,0,0,0,.09-.65c0-.11.15-.31-.09-.33a.33.33,0,0,0-.4.24,1.55,1.55,0,0,1-.06.23c-.06.19-.16.22-.29.06-.41-.47-.41-.47-.8.08-.14.2-.41.36-.53.15s-.18-.65-.65-.48a1.34,1.34,0,0,1-.09-.26c-.1-.68-.2-1.36-.29-2,0-.21-.15-.48.27-.46.18,0,.14-.17.09-.29-.16-.39-.31-.78-.48-1.16s-.28-.39-.56-.27a.48.48,0,0,0-.33.6,1.44,1.44,0,0,1,0,.67c-.27-.42-.53-.73-1-.62,0-.15.16-.27.12-.43s.05-.27-.11-.32-.18.07-.22.17-.11.11-.15,0-.14-.26-.27,0-.12.05-.19,0-.27-.14-.29.1a.51.51,0,0,0,.45.6c.24.06.45-.08.68-.08l-.1.2,0,.07a1.61,1.61,0,0,0,.39,1.33c.17.29.38.58.1.92h-.14c-.44-.27-.9-.49-.73-1.2a1.27,1.27,0,0,0-.37-1.06c-.25-.28-.37-.24-.52.15v0a2,2,0,0,0,.12,1.28c0,.1.1.19.14.29s.14.34-.09.29-.22-.37-.27-.59a9.9,9.9,0,0,0-.26-1.88v0h0c0-.24-.15-.44-.41-.41S14,8.75,14,9a16.8,16.8,0,0,0,.32,2.11c0,.25.19.65-.13.68s-.27-.4-.3-.66l0-.13c.06-.47.17-.95-.22-1.35,0,0-.08,0-.12,0-.48.05-.59.42-.7.79h0a2.09,2.09,0,0,0-.19.82l0,0,0,0-.22.48h-.15A.06.06,0,0,0,12.26,11.67ZM38.43,14.1c0,.58.39,1.07.31,1.67,0,.19.18.06.25,0a1.38,1.38,0,0,0,.08-1.25c-.08-.36-.29-.5-.65-.38,0-.28.26-.28.4-.4a.61.61,0,0,0,.27-.55c0-.17-.07-.25-.23-.15l-1.55,1a.35.35,0,0,0-.09.47c.11.2.26,0,.39,0C37.9,14.38,38.07,14,38.43,14.1ZM27.34,8.8a.67.67,0,0,0,.1.74,3,3,0,0,1,.43.88c.05.23.11.47-.11.65a.52.52,0,0,1-.69,0h0l-.27-.92V10a3.62,3.62,0,0,0-.09-1.27v0h0a.25.25,0,0,0-.08-.24v0h0c-.05-.15-.08-.35-.25-.35s-.2.18-.27.3a.8.8,0,0,0,0,.91h0l.17.82v.22l0,.13c-.09.49-.42.85-.75.83s-.63-.36-.62-.94c0-.28,0-.56,0-.84s0-.55-.29-.63-.44.17-.6.36a2.27,2.27,0,0,0-.42.72c-.1.27-.18.53-.27.8s-.08.31-.23.33-.26-.17-.31-.31-.14-.57-.22-.86h0a.65.65,0,0,0-.09-.45h0c0-.13,0-.29-.16-.29s-.12.16-.14.26a2.37,2.37,0,0,0,0,1.37h0a.26.26,0,0,0,.07.24v0l0,0a1,1,0,0,0,.24.5c.43.56.92.5,1.2-.15a1.25,1.25,0,0,0,.15-.54h0v0c.14-.14,0-.45.33-.49.1.35,0,.72.13,1.05l0,0,0,0a.21.21,0,0,0,.07.22v0l0,0a.72.72,0,0,0,.67.48h.35a.68.68,0,0,0,.46-.19c.23-.17.39-.48.68-.53s.37.41.64.52h.05v0h0a.76.76,0,0,0,.73,0h0l0,0c.31,0,.36-.31.5-.5s.16-.29.35-.25,0,.19.05.29.11.22.27.11h0l0,0a1.16,1.16,0,0,0,.57-.84c0-.17-.11-.19-.24-.09l-.36.19v0c-.41.05-.59-.18-.67-.54a3.57,3.57,0,0,0-.1-.35v0h0c0-.22-.38-.59.2-.64h0v0c.21-.24.3,0,.39.11.59.75,1.17,1.51,1.75,2.26a.85.85,0,0,1,.17.43,27.69,27.69,0,0,1,.23,5.15c0,.11-.07.24.06.37a1.24,1.24,0,0,0,.72-1.19c0-1,0-2-.05-3a31.38,31.38,0,0,1,1.88,3,1.93,1.93,0,0,0-.1-1.68,22.47,22.47,0,0,0-1.54-2.46A2.11,2.11,0,0,1,31.65,11c0-.25-.21-.61-.06-.72.38-.27.11-.49,0-.68a3.53,3.53,0,0,0-.54-.82c-.14-.16-.2-.51-.47-.42s-.26.4-.27.66c0,0,0,0,0,.07l-.73-.57c-.2-.17-.42-.39-.7-.29s-.12.45-.19.67h-.1c-.09-.12-.18-.25-.28-.37a.51.51,0,0,0-.58-.19.43.43,0,0,0-.35.48l0,0Zm14,9.71c-.29.35,0,.4.23.38,1.45-.13,2.47-.56,2.51-2.44a25.54,25.54,0,0,0-.44-6.11c0-.18-.17-.45.22-.48.17,0,.13-.15.07-.24l-1-1.37a1.48,1.48,0,0,0-.3,1.17c.18,1.38.37,2.75.54,4.13A12.91,12.91,0,0,1,43.29,16a4.38,4.38,0,0,0-.95-1.63c-.16-.25-.46-.43-.46-.74,0-1.28-.75-2.49-.36-3.8.07-.15.11-.14.22,0a1.89,1.89,0,0,1,.39,1.31,1.42,1.42,0,0,0,.07-1.64.31.31,0,0,0-.34-.2.27.27,0,0,0-.23.26c0,.06,0,.17-.11.13A3.8,3.8,0,0,0,41,8.55c-.19-.37-.41-.36-.65,0a.91.91,0,0,0-.06.72c.05.37.16.74.21,1.11a5.78,5.78,0,0,1,.21,1.89,4.4,4.4,0,0,0-.45-.61c-.48-.43-.33-1-.44-1.54,0-.06,0-.13.08-.12.49,0,.23-.23.15-.39a4.23,4.23,0,0,0-.41-.68c-.17-.22-.19-.69-.52-.61s-.26.54-.27.86l-.06.07a6.71,6.71,0,0,0-1-.87c-.1-.07-.24-.18-.26.05a1.75,1.75,0,0,0,.29,1.51c.44.46.83,1,1.25,1.45a.85.85,0,0,1,.23.55c.06,1,.12,2,.19,3a3.19,3.19,0,0,1-.15,1.3c-.17.51-.45.57-.8.19a4.12,4.12,0,0,1-.32-.41c-.33-.43-.57-.44-.93,0a6.57,6.57,0,0,0-.73,1.36c-.1.2-.16.46-.47.45s-.41-.25-.53-.47a3.06,3.06,0,0,1-.21-1.41,1.88,1.88,0,0,0,.33,2.52c.64.5,1.13.35,1.37-.43.08-.27.12-.55.22-.81s.37-.42.67-.16l.25.22c.39.27.78.53,1.29.27a1.36,1.36,0,0,0,.79-1.23c0-.71,0-1.41,0-2.11,0-.4,0-.79,0-1.22a2.31,2.31,0,0,1,.83,1.84c0,.76.09,1.51,0,2.33.6-.48.6-.48.86-1.87.31.48.6.92.87,1.37.11.17.2.32.39,0A2,2,0,0,1,42.25,18a2.86,2.86,0,0,0-.86.46c-.07-.11.14-.35-.14-.36s-.36-.08-.2-.35c.06-.1,0-.21-.13-.23s-.41-.09-.57.06,0,.23.1.3c.3.19.1.32-.06.46s-.26.17-.16.33.25.05.39,0S41,18.37,41.31,18.51ZM27.55,14.73a3.84,3.84,0,0,0,1.86-.62,1.2,1.2,0,0,0,.32-1.44,1.11,1.11,0,0,0-1.16-.53,1,1,0,0,0-.76,1.13c0,.39-.13.51-.49.56a3.74,3.74,0,0,0-1.87.81c-.11.1-.13.36-.3.3s-.13-.32-.15-.5a5.15,5.15,0,0,0-.72-2.11c-.08-.12-.19-.31-.35-.26a.49.49,0,0,0-.34.42.87.87,0,0,0,.06.5c.15.34.31.68.43,1a2.41,2.41,0,0,1,.1,2,4,4,0,0,1-1.62,1.53,1.06,1.06,0,0,1-.85.12.42.42,0,0,1-.3-.34c0-.16.11-.2.22-.27s.52-.34.76-.54a2.2,2.2,0,0,0,.73-3c.38.09.38-.07.25-.32a1.78,1.78,0,0,0-.47-.64.51.51,0,0,0-.85.34.89.89,0,0,0,.34.91c.32.29.6.67.34,1.11a4.48,4.48,0,0,1-1.39,1.24c-.14-.28.05-.49-.07-.71a1.21,1.21,0,0,0-.43.74,1,1,0,0,1-.56.69,19.16,19.16,0,0,0-2.06,1.21,1.16,1.16,0,0,0-.45.43.34.34,0,0,0,.3,0,13.76,13.76,0,0,0,2.17-.71c.22-.08.36-.13.46.16a1.17,1.17,0,0,0,.74.61,1.93,1.93,0,0,0,1.76-.36,6.23,6.23,0,0,0,1.3-1.21c.13-.15.27-.36.46-.06a3.27,3.27,0,0,0,2.39,1.32c.26,0,.66.25.81-.18s-.3-.46-.53-.61-.52-.21-.45-.52a.62.62,0,0,1,.63-.46l1.81-.27c.5-.08,1-.17,1-.82a.54.54,0,0,1,.15-.29c.19-.25.08-.31-.18-.31H28.1A.79.79,0,0,1,27.55,14.73Zm8,13.11c-6.7,0-13.36,0-20.1-.16a2.45,2.45,0,0,0,1.19.8,6.4,6.4,0,0,0,2.09.23l12,0h4.78a1.45,1.45,0,0,0,.09.79.35.35,0,0,0,.42.22,5,5,0,0,1,3,.06.57.57,0,0,0,.32,0c.47-.08.64-.35.58-.9s-.39-1-1-1a18.09,18.09,0,0,1-2.44,0c-.19,0-.38,0-.3-.29s-.3-.26-.4-.45-.2,0-.27.1a.35.35,0,0,0-.06.47A.89.89,0,0,1,35.59,27.84ZM33.85,8.39a1.66,1.66,0,0,0-.4,1.44c.1.85.2,1.7.32,2.55.18,1.25.11,2.53.33,3.78a.77.77,0,0,1-.24.66A9,9,0,0,1,32,18.13c-.14.07-.45,0-.38.3a.58.58,0,0,0,.51.37,1.08,1.08,0,0,0,.5-.05A3.28,3.28,0,0,0,34.75,16a23.38,23.38,0,0,0-.45-5.21c0-.26-.24-.59.2-.75.12,0,.09-.19,0-.3A4.69,4.69,0,0,0,33.85,8.39Zm1.31-.13a2.9,2.9,0,0,0-.26,2,29.62,29.62,0,0,1,.93,6.89s0,0,.09.1a1.9,1.9,0,0,0,.59-1.64c-.12-1.66-.38-3.29-.66-4.92-.06-.34-.14-.63.42-.61ZM19.12,11c.44,0,.86.24,1.21-.09s.84-.79,1.26-1.2c.07-.06.21-.15.07-.26s-.11-.22,0-.36a.4.4,0,0,0-.08-.65.6.6,0,0,0-.78.08c-.18.2-.26.49,0,.66s.19.41-.05.58ZM38,12.91c.28-.39-.17-1,.53-1.23,0,0,0,0,0,0a.84.84,0,0,0-.19-.57.38.38,0,0,0-.64.34c0,.09.05.19-.07.24s-.15,0-.19-.1a.3.3,0,0,0-.51-.06.4.4,0,0,0,0,.55A2.29,2.29,0,0,0,38,12.91ZM11.75,15c.82-.36,1.58-.69,2.33-1,.12,0,.38,0,.31-.3s-.26-.26-.45-.27A2.78,2.78,0,0,0,11.75,15Zm.18,1.08a2.74,2.74,0,0,0-.53,2,.62.62,0,0,0,.7.57.86.86,0,0,0,.41-.92c-.07-.17-.16-.22-.3-.05-.28.33-.31,0-.34-.16A9.06,9.06,0,0,1,11.93,16.05ZM29.67,17.2c0-.1-.11-.15-.2-.13a.9.9,0,0,0-.62.45c-.07.14,0,.19.18.17s.27,0,.26.17c0,.57.29.37.56.28l.66-.22c.11,0,.27,0,.23-.22s-.19-.12-.3-.12a.68.68,0,0,0-.32.05C29.69,17.85,29.5,17.79,29.67,17.2Zm-2.53-4.34c-.07-.11,0-.45-.27-.32-.14.07-.19.37-.33,0,0,0-.1,0-.11,0-.1.22-.17.2-.31,0s-.19,0-.24.09a.46.46,0,0,0,.12.52.83.83,0,0,0,.88.1A.35.35,0,0,0,27.14,12.86Zm6.12-1.77c0-.11,0-.35-.12-.28s-.36.24-.56,0c-.12.28-.19.11-.33,0s-.2,0-.22.18c-.05.37.16.6.58.62A.55.55,0,0,0,33.26,11.09Zm-.74-1a1.07,1.07,0,0,0,.1-1.53.36.36,0,0,0-.5-.08c-.18.14-.09.33,0,.45A1.18,1.18,0,0,1,32.52,10.13Zm-11,1.32c-.52.18-.52.18-.52-.35,0-.08,0-.17-.07-.19a.35.35,0,0,0-.21.07.61.61,0,0,0-.25.69A.42.42,0,0,0,21,12,.57.57,0,0,0,21.56,11.45ZM12.7,9.76c.4-.55.43-1,.17-1.33a.36.36,0,0,0-.5-.1c-.15.1-.08.29,0,.4A1.29,1.29,0,0,1,12.7,9.76ZM25.58,8.4c0-.06,0-.24-.13-.28s-.27.13-.31.27a6.53,6.53,0,0,0-.14.77c0,.1,0,.23.11.26a.23.23,0,0,0,.26-.15A2.06,2.06,0,0,0,25.58,8.4Zm-5.37,7.86c.42-.52.42-1,.11-1.29a.33.33,0,0,0-.46-.08c-.1.06-.07.22,0,.28C20.23,15.42,20.23,15.78,20.21,16.26ZM23.37,8a.91.91,0,0,0-.64,1,.29.29,0,0,0,.26.23A.44.44,0,0,0,23.37,9c0-.06,0-.13,0-.15-.42-.09-.18-.29-.07-.46S23.49,8.19,23.37,8Z"/><path class="cls-4" d="M12.87,12.31a.41.41,0,0,1-.46.37.68.68,0,0,1-.63-.47A4.16,4.16,0,0,1,11.64,10h.12c.09,0,.09.14.09.22v0a.4.4,0,0,1,.08.33h0A1,1,0,0,1,12,11v0l.19.56,0,.06a.06.06,0,0,1,.06.05h.15l.22-.48v0a2.09,2.09,0,0,1,.19-.82h0c.11-.37.22-.74.7-.79h.12c.39.4.28.88.22,1.35l0,.13c0,.26-.07.69.3.66s.14-.43.13-.68A16.8,16.8,0,0,1,14,9c0-.2,0-.45.24-.49s.37.17.41.41v0a9.9,9.9,0,0,1,.26,1.88c.05.22,0,.53.27.59s.14-.16.09-.29-.11-.19-.14-.29A2,2,0,0,1,15,9.53h0c.15-.39.27-.43.52-.15a1.27,1.27,0,0,1,.37,1.06c-.17.71.29.93.73,1.2h.14c.28-.34.07-.63-.1-.92a1.61,1.61,0,0,1-.39-1.33.1.1,0,0,0,0-.07l.1-.2h0c.49-.11.75.2,1,.62a1.44,1.44,0,0,0,0-.67.48.48,0,0,1,.33-.6c.28-.12.45,0,.56.27s.32.77.48,1.16c.05.12.09.3-.09.29-.42,0-.3.25-.27.46.09.68.19,1.36.29,2a1.34,1.34,0,0,0,.09.26c.47-.17.49.19.65.48s.39.05.53-.15c.39-.55.39-.55.8-.08.13.16.23.13.29-.06a1.55,1.55,0,0,0,.06-.23.33.33,0,0,1,.4-.24c.24,0,.09.22.09.33a3.51,3.51,0,0,1-.09.65.68.68,0,0,1-1,.59.56.56,0,0,0-.64.07.93.93,0,0,1-1.12,0c0,.5,0,1,0,1.42a2.26,2.26,0,0,1-.5,1.34,4.24,4.24,0,0,1-3.56,1.56c-1.24-.05-1.83-.88-1.66-2.21,0-.27,0-.74.33-.74s.2.46.24.71c.18,1.06.76,1.47,1.95,1.32a3,3,0,0,0,2.6-3c0-.1,0-.22-.09-.24s-.18.11-.21.21a3.69,3.69,0,0,1-.33,1.07,2.45,2.45,0,0,1-2.2,1.5,1.54,1.54,0,0,1-1.63-1.86c0-.32,0-.89.36-.88s.24.56.27.88c.07.73.45,1,1.17.85a2.44,2.44,0,0,0,1.73-1.24c.05-.09.16-.24.06-.34s-.23,0-.32.09a1.07,1.07,0,0,1-.72.15c-.31,0-.53-.18-.53-.53a3.74,3.74,0,0,1,.06-.75,1,1,0,0,1,1.69-.43c.1.13.2.37.44.24s.18-.33.14-.54c-.15-.83-.28-1.66-.43-2.49,0-.15,0-.45-.28-.34s-.05.28,0,.41a2.4,2.4,0,0,1,.13.59v0a.91.91,0,0,1-.24,1.14,1.08,1.08,0,0,1-1.41.09.71.71,0,0,0-.44-.15l-.07,0a1.37,1.37,0,0,0-.1.63l0,.14a4.84,4.84,0,0,1,0,2.11c-.05.25-.12.53-.47.54l-.07-.08,0-.76v-.24a4.93,4.93,0,0,1-.08-1.21c0-.28-.12-.43-.41-.45a.69.69,0,0,1-.72-.47h0a18.2,18.2,0,0,1-.1-1.83c-.35.07-.24.39-.36.58v.42a1,1,0,0,1-.08.6S12.88,12.29,12.87,12.31ZM16.92,14a.22.22,0,0,0-.24-.22.28.28,0,0,0-.28.27c0,.16.16.16.28.17A.2.2,0,0,0,16.92,14Z"/><path class="cls-4" d="M41.52,9.87c-.39,1.31.34,2.52.36,3.8,0,.31.3.49.46.74A4.38,4.38,0,0,1,43.29,16a12.91,12.91,0,0,0-.12-2.49c-.17-1.38-.36-2.75-.54-4.13a1.48,1.48,0,0,1,.3-1.17l1,1.37c.06.09.1.23-.07.24-.39,0-.26.3-.22.48a25.54,25.54,0,0,1,.44,6.11c0,1.88-1.06,2.31-2.51,2.44-.26,0-.52,0-.23-.38l.08-.08a2.86,2.86,0,0,1,.86-.46,2,2,0,0,0,1.07-1.32c-.19.31-.28.16-.39,0-.27-.45-.56-.89-.87-1.37-.26,1.39-.26,1.39-.86,1.87,0-.82-.05-1.57,0-2.33A2.31,2.31,0,0,0,40.33,13c0,.43,0,.82,0,1.22,0,.7,0,1.4,0,2.11a1.36,1.36,0,0,1-.79,1.23c-.51.26-.9,0-1.29-.27L38,17c-.3-.26-.53-.21-.67.16s-.14.54-.22.81c-.24.78-.73.93-1.37.43a1.88,1.88,0,0,1-.33-2.52,3.06,3.06,0,0,0,.21,1.41c.12.22.22.46.53.47s.37-.25.47-.45A6.57,6.57,0,0,1,37.35,16c.36-.43.6-.42.93,0a4.12,4.12,0,0,0,.32.41c.35.38.63.32.8-.19a3.19,3.19,0,0,0,.15-1.3c-.07-1-.13-2-.19-3a.85.85,0,0,0-.23-.55c-.42-.48-.81-1-1.25-1.45a1.75,1.75,0,0,1-.29-1.51c0-.23.16-.12.26-.05a6.71,6.71,0,0,1,1,.87l.06-.07c0-.32-.13-.76.27-.86s.35.39.52.61a4.23,4.23,0,0,1,.41.68c.08.16.34.43-.15.39-.08,0-.09.06-.08.12.11.52,0,1.11.44,1.54a4.4,4.4,0,0,1,.45.61,5.78,5.78,0,0,0-.21-1.89c0-.37-.16-.74-.21-1.11a.91.91,0,0,1,.06-.72c.24-.35.46-.36.65,0a3.8,3.8,0,0,1,.48,1.16Z"/><path class="cls-4" d="M27.55,14.73a.79.79,0,0,0,.55.12h2.53c.26,0,.37.06.18.31a.54.54,0,0,0-.15.29c-.06.65-.54.74-1,.82l-1.81.27a.62.62,0,0,0-.63.46c-.07.31.25.38.45.52s.7.14.53.61-.55.22-.81.18A3.27,3.27,0,0,1,25,17c-.19-.3-.33-.09-.46.06a6.23,6.23,0,0,1-1.3,1.21,1.93,1.93,0,0,1-1.76.36A1.17,1.17,0,0,1,20.7,18c-.1-.29-.24-.24-.46-.16a13.76,13.76,0,0,1-2.17.71.34.34,0,0,1-.3,0,1.16,1.16,0,0,1,.45-.43,19.16,19.16,0,0,1,2.06-1.21,1,1,0,0,0,.56-.69,1.21,1.21,0,0,1,.43-.74c.12.22-.07.43.07.71a4.48,4.48,0,0,0,1.39-1.24c.26-.44,0-.82-.34-1.11a.89.89,0,0,1-.34-.91.51.51,0,0,1,.85-.34,1.78,1.78,0,0,1,.47.64c.13.25.13.41-.25.32a2.2,2.2,0,0,1-.73,3c-.24.2-.51.37-.76.54s-.24.11-.22.27a.42.42,0,0,0,.3.34,1.06,1.06,0,0,0,.85-.12,4,4,0,0,0,1.62-1.53,2.41,2.41,0,0,0-.1-2c-.12-.36-.28-.7-.43-1a.87.87,0,0,1-.06-.5.49.49,0,0,1,.34-.42c.16-.05.27.14.35.26A5.15,5.15,0,0,1,25,14.44c0,.18-.06.43.15.5s.19-.2.3-.3a3.74,3.74,0,0,1,1.87-.81c.36-.05.51-.17.49-.56a1,1,0,0,1,.76-1.13,1.11,1.11,0,0,1,1.16.53,1.2,1.2,0,0,1-.32,1.44A3.84,3.84,0,0,1,27.55,14.73Zm-2,.8c-.16,0-.31.16-.24.45a1.65,1.65,0,0,0,.95,1.09c.22.12.29,0,.26-.21a.63.63,0,0,1,.55-.78c.13,0,.28-.06.25-.22s-.17-.16-.29-.18Zm3.4-2.21a.41.41,0,0,0-.36-.23c-.09,0-.2,0-.16.15a.36.36,0,0,0,.37.22C28.86,13.46,28.94,13.44,28.93,13.32Z"/><path class="cls-4" d="M25.26,12.23H25a.72.72,0,0,1-.67-.48s0,0,0-.06a.21.21,0,0,1-.07-.22v0c-.17-.33,0-.7-.13-1.05-.31,0-.19.35-.33.49v0a1.25,1.25,0,0,1-.15.54c-.28.65-.77.71-1.2.15a1,1,0,0,1-.24-.5l0-.05a.26.26,0,0,1-.07-.24h0a2.37,2.37,0,0,1,0-1.37c0-.1,0-.26.14-.26s.17.16.16.29h0a.65.65,0,0,1,.09.45h0c.08.29.13.58.22.86s.13.33.31.31.18-.2.23-.33.17-.53.27-.8a2.27,2.27,0,0,1,.42-.72c.16-.19.31-.45.6-.36s.27.39.29.63,0,.56,0,.84c0,.58.21.9.62.94s.66-.34.75-.83l0-.13V10.1L26,9.28h0a.8.8,0,0,1,0-.91c.07-.12.14-.31.27-.3s.2.2.25.35v0a.25.25,0,0,1,.08.24v0A3.62,3.62,0,0,1,26.78,10v.15l.27.92v0a.52.52,0,0,0,.69,0c.22-.18.16-.42.11-.65a3,3,0,0,0-.43-.88.67.67,0,0,1-.1-.74v0a.43.43,0,0,1,.35-.48.51.51,0,0,1,.58.19c.1.12.19.25.28.37s.06.14.08.13,0-.08,0-.13c.07-.22-.11-.55.19-.67s.5.12.7.29l.73.57s0,0,0-.07c0-.26,0-.57.27-.66s.33.26.47.42a3.53,3.53,0,0,1,.54.82c.09.19.36.41,0,.68-.15.11.07.47.06.72a2.11,2.11,0,0,0,.48,1.33,22.47,22.47,0,0,1,1.54,2.46,1.93,1.93,0,0,1,.1,1.68,31.38,31.38,0,0,0-1.88-3c0,1,.09,2,.05,3a1.24,1.24,0,0,1-.72,1.19c-.13-.13-.06-.26-.06-.37a27.69,27.69,0,0,0-.23-5.15.85.85,0,0,0-.17-.43c-.58-.75-1.16-1.51-1.75-2.26-.09-.11-.18-.35-.39-.11a.1.1,0,0,0-.05,0c-.58.05-.16.42-.2.64v0a3.57,3.57,0,0,1,.1.35c.08.36.26.59.67.54h0l.36-.19.24.09a1.16,1.16,0,0,1-.57.84l-.05,0c-.16.11-.22,0-.27-.11s.19-.24-.05-.29-.27.12-.35.25-.19.47-.5.5h0a.76.76,0,0,1-.73,0h-.07c-.27-.11-.27-.59-.64-.52s-.45.36-.68.53a.68.68,0,0,1-.46.19Z"/><path class="cls-4" d="M35.59,27.84a.89.89,0,0,0-.06-.15.35.35,0,0,1,.06-.47c.07-.07.22-.2.27-.1s.47.15.4.45.11.28.3.29a18.09,18.09,0,0,0,2.44,0c.56-.05.89.32,1,1s-.11.82-.58.9a.57.57,0,0,1-.32,0,5,5,0,0,0-3-.06.35.35,0,0,1-.42-.22,1.45,1.45,0,0,1-.09-.79H30.79l-12,0a6.4,6.4,0,0,1-2.09-.23,2.45,2.45,0,0,1-1.19-.8C22.23,27.85,28.89,27.81,35.59,27.84Zm1.83.95v0h-1c-.12,0-.22,0-.22.17a.17.17,0,0,0,.2.2c.32,0,.65.1,1-.07a.46.46,0,0,1,.49,0c.2.14.42.07.63.09s.24,0,.25-.15-.12-.2-.25-.2Z"/><path class="cls-5" d="M33.85,8.39a4.69,4.69,0,0,1,.7,1.35c0,.11.07.26,0,.3-.44.16-.25.49-.2.75A23.38,23.38,0,0,1,34.75,16a3.28,3.28,0,0,1-2.08,2.75,1.08,1.08,0,0,1-.5.05.58.58,0,0,1-.51-.37c-.07-.27.24-.23.38-.3a9,9,0,0,0,1.82-1.31.77.77,0,0,0,.24-.66c-.22-1.25-.15-2.53-.33-3.78-.12-.85-.22-1.7-.32-2.55A1.66,1.66,0,0,1,33.85,8.39Z"/><path class="cls-5" d="M35.16,8.26l1.11,1.8c-.56,0-.48.27-.42.61.28,1.63.54,3.26.66,4.92a1.9,1.9,0,0,1-.59,1.64c-.05-.06-.09-.08-.09-.1a29.62,29.62,0,0,0-.93-6.89A2.9,2.9,0,0,1,35.16,8.26Z"/><path class="cls-5" d="M19.12,11l1.63-1.24c.24-.17.43-.32.05-.58s-.17-.46,0-.66a.6.6,0,0,1,.78-.08.4.4,0,0,1,.08.65c-.12.14-.21.22,0,.36s0,.2-.07.26c-.42.41-.84.8-1.26,1.2S19.56,11.05,19.12,11Z"/><path class="cls-5" d="M38,12.91a2.29,2.29,0,0,1-1.1-.87.4.4,0,0,1,0-.55.3.3,0,0,1,.51.06c0,.07.1.13.19.1s.09-.15.07-.24a.38.38,0,0,1,.64-.34.84.84,0,0,1,.19.57s0,0,0,0C37.81,11.87,38.26,12.52,38,12.91Z"/><path class="cls-5" d="M11.75,15a2.78,2.78,0,0,1,2.19-1.61c.19,0,.38.05.45.27s-.19.25-.31.3C13.33,14.28,12.57,14.61,11.75,15Z"/><path class="cls-5" d="M11.93,16.05a9.06,9.06,0,0,0-.06,1.42c0,.19.06.49.34.16.14-.17.23-.12.3.05a.86.86,0,0,1-.41.92.62.62,0,0,1-.7-.57A2.74,2.74,0,0,1,11.93,16.05Z"/><path class="cls-5" d="M38.43,14.1c-.36-.06-.53.28-.82.37-.13,0-.28.24-.39,0a.35.35,0,0,1,.09-.47l1.55-1c.16-.1.22,0,.23.15a.61.61,0,0,1-.27.55c-.14.12-.41.12-.4.4Z"/><path class="cls-5" d="M29.67,17.2c-.17.59,0,.65.45.43a.68.68,0,0,1,.32-.05c.11,0,.26-.07.3.12s-.12.18-.23.22l-.66.22c-.27.09-.6.29-.56-.28,0-.15-.11-.2-.26-.17s-.25,0-.18-.17a.9.9,0,0,1,.62-.45C29.56,17.05,29.69,17.1,29.67,17.2Z"/><path class="cls-5" d="M41.39,18.43l-.08.08c-.28-.14-.45.15-.69.17s-.3.1-.39,0,.06-.24.16-.33.36-.27.06-.46c-.12-.07-.22-.18-.1-.3s.37-.09.57-.06.19.13.13.23c-.16.27-.1.35.2.35S41.32,18.32,41.39,18.43Z"/><path class="cls-5" d="M27.14,12.86a.35.35,0,0,1-.26.41.83.83,0,0,1-.88-.1.46.46,0,0,1-.12-.52c.05-.12.16-.22.24-.09s.21.21.31,0c0,0,.11,0,.11,0,.14.36.19.06.33,0C27.17,12.41,27.07,12.75,27.14,12.86Z"/><path class="cls-5" d="M38.42,14.11c.36-.12.57,0,.65.38A1.38,1.38,0,0,1,39,15.74c-.07.09-.27.22-.25,0,.08-.6-.35-1.09-.31-1.67Z"/><path class="cls-5" d="M16.45,9.13c-.23,0-.44.14-.68.08a.51.51,0,0,1-.45-.6c0-.24.09-.26.29-.1s.12.16.19,0,.2-.13.27,0,.11.1.15,0,.07-.22.22-.17.08.2.11.32-.12.28-.12.43Z"/><path class="cls-5" d="M41.52,9.87V9.71c.14,0,.1-.07.11-.13a.27.27,0,0,1,.23-.26.31.31,0,0,1,.34.2,1.42,1.42,0,0,1-.07,1.64,1.89,1.89,0,0,0-.39-1.31C41.63,9.73,41.59,9.72,41.52,9.87Z"/><path class="cls-5" d="M33.26,11.09a.55.55,0,0,1-.65.55c-.42,0-.63-.25-.58-.62,0-.15.09-.29.22-.18s.21.29.33,0c.2.2.35.1.56,0S33.25,11,33.26,11.09Z"/><path class="cls-5" d="M32.52,10.13A1.18,1.18,0,0,0,32.15,9c-.12-.12-.21-.31,0-.45a.36.36,0,0,1,.5.08A1.07,1.07,0,0,1,32.52,10.13Z"/><path class="cls-5" d="M21.56,11.45A.57.57,0,0,1,21,12a.42.42,0,0,1-.46-.32.61.61,0,0,1,.25-.69.35.35,0,0,1,.21-.07c.11,0,.07.11.07.19C21,11.63,21,11.63,21.56,11.45Z"/><path class="cls-5" d="M12.7,9.76a1.29,1.29,0,0,0-.29-1c-.12-.11-.19-.3,0-.4a.36.36,0,0,1,.5.1C13.13,8.74,13.1,9.21,12.7,9.76Z"/><path class="cls-5" d="M25.58,8.4a2.06,2.06,0,0,1-.21.87.23.23,0,0,1-.26.15c-.14,0-.12-.16-.11-.26a6.53,6.53,0,0,1,.14-.77c0-.14.11-.33.31-.27S25.57,8.34,25.58,8.4Z"/><path class="cls-5" d="M20.21,16.26c0-.48,0-.84-.33-1.09-.09-.06-.12-.22,0-.28a.33.33,0,0,1,.46.08C20.63,15.31,20.63,15.74,20.21,16.26Z"/><path class="cls-5" d="M23.37,8c.12.16,0,.24-.11.35s-.35.37.07.46c.08,0,.08.09,0,.15a.44.44,0,0,1-.38.23A.29.29,0,0,1,22.73,9,.91.91,0,0,1,23.37,8Z"/><path class="cls-5" d="M13,11.65v0Z"/><path class="cls-5" d="M29.77,10.82l-.24-.09C29.66,10.63,29.74,10.65,29.77,10.82Z"/><path class="cls-5" d="M26.2,10.1v0Z"/><path class="cls-5" d="M14.65,14.61v0Z"/><path class="cls-5" d="M28.66,8.85c0,.05.07.11,0,.13s-.05-.08-.08-.13Z"/><path class="cls-5" d="M26.79,10.13v0Z"/><path class="cls-5" d="M12.47,11.73h0Z"/><path class="cls-5" d="M16.8,11.65h0Z"/><path class="cls-5" d="M13.9,11.08l0-.13Z"/><path class="cls-5" d="M15.24,13l0-.14Z"/><polygon class="cls-5" points="17.48 11.15 17.48 11.12 17.5 11.13 17.48 11.15"/><polygon class="cls-5" points="12.69 11.21 12.69 11.24 12.67 11.23 12.69 11.21"/><polygon class="cls-5" points="27.07 11.07 27.06 11.05 27.08 11.06 27.07 11.07"/><path class="cls-5" d="M22.16,11l0,.05,0,0Z"/><polygon class="cls-5" points="24.24 11.42 24.25 11.46 24.22 11.44 24.24 11.42"/><path class="cls-5" d="M12.26,11.67l0-.06A.07.07,0,0,1,12.26,11.67Z"/><polygon class="cls-5" points="29.17 10.91 29.15 10.92 29.16 10.9 29.17 10.91"/><polygon class="cls-5" points="23.77 10.89 23.77 10.86 23.79 10.88 23.77 10.89"/><path class="cls-5" d="M24.32,11.68s0,0,0,.06l0,0Z"/><path class="cls-5" d="M29.15,11.69l.05,0,0,0Z"/><polygon class="cls-5" points="27.19 12.04 27.21 12.04 27.2 12.06 27.19 12.04"/><polygon class="cls-5" points="27.94 12.05 27.98 12.04 27.96 12.06 27.94 12.05"/><polygon class="cls-5" points="22.08 10.78 22.09 10.79 22.07 10.78 22.08 10.78"/><path class="cls-5" d="M12.87,12.31s0,0,0-.06v0Z"/><path class="cls-5" d="M15.32,12.27l.07,0A.08.08,0,0,1,15.32,12.27Z"/><path class="cls-5" d="M25,12.22h0Z"/><path class="cls-5" d="M25.26,12.23h0Z"/><path class="cls-5" d="M13.44,12.48Z"/><path class="cls-5" d="M11.94,10.56h0Z"/><polygon class="cls-5" points="12.88 10.38 12.88 10.39 12.87 10.39 12.88 10.38"/><polygon class="cls-5" points="11.86 10.23 11.85 10.2 11.87 10.21 11.86 10.23"/><polygon class="cls-5" points="28.38 10.03 28.37 10 28.39 10.01 28.38 10.03"/><path class="cls-5" d="M22.45,9.91h0Z"/><path class="cls-5" d="M11.76,10h-.12l0-.07Z"/><path class="cls-5" d="M15,9.54h0Z"/><path class="cls-5" d="M13.7,9.6h-.12S13.66,9.56,13.7,9.6Z"/><polygon class="cls-5" points="22.36 9.45 22.36 9.44 22.38 9.45 22.36 9.45"/><path class="cls-5" d="M28.57,9.36a.1.1,0,0,1,.05,0v0Z"/><path class="cls-5" d="M16.35,9.33a.1.1,0,0,1,0,.07Z"/><path class="cls-5" d="M14.68,15.61l.07.08C14.69,15.7,14.67,15.67,14.68,15.61Z"/><polygon class="cls-5" points="26.03 9.27 26.03 9.28 26.01 9.27 26.03 9.27"/><polygon class="cls-5" points="14.67 8.91 14.66 8.87 14.68 8.88 14.67 8.91"/><polygon class="cls-5" points="27.34 8.77 27.34 8.8 27.33 8.79 27.34 8.77"/><polygon class="cls-5" points="26.69 8.71 26.68 8.68 26.7 8.69 26.69 8.71"/><polygon class="cls-5" points="26.6 8.44 26.59 8.41 26.61 8.42 26.6 8.44"/><polygon class="cls-5" points="12.03 11.05 12.03 11.03 12.05 11.04 12.03 11.05"/><path class="cls-3" d="M16.92,14a.2.2,0,0,1-.24.22c-.12,0-.29,0-.28-.17a.28.28,0,0,1,.28-.27A.22.22,0,0,1,16.92,14Z"/><path class="cls-3" d="M25.53,15.53l1.48.15c.12,0,.27.05.29.18s-.12.19-.25.22a.63.63,0,0,0-.55.78c0,.19,0,.33-.26.21A1.65,1.65,0,0,1,25.29,16C25.22,15.69,25.37,15.54,25.53,15.53Z"/><path class="cls-3" d="M28.93,13.32c0,.12-.07.14-.15.14a.36.36,0,0,1-.37-.22c0-.12.07-.16.16-.15A.41.41,0,0,1,28.93,13.32Z"/><path class="cls-3" d="M37.42,28.79h1c.13,0,.26,0,.25.2s-.14.15-.25.15-.43.05-.63-.09a.46.46,0,0,0-.49,0c-.31.17-.64.05-1,.07a.17.17,0,0,1-.2-.2c0-.15.1-.17.22-.17h1Z"/></g></g></g></g></svg>