<svg xmlns="http://www.w3.org/2000/svg" viewBox="0 0 59.47 39.03"><defs><style>.cls-1{fill:#006d33;}.cls-2{fill:#f8faf9;}.cls-3{fill:#fcfcfc;}</style></defs><g id="Layer_2" data-name="Layer 2"><g id="Layer_1-2" data-name="Layer 1"><rect class="cls-1" width="59.47" height="39.03" rx="10.55"/><g id="sk8nCC"><path class="cls-1" d="M10.21,18.28h0Zm0,0h0Zm0,0Z"/><path class="cls-2" d="M22.22,15.39l0,0c-.1.25-.2.5-.31.75a.26.26,0,0,0,0,.34c.28.33.16.66-.26.79a.68.68,0,0,1-.78-.36,2.53,2.53,0,0,1-.2-.82c0-.07,0-.16-.08-.18s-.11.08-.13.15a3.91,3.91,0,0,1-.58,1.06.84.84,0,0,1-.3.29c-.37-2.34-.72-4.65-1-7l.07,0,.37.38a.8.8,0,0,0,0-.44l-.44-1.08c-.1-.24-.19-.49-.3-.73,0-.07-.06-.16-.16-.15s-.09.1-.11.17L17.89,9c-.09.28-.2.56,0,.83,0,0,0,.12,0,.19.07.5.15,1,.2,1.5.23,2,.54,4,.85,6,0,.09.1.21,0,.26a.34.34,0,0,1-.33,0,.66.66,0,0,1-.23-.21c-.22-.28-.15-.62-.18-.94s-.19-.47-.53-.3-.77.37-1.14.6c-.09.06-.16.07-.18-.07-.08-.62-.17-1.24-.26-1.86,0-.16,0-.21.17-.22a.73.73,0,0,0,.47-.19,2.25,2.25,0,0,0,.81-2.11,10,10,0,0,0-.53-1.6,7.05,7.05,0,0,1-.34-1c.16,0,.22.16.36.17a3.38,3.38,0,0,0-.89-1.66,3.37,3.37,0,0,0-.06,1.27,17,17,0,0,0,1.09,3.27.24.24,0,0,1,0,.29,1.81,1.81,0,0,1-.95.58c-.21.06-.29,0-.31-.22,0-.61-.14-1.21-.23-1.82,0-.32-.08-.65-.13-1l.13.06c.06,0,.13.14.2.1s0-.17,0-.27a.4.4,0,0,0-.06-.16l-.36-.82L15,8.46c-.19.57-.45,1.06-.17,1.62a1.53,1.53,0,0,1,.12.49c.11.69.2,1.39.3,2.08,0,.31.09.62.14.92a2.07,2.07,0,0,1-.84-1.36c-.13-.93-.22-1.86-.34-2.79A1.41,1.41,0,0,0,14,8.79c-.06-.09-.18-.18-.23,0a2,2,0,0,0-.23,1c.12.85.26,1.69.4,2.54a1.1,1.1,0,0,1-.08.69,2.35,2.35,0,0,1-.69.84,1.27,1.27,0,0,1-1.42,0,1.37,1.37,0,0,1-.5-1.24c0-.88.15-1.75.22-2.63,0-.11.09-.27,0-.33s-.25,0-.35.13a1.3,1.3,0,0,0-.19.22,3.79,3.79,0,0,0-.47,1c-.24.72-.4,1.47-.59,2.21a2,2,0,0,1-.27.71.4.4,0,0,1-.69,0A2,2,0,0,1,8.56,13a8.06,8.06,0,0,1-.14-1.93.71.71,0,0,0-.14.39,8.68,8.68,0,0,0,0,1.69,4.58,4.58,0,0,0,.36,1.41.75.75,0,0,0,.69.53.91.91,0,0,0,.66-.69c.09-.41.18-.82.23-1.24a8,8,0,0,1,.61-2.37.21.21,0,0,1,.21-.14c-.07.58-.18,1.16-.25,1.74A2.88,2.88,0,0,0,11,14.23a1.58,1.58,0,0,0,1.46.9,1.54,1.54,0,0,0,1.4-1,4.62,4.62,0,0,0,.29-1c.06.12.09.25.14.36.27.54.48,1.13,1.2,1.22.11,0,.11.09.12.17.08.7.16,1.4.25,2.09,0,.11,0,.23-.1.25s-.14-.12-.16-.21a2.3,2.3,0,0,0-.69-1.22.85.85,0,0,0-1.46.34,4.72,4.72,0,0,0-.28,1.44.82.82,0,0,0,.88.93c.31,0,.62,0,.93,0,.08,0,.16,0,.23,0a1.1,1.1,0,0,1,.12,1.23A6.13,6.13,0,0,1,12.71,22,1.85,1.85,0,0,1,10,20.87a3.4,3.4,0,0,1,.11-2.39l0-.1a.36.36,0,0,1,0-.09.31.31,0,0,0-.3.2,8.26,8.26,0,0,0-.32,2.66,2.11,2.11,0,0,0,2.89,2.05,6,6,0,0,0,2.6-1.81,2.85,2.85,0,0,0,.78-2.1c0-.28,0-.55,0-.83,0-.11,0-.2.14-.22s.1.13.11.19c.11.77.21,1.55.32,2.32a.36.36,0,0,1-.05.25,6.89,6.89,0,0,1-3.1,2.68A3.57,3.57,0,0,1,11,24a2.14,2.14,0,0,1-1.73-1.5,4.65,4.65,0,0,1-.13-1.7c.08-.73.22-1.45.36-2.18a.36.36,0,0,0-.24.27,13.3,13.3,0,0,0-.51,2.51,4.77,4.77,0,0,0,.43,2.52,2.71,2.71,0,0,0,3.33,1.28,6.23,6.23,0,0,0,3.37-2.39,3.52,3.52,0,0,0,.79-1.65,8.62,8.62,0,0,0-.08-2.73c-.1-.46-.1-.46.3-.68l.24-.12c.58-.3.58-.3.76.33a1,1,0,0,0,1.14.88c.08,0,.14,0,.16.12.1.78.21,1.57.32,2.35a11.61,11.61,0,0,1,0,1.56c0,.08,0,.16.1.17s.12,0,.13-.12a7.59,7.59,0,0,0,.23-1.19,15.56,15.56,0,0,0-.2-2.26c-.07-.52-.17-1,.28-1.43.08-.07.1-.2.16-.3s0-.14.13-.13a.74.74,0,0,0,.65.71A.83.83,0,0,0,22,18a3,3,0,0,0,.45-.86A2,2,0,0,0,22.22,15.39ZM13.7,17.34c-.11,0-.13-.05-.09-.14l0-.06c.24-.61.53-.65.94-.14.08.1.15.21.24.34Zm-3.49.94Z"/><path class="cls-3" d="M47.17,30.51a1.64,1.64,0,0,0-1.45-.81H41.21c0-.14.1-.24.14-.35a1.6,1.6,0,0,0,.11-.81.6.6,0,0,0-1-.46.53.53,0,0,0-.31.49.45.45,0,0,0,.37.46c.12,0,.1.08.06.17a.67.67,0,0,1-.75.49H10.78a.69.69,0,0,0-.44.09A2,2,0,0,0,11.74,31a6.76,6.76,0,0,0,2.1.26h26.5a2,2,0,0,0-.4,1,.61.61,0,0,0,.83.68,1.71,1.71,0,0,1,.45-.09h1.1a.24.24,0,0,1,.26.15.61.61,0,0,0,.58.34.57.57,0,0,0,.59-.35.21.21,0,0,1,.22-.14h1.2s.11,0,.15,0,.24.12.38.11A1.65,1.65,0,0,0,47,32.36,1.73,1.73,0,0,0,47.17,30.51Zm-4.39,2.36h.77A.42.42,0,0,1,42.78,32.87Zm.82-.32c0,.06-.09,0-.13,0h-.53c-.06,0-.15,0-.18,0s0-.13.09-.18a.47.47,0,0,1,.7.05S43.62,32.5,43.6,32.55Zm1.68,0c-.44,0-.87,0-1.3,0-.12,0-.19,0-.23-.15a.62.62,0,0,0-1.13,0,.32.32,0,0,1-.35.19q-.45,0-.9,0c-.08,0-.14,0-.14-.11a.54.54,0,0,0-.48-.59.94.94,0,0,1,.92-.65c1.09,0,2.18,0,3.28,0a1,1,0,0,1,.89.58A.6.6,0,0,1,45.28,32.59Z"/><path class="cls-2" d="M49.35,20.75c0,.22,0,.43,0,.65-.09-.29-.14-.58-.21-.87a2.28,2.28,0,0,0-.68-1.17,14.71,14.71,0,0,1-1.11-1.26.83.83,0,0,0-.32-.29c.08.52.16,1,.24,1.48a10.56,10.56,0,0,1,0,1.49,2.43,2.43,0,0,1-.35,1.38,8.54,8.54,0,0,1-.07-1c0-.92-.23-1.81-.33-2.72-.05-.45-.12-.89-.18-1.33a.48.48,0,0,0-.09-.25c-.53-.57-1-1.15-1.52-1.75a.11.11,0,0,0-.11-.06c.07.53.15,1.06.21,1.59.15,1.15.33,2.31.42,3.47A4.77,4.77,0,0,1,44.61,23a1.51,1.51,0,0,1-2.26.43.82.82,0,0,1-.29-.32,9.56,9.56,0,0,1-.7-1.61A.91.91,0,0,0,41,21c0,.38.07.75.12,1.12a8.14,8.14,0,0,1,0,2.87c0,.07,0,.13,0,.19s-.07.14-.15.13-.07-.1-.07-.16a14,14,0,0,0-.06-1.83c-.11-.73-.22-1.46-.32-2.2,0-.16-.08-.16-.2-.11a1.61,1.61,0,0,0-.73.73,11,11,0,0,0-1,2.48,5.22,5.22,0,0,1-.85,1.7c-.3.38-.52.4-.91.12a2,2,0,0,1-.76-1.22c-.06-.26-.14-.53-.22-.81a7,7,0,0,1-2.52.82.25.25,0,0,1-.12,0c-.06,0-.16.06-.19,0s.07-.13.13-.17c.54-.3,1.11-.54,1.63-.88a5.77,5.77,0,0,0,.88-.66.26.26,0,0,0,.11-.24,6.72,6.72,0,0,1,.05-1.27c0-.12,0-.23.18-.29,0,.5-.08,1,0,1.49a.65.65,0,0,0,.25-.21,4.67,4.67,0,0,0,1-1.39,2.09,2.09,0,0,0,.08-1.13c-.08-.74-.22-1.46-.33-2.2-.18-1.22-.35-2.45-.53-3.68s-.35-2.76-.62-4.13a4.3,4.3,0,0,1,0-1.39s0-.14.08-.16.11.08.13.14c.27.62.53,1.24.79,1.87a.73.73,0,0,1,.05.41l-.07.06c-.07-.09-.13-.18-.2-.26s-.07-.11-.14-.07,0,.1,0,.15L37,14.2c.22,1.5.48,3,.63,4.5a7.53,7.53,0,0,1-.17,3.13,3.78,3.78,0,0,1-1.12,1.8.27.27,0,0,0-.07.41,3.35,3.35,0,0,0,.5.8.51.51,0,0,0,.85,0,4.35,4.35,0,0,0,.59-1.18,14.05,14.05,0,0,1,1.26-2.8,2.13,2.13,0,0,1,.8-.83c.07,0,.07-.09.06-.16l-.48-3.51c-.12-.91-.24-1.83-.37-2.74-.17-1.21-.32-2.42-.59-3.61a4.27,4.27,0,0,1,.1-1.3.11.11,0,0,1,.12-.11c.06,0,.06.06.08.1.27.64.55,1.29.83,1.93a.91.91,0,0,1,0,.47c-.11-.13-.17-.21-.25-.29a.1.1,0,0,0-.13,0c-.07,0,0,.08,0,.12.19,1.35.37,2.7.56,4,.22,1.56.45,3.12.66,4.68,0,.13,0,.23.22.2s.22.07.31.16a4.36,4.36,0,0,1,.73,1.48,1.59,1.59,0,0,0,.57.91,1.83,1.83,0,0,0,1.45.1,1.08,1.08,0,0,0,.65-.78,1.87,1.87,0,0,0,0-1c-.21-1.35-.39-2.71-.58-4.07-.1-.8-.25-1.61-.3-2.42a.61.61,0,0,0-.17-.34A35.21,35.21,0,0,1,41,10.17a2,2,0,0,0-.33-.48s0-.09,0-.14l.06-.85c0-.06,0-.11.06-.13s.09,0,.12,0l1.51,1.44s.11.06.07.13-.1.05-.15.05h-.52a25.5,25.5,0,0,0,1.88,2.33,3.08,3.08,0,0,0,0-.53c-.13-.67-.12-1.37-.31-2a4,4,0,0,1,.07-1.3c0-.07,0-.16.1-.17s.09.08.12.14c.26.64.53,1.29.8,1.93a1.1,1.1,0,0,1,.05.41c-.17-.07-.22-.24-.36-.32s-.05.08-.05.12c.12.86.25,1.72.37,2.58a.4.4,0,0,0,.08.23l1.63,1.95a6.31,6.31,0,0,0-.1-.93c-.17-1.27-.34-2.54-.54-3.8a6.24,6.24,0,0,0-.2-1,.92.92,0,0,1,0-.4c0-.24.06-.49.1-.73,0,0,0-.13.07-.14s.09.06.12.11c.27.64.55,1.28.83,1.93,0,.09.07.2,0,.26s-.17,0-.23-.08l-.12-.1c.08.54.14,1,.21,1.54.17,1.31.35,2.62.53,3.93a.86.86,0,0,0,.21.5c.51.58,1,1.17,1.52,1.76A3,3,0,0,1,49.35,20.75Z"/><path class="cls-2" d="M32.89,20.29l-.22,0c-1.54.13-3.09.14-4.64.13-.08,0-.16,0-.2-.07s.05-.11.09-.16a5,5,0,0,1,1.43-1.28c.11-.07.23-.23.34-.17s.11.26.1.4a.09.09,0,0,0,0,.05.49.49,0,0,0,.29-.4c0-.26.15-.32.32-.41l.58-.27a1.15,1.15,0,0,0,.54-.88.28.28,0,0,0-.06-.2,1.73,1.73,0,0,0-1.5-.68c-.32,0-.67.27-.69.52a1.44,1.44,0,0,0,.09,1c.08.11.06.19-.07.27A7.23,7.23,0,0,0,28,19.19a3.06,3.06,0,0,0-1,1.9s0,.09-.09.09c-.15-.83-.37-1.66-.55-2.49a6.77,6.77,0,0,0-.71-2,1.19,1.19,0,0,0-.46-.54c0,.3,0,.56,0,.83a1.89,1.89,0,0,0,.19,1,4.47,4.47,0,0,1,.31.82c.24.75.38,1.52.6,2.26a.73.73,0,0,1-.17.8,12,12,0,0,1-2.32,2,1.56,1.56,0,0,1-1,.25.48.48,0,0,1-.44-.39.43.43,0,0,1,.13-.53,21.15,21.15,0,0,0,1.67-1.47,2.36,2.36,0,0,0,.65-2.46,6.09,6.09,0,0,0-.37-.88.74.74,0,0,1-.11-.59l.49.29c0-.47-.35-.65-.57-.92s-.49-.54-.77-.85c-.05.39-.08.69-.12,1a.38.38,0,0,0,0,.15c.17.42.32.84.51,1.25a4.94,4.94,0,0,0,.71,1.39c.1.11.07.15,0,.24a13.75,13.75,0,0,1-1.42,1.23,1.86,1.86,0,0,1-.5.32.64.64,0,0,1,.06-.31c0-.09,0-.21,0-.23s-.09.11-.1.17a1.16,1.16,0,0,1-.34.71,11.88,11.88,0,0,1-2.73,1.7c-.82.33-1.65.65-2.48,1-.1,0-.14.08-.14.19H17c.86,0,1.71-.13,2.56-.22a2.76,2.76,0,0,0,1.08-.36A8.84,8.84,0,0,0,22,23.59c0,.15,0,.27,0,.38.15,1,.63,1.6,1.74,1.11a5.67,5.67,0,0,0,1.86-1.47,2.88,2.88,0,0,0,.9-1.78c.09.27.17.49.24.72a3.33,3.33,0,0,0,2.87,2.38c.34.06.35.05.35-.31a3.23,3.23,0,0,1,0-.44.27.27,0,0,0-.19-.31,2.12,2.12,0,0,1-1-.82.15.15,0,0,1,0-.24c.17-.12.34-.25.52-.36a7.68,7.68,0,0,1,3.05-1.2.14.14,0,0,0,.13-.08c.16-.25.31-.5.47-.74S33,20.28,32.89,20.29Zm-3.22-3c.09-.1.23-.07.35-.05a1.37,1.37,0,0,1,.63.24,4.33,4.33,0,0,0-.72.31c-.06,0-.09,0-.11,0a1.34,1.34,0,0,1-.07-.18C29.73,17.47,29.6,17.38,29.67,17.29Zm-1,4.92a2,2,0,0,0-.39,1c0,.22-.09.26-.27.12a2.75,2.75,0,0,1-.78-1,2.38,2.38,0,0,1-.22-.7c0-.13,0-.15.14-.16l2.56-.09A4.68,4.68,0,0,0,28.67,22.21Z"/><path class="cls-2" d="M28.49,14.47a1.62,1.62,0,0,1-2.09-.18,2.89,2.89,0,0,1-.56-1c-.11.3-.19.57-.3.83a1.54,1.54,0,0,1-1.53,1,1.63,1.63,0,0,1-1.5-1.18,3.26,3.26,0,0,1-.09-1.64c.06-.55.15-1.09.23-1.67a.31.31,0,0,0-.19.16,6.51,6.51,0,0,0-.57,2.07,13.23,13.23,0,0,1-.25,1.4,1.14,1.14,0,0,1-.14.39.75.75,0,0,1-.61.39.64.64,0,0,1-.57-.41,4.73,4.73,0,0,1-.43-1.52,6.24,6.24,0,0,1,0-1.83A.31.31,0,0,1,20.1,11c0,.45,0,.89,0,1.33a3.42,3.42,0,0,0,.4,1.4.41.41,0,0,0,.39.2.41.41,0,0,0,.4-.27,5.62,5.62,0,0,0,.36-1.19,10.24,10.24,0,0,1,.69-2.18,3.55,3.55,0,0,1,.21-.44.62.62,0,0,1,.24-.27.31.31,0,0,1,.34-.07c.09,0,0,.18,0,.27-.09.77-.19,1.54-.27,2.31A2.65,2.65,0,0,0,23,13.21a1.25,1.25,0,0,0,1.95.46A1.88,1.88,0,0,0,25.58,12c-.13-.73-.26-1.46-.36-2.2a1.94,1.94,0,0,1,.25-1.07c.05-.11.1,0,.13,0a2.75,2.75,0,0,1,.31.87c.09.84.18,1.67.29,2.5a2.39,2.39,0,0,0,.56,1.23,1,1,0,0,0,.76.37,1.82,1.82,0,0,0,1.17-.35.42.42,0,0,0,.16-.55c-.21-.52-.44-1-.63-1.56s-.31-1.18-.47-1.77a2.42,2.42,0,0,1,0-1c0-.07,0-.18.11-.19s.13.08.17.15c.2.35.39.71.61,1.06a.75.75,0,0,1,.07.44c-.16,0-.22-.17-.36-.2a.14.14,0,0,0,0,.17c.31.69.52,1.42.77,2.14A2.36,2.36,0,0,1,28.49,14.47Z"/><path class="cls-2" d="M36.67,21.29c-.11,0-.08-.11-.1-.18a3.46,3.46,0,0,0-.79-1.71c-.59-.65-1.09-1.36-1.7-2-.16-.18-.31-.37-.49-.55.08.51.15,1,.23,1.53.17,1.05.28,2.1.37,3.16A5,5,0,0,1,34,23a.12.12,0,0,1-.13.11c-.1,0-.11-.08-.11-.16V21.72a12.19,12.19,0,0,0-.26-1.91c-.17-1.23-.36-2.45-.53-3.68a.62.62,0,0,0-.12-.26c-1-1.25-2-2.55-2.86-3.89a1.42,1.42,0,0,1-.26-1.11c0-.19-.08-.46.11-.54s.27.2.4.31l1.19,1.16c.07.07.14.14.09.23s-.14,0-.21,0-.32-.13-.39,0,.12.23.2.34c.47.65,1,1.23,1.44,1.92a.34.34,0,0,0,.2.19c-.09-.56-.17-1.09-.24-1.62l-.39-2.71a.77.77,0,0,0,0-.15,1.82,1.82,0,0,1,0-1.3c0-.07,0-.16.12-.16s.11.07.14.14c.25.62.5,1.24.76,1.85a.76.76,0,0,1,0,.37c-.14-.13-.27-.24-.44-.41,0,.32.07.58.11.84.2,1.08.27,2.18.43,3.27,0,.23.07.47.1.7a.28.28,0,0,0,.09.17c.48.53.91,1.11,1.36,1.67.25.31.51.6.79.89a7.25,7.25,0,0,1,.93,1.4,1.85,1.85,0,0,1,.2.92c0,.24,0,.47,0,.71C36.73,21.16,36.77,21.28,36.67,21.29Z"/><path class="cls-2" d="M50.24,20.14a7.63,7.63,0,0,1-.16,1.58,4,4,0,0,1-3.27,3l-1,.2c-.08,0-.19.06-.22,0s.08-.12.15-.15a12.21,12.21,0,0,0,2.67-1.7,4.62,4.62,0,0,0,1.4-1.89A2.24,2.24,0,0,0,49.88,20c-.19-1.22-.37-2.44-.54-3.65-.23-1.58-.44-3.15-.66-4.72-.08-.53-.15-1.05-.22-1.58,0,0,0-.08,0-.09-.3-.27-.07-.58-.08-.87a3.4,3.4,0,0,1,.06-.46c0-.06,0-.11.11-.11s.07.06.09.1c.27.66.53,1.31.81,2a1.41,1.41,0,0,1,0,.42c-.14-.11-.18-.26-.36-.35,0,.35.08.66.12,1l.69,4.88c.1.75.24,1.5.32,2.25A8.69,8.69,0,0,1,50.24,20.14Z"/><path class="cls-2" d="M11.43,16a.41.41,0,0,1-.15-.36,1.37,1.37,0,0,0-.09-.72c-.15-.31-.34-.34-.57-.07a1.32,1.32,0,0,0-.23.95c0,.25.21.35.4.45s.15.17,0,.3a12.46,12.46,0,0,1-.87.91c-.51.47-1.05.91-1.55,1.45a.72.72,0,0,0,.32-.13L9.83,18a3.81,3.81,0,0,0,1-1.06c.09-.15.13-.37.26-.44s.29.16.47.19A.55.55,0,0,0,11.43,16Zm-.37-.21-.34-.19c-.06,0-.16-.06-.15-.14s.13-.16.23-.2.15,0,.2.08A.54.54,0,0,1,11.06,15.78Z"/><path class="cls-2" d="M12.92,18.82s0,.09,0,.14,0,.18-.11.2-.11-.09-.16-.15-.3-.18-.42.06a6.56,6.56,0,0,0-.34,1.52c0,.17-.08.34-.12.56a1.64,1.64,0,0,1-.32-.63,1.65,1.65,0,0,0-.2-.52.48.48,0,0,0-.33-.27c-.17,0-.33-.21-.51-.31s0-.52.07-.6.25,0,.37,0a1.19,1.19,0,0,1,.61.79,2.76,2.76,0,0,0,.28.58c.08-.4.15-.74.21-1.08a1.87,1.87,0,0,1,.27-.65.37.37,0,0,1,.49-.15A.42.42,0,0,1,12.92,18.82Z"/><path class="cls-2" d="M10.15,9.83a2,2,0,0,1-1.1.5.78.78,0,0,1-.5,0c-.1-.06-.15-.11,0-.21A3.19,3.19,0,0,0,9,9.63a.5.5,0,0,1,.48-.21c.4,0,.5-.1.41-.49a.58.58,0,0,0-.19-.31A2.11,2.11,0,0,0,9,8.2c-.17-.07-.29,0-.31.15a8.46,8.46,0,0,0,0,.87c0,.16.13.2.29.2a1.09,1.09,0,0,1-.27.29.91.91,0,0,0-.38.78.22.22,0,0,0,.24.25A2,2,0,0,0,10,10.19a.82.82,0,0,0,.31-.47C10.24,9.71,10.2,9.79,10.15,9.83ZM8.83,8.89c0-.08.05-.21.13-.2s.17.13.19.24S9.08,9,9,9,8.83,9,8.83,8.89Z"/><path class="cls-2" d="M22.05,20.57a1.77,1.77,0,0,1-.41.9.29.29,0,0,1-.44,0,.83.83,0,0,1-.24-.6A2.45,2.45,0,0,1,21.73,19a1.65,1.65,0,0,1,.53-.45,11,11,0,0,0-.57,1.07,1.47,1.47,0,0,0-.13.71c0,.25.16.31.37.18S22.06,20.49,22.05,20.57Z"/><path class="cls-2" d="M41.64,14.07a1.6,1.6,0,0,0-.15.68c0,.3.1.36.35.24s.17,0,.14.1a1.55,1.55,0,0,1-.43.83c-.21.2-.42.15-.56-.11a.87.87,0,0,1-.1-.48A3.19,3.19,0,0,1,42.06,13s.08-.08.13,0,0,.1,0,.14A5.1,5.1,0,0,0,41.64,14.07Z"/><path class="cls-2" d="M40.11,24.73a1.66,1.66,0,0,1-.42.81c-.23.22-.56.09-.65-.25a1.9,1.9,0,0,1,.12-1.24,4.2,4.2,0,0,1,1.16-1.44,1.17,1.17,0,0,1-.23.46,3,3,0,0,0-.48,1.24c0,.32.07.41.37.3C40.11,24.56,40.13,24.63,40.11,24.73Z"/><path class="cls-2" d="M18.26,22.56a1.16,1.16,0,0,1-.53,1.06c-.22.09-.35,0-.43-.21a1.55,1.55,0,0,1-.05-1.06,3.39,3.39,0,0,1,1.14-1.69s.06,0,.12,0c-.14.23-.28.46-.41.69a2.42,2.42,0,0,0-.34.94.34.34,0,0,0,.14.36C18.05,22.75,18.14,22.64,18.26,22.56Z"/><path class="cls-2" d="M39.2,19.15a1.7,1.7,0,0,1-.4.79c-.19.21-.36.19-.52,0a1,1,0,0,1-.16-.58A2.57,2.57,0,0,1,39,17.44c.13-.14.28-.26.42-.39l.05.05a9.59,9.59,0,0,0-.51.88,2.09,2.09,0,0,0-.21.85c0,.28.1.34.36.22,0,0,.09-.05.13,0S39.21,19.11,39.2,19.15Z"/><path class="cls-2" d="M38.53,14.23a1.49,1.49,0,0,1-.36.82.34.34,0,0,1-.59-.06,1.39,1.39,0,0,1-.06-1.18,3.2,3.2,0,0,1,1.24-1.61c-.17.33-.39.65-.54,1a2,2,0,0,0-.2.7.33.33,0,0,0,.13.35c.11.07.18,0,.26-.08s.06,0,.09,0S38.53,14.19,38.53,14.23Z"/><path class="cls-2" d="M30.66,14.5c-.33-.24-.19-.59-.27-.89a1.34,1.34,0,0,0-.07-.18c-.08-.14-.18-.16-.32-.06a.76.76,0,0,0,0,1.19c.16.1.16.16,0,.28s-.37.42-.56.62a15,15,0,0,0-1.27,1.25,6.38,6.38,0,0,0,2.13-2l.34.19C30.72,14.78,30.75,14.58,30.66,14.5Zm-.39-.32L30,14.09c-.06,0-.15-.07-.13-.15a.24.24,0,0,1,.2-.17c.11,0,.13.07.14.15A.44.44,0,0,1,30.27,14.18Z"/><path class="cls-2" d="M38.68,8.89a1.68,1.68,0,0,1-1.45.95c-.07,0-.17,0-.2-.05s.09-.09.15-.12A8.27,8.27,0,0,0,38,9.24a.71.71,0,0,0-.65-.09c-.14.06-.2,0-.2-.15a.63.63,0,0,1,.72-.64,2.63,2.63,0,0,1,.67.22C38.69,8.64,38.76,8.75,38.68,8.89Z"/><path class="cls-2" d="M48,8.89a2.51,2.51,0,0,1-.94.86c-.21.11-.34.1-.71,0a5.4,5.4,0,0,0,1-.55.68.68,0,0,0-.61-.09c-.19.07-.23,0-.22-.19a.6.6,0,0,1,.69-.61,1.39,1.39,0,0,1,.74.29C48,8.69,48.06,8.77,48,8.89Z"/><path class="cls-2" d="M35.24,8.9a1.74,1.74,0,0,1-1.51.94.1.1,0,0,1-.11-.07c.29-.2.65-.3.94-.54A.64.64,0,0,0,34,9.14c-.2.08-.24,0-.23-.18a.68.68,0,0,1,.8-.59,2.68,2.68,0,0,1,.6.21A.22.22,0,0,1,35.24,8.9Z"/><path class="cls-2" d="M31.26,8.89a2,2,0,0,1-1,.9.8.8,0,0,1-.46,0s-.1,0-.12-.05.05-.07.1-.09l.57-.26c.09-.05.24-.08.22-.2s-.18-.07-.27-.09h-.1a.82.82,0,0,0-.22,0c-.22.08-.24,0-.2-.19.11-.37.38-.79.91-.58.16.07.32.12.47.2A.22.22,0,0,1,31.26,8.89Z"/><path class="cls-2" d="M10,16.43a2.35,2.35,0,0,1-1,.91,1.07,1.07,0,0,1-.64,0c.05-.15.17-.14.26-.18a2.87,2.87,0,0,0,.63-.32c.09-.06.11-.11,0-.16a.64.64,0,0,0-.54,0c-.14.07-.17,0-.18-.12a.59.59,0,0,1,.7-.65,1.69,1.69,0,0,1,.72.23A.19.19,0,0,1,10,16.43Z"/><path class="cls-2" d="M46.76,23.2a.54.54,0,0,1-.47.54c-.23,0-.38.24-.56.38s-.12.18-.26.17a1.58,1.58,0,0,1,.28-.53v0c-.5-.1-.56-.2-.39-.69a.84.84,0,0,1,.78-.6c.13,0,.24.06.26.18s-.07.26-.14.38-.09,0-.13,0a.45.45,0,0,0-.28-.06.25.25,0,0,0-.23.21c0,.14.13.14.21.13C46.13,23.24,46.44,23.21,46.76,23.2Z"/><path class="cls-2" d="M21.75,8.33c-.14-.08-.26-.06-.28.12a1.21,1.21,0,0,1-.16.41c-.16.3-.14.37.16.54a9.39,9.39,0,0,1-2,1.34,3.41,3.41,0,0,0,.68-.23,2.71,2.71,0,0,0,1.43-.9c.08-.09.13-.12.25-.07.28.1.37,0,.42-.26A1.17,1.17,0,0,0,21.75,8.33ZM21.66,9c-.09.1-.18,0-.29,0,.07-.12.15-.18.26-.15S21.69,8.94,21.66,9Zm.17,0c.13,0,.15.16.2.3C21.86,9.19,21.75,9.13,21.83,9Z"/><path class="cls-2" d="M32.82,24.25c-.09.12-.23,0-.33,0-.29-.15-.27-.14-.48.12a3.29,3.29,0,0,1-1.93,1.18l-.36.07c.54-.36,1.14-.58,1.65-1a2,2,0,0,0,.84-.95l0,0c.1-.17.19-.38.43-.39s.17.15.22.26A.74.74,0,0,1,32.82,24.25Z"/><path class="cls-2" d="M43.41,18.63A2.2,2.2,0,0,1,43,19.85a3.61,3.61,0,0,0,0-1.82.91.91,0,0,0-.22-.35c-.07-.08-.2-.11-.2-.24a6.77,6.77,0,0,1,0-.78c0-.15.12,0,.17,0A2.37,2.37,0,0,1,43.41,18.63Z"/><path class="cls-2" d="M48,15.67a7.69,7.69,0,0,0,0-1.43,1.08,1.08,0,0,0-.45-.89.23.23,0,0,1-.09-.22v-.56c0-.06,0-.14.06-.16s.1,0,.14.07a2.33,2.33,0,0,1,.68,1.16A3,3,0,0,1,48,15.67Z"/><path class="cls-2" d="M12.64,12a4.33,4.33,0,0,0,.1-1,1.58,1.58,0,0,0-.45-1.26.19.19,0,0,1,0-.14V8.77A2.4,2.4,0,0,1,12.64,12Z"/><path class="cls-2" d="M24.21,11.86a6.84,6.84,0,0,0,.05-1.34,1.19,1.19,0,0,0-.42-.95.17.17,0,0,1-.08-.16V8.65C24.65,9.06,24.92,10.87,24.21,11.86Z"/><path class="cls-2" d="M35.76,15.51c.05.05,0,.11,0,.15s-.14.33-.22.49a.35.35,0,0,1-.35.22.36.36,0,0,1-.33-.28,1.51,1.51,0,0,1,.21-1.21,2.85,2.85,0,0,1,.9-1c-.16.26-.32.52-.47.78a1.82,1.82,0,0,0-.2.55.28.28,0,0,0,0,.28c.09.08.2,0,.3,0S35.7,15.43,35.76,15.51Z"/><path class="cls-2" d="M26.46,25.16a1.48,1.48,0,0,1-.16.46.42.42,0,0,1-.42.24.38.38,0,0,1-.32-.36,1.85,1.85,0,0,1,.24-1.08,4.12,4.12,0,0,1,.77-1,.11.11,0,0,1,.15,0c-.19.31-.4.58-.56.89a1.31,1.31,0,0,0-.15.51c0,.24.09.33.31.23S26.49,25,26.46,25.16Z"/><path class="cls-2" d="M32.09,18.72a.22.22,0,0,0,.08.24c.09.07.18,0,.27,0s.07-.09.12-.06,0,.11,0,.16a1.67,1.67,0,0,1-.23.51.35.35,0,0,1-.4.2c-.18,0-.24-.18-.28-.33a2,2,0,0,1,0-.22,2.22,2.22,0,0,1,.53-1.33,5.56,5.56,0,0,1,.47-.5s.08-.11.14-.05,0,.1,0,.14a4.31,4.31,0,0,0-.56.89A1.2,1.2,0,0,0,32.09,18.72Z"/><path class="cls-2" d="M28.17,17.81c-.14.43-.39.48-.71.13a1.55,1.55,0,0,1-.12.22.38.38,0,0,1-.34.15.26.26,0,0,1-.24-.24,3,3,0,0,1,0-.94c0-.06,0-.13.09-.12s.06.08.07.14a1.42,1.42,0,0,1,0,.46c0,.15,0,.3.16.31a.25.25,0,0,0,.29-.29c0-.13,0-.27-.06-.4s0-.15,0-.22.05-.11.12-.1.07.06.08.11a2.89,2.89,0,0,1,0,.29.76.76,0,0,0,.11.34c.05.1.14.19.26.14s0-.16,0-.24a1.12,1.12,0,0,0-.11-.25.31.31,0,0,1,.11-.43,5.39,5.39,0,0,1,.22.68A.58.58,0,0,1,28.17,17.81Z"/><path class="cls-2" d="M16.19,25.09c0,.05,0,.11,0,.16a1.63,1.63,0,0,1-.2.49.38.38,0,0,1-.4.19.33.33,0,0,1-.29-.28,1.62,1.62,0,0,1,.18-1.08,3.41,3.41,0,0,1,.91-1.12c-.17.35-.4.65-.55,1a1.33,1.33,0,0,0-.12.42c0,.25.07.31.31.24C16.08,25.09,16.14,25,16.19,25.09Z"/><path class="cls-2" d="M35.32,12.64a.37.37,0,0,1-.33.3c-.19,0-.27-.08-.33-.25-.07.13-.11.26-.23.33s-.45.05-.46-.2a4.71,4.71,0,0,1,0-.92c0-.06,0-.15.09-.14s.08.1.08.16a1.41,1.41,0,0,1,0,.46c-.05.18,0,.3.2.31s.3-.07.28-.27,0-.26,0-.39a1,1,0,0,1,0-.17c0-.07,0-.16.11-.17s.1.09.12.15l.09.52a.2.2,0,0,0,.18.2c.13,0,.22,0,.17-.17a1,1,0,0,0-.11-.3c-.11-.18-.07-.33.13-.48C35.21,12,35.43,12.28,35.32,12.64Z"/><path class="cls-2" d="M27.47,10.23c-.09.33-.27.37-.53.12,0,0,0,0-.05.05s-.17.3-.37.24a.35.35,0,0,1-.23-.41,1.41,1.41,0,0,0,0-.41c0-.14.06-.24.16-.35a1,1,0,0,1,0,.56c0,.12,0,.24.13.25a.2.2,0,0,0,.24-.21c0-.17,0-.33,0-.49s0-.17.07-.18.09.1.11.17a3.2,3.2,0,0,1,.07.33.33.33,0,0,0,.11.21s.08.09.15.05,0-.08,0-.13a.69.69,0,0,0-.08-.28.32.32,0,0,1,.09-.4,3.34,3.34,0,0,1,.14.67A.51.51,0,0,1,27.47,10.23Z"/><path class="cls-2" d="M10.21,18.29Z"/><path class="cls-1" d="M14.82,17.34c-.4,0-.76,0-1.12,0-.11,0-.13-.05-.09-.14l0-.06c.24-.61.53-.65.94-.14C14.66,17.1,14.73,17.21,14.82,17.34Z"/><path class="cls-1" d="M41.19,35.51a.94.94,0,0,1,.92-.65c1.09,0,2.19,0,3.28,0a1,1,0,0,1,.89.58.59.59,0,0,1-.56.75h-1.3a.19.19,0,0,1-.23-.14.57.57,0,0,0-.54-.39.56.56,0,0,0-.59.35.3.3,0,0,1-.34.18h-.91c-.08,0-.14,0-.14-.11A.54.54,0,0,0,41.19,35.51Z"/><path class="cls-1" d="M43.62,36.21h-.24c-.06,0-.15,0-.18,0s0-.14.09-.19a.47.47,0,0,1,.7.06s.07.08,0,.13-.08,0-.13,0Z"/><path class="cls-1" d="M43.22,36.49H44A.42.42,0,0,1,43.22,36.49Z"/><path class="cls-1" d="M29.71,21.37a4.68,4.68,0,0,0-1,.84,2,2,0,0,0-.39,1c0,.22-.09.26-.27.12a2.75,2.75,0,0,1-.78-1,2.38,2.38,0,0,1-.22-.7c0-.13,0-.15.14-.16Z"/><path class="cls-1" d="M30.65,17.48a4.33,4.33,0,0,0-.72.31c-.06,0-.09,0-.11,0a1.34,1.34,0,0,1-.07-.18c0-.1-.15-.19-.08-.28s.23-.07.35-.05A1.37,1.37,0,0,1,30.65,17.48Z"/><path class="cls-1" d="M11.06,15.78l-.34-.19c-.06,0-.16-.06-.15-.14s.13-.16.22-.2a.16.16,0,0,1,.21.08A.54.54,0,0,1,11.06,15.78Z"/><path class="cls-1" d="M9,9c-.07,0-.2,0-.2-.1s.05-.21.13-.2.17.13.19.24S9.08,9,9,9Z"/><path class="cls-1" d="M30.27,14.18,30,14.09c-.06,0-.15-.07-.13-.15a.24.24,0,0,1,.2-.17c.11,0,.13.07.14.15A.44.44,0,0,1,30.27,14.18Z"/><path class="cls-1" d="M22,9.26c-.17-.07-.28-.13-.2-.3C22,9,22,9.12,22,9.26Z"/><path class="cls-1" d="M21.37,9c.07-.12.15-.18.26-.15s.05.12,0,.15S21.48,9,21.37,9Z"/></g></g></g></svg>