<svg xmlns="http://www.w3.org/2000/svg" viewBox="0 0 309.38 118.69"><defs><style>.cls-1{fill:#5c8cea;}.cls-2{fill:#fff;}</style></defs><g id="Layer_2" data-name="Layer 2"><g id="Layer_1-2" data-name="Layer 1"><path class="cls-1" d="M40.52,29.54A36.26,36.26,0,0,1,42,33.13a39.29,39.29,0,0,1,1.23,4c.35,1.37.62,2.72.83,4a23,23,0,0,1,.32,3.58,14.12,14.12,0,0,1-1.18,5.85A13.52,13.52,0,0,1,40,55.19a15.1,15.1,0,0,1-5,3,18.39,18.39,0,0,1-6.39,1.06,21.62,21.62,0,0,1-6.65-.94,14.06,14.06,0,0,1-5-2.75,11.83,11.83,0,0,1-3.15-4.39,14.83,14.83,0,0,1-1.09-5.84A19.68,19.68,0,0,1,14,38.4a21.1,21.1,0,0,1,3.64-6.28l4.29,2.64a16.26,16.26,0,0,0-2.46,8.14,7.4,7.4,0,0,0,2.49,5.85,9.71,9.71,0,0,0,6.62,2.17,16.92,16.92,0,0,0,3.78-.4,12.78,12.78,0,0,0,3.1-1.09,6.53,6.53,0,0,0,2.09-1.63,3.07,3.07,0,0,0,.78-2,18.58,18.58,0,0,0-1.18-5.16A73.43,73.43,0,0,0,34,33.1ZM74,28.91q-.12,4.18-.49,7.4a28.19,28.19,0,0,1-.94,5A8.48,8.48,0,0,1,69,46.11a12,12,0,0,1-6.57,1.66,10.15,10.15,0,0,1-7.33-2.58,10.45,10.45,0,0,1-7.17,2.58q-8.31,0-9.17-8L41.67,35q1.48,4.75,6.07,4.76,4,0,4.53-3.16c.08-.42.16-.92.26-1.51s.2-1.21.31-1.84.22-1.26.32-1.89.18-1.23.26-1.81l6,.75c-.11.73-.21,1.45-.28,2.18s-.16,1.39-.23,2-.14,1.14-.17,1.58-.06.74-.06.89a2.35,2.35,0,0,0,1.14,2,5.22,5.22,0,0,0,3,.78,4.74,4.74,0,0,0,2.93-.83,3.71,3.71,0,0,0,1.37-2.33c0-.34.1-.84.18-1.49s.16-1.35.25-2.12.17-1.55.23-2.37.13-1.6.2-2.33Zm4.53,18.86a12,12,0,0,1-6-1.43,8.49,8.49,0,0,1-3.67-4.07l4.3-5.85q0,3.11,5.39,3.1l.92.57V47.2Z"/><path class="cls-1" d="M102.53,47.77A24.35,24.35,0,0,1,96.06,47a11.47,11.47,0,0,1-4.65-2.58A12.15,12.15,0,0,1,86.34,47a32.31,32.31,0,0,1-7.82.8l-.92-.57V40.09l.92-.57a48.07,48.07,0,0,0,5.24-.23,13.24,13.24,0,0,0,3.41-.81L80.24,25.73,81.33,19q4.86-2.75,10-5.14t9.86-4.29l1.37,7.16-4.78,1.77-4,1.51c-1.22.48-2.4,1-3.55,1.46s-2.31,1-3.5,1.54l7,12.75A8.9,8.9,0,0,0,95,37.65a4.73,4.73,0,0,0,1.66,1.12,9.32,9.32,0,0,0,2.38.58,30.19,30.19,0,0,0,3.46.17l.92.57V47.2Z"/><path class="cls-1" d="M120.7,48.29a12.33,12.33,0,0,1-9.8-4.59,9.74,9.74,0,0,1-8.37,4.07l-.91-.57V40.09l.91-.57a9.39,9.39,0,0,0,1.89-.17,3.8,3.8,0,0,0,1.46-.66,7.51,7.51,0,0,0,1.3-1.29,14.73,14.73,0,0,0,1.31-2.07l2.87-4.93a15,15,0,0,1,4.18-4.95,8.39,8.39,0,0,1,5-1.69,7.67,7.67,0,0,1,3.93,1.09,11.13,11.13,0,0,1,3.26,2.92,14.2,14.2,0,0,1,2.21,4.3,17.05,17.05,0,0,1,.8,5.27q0,5.16-2.66,8A9.54,9.54,0,0,1,120.7,48.29Zm-6.36-10.95a8.26,8.26,0,0,0,3,2.29,8.42,8.42,0,0,0,3.7.86,3.89,3.89,0,0,0,2.8-1,3.52,3.52,0,0,0,1.09-2.69,5,5,0,0,0-1.37-3.53,4.42,4.42,0,0,0-3.32-1.46q-3.1,0-5.22,4.36Z"/><path class="cls-1" d="M136.58,47.77l-.46-36.91,7-1.26-.46,38.17Z"/><path class="cls-1" d="M145.23,52.18a55.1,55.1,0,0,0,5.7-2.69,34.75,34.75,0,0,0,4.47-2.87,16.17,16.17,0,0,0,2.93-2.78,4.16,4.16,0,0,0,1.06-2.49,7.64,7.64,0,0,0-.46-2.18q-.47-1.37-1.26-3.12c-.54-1.17-1.16-2.4-1.86-3.7s-1.49-2.59-2.33-3.89l6.42-3.56A28.58,28.58,0,0,1,164,32.55a23.61,23.61,0,0,1,1.49,7.94,15.19,15.19,0,0,1-1.12,5.76,17.85,17.85,0,0,1-3.24,5.19A25.13,25.13,0,0,1,156,55.82a34.75,34.75,0,0,1-6.88,3.41Z"/><path class="cls-1" d="M171.25,47.77l-.46-36.91,7.05-1.26-.46,38.17Z"/><path class="cls-1" d="M219.05,47.77a12.94,12.94,0,0,1-7-1.66,7.44,7.44,0,0,1-3.38-4.76,10.92,10.92,0,0,1-2.75,1.26,10.39,10.39,0,0,1-3.1.46,11,11,0,0,1-4-.69,9,9,0,0,1-3.1-1.92,8.43,8.43,0,0,1-2-3,9.68,9.68,0,0,1-.72-3.78,10.66,10.66,0,0,1,3.84-8.28q3.84-3.42,11.18-5.13L208,16.48l6.71-1.21-.35,20.18a3.82,3.82,0,0,0,1,3.09,5.49,5.49,0,0,0,3.67,1l.92.57V47.2ZM208.28,13.38l-3.84-3.84-3.84,3.84-5-5,5-5,3.84,3.84,3.84-3.84,5,5Zm-4,21.9a10.69,10.69,0,0,0,4-.69l-.11-7a21,21,0,0,0-3.58.51,13.72,13.72,0,0,0-2.95,1,6.13,6.13,0,0,0-2,1.47A2.56,2.56,0,0,0,199,32.3a2.41,2.41,0,0,0,1.4,2.2A8.19,8.19,0,0,0,204.32,35.28Z"/><path class="cls-1" d="M218.13,47.2V40.09l.92-.57c1.38,0,2.83-.08,4.36-.23s2.93-.36,4.21-.61a20,20,0,0,0,3.18-.83c.84-.3,1.26-.59,1.26-.86a4,4,0,0,0-.86-2,22.69,22.69,0,0,0-2.32-2.79A43.47,43.47,0,0,0,225.41,29q-2-1.67-4.24-3.28l1.09-6.7q4.88-2.75,9.94-5.14t9.89-4.29l1.37,7.16L239,18.42c-1.34.49-2.59,1-3.76,1.42l-3.32,1.34-3.18,1.34a33.78,33.78,0,0,1,7.16,7.81,14.19,14.19,0,0,1,2.29,7.51q0,4.94-4.84,7.43t-14.3,2.5Z"/><path class="cls-1" d="M265.53,47.77A14.83,14.83,0,0,1,262,47.4a10.74,10.74,0,0,1-3-1.23,19.79,19.79,0,0,1-5.64,7.56,30.53,30.53,0,0,1-9.66,5.5l-3.89-7Q252.3,47,254.47,41.35a23,23,0,0,1-1.8-3.55q-.84-2-2-5.22l6.76-3.15c.31,1,.62,1.92.95,2.89s.71,2.08,1.17,3.3a13.39,13.39,0,0,0,.92,2,3.74,3.74,0,0,0,1.09,1.2,3.62,3.62,0,0,0,1.57.57,15.68,15.68,0,0,0,2.38.15l.92.57V47.2Z"/><path class="cls-1" d="M264.62,47.2V40.09l.91-.57a7.78,7.78,0,0,0,2.18-.26,3.33,3.33,0,0,0,1.55-1.06,8.56,8.56,0,0,0,1.29-2.38c.4-1,.87-2.47,1.4-4.27L277.68,33A67,67,0,0,1,276,40.43a12.68,12.68,0,0,1-2.21,4.5,6.73,6.73,0,0,1-3.32,2.24,17.36,17.36,0,0,1-5,.6Zm31,.57a10.15,10.15,0,0,1-7.33-2.58,10.45,10.45,0,0,1-7.17,2.58q-8.31,0-9.17-8L274.87,35c1,3.17,3,4.76,6.08,4.76,2.64,0,4.14-1,4.53-3.16.07-.42.16-.92.25-1.51s.21-1.21.32-1.84.22-1.26.32-1.89.18-1.23.25-1.81l6,.75c-.11.73-.21,1.45-.29,2.18s-.15,1.39-.23,2-.13,1.14-.17,1.58-.05.74-.05.89A2.35,2.35,0,0,0,293,39a5.22,5.22,0,0,0,3,.78,7.42,7.42,0,0,0,1.81-.23,6.2,6.2,0,0,0,1.57-.63,3.87,3.87,0,0,0,1.09-.92,1.66,1.66,0,0,0,.4-1,9.9,9.9,0,0,0-.31-2.24,27.55,27.55,0,0,0-.86-2.83c-.36-1-.78-2-1.26-3.07a31.33,31.33,0,0,0-1.58-3l6.42-3.61a23.72,23.72,0,0,1,1.49,3.07A30.44,30.44,0,0,1,306,28.77a30.83,30.83,0,0,1,.74,3.61,24.92,24.92,0,0,1,.26,3.47q0,5.91-2.87,8.91C302.19,46.77,299.37,47.77,295.62,47.77Zm-5.16-24.19-3.84-3.84-3.84,3.84-5-5,5-5,3.84,3.84,3.84-3.84,5,5Zm-3.84-9.22-5-5,5-5,5,5Z"/><path class="cls-2" d="M63.14,92.48a7.57,7.57,0,0,1-4.59-1.15v.5a8.16,8.16,0,0,1-.68,3.4,7.6,7.6,0,0,1-1.93,2.62,8.76,8.76,0,0,1-3,1.68,12.11,12.11,0,0,1-3.88.59,10,10,0,0,1-7-2.29,8.14,8.14,0,0,1-2.52-6.34,12.61,12.61,0,0,1,.76-4.23,14.4,14.4,0,0,1,2.14-4l2,1.22a11.44,11.44,0,0,0-2,6.12,5.66,5.66,0,0,0,1.74,4.43,7,7,0,0,0,4.87,1.57,9.81,9.81,0,0,0,2.65-.35,7.91,7.91,0,0,0,2.16-.93A5.1,5.1,0,0,0,55.35,94a3,3,0,0,0,.53-1.7l-.19-23.92,3-.53-.16,19.29a3.35,3.35,0,0,0,1.63,1.49,8,8,0,0,0,3,.42l.61.38V92.1Z"/><path class="cls-2" d="M75.75,92.48q-4.47,0-6-2.56a4.82,4.82,0,0,1-2.5,1.89,11.5,11.5,0,0,1-4.15.67l-.61-.38V89.42l.61-.38a9.07,9.07,0,0,0,3.69-.57,2.68,2.68,0,0,0,1.51-1.91c0-.28.11-.63.19-1s.15-.85.23-1.28.14-.87.19-1.3.1-.82.15-1.15l2.6.31c-.13,1.07-.24,2-.34,2.94s-.16,1.44-.16,1.64Q71.2,89,75.75,89l.61.38V92.1ZM67,100.35l-2.37-2.41L67,95.54l2.37,2.4Zm5.58,0-2.37-2.41,2.37-2.4L75,97.94Z"/><path class="cls-2" d="M75.14,92.1V89.42l.61-.38a8.7,8.7,0,0,0,1.93-.23A2.6,2.6,0,0,0,79,88.05a5.39,5.39,0,0,0,1-1.68c.29-.74.62-1.72,1-3l2.48.69a32.51,32.51,0,0,1-1,4.19A7.15,7.15,0,0,1,81,90.84a4.4,4.4,0,0,1-2.09,1.26,12.49,12.49,0,0,1-3.11.38Zm6.49-4.85a6.69,6.69,0,0,0,1.76,1,15.06,15.06,0,0,0,2.33.65,28.65,28.65,0,0,1,5.16-8.52q2.79-2.94,5.65-2.94a5.57,5.57,0,0,1,2.56.59,6.4,6.4,0,0,1,2.07,1.64,7.88,7.88,0,0,1,1.37,2.47,9,9,0,0,1,.5,3,6.3,6.3,0,0,1-3.09,5.64q-3.1,2-8.91,2a26.1,26.1,0,0,1-6.32-.67,8.66,8.66,0,0,1-3.92-1.93ZM96.5,80.94A5.89,5.89,0,0,0,92.37,83a23.67,23.67,0,0,0-4.05,6.15c.46,0,.94,0,1.45.06l1.64,0a16.47,16.47,0,0,0,6.69-1,3.36,3.36,0,0,0,2.26-3.11,4.38,4.38,0,0,0-1.15-3A3.88,3.88,0,0,0,98,81.27,3.43,3.43,0,0,0,96.5,80.94Z"/><path class="cls-2" d="M120.61,92.48h-2.53a10.59,10.59,0,0,1-3.74,5.1,13.77,13.77,0,0,1-6.57,2.54L106.39,97q7.23-1,9.1-4.85h-1.34a8.85,8.85,0,0,1-5.73-1.65,5.7,5.7,0,0,1-2-4.7,9.09,9.09,0,0,1,.46-3,7.88,7.88,0,0,1,1.26-2.35A5.65,5.65,0,0,1,110,78.94a5.31,5.31,0,0,1,2.41-.56A5.2,5.2,0,0,1,117.07,81c1.11,1.76,1.66,4.3,1.66,7.64V89h1.88l.61.38V92.1ZM109,85.72Q109,89,114.57,89h1.6a11.69,11.69,0,0,0-1-5.46,3.11,3.11,0,0,0-2.85-1.87,3,3,0,0,0-2.42,1.1A4.33,4.33,0,0,0,109,85.72Z"/><path class="cls-2" d="M133.21,92.48c-3,0-5-.85-6-2.56a4.82,4.82,0,0,1-2.5,1.89,11.44,11.44,0,0,1-4.14.67L120,92.1V89.42l.62-.38a9,9,0,0,0,3.68-.57,2.64,2.64,0,0,0,1.51-1.91c0-.28.12-.63.19-1s.16-.85.23-1.28.14-.87.19-1.3.11-.82.16-1.15l2.59.31c-.12,1.07-.24,2-.34,2.94s-.15,1.44-.15,1.64q0,2.37,4.54,2.37l.62.38V92.1ZM125.3,78.69l-2.36-2.41,2.36-2.41,2.37,2.41Zm5.58,0-2.36-2.41,2.36-2.41,2.37,2.41Z"/><path class="cls-2" d="M132.6,92.1V89.42l.61-.38a14.35,14.35,0,0,0,1.61-.09,7,7,0,0,0,1.43-.33,2.87,2.87,0,0,0,1-.61,1.22,1.22,0,0,0,.41-.92l-.12-18.72,3-.53-.15,19a5.2,5.2,0,0,1-.64,2.69,5.13,5.13,0,0,1-1.64,1.76,6.89,6.89,0,0,1-2.29,1,12.18,12.18,0,0,1-2.66.29Z"/><path class="cls-2" d="M145.59,92.48l-.19-24.11,3-.53-.19,24.64Z"/><path class="cls-2" d="M152.85,97q8.27-1.15,9.52-6a5.59,5.59,0,0,1-1.78.88,7.52,7.52,0,0,1-2.16.3,5.11,5.11,0,0,1-4.05-1.75,6.81,6.81,0,0,1-1.53-4.63,9.37,9.37,0,0,1,.46-3,7.88,7.88,0,0,1,1.26-2.35,5.65,5.65,0,0,1,1.91-1.54,5.34,5.34,0,0,1,2.41-.56,5.17,5.17,0,0,1,4.64,2.7,14.42,14.42,0,0,1,1.67,7.58,11.3,11.3,0,0,1-.79,4.24,10.63,10.63,0,0,1-2.21,3.44,12,12,0,0,1-3.46,2.46,15.18,15.18,0,0,1-4.51,1.32Zm6.08-7.91a6.94,6.94,0,0,0,2.08-.31A4.62,4.62,0,0,0,162.6,88a10.2,10.2,0,0,0-1.13-4.66,3,3,0,0,0-2.69-1.64,3,3,0,0,0-2.43,1.1,4.38,4.38,0,0,0-.94,2.91,3.24,3.24,0,0,0,.94,2.48A3.59,3.59,0,0,0,158.93,89.08Z"/><path class="cls-2" d="M192.86,81.78a25.33,25.33,0,0,1,1,2.49c.31.89.57,1.78.8,2.67s.42,1.75.56,2.56a12.92,12.92,0,0,1,.21,2.14,7.76,7.76,0,0,1-.75,3.4,8,8,0,0,1-2.06,2.69,9.46,9.46,0,0,1-3.13,1.76,12.12,12.12,0,0,1-4,.63,12.76,12.76,0,0,1-4.08-.61,9.18,9.18,0,0,1-3.14-1.74,7.39,7.39,0,0,1-2-2.73,8.89,8.89,0,0,1-.69-3.55,12.61,12.61,0,0,1,.76-4.23,14.4,14.4,0,0,1,2.14-4l1.95,1.22a11.44,11.44,0,0,0-1.95,6.12A5.46,5.46,0,0,0,180.38,95a7.58,7.58,0,0,0,5.1,1.63,10.84,10.84,0,0,0,2.77-.35,8.87,8.87,0,0,0,2.32-1,5.72,5.72,0,0,0,1.58-1.4,2.66,2.66,0,0,0,.59-1.66,9.85,9.85,0,0,0-.19-1.8A19.73,19.73,0,0,0,192,88.3c-.23-.78-.51-1.6-.84-2.47s-.7-1.72-1.11-2.56Zm-7.76-1.56-2.37-2.41,2.37-2.41,2.37,2.41Zm13.34,12.26a7.36,7.36,0,0,1-3.79-.9,4.65,4.65,0,0,1-2.1-2.54l2-2.41a2,2,0,0,0,1,1.78,5.51,5.51,0,0,0,2.89.63l.61.38V92.1Z"/><path class="cls-2" d="M207.88,86.24c.89-.43,1.69-.81,2.42-1.13a21.15,21.15,0,0,1,2.08-.79l-1.95-.83c-.84-.36-1.56-.65-2.17-.89s-1.15-.43-1.61-.57a12.17,12.17,0,0,0-1.22-.31,6.24,6.24,0,0,0-1-.09,3.55,3.55,0,0,0-1.66.34,5.78,5.78,0,0,0-1.51,1.26l-1.76-1.37a7.23,7.23,0,0,1,2.35-2.66,5.82,5.82,0,0,1,3.11-.82,6.77,6.77,0,0,1,1.17.1,10.9,10.9,0,0,1,1.32.3,16.7,16.7,0,0,1,1.66.6c.62.25,1.35.57,2.2,1,.68.31,1.29.57,1.81.78s1,.4,1.39.54a6.44,6.44,0,0,0,1.11.28,5.55,5.55,0,0,0,1,.08h.76v3.21c-.59.15-1.16.33-1.72.52a18.35,18.35,0,0,0-1.76.7c-.61.28-1.28.61-2,1s-1.55.82-2.47,1.35c-1.22.69-2.32,1.28-3.3,1.76a20.6,20.6,0,0,1-2.75,1.15,16.76,16.76,0,0,1-2.47.61,15,15,0,0,1-2.44.19l-.61-.38V89.42l.61-.38a15.36,15.36,0,0,0,2.16-.15,14.64,14.64,0,0,0,2.15-.48,24,24,0,0,0,2.37-.86C206,87.19,206.88,86.75,207.88,86.24Zm12,6.24a6.24,6.24,0,0,1-4.72-1.59,6.49,6.49,0,0,1-1.51-4.64c0-.51,0-.93,0-1.28a8.11,8.11,0,0,1,.16-1h2.1c-.06.49-.09.84-.12,1s0,.43,0,.63a5.91,5.91,0,0,0,.19,1.57,2.25,2.25,0,0,0,.67,1.07,3,3,0,0,0,1.26.61,8.41,8.41,0,0,0,2,.19l.61.38V92.1Z"/><path class="cls-2" d="M219.26,92.1V89.42l.61-.38a8.7,8.7,0,0,0,1.93-.23,2.56,2.56,0,0,0,1.28-.76,5.2,5.2,0,0,0,1-1.68c.3-.74.62-1.72,1-3l2.48.69a32.51,32.51,0,0,1-1,4.19,7.15,7.15,0,0,1-1.39,2.54A4.37,4.37,0,0,1,223,92.1a12.64,12.64,0,0,1-3.12.38ZM247,81.4l-.21,2.52c-.06.71-.13,1.35-.19,1.91s-.14,1.06-.23,1.49-.19.84-.29,1.22c-.74,2.63-2.77,3.94-6.11,3.94a5.45,5.45,0,0,1-4.74-2.06A5.23,5.23,0,0,1,233.15,92a7.59,7.59,0,0,1-2.89.53,5.81,5.81,0,0,1-3.84-1.2,5.29,5.29,0,0,1-1.73-3.5L226,85.37a5,5,0,0,0,1.45,2.83,4.34,4.34,0,0,0,2.91.88c2.14,0,3.37-.84,3.71-2.52,0-.28.11-.63.19-1s.15-.85.23-1.28.13-.87.19-1.3.1-.82.15-1.15l2.6.31c-.13,1.07-.24,2-.35,2.94s-.15,1.44-.15,1.64a2.08,2.08,0,0,0,.86,1.78,4.13,4.13,0,0,0,2.47.63c2,0,3.13-.78,3.43-2.33q.07-.34.18-1c.06-.44.12-.91.19-1.44s.12-1.06.17-1.62.1-1.07.15-1.53ZM233.59,77l-2.37-2.41,2.37-2.41L236,74.6Zm2.79-4.93L234,69.67l2.37-2.41,2.37,2.41ZM239.17,77,236.8,74.6l2.37-2.41,2.37,2.41ZM250,92.48a7.32,7.32,0,0,1-3.78-.9A4.67,4.67,0,0,1,244.13,89l2-2.41a2,2,0,0,0,1,1.78A5.51,5.51,0,0,0,250,89l.61.38V92.1Z"/><path class="cls-2" d="M261.83,92.48a9.67,9.67,0,0,1-3.54-.55,4.89,4.89,0,0,1-2.2-1.67,5,5,0,0,1-2.4,1.67,11,11,0,0,1-3.67.55l-.61-.38V89.42L250,89a8.46,8.46,0,0,0,3.28-.51c.79-.35,1.19-.83,1.19-1.44l-.11-18.72,3-.53-.15,19.29a3.35,3.35,0,0,0,1.63,1.49,8,8,0,0,0,3,.42l.61.38V92.1Z"/><path class="cls-2" d="M261.21,92.1V89.42l.61-.38a14.48,14.48,0,0,0,1.61-.09,7,7,0,0,0,1.43-.33,2.87,2.87,0,0,0,1-.61,1.21,1.21,0,0,0,.4-.92l-.11-18.72,3-.53-.15,19a5.3,5.3,0,0,1-.63,2.69,5.16,5.16,0,0,1-1.65,1.76,6.89,6.89,0,0,1-2.29,1,12.18,12.18,0,0,1-2.66.29Z"/></g></g></svg>