<svg xmlns="http://www.w3.org/2000/svg" viewBox="0 0 244.44 118.69"><defs><style>.cls-1{fill:#5c8cea;}.cls-2{fill:#fff;}</style></defs><g id="Layer_2" data-name="Layer 2"><g id="Layer_1-2" data-name="Layer 1"><path class="cls-1" d="M49,47.77a11.81,11.81,0,0,1-6-1.32,14.1,14.1,0,0,1-1.29,5.3,11.84,11.84,0,0,1-3,4A13.22,13.22,0,0,1,34,58.34a19.15,19.15,0,0,1-6,.89,19.31,19.31,0,0,1-6.36-1,14,14,0,0,1-4.82-2.78,11.9,11.9,0,0,1-3.07-4.39,15.15,15.15,0,0,1-1.05-5.78A19.68,19.68,0,0,1,14,38.4a21.29,21.29,0,0,1,3.63-6.28l4.3,2.64a18,18,0,0,0-1.83,4.13,14.08,14.08,0,0,0-.63,4,7.77,7.77,0,0,0,2.2,6A9,9,0,0,0,28,50.92a16,16,0,0,0,3.58-.37,10.43,10.43,0,0,0,2.84-1.06,5.33,5.33,0,0,0,1.83-1.63,3.61,3.61,0,0,0,.63-2l-.4-35,7-1.26-.34,27.85a4.9,4.9,0,0,0,2.17,1.61,11.18,11.18,0,0,0,3.67.46l.92.57V47.2Z"/><path class="cls-1" d="M63.62,60.09l-5-5,5-5,5,5Z"/><path class="cls-1" d="M62.24,36.23l2.87-1.15c.87-.34,1.73-.65,2.58-.92-1.34-.49-2.51-.91-3.5-1.25s-1.86-.61-2.61-.82a18.09,18.09,0,0,0-1.92-.45,8.09,8.09,0,0,0-1.49-.15,6.07,6.07,0,0,0-2.32.4,6,6,0,0,0-1.92,1.44l-4-3a12.23,12.23,0,0,1,4-4.84,9.35,9.35,0,0,1,5.47-1.69,15.34,15.34,0,0,1,4,.6,49.56,49.56,0,0,1,5.93,2.2,30.13,30.13,0,0,0,4.7,1.75,13.68,13.68,0,0,0,3.38.43h1.14v7.74c-.91.23-1.8.5-2.66.8s-1.77.67-2.72,1.09-2,.94-3.13,1.55-2.43,1.34-3.92,2.18c-1.91,1.11-3.62,2-5.13,2.75A39.73,39.73,0,0,1,56.8,46.6a20.51,20.51,0,0,1-3.82.91,29.35,29.35,0,0,1-4,.26l-.92-.57V40.09l.92-.57a26.43,26.43,0,0,0,3.12-.18,23.81,23.81,0,0,0,3.07-.54,30.72,30.72,0,0,0,3.27-1C59.6,37.37,60.87,36.85,62.24,36.23Z"/><path class="cls-1" d="M84.88,47.77l-.46-36.91,7-1.26L91,47.77Z"/><path class="cls-1" d="M93.54,52.18a56.1,56.1,0,0,0,5.7-2.69,36.2,36.2,0,0,0,4.47-2.87,16.42,16.42,0,0,0,2.92-2.78,4.1,4.1,0,0,0,1.06-2.49,7.3,7.3,0,0,0-.46-2.18A30,30,0,0,0,106,36.05c-.53-1.17-1.16-2.4-1.86-3.7s-1.48-2.59-2.32-3.89l6.42-3.56a28.83,28.83,0,0,1,4.12,7.65,23.36,23.36,0,0,1,1.49,7.94,15.37,15.37,0,0,1-1.11,5.76,18.29,18.29,0,0,1-3.24,5.19,25.47,25.47,0,0,1-5.16,4.38,34.75,34.75,0,0,1-6.88,3.41Zm11-30.43-5-5,5-5,5,5Z"/><path class="cls-1" d="M154.11,47.77a13,13,0,0,1-7-1.66,7.47,7.47,0,0,1-3.38-4.76A10.92,10.92,0,0,1,141,42.61a10.34,10.34,0,0,1-3.1.46,11.09,11.09,0,0,1-4-.69,9,9,0,0,1-3.09-1.92,8.59,8.59,0,0,1-2-3,9.68,9.68,0,0,1-.72-3.78,10.66,10.66,0,0,1,3.84-8.28q3.84-3.42,11.18-5.13l-.06-3.84,6.71-1.21-.35,20.18a3.82,3.82,0,0,0,1,3.09,5.44,5.44,0,0,0,3.66,1l.92.57V47.2ZM143.34,13.38,139.5,9.54l-3.84,3.84-5-5,5-5,3.84,3.84,3.84-3.84,5,5Zm-4,21.9a10.78,10.78,0,0,0,4-.69l-.12-7a21.14,21.14,0,0,0-3.58.51,13.72,13.72,0,0,0-2.95,1,6.24,6.24,0,0,0-2,1.47,2.56,2.56,0,0,0-.72,1.69,2.4,2.4,0,0,0,1.41,2.2A8.12,8.12,0,0,0,139.38,35.28Z"/><path class="cls-1" d="M153.2,47.2V40.09l.91-.57c1.38,0,2.83-.08,4.36-.23s2.93-.36,4.21-.61a20,20,0,0,0,3.18-.83c.84-.3,1.26-.59,1.26-.86a3.93,3.93,0,0,0-.86-2,21.81,21.81,0,0,0-2.32-2.79A41.81,41.81,0,0,0,160.47,29c-1.33-1.11-2.75-2.2-4.24-3.28l1.09-6.7q4.88-2.75,10-5.14t9.88-4.29l1.38,7.16-4.47,1.66c-1.34.49-2.59,1-3.76,1.42L167,21.18l-3.18,1.34A33.33,33.33,0,0,1,171,30.33a14.2,14.2,0,0,1,2.3,7.51q0,4.94-4.85,7.43t-14.3,2.5Z"/><path class="cls-1" d="M200.6,47.77a14.92,14.92,0,0,1-3.5-.37,10.68,10.68,0,0,1-3-1.23,19.82,19.82,0,0,1-5.65,7.56,30.48,30.48,0,0,1-9.65,5.5l-3.9-7q12.44-5.2,14.61-10.83a23,23,0,0,1-1.8-3.55c-.56-1.34-1.21-3.08-2-5.22l6.76-3.15c.31,1,.62,1.92,1,2.89s.72,2.08,1.17,3.3a14.49,14.49,0,0,0,.92,2,3.86,3.86,0,0,0,1.09,1.2,3.66,3.66,0,0,0,1.58.57,15.58,15.58,0,0,0,2.38.15l.91.57V47.2Z"/><path class="cls-1" d="M199.68,47.2V40.09l.92-.57a7.75,7.75,0,0,0,2.17-.26,3.28,3.28,0,0,0,1.55-1.06,8.07,8.07,0,0,0,1.29-2.38c.4-1,.87-2.47,1.4-4.27L212.75,33a66.74,66.74,0,0,1-1.67,7.39,12.85,12.85,0,0,1-2.2,4.5,6.8,6.8,0,0,1-3.33,2.24,17.34,17.34,0,0,1-5,.6Zm31,.57a10.16,10.16,0,0,1-7.34-2.58,10.45,10.45,0,0,1-7.17,2.58q-8.31,0-9.17-8L209.94,35c1,3.17,3,4.76,6.07,4.76q4,0,4.53-3.16c.08-.42.16-.92.26-1.51s.2-1.21.31-1.84.22-1.26.32-1.89.18-1.23.26-1.81l6,.75c-.12.73-.22,1.45-.29,2.18s-.16,1.39-.23,2-.14,1.14-.17,1.58-.06.74-.06.89a2.33,2.33,0,0,0,1.15,2,5.17,5.17,0,0,0,3,.78,7.28,7.28,0,0,0,1.8-.23,6.44,6.44,0,0,0,1.58-.63,3.87,3.87,0,0,0,1.09-.92,1.72,1.72,0,0,0,.4-1,10,10,0,0,0-.32-2.24,27.55,27.55,0,0,0-.86-2.83c-.36-1-.78-2-1.26-3.07s-1-2-1.57-3l6.42-3.61a25.1,25.1,0,0,1,1.49,3.07A30.4,30.4,0,0,1,241,28.77a33.08,33.08,0,0,1,.75,3.61,24.86,24.86,0,0,1,.25,3.47q0,5.91-2.86,8.91T230.69,47.77Zm-5.16-24.19-3.84-3.84-3.84,3.84-5-5,5-5,3.84,3.84,3.84-3.84,5,5Zm-3.84-9.22-5-5,5-5,5,5Z"/><path class="cls-2" d="M30.67,92.48a7.54,7.54,0,0,1-4.58-1.15v.5a8.17,8.17,0,0,1-.69,3.4,7.6,7.6,0,0,1-1.93,2.62,8.76,8.76,0,0,1-3,1.68,12.11,12.11,0,0,1-3.88.59,10,10,0,0,1-7-2.29A8.14,8.14,0,0,1,7.1,91.49a12.61,12.61,0,0,1,.76-4.23,14.4,14.4,0,0,1,2.14-4L12,84.53A11.44,11.44,0,0,0,10,90.65a5.66,5.66,0,0,0,1.74,4.43,7,7,0,0,0,4.87,1.57,9.94,9.94,0,0,0,2.66-.35,8.19,8.19,0,0,0,2.16-.93A5.19,5.19,0,0,0,22.88,94a3,3,0,0,0,.53-1.7l-.19-23.92,3-.53-.15,19.29a3.32,3.32,0,0,0,1.62,1.49,8,8,0,0,0,3,.42l.61.38V92.1Z"/><path class="cls-2" d="M43.28,92.48q-4.47,0-6-2.56a4.82,4.82,0,0,1-2.5,1.89,11.46,11.46,0,0,1-4.15.67l-.61-.38V89.42l.61-.38a9,9,0,0,0,3.69-.57,2.68,2.68,0,0,0,1.51-1.91c.05-.28.11-.63.19-1s.15-.85.23-1.28.14-.87.19-1.3.1-.82.15-1.15l2.6.31c-.13,1.07-.24,2-.34,2.94s-.16,1.44-.16,1.64q0,2.37,4.55,2.37l.61.38V92.1Zm-8.71,7.87L32.2,97.94l2.37-2.4,2.37,2.4Zm5.58,0-2.37-2.41,2.37-2.4,2.37,2.4Z"/><path class="cls-2" d="M42.67,92.1V89.42l.61-.38a8.7,8.7,0,0,0,1.93-.23,2.56,2.56,0,0,0,1.28-.76,5.2,5.2,0,0,0,1-1.68c.3-.74.62-1.72,1-3l2.48.69a32.51,32.51,0,0,1-1.05,4.19,7.15,7.15,0,0,1-1.39,2.54,4.36,4.36,0,0,1-2.09,1.26,12.49,12.49,0,0,1-3.11.38Zm6.49-4.85a6.69,6.69,0,0,0,1.76,1,15.06,15.06,0,0,0,2.33.65,28.65,28.65,0,0,1,5.16-8.52q2.79-2.94,5.65-2.94a5.54,5.54,0,0,1,2.56.59,6.4,6.4,0,0,1,2.07,1.64,7.88,7.88,0,0,1,1.37,2.47,9,9,0,0,1,.5,3,6.3,6.3,0,0,1-3.09,5.64c-2.07,1.31-5,2-8.91,2a26.1,26.1,0,0,1-6.32-.67,8.66,8.66,0,0,1-3.92-1.93ZM64,80.94A5.91,5.91,0,0,0,59.9,83a23.93,23.93,0,0,0-4,6.15c.46,0,.94,0,1.45.06l1.65,0a16.45,16.45,0,0,0,6.68-1,3.36,3.36,0,0,0,2.26-3.11,4.39,4.39,0,0,0-.31-1.61,4.22,4.22,0,0,0-.84-1.34,3.88,3.88,0,0,0-1.24-.89A3.43,3.43,0,0,0,64,80.94Z"/><path class="cls-2" d="M88.14,92.48H85.62a10.67,10.67,0,0,1-3.75,5.1,13.77,13.77,0,0,1-6.57,2.54L73.92,97q7.23-1,9.1-4.85H81.68A8.85,8.85,0,0,1,76,90.49a5.7,5.7,0,0,1-2-4.7,9.37,9.37,0,0,1,.46-3,7.88,7.88,0,0,1,1.26-2.35,5.65,5.65,0,0,1,1.91-1.54A5.31,5.31,0,0,1,80,78.38,5.2,5.2,0,0,1,84.6,81c1.11,1.76,1.67,4.3,1.67,7.64V89h1.87l.61.38V92.1ZM76.48,85.72c0,2.21,1.88,3.32,5.62,3.32h1.61a11.67,11.67,0,0,0-1-5.46,3.11,3.11,0,0,0-2.84-1.87,3,3,0,0,0-2.43,1.1A4.33,4.33,0,0,0,76.48,85.72Z"/><path class="cls-2" d="M100.75,92.48q-4.47,0-6-2.56a4.85,4.85,0,0,1-2.51,1.89,11.44,11.44,0,0,1-4.14.67l-.61-.38V89.42l.61-.38a9,9,0,0,0,3.68-.57,2.64,2.64,0,0,0,1.51-1.91c0-.28.12-.63.2-1s.15-.85.22-1.28.14-.87.2-1.3.1-.82.15-1.15l2.6.31c-.13,1.07-.25,2-.35,2.94s-.15,1.44-.15,1.64c0,1.58,1.51,2.37,4.55,2.37l.61.38V92.1ZM92.84,78.69l-2.37-2.41,2.37-2.41,2.37,2.41Zm5.58,0-2.37-2.41,2.37-2.41,2.37,2.41Z"/><path class="cls-2" d="M100.13,92.1V89.42l.62-.38a14.3,14.3,0,0,0,1.6-.09,7,7,0,0,0,1.43-.33,2.87,2.87,0,0,0,1-.61,1.22,1.22,0,0,0,.41-.92l-.12-18.72,3-.53-.15,19a5.3,5.3,0,0,1-.63,2.69,5.16,5.16,0,0,1-1.65,1.76,6.89,6.89,0,0,1-2.29,1,12.16,12.16,0,0,1-2.65.29Z"/><path class="cls-2" d="M113.12,92.48l-.19-24.11,3-.53-.19,24.64Z"/><path class="cls-2" d="M120.38,97q8.27-1.15,9.52-6a5.59,5.59,0,0,1-1.78.88,7.52,7.52,0,0,1-2.16.3,5.11,5.11,0,0,1-4-1.75,6.81,6.81,0,0,1-1.53-4.63,9.37,9.37,0,0,1,.46-3,7.68,7.68,0,0,1,1.27-2.35A5.56,5.56,0,0,1,124,78.94a5.27,5.27,0,0,1,2.4-.56,5.17,5.17,0,0,1,4.64,2.7,14.42,14.42,0,0,1,1.67,7.58,11.3,11.3,0,0,1-.79,4.24,10.63,10.63,0,0,1-2.21,3.44,12,12,0,0,1-3.46,2.46,15.1,15.1,0,0,1-4.51,1.32Zm6.08-7.91a6.94,6.94,0,0,0,2.08-.31,4.53,4.53,0,0,0,1.59-.76A10.2,10.2,0,0,0,129,83.35a3,3,0,0,0-2.69-1.64,3.05,3.05,0,0,0-2.43,1.1,4.38,4.38,0,0,0-.93,2.91,3.24,3.24,0,0,0,.93,2.48A3.62,3.62,0,0,0,126.46,89.08Z"/><path class="cls-2" d="M160.39,81.78a23.06,23.06,0,0,1,1,2.49q.47,1.33.81,2.67c.22.89.41,1.75.55,2.56a12.92,12.92,0,0,1,.21,2.14,7.9,7.9,0,0,1-.74,3.4,8.12,8.12,0,0,1-2.07,2.69A9.46,9.46,0,0,1,157,99.49a12.1,12.1,0,0,1-4,.63,12.78,12.78,0,0,1-4.09-.61,9.28,9.28,0,0,1-3.14-1.74,7.5,7.5,0,0,1-2-2.73,8.89,8.89,0,0,1-.69-3.55,12.61,12.61,0,0,1,.76-4.23,14.67,14.67,0,0,1,2.14-4L148,84.53A11.44,11.44,0,0,0,146,90.65,5.46,5.46,0,0,0,147.91,95,7.62,7.62,0,0,0,153,96.65a11,11,0,0,0,2.77-.35,9,9,0,0,0,2.31-1,5.72,5.72,0,0,0,1.58-1.4,2.67,2.67,0,0,0,.6-1.66,10,10,0,0,0-.2-1.8,19.73,19.73,0,0,0-.53-2.19c-.23-.78-.51-1.6-.84-2.47s-.7-1.72-1.11-2.56Zm-7.76-1.56-2.37-2.41,2.37-2.41L155,77.81ZM166,92.48a7.29,7.29,0,0,1-3.78-.9A4.67,4.67,0,0,1,160.08,89l2-2.41a2,2,0,0,0,1,1.78A5.51,5.51,0,0,0,166,89l.61.38V92.1Z"/><path class="cls-2" d="M175.41,86.24c.89-.43,1.7-.81,2.42-1.13a21.15,21.15,0,0,1,2.08-.79L178,83.49c-.84-.36-1.56-.65-2.17-.89s-1.15-.43-1.61-.57a12.17,12.17,0,0,0-1.22-.31,6.24,6.24,0,0,0-1-.09,3.58,3.58,0,0,0-1.66.34,5.78,5.78,0,0,0-1.51,1.26L167,81.86a7.23,7.23,0,0,1,2.35-2.66,5.84,5.84,0,0,1,3.11-.82,6.68,6.68,0,0,1,1.17.1,10.9,10.9,0,0,1,1.32.3,16.7,16.7,0,0,1,1.66.6c.62.25,1.35.57,2.2,1,.68.31,1.29.57,1.81.78s1,.4,1.4.54a6.13,6.13,0,0,0,1.1.28,5.7,5.7,0,0,0,1,.08h.76v3.21c-.59.15-1.16.33-1.72.52s-1.14.42-1.76.7-1.28.61-2,1-1.55.82-2.47,1.35c-1.22.69-2.32,1.28-3.3,1.76a20.6,20.6,0,0,1-2.75,1.15,16.76,16.76,0,0,1-2.47.61,15,15,0,0,1-2.44.19l-.61-.38V89.42L166,89a15.26,15.26,0,0,0,2.16-.15,15.06,15.06,0,0,0,2.16-.48,24.86,24.86,0,0,0,2.36-.86C173.5,87.19,174.41,86.75,175.41,86.24Zm12,6.24a6.24,6.24,0,0,1-4.72-1.59,6.49,6.49,0,0,1-1.5-4.64c0-.51,0-.93,0-1.28a8.11,8.11,0,0,1,.16-1h2.1q-.08.73-.12,1c0,.22,0,.43,0,.63a5.5,5.5,0,0,0,.2,1.57,2.24,2.24,0,0,0,.66,1.07,3,3,0,0,0,1.27.61,8.27,8.27,0,0,0,2,.19l.62.38V92.1Z"/><path class="cls-2" d="M186.79,92.1V89.42l.61-.38a8.62,8.62,0,0,0,1.93-.23,2.52,2.52,0,0,0,1.28-.76,5.39,5.39,0,0,0,1-1.68c.29-.74.61-1.72,1-3l2.48.69a32.51,32.51,0,0,1-1,4.19,7.15,7.15,0,0,1-1.39,2.54,4.37,4.37,0,0,1-2.08,1.26,12.64,12.64,0,0,1-3.12.38Zm27.74-10.7c-.07,1-.15,1.81-.21,2.52s-.13,1.35-.19,1.91-.14,1.06-.23,1.49-.19.84-.29,1.22q-1.1,3.94-6.11,3.94a5.48,5.48,0,0,1-4.74-2.06A5.23,5.23,0,0,1,200.68,92a7.52,7.52,0,0,1-2.89.53,5.76,5.76,0,0,1-3.83-1.2,5.26,5.26,0,0,1-1.74-3.5l1.33-2.41A5,5,0,0,0,195,88.2a4.3,4.3,0,0,0,2.9.88q3.21,0,3.71-2.52c0-.28.11-.63.19-1s.15-.85.23-1.28.14-.87.19-1.3.1-.82.15-1.15l2.6.31c-.13,1.07-.24,2-.35,2.94s-.15,1.44-.15,1.64a2.08,2.08,0,0,0,.86,1.78,4.13,4.13,0,0,0,2.47.63c2,0,3.13-.78,3.43-2.33q.07-.34.18-1c.06-.44.12-.91.19-1.44s.12-1.06.17-1.62.1-1.07.15-1.53ZM201.12,77l-2.37-2.41,2.37-2.41,2.37,2.41Zm2.79-4.93-2.37-2.41,2.37-2.41,2.37,2.41ZM206.7,77l-2.37-2.41,2.37-2.41,2.37,2.41Zm10.85,15.47a7.35,7.35,0,0,1-3.78-.9,4.61,4.61,0,0,1-2.1-2.54l2-2.41a2,2,0,0,0,1,1.78,5.51,5.51,0,0,0,2.89.63l.61.38V92.1Z"/><path class="cls-2" d="M229.36,92.48a9.67,9.67,0,0,1-3.54-.55,4.89,4.89,0,0,1-2.2-1.67,5,5,0,0,1-2.4,1.67,11,11,0,0,1-3.67.55l-.61-.38V89.42l.61-.38a8.55,8.55,0,0,0,3.29-.51c.78-.35,1.18-.83,1.18-1.44l-.11-18.72,3-.53-.15,19.29a3.35,3.35,0,0,0,1.63,1.49,8,8,0,0,0,3,.42l.61.38V92.1Z"/><path class="cls-2" d="M228.74,92.1V89.42l.62-.38A14.3,14.3,0,0,0,231,89a6.84,6.84,0,0,0,1.43-.33,3,3,0,0,0,1-.61,1.24,1.24,0,0,0,.4-.92l-.12-18.72,3-.53-.15,19a5.3,5.3,0,0,1-.63,2.69,5.16,5.16,0,0,1-1.65,1.76,6.8,6.8,0,0,1-2.29,1,12.16,12.16,0,0,1-2.65.29Z"/></g></g></svg>