<svg xmlns="http://www.w3.org/2000/svg" viewBox="0 0 247.36 118.69"><defs><style>.cls-1{fill:#5c8cea;}.cls-2{fill:#fff;}</style></defs><g id="Layer_2" data-name="Layer 2"><g id="Layer_1-2" data-name="Layer 1"><path class="cls-1" d="M14.33,47.77c-3.4,0-6.09-.75-8-2.26a7.65,7.65,0,0,1-3-6.34l-.4-28.31L9.92,9.6,9.63,35.45a4,4,0,0,0,1.06,3.09,5.36,5.36,0,0,0,3.64,1l.92.57V47.2Z"/><path class="cls-1" d="M13.41,47.2V40.09l.92-.57a7.83,7.83,0,0,0,2.18-.26,3.26,3.26,0,0,0,1.54-1.06,8.07,8.07,0,0,0,1.29-2.38c.4-1,.87-2.47,1.41-4.27L26.48,33a69.42,69.42,0,0,1-1.66,7.39,12.85,12.85,0,0,1-2.21,4.5,6.82,6.82,0,0,1-3.32,2.24,17.41,17.41,0,0,1-5,.6ZM56,28.91q-.12,4.18-.49,7.4a29,29,0,0,1-.95,5A8.44,8.44,0,0,1,51,46.11a12,12,0,0,1-6.56,1.66,10.17,10.17,0,0,1-7.34-2.58,10.45,10.45,0,0,1-7.16,2.58q-8.31,0-9.17-8L23.67,35q1.48,4.75,6.08,4.76,3.95,0,4.52-3.16c.08-.42.17-.92.26-1.51s.2-1.21.32-1.84.22-1.26.31-1.89.18-1.23.26-1.81l6,.75c-.12.73-.21,1.45-.29,2.18s-.15,1.39-.23,2-.13,1.14-.17,1.58-.06.74-.06.89a2.33,2.33,0,0,0,1.15,2,5.19,5.19,0,0,0,3,.78,4.71,4.71,0,0,0,2.92-.83,3.68,3.68,0,0,0,1.38-2.33c0-.34.09-.84.17-1.49s.16-1.35.26-2.12.17-1.55.23-2.37.12-1.6.2-2.33Zm4.52,18.86a12,12,0,0,1-6-1.43,8.39,8.39,0,0,1-3.67-4.07l4.29-5.85q0,3.11,5.39,3.1l.92.57V47.2Z"/><path class="cls-1" d="M67.92,48.63a8.6,8.6,0,0,0-1.64-.69,7.38,7.38,0,0,0-1.74-.17h-4l-.91-.57V40.09l.91-.57h3.73a5.3,5.3,0,0,1-.09-.63q0-.35,0-.63A8.83,8.83,0,0,1,65.31,34a14.48,14.48,0,0,1,3.07-3.86,16.39,16.39,0,0,1,4.21-2.81,10.57,10.57,0,0,1,4.55-1.09l.92.57V34l-.92.57a8,8,0,0,0-2.37.37,10.52,10.52,0,0,0-2.15,1A5.92,5.92,0,0,0,71,37.14a2.2,2.2,0,0,0-.6,1.4c0,.54.39,1.09,1.17,1.67A32.73,32.73,0,0,0,76,42.61l2.06,1-4.53,8.08Z"/><path class="cls-1" d="M105.17,47.77a10.17,10.17,0,0,1-7.34-2.58,10.43,10.43,0,0,1-7.16,2.58,11,11,0,0,1-3.35-.46,6.46,6.46,0,0,1-2.61-1.55,12.2,12.2,0,0,1-2.15-2.83,30.47,30.47,0,0,1-2-4.33,21.19,21.19,0,0,0-.86-2A6.8,6.8,0,0,0,79,35.33a2.18,2.18,0,0,0-.8-.63,2.81,2.81,0,0,0-1-.17L76.23,34V26.85l.91-.57a10,10,0,0,1,2.75.34,6.11,6.11,0,0,1,2.18,1.12,8.12,8.12,0,0,1,1.78,2.06A20.56,20.56,0,0,1,85.4,33a35.5,35.5,0,0,0,1.49,3.33,11.51,11.51,0,0,0,1.34,2.09,3.56,3.56,0,0,0,1.38,1.06,4.39,4.39,0,0,0,1.63.29,3.45,3.45,0,0,0,2.7-.92A5.06,5.06,0,0,0,95,36.59c.07-.42.16-.92.25-1.51s.2-1.21.32-1.84.22-1.26.31-1.89.18-1.23.26-1.81l6,.75c-.12.73-.21,1.45-.29,2.18s-.15,1.39-.23,2-.13,1.14-.17,1.58-.06.74-.06.89a2.36,2.36,0,0,0,1.15,2,5.19,5.19,0,0,0,3,.78,7.42,7.42,0,0,0,1.81-.23,6.36,6.36,0,0,0,1.57-.63A3.87,3.87,0,0,0,110,38a1.66,1.66,0,0,0,.4-1,9.9,9.9,0,0,0-.31-2.24,27.55,27.55,0,0,0-.86-2.83c-.37-1-.79-2-1.26-3.07s-1-2-1.58-3l6.42-3.61a25.1,25.1,0,0,1,1.49,3.07,28.58,28.58,0,0,1,1.17,3.49,29,29,0,0,1,.75,3.61,24.92,24.92,0,0,1,.26,3.47q0,5.91-2.87,8.91T105.17,47.77Z"/><path class="cls-1" d="M157,47.77a13,13,0,0,1-7-1.66,7.51,7.51,0,0,1-3.38-4.76,10.76,10.76,0,0,1-2.75,1.26,10.28,10.28,0,0,1-3.09.46,11,11,0,0,1-4-.69,9,9,0,0,1-3.1-1.92,8.59,8.59,0,0,1-2-3,9.86,9.86,0,0,1-.71-3.78,10.66,10.66,0,0,1,3.84-8.28Q138.7,22,146,20.32L146,16.48l6.7-1.21-.34,20.18a3.78,3.78,0,0,0,1,3.09,5.49,5.49,0,0,0,3.67,1l.92.57V47.2ZM146.26,13.38l-3.84-3.84-3.84,3.84-5-5,5-5,3.84,3.84,3.84-3.84,5,5Zm-3.95,21.9a10.72,10.72,0,0,0,4-.69l-.11-7a21.26,21.26,0,0,0-3.59.51,13.92,13.92,0,0,0-3,1,6.08,6.08,0,0,0-2,1.47A2.56,2.56,0,0,0,137,32.3a2.41,2.41,0,0,0,1.4,2.2A8.19,8.19,0,0,0,142.31,35.28Z"/><path class="cls-1" d="M156.12,47.2V40.09l.92-.57c1.37,0,2.83-.08,4.35-.23s2.94-.36,4.22-.61a20.28,20.28,0,0,0,3.18-.83c.84-.3,1.26-.59,1.26-.86a4,4,0,0,0-.86-2,22.69,22.69,0,0,0-2.32-2.79A43.47,43.47,0,0,0,163.4,29q-2-1.67-4.24-3.28l1.09-6.7q4.86-2.75,9.94-5.14t9.89-4.29l1.37,7.16L177,18.42c-1.34.49-2.59,1-3.75,1.42s-2.27.91-3.33,1.34l-3.18,1.34a33.62,33.62,0,0,1,7.17,7.81,14.19,14.19,0,0,1,2.29,7.51q0,4.94-4.84,7.43T157,47.77Z"/><path class="cls-1" d="M203.52,47.77a14.92,14.92,0,0,1-3.5-.37,10.8,10.8,0,0,1-3-1.23,19.89,19.89,0,0,1-5.64,7.56,30.64,30.64,0,0,1-9.66,5.5l-3.9-7q12.43-5.2,14.62-10.83a24,24,0,0,1-1.81-3.55q-.83-2-2-5.22l6.76-3.15c.3,1,.62,1.92.94,2.89s.72,2.08,1.18,3.3a13.46,13.46,0,0,0,.91,2,3.86,3.86,0,0,0,1.09,1.2,3.66,3.66,0,0,0,1.58.57,15.58,15.58,0,0,0,2.38.15l.92.57V47.2Z"/><path class="cls-1" d="M202.6,47.2V40.09l.92-.57a7.83,7.83,0,0,0,2.18-.26,3.26,3.26,0,0,0,1.54-1.06,8.07,8.07,0,0,0,1.29-2.38c.41-1,.87-2.47,1.41-4.27L215.67,33A69.42,69.42,0,0,1,214,40.43a12.85,12.85,0,0,1-2.21,4.5,6.82,6.82,0,0,1-3.32,2.24,17.36,17.36,0,0,1-5,.6Zm31,.57a10.17,10.17,0,0,1-7.34-2.58,10.43,10.43,0,0,1-7.16,2.58q-8.31,0-9.17-8L212.86,35q1.48,4.75,6.08,4.76,3.94,0,4.52-3.16c.08-.42.17-.92.26-1.51s.2-1.21.32-1.84.22-1.26.31-1.89.18-1.23.26-1.81l6,.75c-.12.73-.21,1.45-.29,2.18s-.15,1.39-.23,2-.13,1.14-.17,1.58-.06.74-.06.89A2.33,2.33,0,0,0,231,39a5.19,5.19,0,0,0,3,.78,7.28,7.28,0,0,0,1.8-.23,6.28,6.28,0,0,0,1.58-.63,3.87,3.87,0,0,0,1.09-.92,1.66,1.66,0,0,0,.4-1,9.9,9.9,0,0,0-.31-2.24,27.55,27.55,0,0,0-.86-2.83c-.37-1-.79-2-1.26-3.07s-1-2-1.58-3l6.42-3.61a25.1,25.1,0,0,1,1.49,3.07A28.58,28.58,0,0,1,244,28.77a29,29,0,0,1,.75,3.61,24.92,24.92,0,0,1,.26,3.47q0,5.91-2.87,8.91T233.61,47.77Zm-5.16-24.19-3.84-3.84-3.84,3.84-5-5,5-5,3.84,3.84,3.84-3.84,5,5Zm-3.84-9.22-5-5,5-5,5,5Z"/><path class="cls-2" d="M32.13,92.48a7.54,7.54,0,0,1-4.58-1.15v.5a8.17,8.17,0,0,1-.69,3.4,7.6,7.6,0,0,1-1.93,2.62,8.76,8.76,0,0,1-3,1.68,12.11,12.11,0,0,1-3.88.59,10,10,0,0,1-7-2.29,8.14,8.14,0,0,1-2.52-6.34,12.61,12.61,0,0,1,.76-4.23,14.4,14.4,0,0,1,2.14-4l1.95,1.22a11.44,11.44,0,0,0-1.95,6.12,5.66,5.66,0,0,0,1.74,4.43,7,7,0,0,0,4.87,1.57,9.94,9.94,0,0,0,2.66-.35,8,8,0,0,0,2.16-.93A5.19,5.19,0,0,0,24.34,94a3,3,0,0,0,.53-1.7l-.19-23.92,3-.53-.15,19.29a3.37,3.37,0,0,0,1.62,1.49,8.08,8.08,0,0,0,3,.42l.61.38V92.1Z"/><path class="cls-2" d="M44.74,92.48q-4.47,0-6-2.56a4.82,4.82,0,0,1-2.5,1.89,11.46,11.46,0,0,1-4.15.67l-.61-.38V89.42l.61-.38a9,9,0,0,0,3.69-.57,2.68,2.68,0,0,0,1.51-1.91c.05-.28.11-.63.19-1s.15-.85.23-1.28.14-.87.19-1.3.1-.82.15-1.15l2.6.31c-.13,1.07-.24,2-.34,2.94s-.15,1.44-.15,1.64Q40.2,89,44.74,89l.61.38V92.1ZM36,100.35l-2.37-2.41L36,95.54l2.37,2.4Zm5.58,0-2.37-2.41,2.37-2.4L44,97.94Z"/><path class="cls-2" d="M44.13,92.1V89.42l.61-.38a8.7,8.7,0,0,0,1.93-.23A2.56,2.56,0,0,0,48,88.05a5.2,5.2,0,0,0,1-1.68c.3-.74.62-1.72,1-3l2.48.69a32.51,32.51,0,0,1-1.05,4.19,7.15,7.15,0,0,1-1.39,2.54,4.37,4.37,0,0,1-2.08,1.26,12.64,12.64,0,0,1-3.12.38Zm6.49-4.85a6.69,6.69,0,0,0,1.76,1,15.06,15.06,0,0,0,2.33.65,28.65,28.65,0,0,1,5.16-8.52q2.79-2.94,5.66-2.94a5.6,5.6,0,0,1,2.56.59,6.36,6.36,0,0,1,2.06,1.64,8.11,8.11,0,0,1,1.38,2.47,9,9,0,0,1,.49,3,6.3,6.3,0,0,1-3.09,5.64c-2.07,1.31-5,2-8.91,2a26.16,26.16,0,0,1-6.32-.67,8.62,8.62,0,0,1-3.91-1.93Zm14.87-6.31A5.91,5.91,0,0,0,61.36,83a23.93,23.93,0,0,0-4,6.15c.46,0,.94,0,1.45.06l1.65,0a16.45,16.45,0,0,0,6.68-1,3.34,3.34,0,0,0,2.26-3.11A4.39,4.39,0,0,0,69,83.5a4.22,4.22,0,0,0-.84-1.34A3.88,3.88,0,0,0,67,81.27,3.43,3.43,0,0,0,65.49,80.94Z"/><path class="cls-2" d="M89.6,92.48H87.08a10.61,10.61,0,0,1-3.75,5.1,13.77,13.77,0,0,1-6.57,2.54L75.38,97q7.23-1,9.1-4.85H83.14a8.85,8.85,0,0,1-5.73-1.65,5.7,5.7,0,0,1-2-4.7,9.37,9.37,0,0,1,.46-3,7.88,7.88,0,0,1,1.26-2.35A5.75,5.75,0,0,1,79,78.94a5.31,5.31,0,0,1,2.41-.56A5.19,5.19,0,0,1,86.06,81c1.11,1.76,1.67,4.3,1.67,7.64V89H89.6l.61.38V92.1ZM78,85.72Q78,89,83.56,89h1.61a11.67,11.67,0,0,0-1-5.46,3.11,3.11,0,0,0-2.84-1.87,3,3,0,0,0-2.43,1.1A4.38,4.38,0,0,0,78,85.72Z"/><path class="cls-2" d="M102.21,92.48q-4.47,0-6-2.56a4.85,4.85,0,0,1-2.51,1.89,11.44,11.44,0,0,1-4.14.67L89,92.1V89.42L89.6,89a9.1,9.1,0,0,0,3.69-.57,2.65,2.65,0,0,0,1.5-1.91c.06-.28.12-.63.2-1s.15-.85.22-1.28.15-.87.2-1.3.1-.82.15-1.15l2.6.31c-.13,1.07-.25,2-.35,2.94s-.15,1.44-.15,1.64q0,2.37,4.55,2.37l.61.38V92.1ZM94.3,78.69l-2.37-2.41,2.37-2.41,2.37,2.41Zm5.58,0-2.37-2.41,2.37-2.41,2.37,2.41Z"/><path class="cls-2" d="M101.6,92.1V89.42l.61-.38a14.3,14.3,0,0,0,1.6-.09,6.84,6.84,0,0,0,1.43-.33,3,3,0,0,0,1-.61,1.24,1.24,0,0,0,.4-.92l-.12-18.72,3-.53-.15,19a5.3,5.3,0,0,1-.63,2.69,5.16,5.16,0,0,1-1.65,1.76,6.89,6.89,0,0,1-2.29,1,12.16,12.16,0,0,1-2.65.29Z"/><path class="cls-2" d="M114.59,92.48l-.2-24.11,3-.53-.19,24.64Z"/><path class="cls-2" d="M121.85,97q8.25-1.15,9.51-6a5.59,5.59,0,0,1-1.78.88,7.5,7.5,0,0,1-2.15.3,5.08,5.08,0,0,1-4.05-1.75,6.81,6.81,0,0,1-1.53-4.63,9.37,9.37,0,0,1,.45-3,7.68,7.68,0,0,1,1.27-2.35,5.56,5.56,0,0,1,1.91-1.54,5.27,5.27,0,0,1,2.4-.56,5.2,5.2,0,0,1,4.65,2.7,14.52,14.52,0,0,1,1.66,7.58,11.11,11.11,0,0,1-.79,4.24,10.63,10.63,0,0,1-2.21,3.44,12,12,0,0,1-3.46,2.46,15.1,15.1,0,0,1-4.51,1.32Zm6.07-7.91a6.94,6.94,0,0,0,2.08-.31,4.53,4.53,0,0,0,1.59-.76,10.2,10.2,0,0,0-1.13-4.66,3,3,0,0,0-2.69-1.64,3.07,3.07,0,0,0-2.43,1.1,4.38,4.38,0,0,0-.93,2.91,3.24,3.24,0,0,0,.93,2.48A3.62,3.62,0,0,0,127.92,89.08Z"/><path class="cls-2" d="M161.85,81.78a23.06,23.06,0,0,1,1,2.49q.47,1.33.81,2.67c.23.89.41,1.75.55,2.56a12.92,12.92,0,0,1,.21,2.14,7.9,7.9,0,0,1-.74,3.4,8.12,8.12,0,0,1-2.07,2.69,9.46,9.46,0,0,1-3.13,1.76,12.1,12.1,0,0,1-4,.63,12.78,12.78,0,0,1-4.09-.61,9.28,9.28,0,0,1-3.14-1.74,7.5,7.5,0,0,1-2-2.73,8.89,8.89,0,0,1-.69-3.55,12.61,12.61,0,0,1,.76-4.23,14.67,14.67,0,0,1,2.14-4l2,1.22a11.44,11.44,0,0,0-2,6.12,5.47,5.47,0,0,0,1.9,4.37,7.58,7.58,0,0,0,5.1,1.63,11,11,0,0,0,2.77-.35,9,9,0,0,0,2.31-1,5.72,5.72,0,0,0,1.58-1.4,2.67,2.67,0,0,0,.6-1.66,10,10,0,0,0-.2-1.8A19.73,19.73,0,0,0,161,88.3c-.23-.78-.51-1.6-.84-2.47s-.7-1.72-1.11-2.56Zm-7.76-1.56-2.37-2.41,2.37-2.41,2.37,2.41Zm13.34,12.26a7.32,7.32,0,0,1-3.78-.9A4.67,4.67,0,0,1,161.54,89l2-2.41a2,2,0,0,0,1,1.78,5.51,5.51,0,0,0,2.89.63l.61.38V92.1Z"/><path class="cls-2" d="M176.87,86.24c.89-.43,1.7-.81,2.42-1.13a20.37,20.37,0,0,1,2.09-.79l-1.95-.83c-.84-.36-1.57-.65-2.18-.89s-1.15-.43-1.61-.57a11.53,11.53,0,0,0-1.22-.31,6.24,6.24,0,0,0-1-.09,3.58,3.58,0,0,0-1.66.34,5.78,5.78,0,0,0-1.51,1.26l-1.76-1.37a7.23,7.23,0,0,1,2.35-2.66,5.84,5.84,0,0,1,3.11-.82,6.6,6.6,0,0,1,1.17.1,10.9,10.9,0,0,1,1.32.3,15.84,15.84,0,0,1,1.66.6c.62.25,1.36.57,2.2,1,.69.31,1.29.57,1.81.78s1,.4,1.4.54a6.13,6.13,0,0,0,1.1.28,5.7,5.7,0,0,0,1,.08h.76v3.21c-.58.15-1.16.33-1.72.52a18.21,18.21,0,0,0-1.75.7c-.62.28-1.28.61-2,1s-1.55.82-2.47,1.35c-1.22.69-2.32,1.28-3.3,1.76a20.6,20.6,0,0,1-2.75,1.15,17,17,0,0,1-2.46.61,15.19,15.19,0,0,1-2.45.19l-.61-.38V89.42l.61-.38a15.26,15.26,0,0,0,2.16-.15,15.06,15.06,0,0,0,2.16-.48,25,25,0,0,0,2.37-.86C175,87.19,175.87,86.75,176.87,86.24Zm12,6.24a6.25,6.25,0,0,1-4.73-1.59,6.49,6.49,0,0,1-1.5-4.64c0-.51,0-.93,0-1.28a8.11,8.11,0,0,1,.16-1h2.1q-.08.73-.12,1t0,.63a5.53,5.53,0,0,0,.19,1.57,2.24,2.24,0,0,0,.66,1.07,3,3,0,0,0,1.27.61,8.3,8.3,0,0,0,2,.19l.61.38V92.1Z"/><path class="cls-2" d="M188.25,92.1V89.42l.61-.38a8.62,8.62,0,0,0,1.93-.23,2.52,2.52,0,0,0,1.28-.76,5.39,5.39,0,0,0,1-1.68c.29-.74.61-1.72,1-3l2.49.69a36.2,36.2,0,0,1-1,4.19,7.16,7.16,0,0,1-1.4,2.54A4.37,4.37,0,0,1,192,92.1a12.64,12.64,0,0,1-3.12.38ZM216,81.4q-.11,1.45-.21,2.52c-.06.71-.13,1.35-.19,1.91s-.14,1.06-.23,1.49-.18.84-.29,1.22Q214,92.49,209,92.48a5.48,5.48,0,0,1-4.74-2.06A5.23,5.23,0,0,1,202.14,92a7.5,7.5,0,0,1-2.88.53,5.77,5.77,0,0,1-3.84-1.2,5.26,5.26,0,0,1-1.74-3.5L195,85.37a4.88,4.88,0,0,0,1.45,2.83,4.3,4.3,0,0,0,2.9.88q3.21,0,3.71-2.52c0-.28.11-.63.19-1s.15-.85.23-1.28.14-.87.19-1.3.1-.82.15-1.15l2.6.31c-.13,1.07-.24,2-.34,2.94s-.16,1.44-.16,1.64a2.08,2.08,0,0,0,.86,1.78,4.15,4.15,0,0,0,2.47.63c2,0,3.13-.78,3.44-2.33,0-.23.1-.56.17-1s.13-.91.19-1.44.12-1.06.17-1.62.1-1.07.15-1.53ZM202.58,77l-2.37-2.41,2.37-2.41L205,74.6Zm2.79-4.93L203,69.67l2.37-2.41,2.37,2.41ZM208.16,77l-2.37-2.41,2.37-2.41,2.37,2.41ZM219,92.48a7.35,7.35,0,0,1-3.78-.9,4.61,4.61,0,0,1-2.1-2.54l2-2.41a2,2,0,0,0,1,1.78A5.51,5.51,0,0,0,219,89l.61.38V92.1Z"/><path class="cls-2" d="M230.82,92.48a9.67,9.67,0,0,1-3.54-.55,4.81,4.81,0,0,1-2.19-1.67,5.06,5.06,0,0,1-2.41,1.67,11,11,0,0,1-3.67.55l-.61-.38V89.42L219,89a8.55,8.55,0,0,0,3.29-.51c.79-.35,1.18-.83,1.18-1.44l-.11-18.72,3-.53-.15,19.29a3.35,3.35,0,0,0,1.63,1.49,8,8,0,0,0,3,.42l.61.38V92.1Z"/><path class="cls-2" d="M230.21,92.1V89.42l.61-.38a14.3,14.3,0,0,0,1.6-.09,6.84,6.84,0,0,0,1.43-.33,2.92,2.92,0,0,0,1-.61,1.24,1.24,0,0,0,.4-.92l-.12-18.72,3-.53-.15,19a5.3,5.3,0,0,1-.63,2.69,5.23,5.23,0,0,1-1.64,1.76,6.94,6.94,0,0,1-2.3,1,12.16,12.16,0,0,1-2.65.29Z"/></g></g></svg>