<svg xmlns="http://www.w3.org/2000/svg" viewBox="0 0 220.14 130.93"><defs><style>.cls-1{fill:#fcce05;}.cls-2{fill:#04568f;}</style></defs><g id="Layer_2" data-name="Layer 2"><g id="Layer_1-2" data-name="Layer 1"><g id="Wzliqv"><path class="cls-1" d="M220.07,62.07h0c0-11.48,0-23,0-34.46,0-3-1.2-5.21-3.94-6.31Q190.29,10.85,164.35.53a7,7,0,0,0-5.37,0Q133.3,10.84,107.65,21.18c-2.65,1.07-4.25,2.87-4.2,6.07.13,8.91,0,17.82.07,26.74,0,3.72,2.09,5.95,5.36,5.95s5.37-2.27,5.38-5.94c0-5.14,0-10.29,0-15.44,0-3.7,0-3.67,3.33-2.18,11.8,5.29,23.59,10.63,35.45,15.81,2.24,1,3.12,2.14,3.1,4.66-.11,18-.05,36-.06,54,0,3.3-.06,3.33-3.19,1.89-1.42-.66-2.79-1.41-4.22-2s-2.9-1.24-4.52-.8a5.06,5.06,0,0,0-4,4.45,5.22,5.22,0,0,0,3,5.65c5.44,2.66,10.85,5.38,16.26,8.09a5.6,5.6,0,0,0,5.27-.33c16.79-8.27,33.56-16.61,50.41-24.75,3.4-1.65,5-3.77,5-7.63C220,84.31,220.07,73.19,220.07,62.07ZM163.44,43.63a3.42,3.42,0,0,1-3.13.18q-17.51-8-35-15.94c-.49-.22-1.25-.22-1.28-.85s.77-.93,1.34-1.16l34.89-14.17a3.75,3.75,0,0,1,2.94,0l34.94,14.1a23.4,23.4,0,0,1,2.23,1.29l-26.11,11.7C170.62,40.38,167,42,163.44,43.63Zm43.22,51.54C194.43,101,182.26,107,170.07,113c-2.81,1.38-2.83,1.38-2.83-1.67q0-13.77,0-27.55c0-9.09,0-18.19,0-27.28a3.47,3.47,0,0,1,2.36-3.76q18.49-8.13,36.85-16.53c2.3-1.05,2.8-.57,2.8,1.83q-.09,26.58,0,53.17A3.78,3.78,0,0,1,206.66,95.17Z"/><path class="cls-2" d="M95,102.93c-1,6.33-4.55,10.13-10.93,10.37-8.9.33-17.82.08-26.74.08v.16c-8.37,0-16.74.06-25.1-.05-2.07,0-2.79.59-2.62,2.65a22.83,22.83,0,0,1-.27,4.11q-.79,7.71-8.28,9.81a22.8,22.8,0,0,1-12,.14c-6-1.54-8.74-5.27-9-12.25-.17-5.51-.09-11,0-16.54C.14,98.57,1.82,96.94,4.31,97c2.28.08,3.78,1.76,3.82,4.52.07,5.14,0,10.29,0,15.44,0,4.82,1.53,6.21,6.61,6.23s6.73-1.4,6.75-6.12c0-14.34,0-28.68,0-43a13.07,13.07,0,0,1,.2-3,3.63,3.63,0,0,1,4-3,3.58,3.58,0,0,1,3.66,3.11,17.89,17.89,0,0,1,.19,3c0,9.56,0,19.12,0,28.68,0,1.89.27,2.72,2.5,2.7,16.55-.11,33.1,0,49.65-.06,4.33,0,5.83-1.7,5.92-6.43.08-5.15-1.37-7-5.87-7C74.91,92,68,92,61.12,92a20.41,20.41,0,0,1-2.48-.09c-2.39-.3-3.65-1.73-3.55-4.09a3.55,3.55,0,0,1,3.66-3.74c8.55-.07,17.11-.25,25.64.15,6,.28,9.63,4.21,10.56,10.17A28,28,0,0,1,95,102.93Z"/><path class="cls-2" d="M132.59,120.39c-.32,8-5.33,11.71-13.14,10.12-2.34-.48-3.33-1.91-3.13-4.09s1.58-3.18,3.74-3.27c4.46-.16,4.63-.34,4.63-5,0-8.72,0-17.44,0-26.16,0-3,2-5,4.53-4.57,2.36.39,3.39,2,3.37,4.29,0,4.87,0,9.73,0,14.59h0C132.62,111,132.77,115.72,132.59,120.39Z"/><path class="cls-2" d="M112.78,108.64c0,2.64-1.92,4.87-4.08,4.85-2.33,0-3.85-1.81-3.85-4.71,0-11.91,0-23.84,0-35.76A5,5,0,0,1,106,69.21a3.48,3.48,0,0,1,4-1,4.67,4.67,0,0,1,2.71,4.35c0,6.15,0,12.29,0,18.43h0C112.78,96.9,112.8,102.77,112.78,108.64Z"/><path class="cls-2" d="M84,125.3A4.63,4.63,0,0,1,79.28,130a4.79,4.79,0,0,1-.13-9.58A4.68,4.68,0,0,1,84,125.3Z"/><path class="cls-2" d="M133.59,76.32a4.57,4.57,0,0,1-4.72,4.6A4.71,4.71,0,0,1,124.1,76a4.91,4.91,0,0,1,4.79-4.67A4.67,4.67,0,0,1,133.59,76.32Z"/></g></g></g></svg>