<svg xmlns="http://www.w3.org/2000/svg" xmlns:xlink="http://www.w3.org/1999/xlink" viewBox="0 0 149.22 149.22"><defs><style>.cls-1{isolation:isolate;}.cls-2{mix-blend-mode:multiply;opacity:0.38;fill:url(#radial-gradient);}.cls-3{fill:#fff;}.cls-4{fill:#e8932e;}</style><radialGradient id="radial-gradient" cx="74.61" cy="74.61" r="74.61" gradientUnits="userSpaceOnUse"><stop offset="0" stop-color="#fff"/><stop offset="0.45" stop-color="#fdfdfd"/><stop offset="0.61" stop-color="#f6f6f6"/><stop offset="0.72" stop-color="#ebebeb"/><stop offset="0.82" stop-color="#dadada"/><stop offset="0.9" stop-color="#c4c4c4"/><stop offset="0.96" stop-color="#a9a9a9"/><stop offset="1" stop-color="#989898"/></radialGradient></defs><g class="cls-1"><g id="Layer_2" data-name="Layer 2"><g id="Layer_1-2" data-name="Layer 1"><path class="cls-2" d="M74.61,149.22A74.64,74.64,0,0,1,21.83,21.83,74.64,74.64,0,0,1,127.39,127.39,74.13,74.13,0,0,1,74.61,149.22Z"/><circle class="cls-3" cx="74.61" cy="74.61" r="64.61" transform="translate(-27.35 47.44) rotate(-30.08)"/><g id="cLNFQp.tif"><path class="cls-4" d="M110.49,60C99.58,49.74,88.61,39.58,77.65,29.39H71.09A548.74,548.74,0,0,0,29.85,72.51v6.56C36,87.28,44.2,93.54,51.26,100.89c6.43,6.7,13.05,13.22,20.77,18.49h5.62c4.95-2.36,7.44-7.29,11.29-10.8a306.51,306.51,0,0,0,30.9-32.33V70.63C117.7,66.23,113.94,63.22,110.49,60Zm3.17,19.79C103,90.92,92.2,102,81.5,113.15c-1.89,2-3.86,3.68-6.61,3.45a7.33,7.33,0,0,1-5.3-2C57.47,103.94,46.2,92.41,34.74,81.08c-3.35-3.32-3.09-7.48.46-11.27,7.66-8.13,15.49-16.11,23.18-24.22,3.09-3.26,5.87-6.81,9-10C71.74,31,76.52,31,81.14,35.42q16,15.39,32,30.83C118.4,71.28,118.54,74.69,113.66,79.78Z"/><path class="cls-4" d="M102.67,86.37C96.19,93,90.13,100.08,83.1,106.19c-1.49,1.28-2.42,3.18-3.75,4.66-2.53,2.84-5.54,3-8.23.51Q54.7,96,38.47,80.46c-2.34-2.25-3.53-5.18-.8-7.79s5.37-1.29,7.91.79,4,5,7.4,5.93c.83-2.17-.87-2.74-1.71-3.67-1.49-1.6-3.18-3-4.67-4.6-2.18-2.34-2.86-5.09-.43-7.48s5.39-1.48,7.46.72a38.12,38.12,0,0,0,5.37,5c.79.56,1.57,2.12,2.61.78.85-1.1-.52-1.93-1.25-2.65-1.76-1.77-3.68-3.39-5.38-5.22-2-2.13-2.89-4.73-.74-7.12,2.31-2.58,5.09-1.9,7.5.08,1.81,1.48,3.39,3.23,5.16,4.77.83.73,1.73,2.44,3,1,.94-1-.56-1.89-1.26-2.6-1.74-1.78-3.69-3.39-5.35-5.25-2-2.17-2.69-4.77-.53-7.14s4.93-1.88,7.1.07q6.39,5.72,12.41,11.8c2.6,2.65,2.47,5.46-.21,8.23C76.43,71.9,71,77.86,65.36,83.62c-3.1,3.16-3,6,.2,8.88,2.08,1.9,4.11,3.85,6,5.88.66.67,1,1.68,2.11.75s.29-1.68-.35-2.34c-1.19-1.23-2.43-2.42-3.69-3.59-2.54-2.36-4.15-5.29-1.53-8.13C71,82,74.06,83.72,76.71,86.12c1.72,1.57,3.12,3.67,6.65,4.66-1.6-3.85-4.15-5-5.86-7-2.14-2.48-3.36-5.21-.78-7.88s5.12-1.28,7.51.59c2.06,1.6,3.47,4,6.31,5,1-2.78-1.51-3.47-2.66-4.71-2.59-2.77-5.9-5.33-3-9.56,1.91-2.75,5.64-1.75,9.94,2.37,2.49,2.37,5,4.7,7.44,7.12C105.89,80.32,106.08,82.88,102.67,86.37Z"/><path class="cls-4" d="M112.28,75.9c-2.82,3.16-6,1.42-8.53-1-10.52-10-21-20-31.48-29.95-2-1.92-2.86-4.13-1.83-6.72.71-1.75,2.28-2.49,4.28-2.36,2-.15,3.4,1,4.79,2.33q15.43,14.64,30.9,29.26C113,69.85,115.07,72.78,112.28,75.9Z"/></g></g></g></g></svg>