<svg xmlns="http://www.w3.org/2000/svg" xmlns:xlink="http://www.w3.org/1999/xlink" viewBox="0 0 149.22 149.22"><defs><style>.cls-1{isolation:isolate;}.cls-2{mix-blend-mode:multiply;opacity:0.38;fill:url(#radial-gradient);}.cls-3{fill:#fff;}.cls-4{fill:#0b0b0b;}.cls-5{fill:#f800b1;}</style><radialGradient id="radial-gradient" cx="74.61" cy="74.61" r="74.61" gradientUnits="userSpaceOnUse"><stop offset="0" stop-color="#fff"/><stop offset="0.45" stop-color="#fdfdfd"/><stop offset="0.61" stop-color="#f6f6f6"/><stop offset="0.72" stop-color="#ebebeb"/><stop offset="0.82" stop-color="#dadada"/><stop offset="0.9" stop-color="#c4c4c4"/><stop offset="0.96" stop-color="#a9a9a9"/><stop offset="1" stop-color="#989898"/></radialGradient></defs><g class="cls-1"><g id="Layer_2" data-name="Layer 2"><g id="Layer_1-2" data-name="Layer 1"><path class="cls-2" d="M74.61,149.22A74.64,74.64,0,0,1,21.83,21.83,74.64,74.64,0,0,1,127.39,127.39,74.13,74.13,0,0,1,74.61,149.22Z"/><circle class="cls-3" cx="74.61" cy="74.61" r="64.61" transform="translate(-27.35 47.44) rotate(-30.08)"/><path class="cls-4" d="M109.91,43.66c-.07.22-.09.65-.44.53s-.12-.44-.06-.7c.55-2,.66-4-.85-5.68a4.53,4.53,0,0,0-3.74-1.47,11.75,11.75,0,0,0-5.1,1.51c-.45.23-.59.4-.11.81a5.43,5.43,0,0,1,2,3.21c.4,2.5-1,4.6-3.62,5.59-.6.23-1.24.37-2,.58.29.26.57.53.83.81a4,4,0,0,1,.59,3.35c-.27,1.61-1,3.11-1.32,4.71A2.67,2.67,0,0,0,97.16,60a3,3,0,0,0,3.23-.21c.21-.14.47-.56.72-.14s-.21.48-.47.61a4.05,4.05,0,0,1-6.16-3.47,13.11,13.11,0,0,1,1-5.07A6.86,6.86,0,0,0,96,49.36c0-1-.37-1.26-1.29-1.25-.63,0-1.25,0-1.88,0-.19,0-.45-.08-.45-.38s.28-.3.46-.35a3,3,0,0,1,1.62.14,3.4,3.4,0,0,0,3.26-.75A5.42,5.42,0,0,0,99,39.13c-.31-.4-.47-.49-.91-.12a24.7,24.7,0,0,0-5.46,7.08c-1.34,2.38-2.35,4.94-3.87,7.24a14.66,14.66,0,0,1-5.86,4.93,17,17,0,0,1-5.78,1.92,6.49,6.49,0,0,1-5.77-1.85,2.67,2.67,0,0,1,.19-3.91,1.35,1.35,0,0,1,1.67-.09,1.29,1.29,0,0,1,.29,1.57,1.17,1.17,0,0,1-1.28.91c-.76,0-.74-.63-.83-1.22-.62.92.07,2.49,1.22,3.16,2.3,1.37,4.7,1.15,7.07.25a13.8,13.8,0,0,0,6-5c2.22-2.94,3.93-6.22,6.23-9.1a34.4,34.4,0,0,1,6.28-6.54,9.27,9.27,0,0,0-4.6-2,18.29,18.29,0,0,0-11.78,1.79,19.47,19.47,0,0,0-7.87,7.76A6.78,6.78,0,0,0,73,50.47a4,4,0,0,0,3.84,3.37,8.35,8.35,0,0,0,4.57-1,15.3,15.3,0,0,0,6.47-6.25,5.14,5.14,0,0,0,.58-3.35,1.9,1.9,0,0,0-1.7-1.68,4.91,4.91,0,0,0-3.17.5c-2.75,1.52-5,3.5-6,6.6a3,3,0,0,0-.1,1.37,1.32,1.32,0,0,0,1.28,1.24c.17,0,.35,0,.33.27s-.24.16-.38.17A1.78,1.78,0,0,1,77,50.45a4.65,4.65,0,0,1,.52-4.28,11.11,11.11,0,0,1,7-5,5.1,5.1,0,0,1,2.74.09,2.37,2.37,0,0,1,1.65,2.26,7.17,7.17,0,0,1-1.65,4.93,15.18,15.18,0,0,1-7.15,5.49,7.52,7.52,0,0,1-3.7.37c-3.22-.54-4.53-3-4.35-5.92.21-3.42,2.17-5.85,4.67-7.92a20.06,20.06,0,0,1,10.15-4.59c4-.55,7.9-.33,11.48,1.83a.69.69,0,0,0,.86,0,11.09,11.09,0,0,1,6.39-1.69,4.84,4.84,0,0,1,4.61,4.57A8.83,8.83,0,0,1,109.91,43.66Z"/><path class="cls-5" d="M100,112.46a4,4,0,0,1,.94,1.42l-1.44-.76c-1.42-.49-2.72-1.28-4.11-1.84-2.07-.82-4.1-1.76-6.21-2.47-1.2-.4-2.33-1-3.52-1.36-.91-.3-1.85-.52-2.78-.83-2.06-.69-4.2-1.15-6.27-1.8-.76-.24-1.57-.47-2.32-.66s-1.82-.4-2.73-.57c-2-.36-4.06-.83-6.1-1.18-2.46-.41-4.91-.82-7.38-1.14s-5-.56-7.53-.87c-.93-.11-1.86-.15-2.8-.23-2.41-.22-4.84-.19-7.26-.21-.07,0-.13-.07-.31-.16a13.74,13.74,0,0,1,2.1-.45c2.23-.1,4.4-.69,6.64-.78,2-.08,4-.33,6-.24a4.94,4.94,0,0,0,.94-.12,10.87,10.87,0,0,1,3,.11c1.36,0,2.73,0,4.09,0,2.17.12,4.34.36,6.51.5,1.88.13,3.7.6,5.53.91a26.26,26.26,0,0,1,3.79.95c2,.66,4,1.53,6.07,2.24,1.23.42,2.36,1.15,3.56,1.66a39.58,39.58,0,0,1,4,2,26,26,0,0,1,6,4.24A9.67,9.67,0,0,0,100,112.46Z"/><path class="cls-5" d="M110.76,74.62a18.7,18.7,0,0,1-2,7.57,20.17,20.17,0,0,1-5.26,6.69,16.9,16.9,0,0,1-2.46,1.67,25.66,25.66,0,0,1-3,1.86c-1.38.54-2.78,1-4.12,1.64-1.94.87-4,1-6,1.71a3.54,3.54,0,0,1-1.78.31l1-.63c.92-.72,1.88-1.39,2.76-2.13a18.5,18.5,0,0,0,3.43-3.13c.48-.65,1.1-1.24,1.64-1.89.12-.15.38-.38.07-.62s-.33,0-.48.16a19.93,19.93,0,0,1-2.49,1.76C90.58,90.78,89,91.85,87.34,93a11,11,0,0,1-3.66,1.74,7.75,7.75,0,0,1-4.3-.43c-1.89-.65-3.74-1.38-5.57-2.22a40.49,40.49,0,0,1-9.22-5.67c-2.72-2.26-5.38-4.61-8.07-6.91-.12-.1-.26-.18-.43-.3a.64.64,0,0,0,.06.7c.79,1,1.51,2.06,2.35,3,1.34,1.56,2.79,3,4.2,4.48,1.56,1.65,3.46,2.88,5.1,4.41.79.73,1.74,1.24,2.54,1.92a33.39,33.39,0,0,0,3.53,2.48c.13.08.32.15.26.32s-.23.2-.41.2q-2.73,0-5.46-.27c-1.85-.22-3.69-.52-5.52-.87a22,22,0,0,1-3.83-.92c-1.59-.6-3.17-1.25-4.76-1.81a28.35,28.35,0,0,1-5.31-2.66A21.56,21.56,0,0,1,44.52,87c-.62-.66-1.38-1.18-2.05-1.79A18.78,18.78,0,0,1,40,82.4a32.71,32.71,0,0,1-3.37-5.16A53,53,0,0,1,34,70.82a42.42,42.42,0,0,1-1.73-8A62.47,62.47,0,0,1,32,51c0-.41.06-.82.09-1.23l.18-2.05v-.22c0-.07,0-.09,0-.06.15-1.19.33-2.38.42-3.59,0-.54.28-.66.75-.54,1.6.39,3.24.56,4.82,1.08,1.21.39,2.42.78,3.65,1.1a42.29,42.29,0,0,1,5,1.81,30.71,30.71,0,0,1,4.13,2.18,11.28,11.28,0,0,0,2.06,1c2.11.71,3.62,2.27,5.42,3.41a23.48,23.48,0,0,1,2.6,1.79,72.13,72.13,0,0,1,5.61,5A61.36,61.36,0,0,1,77.32,75.25c.45.87.9,1.74,1.27,2.66a28.21,28.21,0,0,0,1.47,3c.41.75,1.24.35,1.83.25C83,81,84,80.76,85.08,80.58a25.6,25.6,0,0,0,3.73-1,56.66,56.66,0,0,0,6.79-2.68,30.85,30.85,0,0,0,7.53-5.1,26.26,26.26,0,0,0,4.2-4.67c.14-.21.3-.42.45-.63l.44-.66c.14-.24.27-.44.39-.66a5.05,5.05,0,0,0,.33-.71l.08-.16.26-.52a1.6,1.6,0,0,1,.36.88,23.16,23.16,0,0,1,.86,3.59A27.48,27.48,0,0,1,110.76,74.62Z"/></g></g></g></svg>