<svg xmlns="http://www.w3.org/2000/svg" xmlns:xlink="http://www.w3.org/1999/xlink" viewBox="0 0 149.22 149.22"><defs><style>.cls-1{isolation:isolate;}.cls-2{mix-blend-mode:multiply;opacity:0.38;fill:url(#radial-gradient);}.cls-3{fill:#fff;}.cls-4{fill:#fefefe;}.cls-5{fill:#f1ae2b;}.cls-6{fill:#6f716c;}.cls-7{fill:#f0af30;}.cls-8{fill:#f0ae2f;}.cls-9{fill:#747572;}</style><radialGradient id="radial-gradient" cx="74.61" cy="74.61" r="74.61" gradientUnits="userSpaceOnUse"><stop offset="0" stop-color="#fff"/><stop offset="0.45" stop-color="#fdfdfd"/><stop offset="0.61" stop-color="#f6f6f6"/><stop offset="0.72" stop-color="#ebebeb"/><stop offset="0.82" stop-color="#dadada"/><stop offset="0.9" stop-color="#c4c4c4"/><stop offset="0.96" stop-color="#a9a9a9"/><stop offset="1" stop-color="#989898"/></radialGradient></defs><g class="cls-1"><g id="Layer_2" data-name="Layer 2"><g id="Layer_1-2" data-name="Layer 1"><path class="cls-2" d="M74.61,149.22A74.64,74.64,0,0,1,21.83,21.83,74.64,74.64,0,0,1,127.39,127.39,74.13,74.13,0,0,1,74.61,149.22Z"/><path class="cls-3" d="M117.21,26A64.6,64.6,0,1,1,32,26,64.66,64.66,0,0,1,117.21,26Z"/><path class="cls-4" d="M98.85,94.23a.53.53,0,0,0,0-.13s0,.08,0,.13v0Z"/><path class="cls-5" d="M116.84,66.09a1.74,1.74,0,0,1-1.58,1.74,3.52,3.52,0,0,1-2.6-.81c-1.79-1.31-3.54-2.67-5.31-4l-5-3.78-6.17-4.67q-3.27-2.48-6.57-4.94c-1.82-1.37-3.63-2.75-5.47-4.1s-3.52-2.65-5.26-4a4.38,4.38,0,0,0-3.25-1.15,5.11,5.11,0,0,0-2.62,1c-1.85,1.38-3.69,2.78-5.54,4.17L60.6,50.67l-6,4.53-5.34,4-6.67,5c-1.23.93-2.48,1.86-3.7,2.8a4.51,4.51,0,0,1-2,.9,2.2,2.2,0,0,1-2.2-1.38,1.43,1.43,0,0,1,.26-1.5,5.22,5.22,0,0,1,1.31-1.3c2.83-2.11,5.64-4.22,8.46-6.34l5.24-3.95,5.19-3.9,6.59-5c1.84-1.39,3.65-2.8,5.51-4.16s3.56-2.77,5.45-4a5.65,5.65,0,0,1,4-.92,6.4,6.4,0,0,1,3,1.34c3.13,2.4,6.23,4.82,9.34,7.23,1,.75,2,1.49,2.93,2.22a3.4,3.4,0,0,0,.52.31c.51.24.8.1.91-.45s.13-1,.25-1.47A2,2,0,0,1,95.72,43c2.25.06,4.5,0,6.75,0a2.18,2.18,0,0,1,2.16,2.15c0,.69,0,1.38,0,2.31,0,1.44-.09,3.11-.1,4.79,0,.86,0,1.73-.05,2.6a1,1,0,0,0,.39.84l4.84,3.77c2,1.59,4.08,3.16,6.09,4.78A2.5,2.5,0,0,1,116.84,66.09Z"/><path class="cls-6" d="M105,70.64c0,.11.07.27-.06.33s-.19-.09-.27-.15c-3.68-2.88-7.46-5.63-11.2-8.43l-10.78-8q-2-1.47-4-2.93a6,6,0,0,0-2.9-1.25,3.12,3.12,0,0,0-2.16.64c-1.47,1.06-2.95,2.1-4.41,3.18q-4.81,3.56-9.62,7.15L48.75,69.3c-.73.56-1.49,1.09-2.2,1.7a.67.67,0,0,1-.07-.45v-3.9a2.8,2.8,0,0,1,1.17-2.41Q52.36,60.7,57,57.11q6.23-4.76,12.44-9.54a17.22,17.22,0,0,1,4.24-2.64,5.35,5.35,0,0,1,5.59.81q5.2,4,10.45,8L103.83,64.4a3,3,0,0,1,1.22,2.07,7.61,7.61,0,0,1-.08,1Q105,69,105,70.64Z"/><path class="cls-7" d="M111.65,83A5.9,5.9,0,0,0,106,78.73c-1-.07-1,0-1,1a2,2,0,0,0,0,.89c.14.29.56.06.83.18a.59.59,0,0,0,.14,0,4,4,0,0,1,3.55,3.6c.06.4,0,.56-.5.55-1.86,0-3.72,0-5.59,0-1.06,0-1.43-.36-1.43-1.4,0-1.49,0-3,0-4.46,0-.35-.1-.46-.44-.44a13.26,13.26,0,0,1-1.41,0c-.37,0-.49.11-.48.49,0,1.51,0,3,0,4.55a1.17,1.17,0,0,1-1.27,1.26H96.58c-.67,0-.66,0-.74-.69,0-.24-.1-.47-.15-.7A5.65,5.65,0,0,0,93.45,80a7.33,7.33,0,0,0-3.6-1.21c-.86-.1-.86-.09-.86.79v.36c0,.8,0,.8.78.9.15,0,.3.06.45.09a3.92,3.92,0,0,1,3.31,3.59c0,.38,0,.47-.42.47-2.32,0-4.64,0-7,0-.42,0-.49-.14-.49-.52,0-1.79,0-3.57,0-5.37,0-.3-.08-.42-.41-.42-1.17,0-2.34,0-3.51,0a3.1,3.1,0,0,0-2.89,1.53,5.63,5.63,0,0,0-.47,3.91,3.48,3.48,0,0,0,3.5,3c5.49,0,11,0,16.47,0a3.57,3.57,0,0,0,2.29-.69.44.44,0,0,1,.55,0,4.93,4.93,0,0,0,2.85.71c1.16,0,2.31,0,3.46,0,1.35,0,2.7,0,4,0,.21,0,.4,0,.4-.29A13,13,0,0,0,111.65,83ZM83.27,84.86a.21.21,0,0,1-.1.06.63.63,0,0,1-.25,0,3.34,3.34,0,0,0-.45,0h-.26l-.14,0H82a1.38,1.38,0,0,1-.29-.08l-.07,0,0,0-.13-.06-.16-.09-.11-.08h0a.63.63,0,0,1-.12-.11,1.59,1.59,0,0,1-.13-.13,1.89,1.89,0,0,1-.19-.3.54.54,0,0,1,0-.11l0-.09,0-.13,0-.12a.13.13,0,0,1,0-.06s0,0,0-.06,0-.08,0-.12V83.2a2.6,2.6,0,0,1,0-.48c0-.24,0-.48.1-.72a1.21,1.21,0,0,1,0-.18l0-.09,0-.07a2,2,0,0,1,.14-.25l.09-.13.1-.12.07-.07L81.2,81l.07-.06.08-.06.16-.1.35-.16a2.13,2.13,0,0,1,.57-.1h.22l.17,0a2.14,2.14,0,0,1,.34.09l.06,0,0,0a.15.15,0,0,1,0,.07l0,0a1.09,1.09,0,0,1,0,.18V82.8c0,.47,0,.93,0,1.39,0,.11,0,.23,0,.34A.44.44,0,0,1,83.27,84.86Z"/><path class="cls-8" d="M63.87,81.77a3.49,3.49,0,0,0-3.08-3.27,3.89,3.89,0,0,0-3.39,1,5.46,5.46,0,0,0-.65,5.4c-1,0-1.86,0-2.77,0a1.1,1.1,0,0,1-1-1.15c0-1.57,0-3.15,0-4.73,0-.29-.08-.4-.39-.39-.5,0-1,0-1.5,0s-.46.12-.46.47c0,1.55,0,3.09,0,4.64a1.11,1.11,0,0,1-1.15,1.18H48a1.22,1.22,0,0,1-1.28-1.33c0-1.52,0-3,0-4.55,0-.31-.07-.43-.4-.42a14.24,14.24,0,0,1-1.46,0c-.34,0-.44.1-.44.44,0,1.35,0,2.7,0,4s-.27,1.91-1.83,1.82a1.43,1.43,0,0,1-1.55-1.58c0-2.5,0-5,0-7.5,0-.39-.11-.5-.49-.48a13.26,13.26,0,0,1-1.41,0c-.33,0-.45.09-.44.44,0,2.59,0,5.18,0,7.77a3.25,3.25,0,0,0,1.28,2.63,5.15,5.15,0,0,0,5.39.15c.14-.1.25-.21.46,0A3.23,3.23,0,0,0,47.5,87a5.67,5.67,0,0,0,4.15-.62.32.32,0,0,1,.41,0,5,5,0,0,0,3,.75h4.19A14.14,14.14,0,0,0,60.94,87a3.35,3.35,0,0,0,3-3.16A11.11,11.11,0,0,0,63.87,81.77Zm-2.19,1.12c0,.09,0,.19,0,.28a3.4,3.4,0,0,1-.08.57c0,.07,0,.13,0,.18a3.59,3.59,0,0,1-.12.35c-.24.58-.73.77-1.57.67a1.08,1.08,0,0,1-1.09-1,4.54,4.54,0,0,1,.14-2.8,2.12,2.12,0,0,1,.21-.36l.07-.07,0,0,0,0,.09-.08.09,0a.81.81,0,0,1,.18-.1h0l.13,0,.09,0,.13,0h.27a1.3,1.3,0,0,1,1.2,1,4.87,4.87,0,0,1,.2,1.39Z"/><path class="cls-7" d="M73.43,83.59a3.31,3.31,0,0,1-2.07,3.18,3.87,3.87,0,0,1-1.5.31H66c-.27,0-.38-.07-.36-.35,0-.49,0-1,0-1.46,0-.29.1-.38.37-.35h0c1.07,0,1.07,0,1.07-1.06,0-2.65,0-5.3,0-8,0-.38.09-.52.47-.5s1,0,1.5,0c.34,0,.39.13.39.43,0,1.43,0,2.87,0,4.31v4.32c0,.44.12.52.56.43a1.6,1.6,0,0,0,1.08-1.51c0-2.47,0-4.94,0-7.41,0-.61,0-.61.62-.61h1.32c.25,0,.34.09.34.35C73.45,78.35,73.5,81,73.43,83.59Z"/><path class="cls-5" d="M115.91,86.62c0,.39-.12.5-.49.47a12.34,12.34,0,0,0-1.36,0c-.26,0-.38-.06-.37-.35v-11c0-.26.1-.34.35-.33.49,0,1,0,1.49,0,.32,0,.38.11.38.39,0,1.81,0,3.6,0,5.41S115.89,84.82,115.91,86.62Z"/><path class="cls-9" d="M96.6,96q-.88,2.32-1.79,4.65c-.12.32-.24.65-.37,1-.21.57-.38.65-1,.56-.25,0-.25-.24-.3-.4-.4-1.26-.79-2.53-1.18-3.8l-.09,0c-.29,1-.6,1.93-.89,2.89-.09.28-.16.56-.24.83a.72.72,0,0,1-1,.49c-.18,0-.2-.21-.25-.35-.72-1.87-1.45-3.74-2.17-5.62,0-.15-.28-.35,0-.51a.71.71,0,0,1,.85.26c.35.9.68,1.81,1,2.71l.93,2.51c.47-1.5.92-2.89,1.35-4.28.07-.23.09-.44.45-.44s.45.14.55.44c.37,1.22.77,2.44,1.16,3.66,0,.14.06.3.25.42.33-.88.67-1.75,1-2.62L95.71,96a.73.73,0,0,1,.89-.32C96.77,95.79,96.63,95.91,96.6,96Z"/><path class="cls-9" d="M50.08,96c0-.25-.06-.34-.33-.37-.43,0-.62.1-.54.55a4.61,4.61,0,0,1,0,.53,3.49,3.49,0,0,0-4.77-.42,3.41,3.41,0,0,0-.65,4.56,3.24,3.24,0,0,0,2.59,1.44,3.53,3.53,0,0,0,2.83-1.12c0,.27,0,.46,0,.63-.05.35.15.37.41.36s.47,0,.46-.35C50.07,99.89,50.08,98,50.08,96Zm-.86,3.19v0s0,.08,0,.12a.69.69,0,0,1,0,.13A2,2,0,0,1,49,100l-.07.16-.06.1a.16.16,0,0,1,0,.07,2.14,2.14,0,0,1-.13.19h0l-.15.18a2.47,2.47,0,0,1-.45.4l-.06,0-.12.08-.09,0a2.57,2.57,0,0,1-.75.26l-.11,0-.18,0h-.24a2.51,2.51,0,0,1-.88-.18,3.42,3.42,0,0,1-.43-.21,3.47,3.47,0,0,1-.38-.29l-.1-.09a1.07,1.07,0,0,1-.14-.16l-.13-.15a.56.56,0,0,0-.05-.08h0l-.1-.17a1.3,1.3,0,0,1-.08-.17h0a1.17,1.17,0,0,0-.05-.11s0-.09,0-.13a.56.56,0,0,1,0-.12s0-.1,0-.16a.59.59,0,0,1,0-.14.77.77,0,0,1,0-.15s0,0,0,0,0-.19,0-.29a3.15,3.15,0,0,1,.08-.71.93.93,0,0,0,0-.13l0-.1,0-.08a.93.93,0,0,1,.05-.1,1.63,1.63,0,0,1,.11-.23,1.74,1.74,0,0,1,.11-.18l.14-.19.17-.18a2.48,2.48,0,0,1,.49-.38,2.35,2.35,0,0,1,.45-.22l.11,0a3.2,3.2,0,0,1,.42-.1,2.12,2.12,0,0,1,.44,0,2,2,0,0,1,.63.1l.22.07.21.1.16.09.15.09h0l.2.15.1.08s.06,0,.08.08a.74.74,0,0,1,.12.13.12.12,0,0,1,.05,0s0,0,0,0l.11.13.12.19a1.14,1.14,0,0,1,.1.19.54.54,0,0,1,.05.11.42.42,0,0,1,0,.1,2.16,2.16,0,0,1,.14.67.49.49,0,0,1,0,.12.81.81,0,0,1,0,.22A.81.81,0,0,1,49.22,99.21Z"/><path class="cls-9" d="M106.23,99.25h4.91c.36,0,.48-.07.48-.48a3.34,3.34,0,0,0-3.26-3.22,3.2,3.2,0,0,0-3.08,1.78,3.3,3.3,0,0,0,.18,3.53,3.21,3.21,0,0,0,3.44,1.39,3.15,3.15,0,0,0,2.5-2.13,1,1,0,0,0-1.19.48,2.19,2.19,0,0,1-2.34.94,2.47,2.47,0,0,1-2-1.78C105.68,99.31,105.73,99.25,106.23,99.25Zm-.42-1.07.06-.2s0-.11.07-.17a.08.08,0,0,0,0,0l.08-.15a.86.86,0,0,1,.1-.16.21.21,0,0,1,0-.06s0,0,0,0l.08-.1a1,1,0,0,1,.13-.15,1.14,1.14,0,0,1,.11-.11l.1-.09.2-.16.12-.08.08,0,.08,0a.67.67,0,0,1,.12-.06l.17-.08h0l.19-.07a2.57,2.57,0,0,1,.4-.08l.2,0h.42l.06,0a1.64,1.64,0,0,1,.38.1h0l.08,0h0l.1,0h0l0,0,.1.06.26.17.12.1A1.14,1.14,0,0,1,110,97l.08.08.07.08.1.12.09.13.11.17a2.12,2.12,0,0,1,.11.21c0,.11.09.22.13.33s0,.06,0,.09v0a.11.11,0,0,1,0,.08v0h0s0,0,0,0a.1.1,0,0,1,0,0l-.05,0a.58.58,0,0,1-.21,0h-2.14c-.56,0-1.12,0-1.68,0h-.68l0,0h0s0,0,0,0A.36.36,0,0,1,105.81,98.18Z"/><path class="cls-9" d="M75.56,95.66c-.38,0-.57.06-.51.49a2.94,2.94,0,0,1,0,.53,3.55,3.55,0,0,0-5-.14,3.44,3.44,0,0,0-.35,4.4,3.27,3.27,0,0,0,2.6,1.37,3.41,3.41,0,0,0,2.79-1.17c0,.34,0,.55,0,.76,0,.37.25.26.44.27s.38,0,.38-.29q0-3,0-5.91C75.88,95.73,75.79,95.68,75.56,95.66ZM74.17,101l-.19.14-.22.13a2.07,2.07,0,0,1-.34.15,2.79,2.79,0,0,1-.93.15,2.24,2.24,0,0,1-1.78-.67,2.16,2.16,0,0,1-.25-.27.36.36,0,0,1-.07-.1,1.43,1.43,0,0,1-.14-.2c-.06-.11-.12-.23-.17-.34L70,99.76a2.76,2.76,0,0,1-.12-.77,2.64,2.64,0,0,1,2.56-2.69,2.55,2.55,0,0,1,2.63,2.62A2.67,2.67,0,0,1,74.17,101Z"/><path class="cls-9" d="M86.07,100.84a2.37,2.37,0,0,1-2.45,1.45,2.41,2.41,0,0,1-2.61-2c0-.18-.21-.47.14-.57s.67,0,.76.38c.22.85.68,1.34,1.33,1.42a1.85,1.85,0,0,0,2-.94,1.62,1.62,0,0,0-.58-2.1A4,4,0,0,0,83.53,98a4.36,4.36,0,0,1-1.45-.62,2.13,2.13,0,0,1-.77-2.43,2.48,2.48,0,0,1,4.76.32c0,.16.18.42-.12.42s-.62.24-.75-.23a1.58,1.58,0,0,0-2.53-1,1.35,1.35,0,0,0-.56,1.44,1.2,1.2,0,0,0,.75.91,9.66,9.66,0,0,0,1.48.53,3,3,0,0,1,1.44.91A2.39,2.39,0,0,1,86.07,100.84Z"/><path class="cls-9" d="M67.38,101.84c0,.37-.2.33-.43.34s-.4,0-.4-.33c0-1.06,0-2.12,0-3.18a2.3,2.3,0,0,0-.85-2,2,2,0,0,0-2.11-.15,2,2,0,0,0-1,1.93c0,1.11,0,2.21,0,3.32,0,.36-.11.43-.44.42s-.45,0-.45-.41c0-1.87,0-3.73,0-5.6,0-.26-.08-.53.38-.52s.56.11.5.51a.8.8,0,0,0,0,.26A2.52,2.52,0,0,1,65,95.58a2.56,2.56,0,0,1,2.32,2.54C67.39,99.36,67.36,100.6,67.38,101.84Z"/><path class="cls-9" d="M116.81,100.72a1.84,1.84,0,0,1-2,1.58,1.81,1.81,0,0,1-1.94-1.71c0-.17-.06-.39.21-.33s.51-.22.6.24a1.17,1.17,0,0,0,1.53,1,1,1,0,0,0,.79-.84,1.1,1.1,0,0,0-.4-1.14,3.12,3.12,0,0,0-.94-.44,2.59,2.59,0,0,1-1.3-.77,1.6,1.6,0,0,1-.18-1.75,1.63,1.63,0,0,1,1.42-1,1.66,1.66,0,0,1,2,1.38c0,.14.19.38-.11.37s-.58.24-.71-.21a.91.91,0,0,0-1.11-.8.77.77,0,0,0-.73.64.87.87,0,0,0,.33,1,6,6,0,0,0,1.08.46A2,2,0,0,1,116.81,100.72Z"/><path class="cls-9" d="M42.3,101.78c0,.32-.1.4-.41.4-1.23,0-2.46,0-3.68,0-.38,0-.45-.12-.45-.46,0-1.32,0-2.64,0-4s0-2.63,0-4c0-.4.21-.38.48-.38s.47,0,.46.39c0,2.33,0,4.66,0,7,0,.48.15.58.59.57.88,0,1.75,0,2.63,0C42.24,101.35,42.3,101.47,42.3,101.78Z"/><path class="cls-9" d="M57.56,96q-.95,2.25-1.91,4.5c-.2.47-.43.94-.59,1.42-.11.33-.35.28-.58.28s-.49.06-.63-.28C53,99.92,52.21,98,51.38,96c-.11-.26-.06-.33.23-.35a.66.66,0,0,1,.79.51c.61,1.56,1.26,3.1,1.89,4.65.05.11.06.24.24.33l.84-2c.43-1.05.85-2.1,1.27-3.15a.85.85,0,0,1,.93-.29C57.69,95.78,57.59,95.88,57.56,96Z"/><path class="cls-9" d="M103.65,96.47c-.29,0-.58,0-.86,0s-.41.1-.4.41c0,.82,0,1.64,0,2.46s0,1.6,0,2.41c0,.32-.06.45-.42.44s-.44-.08-.44-.43c0-1.6,0-3.21,0-4.82,0-.37-.09-.53-.47-.47-.15,0-.31,0-.46,0-.4.06-.48-.14-.46-.49s.08-.35.32-.32a.27.27,0,0,0,.09,0c1,0,1,0,1-1a5.93,5.93,0,0,0,0-.73c-.06-.44.13-.53.53-.51s.33.12.32.36c0,.51,0,1,0,1.54,0,.24.09.33.32.32s.64,0,1,0,.27.24.29.44S104,96.49,103.65,96.47Z"/><path class="cls-9" d="M98.85,101.78c0,.32-.1.41-.41.4s-.45,0-.44-.38q0-2.88,0-5.76c0-.36.16-.38.44-.38s.42.07.41.4c0,1,0,1.94,0,2.9S98.83,100.84,98.85,101.78Z"/><path class="cls-6" d="M59.78,101.8c0,.36-.16.38-.43.38s-.45,0-.44-.38c0-1.94,0-3.88,0-5.81,0-.39.21-.32.43-.32s.44,0,.43.32c0,1,0,2,0,3S59.75,100.85,59.78,101.8Z"/><path class="cls-7" d="M109.14,90.65c-.24.23-.72.07-1.09.07-1.13,0-1.13,0-1.13-1.11s0-1.21,1.2-1.21,1.13,0,1.11,1.12v.08C109.2,89.93,109.39,90.41,109.14,90.65Z"/><path class="cls-7" d="M61.3,75.1v1.72c0,.2-.07.27-.26.26s-.61,0-.91,0c-1.16,0-1.16,0-1.16-1.18s0-1.07,1.07-1.07c.33,0,.67,0,1,0S61.31,74.91,61.3,75.1Z"/><path class="cls-8" d="M102,76c0,1.13,0,1.13-1.13,1.13s-1.16,0-1.16-1.17,0-1.08,1.1-1.07h0C102,74.84,102,74.84,102,76Z"/><path class="cls-8" d="M46.76,76c0,1.09,0,1.09-1.11,1.09s-1.17,0-1.17-1.18,0-1.07,1.09-1.07h0C46.76,74.84,46.76,74.84,46.76,76Z"/><path class="cls-7" d="M85.19,77c-.25.26-.77.07-1.18.08-.84,0-.84,0-.84-.82v-.32c0-1.1,0-1.1,1.11-1.11s1,0,1,1C85.27,76.21,85.44,76.73,85.19,77Z"/><path class="cls-7" d="M82,77.09c-.46,0-.91,0-1.36,0s-.41-.11-.38-.4,0-.48,0-.72c0-1.13,0-1.13,1.13-1.14,1,0,1,0,1,1,0,.31,0,.61,0,.91S82.27,77.1,82,77.09Z"/><path class="cls-7" d="M48.76,90.72c-.91,0-.91,0-.91-.9,0-.36,0-.73,0-1.09s.06-.34.31-.33h1.45c.23,0,.29.09.28.3s0,.58,0,.86C49.93,90.72,49.93,90.72,48.76,90.72Z"/><path class="cls-7" d="M52.76,89.55c0,1.17,0,1.17-1.17,1.17-.82,0-.82,0-.82-.8,0-.4,0-.79,0-1.18s.09-.35.34-.34c.45,0,.91,0,1.36,0,.22,0,.3.09.29.3S52.76,89.26,52.76,89.55Z"/><path class="cls-9" d="M98.85,94.54c.05.35-.15.38-.43.38s-.45-.06-.42-.39a2.58,2.58,0,0,0,0-.68c0-.35.1-.44.43-.43s.47.06.42.4a2.62,2.62,0,0,0,0,.28s0,.08,0,.13a.34.34,0,0,1,0,.1A1.48,1.48,0,0,0,98.85,94.54Z"/><path class="cls-6" d="M59.77,94.19v.22c0,.47-.25.65-.7.5-.08,0-.14-.07-.14-.16a6.39,6.39,0,0,1,0-1.16c.06-.28.39-.1.59-.14s.24.08.23.24Z"/><path class="cls-4" d="M80.72,84a1.89,1.89,0,0,0,.19.3A1.89,1.89,0,0,1,80.72,84Z"/><path class="cls-4" d="M81.51,80.81a1.58,1.58,0,0,1,.35-.16Z"/><path class="cls-4" d="M81.86,80.65a2.13,2.13,0,0,1,.57-.1A2.13,2.13,0,0,0,81.86,80.65Z"/><path class="cls-4" d="M45.29,96.68a2.35,2.35,0,0,1,.45-.22A2.35,2.35,0,0,0,45.29,96.68Z"/><path class="cls-4" d="M45.85,96.42a2.13,2.13,0,0,1,.42-.1A3.2,3.2,0,0,0,45.85,96.42Z"/><path class="cls-4" d="M46.71,96.28a2.39,2.39,0,0,1,.63.11,2,2,0,0,0-.63-.1,2.12,2.12,0,0,0-.44,0A2.12,2.12,0,0,1,46.71,96.28Z"/><path class="cls-4" d="M108.25,98.53c-.72,0-1.45,0-2.18,0-.28,0-.33-.09-.26-.35a2.61,2.61,0,0,1,2.38-1.89,2.64,2.64,0,0,1,2.5,1.87c.08.27,0,.38-.3.37C109.68,98.52,109,98.53,108.25,98.53Z"/><path class="cls-4" d="M70.71,100.91a2.16,2.16,0,0,1-.25-.27A2.16,2.16,0,0,0,70.71,100.91Z"/></g></g></g></svg>