<svg xmlns="http://www.w3.org/2000/svg" xmlns:xlink="http://www.w3.org/1999/xlink" viewBox="0 0 149.22 149.22"><defs><style>.cls-1{isolation:isolate;}.cls-2{mix-blend-mode:multiply;opacity:0.38;fill:url(#radial-gradient);}.cls-3{fill:#b5b6bf;}.cls-4{fill:#fff;}.cls-5{fill:#b73d56;}</style><radialGradient id="radial-gradient" cx="74.61" cy="74.61" r="74.61" gradientUnits="userSpaceOnUse"><stop offset="0" stop-color="#fff"/><stop offset="0.45" stop-color="#fdfdfd"/><stop offset="0.61" stop-color="#f6f6f6"/><stop offset="0.72" stop-color="#ebebeb"/><stop offset="0.82" stop-color="#dadada"/><stop offset="0.9" stop-color="#c4c4c4"/><stop offset="0.96" stop-color="#a9a9a9"/><stop offset="1" stop-color="#989898"/></radialGradient></defs><g class="cls-1"><g id="Layer_2" data-name="Layer 2"><g id="Layer_1-2" data-name="Layer 1"><path class="cls-2" d="M74.61,149.22A74.64,74.64,0,0,1,21.83,21.83,74.64,74.64,0,0,1,127.39,127.39,74.13,74.13,0,0,1,74.61,149.22Z"/><circle class="cls-3" cx="74.61" cy="74.61" r="64.61" transform="translate(-27.35 47.44) rotate(-30.08)"/><circle class="cls-4" cx="75.32" cy="74.55" r="58.64"/><path class="cls-5" d="M75.46,9.46a65.09,65.09,0,1,0,64.35,67.06A65.05,65.05,0,0,0,75.46,9.46Zm7.31,51.9a13.58,13.58,0,0,1,2.21,0c.66,0,.91-.25.86-.88a2.65,2.65,0,0,1,0-.63,2.72,2.72,0,0,0-2-3.37c-.19-.07-.32-.3-.48-.45.22-.14.41-.35.63-.38,1-.18,2-.22,3-.46a16.84,16.84,0,0,0,2.72-1c1-.42,1.13-.33,1.13.67,0,1.87,0,3.74,0,5.61,0,.68.21.93.91.92,1.9,0,3.79,0,5.69,0a2,2,0,0,1,.7.06c.17,0,.43.27.41.37a.88.88,0,0,1-.39.5,1.57,1.57,0,0,1-.62,0q-2.92,0-5.85,0c-.5,0-.8.12-.8.7,0,5.06,0,10.12.1,15.17a10.65,10.65,0,0,0,1,3.93c.9,2,2.7,2.65,4.79,1.87.23-.09.48-.15.83-.25a2.76,2.76,0,0,1-2.19,2.07c-2.63.45-5.1.13-7.1-1.85A7.92,7.92,0,0,1,86,78.34c-.13-4.42-.13-8.84-.18-13.27,0-.69,0-1.37,0-2,0-.5-.19-.72-.7-.71-.79,0-1.58,0-2.37,0-.26,0-.49-.28-.73-.43C82.27,61.68,82.51,61.39,82.77,61.36ZM54.62,78c-.2,2.34-.41,4.67-.61,7-.08,1-.15,1.13-1.17,1.13h-23c-.48,0-1-.06-1.46-.1l-.09-.26c.51-.32,1-.68,1.53-1a2.09,2.09,0,0,0,1.26-2.07q0-15.18,0-30.36a2.55,2.55,0,0,0-1.64-2.28c-.35-.21-.72-.39-1.08-.59l0-.26a5.54,5.54,0,0,1,1-.15l23.47,0c1.08,0,1.12.1,1.19,1.17.17,2.36.39,4.72.57,7.08,0,.38,0,.75,0,1.14l-.2.06a8.78,8.78,0,0,1-.49-.9,11.79,11.79,0,0,0-6.65-6.89A10.69,10.69,0,0,0,44,50.23c-1.73-.09-3.48-.06-5.21-.08-1,0-1,0-1.05,1.05,0,1.87,0,3.75,0,5.62,0,3,0,6.06,0,9.09,0,.79.24,1,1,1a39.41,39.41,0,0,1,5,0,2.48,2.48,0,0,0,2.74-1.72,2.34,2.34,0,0,1,.73-.94,46.72,46.72,0,0,1,.2,6.57l-.36.09c-.17-.3-.37-.58-.51-.89a2.71,2.71,0,0,0-2.87-2c-1.68.11-3.37,0-5.06,0-.62,0-.9.17-.9.85q0,7.47,0,14.94c0,.81.28,1,1.07,1,1.66,0,3.32-.07,5,0a9.29,9.29,0,0,0,8.07-4A33,33,0,0,0,54,77.26c.1-.18.25-.34.37-.52l.29.07C54.62,77.2,54.65,77.59,54.62,78Zm2.72,7.75a1.79,1.79,0,0,1,.35-.55,9.4,9.4,0,0,1,1.16-.66A2.15,2.15,0,0,0,60,82.3q0-12.48,0-25c0-1.43,0-2.85,0-4.27a2.58,2.58,0,0,0-1.73-2.56,4.17,4.17,0,0,1-.93-.81,5.41,5.41,0,0,1,1.16-.27A40.28,40.28,0,0,0,67.42,48a32.07,32.07,0,0,1,5.77-.81,5.22,5.22,0,0,1,5.33,3.3,6.55,6.55,0,0,1-1.64,6.82c-1.51,1.3-4.62.91-5.18-1.35a3.39,3.39,0,0,1,1.45-3.62,3.17,3.17,0,0,1,4,1c.13.19.27.37.49.67a4.5,4.5,0,0,0-4.5-5.82,24.37,24.37,0,0,0-6.46,1l-.37.12c-1.55.44-1.55.44-1.55,2.09,0,10.23,0,20.45,0,30.67a2.83,2.83,0,0,0,1.9,3,1.91,1.91,0,0,1,.49.26,2.71,2.71,0,0,1,.31.49c-.17.1-.34.27-.51.27-3,0-6.05,0-9.09,0C57.68,86,57.51,85.83,57.34,85.73ZM73.72,109.2c0,.63-.33.9-1,.89l-10.59,0a6.15,6.15,0,0,1-.86-.13c0-.14,0-.18,0-.19,1.28-.64,1.2-1.81,1.19-3,0-3.88,0-7.75,0-11.63,0-.89.12-1.83-.92-2.31-.09,0-.13-.21-.19-.31a11.54,11.54,0,0,1,5.2-.05c0,.09,0,.24-.1.27-1,.51-.9,1.4-.9,2.27,0,4.43,0,8.85,0,13.28,0,.76.23,1.07,1,1a7.52,7.52,0,0,1,1.5,0c2.54.22,4.1-1.12,5.19-3.22.07-.15.17-.3.34-.59a3.73,3.73,0,0,1,.18.73C73.8,107.2,73.75,108.2,73.72,109.2ZM69.54,85.5c.55-.32,1-.64,1.57-.9a2,2,0,0,0,1.16-2c0-5.9-.07-11.8,0-17.7a2.5,2.5,0,0,0-1.7-2.59c-.35-.15-.67-.34-1-.52l.06-.34c.75-.07,1.49-.12,2.23-.21,1.33-.15,2.66-.3,4-.51,1-.16,1.29,0,1.29,1q0,9.76,0,19.53c0,.32,0,.64,0,.95A2.5,2.5,0,0,0,79,85.13a2,2,0,0,1,.49.23c.06,0,.09.13.13.2C79,86.07,70.3,86.09,69.54,85.5Zm9.79,9.76a1.48,1.48,0,0,1-1.49,1.5,1.52,1.52,0,1,1,0-3A1.42,1.42,0,0,1,79.33,95.26Zm-4,14.74c0-.21,0-.25,0-.25,1.22-.67,1.09-1.81,1.08-2.94,0-1.79,0-3.58,0-5.37,0-1.11.31-2.36-1.15-3l.13-.21L76.7,98c.39-.06.79-.08,1.18-.15,1.07-.19,1.14-.13,1.14,1,0,2.88,0,5.74,0,8.61,0,.88,0,1.7,1,2.06.07,0,.11.16.27.46A37.15,37.15,0,0,1,75.37,110ZM88.53,94A1.56,1.56,0,0,0,87,93a1.41,1.41,0,0,0-1.36,1.15,28.21,28.21,0,0,0-.57,3.41c0,.17.37.5.62.57a8.53,8.53,0,0,0,1.43.11c0,.13,0,.26,0,.39a4.82,4.82,0,0,1-.83.1c-1.11-.06-1.29.1-1.29,1.22,0,2.32,0,4.63,0,7,0,1.09-.22,2.27,1.18,2.81-.61.48-4.12.51-4.83.12,0,0,0-.08,0-.08,1.32-.66,1.12-1.87,1.12-3v-6.64c0-.66.09-1.38-.88-1.44,0,0-.09-.06-.12-.1a.33.33,0,0,1-.05-.15s0-.13.06-.13c1.25-.11,1-1.11,1.08-1.87a5,5,0,0,1,1.19-2.93,3.82,3.82,0,0,1,3.89-1.17,5.37,5.37,0,0,1,3.11,1.76c.36.43.71,1,.29,1.41a4.09,4.09,0,0,1-1.58.85c-.09,0-.45-.42-.56-.69C88.76,95.11,88.73,94.54,88.53,94Zm10.61,9.42H94a12.94,12.94,0,0,0-1.65,0c-.18,0-.48.35-.46.51.19,2.9,2.94,5.23,5.53,4.12a8.14,8.14,0,0,0,1.19-.74l.56-.37.27.21a8,8,0,0,1-.57.93,5.35,5.35,0,0,1-9.17-1.77,6.2,6.2,0,0,1,1.48-6.84c1.57-1.52,5.22-2,7-.53a5,5,0,0,1,1.8,3.71C100.09,103.35,99.63,103.45,99.14,103.45Zm20.75-31.4c-1.48,0-3,0-4.43,0l-10.59,0c-1.15,0-1.26.08-1.2,1.21A10,10,0,0,0,111,82.69a7.28,7.28,0,0,0,5.76-1c.82-.5,1.53-1.19,2.31-1.77a3.21,3.21,0,0,1,.61-.32c0,.08.09.15.14.23a9.86,9.86,0,0,1-2.34,3.28c-3.12,2.87-6.75,3.38-10.66,2.15a11.17,11.17,0,0,1-7.84-10.06,13.82,13.82,0,0,1,.77-6.77,11.11,11.11,0,0,1,9-6.94,11.92,11.92,0,0,1,6,.34,8.91,8.91,0,0,1,5.6,6,17.6,17.6,0,0,1,.52,3.1C120.93,71.82,120.72,72,119.89,72.05Z"/><path class="cls-5" d="M94.9,102H92.78c-.26,0-.35,0-.3-.23A2.5,2.5,0,0,1,94,100a5.51,5.51,0,0,1,1.33-.32,1.59,1.59,0,0,1,1.31.45,2.38,2.38,0,0,1,.77,1.63c0,.17-.09.23-.34.23Z"/><path class="cls-5" d="M110.27,69.25h-4.35c-.54,0-.72-.12-.63-.48a5.12,5.12,0,0,1,3.23-3.62,10.11,10.11,0,0,1,2.73-.66,3.23,3.23,0,0,1,2.69.92,4.91,4.91,0,0,1,1.59,3.36c0,.34-.18.47-.7.47-1.52,0-3,0-4.56,0Z"/></g></g></g></svg>