<svg xmlns="http://www.w3.org/2000/svg" viewBox="0 0 115.63 77.55"><defs><style>.cls-1{isolation:isolate;}.cls-2{fill:#fdbe11;}.cls-3,.cls-7,.cls-9{fill:#f99b1c;}.cls-3,.cls-9{mix-blend-mode:multiply;}.cls-3{opacity:0.67;}.cls-4,.cls-6,.cls-8{fill:#fff;mix-blend-mode:soft-light;}.cls-4{opacity:0.53;}.cls-5{fill:#fb3;}.cls-6{opacity:0.51;}.cls-9{opacity:0.55;}</style></defs><g class="cls-1"><g id="Layer_2" data-name="Layer 2"><g id="Layer_1-2" data-name="Layer 1"><polygon class="cls-2" points="110.94 24.23 110.36 25.61 109.58 27.47 92.62 68.19 91.87 69.97 91.78 70.19 24.13 70.19 24 69.89 23.18 68.02 5.59 27.5 4.75 25.58 3.47 22.62 3.06 21.68 4.46 22.98 7.03 25.39 8.39 26.65 34.34 50.89 54.51 13.49 56.05 10.63 56.94 8.96 57 8.87 57.32 8.27 57.7 9.03 58.63 10.84 64.72 22.8 71.21 35.56 75.14 43.28 79.02 50.89 107.72 26.91 109.35 25.56 110.94 24.23"/><path class="cls-3" d="M92.62,68.19,91.88,70l-.09.22H24.13l-.13-.3L23.18,68a3,3,0,0,1,1.26-.28H91.05a3,3,0,0,1,1.57.45Z"/><polygon class="cls-4" points="64.72 22.8 57 43.1 47.62 67.74 46.82 69.85 46.7 70.19 32.94 70.19 33.07 69.85 33.87 67.74 54.51 13.49 56.05 10.63 56.94 8.96 57 8.87 57.32 8.27 57.7 9.03 58.63 10.84 64.72 22.8"/><polygon class="cls-4" points="75.14 43.28 65.84 67.74 65.04 69.85 64.92 70.19 58.04 70.19 58.17 69.85 58.97 67.74 71.21 35.56 75.14 43.28"/><path class="cls-5" d="M94.42,73.7a3.63,3.63,0,0,1-3.37,3.85H24.44a3.62,3.62,0,0,1-3.36-3.85A3.7,3.7,0,0,1,24,69.89a2.12,2.12,0,0,1,.44,0H91.05a2.81,2.81,0,0,1,.82.12h0A3.79,3.79,0,0,1,94.42,73.7Z"/><polygon class="cls-6" points="62.91 69.85 62.78 70.19 59.98 77.55 46.23 77.55 49.03 70.19 49.16 69.85 62.91 69.85"/><polygon class="cls-6" points="81.13 69.85 81 70.19 78.2 77.55 71.32 77.55 74.13 70.19 74.25 69.85 81.13 69.85"/><path class="cls-2" d="M63.2,5.45c0,.14,0,.26,0,.39a5.47,5.47,0,0,1-4.56,5,6.4,6.4,0,0,1-.88.07,4.56,4.56,0,0,1-.75-.06,4.24,4.24,0,0,1-1-.22,5.45,5.45,0,0,1-3.74-4.79c0-.13,0-.25,0-.39A5.45,5.45,0,0,1,57,.05a6.16,6.16,0,0,1,.75,0A5.45,5.45,0,0,1,63.2,5.45Z"/><path class="cls-7" d="M63.19,5.84a5.47,5.47,0,0,1-4.56,5,6.4,6.4,0,0,1-.88.07,4.56,4.56,0,0,1-.75-.06,4.24,4.24,0,0,1-1-.22,5.45,5.45,0,0,1-3.74-4.79,5.19,5.19,0,0,1,.15-1A5.44,5.44,0,0,0,56.94,9H57a4,4,0,0,0,.7.06h0A5.46,5.46,0,0,0,63,4.88,6.19,6.19,0,0,1,63.19,5.84Z"/><path class="cls-8" d="M59.8,3.78c0,.07,0,.13,0,.19a2.63,2.63,0,0,1-5.25,0,1.15,1.15,0,0,1,0-.19,2.64,2.64,0,0,1,5.27,0Z"/><path class="cls-2" d="M115.63,22.05c0,.13,0,.26,0,.39a5.46,5.46,0,0,1-5.44,5.07c-.2,0-.4,0-.6,0a5.28,5.28,0,0,1-1.86-.55,5.43,5.43,0,0,1-3-4.48c0-.13,0-.26,0-.39a5.45,5.45,0,1,1,10.9,0Z"/><path class="cls-7" d="M115.62,22.44a5.46,5.46,0,0,1-5.44,5.07c-.2,0-.4,0-.6,0a5.28,5.28,0,0,1-1.86-.55,5.43,5.43,0,0,1-3-4.48,5.06,5.06,0,0,1,.15-1,5.47,5.47,0,0,0,4.46,4.08,5.59,5.59,0,0,0,.83.06h.18a5.42,5.42,0,0,0,5.1-4.13A5.07,5.07,0,0,1,115.62,22.44Z"/><path class="cls-8" d="M112.23,20.38c0,.07,0,.13,0,.19a2.63,2.63,0,0,1-5.25,0,1.15,1.15,0,0,1,0-.19,2.64,2.64,0,0,1,5.27,0Z"/><path class="cls-2" d="M10.91,22.05c0,.13,0,.26,0,.39A5.45,5.45,0,0,1,0,22.44c0-.13,0-.26,0-.39a5.46,5.46,0,0,1,10.91,0Z"/><path class="cls-7" d="M10.89,22.44A5.45,5.45,0,0,1,0,22.44a6,6,0,0,1,.15-1,5.45,5.45,0,0,0,10.58,0A5.06,5.06,0,0,1,10.89,22.44Z"/><path class="cls-8" d="M7.5,20.38a1.15,1.15,0,0,1,0,.19,2.63,2.63,0,0,1-5.25,0v-.19a2.63,2.63,0,0,1,5.26,0Z"/><path class="cls-9" d="M115.63,22.05c0,.13,0,.26,0,.39a5.46,5.46,0,0,1-5.44,5.07c-.2,0-.4,0-.6,0l-17,40.72h0L91.88,70a3.79,3.79,0,0,1,2.54,3.73,3.63,3.63,0,0,1-3.37,3.85H57V.05a6.16,6.16,0,0,1,.75,0A5.45,5.45,0,0,1,63.2,5.45c0,.14,0,.26,0,.39a5.47,5.47,0,0,1-4.56,5l6.09,12,6.49,12.76,3.93,7.72L79,50.89l28.7-24a5.43,5.43,0,0,1-3-4.48c0-.13,0-.26,0-.39a5.45,5.45,0,1,1,10.9,0Z"/></g></g></g></svg>