<svg xmlns="http://www.w3.org/2000/svg" xmlns:xlink="http://www.w3.org/1999/xlink" viewBox="0 0 141.73 141.73"><defs><style>.cls-1{fill:none;}.cls-2{isolation:isolate;}.cls-3{fill:#141215;}.cls-27,.cls-4,.cls-5{fill:#3c3c3b;}.cls-5{opacity:0.6;mix-blend-mode:multiply;}.cls-6{clip-path:url(#clip-path);}.cls-19,.cls-7{fill:#ffb490;}.cls-7{stroke:#ba613e;stroke-linecap:round;stroke-linejoin:round;stroke-width:0.7px;}.cls-8{fill:#ffc89e;}.cls-9{fill:#aa1e07;opacity:0.3;}.cls-10{fill:#49241d;}.cls-11{fill:#ffdfc0;}.cls-12{fill:#f48d74;}.cls-13{fill:#9b432c;}.cls-14{fill:#f7cdcb;}.cls-15{fill:#fee;}.cls-16{fill:#5b392b;}.cls-17{fill:#7f5e47;}.cls-18{fill:#140d0b;}.cls-20{fill:#dd3157;}.cls-21{fill:#ff6c93;}.cls-22{fill:#fff;}.cls-23{fill:#9e072e;}.cls-24{fill:#59051b;}.cls-25{fill:#110806;}.cls-26{fill:#351811;}.cls-27,.cls-29{mix-blend-mode:screen;}.cls-28{fill:#e19770;}.cls-29{fill:#f1ba95;}</style><clipPath id="clip-path"><path class="cls-1" d="M130.1,64.69C127,63.58,93.77,36.54,92.52,35S86,21.81,79.84,22.87s-16.94-4.28-20.12-.8-10.12,8.24-11.3,10.2-7.18,2.07-10.47,5-4.91,2.87-6.26,7-3.63,3-4.23,12.54-4.18,5.33-1,19.45.78,14,6.1,21.19,12.33,6.69,19.18,10.11-10,8.46,14.34,5.69,13.15,4.83,26.42-4.33,4.89-.63,15.14-10.76,14.62-13.06,14.62-15,0-8.86,1.6-11.24a55.56,55.56,0,0,0,3.58-7.22"/></clipPath></defs><title>الشخصيات</title><g class="cls-2"><g id="Layer_1" data-name="Layer 1"><path class="cls-3" d="M128.6,144.14c-1.17-1.3-2-2.86-3.17-4.17s-2.24-2.52-3.31-3.87c-2.4-3-5.12-5.57-7.32-8.74-.92-1.32-2.25-2.37-3.17-3.72s-1.86-2.81-2.88-4.16c-4.22-5.63-5.62-13.69-6-20.53a120,120,0,0,1,.34-16.62,16.14,16.14,0,0,0-.09-2c0-.07,0-.14,0-.2,0,.14,0,.29-.06.43-1.26-1.77-3.87-2.54-5.8-3.25A61.64,61.64,0,0,0,87.05,75a151.12,151.12,0,0,0-21.63-2.48,79.37,79.37,0,0,0-21.73,2c-2.63.64-10.24,2.66-9.17,6.56A70.87,70.87,0,0,1,33.4,107c-1.16,5-2.75,9.92-4.09,14.9-.62,2.31-1.46,4.48-2.28,6.72-.7,1.92-1.06,3.94-1.69,5.88-.05.26-.11.53-.18.79a.08.08,0,0,0,0,0c5.67,9,11.33,18,18.75,25.65,8.33,8.61,19,13,30.79,14.42a109.7,109.7,0,0,0,17.66.55c5.55-.22,10.87-1.06,15.61-4.1a88.24,88.24,0,0,0,13.55-11.23c3.8-3.68,7-7.55,8.37-12.74a.42.42,0,0,0,0-.19C130.36,146.45,129.65,145.31,128.6,144.14Z"/><path class="cls-4" d="M129,148.81c-1.68,5.26-5.37,9.09-9.36,12.85a79.25,79.25,0,0,1-13,10.32c-4.87,2.92-10.95,3.12-16.47,3.25a103.53,103.53,0,0,1-18.28-1.06,48.88,48.88,0,0,1-28.47-15c-6.83-7.21-12.28-15.74-17.79-24a.4.4,0,0,0,.1-.15c.74-2.09,1.24-4.3,1.87-6.43.67-2.31,1.67-4.48,2.29-6.81,1.31-5,2.86-9.9,4-14.94a64.87,64.87,0,0,0,1-25,3.82,3.82,0,0,0,.27.45s.07,0,.06,0C33,75.46,47.5,74.14,51.66,73.62a95.26,95.26,0,0,1,17.79-.31,159.48,159.48,0,0,1,18.08,2.4c2.61.48,5.22,1,7.78,1.71,2.41.66,6.33,1.78,7.47,4.17-1.45,11.68-1.41,24,3.33,34.73,1.26,2.88,6.34,9.74,7.13,10.6,1.17,1.26,5.2,6.27,6.25,7.38,1.23,1.31,6,6.95,7.16,8.6s3.67,3.49,2.32,5.64C128.87,148.69,128.91,148.78,129,148.81Z"/><path class="cls-5" d="M129,148.54c1.35-2.15-1.22-4.07-2.32-5.64s-5.93-7.29-7.16-8.6c-1-1.11-5.08-6.12-6.25-7.38-.79-.86-5.87-7.72-7.13-10.6-4.74-10.75-4.78-23-3.33-34.73-1.14-2.39-5.06-3.51-7.47-4.17-2.56-.7-5.17-1.23-7.78-1.71a159.48,159.48,0,0,0-18.08-2.4,95.26,95.26,0,0,0-17.79.31c-4.16.52-18.65,1.84-16.51,8.6,0,0,0,.08-.06,0a3.82,3.82,0,0,1-.27-.45,59,59,0,0,1,.73,12.74c.12.65.25,1.3.38,1.94.63,3.1,1.22,6.2,1.93,9.28a118,118,0,0,0,5.62,18.3,46.32,46.32,0,0,0,9.61,15,31.2,31.2,0,0,0,7.31,5.56c1.94,1.06,4.48,1.33,6.11,2.88a.21.21,0,0,1-.05.34c-6.78,3.26-13.52-4-17.09-9-5.3-7.33-8.35-16.26-10.29-25-.74,6.46,1.16,13.16,3.67,19,2.24,5.27,5.06,10.51,9.19,14.54,4.49,4.38,10.08,7.09,16.42,7a40.68,40.68,0,0,0,18.25-4.78l.94-.52c6.5-6,10.41-14.62,13.56-22.89.07-.19.37-.23.42,0a30.31,30.31,0,0,1,.68,5.77c.09,5.12-1,10.51-4,14.77a26.53,26.53,0,0,1-11.49,8.72,41.63,41.63,0,0,1-23.83,2.81l.51.46a25.18,25.18,0,0,0,7.06,4,.22.22,0,0,1,0,.42,12.1,12.1,0,0,1-6.71-.4,44.4,44.4,0,0,1-6.85-2.72,50.94,50.94,0,0,1-7.74-4.4,31.37,31.37,0,0,1-10.7-13.46,53.32,53.32,0,0,1-3.71-16.85c-.4-5.35-.88-10.7-1.49-16-1,4.16-2.29,8.24-3.38,12.39-.62,2.33-1.62,4.5-2.29,6.81-.63,2.13-1.13,4.34-1.87,6.43a.4.4,0,0,1-.1.15c5.51,8.3,11,16.83,17.79,24a48.88,48.88,0,0,0,28.47,15,103.53,103.53,0,0,0,18.28,1.06c5.52-.13,11.6-.33,16.47-3.25a79.25,79.25,0,0,0,13-10.32c4-3.76,7.68-7.59,9.36-12.85C128.91,148.78,128.87,148.69,129,148.54Z"/><path class="cls-5" d="M129,148.54c1.35-2.15-1.22-4.07-2.32-5.64s-5.93-7.29-7.16-8.6c-1-1.11-5.08-6.12-6.25-7.38-.79-.86-5.87-7.72-7.13-10.6-4.74-10.75-4.78-23-3.33-34.73-1.14-2.39-5.06-3.51-7.47-4.17-2.56-.7-5.17-1.23-7.78-1.71a159.48,159.48,0,0,0-18.08-2.4,95.26,95.26,0,0,0-17.79.31c-4.16.52-18.65,1.84-16.51,8.6,0,0,0,.08-.06,0a3.82,3.82,0,0,1-.27-.45,55.55,55.55,0,0,1,.7,6.19c4.21,8.68,6.79,18,10,27.11a92.67,92.67,0,0,0,7,15.6c2.7,4.6,6,9.3,10.31,12.51a16.37,16.37,0,0,0,15,2.71,23.7,23.7,0,0,0,10.63-7.6c5.79-6.85,9.24-15.28,12.84-23.39.06-.15.31-.13.38,0,2.21,4.55,2.58,9.88,3.39,14.81,1,6.06,1.2,12.69-.64,18.62a26.88,26.88,0,0,1-7.49,11.74,37.68,37.68,0,0,1-22.23,9.5,54.31,54.31,0,0,0,20.08-2.81,53.75,53.75,0,0,0,20.76-13.31.22.22,0,0,1,.37.22c-2.56,8.45-9,14.92-16.6,19.13a48.69,48.69,0,0,1-4.47,2.19c4.12-.27,8.28-1,11.8-3.07a79.25,79.25,0,0,0,13-10.32c4-3.76,7.68-7.59,9.36-12.85C128.91,148.78,128.87,148.69,129,148.54Z"/><path class="cls-5" d="M86.73,155.55a41.94,41.94,0,0,1-22.63,3,40.93,40.93,0,0,0,13.4,2c5.29-.09,11.19-1,15.88-3.57,7.72-4.27,10.07-13.16,8.69-21.35a23.43,23.43,0,0,1-3.85,11.15A26.53,26.53,0,0,1,86.73,155.55Z"/><path class="cls-5" d="M37,144.87c2.69,5.35,7.35,8.83,12.63,11.13l-.45-.31a31.37,31.37,0,0,1-10.7-13.46,53.32,53.32,0,0,1-3.71-16.85c-.07-.84-.13-1.68-.2-2.52-.12,2.46-.25,4.92-.24,7.39C34.33,135.2,34.72,140.37,37,144.87Z"/><g class="cls-6"><path class="cls-7" d="M72,12.29c29.39,2.53,29.45,30.91,27.63,46.42C98.23,83.47,89.24,99.53,78.29,104.6c-5.55,2.57-7.13,5.09-11.66,4.84l-.3,0c-4.53-.25-5.83-2.92-11.06-6.08C44.93,97.11,37.76,80.16,39.11,55.4c-.11-15.62,3-43.82,32.54-43.13Z"/><path class="cls-8" d="M62.51,37.24c18.4.82,31.33,15.65,31.45,26.7C93.6,83.75,87.23,98.11,78.31,103c-5.16,2.85-8,5.79-11.68,5.59h-.06c-3.71-.2-6.19-3.43-11-6.82-8.33-5.87-12.65-25.52-11.41-38.54C44.16,63.25,48.53,45,62.51,37.24Z"/><path class="cls-9" d="M61,33.3c-1.25,3.67-5.06,7-10.7,12.54S40.27,61.48,39.49,71.9c-1.8-30.49,11.25-46.55,28.67-49.53S102.68,46.13,99,65.63c-.68-8.91-7-18.8-15.53-24.09C75.55,36.61,63.38,36.11,61,33.3Z"/><path class="cls-10" d="M76.55,60.46c1-1.7,1.45-3.87,2.81-4.91,5.11-3.93,13-2.47,17.3,1.17C87.76,54,83.64,56.26,76.55,60.46Z"/><path class="cls-10" d="M63.74,59.76c-.7-1.62-.82-3.7-1.88-4.82-4.64-4.83-12.9-4.33-17.71-1.09C53.3,52.1,57.15,54.81,63.74,59.76Z"/><path class="cls-11" d="M65.06,79.65c-.69-.76,1-2.66,2.19-2.13S66.57,81.3,65.06,79.65Z"/><path class="cls-12" d="M44.08,62.35C47.5,56.88,59.07,56.19,62,68,54.43,63.09,44.08,62.35,44.08,62.35Z"/><path class="cls-13" d="M45.13,63.65a3.59,3.59,0,0,0,.45,3.46c1.71,1.7,7.92,4,14.71,2.06-6-.53-13.36-6.27-13.36-6.27Z"/><path class="cls-14" d="M62,68.06c.46.67,1.06,1.29-1.42,1.26s-5.43.92-10.45-.7c-3.74-1.21-4-6.15-2.56-6.8C49.69,60.86,57.48,61.33,62,68.06Z"/><path class="cls-15" d="M60.34,68c.23-1.26-9.82-5.13-12.18-2.37C48.58,69.72,59.88,70.48,60.34,68Z"/><path class="cls-16" d="M54.38,62.39c5.55.66,5.84,7.23-.69,6.71S48.24,61.65,54.38,62.39Z"/><path class="cls-17" d="M50.57,67.6l4-1.48,2.2,2.2C55.91,69.24,51.52,68.78,50.57,67.6Z"/><path class="cls-18" d="M49.32,66.18c-.44-1.12.25-3.73,2.36-4,2.51-.28,6,1.6,6.67,2.33s.2,2.5-.33,3.17a1.66,1.66,0,0,0-.26-1.78c-2.06-1.22-5.9-1.92-7.27-1.28C49.66,65,49.32,66.18,49.32,66.18Z"/><path class="cls-18" d="M56.11,66c.24-2.23-3.88-3.23-4.3-.74C51.32,68.1,55.81,68.61,56.11,66Z"/><path class="cls-15" d="M55.06,66.91c-.07-1,1.38-.88,1.5-.22C56.76,67.75,55.13,67.82,55.06,66.91Z"/><path class="cls-18" d="M62.27,68.45c-3.6-5.07-11.82-7-15.52-4.46a5.11,5.11,0,0,1-5.21-2.63c2.91,1.83,5,.18,7.4-.24C52.44,60.51,59,60.65,62.27,68.45Z"/><path class="cls-19" d="M73,83.71c1-.28,1.34-1.32.54-1.74s-3-.51-5.11-.58-4.46,0-5.22.31c-1,.47-.51,1.5.46,1.76.49.13,3,1.3,4.61,1.34A19.32,19.32,0,0,0,73,83.71Z"/><path class="cls-12" d="M65.12,82c-1.37.19-1.69.77-.14,1C67,83.22,67.68,81.64,65.12,82Z"/><path class="cls-12" d="M71.63,82.17c1.34.3,1.64.88.08,1C69.66,83.27,69.11,81.61,71.63,82.17Z"/><path class="cls-19" d="M63.39,97.46c1.39.54,5.72,1.25,8.28.57.54.58,0,2.86-3.82,2.69S63.27,98.44,63.39,97.46Z"/><path class="cls-19" d="M79.09,90.28c.91-1,1.86-3.67,3.33-2.13S82.2,91.31,79.09,90.28Z"/><path class="cls-12" d="M81.65,88.65c1.64,1-.52,1.87-1.93,1.89C80.65,89.14,80.71,88.06,81.65,88.65Z"/><path class="cls-19" d="M57.7,89.74c-.89-1-1.77-3.73-3.27-2.22S54.57,90.68,57.7,89.74Z"/><path class="cls-12" d="M55.27,88.07c-1.53,1.2.7,1.8,2.11,1.68C56.31,88.45,56.14,87.39,55.27,88.07Z"/><path class="cls-20" d="M56.41,89.35C60,91,60.65,96.83,67.57,97.09s8.6-4.81,12.25-6.31a21.33,21.33,0,0,1-11.12,1,22.28,22.28,0,0,1-5.86-.16A27.17,27.17,0,0,1,56.41,89.35Z"/><path class="cls-21" d="M63.23,93.75c.7-.38,8.42-.24,9.08.82s-3,2.41-5.63,1.91S62.49,94.16,63.23,93.75Z"/><path class="cls-22" d="M63.44,93.69c.94-.26,2.22.47,1.46.85S62.44,94,63.44,93.69Z"/><path class="cls-20" d="M68.48,92c6,1.35,10,.44,12.16-2.08-.18.25-2.5.64-5.29.29-2.54-.32-3.41-.73-5.11-.74a12.48,12.48,0,0,0-2,.44c-.38,0-1.36-.5-1.86-.59-1.44-.24-3.05.19-5.57.62a7.38,7.38,0,0,1-5.18-1.21c.75,2.18,7.11,4.17,12.66,3.27Z"/><path class="cls-23" d="M56.4,89.62c1.48.82,4.19,2.49,7.08,2.42,3.11-.07,3.56-.23,4.7-.16s1.77.33,3.78.4a14.34,14.34,0,0,0,8.53-2.18c-2.6,2.75-7.07,3.35-9.21,3.16A23.77,23.77,0,0,0,65.9,93C63.79,93.18,58.27,91.77,56.4,89.62Z"/><path class="cls-24" d="M81,89.51c-.47-.31-.83.86-2.58,1.9C79.82,90.78,81.91,90.08,81,89.51Z"/><path class="cls-24" d="M55.59,88.58c.51-.25.74.94,2.37,2.17C56.67,90,54.67,89.06,55.59,88.58Z"/><path class="cls-12" d="M95.31,65.16c-2.81-5.82-14.23-7.76-18.39,3.67C84.94,64.76,95.31,65.16,95.31,65.16Z"/><path class="cls-13" d="M94.13,66.33a3.59,3.59,0,0,1-.83,3.4c-1.88,1.5-8.32,3.14-14.85.43,6.08.13,13.93-4,13.93-4Z"/><path class="cls-14" d="M76.86,68.88c-.52.61-1.19,1.16,1.28,1.4s5.29,1.51,10.46.44c3.85-.79,4.65-5.67,3.3-6.47C89.9,63.07,82.1,62.68,76.86,68.88Z"/><path class="cls-15" d="M78.53,69c-.09-1.28,10.32-4,12.36-1C90,72,78.71,71.51,78.53,69Z"/><path class="cls-16" d="M85.13,64.07c-5.58.06-6.59,6.55,0,6.75S91.32,64,85.13,64.07Z"/><path class="cls-17" d="M88.35,69.67l-3.79-1.9-2.42,2C82.87,70.72,87.28,70.74,88.35,69.67Z"/><path class="cls-18" d="M89.75,68.39c.56-1.06.16-3.73-1.91-4.19-2.46-.55-6.19.93-6.89,1.59s-.47,2.46,0,3.18a1.66,1.66,0,0,1,.45-1.74c2.18-1,6.08-1.26,7.36-.48A2.53,2.53,0,0,1,89.75,68.39Z"/><path class="cls-18" d="M83,67.44c0-2.25,4.21-2.79,4.35-.27C87.56,70.08,83,70.1,83,67.44Z"/><path class="cls-15" d="M84.09,68.5c.17-.94-1.27-1-1.47-.38C82.31,69.15,83.93,69.39,84.09,68.5Z"/><path class="cls-18" d="M76.56,69.23c4.13-4.64,12.51-5.62,15.92-2.73a5.12,5.12,0,0,0,5.46-2c-3.09,1.49-5-.38-7.32-1.05C87.21,62.41,80.71,61.84,76.56,69.23Z"/></g><path class="cls-25" d="M61.42,35c6.6,4.37,14,3.13,24.31,8.46,7.94,4.1,15.72,18.45,15.78,29.17C104.26,43.44,91.42,22,71,20.91s-35.59,27-34.86,43.21C39.74,49.35,57.7,40.53,61.42,35Z"/><path class="cls-26" d="M61,33c9.24,6.38,15.25,4.93,24.36,9.67a24.83,24.83,0,0,1,9.91,9.7c-5.78-12.79-14.63-17.58-23-19,9.24.59,14,4.94,14,4.94-4.48-4.95-12.54-6.51-20.08-5.89,3.66,1.67,7.95,3.09,7.95,3.09C67.06,34.23,61,33,61,33Z"/><path class="cls-26" d="M59.72,34.81c-1.79,3.71-7.79,9-11.31,10.66C52.09,39.1,58,34.67,59.72,34.81Z"/><path class="cls-4" d="M44.59,146.53c-1.39-22.84-5-36-5-36a21.11,21.11,0,0,0-10.75,8.79,93.14,93.14,0,0,0-4,10.75c-1.44,10.72-1.53,21.67-2.19,32.47a172.37,172.37,0,0,1-2.32,20.15c-1.24,6.92-2.84,13.77-4.62,20.58-2.63,10.05-4.42,20.31-6.18,30.56,6.69,4.06,14.8,8.26,21.78,9.79C31.36,243.57,46,169.37,44.59,146.53Z"/><path class="cls-27" d="M13.76,225.87c.66-4.35,1.59-8.66,2.55-13,1-4.6,2.26-9.16,3.34-13.75.56-2.39,1.05-4.79,1.63-7.17.51-2.12,1.33-4.17,1.27-6.39a.23.23,0,0,1,.44-.05c.92,3.1,1.55,6.45,3.27,9.24-.45-4-1.69-7.85-2.14-11.85-.47-4.17,0-8.46.19-12.65.35-8.6.13-17.23,1-25.8a.22.22,0,0,1,.22-.22c.91.06,1.77.35,2.66.46-.72-4.27-2.3-8.38-2.61-12.73a29.66,29.66,0,0,1,0-4c-.22.64-.44,1.31-.67,2-1.44,10.72-1.53,21.67-2.19,32.47a172.37,172.37,0,0,1-2.32,20.15c-1.24,6.92-2.84,13.77-4.62,20.58-2.63,10.05-4.42,20.31-6.18,30.56l2.47,1.46A78,78,0,0,0,13.76,225.87Z"/><path class="cls-5" d="M38.45,158.16c-1.41-3-3.16-5.88-4.63-8.89-1.55-3.16-2.82-6.47-4.16-9.72-.05-.13-.27.08-.23.19,1.23,3.35,2.45,6.68,3.92,9.93.77,1.71,1.69,3.33,2.6,5a28.09,28.09,0,0,0,2.19,3.85C38.25,158.62,38.51,158.29,38.45,158.16Z"/><path class="cls-5" d="M44.59,146.53c-1.39-22.84-5-36-5-36a21.11,21.11,0,0,0-10.75,8.79,93.14,93.14,0,0,0-4,10.75c-.13.94-.24,1.88-.35,2.82a.21.21,0,0,1,.23,0,8.63,8.63,0,0,1,2.95,4.25,61.16,61.16,0,0,1,2.1,6.91c.62,2.36,1.44,4.61,2.25,6.92,1,3,2,6,2.78,9.12,0,.19-.12,1-.25.75-2.56-4.15-4.53-9-8.11-12.37,5,9.58,12.24,32.32,2.22,51.46-2.86,5.45-5.33,11.09-8,16.63A117.5,117.5,0,0,0,31.3,200.93c.13-.23-8.22,23.56-9.71,28.17-1,3.14-2.33,6.37-6.12,6.53a10.37,10.37,0,0,1-3.56-.47c6.19,3.6,13.26,7.05,19.45,8.41C31.36,243.57,46,169.37,44.59,146.53Z"/><path class="cls-4" d="M136.6,156s-11.5-16.06-21-28.59-17.71-15.22-17.71-15.22c-4.94,13.18.37,35.21.37,35.21S112.87,160,113.7,162.91c.67,2.36-10.69,14.33-15.24,19a8.18,8.18,0,0,1,2.89,1.06,12.84,12.84,0,0,1,3.75,4.36,34,34,0,0,1,4.17,12.31c.71,4.44,1.24,8.92,1.8,13.38a49.67,49.67,0,0,0,2,9.8c.25.67.53,1.34.83,2l22.33-50.07C141.72,162,136.6,156,136.6,156Z"/><path class="cls-5" d="M136.6,156s-11.5-16.06-21-28.59-17.71-15.22-17.71-15.22c-4.94,13.18.37,35.21.37,35.21S112.87,160,113.7,162.91a2.28,2.28,0,0,1-.34,1.42,16.2,16.2,0,0,1,6.87-3.14c4.31-.65,8.54,2,11.57,4.76a.22.22,0,0,1-.27.34c-2.27-1.57-5.19-1.35-7.84-1.74,2.26,1.9,5.48,3.6,6,6.7.26,1.61-.64,3.2-1.28,4.61-.83,1.82-1.73,3.6-2.68,5.35-4,7.26-8.64,14.12-12.09,21.64a.22.22,0,0,1-.4,0c-1-5.39-.55-11.13-4-15.76A15.29,15.29,0,0,0,99.36,181l-.9.93a8.18,8.18,0,0,1,2.89,1.06,12.84,12.84,0,0,1,3.75,4.36,34,34,0,0,1,4.17,12.31c.71,4.44,1.24,8.92,1.8,13.38a49.67,49.67,0,0,0,2,9.8c.25.67.53,1.34.83,2l22.33-50.07C141.72,162,136.6,156,136.6,156Z"/><path class="cls-5" d="M136.6,156s-11.5-16.06-21-28.59-17.71-15.22-17.71-15.22c-4.94,13.18.37,35.21.37,35.21s12.32,10.58,15,14.6c1.84-1.34,3.68-2.68,5.41-4.17,3.2-2.78,6.16-5.81,9.16-8.81a.22.22,0,0,1,.34,0c.44.73,1.2,1.77,1,2.69a3.05,3.05,0,0,1-1.48,1.74c-2.06,1.4-4,3-5.94,4.49,3.93-1.83,8.09-2.65,12.45-1.21a.22.22,0,0,1-.07.43c-2.78.29-5.41,1.3-8.17,1.7a2.61,2.61,0,0,0,.27.06c3.41.74,9.36,1.49,9.58,6.1.12,2.6-1.23,4.91-2,7.3q-1.67,4.89-3.58,9.69c-2.54,6.32-5.4,12.51-8.48,18.58-1.52,3-3.16,5.9-4.68,8.88-1,1.89-1.84,4.22-3.68,5.43a.22.22,0,0,1-.32-.14c-.88-3.35-.64-6.88-1.4-10.26a75.51,75.51,0,0,0-2.85-9.41,36.24,36.24,0,0,0-2.13-4.88,37.59,37.59,0,0,1,2.65,9.38c.71,4.44,1.24,8.92,1.8,13.38a49.67,49.67,0,0,0,2,9.8c.25.67.53,1.34.83,2l22.33-50.07C141.72,162,136.6,156,136.6,156Z"/><path class="cls-3" d="M66.74,150.92a29.49,29.49,0,0,1-13.47-6c-4-3.39-6.43-7.94-8.6-12.63a62.28,62.28,0,0,1-4.94-15.84c-.92-5.35-2.5-10.6-2.91-16,0-.12-.19,0-.18.11.24,5.77,1.76,11.38,2.63,17.07A57.19,57.19,0,0,0,44,132.88c2.13,4.61,4.44,8.77,8.2,12.28s9.25,5.51,14.3,6.13C66.69,151.31,66.94,151,66.74,150.92Z"/><path class="cls-3" d="M82.88,167.54c-7.21-.07-14.13-.34-20.89-3.15a41.15,41.15,0,0,1-16.56-12.86c-9.17-11.93-11.2-26.73-10.25-41.39,0-.12-.15,0-.16.06a80.36,80.36,0,0,0,1,22.86,48.06,48.06,0,0,0,9.34,19.61A39.57,39.57,0,0,0,61,164.61c6.89,3,14.39,3.53,21.8,3.22C82.9,167.82,83.06,167.54,82.88,167.54Z"/><path class="cls-3" d="M101.71,107.77a80,80,0,0,1-2,11.49c-1.16,4-2.32,8.06-3.64,12-2.74,8.15-8.3,15.34-16.2,19-.08,0-.18.27,0,.21,7.17-2.87,12.94-9.22,15.85-16.35,1.86-4.54,2.83-9.43,4.3-14.11,1.28-4.05,1.53-8.15,2-12.33C102,107.48,101.73,107.65,101.71,107.77Z"/><path class="cls-3" d="M115.38,141.2a38.93,38.93,0,0,1-9.08,10.55A42.33,42.33,0,0,1,93.08,159c-9,3-20.92,4.79-29.51-.18,0,0-.11.06-.07.08,8.82,5.52,20.89,3.67,30.23.57,8.89-3,17.8-9.55,21.93-18.14C115.79,141,115.5,141,115.38,141.2Z"/><path class="cls-4" d="M41.16,92l-3.57,3.62s8,44.78,25.83,49.75,32.8-16.07,36.7-39.54,3.45-26.66,3.45-26.66-12.12,25.37-33.29,28S41.16,92,41.16,92Z"/><path class="cls-3" d="M68.36,146.39a19.3,19.3,0,0,1-5-.74c-7.48-2.09-14.14-11.15-19.79-26.92a163.06,163.06,0,0,1-6.26-23.06.33.33,0,0,1,.09-.27l3.56-3.62a.34.34,0,0,1,.27-.09.33.33,0,0,1,.23.18c.06.15,6.88,15,24.12,15.29a32.55,32.55,0,0,0,4.68-.26C91,104.28,103.18,79.28,103.3,79a.3.3,0,0,1,.32-.17.31.31,0,0,1,.26.25c0,.14.42,3.51-3.46,26.76-1.8,10.81-5.85,20.87-11.42,28.33C83,142.3,75.82,146.51,68.36,146.39ZM37.92,95.71c.54,2.89,8.7,44.64,25.58,49.35a19,19,0,0,0,4.87.73c16.06.26,28.19-20.43,31.45-40,2.78-16.65,3.35-23,3.45-25.37-2.66,5-14.42,24.77-33,27.1a35.16,35.16,0,0,1-4.76.27c-16-.26-23.24-12.85-24.48-15.26Z"/><path class="cls-5" d="M103.57,79.16s-12.12,25.37-33.29,28S41.16,92,41.16,92L39,98.5c.34,1,.67,2.08,1,3.13,2.27,7.31,4.53,14.68,8.85,21.09,3.77,5.58,8.86,11.48,16.07,12,13,.87,21.28-11.32,27.55-20.88a.26.26,0,0,1,.48.21,45.89,45.89,0,0,1-7.21,14.66c-3,4-6.89,7.77-11.53,9.83.7-.13,1.4-.27,2.09-.45,4.5-1.13,7.76-3.86,11.56-6.34a.27.27,0,0,1,.39.3c-2.62,8.45-13.16,12.85-21.43,12.13a28,28,0,0,1-10.75-3.25,17.6,17.6,0,0,0,7.36,4.47c17.78,5,32.8-16.07,36.7-39.54S103.57,79.16,103.57,79.16Z"/><path class="cls-4" d="M101.44,82C96.59,95.31,85.93,112.44,69.8,112.5s-28.54-15.36-33-30.19l-3-2.39S40.5,122.59,62,130.63s41.63-51.49,41.63-51.49l-1.21.06C102.08,80.13,101.78,81.05,101.44,82Z"/><path class="cls-3" d="M65.81,131.68a12,12,0,0,1-4-.77c-21.36-8-28.25-50.52-28.32-50.95a.31.31,0,0,1,.15-.31.3.3,0,0,1,.34,0l3,2.39a.25.25,0,0,1,.1.16c4.3,14.39,16.39,30,32.68,30,7.18,0,13.85-3.45,19.82-10.18,6.2-7,9.89-15.62,11.54-20.15.3-.83.6-1.73.92-2.75a.3.3,0,0,1,.27-.21l1.21-.06a.32.32,0,0,1,.26.12.31.31,0,0,1,.05.28,205.47,205.47,0,0,1-11.43,26.28C83.17,123,74.21,131.81,65.81,131.68Zm-31.56-51c1,5.83,8.36,42.41,27.81,49.69a11.21,11.21,0,0,0,3.76.73c18.56.3,35.57-46.62,37.32-51.6l-.54,0c-.3,1-.59,1.79-.87,2.58-1.66,4.56-5.39,13.29-11.65,20.35C84,109.28,77.16,112.78,69.8,112.8,53.25,112.86,41,97.07,36.57,82.49Z"/><path class="cls-5" d="M102.37,79.2c-.29.93-.59,1.85-.93,2.76C96.59,95.31,85.93,112.44,69.8,112.5s-28.54-15.36-33-30.19l-1.94.09a63.52,63.52,0,0,0,8.82,17c3.94,5.33,8.76,10,14.88,12.77a33.08,33.08,0,0,0,10.48,2.66,16.31,16.31,0,0,0,5.83-.26c1.56-.45,3-1.21,4.54-1.71a23.23,23.23,0,0,1-9.19,6.5,16.33,16.33,0,0,1-10.42.65A26.23,26.23,0,0,1,52.62,117a35.66,35.66,0,0,1-11-11.22c-.55-.86-1.07-1.75-1.57-2.65a83.81,83.81,0,0,0,4.09,9.3C48.9,118.53,56,123.1,64,122.82c13.81-.5,23.29-16.28,23.17-16-2,5.27-4.5,10.77-8.6,14.79a19.58,19.58,0,0,1-13.49,5.63,26,26,0,0,1-13-3.39A26.87,26.87,0,0,0,62,130.63c21.45,8,41.63-51.49,41.63-51.49Z"/><path class="cls-4" d="M103.29,36C94.5,15.22,70.57,14.5,70.57,14.5l-2.33,0s-23.94-.06-33.4,20.41S29.27,88.57,52,103.62a28,28,0,0,0,14.13,4.79,31.3,31.3,0,0,0,17.69-4.27C107.12,89.83,112.08,56.75,103.29,36ZM85.42,98.69a27.93,27.93,0,0,1-16.11,6.56h0a10.64,10.64,0,0,1-1.42,0,11.89,11.89,0,0,1-1.43-.07h0a28,28,0,0,1-15.9-7.09c-9.2-8.1-15.53-32.22-8.1-51C48.3,32.32,63.06,31.46,69.07,31.76c6-.1,20.73,1.23,26.1,16.21C102,67,94.88,90.89,85.42,98.69Z"/><path class="cls-3" d="M67.34,108.76h0l-1.18,0a28.64,28.64,0,0,1-14.3-4.86C41.35,96.92,34,85.37,31.06,71.34c-2.6-12.54-1.29-26.22,3.5-36.59C44,14.34,68,14.16,68.24,14.16l2.33,0c.25,0,24.23,1,33,21.67,4.45,10.52,5.32,24.23,2.32,36.69C102.53,86.48,94.77,97.78,84,104.4A31.75,31.75,0,0,1,67.34,108.76Zm3.22-93.95-2.32,0C68,14.77,44.38,15,35.12,35c-4.74,10.26-6,23.8-3.47,36.22,2.87,13.86,10.17,25.28,20.56,32.15a28,28,0,0,0,14,4.74,31.26,31.26,0,0,0,17.5-4.23C94.31,97.35,102,86.18,105.3,72.41c3-12.33,2.11-25.9-2.29-36.3C94.4,15.77,70.8,14.82,70.56,14.81ZM68,105.6h-.32c-.81,0-1.28-.08-1.3-.08l-.07,0a28.44,28.44,0,0,1-16-7.15C40.58,89.75,34.87,65.44,42.17,47,44.52,41.06,51,31.15,67.89,31.42l1.19,0c.35,0,.75,0,1.18,0,16.91.27,23,10.4,25.2,16.41,6.69,18.66.2,42.77-9.84,51.05a28.42,28.42,0,0,1-16.22,6.63l-.06,0S68.85,105.61,68,105.6Zm-.15-.61H68c.6,0,1,0,1.17,0l.08,0a27.84,27.84,0,0,0,15.94-6.5C90,94.56,94,86.72,96.11,77.47c2.32-10.29,1.89-20.73-1.22-29.4-2.1-5.86-8.1-15.74-24.64-16H69.07c-.38,0-.77,0-1.19,0-16.54-.27-22.85,9.4-25.15,15.2-3.39,8.56-4.16,19-2.17,29.34,1.79,9.31,5.6,17.28,10.19,21.32a27.92,27.92,0,0,0,15.73,7l.08,0c.16,0,.56,0,1.16.06Z"/><path class="cls-5" d="M103.29,36C94.5,15.22,70.57,14.5,70.57,14.5l-2.33,0s-.95,0-2.54.15c1.17.09,2.33.23,3.5.41,11.35,1.82,22.82,8.76,26.65,20,.24.59-3.23-4.13-5-5.8A31.87,31.87,0,0,0,83.74,24,24.69,24.69,0,0,0,70.48,21.6a37.77,37.77,0,0,1,11.11,3.25c3.13,1.55,6.21,3.81,7.1,7.37,0,.22-10.66-6.85-17-7.47-5.79-.56-11.81.71-17.23,2.71-8.39,3.1-16.76,8.9-18.69,18.07a38.47,38.47,0,0,1,8.88-10.34,31.61,31.61,0,0,1,13-5.87.27.27,0,0,1,.14.52A28.82,28.82,0,0,0,39.26,46.1C35.33,55,35,65.31,36.89,74.75,38.75,83.91,42.71,93,49.45,99.67a.27.27,0,0,1-.27.44A14.48,14.48,0,0,1,45,97.82a43.65,43.65,0,0,0,7,5.8,28,28,0,0,0,14.13,4.79,31.3,31.3,0,0,0,17.69-4.27C107.12,89.83,112.08,56.75,103.29,36ZM87.57,96.58a19.35,19.35,0,0,1-2.15,2.11,27.93,27.93,0,0,1-16.11,6.56h0a10.64,10.64,0,0,1-1.42,0,11.89,11.89,0,0,1-1.43-.07h0a28,28,0,0,1-15.9-7.09c-9.2-8.1-15.53-32.22-8.1-51C48.3,32.32,63.06,31.46,69.07,31.76a33.39,33.39,0,0,1,12.58,2.16c-.23-.39,9.92,2.4,13.21,6.52a36.4,36.4,0,0,1,7.76,18.48,42.18,42.18,0,0,1-2.21,18C98,84.13,93.87,92,87.57,96.58Z"/><path class="cls-28" d="M64.82,81.4a13.11,13.11,0,0,0,.6-2.86c-.16.4-.33.79-.51,1.18a16.33,16.33,0,0,1-.75,2.34c-.24.58-1.07,1.43-1,2.12a1.79,1.79,0,0,0,0,.23c.22.67.9,1.12,2,1.47a5.84,5.84,0,0,1,2.54,1.3c-.48-1.47-2.07-1.58-3.22-2.79C63.58,83.5,64.48,82.35,64.82,81.4Z"/><path class="cls-29" d="M67.09,83.75c-.24-.2-.5-.37-.73-.58a3.67,3.67,0,0,0-.6-.52c-.13-.07-.25.07-.3.18-.14.3.09.64.26.88a1.28,1.28,0,0,0,1,.64C66.94,84.36,67.31,83.93,67.09,83.75Z"/><path class="cls-27" d="M38.66,85.32c-5.08-13.92-8.1-29.08.18-42.5.09-.15-.09-.16-.17,0C29.8,56,31.39,71.89,38.35,85.59,38.44,85.77,38.71,85.47,38.66,85.32Z"/><path class="cls-27" d="M66.12,15.51c-8.58,1.2-17.81,4.44-23.87,10.9a38.12,38.12,0,0,0-7.13,10.86c-2,4.52-2.43,9.1-2.79,14,0,.36.42.06.46-.15.74-4.19,1.15-8.4,2.74-12.38a38.51,38.51,0,0,1,6.85-11.19c5.92-6.83,15.18-10,23.71-11.92C66.13,15.61,66.18,15.5,66.12,15.51Z"/><path class="cls-27" d="M57.19,117.78A42.47,42.47,0,0,1,38.25,91.15c0-.08-.13,0-.12.07,1.63,11,7.9,22.64,18.81,26.92C57.08,118.19,57.34,117.87,57.19,117.78Z"/><path class="cls-27" d="M81.22,115.41c-4.36,3.63-8.82,7-14.64,7.65a25.22,25.22,0,0,1-15.77-3.52s-.1,0-.06.07A21.29,21.29,0,0,0,67,124c5.39-.63,10.64-4.61,14.35-8.36C81.44,115.49,81.41,115.26,81.22,115.41Z"/><path class="cls-27" d="M67.22,142.87C60.39,141.59,55.74,137.69,52,132a56.53,56.53,0,0,1-4.41-8.36,78.75,78.75,0,0,1-3.67-9.18c0-.09-.18,0-.17.12a52.32,52.32,0,0,0,7.76,18.87c3.59,5.43,8.9,9.19,15.45,9.94C67.14,143.43,67.5,142.93,67.22,142.87Z"/></g></g></svg>