<svg xmlns="http://www.w3.org/2000/svg" viewBox="0 0 332.88 262.31"><defs><style>.cls-1{fill:#4c7dc9;}.cls-10,.cls-11,.cls-2{fill:#274040;}.cls-3{fill:#1c2b2b;}.cls-4{fill:#afcfd4;}.cls-5{fill:#fff;}.cls-6{fill:#f0aa86;}.cls-7{fill:#f19a88;}.cls-8{fill:#ec5448;}.cls-9{fill:#dd463e;}.cls-10{stroke:#274040;stroke-linejoin:round;stroke-width:5px;}.cls-11{font-size:17.34px;font-family:Roboto-Black, Roboto Black;font-weight:800;}.cls-12{letter-spacing:-0.01em;}.cls-13{letter-spacing:0em;}.cls-14{letter-spacing:0em;}.cls-15{font-size:18.92px;}.cls-16{letter-spacing:0em;}.cls-17{fill:#335062;}.cls-18{fill:#da7c7e;}.cls-19{fill:#e19698;}.cls-20{fill:#25373f;}.cls-21{fill:#436373;}</style></defs><g id="Layer_2" data-name="Layer 2"><g id="Layer_1-2" data-name="Layer 1"><circle class="cls-1" cx="160.12" cy="141.38" r="120.93" transform="translate(-53.07 154.63) rotate(-45)"/><circle class="cls-1" cx="160.12" cy="138.6" r="118.14"/><path class="cls-2" d="M110.63,118.9c-15,43.33-34.92,86.62-68.24,70C1,168.28-1.73,241.57,45.78,241.66c43.7.09,63.47-57.63,64.68-84.26S110.63,118.9,110.63,118.9Z"/><path class="cls-3" d="M106.19,158.51s-28.13,62.69-45.3,57.87l-8.26-24.12a33.89,33.89,0,0,1-10.24-3.34C1,168.28-1.73,241.57,45.78,241.66c40.23.08,60.17-48.81,64-77.36Z"/><ellipse class="cls-4" cx="40.61" cy="206.06" rx="27.13" ry="26.46"/><ellipse class="cls-5" cx="40.61" cy="204.56" rx="25.6" ry="24.97"/><path class="cls-6" d="M60.66,120.58c-12-6.91,12.81-26.39,3.1-45.84-8.23-16.5-34.94-9.6-31.88,9.16s9.17,34.38-11.36,35.41a39.11,39.11,0,0,0,22.77,7C57.21,126.35,60.66,120.58,60.66,120.58Z"/><path class="cls-7" d="M60.66,120.58c-11-6.35,9-23.29,4.83-41.08,1.2,10.45-7.19,30-13.8,33.72s-9.91,5-31.17,6.09a39.11,39.11,0,0,0,22.77,7C57.21,126.35,60.66,120.58,60.66,120.58Z"/><ellipse class="cls-7" cx="38.43" cy="201.68" rx="22.65" ry="22.09"/><path class="cls-6" d="M54.71,120.35c-24.2,1.38-33.25-3.91-44.8,1.29C-.51,126.33.15,136,4.77,140.31,9.71,145-.94,148,.28,154.57S5.9,166.1,3.43,170.31-.68,175.5.28,180.4s7.3,8.06,6.75,12.87S.75,214.37,45.18,212.6c35-1.4,27.91-17.74,21.9-20.39,2.26-2.33,12.09-13.3-1-23.18,7.78-3.15,10.13-19.71-.5-25.14C80.36,138.84,76.14,119.12,54.71,120.35Z"/><path class="cls-7" d="M67.08,192.21l-40.53,2.5a2.5,2.5,0,0,1-.31-5,1.6,1.6,0,0,1,.31,0Z"/><path class="cls-7" d="M66.12,169l-39.55,2.62h0a2.51,2.51,0,1,1-.33-5,1.61,1.61,0,0,1,.31,0Z"/><path class="cls-7" d="M65.62,143.86l-39.05,2.63h0a2.51,2.51,0,0,1-.34-5,1.71,1.71,0,0,1,.32,0Z"/><path class="cls-2" d="M160.12,262.31a120.4,120.4,0,0,0,73.55-24.95V115.5c-35.8,22.72-98.78,20.74-120.59-5.2-11,35.5-14.55,83.84,6.23,145A121,121,0,0,0,160.12,262.31Z"/><path class="cls-3" d="M233.67,115.5c-35.8,22.72-98.78,20.74-120.59-5.2q-1.56,5-2.91,10.38c.33,1.48,2.91,8,15.22,21l.27-2s7.73,6.37,13.5,8.53c5.08,1.9,28.17,4.57,28.17,4.57,6.41.46,15.85-.35,19-2l-.72,2.1s34.65-8.33,48.06-28.56Z"/><path class="cls-4" d="M137.88,125.88c-.63-.21-1.91,29.21,13.64,63,0,0,15.57-41,28.6-57.67C180.12,131.25,156.81,132.41,137.88,125.88Z"/><path class="cls-5" d="M113.08,110.3s-1.1,1.87-2.45,8.6c.14.17,8.58,17,29.76,29.14l15.17-18,11.09,21.18c18.78,1.61,54.78-9.82,67-28.1v-7.6C197.87,138.22,134.89,136.24,113.08,110.3Z"/><path class="cls-4" d="M233.67,123.1v-7.6a86.76,86.76,0,0,1-13,6.72c-12.15,17-29.63,28.15-54,29C185.43,152.81,221.43,141.38,233.67,123.1Z"/><polygon class="cls-8" points="143.8 143.98 147.44 154.97 157.33 156.5 165.07 148.19 155.56 130.02 143.8 143.98"/><path class="cls-8" d="M147.44,155l-3.64,13.49s3.38,12.21,7.72,20.46c0,0,6.9-16.92,8.22-19.88l-2.41-12.54Z"/><path class="cls-9" d="M155.56,130,143.8,144l.37,1.12L154.43,134l6.44,13.58-5.33,8.64L147.43,155l7.73,2.43,2,13.51-5.64,14.41L144,167.67h0l-.22.79s3.38,12.21,7.72,20.46c0,0,6.9-16.92,8.22-19.88l-2.41-12.54,7.74-8.31Z"/><path class="cls-6" d="M272.53,139.08c3-17.42,14.28-22.36,22.52-22.12s18.83,16.42,11.15,29.13A21.76,21.76,0,0,0,284,158.51Z"/><path class="cls-7" d="M301.3,132.69a14.17,14.17,0,0,0-4.55-2,13.86,13.86,0,0,0-4.93-.24,11.69,11.69,0,0,0-4.66,1.52,10.75,10.75,0,0,0-3.53,3.41l-.26-.15a7.15,7.15,0,0,1,2.55-5.31,10.23,10.23,0,0,1,5.54-2.45,10.86,10.86,0,0,1,5.86.89,8,8,0,0,1,4.15,4.05Z"/><path class="cls-7" d="M296.19,115.14a7.79,7.79,0,0,1,5.89,1.73,8.12,8.12,0,0,1,2,2.42,20.43,20.43,0,0,1,2.28,8.67,26.09,26.09,0,0,1-.48,5.74l-.3,0a29.78,29.78,0,0,0-.71-5.54,20.81,20.81,0,0,0-1.79-5.06,10.29,10.29,0,0,0-1.46-2.13L300,119.07c-.26-.32-.56-.59-.84-.92s-.62-.57-.92-.9-.68-.57-1-.89a11.31,11.31,0,0,1-1.13-.93Z"/><path class="cls-6" d="M273.35,135.34c-.47-9.29,9.24-10.9,1.23-25-5.19-9.14,3.94-18.32,9.4-15,11.48,7,1.92,23.36,5.18,22.41s18.76-8,32.91-5.3c11,2.1,4.67,10.6-.27,9.84-9.39-1.45-15.44.47-20.85,1.62S273.35,135.34,273.35,135.34Z"/><path class="cls-7" d="M289.16,101.9c1.16,5.33-1.83,13.26-5.53,16.64a24.46,24.46,0,0,0-5.53,7.87c1.8-2.77,4.95-5.85,11.06-8.67C286.71,118.45,291.49,109.42,289.16,101.9Z"/><path class="cls-7" d="M323,117.94c-6.37-1-14.07.59-19.68,3.24l1.06,1.95a43.44,43.44,0,0,1,17.39-.85c3.7.57,8.16-4.06,5.55-7.3C327.35,115,327.57,118.63,323,117.94Z"/><path class="cls-6" d="M297.7,123.9c12.55-4.33,26.54-6.13,32.77-1.53,4.85,3.59,1.62,10.7-3,9.28-8.93-2.72-20.61-1.13-25.67.39S297.7,123.9,297.7,123.9Z"/><path class="cls-7" d="M328.13,127.61a35.05,35.05,0,0,0-22.27.9v2.59c5.87-1.06,14.57-1.59,21.58.55,4.28,1.3,7.34-4.57,4.08-8.32A2.88,2.88,0,0,1,328.13,127.61Z"/><path class="cls-6" d="M298.6,131.88c11.08-4,23.43-5.63,28.93-1.4,4.28,3.29,1.43,9.83-2.69,8.52-7.87-2.5-18.19-1-22.65.36S298.6,131.88,298.6,131.88Z"/><path class="cls-7" d="M324.84,139c2.75.87,4.93-1.75,4.81-4.57h0c-1.52,4.74-8.94,0-21,1.81-3.57.53-3.6,1.16-3.19,2.32C310.61,137.54,318.51,137,324.84,139Z"/><path class="cls-6" d="M299.21,137.68c10.33-1.12,21.07.29,24.45,5.68,2.64,4.2-1.56,9.78-4.62,7.53-5.85-4.31-14.84-5.42-18.94-5.16S299.21,137.68,299.21,137.68Z"/><path class="cls-7" d="M306.18,146.09c4.18.62,9.15,2.06,12.86,4.8,1.91,1.41,4.27-.24,5.12-2.7-1.58,2.39-6.46-2-14.17-3.83-14.72-3.54-18.82,2.34-22.93-3-6.12-7.91-11.88-8.32-13.41-9.43a12.35,12.35,0,0,0-.3,3.39L284,158.51A21.76,21.76,0,0,1,306.18,146.09Z"/><path class="cls-2" d="M233.67,123.1c0,48.85,16.54,65.82,39.68,12.24,0,0,12.27,0,14.44,17.54C281.05,165,276.54,182.76,267.53,194c-11.09,13.78-30.28,11-39.5.89Z"/><path class="cls-5" d="M273.35,135.34c-1.11,2.57-2.21,5-3.28,7.23,9,3.71,11.72,11.83,13.32,19.48,1.41-3.25,2.84-6.36,4.4-9.17C285.62,135.34,273.35,135.34,273.35,135.34Z"/><path class="cls-4" d="M286.56,147.14c-1,4.1-3.14,6.77-4.33,4.22-1.7-3.65-6.18-9.49-11.35-10.52h0c-.27.59-.54,1.16-.81,1.73,9,3.71,11.72,11.83,13.32,19.48,1.41-3.25,2.84-6.36,4.4-9.17A31.12,31.12,0,0,0,286.56,147.14Z"/><path class="cls-10" d="M100.58,66.1c10.58-5.73,17.64-16,17.64-27.73,0-18-16.55-32.52-37-32.52s-37,14.56-37,32.52,16.55,32.53,37,32.53a41.42,41.42,0,0,0,12.17-1.82c3.4,5.93,10.39,11.53,24.78,10.23C118.2,79.31,106.3,77.2,100.58,66.1Z"/><path class="cls-5" d="M100.58,65.37c10.58-5.72,17.64-16,17.64-27.72,0-18-16.55-32.52-37-32.52s-37,14.56-37,32.52,16.55,32.52,37,32.52a41.41,41.41,0,0,0,12.17-1.81c3.4,5.92,10.39,11.52,24.78,10.23C118.2,78.59,106.3,76.47,100.58,65.37Z"/><text class="cls-11" transform="translate(61.55 36.16)">G<tspan class="cls-12" x="11.2" y="0">r</tspan><tspan class="cls-13" x="16.7" y="0">e</tspan><tspan class="cls-14" x="25.39" y="0">a</tspan><tspan x="33.68" y="0">t</tspan><tspan class="cls-15"><tspan class="cls-16" x="-0.33" y="15.76">D</tspan><tspan x="12.34" y="15.76">eal!</tspan></tspan></text><path class="cls-17" d="M136.43,54.81s1.48-38,36.95-25.19L144,62.06Z"/><path class="cls-6" d="M146,61.38s-10.79-17.55-21.07-2.33c-8.88,13.15,5.41,40.86,20.84,29.85Z"/><path class="cls-7" d="M136.65,53.25c-6.61,7.4-9,18.41-10.52,29.62,4.38,7.29,11.87,11.58,19.64,6L146,61.38S142.05,55,136.65,53.25Z"/><path class="cls-6" d="M233.67,115.5V43.94c0-48.45-76.09-6.93-76.09-6.93s-29.34,24.52-44.5,73.29C134.89,136.24,197.87,138.22,233.67,115.5Z"/><path class="cls-7" d="M218.94,39.57c-12.6-4.93-46.83,12.81-73.21,9.85q-1.68,2-3.49,4.35C175.43,55.65,205,35.44,218.94,39.57Z"/><path class="cls-7" d="M233.67,115.5V87.83l-5.37,1.65a92.31,92.31,0,0,1-3.27,19.1,19.72,19.72,0,0,1-12.51,13.65c-28.51,9.91-72.07,10.33-99.06-13.16,0,0-.16.59-.38,1.23C134.85,136.29,197.85,138.24,233.67,115.5Z"/><path class="cls-6" d="M228.3,62s10.94-17.45,21.09-2.15c8.77,13.22-5.75,40.82-21.09,29.67Z"/><path class="cls-7" d="M170.39,68.33c-4.23,9.29-18.45,20.54-15.89,27.12,1.45,3.73,12.21,5.53,15.91,2.36C177.88,91.42,170.39,68.33,170.39,68.33Z"/><path class="cls-18" d="M170.39,68.33c-4.23,9.29-19.17,19.82-16.61,26.4,1.44,3.72,11.48,4.79,15.18,1.63C176.43,90,170.39,68.33,170.39,68.33Z"/><path class="cls-19" d="M163.18,81.79c-.57,1.27-1.21,2.49-1.84,3.73s-1.33,2.43-2,3.62a16.51,16.51,0,0,0-.85,1.82c-.24.59-.51,1.16-.68,1.63a1.61,1.61,0,0,0-.1,1.21,6.25,6.25,0,0,0,1.15,1.52l-.08.2a3.26,3.26,0,0,1-2.25-.75,2.43,2.43,0,0,1-.79-1.25,3.28,3.28,0,0,1,0-1.42c.31-1.74,1.38-2.75,2.18-3.9s1.68-2.2,2.53-3.28L163,81.68Z"/><circle class="cls-20" cx="191.02" cy="70.04" r="7.21"/><circle class="cls-5" cx="193.22" cy="69.62" r="1.81"/><path class="cls-5" d="M196.19,68a1,1,0,1,1-1-1A1,1,0,0,1,196.19,68Z"/><path class="cls-7" d="M208.44,68.66a2.12,2.12,0,0,1-2.07-1.8c-.69-4-2.34-6.73-5-8.29-6.48-3.74-16.71.39-16.81.43a2.08,2.08,0,0,1-2.74-1.22A2.2,2.2,0,0,1,183,55c.5-.21,12.21-4.92,20.43-.18,3.82,2.2,6.23,6,7.13,11.33a2.17,2.17,0,0,1-1.71,2.53A2.22,2.22,0,0,1,208.44,68.66Z"/><path class="cls-20" d="M209.34,67.21a2.18,2.18,0,0,1-2.14-1.8c-.71-4-2.42-6.73-5.21-8.29-6.7-3.74-17.27.38-17.37.43A2.18,2.18,0,0,1,183,53.49c.51-.2,12.62-4.91,21.1-.18,4,2.21,6.44,6,7.38,11.34a2.18,2.18,0,0,1-1.77,2.52A1.64,1.64,0,0,1,209.34,67.21Z"/><circle class="cls-20" cx="152.64" cy="69.45" r="6.75"/><path class="cls-5" d="M156.39,69.06a1.7,1.7,0,1,1-1.7-1.69A1.7,1.7,0,0,1,156.39,69.06Z"/><circle class="cls-5" cx="156.51" cy="67.54" r="0.96"/><path class="cls-7" d="M136.18,67.71a2.45,2.45,0,0,1-.38,0,2.18,2.18,0,0,1-1.72-2.52c.86-5,3.15-8.63,6.79-10.71,7.79-4.47,18.89,0,19.36.16a2.2,2.2,0,0,1,1.19,2.83,2.11,2.11,0,0,1-2.76,1.22c-.15-.06-9.73-3.85-15.73-.4-2.5,1.44-4,3.94-4.67,7.65A2.14,2.14,0,0,1,136.18,67.71Z"/><path class="cls-20" d="M135.49,66.25a2.56,2.56,0,0,1-.39,0,2.18,2.18,0,0,1-1.76-2.53c.88-5,3.23-8.62,7-10.71,8-4.46,19.4,0,19.88.16a2.18,2.18,0,0,1-1.61,4.06c-.16-.07-10-3.86-16.15-.4-2.58,1.43-4.14,3.94-4.8,7.65A2.18,2.18,0,0,1,135.49,66.25Z"/><path class="cls-5" d="M156.87,105.08,205,86.17s4.05,28.66-18.57,34.18C163.43,126,156.87,105.08,156.87,105.08Z"/><path class="cls-4" d="M205,86.17l-3.35,1.31s3.77,26.67-17.28,31.81c-21.43,5.22-27.54-14.21-27.54-14.21s6.56,20.89,29.6,15.27C209.09,114.83,205,86.17,205,86.17Z"/><path class="cls-7" d="M197.4,81.8a18.77,18.77,0,0,1,5-2.88,11,11,0,0,1,2.94-.7,5.64,5.64,0,0,1,3.28.65,5.17,5.17,0,0,1,2.2,2.6,8.83,8.83,0,0,1,.61,3,15.81,15.81,0,0,1-.84,5.7c-.3-1.89-.46-3.75-.85-5.48s-1-3.31-2.2-3.94-2.94-.53-4.67-.2S199.28,81.43,197.4,81.8Z"/><path class="cls-7" d="M184.7,122.87a45.38,45.38,0,0,0,4.94-.8,18.25,18.25,0,0,0,4.66-1.72,13.17,13.17,0,0,0,3.83-3.09,19.18,19.18,0,0,0,2.64-4.22l.2.09a9.67,9.67,0,0,1-1.51,5.24,11,11,0,0,1-4.12,3.9,12.67,12.67,0,0,1-5.31,1.49,12.84,12.84,0,0,1-5.31-.67Z"/><path class="cls-17" d="M218.09,18.42a6.84,6.84,0,0,1,.82-1.1,12.87,12.87,0,0,1,2.78-2.22,11.58,11.58,0,0,1,3.47-1.36v-.29a10.53,10.53,0,0,0-4,.31,11.72,11.72,0,0,0-3.74,1.79c-.51.36-1,.74-1.5,1.15q0-.68,0-1.35c0-.51,0-1-.07-1.53s-.05-1-.11-1.52l-.18-1.51-.29-1.49c-.1-.49-.23-1-.35-1.47s-.29-1-.44-1.44-.34-.95-.52-1.41a10.34,10.34,0,0,0-1.48-2.63l-.24.16a16.65,16.65,0,0,1,1.25,5.58,32.9,32.9,0,0,1,0,5.7,12.88,12.88,0,0,1-.18,1.39,12.33,12.33,0,0,1-.29,1.37,1.16,1.16,0,0,1,0,.18c-8.61-22-40.52-22.59-57.86,0C135.74,41.93,122.26,37,122.26,37c27.67,36.16,101.61-19,101.61,11.15L222.14,66,233.67,57C248.77,27.19,228.59,16.19,218.09,18.42Z"/><path class="cls-20" d="M188.34,35c-19.46,9.29-51.91,13.34-65.09,3.15,28.39,33.67,100.62-19.91,100.62,9.94C225.83,25.12,208.57,25.39,188.34,35Z"/><path class="cls-20" d="M233.67,57c8.84-17.41,5.59-28.4-.72-34.07h0c7.87,9.66.44,28.67-4.55,38.23Z"/><path class="cls-21" d="M155.14,16.69a113.68,113.68,0,0,1-7.77,8.91c12-12.8,22.84-20.36,34.95-21.52,12.94-1.24,27,3.26,31.85,16.22C207.75-5.15,173.38-7,155.14,16.69Z"/><path class="cls-21" d="M134.11,39.09A99.11,99.11,0,0,1,147,37.17c1.06-.08,2.13-.16,3.19-.22s2.14-.05,3.2-.07l3.21,0c1.07,0,2.14-.08,3.21-.14s2.13-.17,3.19-.25,2.13-.18,3.19-.32,2.13-.22,3.19-.37l3.17-.49A71.3,71.3,0,0,0,185,32.11l.18.39A63.2,63.2,0,0,1,173,37.41a102.3,102.3,0,0,1-12.84,2.78c-1.08.16-2.16.33-3.25.52l-3.25.47a40,40,0,0,1-6.56.35c-1.09,0-2.19-.08-3.28-.18s-2.18-.2-3.27-.36a36.19,36.19,0,0,1-6.49-1.47Z"/><path class="cls-21" d="M201.8,14.18a40.29,40.29,0,0,0-4.48.65q-2.23.42-4.41,1a66.86,66.86,0,0,0-8.5,2.87,69.24,69.24,0,0,0-8,3.87A66.37,66.37,0,0,0,169,27.31l-.87.65c-.3.23-.62.46-.91.7l-1.8,1.44c-1.2,1-2.39,1.94-3.63,2.89a38.6,38.6,0,0,1-8.16,4.93A31.52,31.52,0,0,1,144,40.55a27.16,27.16,0,0,1-9.81-.81l-.1-.87c2.89-1.57,5.69-2.8,8.23-4.19a83.51,83.51,0,0,0,7.25-4.38,82.12,82.12,0,0,1,7.54-4.61c1.33-.73,2.7-1.43,4.06-2.14l2-1.09,2.08-1.13A74.79,74.79,0,0,1,174,17.27a70.54,70.54,0,0,1,9.14-2.75,64.74,64.74,0,0,1,9.35-1.4,46.88,46.88,0,0,1,9.4.19Z"/><path class="cls-21" d="M155.43,16.78A43.55,43.55,0,0,1,165.7,9.33c1-.46,1.91-1,2.92-1.36a30,30,0,0,1,3-1.14l1.56-.48c.52-.16,1.06-.25,1.59-.38l1.6-.35c.54-.11,1.09-.16,1.63-.24l1.64-.24L181.33,5,183,4.89h1.67l1.68.07c.55.07,1.1.16,1.65.25s1.1.21,1.65.34,1.06.34,1.59.52A23.38,23.38,0,0,1,202,13.54l-.29.42c-1.09-.22-2.1-.53-3.09-.83-.48-.18-1-.28-1.49-.41l-1.47-.4c-.95-.32-1.94-.48-2.89-.73s-1.9-.43-2.85-.61l-1.42-.3c-.47-.07-.95-.15-1.42-.24l-1.41-.3-1.42-.22-1.44-.26-1.45-.14c-.49,0-1-.1-1.46-.12l-1.47,0c-.49,0-1,0-1.48.05l-1.47.16c-.49.07-1,.09-1.47.19l-1.47.28a26.76,26.76,0,0,0-2.92.66,29.94,29.94,0,0,0-2.88.9,46.65,46.65,0,0,0-11,5.5Z"/><path class="cls-21" d="M222.66,28.72a6.46,6.46,0,0,1,3.1,2,11.35,11.35,0,0,1,2,3A16.88,16.88,0,0,1,229,40.65a14.43,14.43,0,0,1,0,1.74c0,.57,0,1.15,0,1.72-.11,1.14-.18,2.28-.34,3.41s-.35,2.24-.59,3.35-.5,2.2-.76,3.29l-.29,0c0-1.12.1-2.24.16-3.35s0-2.23,0-3.33-.1-2.21-.14-3.31c0-.54-.11-1.08-.16-1.63s-.1-1.08-.21-1.61-.2-1.06-.31-1.59-.3-1-.44-1.54-.32-1-.46-1.5-.28-1-.43-1.49A19,19,0,0,0,222.52,29Z"/><path class="cls-21" d="M231.49,43.92A21.55,21.55,0,0,0,230,39.58a15.48,15.48,0,0,0-1-1.93,10.34,10.34,0,0,0-.57-.89l-.3-.43-.33-.4a8,8,0,0,0-1.5-1.36,5.59,5.59,0,0,1-.74-.61c-.21-.24-.42-.47-.62-.73l-.28-.41a3.23,3.23,0,0,0-.29-.43,8.8,8.8,0,0,1-.59-.93c-.18-.36-.41-.68-.62-1.06a11.79,11.79,0,0,1-.63-1.32l.2-.46a6.55,6.55,0,0,1,5.55.77,5.69,5.69,0,0,1,1.93,2c.42.85.8,1.69,1.12,2.53l.26.61.2.64a11.27,11.27,0,0,1,.36,1.26,17.39,17.39,0,0,1,.36,2.55,15.54,15.54,0,0,1-.47,5Z"/><path class="cls-21" d="M220.58,22.24a9.71,9.71,0,0,1,3.5.37,11.26,11.26,0,0,1,3.23,1.62A13.87,13.87,0,0,1,231.68,30l.35.84a8.78,8.78,0,0,1,.33.85l.56,1.74a13.48,13.48,0,0,1,.44,3.57A17,17,0,0,1,231.89,44l-.29,0a26.08,26.08,0,0,1-.65-3.43c-.21-1.11-.3-2.22-.49-3.29a43.23,43.23,0,0,0-1-6.38,13.5,13.5,0,0,0-1.24-2.93,4.28,4.28,0,0,0-.4-.69l-.45-.66a14.65,14.65,0,0,0-1-1.2,9.79,9.79,0,0,0-2.61-1.89,10.41,10.41,0,0,0-3.18-.92Z"/><path class="cls-3" d="M220.41,141.43A61.24,61.24,0,0,0,215.78,155a60.36,60.36,0,0,0-1.4,14.22,49.19,49.19,0,0,0,.67,7.08,56.92,56.92,0,0,0,1.55,6.87,29.74,29.74,0,0,0,2.66,6.44,18.74,18.74,0,0,0,2,2.83,13.49,13.49,0,0,0,2.7,2.27l-.08.2a10.73,10.73,0,0,1-3.29-1.74,16,16,0,0,1-2.63-2.7,24.85,24.85,0,0,1-3.47-6.63,41.11,41.11,0,0,1-1.88-14.62,59.93,59.93,0,0,1,7.58-27.93Z"/><path class="cls-3" d="M160.12,262.31a120.4,120.4,0,0,0,73.55-24.95h0V199.42c6.3,3.59,17.88,7.08,28.54-.46,13.61-9.63,21.18-36.91,21.18-36.91s-.73-3.14-2-7.16c-4,9.16-15.22,42.54-32.28,45.71-15.38,2.85-30.4-9.26-30.4-9.26l0,32.78A20.4,20.4,0,0,1,208.41,242c-15,8.45-46.18,19.87-91.22,6.45l2.12,6.84A120.72,120.72,0,0,0,160.12,262.31Z"/><path class="cls-3" d="M185.14,154.93c-.62,1.69-1.21,3.4-1.87,5.07l-1.94,5-1.93,5.05-2,5-.15.36-.4.22-7.19,4.05a.89.89,0,0,0,.34-.5.81.81,0,0,0-.6-.94.31.31,0,0,0-.13,0h.4l2.12.09c1.41.05,2.82.14,4.22.22l3.34.19-2.15,2.63-6.73,8.22-6.81,8.15c-2.26,2.72-4.56,5.42-6.86,8.11l-6.91,8.06.43-1c-.4,3.76-.54,7.7-.58,11.56s0,7.78.23,11.67.66,7.76,1.14,11.63,1.25,7.72,2.08,11.57h0a.11.11,0,0,1-.08.13.1.1,0,0,1-.13-.07A110,110,0,0,1,150.15,248c-.73-3.86-1.26-7.76-1.64-11.67s-.59-7.84-.64-11.78,0-7.86.37-11.79v-.05l0,0L162,196.37l13.73-16.2.12.29-4.22-.32L169.5,180c-.18,0-.32,0-.55-.05a.85.85,0,0,1-.51-.38.87.87,0,0,1,.22-1.16c1.28-.69,2.51-1.31,3.77-2l3.75-1.95-.06.07,8.82-19.69a.11.11,0,0,1,.15-.05.1.1,0,0,1,.06.13Z"/><path class="cls-3" d="M125.78,148.68c.42,4.17.9,8.33,1.64,12.45a71.18,71.18,0,0,0,3.2,12.1l-.08-.09,3.48,2.05,1.73,1,.44.26a.83.83,0,0,1,.37.54.83.83,0,0,1-.69,1h0l-2.62-.11-1.31,0h-.27s0,0,0,0l.3.53,2.63,4.55,5.27,9.09,10.53,18.19a.11.11,0,0,1,0,.15.1.1,0,0,1-.14,0h0c-2.15-2.8-4.15-5.69-6.14-8.58-1-1.46-2-2.91-2.92-4.38l-2.85-4.42-2.78-4.46c-.93-1.48-1.85-3-2.73-4.49l-2.69-4.51-.17-.29-.08-.14-.05-.07,0-.05a2,2,0,0,1-.18-.39,2.17,2.17,0,0,1,1.49-2.77,2.14,2.14,0,0,1,.43-.07H132l1.31.07,2.63.14-.39,0a1.29,1.29,0,0,0-.86.55,1.24,1.24,0,0,0-.2,1,1.33,1.33,0,0,0,.57.85l-.37-.22L133,177l-3.41-2.16-.58-.36-.18-.55a50.32,50.32,0,0,1-1.69-6.23,61.84,61.84,0,0,1-1-6.31c-.12-1.06-.22-2.12-.3-3.17s-.13-2.11-.17-3.17c-.09-2.11-.09-4.22,0-6.33h0a.11.11,0,0,1,.11-.11A.13.13,0,0,1,125.78,148.68Z"/><path class="cls-3" d="M155.65,216.78a2.72,2.72,0,0,1,2.51.63,5.14,5.14,0,0,1,1.5,2.24,6.52,6.52,0,0,1-.44,5.37,4.47,4.47,0,0,1-2.41,2,3.34,3.34,0,0,1-3.19-.69,4.36,4.36,0,0,1-1.37-2.42,5,5,0,0,1,.14-2.5v0a.06.06,0,0,1,.09,0,.06.06,0,0,1,0,.06,5,5,0,0,0,1.75,4,2.21,2.21,0,0,0,2.07.33,3.2,3.2,0,0,0,1.61-1.45,6.05,6.05,0,0,0,.58-4.36,4.77,4.77,0,0,0-1-2,2.63,2.63,0,0,0-1.93-1,.08.08,0,0,1-.07-.07.06.06,0,0,1,0-.06Z"/></g></g></svg>