<svg xmlns="http://www.w3.org/2000/svg" viewBox="0 0 385.17 341.65"><defs><style>.cls-1{fill:#eaebeb;}.cls-2,.cls-4{fill:none;stroke-miterlimit:10;}.cls-2{stroke:#cacccd;stroke-width:2.18px;}.cls-3{fill:#e7922e;opacity:0.15;}.cls-4{stroke:#1a233a;stroke-width:3.2px;}.cls-5{font-size:32.13px;font-family:Effra-Bold, Effra;font-weight:700;}.cls-5,.cls-6{fill:#1a233a;}</style></defs><g id="Layer_2" data-name="Layer 2"><g id="Layer_1-2" data-name="Layer 1"><rect class="cls-1" x="1.43" width="382.14" height="341.65"/><line class="cls-2" x1="383.57" y1="109.27" x2="1.43" y2="109.27"/><line class="cls-2" x1="383.57" y1="211.97" x2="1.43" y2="211.97"/><line class="cls-2" x1="383.57" y1="314.67" x2="1.43" y2="314.67"/><path class="cls-3" d="M383.57,264.18v50.87H1.43V278.4c.94-1.87,34.63,12.39,52.67-8.07,1.78-2,3.47-4.08,5.08-6.15,14.69-18.79,22.94-37.32,36.2-21.12,14.71,18,28,14.87,35.11-6.2s28.47-26,42.71-6.81,29.42,32.23,36.06,30.37,20.41-18,26.57-6.54a73.9,73.9,0,0,0,6.31,10.3c3.65,4.66,7.34,6.45,12.2,3.68a25.79,25.79,0,0,0,4.55-3.68c6.06-5.73,13.25-13.18,30.4-.66a4.59,4.59,0,0,0,1.25.66h2.11c19.54-6.55,32.26-192.79,58-170.1,21.74,19.16,29.75,127.4,32.08,170.1Z"/><path class="cls-4" d="M1.43,278.4c1-1.86,34.64,12.39,52.67-8.06s26.57-45.25,41.28-27.28,28,14.87,35.11-6.2,28.47-26,42.71-6.81,29.42,32.23,36.06,30.37,20.41-18,26.58-6.54,10.91,18.32,18.5,14,13.45-20,35-4.34,34.16-193.4,61.37-169.44,32.9,187.43,32.9,187.43"/><text class="cls-5" transform="translate(129.43 51.33) scale(0.99 1)">356.124.65</text><path class="cls-6" d="M135.65,70.88a8.45,8.45,0,0,1,.56,1.31q.25.74.45,1.5c.12.51.22,1,.3,1.54a10.51,10.51,0,0,1,.1,1.42,3.12,3.12,0,0,1-2,3,15,15,0,0,1-6.18,1,22.83,22.83,0,0,1-3.68-.26,8.13,8.13,0,0,1-2.56-.8,3.66,3.66,0,0,1-1.48-1.37,4,4,0,0,1-.48-2,7.39,7.39,0,0,1,.36-2.16,11,11,0,0,1,1-2.26l1.27.63a11.05,11.05,0,0,0-.59,1.62,5.75,5.75,0,0,0-.2,1.4,2.61,2.61,0,0,0,.35,1.37,2.45,2.45,0,0,0,1.11.91,6.89,6.89,0,0,0,2,.52,20.61,20.61,0,0,0,2.94.17,25.26,25.26,0,0,0,2.53-.12,14,14,0,0,0,2.06-.34,6.11,6.11,0,0,0,1.39-.49c.34-.19.52-.38.52-.59a6.47,6.47,0,0,0-.11-1.07,12.26,12.26,0,0,0-.31-1.27c-.14-.44-.3-.89-.47-1.34s-.37-.87-.58-1.28Zm-8.82-.56-1.49-1.52,1.49-1.52,1.48,1.52Zm3.5,0-1.49-1.52,1.49-1.52,1.48,1.52Z"/><path class="cls-6" d="M139.92,80.4l-.12-15.25,1.89-.34-.12,15.59Z"/><path class="cls-6" d="M143.92,78.15a12.84,12.84,0,0,0,1.36.18c.48,0,.95.06,1.4.06a12.74,12.74,0,0,0,1.4-.07c.46,0,.86-.11,1.21-.18a3.71,3.71,0,0,0,.85-.27q.33-.15.33-.3a3.76,3.76,0,0,0-.28-1.28,8.23,8.23,0,0,0-.77-1.5,12.94,12.94,0,0,0-1.17-1.56,15.9,15.9,0,0,0-1.48-1.48l1.49-1.43A15,15,0,0,1,149.87,72a12.66,12.66,0,0,1,1.22,1.83,9.3,9.3,0,0,1,.78,1.84,6.32,6.32,0,0,1,.28,1.77,2.52,2.52,0,0,1-1.29,2.39,9,9,0,0,1-4.18.73c-.34,0-.72,0-1.16,0l-1.14-.12Z"/><path class="cls-6" d="M154.85,80.4l-.12-15.25,1.9-.34-.12,15.59Z"/><path class="cls-6" d="M167.9,80.4a4.67,4.67,0,0,1-2.66-.7,7,7,0,0,1-2.16,3.17,12.83,12.83,0,0,1-4.15,2.36l-1.1-1.91A15.38,15.38,0,0,0,162.07,81a4.86,4.86,0,0,0,1.87-2.78,14.14,14.14,0,0,1-.68-1.55c-.23-.61-.5-1.38-.8-2.29l1.79-.85.59,1.79c.2.59.36,1,.47,1.28a4,4,0,0,0,.41.8,1.83,1.83,0,0,0,.5.5,1.78,1.78,0,0,0,.69.27,5.67,5.67,0,0,0,1,.07l.38.24v1.69Z"/><path class="cls-6" d="M168.74,85.37l-1.49-1.52,1.49-1.52,1.48,1.52Zm-1.23-5.22V78.46l.39-.24a7.46,7.46,0,0,0,2.73-.42c.7-.28,1.06-.62,1.06-1a6.47,6.47,0,0,0-.11-1.07,12.26,12.26,0,0,0-.31-1.27c-.14-.44-.3-.89-.47-1.34s-.37-.87-.58-1.28l1.73-1a10.83,10.83,0,0,1,.54,1.26q.25.72.45,1.47a13.71,13.71,0,0,1,.32,1.46,8.71,8.71,0,0,1,.1,1.27A3.54,3.54,0,0,1,172,79.42a7,7,0,0,1-4.12,1Zm4.73,5.22-1.49-1.52,1.49-1.52,1.48,1.52Z"/><path class="cls-6" d="M175.43,78.2q.52-.44,1.08-1c.36-.37.73-.76,1.09-1.18s.7-.83,1-1.26.65-.87.93-1.28c-.81-.94-1.69-1.85-2.62-2.74a30.94,30.94,0,0,0-2.82-2.36l1.34-1.62c.4.34.82.71,1.26,1.13s.89.86,1.33,1.32.88.92,1.3,1.38.8.9,1.15,1.31a12.54,12.54,0,0,0,1-3,20.7,20.7,0,0,0,.36-3.73l1.89-.34a19,19,0,0,1-.56,4.43,16,16,0,0,1-1.57,4,16.45,16.45,0,0,1,1.84,2.71,4.47,4.47,0,0,1,.55,2,2.19,2.19,0,0,1-1.18,2,6.82,6.82,0,0,1-3.44.71,14.24,14.24,0,0,1-2.08-.16,6.62,6.62,0,0,1-1.59-.42Zm2.85,7.71a15.46,15.46,0,0,0-3.69.72l-.34-.87,1.18-.43a1.46,1.46,0,0,1-.8-1.31,1.88,1.88,0,0,1,1.88-1.86,1.71,1.71,0,0,1,1.34.6l-.48.71a1.43,1.43,0,0,0-.77-.22,1.1,1.1,0,0,0-.71.22.67.67,0,0,0-.27.55.72.72,0,0,0,.37.61,2.23,2.23,0,0,0,1,.29c.28,0,.53-.09.77-.11l.7-.06Zm4.08-8.36a1.34,1.34,0,0,0-.14-.48,6.07,6.07,0,0,0-.34-.67c-.15-.25-.32-.52-.52-.8s-.42-.57-.66-.86a23.78,23.78,0,0,1-1.41,1.92,19.86,19.86,0,0,1-1.59,1.71,6,6,0,0,0,.89.13c.32,0,.66,0,1,0a6.1,6.1,0,0,0,2-.28C182.1,78.07,182.36,77.83,182.36,77.55Z"/><path class="cls-6" d="M186.77,80.4l-.12-15.25,1.89-.34-.12,15.59Z"/><path class="cls-6" d="M199.71,90.21l-1.48-1.53,1.48-1.52,1.49,1.52Zm3.51,0-1.49-1.53,1.49-1.52,1.48,1.52Z"/><path class="cls-6" d="M203.91,76.34a19.06,19.06,0,0,1,2.06.87,9.92,9.92,0,0,1,1.61,1,5,5,0,0,1,1,1,1.71,1.71,0,0,1,.37,1,3.16,3.16,0,0,1-.64,1.85,6.82,6.82,0,0,1-1.71,1.62,9.42,9.42,0,0,1-2.41,1.14,9,9,0,0,1-2.76.44,7.08,7.08,0,0,1-2.41-.39,5.53,5.53,0,0,1-1.89-1.1A4.9,4.9,0,0,1,196,82a5.62,5.62,0,0,1-.43-2.26,7.92,7.92,0,0,1,.48-2.66,9.63,9.63,0,0,1,1.34-2.51l1.22.77a7.31,7.31,0,0,0-1.22,3.87A3.46,3.46,0,0,0,198.53,82a4.7,4.7,0,0,0,3.2,1,7.73,7.73,0,0,0,2.11-.29,9.07,9.07,0,0,0,1.77-.7,5.11,5.11,0,0,0,1.23-.87,1.28,1.28,0,0,0,.45-.82c0-.15-.11-.31-.33-.49a6.87,6.87,0,0,0-.88-.55c-.36-.19-.77-.38-1.22-.57l-1.38-.54Z"/><path class="cls-6" d="M203.91,76.34a7.24,7.24,0,0,0,2.42-.34c.61-.23.91-.57.91-1l-.07-9.81,1.9-.34L209,74.72a2.9,2.9,0,0,1-1.4,2.66,8.27,8.27,0,0,1-4.11.82Z"/><path class="cls-6" d="M216,80.4q-3.87,0-3.91-3.39L212,65.15l1.9-.34-.1,11.48a1.83,1.83,0,0,0,.52,1.48,2.55,2.55,0,0,0,1.69.45l.38.24v1.69Z"/><path class="cls-6" d="M223.48,80.57a5.11,5.11,0,0,1-2.27-.52,5.27,5.27,0,0,1-1.79-1.47A4,4,0,0,1,218,80a4.06,4.06,0,0,1-1.94.43l-.38-.25V78.46l.38-.24a4.25,4.25,0,0,0,.83-.08,2.21,2.21,0,0,0,.67-.28,2.64,2.64,0,0,0,.56-.51,4.62,4.62,0,0,0,.53-.8L220,74.14a6.44,6.44,0,0,1,1.6-2,2.93,2.93,0,0,1,1.85-.64,2.89,2.89,0,0,1,1.47.41A4.23,4.23,0,0,1,226.08,73a5.8,5.8,0,0,1,.82,1.63,6.12,6.12,0,0,1,.32,2,4.08,4.08,0,0,1-1,2.91A3.56,3.56,0,0,1,223.48,80.57Zm-3.12-3.73a3.69,3.69,0,0,0,1.4,1.16,4,4,0,0,0,1.86.46,2,2,0,0,0,1.44-.5,1.91,1.91,0,0,0,.53-1.43,3.4,3.4,0,0,0-.18-1.11,2.79,2.79,0,0,0-.51-.93,2.33,2.33,0,0,0-.74-.63,1.83,1.83,0,0,0-.88-.23c-.86,0-1.59.59-2.18,1.76Zm8.85,3.56a4.58,4.58,0,0,1-2.38-.57,3,3,0,0,1-1.32-1.61l1.25-1.52a1.24,1.24,0,0,0,.64,1.12,3.35,3.35,0,0,0,1.81.4l.38.24v1.69Z"/><path class="cls-6" d="M235,84.89l-1.49-1.52L235,81.85l1.49,1.52Z"/><path class="cls-6" d="M235.13,76.45c.56-.27,1.07-.51,1.52-.71a10.83,10.83,0,0,1,1.31-.5l-1.23-.53-1.36-.56a9.11,9.11,0,0,0-1-.36,6.31,6.31,0,0,0-.77-.2,3.63,3.63,0,0,0-.64-.06,2.33,2.33,0,0,0-1,.22,3.66,3.66,0,0,0-.94.8l-1.11-.87A4.59,4.59,0,0,1,231.33,72a3.55,3.55,0,0,1,1.95-.52,4.49,4.49,0,0,1,.73.06c.25,0,.53.11.83.19s.65.22,1,.38l1.38.6c.43.2.81.36,1.14.5s.62.25.88.34a3.83,3.83,0,0,0,1.32.23h.47v2c-.36.09-.72.2-1.07.32a10.78,10.78,0,0,0-1.11.45l-1.26.61c-.45.24-1,.52-1.54.86-.77.44-1.46.81-2.08,1.11a13.15,13.15,0,0,1-1.72.73,9.77,9.77,0,0,1-1.55.39,9.67,9.67,0,0,1-1.53.12l-.39-.25V78.46l.39-.24a8.58,8.58,0,0,0,1.35-.1,9,9,0,0,0,1.36-.3c.46-.14,1-.32,1.48-.54S234.5,76.77,235.13,76.45Z"/><path class="cls-6" d="M246.92,85.91a15.46,15.46,0,0,0-3.69.72l-.33-.87,1.17-.43a1.45,1.45,0,0,1-.79-1.31,1.8,1.8,0,0,1,.55-1.32,1.83,1.83,0,0,1,1.32-.54,1.71,1.71,0,0,1,1.34.6l-.48.71a1.4,1.4,0,0,0-.76-.22,1.08,1.08,0,0,0-.71.22.66.66,0,0,0-.28.55.74.74,0,0,0,.37.61,2.23,2.23,0,0,0,1,.29c.27,0,.53-.09.77-.11l.69-.06Zm-2.78-5.51L244,65.15l1.9-.34L245.8,80.4Z"/></g></g></svg>