<svg xmlns="http://www.w3.org/2000/svg" xmlns:xlink="http://www.w3.org/1999/xlink" viewBox="0 0 340.28 303.39"><defs><style>.cls-1{isolation:isolate;}.cls-2{opacity:0.26;}.cls-3,.cls-5{fill:none;stroke-miterlimit:10;}.cls-3{stroke:#a9b3b7;stroke-width:0.25px;}.cls-4{mix-blend-mode:screen;opacity:0.2;fill:url(#linear-gradient);}.cls-5{stroke:#f4a11c;stroke-width:2px;}.cls-6{font-size:10.15px;}.cls-6,.cls-7{fill:#fff;font-family:Lato-Regular, Lato Regular;}.cls-7{font-size:12.18px;}</style><linearGradient id="linear-gradient" x1="180.19" y1="267.95" x2="180.19" y2="3.39" gradientUnits="userSpaceOnUse"><stop offset="0"/><stop offset="1" stop-color="#0327aa"/></linearGradient></defs><g class="cls-1"><g id="Layer_2" data-name="Layer 2"><g id="Layer_1-2" data-name="Layer 1"><g class="cls-2"><rect class="cls-3" x="22.52" y="3.39" width="315.35" height="264.57"/><line class="cls-3" x1="22.52" y1="241.5" x2="337.86" y2="241.5"/><line class="cls-3" x1="22.52" y1="215.04" x2="337.86" y2="215.04"/><line class="cls-3" x1="22.52" y1="188.58" x2="337.86" y2="188.58"/><line class="cls-3" x1="22.52" y1="162.13" x2="337.86" y2="162.13"/><line class="cls-3" x1="22.52" y1="135.67" x2="337.86" y2="135.67"/><line class="cls-3" x1="22.52" y1="109.21" x2="337.86" y2="109.21"/><line class="cls-3" x1="22.52" y1="82.76" x2="337.86" y2="82.76"/><line class="cls-3" x1="22.52" y1="56.3" x2="337.86" y2="56.3"/><line class="cls-3" x1="22.52" y1="29.84" x2="337.86" y2="29.84"/><line class="cls-3" x1="298.45" y1="3.39" x2="298.45" y2="267.95"/><line class="cls-3" x1="259.03" y1="3.39" x2="259.03" y2="267.95"/><line class="cls-3" x1="219.61" y1="3.39" x2="219.61" y2="267.95"/><line class="cls-3" x1="180.19" y1="3.39" x2="180.19" y2="267.95"/><line class="cls-3" x1="140.77" y1="3.39" x2="140.77" y2="267.95"/><line class="cls-3" x1="101.35" y1="3.39" x2="101.35" y2="267.95"/><line class="cls-3" x1="61.93" y1="3.39" x2="61.93" y2="267.95"/></g><polygon class="cls-4" points="337.86 162.13 298.44 3.39 259.01 109.69 219.56 56.51 180.11 135.89 140.76 82.9 101.31 109.5 62.08 162.69 22.52 135.67 22.52 267.95 337.86 267.95 337.86 162.13"/><polyline class="cls-5" points="22.52 135.67 62.08 162.69 101.31 109.5 140.76 82.9 180.11 135.89 219.56 56.51 259.01 109.69 298.44 3.39 337.86 162.13"/><text class="cls-6" transform="translate(7.16 267.41) scale(0.69 1)">0</text><text class="cls-6" transform="translate(3.58 242.93) scale(0.69 1)">10</text><text class="cls-6" transform="translate(3.58 218.45) scale(0.69 1)">20</text><text class="cls-6" transform="translate(3.58 193.97) scale(0.69 1)">30</text><text class="cls-6" transform="translate(3.58 169.48) scale(0.69 1)">40</text><text class="cls-6" transform="translate(3.58 144.99) scale(0.69 1)">50</text><text class="cls-6" transform="translate(3.58 120.51) scale(0.69 1)">60</text><text class="cls-6" transform="translate(3.58 96.02) scale(0.69 1)">70</text><text class="cls-6" transform="translate(3.58 71.54) scale(0.69 1)">80</text><text class="cls-6" transform="translate(3.58 47.06) scale(0.69 1)">90</text><text class="cls-6" transform="translate(0 22.58) scale(0.69 1)">100</text><text class="cls-7" transform="translate(22.12 300.34) scale(0.69 1)">1</text><text class="cls-7" transform="translate(61.41 300.34) scale(0.69 1)">2</text><text class="cls-7" transform="translate(100.7 300.34) scale(0.69 1)">3</text><text class="cls-7" transform="translate(139.98 300.34) scale(0.69 1)">4</text><text class="cls-7" transform="translate(179.27 300.34) scale(0.69 1)">5</text><text class="cls-7" transform="translate(218.56 300.34) scale(0.69 1)">6</text><text class="cls-7" transform="translate(257.85 300.34) scale(0.69 1)">7</text><text class="cls-7" transform="translate(296.7 300.34) scale(0.69 1)">8</text><text class="cls-7" transform="translate(335.99 300.34) scale(0.69 1)">9</text></g></g></g></svg>