<svg xmlns="http://www.w3.org/2000/svg" xmlns:xlink="http://www.w3.org/1999/xlink" viewBox="0 0 340.28 208.66"><defs><style>.cls-1{isolation:isolate;}.cls-2{opacity:0.26;}.cls-3,.cls-5{fill:none;stroke-miterlimit:10;}.cls-3{stroke:#a9b3b7;stroke-width:0.25px;}.cls-4{mix-blend-mode:screen;opacity:0.63;fill:url(#linear-gradient);}.cls-5{stroke:#f4a11c;stroke-width:2px;}.cls-6{font-size:6.98px;}.cls-6,.cls-7{fill:#fff;font-family:Lato-Regular, Lato Regular;}.cls-7{font-size:8.37px;}</style><linearGradient id="linear-gradient" x1="180.19" y1="184.3" x2="180.19" y2="2.44" gradientUnits="userSpaceOnUse"><stop offset="0"/><stop offset="1" stop-color="#0327aa"/></linearGradient></defs><g class="cls-1"><g id="Layer_2" data-name="Layer 2"><g id="Layer_1-2" data-name="Layer 1"><g class="cls-2"><rect class="cls-3" x="22.52" y="2.44" width="315.35" height="181.86"/><line class="cls-3" x1="22.52" y1="166.12" x2="337.86" y2="166.12"/><line class="cls-3" x1="22.52" y1="147.93" x2="337.86" y2="147.93"/><line class="cls-3" x1="22.52" y1="129.74" x2="337.86" y2="129.74"/><line class="cls-3" x1="22.52" y1="111.56" x2="337.86" y2="111.56"/><line class="cls-3" x1="22.52" y1="93.37" x2="337.86" y2="93.37"/><line class="cls-3" x1="22.52" y1="75.19" x2="337.86" y2="75.19"/><line class="cls-3" x1="22.52" y1="57" x2="337.86" y2="57"/><line class="cls-3" x1="22.52" y1="38.81" x2="337.86" y2="38.81"/><line class="cls-3" x1="22.52" y1="20.63" x2="337.86" y2="20.63"/><line class="cls-3" x1="298.45" y1="2.44" x2="298.45" y2="184.3"/><line class="cls-3" x1="259.03" y1="2.44" x2="259.03" y2="184.3"/><line class="cls-3" x1="219.61" y1="2.44" x2="219.61" y2="184.3"/><line class="cls-3" x1="180.19" y1="2.44" x2="180.19" y2="184.3"/><line class="cls-3" x1="140.77" y1="2.44" x2="140.77" y2="184.3"/><line class="cls-3" x1="101.35" y1="2.44" x2="101.35" y2="184.3"/><line class="cls-3" x1="61.93" y1="2.44" x2="61.93" y2="184.3"/></g><polygon class="cls-4" points="337.86 111.56 298.44 2.44 259.01 75.52 219.56 38.96 180.11 93.52 140.76 57.1 101.31 75.38 62.08 111.94 22.52 93.37 22.52 184.3 337.86 184.3 337.86 111.56"/><polyline class="cls-5" points="22.52 93.37 62.08 111.94 101.31 75.38 140.76 57.1 180.11 93.52 219.56 38.96 259.01 75.52 298.44 2.44 337.86 111.56"/><text class="cls-6" transform="translate(7.16 183.93)">0</text><text class="cls-6" transform="translate(3.58 167.1)">10</text><text class="cls-6" transform="translate(3.58 150.28)">20</text><text class="cls-6" transform="translate(3.58 133.44)">30</text><text class="cls-6" transform="translate(3.58 116.61)">40</text><text class="cls-6" transform="translate(3.58 99.78)">50</text><text class="cls-6" transform="translate(3.58 82.95)">60</text><text class="cls-6" transform="translate(3.58 66.12)">70</text><text class="cls-6" transform="translate(3.58 49.29)">80</text><text class="cls-6" transform="translate(3.58 32.46)">90</text><text class="cls-6" transform="translate(0 15.63)">100</text><text class="cls-7" transform="translate(22.12 206.57)">1</text><text class="cls-7" transform="translate(61.41 206.57)">2</text><text class="cls-7" transform="translate(100.7 206.57)">3</text><text class="cls-7" transform="translate(139.98 206.57)">4</text><text class="cls-7" transform="translate(179.27 206.57)">5</text><text class="cls-7" transform="translate(218.56 206.57)">6</text><text class="cls-7" transform="translate(257.85 206.57)">7</text><text class="cls-7" transform="translate(296.7 206.57)">8</text><text class="cls-7" transform="translate(335.99 206.57)">9</text></g></g></g></svg>