<svg xmlns="http://www.w3.org/2000/svg" viewBox="0 0 518.9 366.51"><defs><style>.cls-1{isolation:isolate;}.cls-2{opacity:0.25;}.cls-3{fill:#d7eff9;}.cls-27,.cls-4{fill:#fff;}.cls-5{fill:#1f74c2;}.cls-6{fill:#8cb1f4;}.cls-7{fill:#588edd;}.cls-8{fill:#4680c6;}.cls-9{fill:#2d598e;}.cls-10{fill:#153351;}.cls-11{fill:#74a1e2;}.cls-12{fill:#85b4ed;}.cls-13,.cls-31{fill:#a7a9ac;}.cls-14{fill:#d1d3d4;}.cls-15{fill:#b22d2d;}.cls-16{fill:#ff4d4d;}.cls-17{fill:#4079bf;}.cls-18{fill:#bcbec0;}.cls-18,.cls-31{mix-blend-mode:multiply;}.cls-19{fill:#3266a5;}.cls-20{fill:#7aa537;}.cls-21{fill:#8dc63f;}.cls-22,.cls-23,.cls-24,.cls-26,.cls-41{fill:none;}.cls-22,.cls-23,.cls-24{stroke:#153351;}.cls-22,.cls-23,.cls-24,.cls-27,.cls-41{stroke-linecap:round;stroke-linejoin:round;}.cls-22{stroke-dasharray:2.83;}.cls-23,.cls-41{stroke-width:0.57px;}.cls-24{stroke-width:5.67px;}.cls-25{fill:#98c4e5;}.cls-26,.cls-27{stroke:#1f74c2;}.cls-26{stroke-miterlimit:10;}.cls-28{fill:#d18f37;}.cls-29{fill:#fbb040;}.cls-30{fill:#fccd8d;}.cls-32{fill:#eeb399;}.cls-33{fill:#af374e;}.cls-34{fill:#171e26;}.cls-35{fill:#0a3759;}.cls-36{fill:#062a3f;}.cls-37{fill:#06263a;}.cls-38{fill:#e54c64;}.cls-39{fill:#cc957f;}.cls-40{fill:#4f3524;}.cls-41{stroke:#8e263a;}.cls-42{fill:#383838;}.cls-43,.cls-44{fill:#e4af76;}.cls-44{font-size:13.4px;font-family:Courier;}.cls-45{fill:#441f04;}</style></defs><g class="cls-1"><g id="Layer_2" data-name="Layer 2"><g id="Layer_1-2" data-name="Layer 1"><g class="cls-2"><path class="cls-3" d="M473.39,102.71c-11.86-24.51-35.63-44.93-69.31-52.15-16.15-3.47-33-4.42-49.67-5.73-26.23-2.06-53.29-5.33-75.28-16.42-8.19-4.14-10.63-9.89-20.69-14.06A207.45,207.45,0,0,0,231.88,5c-30.52-8-64.68-5.86-94.82,3s-56.55,24-79.49,41.28C37.77,64.2,20,81.29,10.19,101.18c-6.11,12.41-9,25.65-9.89,38.89-2.23,32.77,7.81,66.11,29.7,94.37s55.72,51.21,95.56,63.61c21.35,6.64,44.1,10.26,66.89,12.91,22.45,2.61,45.15,4.31,67.85,3.8a360.45,360.45,0,0,0,78.94-10.7,282.59,282.59,0,0,0,48.84-16.69c39.8-18.2,70.88-47.23,86.3-80.61A120.62,120.62,0,0,0,473.39,102.71Z"/><path class="cls-4" d="M257.06,22.2c.25-.64.75-1.42,1.4-1.21a1.19,1.19,0,0,1,.6.55,7.18,7.18,0,0,1-1.4,9.19,5.47,5.47,0,0,1,5.29,5.7,5.47,5.47,0,0,1-6.18,4.71,3.53,3.53,0,0,1-4.48,5.4c.59.64-.23,1.63-1,1.94a5.39,5.39,0,0,1-6.78-2.88c-1.29-2.86.06-4.36,1.91-6.39A55.09,55.09,0,0,0,257.06,22.2Z"/><path class="cls-4" d="M188.25,22.2c-.25-.64-.75-1.42-1.4-1.21a1.19,1.19,0,0,0-.6.55,7.18,7.18,0,0,0,1.4,9.19,5.47,5.47,0,0,0-5.29,5.7,5.47,5.47,0,0,0,6.18,4.71,3.53,3.53,0,0,0,4.48,5.4c-.59.64.23,1.63,1,1.94a5.39,5.39,0,0,0,6.78-2.88c1.29-2.86-.06-4.36-1.91-6.39A55.09,55.09,0,0,1,188.25,22.2Z"/><path class="cls-5" d="M224,67.56l-.27,5.19a2.32,2.32,0,0,1-.45,1.46,1.63,1.63,0,0,1-1.3.46,1.28,1.28,0,0,1-1.07-.42,2.19,2.19,0,0,1-.34-1.37v-.4l.27-5.06a7.82,7.82,0,0,1-1.77-.52,10.13,10.13,0,0,1-1.72-1,2.25,2.25,0,0,1-.69.76,1.6,1.6,0,0,1-.9.25,1.79,1.79,0,0,1-1.41-.59,2.43,2.43,0,0,1-.51-1.63V61.6a1.85,1.85,0,0,1,.5-1.32,1.79,1.79,0,0,1,1.33-.51c.87,0,1.49.58,1.88,1.74a4.78,4.78,0,0,0,.27.74A4.22,4.22,0,0,0,220,63.76a9.52,9.52,0,0,0,3.56.69,5.38,5.38,0,0,0,3.39-1,3.07,3.07,0,0,0,1.29-2.55,3,3,0,0,0-.92-2.27,12.39,12.39,0,0,0-4.07-2l-3.92-1.32a7.58,7.58,0,0,1-3.6-2.56,6.51,6.51,0,0,1-1.34-4,5.91,5.91,0,0,1,2-4.65,9.23,9.23,0,0,1,5.56-2l.09-1.7a2.29,2.29,0,0,1,.49-1.38,1.56,1.56,0,0,1,1.17-.46,1.53,1.53,0,0,1,1.16.42,1.62,1.62,0,0,1,.41,1.19v.27l-.14,1.79q.82.22,1.62.51a13.87,13.87,0,0,1,1.54.64,2.44,2.44,0,0,1,.67-.6,1.43,1.43,0,0,1,.74-.19,1.31,1.31,0,0,1,1.09.42,2.24,2.24,0,0,1,.34,1.42v2.75a1.83,1.83,0,0,1-.4,1.26,1.52,1.52,0,0,1-1.17.44,1.93,1.93,0,0,1-1.74-1.39,5.77,5.77,0,0,0-.23-.54,3.12,3.12,0,0,0-1.65-1.4,7.14,7.14,0,0,0-2.85-.52,6.18,6.18,0,0,0-3.62,1,3,3,0,0,0-1.37,2.55,3.2,3.2,0,0,0,.85,2.21,5.68,5.68,0,0,0,2.51,1.46l4.3,1.44a10.71,10.71,0,0,1,4.8,2.76,6.19,6.19,0,0,1,1.53,4.29,6,6,0,0,1-2.18,4.78A9.83,9.83,0,0,1,224,67.56Z"/><path class="cls-5" d="M223,82.06a25.45,25.45,0,1,1,25.45-25.45A25.47,25.47,0,0,1,223,82.06Zm0-49.31a23.87,23.87,0,1,0,23.86,23.86A23.89,23.89,0,0,0,223,32.75Z"/><path class="cls-3" d="M507.12,74.52c0-.36.18-.83.54-.82a.67.67,0,0,1,.38.2,3.8,3.8,0,0,1,.64,4.87,2.78,2.78,0,1,1,1.07,5.42,1.87,1.87,0,0,1-1.49,3.4c.4.23.13.86-.24,1.13a2.85,2.85,0,0,1-3.87-.47c-1.07-1.26-.6-2.22,0-3.52A29,29,0,0,0,507.12,74.52Z"/><path class="cls-3" d="M472.17,84.6c-.22-.29-.58-.61-.88-.41a.65.65,0,0,0-.23.37A3.8,3.8,0,0,0,473.12,89a2.78,2.78,0,1,0,2,5.16,1.86,1.86,0,0,0,3.06,2.08c-.2.41.35.8.81.84a2.87,2.87,0,0,0,3-2.46c.23-1.64-.67-2.21-1.91-3A29.23,29.23,0,0,1,472.17,84.6Z"/><path class="cls-5" d="M497,102.4l.62,2.68a1.29,1.29,0,0,1,0,.81.91.91,0,0,1-.6.42.67.67,0,0,1-.6-.06,1.11,1.11,0,0,1-.37-.64l-.06-.21-.61-2.6a4.49,4.49,0,0,1-1,0,5.16,5.16,0,0,1-1-.24,1.35,1.35,0,0,1-.24.48.86.86,0,0,1-.42.26.89.89,0,0,1-.8-.1,1.28,1.28,0,0,1-.5-.74l-.46-1.58a1,1,0,0,1,.07-.75.94.94,0,0,1,.6-.45c.44-.13.84.07,1.21.61a1.65,1.65,0,0,0,.24.33,2.2,2.2,0,0,0,1.34.45,5.17,5.17,0,0,0,1.92-.18,2.87,2.87,0,0,0,1.57-1,1.61,1.61,0,0,0,.28-1.49,1.57,1.57,0,0,0-.8-1A6.65,6.65,0,0,0,495,97l-2.19-.1a3.9,3.9,0,0,1-2.2-.77,3.42,3.42,0,0,1-1.27-1.83,3.12,3.12,0,0,1,.34-2.66,4.9,4.9,0,0,1,2.52-1.85l-.2-.87a1.13,1.13,0,0,1,.05-.77.79.79,0,0,1,.52-.41.83.83,0,0,1,.65,0,.85.85,0,0,1,.38.55l0,.14.2.93c.3,0,.6,0,.9,0a8.58,8.58,0,0,1,.87.1,1.52,1.52,0,0,1,.25-.4.87.87,0,0,1,.35-.2.72.72,0,0,1,.62.05,1.19,1.19,0,0,1,.37.67l.41,1.4a1,1,0,0,1,0,.7.79.79,0,0,1-.53.39,1,1,0,0,1-1.09-.45l-.19-.24a1.66,1.66,0,0,0-1.05-.47,3.93,3.93,0,0,0-1.52.15,3.42,3.42,0,0,0-1.7,1,1.59,1.59,0,0,0-.32,1.5,1.73,1.73,0,0,0,.76,1,3,3,0,0,0,1.48.37l2.4.1a5.7,5.7,0,0,1,2.84.7,3.29,3.29,0,0,1,1.41,2,3.2,3.2,0,0,1-.41,2.76A5.18,5.18,0,0,1,497,102.4Z"/><path class="cls-5" d="M498.57,109.92a13.45,13.45,0,1,1,9.2-16.65A13.46,13.46,0,0,1,498.57,109.92Zm-7.22-25A12.61,12.61,0,1,0,507,93.5,12.63,12.63,0,0,0,491.35,84.87Z"/><path class="cls-4" d="M70.93,151.17c.18-.46.54-1,1-.87a.9.9,0,0,1,.44.4,5.21,5.21,0,0,1-1,6.65,3.8,3.8,0,1,1-.64,7.54,2.55,2.55,0,0,1-3.24,3.9c.42.46-.17,1.18-.75,1.4a3.9,3.9,0,0,1-4.91-2.08c-.93-2.07,0-3.15,1.38-4.62A40,40,0,0,0,70.93,151.17Z"/><path class="cls-4" d="M21.13,151.17c-.18-.46-.54-1-1-.87a.88.88,0,0,0-.43.4,5.2,5.2,0,0,0,1,6.65,3.8,3.8,0,1,0,.64,7.54,2.55,2.55,0,0,0,3.24,3.9c-.42.46.17,1.18.76,1.4a3.9,3.9,0,0,0,4.91-2.08c.93-2.07-.05-3.15-1.39-4.62A40,40,0,0,1,21.13,151.17Z"/><path class="cls-5" d="M47,184l-.2,3.76a1.76,1.76,0,0,1-.32,1.06,1.21,1.21,0,0,1-.94.33.92.92,0,0,1-.78-.31,1.6,1.6,0,0,1-.24-1v-.29l.19-3.66a5.23,5.23,0,0,1-1.28-.38,7.45,7.45,0,0,1-1.24-.7,1.71,1.71,0,0,1-.51.55,1.14,1.14,0,0,1-.64.18,1.28,1.28,0,0,1-1-.43,1.74,1.74,0,0,1-.38-1.18v-2.25a1.26,1.26,0,0,1,.37-.95,1.27,1.27,0,0,1,1-.38c.63,0,1.08.42,1.36,1.27a2.72,2.72,0,0,0,.2.53,3,3,0,0,0,1.59,1.09,7,7,0,0,0,2.58.5,4,4,0,0,0,2.46-.71,2.23,2.23,0,0,0,.93-1.85,2.14,2.14,0,0,0-.67-1.64,8.85,8.85,0,0,0-2.94-1.44l-2.84-1A5.34,5.34,0,0,1,41,173.3a4.67,4.67,0,0,1-1-2.89A4.31,4.31,0,0,1,41.51,167a6.71,6.71,0,0,1,4-1.47l.06-1.23a1.57,1.57,0,0,1,.36-1,1.08,1.08,0,0,1,.84-.33,1.1,1.1,0,0,1,.84.3,1.17,1.17,0,0,1,.29.87v.19l-.09,1.3q.6.17,1.17.36c.38.14.75.29,1.11.46a1.92,1.92,0,0,1,.49-.43,1.07,1.07,0,0,1,.53-.13,1,1,0,0,1,.79.3,1.59,1.59,0,0,1,.25,1v2a1.31,1.31,0,0,1-.29.91,1.12,1.12,0,0,1-.85.32c-.54,0-1-.34-1.26-1-.06-.17-.12-.3-.16-.39a2.29,2.29,0,0,0-1.2-1,5.37,5.37,0,0,0-2.06-.37,4.42,4.42,0,0,0-2.62.7,2.15,2.15,0,0,0-1,1.84,2.3,2.3,0,0,0,.62,1.6,4.1,4.1,0,0,0,1.81,1.06l3.11,1a7.63,7.63,0,0,1,3.47,2,4.46,4.46,0,0,1,1.11,3.1,4.31,4.31,0,0,1-1.58,3.46A7.06,7.06,0,0,1,47,184Z"/><path class="cls-5" d="M46.26,194.5a18.42,18.42,0,1,1,18.42-18.42A18.44,18.44,0,0,1,46.26,194.5Zm0-35.69a17.27,17.27,0,1,0,17.27,17.27A17.29,17.29,0,0,0,46.26,158.81Z"/></g><path class="cls-6" d="M424.14,172.71s11.46,26.9,10.29,45.38S419,248,411.27,255.05s-45.37,41.17-51.22,45.85-9.36,6.31-19.88,8.18-16.61,3.74-38.6-5.85S201.69,284.05,136,320.31c0,0-32,20.35-48.65,20.12s-24.1-2.81-34.62-12.87-25-26.66-29.24-38.36c0,0-4.91-21.05-3-35.32s1.17-21,28.3-33.45,121.4-55.91,208.42-69.24c0,0,92.63-9.12,109.47-2.57S419.93,168,424.14,172.71Z"/><path class="cls-7" d="M154.7,183.68s-69.63,25.66-97.1,43.23c0,0-14.35,6.48-14.35,11s3.71,19.9,21.61,24.83c0,0,9.1,3.71,18.21-.77s120.06-49.05,120.06-49.05S165.83,198.34,154.7,183.68Z"/><path class="cls-8" d="M158.43,187.75C127.73,203,94,212.06,64.35,229.33c-6.44,3.75-13.44,9.33-12.92,16.77.43,6.11,5.72,10.26,10.5,13.27a72.44,72.44,0,0,1,7,4.39,23.14,23.14,0,0,0,14.11-1.84c9.1-4.47,120.06-49.05,120.06-49.05S172.44,200.92,158.43,187.75Z"/><path class="cls-7" d="M207.35,211.28s-33.27-10.68-48.5-29.22c0,0,71.59-26.78,113.71-28.74l51.21,21.86S223.81,202.32,207.35,211.28Z"/><path class="cls-9" d="M51.47,291.47s-.09,6.93,0,11.36c0,0-17-9.69-23.73-19.39s-5.09-12.57-5.09-12.57l1-6.09A132.9,132.9,0,0,0,51.47,291.47Z"/><path class="cls-10" d="M25.65,267.29,26,272.5S36.84,291,51.44,296.16c0-2.61,0-4.69,0-4.69A133.51,133.51,0,0,1,25.65,267.29Z"/><path class="cls-9" d="M319.38,174.9l-47.1-20.1-16.71,1.84s30.69,15.93,52.45,21.08Z"/><path class="cls-10" d="M315.24,175.93l-43.35-18.51-12.1,1.34c9.15,4.51,31.36,15,48.23,19Z"/><path class="cls-11" d="M294.56,153,333,170.08s48.76-5,77.78-1.84L364.09,149.5a8.65,8.65,0,0,0-2.65-.6c-7.13-.42-40.26-2.07-66.59,1.89A1.15,1.15,0,0,0,294.56,153Z"/><path class="cls-12" d="M266.18,188.74s-45.8,14.23-56.83,19.08l-42.5-25.52,52.29-16.77Z"/><path class="cls-13" d="M154.7,213.63l7.6.32,1.3-.48a1.12,1.12,0,0,1,.88.06l1,.56,6.83.28v4.21h0a1.07,1.07,0,0,1-.87.86c-7.91,1.44-13.26.14-16.07-1a1,1,0,0,1-.66-.94h0Z"/><path class="cls-14" d="M163.6,209.6l-8.19,3a1.08,1.08,0,0,0,0,2c2.81,1.1,8.16,2.4,16.07,1a1.09,1.09,0,0,0,.33-2l-7.29-3.89A1.08,1.08,0,0,0,163.6,209.6Z"/><path class="cls-13" d="M134.53,221.94l7.6.32,1.31-.48a1.1,1.1,0,0,1,.87.06l1,.55,6.82.29v4.2h0a1.07,1.07,0,0,1-.88.87c-7.9,1.44-13.26.13-16.07-1a1,1,0,0,1-.66-.94h0Z"/><path class="cls-14" d="M143.44,217.91l-8.19,3a1.08,1.08,0,0,0-.05,2c2.81,1.1,8.17,2.4,16.07,1a1.09,1.09,0,0,0,.33-2L144.31,218A1,1,0,0,0,143.44,217.91Z"/><path class="cls-13" d="M94.29,240.15l7.6.33,1.31-.48a1.06,1.06,0,0,1,.87.06l1,.55,6.82.29v4.2h0a1.07,1.07,0,0,1-.88.87c-7.9,1.43-13.26.13-16.07-1a1,1,0,0,1-.66-.94h0Z"/><path class="cls-14" d="M103.2,236.13l-8.2,3a1.08,1.08,0,0,0,0,2c2.81,1.1,8.17,2.4,16.07,1a1.08,1.08,0,0,0,.33-2l-7.29-3.88A1,1,0,0,0,103.2,236.13Z"/><path class="cls-13" d="M114.83,231l7.6.32,1.3-.48a1.12,1.12,0,0,1,.88.06l1,.55,6.82.29V236h0a1.06,1.06,0,0,1-.87.87c-7.91,1.44-13.26.14-16.07-1a1,1,0,0,1-.66-.94h0Z"/><path class="cls-14" d="M123.73,227l-8.19,3a1.08,1.08,0,0,0,0,2c2.81,1.1,8.16,2.4,16.07,1a1.08,1.08,0,0,0,.33-2L124.61,227A1.08,1.08,0,0,0,123.73,227Z"/><path class="cls-13" d="M135.27,202v-.18a4.78,4.78,0,0,1,0-.53l.12-3.6,2.22.31a12.26,12.26,0,0,1,2.27-1.14l2.12,1.75,4.37.6v3l-8.76,4a7.65,7.65,0,0,1-2.34-4.21Z"/><path class="cls-13" d="M159.31,206.28v3.77s-7.5,6-13.75,2.35c0,0-3-1.36-2.46-6.62Z"/><path class="cls-13" d="M115.39,209.58v-.18a3.17,3.17,0,0,1,0-.53l.11-3.6,2.23.31a12.26,12.26,0,0,1,2.27-1.14l2.11,1.75,4.38.6v3l-8.77,4a7.65,7.65,0,0,1-2.34-4.21Z"/><path class="cls-13" d="M139.44,213.83v3.77s-7.5,6-13.75,2.35c0,0-3-1.36-2.47-6.62Z"/><path class="cls-13" d="M96.06,217.56v-.18a4.7,4.7,0,0,1,0-.53l.12-3.6,2.22.31a11.67,11.67,0,0,1,2.27-1.14l2.12,1.74,4.37.61v3l-8.76,4a7.65,7.65,0,0,1-2.34-4.21Z"/><path class="cls-13" d="M120.1,221.81v3.77s-7.5,6-13.75,2.34c0,0-3-1.35-2.46-6.61Z"/><path class="cls-13" d="M76.26,226v-.18a4.78,4.78,0,0,1,0-.53l.12-3.6,2.22.31a12.26,12.26,0,0,1,2.27-1.14L83,222.59l4.37.6v3l-8.76,4A7.65,7.65,0,0,1,76.28,226Z"/><path class="cls-13" d="M100.3,230.23V234s-7.5,6-13.75,2.35c0,0-3-1.36-2.46-6.62Z"/><path class="cls-15" d="M55.91,236.61v-.18a3.13,3.13,0,0,1,0-.53l.11-3.6,2.23.31a11.67,11.67,0,0,1,2.27-1.14l2.11,1.74,4.38.61v3l-8.77,4a7.65,7.65,0,0,1-2.34-4.21Z"/><path class="cls-16" d="M67,233.82l-8.77,4s-6.6-5.94,2.28-9.39Z"/><path class="cls-7" d="M101.62,261.12c44.77-20.33,136.43-57.48,212.14-78.82,56.08-15.8,94.07-12.64,110-9.94.13.12.27.24.37.35s11.46,26.9,10.29,45.38S419,248,411.27,255.05s-45.37,41.17-51.22,45.85-9.36,6.31-19.88,8.18-16.61,3.74-38.6-5.85S201.69,284.05,136,320.31c0,0-32,20.35-48.65,20.12-11.16-.16-18.2-1.39-24.81-5.22C39.2,266.18,61.27,279.44,101.62,261.12Z"/><path class="cls-17" d="M87.31,340.43c16.61.23,48.65-20.12,48.65-20.12,65.73-36.26,143.62-26.67,165.61-17.08s28.07,7.72,38.6,5.85,14-3.51,19.88-8.18,43.51-38.83,51.22-45.85,22-18.48,23.16-37-10.29-45.38-10.29-45.38-.24-.23-.37-.35A184,184,0,0,0,388,170.24c.37,1.26.7,2.53.94,3.8a42.92,42.92,0,0,1-2.16,23.23c-3.11,8.12-8.78,15.31-16.51,19.46s-16.62,5.55-25,8.29-16.81,7.44-20.38,15.47c-1.74,3.91-2.15,8.27-3.41,12.37-5,16.13-22.31,25.53-39,27.72S248.83,279.49,232,279a152.28,152.28,0,0,0-82.88,22.06c-14.39,8.78-27.3,20-42.33,27.61-13.66,6.95-30,10.67-44.42,6,.06.18.11.35.17.52C69.11,339,76.15,340.27,87.31,340.43Z"/><path class="cls-18" d="M328.19,240l62.43,33.72c9.1-8.21,17.45-15.79,20.65-18.7,1.08-1,2.28-2,3.55-3.2l1.76-3.62Z"/><path class="cls-19" d="M434.44,217.9c-11.33,4.12-26.83,5.57-48.12,7.53-17.88,1.65-40.13,3.71-67,8.16-97.86,16.16-194.07,60-212.36,68.68-26.87,12.68-44,9.93-51.92,7.1.11.49.22,1,.33,1.48a42.29,42.29,0,0,0,8.21,1.82,51.79,51.79,0,0,0,6.36.38c8.9,0,21.47-2.06,37.55-9.65,18.27-8.62,114.34-52.45,212-68.59,26.87-4.43,49.09-6.49,66.95-8.14,20.63-1.91,36.26-3.36,47.91-7.5,0-.36.07-.72.09-1.08A1.21,1.21,0,0,0,434.44,217.9Z"/><path class="cls-14" d="M159.31,206l-9.24-5.72s-10.61,4.07-5.66,7.5S154.88,208.44,159.31,206Z"/><path class="cls-14" d="M146.39,199.24l-8.76,4s-6.6-5.94,2.27-9.39Z"/><path class="cls-14" d="M139.44,213.59l-9.24-5.72s-10.61,4.07-5.66,7.5S135,216,139.44,213.59Z"/><path class="cls-14" d="M126.52,206.79l-8.77,4s-6.6-5.94,2.28-9.39Z"/><path class="cls-14" d="M120.1,221.57l-9.24-5.73s-10.61,4.07-5.66,7.51S115.67,224,120.1,221.57Z"/><path class="cls-14" d="M107.18,214.77l-8.76,4s-6.6-5.94,2.27-9.39Z"/><path class="cls-14" d="M100.3,230l-9.24-5.72s-10.61,4.07-5.66,7.5S95.87,232.39,100.3,230Z"/><path class="cls-14" d="M87.38,223.19l-8.76,4s-6.6-5.94,2.27-9.39Z"/><path class="cls-13" d="M80,240.86v3.77s-7.5,6-13.75,2.34c0,0-3-1.35-2.47-6.61Z"/><path class="cls-20" d="M72.74,249.61l7.59.32,1.31-.48a1.12,1.12,0,0,1,.88.06l1,.55,6.82.29v4.2h0a1.07,1.07,0,0,1-.87.87c-7.91,1.44-13.27.14-16.07-1a1,1,0,0,1-.67-.94h0Z"/><path class="cls-21" d="M81.64,245.58l-8.19,3a1.08,1.08,0,0,0,0,2c2.8,1.1,8.16,2.4,16.07,1a1.09,1.09,0,0,0,.32-2l-7.28-3.88A1,1,0,0,0,81.64,245.58Z"/><path class="cls-14" d="M80,240.88l-9.24-5.73s-10.61,4.08-5.66,7.51S75.53,243.28,80,240.88Z"/><path class="cls-17" d="M290.78,255.21a19.42,19.42,0,0,0-4.29,11.88,6.15,6.15,0,0,0,.34,2.37c.86,2.15,3.49,3,5.8,3.14a23.82,23.82,0,0,0,21.8-11.16c1.74-2.88,2.76-6.78.73-9.46a8.71,8.71,0,0,0-3.77-2.54C304.1,246.47,295.67,249.17,290.78,255.21Z"/><path class="cls-17" d="M273.31,270c-1.64,2.41-1.63,6.49,1.16,8a6.33,6.33,0,0,0,2.14.65,8.69,8.69,0,0,0,4.53-.26,5.57,5.57,0,0,0,3.43-4.49c.35-3.24-1.93-5.05-4.61-6.11-2.5-1-4.63-.35-6.4,1.84C273.48,269.78,273.39,269.89,273.31,270Z"/><path class="cls-14" d="M322.3,156.72l-2.92,2.42v-3.57l-3,1.53-.46-3.21-2.06,1.37-.69-2.44-3.14,1.6v-3l-2.75,1.88v-3.41l-2.6,1.84-.38-2.87-3.21,1.49V147l-3.06,1.87v-2.63l-2.67,1.44-.46-2.67-2.91.92-.61-2.53-2.22,1.69-.84-3-2.29,1.46-.69-2.68-2.67,1.45V139.9l-3.6,1.37-.84-2.67-2.6,1.45-.92-2.29-3.13,1.14-1.53-2.06c-4.28,8.1-5.84,24.06-5.84,24.08,10.69,5.09,29.22,13.35,43.78,16.8l3.36-.84c1.3-6.88,11.3-17,11.3-17Z"/><path class="cls-22" d="M218.75,177.72s-17.4-78.85,53.45-78.85"/><circle class="cls-21" cx="306.12" cy="98.87" r="31.88" transform="translate(37.64 276.08) rotate(-51.33)"/><circle class="cls-23" cx="306.12" cy="98.87" r="27.74" transform="translate(19.75 245.42) rotate(-45)"/><path class="cls-24" d="M291.78,103.07l9.2,10.79s3.19-21.78,19.48-30"/><rect class="cls-4" x="28.98" y="67.26" width="142.64" height="52.73" rx="4.41"/><path class="cls-25" d="M166.13,67.26H34.47A5.51,5.51,0,0,0,29,72.75v3.7H171.62v-3.7A5.51,5.51,0,0,0,166.13,67.26Z"/><circle class="cls-4" cx="35.61" cy="71.86" r="2.25"/><circle class="cls-4" cx="42.28" cy="71.86" r="2.25"/><circle class="cls-4" cx="48.95" cy="71.86" r="2.25"/><rect class="cls-26" x="28.98" y="67.26" width="142.64" height="52.73" rx="4.41"/><path class="cls-25" d="M147.75,104.32l-.17,3.25a1.44,1.44,0,0,1-.28.92,1,1,0,0,1-.81.28.79.79,0,0,1-.67-.26,1.41,1.41,0,0,1-.21-.86v-.25l.16-3.17a4.23,4.23,0,0,1-1.1-.33,5.9,5.9,0,0,1-1.08-.61,1.38,1.38,0,0,1-.44.48,1,1,0,0,1-.56.15,1.09,1.09,0,0,1-.88-.37,1.49,1.49,0,0,1-.32-1v-1.94a1.12,1.12,0,0,1,.31-.83,1.1,1.1,0,0,1,.84-.32c.54,0,.93.36,1.17,1.09a3.75,3.75,0,0,0,.17.46,2.7,2.7,0,0,0,1.38,1,6.19,6.19,0,0,0,2.24.43,3.38,3.38,0,0,0,2.12-.62,1.91,1.91,0,0,0,.81-1.6,1.89,1.89,0,0,0-.57-1.42,7.73,7.73,0,0,0-2.56-1.24l-2.45-.83a4.67,4.67,0,0,1-2.26-1.61,4,4,0,0,1-.84-2.5A3.71,3.71,0,0,1,143,89.63a5.77,5.77,0,0,1,3.48-1.27l.06-1.07a1.38,1.38,0,0,1,.3-.86,1,1,0,0,1,.73-.29,1,1,0,0,1,.73.26,1.05,1.05,0,0,1,.26.75v.17l-.09,1.12c.35.1.69.2,1,.32a10.2,10.2,0,0,1,1,.4,1.55,1.55,0,0,1,.42-.37.9.9,0,0,1,.46-.12.82.82,0,0,1,.69.26,1.43,1.43,0,0,1,.21.89v1.72a1.15,1.15,0,0,1-.25.79.92.92,0,0,1-.73.28c-.47,0-.83-.29-1.1-.87a2.54,2.54,0,0,0-.14-.34,1.91,1.91,0,0,0-1-.88,4.45,4.45,0,0,0-1.78-.33,3.9,3.9,0,0,0-2.28.61,1.85,1.85,0,0,0-.85,1.6,2,2,0,0,0,.53,1.38,3.65,3.65,0,0,0,1.57.92l2.69.89a6.67,6.67,0,0,1,3,1.74,3.86,3.86,0,0,1,1,2.68,3.74,3.74,0,0,1-1.36,3A6.21,6.21,0,0,1,147.75,104.32Z"/><path class="cls-25" d="M147.11,113.41a15.95,15.95,0,1,1,15.95-16A16,16,0,0,1,147.11,113.41Zm0-30.9a15,15,0,1,0,15,14.95A15,15,0,0,0,147.11,82.51Z"/><line class="cls-27" x1="33.36" y1="82.83" x2="123.83" y2="82.83"/><line class="cls-27" x1="33.36" y1="87.46" x2="107.38" y2="87.46"/><line class="cls-27" x1="33.36" y1="92.09" x2="117.06" y2="92.09"/><line class="cls-27" x1="33.36" y1="96.73" x2="75.21" y2="96.73"/><line class="cls-27" x1="33.36" y1="101.36" x2="110.02" y2="101.36"/><rect class="cls-4" x="78.33" y="113.99" width="112.41" height="41.55" rx="3.48"/><path class="cls-25" d="M186.41,114H82.65a4.34,4.34,0,0,0-4.32,4.33v2.92h112.4v-2.92A4.34,4.34,0,0,0,186.41,114Z"/><path class="cls-4" d="M85.33,117.62a1.78,1.78,0,1,1-1.77-1.78A1.77,1.77,0,0,1,85.33,117.62Z"/><circle class="cls-4" cx="88.81" cy="117.62" r="1.78"/><circle class="cls-4" cx="94.07" cy="117.62" r="1.78"/><rect class="cls-26" x="78.33" y="113.99" width="112.41" height="41.55" rx="3.48"/><path class="cls-25" d="M171.92,143.2l-.13,2.56a1.14,1.14,0,0,1-.22.72.82.82,0,0,1-.64.23.64.64,0,0,1-.53-.21,1.11,1.11,0,0,1-.17-.68v-.19l.14-2.5a3.72,3.72,0,0,1-.88-.26,4.91,4.91,0,0,1-.85-.48,1.12,1.12,0,0,1-.34.37.81.81,0,0,1-.44.13.87.87,0,0,1-.7-.3,1.16,1.16,0,0,1-.25-.8v-1.53a.89.89,0,0,1,.25-.66.85.85,0,0,1,.65-.25c.43,0,.74.29.93.86a2.79,2.79,0,0,0,.13.37,2.12,2.12,0,0,0,1.09.74,4.68,4.68,0,0,0,1.77.34,2.63,2.63,0,0,0,1.67-.49,1.59,1.59,0,0,0,.18-2.38,6.08,6.08,0,0,0-2-1l-1.93-.65a3.68,3.68,0,0,1-1.78-1.26,3.24,3.24,0,0,1-.67-2,2.9,2.9,0,0,1,1-2.29,4.53,4.53,0,0,1,2.75-1l0-.84a1.15,1.15,0,0,1,.25-.68.75.75,0,0,1,.57-.23.78.78,0,0,1,.58.21.82.82,0,0,1,.19.59v.13l-.06.89a7.41,7.41,0,0,1,.8.25,7.12,7.12,0,0,1,.76.31,1.23,1.23,0,0,1,.33-.29.65.65,0,0,1,.36-.1.65.65,0,0,1,.54.21,1.12,1.12,0,0,1,.17.7v1.36a.89.89,0,0,1-.2.62.71.71,0,0,1-.57.22,1,1,0,0,1-.87-.69,2.54,2.54,0,0,0-.11-.26,1.5,1.5,0,0,0-.81-.7,3.59,3.59,0,0,0-1.41-.25,3.11,3.11,0,0,0-1.79.47,1.47,1.47,0,0,0-.67,1.26,1.55,1.55,0,0,0,.42,1.09,2.7,2.7,0,0,0,1.24.72l2.12.71a5.34,5.34,0,0,1,2.37,1.37,3.06,3.06,0,0,1,.75,2.11,3,3,0,0,1-1.07,2.37A4.91,4.91,0,0,1,171.92,143.2Z"/><path class="cls-25" d="M171.42,150.36A12.57,12.57,0,1,1,184,137.79,12.59,12.59,0,0,1,171.42,150.36Zm0-24.35a11.78,11.78,0,1,0,11.78,11.78A11.79,11.79,0,0,0,171.42,126Z"/><line class="cls-27" x1="81.78" y1="126.26" x2="126.65" y2="126.26"/><line class="cls-27" x1="81.78" y1="129.91" x2="117.06" y2="129.91"/><line class="cls-27" x1="81.78" y1="133.56" x2="147.73" y2="133.56"/><line class="cls-27" x1="81.78" y1="137.21" x2="104.94" y2="137.21"/><ellipse class="cls-28" cx="123.56" cy="351.86" rx="36" ry="5.06"/><rect class="cls-28" x="87.56" y="348.63" width="72" height="3.24"/><ellipse class="cls-29" cx="123.56" cy="348.78" rx="36" ry="5.06"/><path class="cls-30" d="M114.27,348.94l-4.08-.09a3.88,3.88,0,0,1-1.15-.13q-.36-.12-.36-.39T109,348a4.5,4.5,0,0,1,1.08-.1h.31l4,.08a1.66,1.66,0,0,1,.42-.53,4.73,4.73,0,0,1,.76-.52,2,2,0,0,1-.6-.21.35.35,0,0,1-.19-.27c0-.18.16-.32.47-.42a3.93,3.93,0,0,1,1.27-.16h2.44a3,3,0,0,1,1,.15c.27.1.4.24.4.4s-.45.45-1.37.57l-.58.08a2.48,2.48,0,0,0-1.18.67,1.5,1.5,0,0,0-.54,1.07,1.17,1.17,0,0,0,.77,1,4.5,4.5,0,0,0,2,.38,5,5,0,0,0,1.78-.27,4.71,4.71,0,0,0,1.56-1.23l1-1.18a4.26,4.26,0,0,1,2-1.09,11.21,11.21,0,0,1,3.13-.4,9.35,9.35,0,0,1,3.66.6,2.41,2.41,0,0,1,1.6,1.68l1.33,0a4.2,4.2,0,0,1,1.08.15c.25.09.37.21.37.35s-.11.27-.33.36a2.86,2.86,0,0,1-.94.12h-.21l-1.41,0a4.22,4.22,0,0,1-.89.95,1.88,1.88,0,0,1,.46.2.28.28,0,0,1,.15.22c0,.16-.11.27-.32.33a4.07,4.07,0,0,1-1.12.11h-2.16a3.07,3.07,0,0,1-1-.13c-.23-.08-.35-.19-.35-.35s.37-.4,1.09-.52l.42-.07a2.29,2.29,0,0,0,1.11-.5,1.12,1.12,0,0,0,.41-.86,1.24,1.24,0,0,0-.76-1.09,4.11,4.11,0,0,0-2-.41,5.22,5.22,0,0,0-1.73.25,2.67,2.67,0,0,0-1.16.76l-1.12,1.3a4.83,4.83,0,0,1-2.17,1.44,10.44,10.44,0,0,1-3.37.47,9.22,9.22,0,0,1-3.76-.66A2.47,2.47,0,0,1,114.27,348.94Z"/><path class="cls-28" d="M114.27,349.09l-4.08-.08a3.8,3.8,0,0,1-1.15-.14q-.36-.12-.36-.39c0-.15.11-.25.33-.32a4,4,0,0,1,1.08-.1h.31l4,.08a1.56,1.56,0,0,1,.42-.53,3.71,3.71,0,0,1,.76-.52,2.85,2.85,0,0,1-.6-.21.35.35,0,0,1-.19-.27c0-.18.16-.33.47-.43a4.27,4.27,0,0,1,1.27-.15h2.44a3,3,0,0,1,1,.15c.27.1.4.23.4.4s-.45.45-1.37.57l-.58.08a2.38,2.38,0,0,0-1.18.66,1.52,1.52,0,0,0-.54,1.08,1.17,1.17,0,0,0,.77,1,4.5,4.5,0,0,0,2,.39,4.75,4.75,0,0,0,1.78-.28,4.46,4.46,0,0,0,1.56-1.23l1-1.18a4.34,4.34,0,0,1,2-1.08,11.19,11.19,0,0,1,3.13-.41,9.15,9.15,0,0,1,3.66.61,2.42,2.42,0,0,1,1.6,1.67l1.33,0a3.47,3.47,0,0,1,1.08.15c.25.08.37.2.37.35s-.11.27-.33.35a2.86,2.86,0,0,1-.94.12h-.21l-1.41,0a4.41,4.41,0,0,1-.39.49,5.56,5.56,0,0,1-.5.46,1.83,1.83,0,0,1,.46.21.27.27,0,0,1,.15.22c0,.15-.11.26-.32.33a4.18,4.18,0,0,1-1.12.1h-2.16a3.12,3.12,0,0,1-1-.12c-.23-.08-.35-.2-.35-.35s.37-.4,1.09-.53l.42-.07a2.2,2.2,0,0,0,1.11-.5,1.1,1.1,0,0,0,.41-.85,1.25,1.25,0,0,0-.76-1.1,4.22,4.22,0,0,0-2-.41,5.21,5.21,0,0,0-1.73.26,2.66,2.66,0,0,0-1.16.75l-1.12,1.3a4.76,4.76,0,0,1-2.17,1.45,10.47,10.47,0,0,1-3.37.46,9.22,9.22,0,0,1-3.76-.66A2.45,2.45,0,0,1,114.27,349.09Z"/><ellipse class="cls-28" cx="118.27" cy="347.41" rx="36" ry="5.06"/><rect class="cls-28" x="82.27" y="344.17" width="72" height="3.24"/><ellipse class="cls-29" cx="118.27" cy="344.33" rx="36" ry="5.06"/><path class="cls-30" d="M109,344.48l-4.07-.08a4.33,4.33,0,0,1-1.16-.13c-.24-.09-.36-.22-.36-.4s.12-.25.34-.32a3.94,3.94,0,0,1,1.07-.1h.32l4,.08a1.62,1.62,0,0,1,.41-.53,3.94,3.94,0,0,1,.77-.52,2.85,2.85,0,0,1-.6-.21c-.13-.08-.2-.17-.2-.27s.16-.32.47-.43a4.32,4.32,0,0,1,1.27-.15h2.45a3,3,0,0,1,1,.15c.27.1.41.23.41.4s-.46.45-1.37.57l-.58.08a2.37,2.37,0,0,0-1.19.66,1.51,1.51,0,0,0-.53,1.08,1.15,1.15,0,0,0,.77,1,4.42,4.42,0,0,0,2,.39,4.8,4.8,0,0,0,1.79-.28,4.51,4.51,0,0,0,1.55-1.22l1-1.19a4.3,4.3,0,0,1,2-1.08,11.27,11.27,0,0,1,3.14-.41,9.1,9.1,0,0,1,3.65.61,2.4,2.4,0,0,1,1.6,1.67l1.34,0a3.47,3.47,0,0,1,1.08.15c.24.09.36.2.36.35s-.11.27-.33.35a2.82,2.82,0,0,1-.94.12h-.21l-1.4,0a4.52,4.52,0,0,1-.4.49,3.69,3.69,0,0,1-.5.46,1.94,1.94,0,0,1,.47.21.27.27,0,0,1,.15.22q0,.23-.33.33a4.18,4.18,0,0,1-1.12.1H125a3.16,3.16,0,0,1-1-.12c-.23-.08-.34-.2-.34-.35s.36-.4,1.09-.53l.42-.06a2.29,2.29,0,0,0,1.11-.5,1.13,1.13,0,0,0,.4-.86,1.21,1.21,0,0,0-.76-1.09,4.1,4.1,0,0,0-2-.42,5.25,5.25,0,0,0-1.73.26,2.5,2.5,0,0,0-1.15.76L119.91,345a4.76,4.76,0,0,1-2.17,1.45,10.36,10.36,0,0,1-3.36.46,9.15,9.15,0,0,1-3.76-.66A2.43,2.43,0,0,1,109,344.48Z"/><path class="cls-28" d="M109,344.64l-4.07-.08a4.25,4.25,0,0,1-1.16-.14q-.36-.12-.36-.39c0-.15.12-.26.34-.32a3.85,3.85,0,0,1,1.07-.11h.32l4,.09a1.55,1.55,0,0,1,.41-.54,4.44,4.44,0,0,1,.77-.52,2,2,0,0,1-.6-.21.31.31,0,0,1-.2-.27c0-.18.16-.32.47-.42a4,4,0,0,1,1.27-.16h2.45a3,3,0,0,1,1,.15c.27.11.41.24.41.41s-.46.45-1.37.56l-.58.08a2.46,2.46,0,0,0-1.19.67,1.51,1.51,0,0,0-.53,1.08,1.15,1.15,0,0,0,.77,1,4.42,4.42,0,0,0,2,.39,5,5,0,0,0,1.79-.28,4.44,4.44,0,0,0,1.55-1.23l1-1.18a4.31,4.31,0,0,1,2-1.09,11.28,11.28,0,0,1,3.14-.4,9.29,9.29,0,0,1,3.65.6A2.41,2.41,0,0,1,129,344l1.34,0a3.47,3.47,0,0,1,1.08.15c.24.08.36.2.36.35s-.11.27-.33.35a2.82,2.82,0,0,1-.94.12h-.21l-1.4,0a5.74,5.74,0,0,1-.4.49,4.47,4.47,0,0,1-.5.46,2.51,2.51,0,0,1,.47.2.28.28,0,0,1,.15.23q0,.22-.33.33a4.65,4.65,0,0,1-1.12.1H125a3.16,3.16,0,0,1-1-.12c-.23-.09-.34-.2-.34-.36s.36-.4,1.09-.52l.42-.07a2.29,2.29,0,0,0,1.11-.5,1.11,1.11,0,0,0,.4-.86,1.23,1.23,0,0,0-.76-1.09,4.22,4.22,0,0,0-2-.41,5,5,0,0,0-1.73.26,2.57,2.57,0,0,0-1.15.75l-1.13,1.3a4.84,4.84,0,0,1-2.17,1.45,10.64,10.64,0,0,1-3.36.46,9.15,9.15,0,0,1-3.76-.66A2.46,2.46,0,0,1,109,344.64Z"/><path class="cls-28" d="M157.88,343.89c0,2.8-16.12,5.06-36,5.06s-36-2.26-36-5.06,16.12-5.05,36-5.05S157.88,341.1,157.88,343.89Z"/><rect class="cls-28" x="85.88" y="340.66" width="72" height="3.24"/><path class="cls-29" d="M157.88,340.81c0,2.8-16.12,5.06-36,5.06s-36-2.26-36-5.06,16.12-5.05,36-5.05S157.88,338,157.88,340.81Z"/><path class="cls-30" d="M112.59,341l-4.08-.09a3.88,3.88,0,0,1-1.15-.13q-.36-.12-.36-.39t.33-.33a4.46,4.46,0,0,1,1.07-.1h.32l4,.08a1.53,1.53,0,0,1,.42-.53,4.31,4.31,0,0,1,.76-.52,2,2,0,0,1-.6-.21.33.33,0,0,1-.19-.27c0-.18.15-.32.46-.42a4,4,0,0,1,1.28-.16h2.44a3.05,3.05,0,0,1,1,.15c.27.1.4.24.4.4s-.45.45-1.37.57l-.58.08a2.44,2.44,0,0,0-1.18.67,1.5,1.5,0,0,0-.54,1.07,1.17,1.17,0,0,0,.77,1,4.65,4.65,0,0,0,2,.38,5,5,0,0,0,1.78-.27,4.81,4.81,0,0,0,1.56-1.23l1-1.18a4.22,4.22,0,0,1,2-1.09,11.33,11.33,0,0,1,3.14-.4,9.38,9.38,0,0,1,3.66.6,2.41,2.41,0,0,1,1.6,1.68l1.33,0a4.2,4.2,0,0,1,1.08.15c.24.09.36.21.36.35s-.1.27-.32.36a2.86,2.86,0,0,1-.94.12h-.21l-1.41,0c-.12.16-.25.33-.39.49a4.6,4.6,0,0,1-.51.46,1.81,1.81,0,0,1,.47.2.28.28,0,0,1,.15.22q0,.24-.33.33a3.94,3.94,0,0,1-1.11.11H128.6a3.14,3.14,0,0,1-1-.13c-.22-.08-.34-.19-.34-.35s.36-.4,1.09-.52l.42-.07a2.29,2.29,0,0,0,1.11-.5,1.11,1.11,0,0,0,.4-.86,1.23,1.23,0,0,0-.75-1.09,4.13,4.13,0,0,0-2-.41,5.33,5.33,0,0,0-1.74.25,2.64,2.64,0,0,0-1.15.76l-1.12,1.3a4.88,4.88,0,0,1-2.17,1.44,10.44,10.44,0,0,1-3.37.47,9.18,9.18,0,0,1-3.76-.66A2.45,2.45,0,0,1,112.59,341Z"/><path class="cls-28" d="M112.59,341.12l-4.08-.08a3.8,3.8,0,0,1-1.15-.14q-.36-.12-.36-.39c0-.15.11-.25.33-.32a4,4,0,0,1,1.07-.1h.32l4,.08a1.45,1.45,0,0,1,.42-.53,3.45,3.45,0,0,1,.76-.52,2.85,2.85,0,0,1-.6-.21.33.33,0,0,1-.19-.27c0-.18.15-.33.46-.43a4.39,4.39,0,0,1,1.28-.15h2.44a3.05,3.05,0,0,1,1,.15c.27.1.4.23.4.4s-.45.45-1.37.57l-.58.08a2.34,2.34,0,0,0-1.18.66A1.52,1.52,0,0,0,115,341a1.17,1.17,0,0,0,.77,1,4.5,4.5,0,0,0,2,.39,4.75,4.75,0,0,0,1.78-.28,4.55,4.55,0,0,0,1.56-1.23l1-1.18a4.3,4.3,0,0,1,2-1.08,11.32,11.32,0,0,1,3.14-.41,9.18,9.18,0,0,1,3.66.61,2.42,2.42,0,0,1,1.6,1.67l1.33,0a3.47,3.47,0,0,1,1.08.15c.24.08.36.2.36.35s-.1.27-.32.35a2.86,2.86,0,0,1-.94.12h-.21l-1.41,0a6,6,0,0,1-.39.49,4.6,4.6,0,0,1-.51.46,1.77,1.77,0,0,1,.47.21.27.27,0,0,1,.15.22q0,.22-.33.33a4,4,0,0,1-1.11.1H128.6a3.19,3.19,0,0,1-1-.12c-.22-.08-.34-.2-.34-.35s.36-.4,1.09-.53l.42-.07a2.2,2.2,0,0,0,1.11-.5,1.09,1.09,0,0,0,.4-.85,1.24,1.24,0,0,0-.75-1.1,4.25,4.25,0,0,0-2-.41,5.31,5.31,0,0,0-1.74.26,2.62,2.62,0,0,0-1.15.75l-1.12,1.3a4.82,4.82,0,0,1-2.17,1.45,10.47,10.47,0,0,1-3.37.46,9.18,9.18,0,0,1-3.76-.66A2.43,2.43,0,0,1,112.59,341.12Z"/><ellipse class="cls-28" cx="116.76" cy="338.84" rx="36" ry="5.06"/><rect class="cls-28" x="80.76" y="335.6" width="72" height="3.24"/><ellipse class="cls-29" cx="116.76" cy="335.76" rx="36" ry="5.06"/><path class="cls-30" d="M107.47,335.91l-4.08-.08a4.16,4.16,0,0,1-1.15-.14q-.36-.12-.36-.39c0-.15.11-.26.33-.32a4,4,0,0,1,1.08-.1h.31l4,.08a1.59,1.59,0,0,1,.42-.54,4.73,4.73,0,0,1,.76-.52,2,2,0,0,1-.6-.21.32.32,0,0,1-.19-.27c0-.18.16-.32.47-.42a4.22,4.22,0,0,1,1.27-.16h2.44a2.77,2.77,0,0,1,1,.16c.27.1.4.23.4.4s-.45.45-1.37.56l-.58.08a2.44,2.44,0,0,0-1.18.67,1.52,1.52,0,0,0-.54,1.08,1.17,1.17,0,0,0,.77,1,4.5,4.5,0,0,0,2,.39,5,5,0,0,0,1.78-.28,4.55,4.55,0,0,0,1.56-1.23l1-1.18a4.3,4.3,0,0,1,2-1.09,11.21,11.21,0,0,1,3.13-.4,9.38,9.38,0,0,1,3.66.6,2.43,2.43,0,0,1,1.6,1.68l1.33,0a3.47,3.47,0,0,1,1.08.15c.24.08.36.2.36.35s-.1.27-.32.35a2.86,2.86,0,0,1-.94.12h-.21l-1.41,0a4.41,4.41,0,0,1-.39.49,5.56,5.56,0,0,1-.5.46,2.37,2.37,0,0,1,.46.2.28.28,0,0,1,.15.23c0,.15-.11.26-.32.33a4.65,4.65,0,0,1-1.12.1h-2.16a3.12,3.12,0,0,1-1-.12c-.23-.08-.35-.2-.35-.35s.37-.41,1.09-.53l.42-.07a2.29,2.29,0,0,0,1.11-.5,1.12,1.12,0,0,0,.41-.86,1.25,1.25,0,0,0-.76-1.09,4.22,4.22,0,0,0-2-.41,5,5,0,0,0-1.73.26,2.66,2.66,0,0,0-1.16.75l-1.12,1.3a4.84,4.84,0,0,1-2.17,1.45,10.75,10.75,0,0,1-3.37.46,9.22,9.22,0,0,1-3.76-.66A2.47,2.47,0,0,1,107.47,335.91Z"/><path class="cls-28" d="M107.47,336.06l-4.08-.08a4.25,4.25,0,0,1-1.15-.13q-.36-.12-.36-.39t.33-.33a4,4,0,0,1,1.08-.1h.31l4,.08a1.66,1.66,0,0,1,.42-.53,4.16,4.16,0,0,1,.76-.52,2,2,0,0,1-.6-.21.35.35,0,0,1-.19-.27c0-.18.16-.32.47-.43a4.27,4.27,0,0,1,1.27-.15h2.44a3,3,0,0,1,1,.15c.27.1.4.24.4.4s-.45.45-1.37.57l-.58.08a2.36,2.36,0,0,0-1.18.67,1.48,1.48,0,0,0-.54,1.07,1.16,1.16,0,0,0,.77,1,4.5,4.5,0,0,0,2,.39,5,5,0,0,0,1.78-.27,4.81,4.81,0,0,0,1.56-1.23l1-1.18a4.21,4.21,0,0,1,2-1.09,11.19,11.19,0,0,1,3.13-.41,9.36,9.36,0,0,1,3.66.61,2.41,2.41,0,0,1,1.6,1.68l1.33,0a4.2,4.2,0,0,1,1.08.15c.24.09.36.2.36.35s-.1.27-.32.35a2.86,2.86,0,0,1-.94.12h-.21l-1.41,0a4.41,4.41,0,0,1-.39.49,5.64,5.64,0,0,1-.5.47,1.56,1.56,0,0,1,.46.2.28.28,0,0,1,.15.22c0,.15-.11.26-.32.33a4.18,4.18,0,0,1-1.12.1h-2.16a3.12,3.12,0,0,1-1-.12c-.23-.08-.35-.2-.35-.35s.37-.4,1.09-.53l.42-.06a2.29,2.29,0,0,0,1.11-.5,1.14,1.14,0,0,0,.41-.86,1.24,1.24,0,0,0-.76-1.09,4.1,4.1,0,0,0-2-.42,5.21,5.21,0,0,0-1.73.26,2.59,2.59,0,0,0-1.16.76l-1.12,1.29a4.76,4.76,0,0,1-2.17,1.45,10.47,10.47,0,0,1-3.37.46,9.4,9.4,0,0,1-3.76-.65A2.46,2.46,0,0,1,107.47,336.06Z"/><ellipse class="cls-28" cx="123.56" cy="335.32" rx="36" ry="5.06"/><rect class="cls-28" x="87.56" y="332.08" width="72" height="3.24"/><ellipse class="cls-29" cx="123.56" cy="332.24" rx="36" ry="5.06"/><path class="cls-30" d="M114.27,332.39l-4.08-.08a4.25,4.25,0,0,1-1.15-.13c-.24-.09-.36-.22-.36-.4s.11-.25.33-.32a4,4,0,0,1,1.08-.1h.31l4,.08a1.56,1.56,0,0,1,.42-.53,4.16,4.16,0,0,1,.76-.52,2.85,2.85,0,0,1-.6-.21.35.35,0,0,1-.19-.27c0-.18.16-.32.47-.43a4.27,4.27,0,0,1,1.27-.15h2.44a3,3,0,0,1,1,.15c.27.1.4.23.4.4s-.45.45-1.37.57l-.58.08a2.38,2.38,0,0,0-1.18.66,1.52,1.52,0,0,0-.54,1.08,1.17,1.17,0,0,0,.77,1,4.5,4.5,0,0,0,2,.39,4.75,4.75,0,0,0,1.78-.28,4.53,4.53,0,0,0,1.56-1.22l1-1.19a4.34,4.34,0,0,1,2-1.08,11.19,11.19,0,0,1,3.13-.41,9.15,9.15,0,0,1,3.66.61,2.42,2.42,0,0,1,1.6,1.67l1.33,0a3.47,3.47,0,0,1,1.08.15c.25.08.37.2.37.35s-.11.27-.33.35a2.86,2.86,0,0,1-.94.12h-.21l-1.41,0a4.22,4.22,0,0,1-.89.95,1.83,1.83,0,0,1,.46.21.27.27,0,0,1,.15.22c0,.15-.11.26-.32.33a4.18,4.18,0,0,1-1.12.1h-2.16a3.12,3.12,0,0,1-1-.12c-.23-.08-.35-.2-.35-.35s.37-.4,1.09-.53l.42-.07a2.28,2.28,0,0,0,1.11-.49,1.14,1.14,0,0,0,.41-.86,1.25,1.25,0,0,0-.76-1.1,4.22,4.22,0,0,0-2-.41,5.21,5.21,0,0,0-1.73.26,2.66,2.66,0,0,0-1.16.75l-1.12,1.3a4.76,4.76,0,0,1-2.17,1.45,10.47,10.47,0,0,1-3.37.46,9.22,9.22,0,0,1-3.76-.66A2.45,2.45,0,0,1,114.27,332.39Z"/><path class="cls-28" d="M114.27,332.55l-4.08-.08a4.16,4.16,0,0,1-1.15-.14q-.36-.12-.36-.39t.33-.33a4.5,4.5,0,0,1,1.08-.1h.31l4,.08a1.66,1.66,0,0,1,.42-.53,4.73,4.73,0,0,1,.76-.52,2,2,0,0,1-.6-.21.32.32,0,0,1-.19-.27c0-.18.16-.32.47-.42a3.93,3.93,0,0,1,1.27-.16h2.44a3,3,0,0,1,1,.15c.27.11.4.24.4.41s-.45.45-1.37.56l-.58.08a2.48,2.48,0,0,0-1.18.67,1.52,1.52,0,0,0-.54,1.07,1.17,1.17,0,0,0,.77,1,4.5,4.5,0,0,0,2,.39,5,5,0,0,0,1.78-.28,4.71,4.71,0,0,0,1.56-1.23l1-1.18a4.26,4.26,0,0,1,2-1.09,11.21,11.21,0,0,1,3.13-.4,9.35,9.35,0,0,1,3.66.6,2.41,2.41,0,0,1,1.6,1.68l1.33,0a3.86,3.86,0,0,1,1.08.14c.25.09.37.21.37.36s-.11.27-.33.35a2.86,2.86,0,0,1-.94.12h-.21l-1.41,0a4.22,4.22,0,0,1-.89,1,1.88,1.88,0,0,1,.46.2.28.28,0,0,1,.15.22c0,.16-.11.27-.32.34a4.65,4.65,0,0,1-1.12.1h-2.16a2.81,2.81,0,0,1-1-.13c-.23-.08-.35-.19-.35-.35s.37-.4,1.09-.52l.42-.07a2.29,2.29,0,0,0,1.11-.5,1.12,1.12,0,0,0,.41-.86,1.24,1.24,0,0,0-.76-1.09,4.22,4.22,0,0,0-2-.41,5.22,5.22,0,0,0-1.73.25,2.77,2.77,0,0,0-1.16.76l-1.12,1.3a4.75,4.75,0,0,1-2.17,1.44,10.44,10.44,0,0,1-3.37.47,9.22,9.22,0,0,1-3.76-.66A2.47,2.47,0,0,1,114.27,332.55Z"/><path class="cls-28" d="M157.18,330.87c0,2.79-16.12,5.05-36,5.05s-36-2.26-36-5.05,16.12-5.06,36-5.06S157.18,328.07,157.18,330.87Z"/><rect class="cls-28" x="85.18" y="327.63" width="72" height="3.24"/><path class="cls-29" d="M157.18,327.79c0,2.79-16.12,5-36,5s-36-2.26-36-5,16.12-5.06,36-5.06S157.18,325,157.18,327.79Z"/><path class="cls-30" d="M111.89,327.94l-4.08-.08a4.16,4.16,0,0,1-1.15-.14q-.36-.12-.36-.39c0-.15.11-.26.33-.32a3.94,3.94,0,0,1,1.08-.11H108l4,.09a1.59,1.59,0,0,1,.42-.54,4.73,4.73,0,0,1,.76-.52,2,2,0,0,1-.6-.21.32.32,0,0,1-.19-.27c0-.18.16-.32.47-.42a3.93,3.93,0,0,1,1.27-.16h2.44a2.77,2.77,0,0,1,1,.16c.27.1.4.23.4.4s-.45.45-1.37.56l-.58.08a2.48,2.48,0,0,0-1.18.67,1.52,1.52,0,0,0-.54,1.08,1.16,1.16,0,0,0,.78,1,4.42,4.42,0,0,0,2,.39,5,5,0,0,0,1.78-.28,4.46,4.46,0,0,0,1.56-1.23l1-1.18a4.35,4.35,0,0,1,2-1.09,11.21,11.21,0,0,1,3.13-.4,9.35,9.35,0,0,1,3.66.6,2.43,2.43,0,0,1,1.6,1.68l1.33,0a3.47,3.47,0,0,1,1.08.15c.25.08.37.2.37.35s-.11.27-.33.35a2.86,2.86,0,0,1-.94.12h-.21l-1.41,0a4.41,4.41,0,0,1-.39.49,5.56,5.56,0,0,1-.5.46,2.37,2.37,0,0,1,.46.2.28.28,0,0,1,.15.23c0,.15-.11.26-.32.33a4.65,4.65,0,0,1-1.12.1H127.9a3.12,3.12,0,0,1-1-.12c-.23-.08-.35-.2-.35-.35s.37-.41,1.09-.53l.42-.07a2.29,2.29,0,0,0,1.11-.5,1.12,1.12,0,0,0,.41-.86,1.25,1.25,0,0,0-.76-1.09,4.22,4.22,0,0,0-2-.41,5,5,0,0,0-1.73.26,2.66,2.66,0,0,0-1.16.75l-1.12,1.3a4.84,4.84,0,0,1-2.17,1.45,10.75,10.75,0,0,1-3.37.46,9.22,9.22,0,0,1-3.76-.66A2.47,2.47,0,0,1,111.89,327.94Z"/><path class="cls-28" d="M111.89,328.09l-4.08-.08a4.25,4.25,0,0,1-1.15-.13q-.36-.12-.36-.39t.33-.33a4,4,0,0,1,1.08-.1H108l4,.08a1.66,1.66,0,0,1,.42-.53,4.16,4.16,0,0,1,.76-.52,2,2,0,0,1-.6-.21.35.35,0,0,1-.19-.27c0-.18.16-.32.47-.43a4.27,4.27,0,0,1,1.27-.15h2.44a3,3,0,0,1,1,.15c.27.1.4.24.4.4s-.45.45-1.37.57l-.58.08a2.46,2.46,0,0,0-1.18.66,1.52,1.52,0,0,0-.54,1.08,1.15,1.15,0,0,0,.78,1,4.42,4.42,0,0,0,2,.39,5,5,0,0,0,1.78-.27,4.71,4.71,0,0,0,1.56-1.23l1-1.18a4.26,4.26,0,0,1,2-1.09,11.19,11.19,0,0,1,3.13-.41,9.33,9.33,0,0,1,3.66.61,2.41,2.41,0,0,1,1.6,1.68l1.33,0a4.2,4.2,0,0,1,1.08.15c.25.09.37.2.37.35s-.11.27-.33.35a2.86,2.86,0,0,1-.94.12h-.21l-1.41,0a4.41,4.41,0,0,1-.39.49,5.64,5.64,0,0,1-.5.47,1.56,1.56,0,0,1,.46.2.28.28,0,0,1,.15.22c0,.15-.11.26-.32.33a4.18,4.18,0,0,1-1.12.1H127.9a3.12,3.12,0,0,1-1-.12c-.23-.08-.35-.2-.35-.35s.37-.4,1.09-.53l.42-.06a2.29,2.29,0,0,0,1.11-.5,1.14,1.14,0,0,0,.41-.86,1.24,1.24,0,0,0-.76-1.09,4.1,4.1,0,0,0-2-.42,5.21,5.21,0,0,0-1.73.26,2.59,2.59,0,0,0-1.16.76l-1.12,1.29a4.76,4.76,0,0,1-2.17,1.45,10.47,10.47,0,0,1-3.37.46,9.4,9.4,0,0,1-3.76-.65A2.46,2.46,0,0,1,111.89,328.09Z"/><ellipse class="cls-28" cx="116.76" cy="326.41" rx="36" ry="5.06"/><rect class="cls-28" x="80.76" y="323.18" width="72" height="3.24"/><ellipse class="cls-29" cx="116.76" cy="323.33" rx="36" ry="5.06"/><path class="cls-30" d="M107.47,323.48l-4.08-.08a4.25,4.25,0,0,1-1.15-.13q-.36-.12-.36-.39t.33-.33a4.5,4.5,0,0,1,1.08-.1h.31l4,.08A1.66,1.66,0,0,1,108,322a4.73,4.73,0,0,1,.76-.52,2,2,0,0,1-.6-.21A.35.35,0,0,1,108,321c0-.18.16-.32.47-.42a3.93,3.93,0,0,1,1.27-.16h2.44a3,3,0,0,1,1,.15c.27.1.4.24.4.4s-.45.45-1.37.57l-.58.08a2.44,2.44,0,0,0-1.18.67,1.5,1.5,0,0,0-.54,1.07,1.17,1.17,0,0,0,.77,1,4.65,4.65,0,0,0,2,.38,5,5,0,0,0,1.78-.27,4.81,4.81,0,0,0,1.56-1.23l1-1.18a4.21,4.21,0,0,1,2-1.09,11.21,11.21,0,0,1,3.13-.4,9.38,9.38,0,0,1,3.66.6,2.41,2.41,0,0,1,1.6,1.68l1.33,0a4.2,4.2,0,0,1,1.08.15c.24.09.36.2.36.35s-.1.27-.32.35a2.58,2.58,0,0,1-.94.13h-.21l-1.41,0a5.48,5.48,0,0,1-.39.48,5.64,5.64,0,0,1-.5.47,1.56,1.56,0,0,1,.46.2.28.28,0,0,1,.15.22c0,.16-.11.27-.32.33a4.18,4.18,0,0,1-1.12.1h-2.16a3.12,3.12,0,0,1-1-.12c-.23-.08-.35-.2-.35-.35s.37-.4,1.09-.52l.42-.07a2.29,2.29,0,0,0,1.11-.5,1.12,1.12,0,0,0,.41-.86,1.24,1.24,0,0,0-.76-1.09,4.11,4.11,0,0,0-2-.41,5.22,5.22,0,0,0-1.73.25,2.67,2.67,0,0,0-1.16.76L118.4,324a4.76,4.76,0,0,1-2.17,1.45,10.47,10.47,0,0,1-3.37.46,9.23,9.23,0,0,1-3.76-.65A2.46,2.46,0,0,1,107.47,323.48Z"/><path class="cls-28" d="M107.47,323.64l-4.08-.08a4.16,4.16,0,0,1-1.15-.14q-.36-.12-.36-.39c0-.15.11-.25.33-.32a4,4,0,0,1,1.08-.1h.31l4,.08a1.69,1.69,0,0,1,.42-.54,4.16,4.16,0,0,1,.76-.51,2.85,2.85,0,0,1-.6-.21.35.35,0,0,1-.19-.27c0-.18.16-.33.47-.43a4.27,4.27,0,0,1,1.27-.15h2.44a3,3,0,0,1,1,.15c.27.1.4.23.4.4s-.45.45-1.37.57a4.7,4.7,0,0,0-.58.08,2.34,2.34,0,0,0-1.18.66,1.52,1.52,0,0,0-.54,1.08,1.17,1.17,0,0,0,.77,1,4.5,4.5,0,0,0,2,.39,4.75,4.75,0,0,0,1.78-.28,4.55,4.55,0,0,0,1.56-1.23l1-1.18a4.29,4.29,0,0,1,2-1.08,11.19,11.19,0,0,1,3.13-.41,9.38,9.38,0,0,1,3.66.6,2.45,2.45,0,0,1,1.6,1.68l1.33,0a3.47,3.47,0,0,1,1.08.15c.24.08.36.2.36.35s-.1.27-.32.35a2.86,2.86,0,0,1-.94.12h-.21l-1.41,0a4.41,4.41,0,0,1-.39.49,5.56,5.56,0,0,1-.5.46,1.83,1.83,0,0,1,.46.21.27.27,0,0,1,.15.22c0,.15-.11.26-.32.33a4.18,4.18,0,0,1-1.12.1h-2.16a3.12,3.12,0,0,1-1-.12c-.23-.08-.35-.2-.35-.35s.37-.4,1.09-.53l.42-.07a2.2,2.2,0,0,0,1.11-.5,1.1,1.1,0,0,0,.41-.85,1.25,1.25,0,0,0-.76-1.1,4.22,4.22,0,0,0-2-.41,5.21,5.21,0,0,0-1.73.26,2.66,2.66,0,0,0-1.16.75l-1.12,1.3a4.76,4.76,0,0,1-2.17,1.45,10.47,10.47,0,0,1-3.37.46,9.22,9.22,0,0,1-3.76-.66A2.45,2.45,0,0,1,107.47,323.64Z"/><path class="cls-28" d="M159.56,322.9c0,2.79-16.12,5.05-36,5.05s-36-2.26-36-5.05,16.12-5.06,36-5.06S159.56,320.1,159.56,322.9Z"/><rect class="cls-28" x="87.56" y="319.66" width="72" height="3.24"/><path class="cls-29" d="M159.56,319.82c0,2.79-16.12,5.05-36,5.05s-36-2.26-36-5.05,16.12-5.06,36-5.06S159.56,317,159.56,319.82Z"/><path class="cls-30" d="M114.27,320l-4.08-.08a4.16,4.16,0,0,1-1.15-.14q-.36-.12-.36-.39c0-.15.11-.26.33-.32a3.94,3.94,0,0,1,1.08-.11h.31l4,.09a1.59,1.59,0,0,1,.42-.54,4.73,4.73,0,0,1,.76-.52,2,2,0,0,1-.6-.21.32.32,0,0,1-.19-.27c0-.18.16-.32.47-.42a3.93,3.93,0,0,1,1.27-.16h2.44a3,3,0,0,1,1,.15c.27.11.4.24.4.41s-.45.45-1.37.56l-.58.08a2.48,2.48,0,0,0-1.18.67,1.52,1.52,0,0,0-.54,1.08,1.17,1.17,0,0,0,.77,1,4.5,4.5,0,0,0,2,.39,5,5,0,0,0,1.78-.28,4.46,4.46,0,0,0,1.56-1.23l1-1.18a4.35,4.35,0,0,1,2-1.09,11.21,11.21,0,0,1,3.13-.4,9.35,9.35,0,0,1,3.66.6,2.43,2.43,0,0,1,1.6,1.68l1.33,0a3.47,3.47,0,0,1,1.08.15c.25.08.37.2.37.35s-.11.27-.33.35a2.86,2.86,0,0,1-.94.12h-.21l-1.41,0a4.41,4.41,0,0,1-.39.49,5.56,5.56,0,0,1-.5.46,2.37,2.37,0,0,1,.46.2.28.28,0,0,1,.15.23c0,.15-.11.26-.32.33a4.65,4.65,0,0,1-1.12.1h-2.16a3.12,3.12,0,0,1-1-.12c-.23-.08-.35-.2-.35-.35s.37-.41,1.09-.53l.42-.07a2.29,2.29,0,0,0,1.11-.5,1.12,1.12,0,0,0,.41-.86,1.25,1.25,0,0,0-.76-1.09,4.22,4.22,0,0,0-2-.41,5,5,0,0,0-1.73.26,2.66,2.66,0,0,0-1.16.75l-1.12,1.3A4.84,4.84,0,0,1,123,322a10.75,10.75,0,0,1-3.37.46,9.22,9.22,0,0,1-3.76-.66A2.47,2.47,0,0,1,114.27,320Z"/><path class="cls-28" d="M114.27,320.12l-4.08-.08a4.25,4.25,0,0,1-1.15-.13q-.36-.12-.36-.39t.33-.33a4,4,0,0,1,1.08-.1h.31l4,.08a1.66,1.66,0,0,1,.42-.53,4.16,4.16,0,0,1,.76-.52,2,2,0,0,1-.6-.21.35.35,0,0,1-.19-.27c0-.18.16-.32.47-.43a4.27,4.27,0,0,1,1.27-.15h2.44a3,3,0,0,1,1,.15c.27.1.4.24.4.4s-.45.45-1.37.57l-.58.08a2.46,2.46,0,0,0-1.18.66,1.52,1.52,0,0,0-.54,1.08,1.16,1.16,0,0,0,.77,1,4.5,4.5,0,0,0,2,.39,5,5,0,0,0,1.78-.27,4.71,4.71,0,0,0,1.56-1.23l1-1.18a4.26,4.26,0,0,1,2-1.09,11.19,11.19,0,0,1,3.13-.41,9.33,9.33,0,0,1,3.66.61,2.41,2.41,0,0,1,1.6,1.68l1.33,0a4.2,4.2,0,0,1,1.08.15c.25.09.37.2.37.35s-.11.27-.33.35a2.86,2.86,0,0,1-.94.12h-.21l-1.41,0a4.41,4.41,0,0,1-.39.49,5.64,5.64,0,0,1-.5.47,1.56,1.56,0,0,1,.46.2.28.28,0,0,1,.15.22c0,.15-.11.26-.32.33a4.18,4.18,0,0,1-1.12.1h-2.16a3.12,3.12,0,0,1-1-.12c-.23-.08-.35-.2-.35-.35s.37-.4,1.09-.53l.42-.06a2.29,2.29,0,0,0,1.11-.5,1.14,1.14,0,0,0,.41-.86,1.24,1.24,0,0,0-.76-1.09,4.1,4.1,0,0,0-2-.42,5.21,5.21,0,0,0-1.73.26,2.59,2.59,0,0,0-1.16.76l-1.12,1.29a4.76,4.76,0,0,1-2.17,1.45,10.47,10.47,0,0,1-3.37.46,9.4,9.4,0,0,1-3.76-.65A2.46,2.46,0,0,1,114.27,320.12Z"/><path class="cls-31" d="M145.56,349s2.12,4.89-1.38,7h10.63l1.1-7.89Z"/><ellipse class="cls-28" cx="188.17" cy="361.45" rx="36" ry="5.06"/><rect class="cls-28" x="152.17" y="358.22" width="72" height="3.24"/><ellipse class="cls-29" cx="188.17" cy="358.37" rx="36" ry="5.06"/><path class="cls-30" d="M178.88,358.52l-4.08-.08a4.3,4.3,0,0,1-1.15-.13q-.36-.12-.36-.39t.33-.33a4,4,0,0,1,1.08-.1H175l4,.08a1.49,1.49,0,0,1,.41-.53,4.16,4.16,0,0,1,.76-.52,1.86,1.86,0,0,1-.59-.21c-.13-.08-.2-.17-.2-.27s.16-.32.47-.43a4.27,4.27,0,0,1,1.27-.15h2.44a3,3,0,0,1,1,.15c.27.1.41.24.41.4s-.46.45-1.38.57l-.58.08a2.4,2.4,0,0,0-1.18.67,1.48,1.48,0,0,0-.54,1.07,1.15,1.15,0,0,0,.78,1,4.42,4.42,0,0,0,2,.39,4.94,4.94,0,0,0,1.78-.27,4.71,4.71,0,0,0,1.56-1.23l1-1.18a4.22,4.22,0,0,1,2-1.09,11.19,11.19,0,0,1,3.13-.41,9.33,9.33,0,0,1,3.66.61,2.39,2.39,0,0,1,1.6,1.68l1.33,0a4.22,4.22,0,0,1,1.09.15c.24.09.36.2.36.35s-.11.27-.33.35a2.86,2.86,0,0,1-.94.12h-.21l-1.41,0a4.41,4.41,0,0,1-.39.49,5.64,5.64,0,0,1-.5.47,1.56,1.56,0,0,1,.46.2.28.28,0,0,1,.15.22c0,.15-.11.26-.32.33a4.18,4.18,0,0,1-1.12.1h-2.16a3.16,3.16,0,0,1-1-.12c-.23-.08-.35-.2-.35-.35s.37-.4,1.09-.53l.43-.06a2.29,2.29,0,0,0,1.1-.5,1.14,1.14,0,0,0,.41-.86,1.24,1.24,0,0,0-.76-1.09,4.1,4.1,0,0,0-2-.42,5.21,5.21,0,0,0-1.73.26,2.5,2.5,0,0,0-1.15.76l-1.13,1.29a4.76,4.76,0,0,1-2.17,1.45,10.47,10.47,0,0,1-3.37.46,9.4,9.4,0,0,1-3.76-.65A2.46,2.46,0,0,1,178.88,358.52Z"/><path class="cls-28" d="M178.88,358.68l-4.08-.08a4.22,4.22,0,0,1-1.15-.14q-.36-.12-.36-.39c0-.15.11-.26.33-.32a4,4,0,0,1,1.08-.1H175l4,.08a1.44,1.44,0,0,1,.41-.54,4.73,4.73,0,0,1,.76-.52,1.86,1.86,0,0,1-.59-.21.31.31,0,0,1-.2-.27c0-.18.16-.32.47-.42a4.22,4.22,0,0,1,1.27-.16h2.44a2.77,2.77,0,0,1,1,.16c.27.1.41.23.41.4s-.46.45-1.38.56c-.28,0-.47.06-.58.09a2.38,2.38,0,0,0-1.18.66,1.52,1.52,0,0,0-.54,1.08,1.16,1.16,0,0,0,.78,1,4.42,4.42,0,0,0,2,.39,4.71,4.71,0,0,0,1.78-.28,4.46,4.46,0,0,0,1.56-1.23l1-1.18a4.31,4.31,0,0,1,2-1.09,11.21,11.21,0,0,1,3.13-.4,9.35,9.35,0,0,1,3.66.6,2.43,2.43,0,0,1,1.6,1.68l1.33,0a3.49,3.49,0,0,1,1.09.15c.24.08.36.2.36.35s-.11.27-.33.35a2.86,2.86,0,0,1-.94.12h-.21l-1.41,0a4.41,4.41,0,0,1-.39.49,5.56,5.56,0,0,1-.5.46,2.37,2.37,0,0,1,.46.2.29.29,0,0,1,.15.23c0,.15-.11.26-.32.33a4.65,4.65,0,0,1-1.12.1h-2.16a3.16,3.16,0,0,1-1-.12c-.23-.08-.35-.2-.35-.35s.37-.4,1.09-.53l.43-.07a2.2,2.2,0,0,0,1.1-.5,1.12,1.12,0,0,0,.41-.85,1.25,1.25,0,0,0-.76-1.1,4.22,4.22,0,0,0-2-.41,5.21,5.21,0,0,0-1.73.26,2.57,2.57,0,0,0-1.15.75l-1.13,1.3a4.76,4.76,0,0,1-2.17,1.45,10.75,10.75,0,0,1-3.37.46,9.22,9.22,0,0,1-3.76-.66A2.47,2.47,0,0,1,178.88,358.68Z"/><path class="cls-28" d="M218.89,357c0,2.79-16.12,5.06-36,5.06s-36-2.27-36-5.06,16.12-5.06,36-5.06S218.89,354.21,218.89,357Z"/><rect class="cls-28" x="146.88" y="353.76" width="72" height="3.24"/><ellipse class="cls-29" cx="182.89" cy="353.92" rx="36" ry="5.06"/><path class="cls-30" d="M173.59,354.07l-4.07-.08a4.3,4.3,0,0,1-1.16-.14q-.36-.12-.36-.39c0-.15.12-.25.34-.32a3.94,3.94,0,0,1,1.07-.1h.32l4,.08a1.65,1.65,0,0,1,.41-.54,4.28,4.28,0,0,1,.77-.51,2.85,2.85,0,0,1-.6-.21.33.33,0,0,1-.19-.27c0-.18.15-.33.46-.43a4.35,4.35,0,0,1,1.28-.15h2.44a3,3,0,0,1,1,.15c.27.1.41.23.41.4s-.46.45-1.37.57a4.41,4.41,0,0,0-.58.08,2.37,2.37,0,0,0-1.19.66A1.51,1.51,0,0,0,176,354a1.15,1.15,0,0,0,.77,1,4.42,4.42,0,0,0,2,.39,4.8,4.8,0,0,0,1.79-.28,4.44,4.44,0,0,0,1.55-1.23l1-1.18a4.3,4.3,0,0,1,2-1.08,11.27,11.27,0,0,1,3.14-.41,9.1,9.1,0,0,1,3.65.61,2.4,2.4,0,0,1,1.6,1.67l1.34,0a3.47,3.47,0,0,1,1.08.15c.24.08.36.2.36.35s-.11.27-.33.35a2.82,2.82,0,0,1-.94.12h-.21l-1.4,0a4.52,4.52,0,0,1-.4.49,3.74,3.74,0,0,1-.5.46,1.94,1.94,0,0,1,.47.21.27.27,0,0,1,.15.22q0,.22-.33.33a4.14,4.14,0,0,1-1.11.1H189.6a3.16,3.16,0,0,1-1-.12c-.23-.08-.34-.2-.34-.35s.36-.4,1.09-.53l.42-.07a2.2,2.2,0,0,0,1.11-.5,1.09,1.09,0,0,0,.4-.85,1.23,1.23,0,0,0-.76-1.1,4.22,4.22,0,0,0-2-.41,5.25,5.25,0,0,0-1.73.26,2.57,2.57,0,0,0-1.15.75l-1.13,1.3a4.76,4.76,0,0,1-2.17,1.45,10.36,10.36,0,0,1-3.36.46,9.15,9.15,0,0,1-3.76-.66A2.47,2.47,0,0,1,173.59,354.07Z"/><path class="cls-28" d="M173.59,354.23l-4.07-.09a4,4,0,0,1-1.16-.13q-.36-.12-.36-.39c0-.15.12-.26.34-.33a4.4,4.4,0,0,1,1.07-.1h.32l4,.08a1.62,1.62,0,0,1,.41-.53,4.86,4.86,0,0,1,.77-.52,2,2,0,0,1-.6-.21.33.33,0,0,1-.19-.27c0-.18.15-.32.46-.42a4,4,0,0,1,1.28-.16h2.44a3,3,0,0,1,1,.15c.27.1.41.24.41.4s-.46.45-1.37.57l-.58.08a2.46,2.46,0,0,0-1.19.67,1.49,1.49,0,0,0-.53,1.07,1.15,1.15,0,0,0,.77,1,4.43,4.43,0,0,0,2,.38,5,5,0,0,0,1.79-.27,4.69,4.69,0,0,0,1.55-1.23l1-1.18a4.22,4.22,0,0,1,2-1.09,11.28,11.28,0,0,1,3.14-.4,9.29,9.29,0,0,1,3.65.6,2.39,2.39,0,0,1,1.6,1.68l1.34,0a4.2,4.2,0,0,1,1.08.15c.24.09.36.21.36.35s-.11.27-.33.36a2.82,2.82,0,0,1-.94.12h-.21l-1.4,0a5.74,5.74,0,0,1-.4.49,3.74,3.74,0,0,1-.5.46,2,2,0,0,1,.47.2.28.28,0,0,1,.15.22q0,.24-.33.33a4,4,0,0,1-1.11.11H189.6a3.11,3.11,0,0,1-1-.13c-.23-.08-.34-.19-.34-.35s.36-.4,1.09-.52l.42-.07a2.29,2.29,0,0,0,1.11-.5,1.11,1.11,0,0,0,.4-.86,1.22,1.22,0,0,0-.76-1.09,4.11,4.11,0,0,0-2-.41,5.26,5.26,0,0,0-1.73.25,2.58,2.58,0,0,0-1.15.76l-1.13,1.3a4.75,4.75,0,0,1-2.17,1.44,10.33,10.33,0,0,1-3.36.47,9.15,9.15,0,0,1-3.76-.66A2.48,2.48,0,0,1,173.59,354.23Z"/><ellipse class="cls-28" cx="186.49" cy="353.48" rx="36" ry="5.06"/><rect class="cls-28" x="150.49" y="350.25" width="72" height="3.24"/><ellipse class="cls-29" cx="186.49" cy="350.4" rx="36" ry="5.06"/><path class="cls-30" d="M177.2,350.55l-4.08-.08a4.25,4.25,0,0,1-1.15-.13q-.36-.12-.36-.39t.33-.33a4,4,0,0,1,1.08-.1h.31l4,.08a1.66,1.66,0,0,1,.42-.53,3.84,3.84,0,0,1,.76-.52,2,2,0,0,1-.6-.21.33.33,0,0,1-.19-.27c0-.18.16-.32.47-.43a4.27,4.27,0,0,1,1.27-.15h2.44a3.05,3.05,0,0,1,1,.15c.27.1.4.24.4.4s-.45.45-1.37.57l-.58.08a2.42,2.42,0,0,0-1.18.66,1.52,1.52,0,0,0-.54,1.08,1.16,1.16,0,0,0,.77,1,4.5,4.5,0,0,0,2,.39,5,5,0,0,0,1.78-.27,4.81,4.81,0,0,0,1.56-1.23l1-1.18a4.21,4.21,0,0,1,2-1.09,11.19,11.19,0,0,1,3.13-.41,9.36,9.36,0,0,1,3.66.61,2.41,2.41,0,0,1,1.6,1.68l1.33,0a4.2,4.2,0,0,1,1.08.15c.24.09.36.2.36.35s-.1.27-.32.35a2.86,2.86,0,0,1-.94.12h-.21l-1.41,0a6,6,0,0,1-.39.49,5.64,5.64,0,0,1-.5.47,1.56,1.56,0,0,1,.46.2.28.28,0,0,1,.15.22c0,.15-.11.26-.32.33a4.18,4.18,0,0,1-1.12.1h-2.16a3.07,3.07,0,0,1-1-.12c-.23-.08-.35-.2-.35-.35s.37-.4,1.09-.53l.42-.06a2.29,2.29,0,0,0,1.11-.5,1.14,1.14,0,0,0,.41-.86,1.24,1.24,0,0,0-.76-1.09,4.1,4.1,0,0,0-2-.42,5.31,5.31,0,0,0-1.74.26,2.61,2.61,0,0,0-1.15.76l-1.12,1.29a4.82,4.82,0,0,1-2.17,1.45,10.47,10.47,0,0,1-3.37.46,9.37,9.37,0,0,1-3.76-.65A2.46,2.46,0,0,1,177.2,350.55Z"/><path class="cls-28" d="M177.2,350.71l-4.08-.08a4.16,4.16,0,0,1-1.15-.14q-.36-.12-.36-.39c0-.15.11-.26.33-.32a4,4,0,0,1,1.08-.1h.31l4,.08a1.59,1.59,0,0,1,.42-.54,4.31,4.31,0,0,1,.76-.52,2,2,0,0,1-.6-.21.3.3,0,0,1-.19-.27c0-.18.16-.32.47-.42a4.22,4.22,0,0,1,1.27-.16h2.44a2.81,2.81,0,0,1,1,.16c.27.1.4.23.4.4s-.45.45-1.37.56c-.28,0-.47.06-.58.09a2.34,2.34,0,0,0-1.18.66,1.52,1.52,0,0,0-.54,1.08,1.17,1.17,0,0,0,.77,1,4.5,4.5,0,0,0,2,.39,4.75,4.75,0,0,0,1.78-.28,4.55,4.55,0,0,0,1.56-1.23l1-1.18a4.3,4.3,0,0,1,2-1.09,11.21,11.21,0,0,1,3.13-.4,9.38,9.38,0,0,1,3.66.6,2.45,2.45,0,0,1,1.6,1.68l1.33,0a3.47,3.47,0,0,1,1.08.15c.24.08.36.2.36.35s-.1.27-.32.35a2.86,2.86,0,0,1-.94.12h-.21l-1.41,0a6,6,0,0,1-.39.49,5.56,5.56,0,0,1-.5.46,2.37,2.37,0,0,1,.46.2.29.29,0,0,1,.15.23c0,.15-.11.26-.32.33a4.65,4.65,0,0,1-1.12.1h-2.16a3.07,3.07,0,0,1-1-.12c-.23-.08-.35-.2-.35-.35s.37-.4,1.09-.53l.42-.07a2.2,2.2,0,0,0,1.11-.5,1.12,1.12,0,0,0,.41-.85,1.25,1.25,0,0,0-.76-1.1,4.22,4.22,0,0,0-2-.41,5.31,5.31,0,0,0-1.74.26,2.68,2.68,0,0,0-1.15.75l-1.12,1.3A4.82,4.82,0,0,1,186,352.7a10.75,10.75,0,0,1-3.37.46,9.18,9.18,0,0,1-3.76-.66A2.47,2.47,0,0,1,177.2,350.71Z"/><ellipse class="cls-28" cx="181.37" cy="348.43" rx="36" ry="5.06"/><rect class="cls-28" x="145.37" y="345.19" width="72" height="3.24"/><ellipse class="cls-29" cx="181.37" cy="345.34" rx="36" ry="5.06"/><path class="cls-30" d="M172.08,345.5l-4.08-.09a3.88,3.88,0,0,1-1.15-.13q-.36-.12-.36-.39t.33-.33a4.5,4.5,0,0,1,1.08-.1h.31l4,.08a1.66,1.66,0,0,1,.42-.53,4.73,4.73,0,0,1,.76-.52,2,2,0,0,1-.6-.21.32.32,0,0,1-.19-.27c0-.18.16-.32.47-.42a3.93,3.93,0,0,1,1.27-.16h2.44a3,3,0,0,1,1,.15c.27.1.41.24.41.4s-.46.45-1.38.57l-.58.08a2.48,2.48,0,0,0-1.18.67,1.52,1.52,0,0,0-.54,1.07,1.16,1.16,0,0,0,.78,1,4.42,4.42,0,0,0,2,.39,4.92,4.92,0,0,0,1.78-.28,4.71,4.71,0,0,0,1.56-1.23l1-1.18a4.26,4.26,0,0,1,2-1.09,11.21,11.21,0,0,1,3.13-.4,9.35,9.35,0,0,1,3.66.6,2.39,2.39,0,0,1,1.6,1.68l1.33,0a4,4,0,0,1,1.09.14c.24.09.36.21.36.35s-.11.27-.33.36a2.86,2.86,0,0,1-.94.12h-.21l-1.41,0a4.22,4.22,0,0,1-.89.95,1.88,1.88,0,0,1,.46.2.28.28,0,0,1,.15.22c0,.16-.11.27-.32.33a4.07,4.07,0,0,1-1.12.11h-2.16a2.81,2.81,0,0,1-1-.13c-.23-.08-.35-.19-.35-.35s.37-.4,1.09-.52l.43-.07a2.29,2.29,0,0,0,1.1-.5,1.12,1.12,0,0,0,.41-.86,1.24,1.24,0,0,0-.76-1.09,4.11,4.11,0,0,0-2-.41,5.22,5.22,0,0,0-1.73.25,2.58,2.58,0,0,0-1.15.76L183,346a4.75,4.75,0,0,1-2.17,1.44,10.44,10.44,0,0,1-3.37.47,9.22,9.22,0,0,1-3.76-.66A2.47,2.47,0,0,1,172.08,345.5Z"/><path class="cls-28" d="M172.08,345.65l-4.08-.08a4.25,4.25,0,0,1-1.15-.13c-.24-.09-.36-.22-.36-.4s.11-.25.33-.32a4,4,0,0,1,1.08-.1h.31l4,.08a1.66,1.66,0,0,1,.42-.53,4.16,4.16,0,0,1,.76-.52,2.85,2.85,0,0,1-.6-.21.35.35,0,0,1-.19-.27c0-.18.16-.32.47-.43a4.27,4.27,0,0,1,1.27-.15h2.44a3,3,0,0,1,1,.15c.27.1.41.23.41.4s-.46.45-1.38.57l-.58.08a2.38,2.38,0,0,0-1.18.66,1.52,1.52,0,0,0-.54,1.08,1.16,1.16,0,0,0,.78,1,4.42,4.42,0,0,0,2,.39,4.71,4.71,0,0,0,1.78-.28,4.53,4.53,0,0,0,1.56-1.22l1-1.19a4.34,4.34,0,0,1,2-1.08,11.19,11.19,0,0,1,3.13-.41,9.15,9.15,0,0,1,3.66.61,2.4,2.4,0,0,1,1.6,1.67l1.33,0a3.54,3.54,0,0,1,1.09.15c.24.08.36.2.36.35s-.11.27-.33.35a2.86,2.86,0,0,1-.94.12h-.21L192,346a4.22,4.22,0,0,1-.89.95,1.83,1.83,0,0,1,.46.21.27.27,0,0,1,.15.22c0,.15-.11.26-.32.33a4.18,4.18,0,0,1-1.12.1h-2.16a3.12,3.12,0,0,1-1-.12c-.23-.08-.35-.2-.35-.35s.37-.4,1.09-.53a4.28,4.28,0,0,0,.43-.07,2.28,2.28,0,0,0,1.1-.49,1.14,1.14,0,0,0,.41-.86,1.25,1.25,0,0,0-.76-1.1,4.22,4.22,0,0,0-2-.41,5.21,5.21,0,0,0-1.73.26,2.5,2.5,0,0,0-1.15.76L183,346.19a4.76,4.76,0,0,1-2.17,1.45,10.47,10.47,0,0,1-3.37.46,9.22,9.22,0,0,1-3.76-.66A2.45,2.45,0,0,1,172.08,345.65Z"/><path class="cls-32" d="M370.72,158.44a85,85,0,0,1-19-2.09,8.81,8.81,0,1,1,3.93-17.18c26.83,6.12,51.68-6.75,51.92-6.88a8.81,8.81,0,0,1,8.23,15.59A105.41,105.41,0,0,1,370.72,158.44Z"/><path class="cls-33" d="M419.52,136a8.81,8.81,0,0,0-11.91-3.68,86,86,0,0,1-21.15,7,39.52,39.52,0,0,0,6.36,16.66,100.56,100.56,0,0,0,23-8A8.8,8.8,0,0,0,419.52,136Z"/><path class="cls-34" d="M390.18,346.23l-5.6,4.75s16.11,3.39,30.35.85l-1.52-7Z"/><path class="cls-34" d="M446,345.38l-5.59,4.75s16.1,3.39,30.35.85l-1.53-7Z"/><path class="cls-35" d="M403.05,205.62s-20.88,94.55-14.86,142.05c0,0,14.73,5.59,26.11,0,0,0,2.8-92.72,17.53-122l13.26,120.58s7.81,7,24.54-1.4L457.36,200.25Z"/><path class="cls-36" d="M407.72,223.15l-11.07,15.53c-1,5.52-2,11.51-2.93,17.8l27.73,9.09c2.34-15,5.4-28.75,9.39-37.77Z"/><polygon class="cls-36" points="432.09 228.06 436.77 270.6 464.09 279.56 460.2 233.72 432.09 228.06"/><path class="cls-37" d="M431.83,226h-.05l-1.54-.24a.33.33,0,0,1-.23-.18c-3-6.35-3.26-15.16-3.27-15.24a.32.32,0,0,1,.3-.32c.2,0,.32.13.32.3s.29,8.62,3.14,14.85l1,.16c-.2-2-1-10.72-.35-15.05a.34.34,0,0,1,.36-.26.32.32,0,0,1,.26.36c-.74,4.72.37,15.18.39,15.28a.32.32,0,0,1-.1.26A.32.32,0,0,1,431.83,226Z"/><path class="cls-38" d="M398.54,147.23l4.51,58.39s13.19,7.18,31.8,5,22.69-10.39,22.69-10.39-3.22-57.29-3.76-57.86S451,123,424.11,126.84,398.54,147.23,398.54,147.23Z"/><path class="cls-33" d="M453.31,140.9l-16.72,1c.07.26,7.12,9.26,18.65,19.58-.65-10.41-1.25-18.9-1.46-19.12A12.3,12.3,0,0,1,453.31,140.9Z"/><polygon class="cls-32" points="430.33 110.45 430.33 126.65 422.87 144.06 415.62 129.03 415.62 119.28 430.33 110.45"/><path class="cls-39" d="M428.31,118.62l-12.69,4.2V128C422.7,127.06,428.31,118.62,428.31,118.62Z"/><rect class="cls-32" x="402.83" y="85.9" width="27.5" height="39.32" rx="8.36"/><path class="cls-40" d="M419.42,94s1.33,11.89,10.75,13.06c0,0,.78-9.87.14-12.37S419.42,94,419.42,94Z"/><path class="cls-37" d="M438.44,228.38a.27.27,0,0,1-.17-.06c-5.15-3.64-16-2.75-16.11-2.74a.3.3,0,0,1-.34-.28.32.32,0,0,1,.28-.34c.46,0,11.19-.92,16.52,2.86a.32.32,0,0,1,.08.43A.33.33,0,0,1,438.44,228.38Z"/><path class="cls-32" d="M433.54,108.58a3.37,3.37,0,1,1-3.37-3.37A3.37,3.37,0,0,1,433.54,108.58Z"/><polyline class="cls-41" points="414.35 129.51 413.93 146.39 422.98 144.72 432.73 147.11 431.35 127.25"/><polyline class="cls-41" points="422.24 144.85 422.98 154 425.67 154"/><rect class="cls-42" x="328.94" y="149.8" width="183.87" height="105.89" rx="8.95" transform="translate(38.95 -66.28) rotate(9.44)"/><rect class="cls-43" x="349.81" y="155.72" width="113.66" height="10.83" transform="translate(31.93 -64.5) rotate(9.44)"/><rect class="cls-43" x="338.81" y="226.41" width="113.66" height="1.73" transform="translate(42.63 -61.8) rotate(9.44)"/><rect class="cls-43" x="338.24" y="229.21" width="98.01" height="1.73" transform="translate(42.97 -60.39) rotate(9.44)"/><rect class="cls-43" x="337.49" y="234.1" width="107.78" height="1.73" transform="translate(43.83 -61) rotate(9.44)"/><text class="cls-44" transform="translate(340.48 212.38) rotate(9.44)">123456 1234 764 456</text><path class="cls-43" d="M357.91,183.39a4,4,0,0,1,3.36,3.9l8.87,1.48.52-3.11a4.81,4.81,0,0,0-4-5.52l-15.54-2.59a4.81,4.81,0,0,0-5.49,3.81Z"/><path class="cls-43" d="M359.79,187.78a2.58,2.58,0,0,0-2.12-3l-12.24-2-.85,5.08,12.24,2A2.59,2.59,0,0,0,359.79,187.78Z"/><path class="cls-43" d="M361,188.72a4,4,0,0,1-4.44,2.61l-12.23-2a4.81,4.81,0,0,0,4,5.37l15.54,2.59a4.82,4.82,0,0,0,5.53-3.95l.52-3.11Z"/><path class="cls-32" d="M461.85,192.92s9.8,2.93,17.52,1.92L484,152.5a8.81,8.81,0,0,0-5.43-9.12l-33-13.46A8.81,8.81,0,1,0,439,146.24l26.83,10.95Z"/><path class="cls-32" d="M479.24,197.14a6.35,6.35,0,0,1-.84,3,2.3,2.3,0,0,1-2.75,1c-.49-.25-.89-.74-1.44-.76s-1.13.69-1.7,1.09a2.68,2.68,0,0,1-3.41-.64c-.28-.32-.53-.71-.93-.82-.91-.24-1.67,1.09-2.57.84-.68-.2-.87-1.2-1.55-1.41a5,5,0,0,0-1.16,0,1.66,1.66,0,0,1-1.36-1.23,4.72,4.72,0,0,1,0-1.91c.1-1,.21-2,.32-3a4.57,4.57,0,0,1,.41-1.73c.61-1.14,2-1.57,3.27-1.85a20.92,20.92,0,0,1,7.39-.48,10.45,10.45,0,0,1,5.62,2.5C479.84,193,479.42,195.43,479.24,197.14Z"/><path class="cls-38" d="M445.52,129.68a9,9,0,0,0-6.78,16.63l23,9.37a52.7,52.7,0,0,0,4.88-17.4Z"/><path class="cls-32" d="M333.07,147.3a11.66,11.66,0,0,0-.57,2.08,7.21,7.21,0,0,0,3,6.61,5.49,5.49,0,0,0,1.93,1,3.15,3.15,0,0,0,2.12-.19,1.26,1.26,0,0,0,.78-1,1.3,1.3,0,0,0-.25-.71,6.78,6.78,0,0,0-2.2-1.95c1.29.34,2.74.67,3.89,0a1.56,1.56,0,0,0,.81-1,1.48,1.48,0,0,0-.41-1.22,4.37,4.37,0,0,0-1.06-.79l-.94-.57a4.71,4.71,0,0,0,1.75.14,1.91,1.91,0,0,0,1.45-.9,2.4,2.4,0,0,0-.47-2.52,5.85,5.85,0,0,0-1.48-1.37c-.5-.31-1.05-.55-1.53-.89a1.86,1.86,0,0,1-.65-2.49,5.76,5.76,0,0,1,.95-1.14,7,7,0,0,0-4.74,2C334,143.68,333.68,145.49,333.07,147.3Z"/><path class="cls-45" d="M401.64,84.13S397.8,93.46,410,94.58s11.89-1.85,20.36,1.72c0,0,.52-11.94-7.35-11.17S402.76,78,401.64,84.13Z"/></g></g></g></svg>