<svg xmlns="http://www.w3.org/2000/svg" viewBox="0 0 615.14 365.47"><defs><style>.cls-1{isolation:isolate;}.cls-2,.cls-5{fill:#e6f6ff;}.cls-2{opacity:0.09;}.cls-3{opacity:0.72;}.cls-4{fill:#a6caff;}.cls-6{fill:#171c44;mix-blend-mode:overlay;opacity:0.4;}.cls-7{fill:#233351;}.cls-8{fill:#fff;}.cls-9{fill:#e23507;}.cls-10{fill:#d62300;}.cls-11{fill:#e6f9ff;}.cls-12{fill:#ffc940;}.cls-13{fill:#60c6fc;}.cls-14{fill:#22365b;}.cls-15{fill:#9c2622;}.cls-16{fill:#265173;}.cls-17{fill:#54688c;}.cls-18{fill:#db7d00;}.cls-19{fill:#ffb157;}.cls-20{fill:#f0786a;}.cls-21{fill:#008eb0;}.cls-22{fill:#f79885;}.cls-23{fill:#51192b;}.cls-24{fill:#ab4b38;}.cls-25{fill:#b0e7ff;}.cls-26{fill:#00685d;}.cls-27{fill:#ed9d22;}.cls-28{fill:#107a6d;}</style></defs><g class="cls-1"><g id="Layer_2" data-name="Layer 2"><g id="Layer_1-2" data-name="Layer 1"><path class="cls-2" d="M30,348C69,375,269.44,359.89,367.51,363.11c74.05,2.42,127,5.45,166.6-5,54.87-14.47,81.17-68.21,81-99.15C614.63,144.13,530.6,70.53,368.27,29.14-37.53-74.34-29.58,306.94,30,348Z"/><g class="cls-3"><path class="cls-4" d="M144.28,255.55c74.09,5.38,148.82,4.34,223.32,3.3L572.89,256c10.9-.15,18.41-.61,26.55,6.64,9.66,8.6-6.34,29.19-21.55,42.23-12,10.32-17.45,19.94-30.12,29.88-3.78,3-7.67,6-12.71,7.86-5.37,2-11.62,2.5-17.71,2.81-18.78,1-78.82.35-102,.81-272,5.41-352-2.42-374-9.68C31.7,333.33,27.9,321.91,31,316.71,41.57,299,92.55,270.26,92.55,270.26,119.14,248.78,144.28,255.55,144.28,255.55Z"/><path class="cls-5" d="M259.76,332.91c-103.91,0-166.76-2.5-187.43-7.46-6.87-1.65-10.62-6.11-11.84-9.74a8,8,0,0,1,1.09-7.82c9.44-11.52,51.45-29,55.14-30.55,23-13.47,44.63-10.18,47.21-9.72,65.12,3.43,131.69,2.75,196.08,2.1l181.86-1.86c9-.1,16.18-.18,23.79,4.76a8,8,0,0,1,4,7c-.09,10.35-19.15,22.76-23,25.15a111.43,111.43,0,0,0-11.85,8.72A103.75,103.75,0,0,1,520.05,324a48.51,48.51,0,0,1-11.89,5.32c-5.18,1.4-11.11,1.72-16.26,1.91-9.85.36-32,.37-53.43.38-14.44,0-28.08,0-36.36.14Q321.4,332.91,259.76,332.91ZM155,273a70.17,70.17,0,0,0-35.36,9.63l-.39.2c-12.27,5-45.72,20.05-52.95,28.87a2.3,2.3,0,0,0,0,2c.67,2,3,4.7,7.51,5.77,19.49,4.68,92.26,9.54,328.27,6.12,8.32-.12,22-.12,36.45-.13,21.37,0,43.47,0,53.21-.38,4.82-.18,10.34-.48,14.9-1.71A43.25,43.25,0,0,0,517,318.72a97.29,97.29,0,0,0,14-9.92,117.76,117.76,0,0,1,12.45-9.16c11.43-7.13,20.08-15.75,20.11-20.05,0-.57-.13-1.19-1.19-1.88-6.08-3.94-11.78-3.88-20.42-3.78h-1.26l-180.61,1.84c-64.54.66-131.28,1.34-196.65-2.11l-.43-.06A48.25,48.25,0,0,0,155,273Z"/><path class="cls-6" d="M393.19,307.89H555.34c7.29,0,8.37-2.66,8.37-5.9v-5.41c0-3.24-3.77-5.89-8.37-5.89H393.19c-4.61,0-8.37,2.65-8.37,5.89V302C384.82,305.23,388.58,307.89,393.19,307.89Z"/><path class="cls-7" d="M539.88,0H488.94a15.82,15.82,0,0,0-15.82,15.82V287.87a15.82,15.82,0,0,0,15.82,15.82h50.94a15.82,15.82,0,0,0,15.82-15.82v-272A15.82,15.82,0,0,0,539.88,0Zm.5,281.54a9.33,9.33,0,0,1-9.32,9.31H486.12a9.33,9.33,0,0,1-9.32-9.31V15.82a9.33,9.33,0,0,1,9.32-9.31h44.94a9.33,9.33,0,0,1,9.32,9.31Z"/><path class="cls-8" d="M540.38,15.82V281.54a9.33,9.33,0,0,1-9.32,9.31H486.12a9.33,9.33,0,0,1-9.32-9.31V15.82a9.33,9.33,0,0,1,9.32-9.31h44.94A9.33,9.33,0,0,1,540.38,15.82Z"/><path class="cls-4" d="M508.59,280.42H492.32a9.84,9.84,0,0,1-9.83-9.83V57.34a9.83,9.83,0,0,1,9.83-9.81h18.47v1H492.32a8.81,8.81,0,0,0-8.81,8.79V270.59a8.82,8.82,0,0,0,8.81,8.81h16.27Z"/><rect class="cls-4" x="483" y="18.01" width="50.6" height="22.25" rx="3.53"/><path class="cls-9" d="M444.43,19.93v8.62a7.38,7.38,0,0,0,14.75,0V19.93Z"/><path class="cls-8" d="M459.18,19.93v8.62a7.37,7.37,0,1,0,14.74,0V19.93Z"/><path class="cls-9" d="M473.92,19.93v8.62a7.38,7.38,0,0,0,14.75,0V19.93Z"/><path class="cls-8" d="M488.67,19.93v8.62a7.37,7.37,0,1,0,14.74,0V19.93Z"/><path class="cls-9" d="M503.41,19.93v8.62a7.38,7.38,0,0,0,14.75,0V19.93Z"/><polygon class="cls-10" points="493.42 6.51 484.49 6.51 444.43 19.93 459.18 19.93 493.42 6.51"/><polygon class="cls-11" points="508.16 6.51 493.42 6.51 459.18 19.93 473.92 19.93 508.16 6.51"/><polygon class="cls-10" points="522.91 6.51 508.16 6.51 473.92 19.93 488.67 19.93 522.91 6.51"/><path class="cls-11" d="M535.2,7.49,503.41,19.93H488.67L522.91,6.51h8.15A9.18,9.18,0,0,1,535.2,7.49Z"/><path class="cls-10" d="M538.75,10.58l-20.59,9.35H503.41L535.2,7.49A9.3,9.3,0,0,1,538.75,10.58Z"/><path class="cls-4" d="M524.29,280.42h-15.7v-1h15.7a8.82,8.82,0,0,0,8.81-8.81V57.34a8.81,8.81,0,0,0-8.81-8.79h-13.5v-1h13.5a9.82,9.82,0,0,1,9.82,9.81V270.59A9.83,9.83,0,0,1,524.29,280.42Z"/><rect class="cls-12" x="205.16" y="40.97" width="69.12" height="17.95" rx="3.05"/><polygon class="cls-8" points="213.34 44.28 215.08 47.81 218.98 48.38 216.16 51.13 216.82 55.01 213.34 53.18 209.86 55.01 210.52 51.13 207.7 48.38 211.6 47.81 213.34 44.28"/><polygon class="cls-8" points="226.53 44.28 228.27 47.81 232.17 48.38 229.35 51.13 230.01 55.01 226.53 53.18 223.05 55.01 223.71 51.13 220.89 48.38 224.79 47.81 226.53 44.28"/><polygon class="cls-8" points="239.72 44.28 241.46 47.81 245.36 48.38 242.54 51.13 243.21 55.01 239.72 53.18 236.24 55.01 236.9 51.13 234.09 48.38 237.98 47.81 239.72 44.28"/><polygon class="cls-8" points="252.91 44.28 254.66 47.81 258.55 48.38 255.73 51.13 256.4 55.01 252.91 53.18 249.43 55.01 250.09 51.13 247.28 48.38 251.17 47.81 252.91 44.28"/><polygon class="cls-8" points="266.1 44.28 267.85 47.81 271.74 48.38 268.92 51.13 269.59 55.01 266.1 53.18 262.62 55.01 263.29 51.13 260.47 48.38 264.36 47.81 266.1 44.28"/><path class="cls-13" d="M222.31,122.13h6.62a1.62,1.62,0,0,0,1.58-1.29l1.26-6a1.62,1.62,0,0,0-1.58-2h-3.53a11.3,11.3,0,0,0,1.63-5.14,1,1,0,0,0-.78-1.06l-.34-.09a1,1,0,0,0-1.25.76,9.22,9.22,0,0,1-3.61,5.43Z"/><rect class="cls-13" x="218.06" y="112.75" width="2.9" height="9.38"/><path class="cls-13" d="M233.43,126.19H215.74a2.42,2.42,0,0,1-2.42-2.42v-17.7a2.41,2.41,0,0,1,2.42-2.41h17.69a2.41,2.41,0,0,1,2.42,2.41v17.7A2.42,2.42,0,0,1,233.43,126.19Zm-17.69-22a1.83,1.83,0,0,0-1.84,1.83v17.7a1.84,1.84,0,0,0,1.84,1.84h17.69a1.84,1.84,0,0,0,1.84-1.84v-17.7a1.83,1.83,0,0,0-1.84-1.83Z"/><path class="cls-4" d="M240.12,152.27l1.35.73c-1.88,3.49-3.67,7.1-5.32,10.72l-1.4-.64C236.42,159.43,238.22,155.79,240.12,152.27ZM253,131.88l1.24.91c-2.34,3.17-4.61,6.49-6.75,9.88l-1.3-.82C248.38,138.43,250.67,135.08,253,131.88Zm15.75-18.28,1.08,1.09c-2.8,2.78-5.54,5.73-8.14,8.75l-1.17-1C263.18,119.39,266,116.41,268.78,113.6Zm8.9-8.16c3.09-2.61,6.3-5.1,9.55-7.39l.89,1.25c-3.21,2.27-6.39,4.73-9.45,7.32ZM297.39,91.5c3.49-2,7.1-3.92,10.71-5.59l.65,1.39c-3.57,1.65-7.13,3.52-10.59,5.53ZM319.3,81.36A119.6,119.6,0,0,1,330.9,78l.36,1.49a115.76,115.76,0,0,0-11.45,3.36Zm23.51-5.56A106.83,106.83,0,0,1,354.88,75v1.53a103.86,103.86,0,0,0-11.89.81Zm111.12,98.46,1.53.06a92.2,92.2,0,0,1-1.26,12.05l-1.52-.26A89.18,89.18,0,0,0,453.93,174.26ZM367,75.58a97.34,97.34,0,0,1,11.92,2.06l-.35,1.49a96.29,96.29,0,0,0-11.74-2Zm84.7,75,1.49-.35a86.84,86.84,0,0,1,2,12l-1.52.15A87.27,87.27,0,0,0,451.66,150.61Zm-61.2-69.45a97.61,97.61,0,0,1,11.06,4.94l-.71,1.36a96.21,96.21,0,0,0-10.88-4.86ZM443,128.5l1.34-.75a87.39,87.39,0,0,1,5.18,10.95l-1.42.56A88,88,0,0,0,443,128.5ZM411.87,92.38a101.6,101.6,0,0,1,9.52,7.46l-1,1.15A102.1,102.1,0,0,0,411,93.64Zm17.49,17.4-.43-.47,1.13-1,.43.47a104.74,104.74,0,0,1,7.29,8.84l-1.23.91A103.69,103.69,0,0,0,429.36,109.78Z"/><rect class="cls-4" x="443.72" y="169.49" width="35.47" height="35.47" rx="5.5" transform="translate(857.82 488.7) rotate(-164.83)"/><path class="cls-14" d="M474.61,192.77v-.86a2.44,2.44,0,0,0-1.74-2.38c-7.2-2.05-9.09-7.46-9.09-7.46-2.36,5.09-9.44-.89-9.44-.89a45.5,45.5,0,0,0-1.57,6.4l-.52-.07-.47,3.12,5.24.78.21-1.44,2.14.92a25.69,25.69,0,0,0,6.43,1.83L475,194.1l.18-1.24Z"/><path class="cls-15" d="M447.34,186a44.77,44.77,0,0,1,2.62-6.26s6.05,7,9.17,2.38c0,0,1,5.64,7.81,8.79a2.44,2.44,0,0,1,1.34,2.63L468,195l-10.38-3.51-6-3.72Z"/><path class="cls-16" d="M468.31,195.79,459.45,193a25.71,25.71,0,0,1-6.06-2.82l-2-1.25L451,190.3l-5.05-1.6.95-3,2.48.78a12.36,12.36,0,0,1,3.19,1.54l1.09.73a26.07,26.07,0,0,0,6.6,3.17l8.44,2.67Z"/><rect class="cls-4" x="377.82" y="68.37" width="29.03" height="29.03" rx="4.5" transform="translate(793.04 67.51) rotate(165.87)"/><rect class="cls-14" x="388.88" y="72.83" width="7.26" height="20.51" transform="translate(-8.48 96.23) rotate(-13.83)"/><path class="cls-14" d="M386.48,84.56A6.21,6.21,0,1,0,391,77.05,6.21,6.21,0,0,0,386.48,84.56Z"/><path class="cls-11" d="M387.12,84.41a5.55,5.55,0,1,0,4.06-6.72A5.55,5.55,0,0,0,387.12,84.41Z"/><path class="cls-14" d="M389.35,86a.17.17,0,0,1-.16-.06.16.16,0,0,1,0-.23L392.34,83l-.4-3.59a.17.17,0,1,1,.33,0l.41,3.76L389.42,86Z"/><path class="cls-14" d="M392.11,83.18a.4.4,0,0,0,.5.3.41.41,0,1,0-.2-.8A.41.41,0,0,0,392.11,83.18Z"/><rect class="cls-4" x="269.2" y="88.42" width="32.49" height="32.49" rx="5.37" transform="translate(151.99 -168.51) rotate(43.83)"/><path class="cls-4" d="M283.75,125.66a4.93,4.93,0,0,1-1.13-.8l-17.23-16.54a4.59,4.59,0,0,1-.13-6.48L281.8,84.61a4.56,4.56,0,0,1,6.47-.13L305.51,101a4.58,4.58,0,0,1,.13,6.48L289.1,124.73a4.59,4.59,0,0,1-3.21,1.41A4.7,4.7,0,0,1,283.75,125.66Zm3.16-41.47a4,4,0,0,0-4.71.81l-16.54,17.23a4,4,0,0,0,.12,5.69L283,124.46a4,4,0,0,0,5.68-.12l16.55-17.23a4,4,0,0,0-.12-5.69L287.89,84.88A4.05,4.05,0,0,0,286.91,84.19Z"/><polygon class="cls-14" points="280.98 111.51 284.58 107.76 282.14 105.42 278.54 109.17 275.52 106.28 275.02 106.8 278.04 109.69 280.48 112.03 283.49 114.92 283.99 114.4 280.98 111.51"/><rect class="cls-16" x="274.69" y="94.96" width="23.96" height="16.35" rx="1.65" transform="translate(151.27 -169.79) rotate(43.83)"/><rect class="cls-11" x="279.35" y="92" width="14.66" height="22.27" rx="0.4" transform="translate(559.59 -32.27) rotate(133.83)"/><path class="cls-17" d="M482.33,260.68l-89.24-5.37a1,1,0,0,1-1-.9L385,196.65a1,1,0,0,1,1-1.15l108.36-6a1,1,0,0,1,.82.34,1,1,0,0,1,.24.86l-11.92,69.15a1,1,0,0,1-1,.85Zm-95.21-63.19,6.94,55.82,87.48,5.26,11.55-67Zm6,56.8h0Z"/><path class="cls-17" d="M388,214h0l102.84-2.3a1,1,0,0,0,1-1,1,1,0,0,0-1.05-1L388,211.9a1,1,0,0,0,0,2.06Z"/><path class="cls-17" d="M487.74,229.7a1,1,0,0,0,0-2.06l-97.87-.75a1,1,0,0,0-1,1,1,1,0,0,0,1,1l97.87.76Z"/><path class="cls-17" d="M484.93,246a1,1,0,0,0,0-2l-93.36-3.28a1,1,0,1,0-.07,2L484.9,246Z"/><path class="cls-17" d="M467.75,259.8a1,1,0,0,0,1-.9l8.28-67.25a1,1,0,1,0-2-.26l-8.28,67.26a1,1,0,0,0,.9,1.14Z"/><path class="cls-17" d="M453.82,259a1,1,0,0,0,1-.95l5-65.46a1,1,0,1,0-2-.15l-5,65.46a1,1,0,0,0,.95,1.1Z"/><path class="cls-17" d="M440.54,258.16a1,1,0,0,0,1-1l2-63.76a1,1,0,1,0-2.05-.06l-2,63.75a1,1,0,0,0,1,1.06Z"/><path class="cls-17" d="M427.87,257.4h0a1,1,0,0,0,1-1l-.63-62.15a1,1,0,0,0-1-1h0a1,1,0,0,0-1,1l.63,62.15A1,1,0,0,0,427.87,257.4Z"/><path class="cls-17" d="M415.78,256.68h.05a1,1,0,0,0,1-1.07l-3-60.62a1,1,0,0,0-1.08-1,1,1,0,0,0-1,1.08l3,60.61A1,1,0,0,0,415.78,256.68Z"/><path class="cls-17" d="M404.21,256h.09a1,1,0,0,0,.94-1.12L400,195.71a1,1,0,0,0-1.12-.93,1,1,0,0,0-.93,1.11L403.19,255A1,1,0,0,0,404.21,256Z"/><path class="cls-17" d="M460.76,288.42l-5.2,0h-64a1.23,1.23,0,1,1,0-2.45H470c7.79-.18,14.27-1,15.41-4.39,1.37-4-7.54-15.4-13.47-21.65a1.2,1.2,0,0,1-.22-1.36,1.22,1.22,0,0,1,1.19-.7l9.56.65a1.21,1.21,0,0,1,.94.55c1.1,1.69,10.69,16.69,9,23.22-1.65,6.36-10.93,6.25-20.73,6.14h-1.46c-1.4,0-2.85,0-4.34,0Zm15-27.92c4.45,5,13.81,16.4,11.94,21.87a6.08,6.08,0,0,1-2,2.76c2.27-.63,3.83-1.7,4.29-3.47,1.16-4.48-5.35-16-8.35-20.76Z"/><path class="cls-17" d="M482.39,260.81a1.15,1.15,0,0,0,.07-2.3l-89.24-5.37a1.15,1.15,0,1,0-.14,2.3l89.24,5.36Z"/><path class="cls-17" d="M413.28,297.28a6.6,6.6,0,1,1-6.6-6.59A6.6,6.6,0,0,1,413.28,297.28Z"/><path class="cls-4" d="M410.67,297.28a4,4,0,1,1-4-4A4,4,0,0,1,410.67,297.28Z"/><path class="cls-17" d="M405.45,287.32V297a1.28,1.28,0,0,0,1.31,1.24h0a1.28,1.28,0,0,0,1.22-.81l3.9-10.05S405.45,287.1,405.45,287.32Z"/><path class="cls-17" d="M478.48,297.28a6.59,6.59,0,1,1-6.59-6.59A6.59,6.59,0,0,1,478.48,297.28Z"/><path class="cls-4" d="M475.88,297.28a4,4,0,1,1-4-4A4,4,0,0,1,475.88,297.28Z"/><path class="cls-17" d="M470.66,287.32V297a1.28,1.28,0,0,0,1.31,1.24h0a1.3,1.3,0,0,0,1.22-.81l3.9-10.05S470.66,287.1,470.66,287.32Z"/><path class="cls-17" d="M386,197.68H386l108.36-6a1.14,1.14,0,0,0,1.08-1.21,1.19,1.19,0,0,0-1.21-1.09l-108.36,6a1.16,1.16,0,0,0,.07,2.31Z"/><path class="cls-17" d="M494.26,190.5s7.07-15.88,31-29.25a1.35,1.35,0,0,0,.5-1.9h0a1.36,1.36,0,0,0-1.63-.54c-5.14,2-28.08,11.9-37.21,32.19Z"/><path class="cls-4" d="M580.16,105.47a15.92,15.92,0,0,1-7.23-13.7h0a16,16,0,1,1,7.23,13.7Zm-4.9-13.65a13.6,13.6,0,1,0,13.9-13.29,13.62,13.62,0,0,0-13.9,13.29Z"/><polygon class="cls-4" points="588.02 101.39 579.67 89.05 581.6 87.74 588 97.19 596.35 84.49 598.3 85.77 588.02 101.39"/><path class="cls-6" d="M307.43,305.27c-.05,9-27.44,4.93-59.26,4.18-16.66-.4-34.3-2.1-50.38,4.28-45.72,18.13-81.31,10.17-92.49-5.84-4.79-6.86-16.38-2.69-16.82-10-.92-15.18,46.44-8.31,107.82-8.31S307.49,296.59,307.43,305.27Z"/><path class="cls-18" d="M154.18,205.54c-3.77,73.3,22,100,22,100h71.23s15.68-72.27-4-86.69a48.27,48.27,0,0,0-14-6.55C207.06,205.35,172.66,205.12,154.18,205.54Z"/><path class="cls-19" d="M107.68,185.25q.43,10.69,1.45,20.29c18.41-.42,52.85-.19,76.26,6.78-5.25-27.59-14.6-71.37-24.21-91.13C146.59,91.18,104.09,96.56,107.68,185.25Z"/><path class="cls-18" d="M166.28,126s-8.72-13.83-25.26-8.81-21.58,31.23-12.17,80.63c0,0,.89,7-19.72,7.73l46.93,22.06L189,225.36Z"/><path class="cls-20" d="M194.55,183.33s14.45,10.28,31.9,14.92c0,0,7.43-11.64,9.19,0,0,0,2.55,1.15-9.47,3.94-16.81,3.91-35.55.7-42.44-10.05-2.94-4.58-3.19-11.43-5.06-18.22l13.18-7.11S192.74,178.26,194.55,183.33Z"/><path class="cls-16" d="M184.29,137c6.55,8.4,7.56,29.78,7.56,29.78l-13.18,7.11C174.12,157.36,180.06,140.31,184.29,137Z"/><path class="cls-21" d="M184.29,137s-21.06-15.68-49.73-2.24c0,0-8.07,42.41,12.54,82.73s53.32-8.06,53.32-8.06S182.5,197.07,184.29,137Z"/><path class="cls-16" d="M152.07,197.22c-10.6-4.45-17.22-18.85-18.27-31.61l10.41-23.35S152,155,158.3,180.56c0,0,16.71,10.55,33.58,15.67.59,1.44,1.18,2.73,1.77,3.89-9.14,0-22.15-.75-22.15-.75Z"/><path class="cls-22" d="M156.4,183.33a159.78,159.78,0,0,0,40.43,14.92s9.41-11.64,11.65,0c0,0,3.23,1.15-12,3.94-21.3,3.91-42.25.2-51-10.55-3.72-4.59-6.84-10.93-9.21-17.72l14.6-7.11A105,105,0,0,0,156.4,183.33Z"/><path class="cls-21" d="M134.56,134.79c9.35-3.2,11.67,14.31,16.31,32l-14.6,7.11C130.5,157.36,129.2,138.07,134.56,134.79Z"/><path class="cls-21" d="M256.65,292.57s5.82,9.85,17.25,13H252.39v-11.2Z"/><path class="cls-21" d="M278.05,292.57s5.83,9.85,17.25,13H273.8v-11.2Z"/><path class="cls-23" d="M141.47,204.46s72.34-10.35,101.88,8.22c16.61,10.44,36.72,81.23,36.72,81.23l-6.27,2.69s-30.22-20.81-40.21-60.15C233.59,236.45,147.49,243.9,141.47,204.46Z"/><path class="cls-24" d="M141.47,204.46s67.34-3.79,87.5,12.34c8.85,7.08,29.69,77.11,29.69,77.11l-6.27,2.69s-30.22-20.81-40.21-60.15C212.18,236.45,147.49,243.9,141.47,204.46Z"/><rect class="cls-16" x="178.45" y="204.91" width="47.9" height="1.52" transform="translate(386.94 427.51) rotate(-175.22)"/><polygon class="cls-21" points="221.09 166.27 267.62 170.09 268.23 171.1 245.16 209.1 198.63 205.29 197.89 204.41 221.09 166.27"/><rect class="cls-21" x="197.77" y="206.48" width="46.71" height="1.52" transform="translate(424.2 432.2) rotate(-175.22)"/><path class="cls-25" d="M239.2,188.64c-1.09,2.22-3.54,3.77-5.47,3.46s-2.62-2.37-1.53-4.59,3.55-3.78,5.48-3.47S240.29,186.41,239.2,188.64Z"/><path class="cls-22" d="M155.49,128.35s5-19.24,13.82-30.4c1.78-2.53,13.14,3.42,13.53,6s-6,18.63-10,20.86c0,0-1.07,0-3.88-1.37,0,0-.71,1.78-1.22,3.54a3.45,3.45,0,0,0,3,4.06s-1.5,8-6.86,11.45c-9.55-7.33-11.83-12.79-11.83-12.79Z"/><path class="cls-20" d="M168.05,126c.45-1.38.92-2.56.92-2.56s-3.71-1.81-5.39-4.3A12.92,12.92,0,0,0,168.05,126Z"/><path class="cls-15" d="M161,112.69a26.79,26.79,0,0,0,5.83-3.76c-2.17-3.6,2-6.1,2.7-2.35a17.35,17.35,0,0,0,2.66-3,21.67,21.67,0,0,0,6.71,3.57c3.16.76,7.61.62,7.93-3.54s-7.14-5.25-10-5.82c0,0-3.33-5.53-6.68-4.5S160.74,107.48,161,112.69Z"/><rect class="cls-26" x="171.22" y="104.61" width="0.57" height="5.72" transform="translate(-18.11 178.24) rotate(-52.54)"/><path class="cls-26" d="M172.93,114.84a2.44,2.44,0,0,1-1.12-1.93,4.23,4.23,0,0,1,.64-2.53,4.15,4.15,0,0,1,2-1.72,2.33,2.33,0,0,1,3.34,2,4.17,4.17,0,0,1-.63,2.52h0a4.2,4.2,0,0,1-2,1.72,2.76,2.76,0,0,1-1.06.22A2.18,2.18,0,0,1,172.93,114.84Zm3.7-1.9a3.56,3.56,0,0,0,.56-2.18,1.88,1.88,0,0,0-.85-1.51,1.91,1.91,0,0,0-1.72-.06,3.8,3.8,0,0,0-2.24,3.66,1.89,1.89,0,0,0,.84,1.51,1.93,1.93,0,0,0,1.73.07,3.64,3.64,0,0,0,1.68-1.49Z"/><path class="cls-26" d="M178.47,116.94a1.84,1.84,0,0,1-.74-1.74,5.16,5.16,0,0,1,.79-2.4c1-1.7,2.65-2.55,3.66-1.93a1.85,1.85,0,0,1,.75,1.75,5.16,5.16,0,0,1-.79,2.39h0a3.93,3.93,0,0,1-2.92,2.13A1.41,1.41,0,0,1,178.47,116.94Zm3.18-2.22a4.52,4.52,0,0,0,.71-2.12,1.32,1.32,0,0,0-.47-1.25c-.72-.44-2,.36-2.89,1.75a4.47,4.47,0,0,0-.7,2.12,1.29,1.29,0,0,0,.47,1.24c.71.44,2-.36,2.88-1.74Z"/><path class="cls-26" d="M179.5,112l.42-.38a2.14,2.14,0,0,0-2.57-.77l.26.5S178.52,110.9,179.5,112Z"/><path class="cls-19" d="M109.13,205.54c7.59,73.3,37.52,100,37.52,100h71.24s4.48-72.27-17.47-86.69a57.74,57.74,0,0,0-15-6.55C162,205.35,127.54,205.12,109.13,205.54Z"/><path class="cls-27" d="M112.79,230.2c.7,2.61,20.9,76,96.81,75.36H146.65S123.55,284.92,112.79,230.2Z"/><path class="cls-28" d="M99.28,237.49C107.8,234,119,227.58,124,219.82c2.23-3.47,4-7.39,4-11.51s-2.15-8.44-5.94-10.05-9,.47-9.83,4.5c-.77-3.74.64-7.59,2.42-11s4-6.59,5-10.27.64-8.09-2.2-10.65-8.34-1.84-9.44,1.82c-2.44,0-3.42-3.37-2.62-5.68s2.59-4.23,3-6.64c.73-4.17-3.45-8.11-7.69-8.07s-8,3.18-9.85,7-2.16,8.18-2.13,12.42c0,4.45-.15,9.89-4.09,11.95-3,1.54-6.91.33-9.69,2.2-3,2-2.94,6.56-1.26,9.72s4.54,5.52,6.63,8.43,3.32,7,1.37,10c-.93,1.43-2.52,2.54-2.75,4.23-.25,1.85,1.25,3.42,2.63,4.67l16.07,14.57Z"/><path class="cls-17" d="M117.84,265.16a88.46,88.46,0,0,1-9.72,32.7H94.55a88,88,0,0,1-9.72-32.7,78.28,78.28,0,0,1,0-15.05c1.07-11,4.07-17.65,4.07-17.65h24.79s3,6.7,4.07,17.65A80.78,80.78,0,0,1,117.84,265.16Z"/><path class="cls-25" d="M117.84,265.16h-33a78.28,78.28,0,0,1,0-15.05H117.8A80.78,80.78,0,0,1,117.84,265.16Z"/><path class="cls-7" d="M118.94,296.53c-2.82-5-11.34-27.87,35.64-20.4a5.78,5.78,0,0,0,3.43-.74,6.29,6.29,0,0,0,2.17-2.09c3.22-4.61,4.62-10.3,9.73-13.37,1.58-.28,3.21,3.16,3.12,5.61a11.65,11.65,0,0,1,6.9,3.1,1.22,1.22,0,0,0,.8-.2c1.63-.81,4.4-1.94,5.29-1.17,1.08,6.83-2.53,14.23-8.07,19.67a3,3,0,0,0-.75,1.12c-4.73,12,5.93,13.77,5.93,13.77l-10,3.93-15.84-1.21L142,306.15C121.19,306,118.94,296.53,118.94,296.53Z"/><path class="cls-7" d="M177.65,299.57a4.75,4.75,0,0,0,1.94.81c1.24.23,2.67,0,3.64.77a3.3,3.3,0,0,1,1,1.65,2.7,2.7,0,0,1-.15,2.34,2.22,2.22,0,0,1-1.52.85,5.21,5.21,0,0,1-1.76-.1,18.53,18.53,0,0,1-3-.86c-.8-.31-1.66-.77-1.86-1.6Z"/><path class="cls-7" d="M175,301.86a4.75,4.75,0,0,0,1.52,1.47c1.09.68,2.54,1,3.16,2.09a3,3,0,0,1,.27,1.88,2.7,2.7,0,0,1-1.11,2.09,2.49,2.49,0,0,1-1.8.2,5.4,5.4,0,0,1-1.63-.76,17.31,17.31,0,0,1-2.55-1.94,2.58,2.58,0,0,1-1.12-2.17Z"/><path class="cls-8" d="M173.34,277.3c-.08.27.37.65,1,.84s1.22.14,1.3-.13-.36-.65-1-.85S173.43,277,173.34,277.3Z"/><path class="cls-7" d="M135.79,301.41a4.66,4.66,0,0,0,1.39,1.57c1,.74,2.4,1.17,2.94,2.28a3.2,3.2,0,0,1,.18,1.91,2.71,2.71,0,0,1-1.16,2.05,2.28,2.28,0,0,1-1.74.1,5.29,5.29,0,0,1-1.54-.85,18.16,18.16,0,0,1-2.36-2.1,2.73,2.73,0,0,1-1-2.25Z"/><path class="cls-7" d="M132.44,302.33a4.83,4.83,0,0,0,.72,2c.7,1.08,1.85,2,1.94,3.25a3,3,0,0,1-.57,1.82,2.66,2.66,0,0,1-1.91,1.39,2.44,2.44,0,0,1-1.7-.59,5.51,5.51,0,0,1-1.15-1.4,17.72,17.72,0,0,1-1.44-2.85,2.55,2.55,0,0,1-.07-2.44Z"/><path class="cls-7" d="M117.92,286.5c-5.71,1.67-9.15,8.15-8.46,14.06s4.81,11,9.88,14.12,11,4.48,16.88,5.34a114.7,114.7,0,0,0,21.51,1.13c4.31-.18,8.94-.74,12.12-3.65a3.65,3.65,0,0,0,1.39-2.53,3,3,0,0,0-2.4-2.67,9.39,9.39,0,0,0-3.84.1,109,109,0,0,1-27.89.8,38.28,38.28,0,0,1-12.83-3.08c-4-1.92-7.51-5.16-8.92-9.35s-.31-9.34,3.23-12Z"/></g></g></g></g></svg>