<svg xmlns="http://www.w3.org/2000/svg" xmlns:xlink="http://www.w3.org/1999/xlink" viewBox="0 0 659.66 359.26"><defs><style>.cls-1{opacity:0.75;}.cls-2{fill:#cfe7f7;}.cls-3{fill:#a1d3f3;}.cls-4{fill:#91ccf2;}.cls-5{fill:#f8fafb;}.cls-6{fill:#b5dcf5;}.cls-7{fill:#badef5;}.cls-8{fill:#fcfcfc;}.cls-9{fill:#cbe6f7;}.cls-10,.cls-19{fill:#e4f1f9;}.cls-11{fill:#93cdf2;}.cls-12{fill:#edf5fa;}.cls-13{fill:#9cd1f3;}.cls-14{fill:#bfe1f6;}.cls-15{fill:#c2e1f6;}.cls-16{fill:#55b1eb;opacity:0.47;}.cls-17{fill:#8ccaf1;}.cls-18{fill:#77c0ef;}.cls-19{opacity:0.43;}.cls-20{fill:#4e5683;}.cls-21{fill:url(#linear-gradient);}.cls-22{fill:url(#linear-gradient-2);}.cls-23,.cls-29{fill:#fff;}.cls-24{fill:#319188;}.cls-25,.cls-28{fill:none;}.cls-25{stroke:#21295b;stroke-linecap:round;stroke-linejoin:round;stroke-width:0.5px;}.cls-26{fill:#4fae86;}.cls-27{fill:#6ce08b;}.cls-28{stroke:#4e5683;stroke-miterlimit:10;}.cls-29{opacity:0.3;}.cls-30{fill:#fec4ad;}.cls-31{fill:#0f2e40;}.cls-32{fill:#471a16;}.cls-33{fill:#133a50;}.cls-34{fill:#ff3a46;}.cls-35{fill:#c9cdd8;}</style><linearGradient id="linear-gradient" x1="304.31" y1="314.88" x2="304.31" y2="357.31" gradientUnits="userSpaceOnUse"><stop offset="0" stop-color="#eef4fb"/><stop offset="0.31" stop-color="#e3edf8"/><stop offset="1" stop-color="#cfe1f3"/></linearGradient><linearGradient id="linear-gradient-2" x1="289.97" y1="269.61" x2="289.97" y2="320.57" xlink:href="#linear-gradient"/></defs><g id="Layer_2" data-name="Layer 2"><g id="Layer_1-2" data-name="Layer 1"><g class="cls-1"><g class="cls-1"><rect class="cls-2" x="376.51" y="159.42" width="12.66" height="10.59" transform="translate(765.69 329.44) rotate(180)"/><rect class="cls-3" x="369.18" y="162.78" width="29.22" height="135.91"/><polygon class="cls-4" points="404.07 222.24 404.07 230.26 406.18 230.26 406.18 246.34 413.3 246.34 413.3 358.15 376.02 358.15 376.02 222.24 404.07 222.24"/><rect class="cls-5" x="321.35" y="128.19" width="12.23" height="1.47"/><rect class="cls-6" x="318.3" y="129.66" width="18.34" height="24.55"/><rect class="cls-7" x="355.35" y="84.04" width="2.45" height="121.49" transform="translate(713.16 289.56) rotate(180)"/><rect class="cls-7" x="360.81" y="84.04" width="2.45" height="121.49" transform="translate(724.07 289.56) rotate(180)"/><rect class="cls-8" x="330.52" y="119.42" width="39.09" height="135.36"/><rect class="cls-9" x="349.59" y="129.2" width="3.33" height="6.22"/><rect class="cls-9" x="349.59" y="139.62" width="3.33" height="6.22"/><rect class="cls-9" x="356.73" y="150.04" width="3.33" height="6.22"/><polygon class="cls-10" points="394.57 208.82 350.65 208.82 350.65 168.08 394.57 208.82"/><rect class="cls-8" x="301.66" y="155.11" width="52.85" height="203.05"/><rect class="cls-7" x="348.4" y="205.48" width="48.44" height="152.67"/><rect class="cls-3" x="344.17" y="222.24" width="29.22" height="135.91"/><rect class="cls-8" x="301.66" y="149.16" width="31.92" height="5.95"/><rect class="cls-9" x="349.99" y="257.56" width="25.12" height="5.59" transform="translate(725.09 520.71) rotate(180)"/><rect class="cls-9" x="349.99" y="267.77" width="25.12" height="5.59" transform="translate(725.09 541.13) rotate(180)"/><rect class="cls-9" x="349.99" y="277.98" width="25.12" height="5.59" transform="translate(725.09 561.55) rotate(180)"/><rect class="cls-9" x="349.99" y="288.19" width="25.12" height="5.59" transform="translate(725.09 581.96) rotate(180)"/><rect class="cls-9" x="349.99" y="298.4" width="25.12" height="5.59" transform="translate(725.09 602.38) rotate(180)"/><rect class="cls-9" x="349.99" y="308.6" width="25.12" height="5.59" transform="translate(725.09 622.8) rotate(180)"/><rect class="cls-9" x="349.99" y="318.81" width="25.12" height="5.59" transform="translate(725.09 643.21) rotate(180)"/><rect class="cls-9" x="349.99" y="329.02" width="25.12" height="5.59" transform="translate(725.09 663.63) rotate(180)"/><rect class="cls-9" x="349.99" y="339.23" width="25.12" height="5.59" transform="translate(725.09 684.05) rotate(180)"/></g><g class="cls-1"><rect class="cls-11" x="468.02" y="60.92" width="15.12" height="134.45"/><rect class="cls-7" x="456.35" y="66" width="55.08" height="166.13"/><rect class="cls-8" x="492.09" y="86.08" width="3.17" height="8.67"/><rect class="cls-3" x="497.42" y="86.91" width="3.17" height="8.67"/><rect class="cls-8" x="486.68" y="97.23" width="3.17" height="8.67"/><rect class="cls-8" x="497.42" y="97.23" width="3.17" height="8.67"/><rect class="cls-2" x="492.09" y="108.37" width="3.17" height="8.67"/><rect class="cls-3" x="486.68" y="120.34" width="3.17" height="8.67"/><rect class="cls-3" x="492.09" y="119.52" width="3.17" height="8.67"/><rect class="cls-8" x="497.42" y="119.52" width="3.17" height="8.67"/><rect class="cls-8" x="486.68" y="141.81" width="3.17" height="8.67"/><rect class="cls-8" x="497.42" y="141.81" width="3.17" height="8.67"/><rect class="cls-8" x="492.09" y="152.95" width="3.17" height="8.67"/><rect class="cls-3" x="497.42" y="152.95" width="3.17" height="8.67"/><rect class="cls-2" x="486.68" y="164.09" width="3.17" height="8.67"/><rect class="cls-2" x="492.09" y="175.24" width="3.17" height="8.67"/><rect class="cls-10" x="450.13" y="190.01" width="10" height="3.56" transform="translate(910.27 383.58) rotate(180)"/><rect class="cls-10" x="448.86" y="192.8" width="12.55" height="1.55" transform="translate(910.27 387.14) rotate(180)"/><rect class="cls-11" x="445.72" y="194.34" width="18.83" height="25.9" transform="translate(910.27 414.58) rotate(180)"/><polygon class="cls-3" points="519.69 358.15 519.69 158.97 465.5 125.36 445.4 125.36 445.4 119.43 444.62 119.43 444.62 172.04 440.5 172.04 440.5 136.67 418.35 136.67 418.35 172.04 414.64 172.04 414.64 226.56 410.48 226.56 410.48 358.15 519.69 358.15"/><polygon class="cls-7" points="476.75 132.34 476.75 358.15 519.69 358.15 519.69 158.97 476.75 132.34"/><rect class="cls-12" x="441.67" y="181.28" width="25.58" height="176.87"/><rect class="cls-13" x="460.73" y="198.65" width="2.1" height="112.64"/><rect class="cls-13" x="456.06" y="198.65" width="2.1" height="112.64"/><rect class="cls-13" x="451.39" y="198.65" width="2.1" height="112.64"/><rect class="cls-13" x="446.72" y="198.65" width="2.1" height="112.64"/><rect class="cls-7" x="477.17" y="177.63" width="14.78" height="20.96"/></g><rect class="cls-3" x="289.99" y="208.86" width="18.98" height="149.29"/><rect class="cls-2" x="244.08" y="204.99" width="33.15" height="20.23" transform="translate(521.31 430.21) rotate(180)"/><rect class="cls-4" x="248.28" y="174.31" width="10.27" height="20.23" transform="translate(506.83 368.85) rotate(180)"/><rect class="cls-4" x="254.82" y="185.77" width="13.4" height="15.4" transform="translate(523.03 386.94) rotate(180)"/><rect class="cls-4" x="242.21" y="138.57" width="0.93" height="54.1" transform="translate(485.36 331.25) rotate(180)"/><rect class="cls-3" x="267.47" y="185.4" width="35.1" height="172.75"/><g class="cls-1"><rect class="cls-4" x="310.06" y="30.98" width="18.13" height="24.91" transform="translate(638.25 86.86) rotate(180)"/><polygon class="cls-14" points="221.91 358.15 224.02 201.44 226.54 201.44 226.54 185.38 268.06 179.64 268.06 211.27 272.95 211.27 272.95 38.97 282.16 38.97 282.16 0 284.75 0 284.75 38.97 331.95 38.97 331.95 207.32 337.27 207.32 337.27 358.15 221.91 358.15"/><rect class="cls-9" x="316.49" y="113.17" width="3.28" height="8.96"/><rect class="cls-9" x="321.99" y="114.03" width="3.28" height="8.96"/><rect class="cls-9" x="310.89" y="124.69" width="3.28" height="8.96"/><rect class="cls-9" x="321.99" y="124.69" width="3.28" height="8.96"/><rect class="cls-9" x="316.49" y="136.21" width="3.28" height="8.96"/><rect class="cls-9" x="310.89" y="148.58" width="3.28" height="8.96"/><rect class="cls-9" x="310.89" y="292.76" width="3.28" height="8.96"/><rect class="cls-9" x="310.89" y="316.65" width="3.28" height="8.96"/><rect class="cls-9" x="316.49" y="147.73" width="3.28" height="8.96"/><rect class="cls-9" x="321.99" y="147.73" width="3.28" height="8.96"/><rect class="cls-9" x="310.89" y="170.76" width="3.28" height="8.96"/><rect class="cls-9" x="321.99" y="170.76" width="3.28" height="8.96"/><rect class="cls-9" x="316.49" y="182.28" width="3.28" height="8.96"/><rect class="cls-9" x="321.99" y="182.28" width="3.28" height="8.96"/><rect class="cls-9" x="321.99" y="231.3" width="3.28" height="8.96"/><rect class="cls-9" x="321.99" y="254.33" width="3.28" height="8.96"/><rect class="cls-9" x="321.99" y="265.85" width="3.28" height="8.96"/><rect class="cls-9" x="310.89" y="193.8" width="3.28" height="8.96"/><rect class="cls-9" x="316.49" y="205.31" width="3.28" height="8.96"/><rect class="cls-3" x="235.31" y="218.45" width="26.16" height="137.44"/><rect class="cls-9" x="284.95" y="176.14" width="5.13" height="11"/><rect class="cls-9" x="237.53" y="194.58" width="5.13" height="11"/><rect class="cls-12" x="228.7" y="235.35" width="17.98" height="6.56" transform="translate(475.38 477.26) rotate(180)"/><rect class="cls-12" x="228.7" y="247.33" width="17.98" height="6.56" transform="translate(475.38 501.23) rotate(180)"/><rect class="cls-12" x="228.7" y="259.32" width="17.98" height="6.56" transform="translate(475.38 525.2) rotate(180)"/><rect class="cls-12" x="228.7" y="271.3" width="17.98" height="6.56" transform="translate(475.38 549.16) rotate(180)"/><rect class="cls-12" x="228.7" y="283.28" width="17.98" height="6.56" transform="translate(475.38 573.13) rotate(180)"/><rect class="cls-12" x="228.7" y="295.27" width="17.98" height="6.56" transform="translate(475.38 597.09) rotate(180)"/><rect class="cls-12" x="228.7" y="307.25" width="17.98" height="6.56" transform="translate(475.38 621.06) rotate(180)"/><rect class="cls-12" x="228.7" y="319.23" width="17.98" height="6.56" transform="translate(475.38 645.03) rotate(180)"/><rect class="cls-12" x="228.7" y="331.22" width="17.98" height="6.56" transform="translate(475.38 668.99) rotate(180)"/><rect class="cls-3" x="285.92" y="57.04" width="45.39" height="298.85"/><rect class="cls-9" x="308.59" y="73.04" width="25.19" height="3.88" transform="translate(642.38 149.96) rotate(180)"/><rect class="cls-9" x="308.59" y="80.13" width="25.19" height="3.88" transform="translate(642.38 164.14) rotate(180)"/><rect class="cls-9" x="308.59" y="87.22" width="25.19" height="3.88" transform="translate(642.38 178.32) rotate(180)"/><rect class="cls-9" x="308.59" y="94.31" width="25.19" height="3.88" transform="translate(642.38 192.5) rotate(180)"/><rect class="cls-9" x="308.59" y="101.4" width="25.19" height="3.88" transform="translate(642.38 206.69) rotate(180)"/><rect class="cls-9" x="308.59" y="108.49" width="25.19" height="3.88" transform="translate(642.38 220.87) rotate(180)"/><rect class="cls-9" x="308.59" y="115.58" width="25.19" height="3.88" transform="translate(642.38 235.05) rotate(180)"/><rect class="cls-9" x="308.59" y="122.68" width="25.19" height="3.88" transform="translate(642.38 249.23) rotate(180)"/><rect class="cls-9" x="308.59" y="129.77" width="25.19" height="3.88" transform="translate(642.38 263.42) rotate(180)"/><rect class="cls-9" x="308.59" y="136.63" width="25.19" height="3.88" transform="translate(642.38 277.14) rotate(180)"/><rect class="cls-9" x="308.59" y="143.72" width="25.19" height="3.88" transform="translate(642.38 291.32) rotate(180)"/><rect class="cls-9" x="308.59" y="150.81" width="25.19" height="3.88" transform="translate(642.38 305.5) rotate(180)"/><rect class="cls-9" x="308.59" y="157.9" width="25.19" height="3.88" transform="translate(642.38 319.68) rotate(180)"/><rect class="cls-9" x="308.59" y="164.99" width="25.19" height="3.88" transform="translate(642.38 333.86) rotate(180)"/><rect class="cls-9" x="308.59" y="172.08" width="25.19" height="3.88" transform="translate(642.38 348.05) rotate(180)"/><rect class="cls-9" x="308.59" y="179.17" width="25.19" height="3.88" transform="translate(642.38 362.23) rotate(180)"/><rect class="cls-9" x="308.59" y="186.26" width="25.19" height="3.88" transform="translate(642.38 376.41) rotate(180)"/><rect class="cls-9" x="308.59" y="193.36" width="25.19" height="3.88" transform="translate(642.38 390.59) rotate(180)"/></g><g class="cls-1"><rect class="cls-10" x="597.44" y="203.75" width="6.34" height="3.56" transform="translate(1201.22 411.06) rotate(180)"/><rect class="cls-10" x="596.63" y="206.54" width="7.96" height="1.55" transform="translate(1201.22 414.63) rotate(180)"/><rect class="cls-10" x="594.64" y="208.09" width="11.93" height="4.03" transform="translate(1201.22 420.2) rotate(180)"/><polygon class="cls-10" points="599.87 168.59 601.35 168.59 600.82 149.99 600.4 149.99 599.87 168.59"/><path class="cls-10" d="M598.93,168.27v36.25h3.37V168.27Zm1.91,15.95h.44V203h-.44Zm-.9,0h.45V203h-.45Z"/><rect class="cls-3" x="585.33" y="186.01" width="24.19" height="161.88" transform="translate(1194.85 533.91) rotate(180)"/><rect class="cls-3" x="594.64" y="193.41" width="5.57" height="15.11" transform="translate(1194.86 401.94) rotate(180)"/><rect class="cls-3" x="596.55" y="216.43" width="24.19" height="141.49"/><rect class="cls-7" x="583.6" y="259.36" width="32.06" height="98.55"/><rect class="cls-3" x="606.98" y="216.43" width="3.34" height="44.87"/><rect class="cls-8" x="592.55" y="211.36" width="28.2" height="5.07" transform="translate(1213.29 427.79) rotate(180)"/><path class="cls-6" d="M575,212.5v-108h-6.4V99.35h-1.44v-.79h-.58V97.13h-1.08V86.42h-.69l-.38-9.35h-.3l-.38,9.35H563V97.13H562v1.43h-.58v.79h-1.45v5.14H542.14l-10.26,16.67V212.5ZM564.1,96.73h-.33V87.14h.33Zm.65,0h-.33V87.14h.33Z"/><rect class="cls-11" x="526.27" y="134.32" width="20.13" height="20.92"/><rect class="cls-11" x="512.1" y="168.51" width="37.79" height="124.55"/><polygon class="cls-8" points="520.41 173.15 512.1 168.5 549.89 168.5 520.41 173.15"/><path class="cls-3" d="M587.45,125v34.88h-20.1V146.42h-11v-5.6h-5.84v5.6H522.92c-.09.22-.18.43-.29.65v59.79H511.07V358.15h78.22V125Z"/><rect class="cls-8" x="507.61" y="217.36" width="20.53" height="3.35"/><rect class="cls-8" x="507.61" y="226.11" width="20.53" height="3.35"/><rect class="cls-8" x="507.61" y="234.07" width="20.53" height="3.35"/><rect class="cls-8" x="507.61" y="242.03" width="20.53" height="3.35"/><rect class="cls-8" x="507.61" y="249.99" width="20.53" height="3.35"/><rect class="cls-8" x="507.61" y="257.95" width="20.53" height="3.35"/><rect class="cls-8" x="507.61" y="265.91" width="20.53" height="3.35"/><rect class="cls-8" x="507.61" y="273.87" width="20.53" height="3.35"/><rect class="cls-8" x="507.61" y="281.83" width="20.53" height="3.35"/><rect class="cls-8" x="507.61" y="289.78" width="20.53" height="3.35"/><rect class="cls-8" x="507.61" y="297.74" width="20.53" height="3.35"/><rect class="cls-2" x="536.34" y="159.83" width="52.95" height="198.32"/><rect class="cls-8" x="564.6" y="203.6" width="4.06" height="7.11"/><rect class="cls-3" x="571.42" y="204.28" width="4.06" height="7.11"/><rect class="cls-8" x="557.66" y="212.74" width="4.06" height="7.11"/><rect class="cls-2" x="564.6" y="221.88" width="4.06" height="7.11"/><rect class="cls-8" x="564.6" y="168.43" width="4.06" height="7.11"/><rect class="cls-2" x="564.6" y="186.71" width="4.06" height="7.11"/><rect class="cls-3" x="564.6" y="231.02" width="4.06" height="7.11"/><rect class="cls-8" x="571.42" y="196.31" width="4.06" height="7.11"/><rect class="cls-8" x="557.66" y="295.96" width="4.06" height="7.11"/><rect class="cls-8" x="571.42" y="249.29" width="4.06" height="7.11"/><rect class="cls-8" x="564.6" y="258.43" width="4.06" height="7.11"/><rect class="cls-3" x="571.42" y="258.43" width="4.06" height="7.11"/><rect class="cls-2" x="557.66" y="267.57" width="4.06" height="7.11"/><rect class="cls-2" x="564.6" y="296.24" width="4.06" height="7.11"/><rect class="cls-8" x="571.42" y="276.71" width="4.06" height="7.11"/><rect class="cls-2" x="557.66" y="306.2" width="4.06" height="7.11"/><rect class="cls-8" x="571.42" y="315.34" width="4.06" height="7.11"/><rect class="cls-8" x="580.78" y="188.87" width="4.06" height="7.11"/><rect class="cls-2" x="580.78" y="207.15" width="4.06" height="7.11"/><rect class="cls-2" x="580.78" y="171.99" width="4.06" height="7.11"/><rect class="cls-3" x="580.78" y="216.29" width="4.06" height="7.11"/><rect class="cls-8" x="580.78" y="243.71" width="4.06" height="7.11"/><rect class="cls-2" x="580.78" y="281.52" width="4.06" height="7.11"/></g><rect class="cls-15" x="308.97" y="315.88" width="4.06" height="7.11" transform="translate(622 638.87) rotate(180)"/><rect class="cls-16" x="302.15" y="315.2" width="4.06" height="7.11" transform="translate(608.36 637.51) rotate(180)"/><rect class="cls-15" x="315.91" y="306.74" width="4.06" height="7.11" transform="translate(635.87 620.59) rotate(180)"/><rect class="cls-17" x="308.97" y="297.6" width="4.06" height="7.11" transform="translate(622 602.31) rotate(180)"/><rect class="cls-15" x="308.97" y="351.04" width="4.06" height="7.11" transform="translate(622 709.2) rotate(180)"/><rect class="cls-17" x="308.97" y="332.77" width="4.06" height="7.11" transform="translate(622 672.64) rotate(180)"/><rect class="cls-16" x="308.97" y="288.46" width="4.06" height="7.11" transform="translate(622 584.03) rotate(180)"/><rect class="cls-15" x="302.15" y="323.17" width="4.06" height="7.11" transform="translate(608.36 653.44) rotate(180)"/><rect class="cls-15" x="315.91" y="223.52" width="4.06" height="7.11" transform="translate(635.87 454.15) rotate(180)"/><rect class="cls-15" x="302.15" y="270.18" width="4.06" height="7.11" transform="translate(608.36 547.48) rotate(180)"/><rect class="cls-15" x="308.97" y="261.04" width="4.06" height="7.11" transform="translate(622 529.2) rotate(180)"/><rect class="cls-16" x="302.15" y="261.04" width="4.06" height="7.11" transform="translate(608.36 529.2) rotate(180)"/><rect class="cls-17" x="315.91" y="251.91" width="4.06" height="7.11" transform="translate(635.87 510.92) rotate(180)"/><rect class="cls-17" x="308.97" y="223.23" width="4.06" height="7.11" transform="translate(622 453.57) rotate(180)"/><rect class="cls-15" x="302.15" y="242.77" width="4.06" height="7.11" transform="translate(608.36 492.64) rotate(180)"/><rect class="cls-17" x="315.91" y="213.28" width="4.06" height="7.11" transform="translate(635.87 433.67) rotate(180)"/><rect class="cls-15" x="302.15" y="204.14" width="4.06" height="7.11" transform="translate(608.36 415.39) rotate(180)"/><rect class="cls-8" x="424.27" y="260.25" width="4.06" height="7.11"/><rect class="cls-3" x="431.09" y="260.93" width="4.06" height="7.11"/><rect class="cls-8" x="417.33" y="269.39" width="4.06" height="7.11"/><rect class="cls-2" x="424.27" y="278.53" width="4.06" height="7.11"/><rect class="cls-8" x="424.27" y="225.08" width="4.06" height="7.11"/><rect class="cls-2" x="424.27" y="243.36" width="4.06" height="7.11"/><rect class="cls-3" x="424.27" y="287.67" width="4.06" height="7.11"/><rect class="cls-8" x="431.09" y="252.96" width="4.06" height="7.11"/><rect class="cls-8" x="431.09" y="305.94" width="4.06" height="7.11"/><rect class="cls-8" x="424.27" y="315.08" width="4.06" height="7.11"/><rect class="cls-3" x="431.09" y="315.08" width="4.06" height="7.11"/><rect class="cls-2" x="417.33" y="324.22" width="4.06" height="7.11"/><rect class="cls-8" x="431.09" y="333.36" width="4.06" height="7.11"/><g class="cls-1"><rect class="cls-10" x="130.92" y="189.48" width="7.47" height="2.66"/><rect class="cls-10" x="129.97" y="191.56" width="9.38" height="1.16"/><rect class="cls-11" x="127.62" y="192.72" width="14.06" height="19.34"/><polygon class="cls-3" points="81.26 358.15 81.26 209.38 86.76 219.14 101.78 219.14 101.78 179.84 102.36 179.84 102.36 219.14 105.43 219.14 105.43 192.72 121.98 192.72 121.98 219.14 124.75 219.14 124.75 259.87 127.86 259.87 127.86 358.15 81.26 358.15"/><rect class="cls-12" x="108.8" y="226.04" width="19.11" height="132.11"/><rect class="cls-13" x="112.1" y="224.19" width="1.57" height="84.13" transform="translate(225.76 532.51) rotate(180)"/><rect class="cls-13" x="115.58" y="224.19" width="1.57" height="84.13" transform="translate(232.74 532.51) rotate(180)"/><rect class="cls-13" x="119.07" y="224.19" width="1.57" height="84.13" transform="translate(239.71 532.51) rotate(180)"/><rect class="cls-13" x="122.56" y="224.19" width="1.57" height="84.13" transform="translate(246.69 532.51) rotate(180)"/><rect class="cls-4" x="110.33" y="132.31" width="34.42" height="225.85" transform="translate(255.08 490.46) rotate(180)"/><rect class="cls-11" x="113.04" y="126.18" width="13.63" height="20.93" transform="translate(239.71 273.28) rotate(180)"/><polygon class="cls-10" points="64.54 295.46 85.37 295.46 85.37 215.58 64.54 295.46"/><rect class="cls-4" x="55.61" y="125.43" width="25.59" height="124.55" transform="translate(136.8 375.4) rotate(180)"/><polygon class="cls-8" points="75.57 130.07 81.2 125.42 55.61 125.42 75.57 130.07"/><rect class="cls-5" x="83.21" y="205" width="11.88" height="1.32" transform="translate(178.31 411.32) rotate(180)"/><polygon class="cls-2" points="33.53 358.15 33.53 124.99 41.27 124.99 41.27 159.87 45.23 159.87 45.23 146.42 52.66 146.42 52.66 134.55 56.62 134.55 56.62 146.42 75.51 146.42 75.51 206.86 86.93 206.86 86.93 248.29 97.67 248.29 97.67 285.19 101.25 285.19 101.25 207.77 105.38 174.69 120.02 175.24 122.86 197.21 122.86 358.15 33.53 358.15"/><rect class="cls-4" x="47.54" y="159.92" width="2.41" height="197.12"/><rect class="cls-4" x="52.89" y="159.92" width="2.41" height="197.12"/><rect class="cls-4" x="58.23" y="259.06" width="2.41" height="97.98"/><rect class="cls-4" x="63.58" y="259.06" width="2.41" height="97.98"/><rect class="cls-7" x="104.8" y="161.02" width="11.04" height="15.66" transform="translate(220.65 337.7) rotate(180)"/><rect class="cls-4" x="55.89" y="254.44" width="16.12" height="103.71"/><rect class="cls-3" x="132.89" y="99.92" width="29.22" height="258.23"/><rect class="cls-6" x="170.82" y="80.67" width="38.08" height="4.47" transform="translate(379.72 165.8) rotate(180)"/><rect class="cls-6" x="170.82" y="88.83" width="38.08" height="4.47" transform="translate(379.72 182.14) rotate(180)"/><rect class="cls-6" x="170.82" y="97" width="38.08" height="4.47" transform="translate(379.72 198.48) rotate(180)"/><rect class="cls-6" x="170.82" y="105.17" width="38.08" height="4.47" transform="translate(379.72 214.82) rotate(180)"/><rect class="cls-6" x="170.82" y="113.34" width="38.08" height="4.47" transform="translate(379.72 231.15) rotate(180)"/><rect class="cls-6" x="170.82" y="121.51" width="38.08" height="4.47" transform="translate(379.72 247.49) rotate(180)"/><rect class="cls-6" x="170.82" y="129.68" width="38.08" height="4.47" transform="translate(379.72 263.83) rotate(180)"/><rect class="cls-6" x="170.82" y="137.85" width="38.08" height="4.47" transform="translate(379.72 280.17) rotate(180)"/><rect class="cls-6" x="170.82" y="146.02" width="38.08" height="4.47" transform="translate(379.72 296.5) rotate(180)"/><polygon class="cls-6" points="137.03 358.15 205.18 358.15 205.82 75.24 137.03 65.73 137.03 358.15"/><polygon class="cls-18" points="137.03 358.15 150.86 358.15 151.65 74.62 137.03 65.73 137.03 358.15"/><polygon class="cls-8" points="151.65 74.62 205.82 75.24 137.03 65.73 151.65 74.62"/><polygon class="cls-3" points="161.9 358.15 161.9 163.76 189.92 163.76 205 184.59 205 358.15 161.9 358.15"/><polygon class="cls-7" points="205 184.59 189.92 163.76 161.9 163.76 205 184.59"/><rect class="cls-19" x="179.6" y="217.15" width="2.06" height="141"/><rect class="cls-19" x="184.18" y="217.15" width="2.06" height="141"/><rect class="cls-19" x="188.76" y="217.15" width="2.06" height="141"/><rect class="cls-19" x="193.34" y="217.15" width="2.06" height="141"/><rect class="cls-2" x="154.03" y="221.98" width="16.78" height="136.17" transform="translate(324.84 580.13) rotate(180)"/><rect class="cls-2" x="204.17" y="183.39" width="12.66" height="174.76" transform="translate(421 541.54) rotate(180)"/><rect class="cls-8" x="125.22" y="320.96" width="2.66" height="7.28" transform="translate(253.11 649.2) rotate(180)"/><rect class="cls-3" x="120.75" y="320.27" width="2.66" height="7.28" transform="translate(244.16 647.81) rotate(180)"/><rect class="cls-8" x="129.77" y="311.61" width="2.66" height="7.28" transform="translate(262.2 630.49) rotate(180)"/><rect class="cls-2" x="125.22" y="302.25" width="2.66" height="7.28" transform="translate(253.11 611.78) rotate(180)"/><rect class="cls-3" x="125.22" y="292.9" width="2.66" height="7.28" transform="translate(253.11 593.07) rotate(180)"/><rect class="cls-8" x="120.75" y="292.9" width="2.66" height="7.28" transform="translate(244.16 593.07) rotate(180)"/><rect class="cls-8" x="129.77" y="274.19" width="2.66" height="7.28" transform="translate(262.2 555.65) rotate(180)"/><rect class="cls-8" x="120.75" y="274.19" width="2.66" height="7.28" transform="translate(244.16 555.65) rotate(180)"/><rect class="cls-8" x="125.22" y="228.48" width="2.66" height="7.28" transform="translate(253.11 464.23) rotate(180)"/><rect class="cls-3" x="120.75" y="227.78" width="2.66" height="7.28" transform="translate(244.16 462.84) rotate(180)"/><rect class="cls-8" x="129.77" y="219.12" width="2.66" height="7.28" transform="translate(262.2 445.52) rotate(180)"/><rect class="cls-2" x="125.22" y="209.77" width="2.66" height="7.28" transform="translate(253.11 426.81) rotate(180)"/><rect class="cls-3" x="125.22" y="200.41" width="2.66" height="7.28" transform="translate(253.11 408.1) rotate(180)"/><rect class="cls-8" x="120.75" y="200.41" width="2.66" height="7.28" transform="translate(244.16 408.1) rotate(180)"/><rect class="cls-8" x="129.77" y="181.7" width="2.66" height="7.28" transform="translate(262.2 370.68) rotate(180)"/><rect class="cls-8" x="120.75" y="181.7" width="2.66" height="7.28" transform="translate(244.16 370.68) rotate(180)"/><rect class="cls-8" x="125.22" y="264.83" width="2.66" height="7.28" transform="translate(253.11 536.94) rotate(180)"/><rect class="cls-3" x="120.75" y="264.83" width="2.66" height="7.28" transform="translate(244.16 536.94) rotate(180)"/><rect class="cls-2" x="129.77" y="255.48" width="2.66" height="7.28" transform="translate(262.2 518.23) rotate(180)"/><rect class="cls-2" x="125.22" y="246.12" width="2.66" height="7.28" transform="translate(253.11 499.52) rotate(180)"/><rect class="cls-8" x="120.75" y="246.12" width="2.66" height="7.28" transform="translate(244.16 499.52) rotate(180)"/></g><path class="cls-20" d="M230.44,314.88h77.38c1.2,34.35,36.45,42.43,36.45,42.43H265S231.64,349.23,230.44,314.88Z"/><path class="cls-21" d="M238.29,314.88h95.6c1.2,34.35,36.45,42.43,36.45,42.43H280.09S239.48,349.23,238.29,314.88Z"/><path class="cls-20" d="M135.32,322.09H437c4.69,0,14-4.37,13.77-9.77L434.15,60.76c-.24-5.4-4.23-9.77-8.92-9.77H126.58c-4.69,0-11.27,5.89-11,11.29l10.86,250C126.63,317.72,130.62,322.09,135.32,322.09Z"/><path class="cls-20" d="M139.48,320.57h303.6c4.69,0,8.31-4.37,8.07-9.77l-10.85-250c-.23-5.4-4.23-9.77-8.92-9.77H127.78c-4.69,0-8.31,4.37-8.07,9.77l10.85,250C130.79,316.2,134.79,320.57,139.48,320.57Z"/><path class="cls-22" d="M139.48,320.57h303.6c4.69,0,8.31-4.37,8.07-9.77l-1.79-41.19H128.77l1.79,41.19C130.79,316.2,134.79,320.57,139.48,320.57Z"/><polygon class="cls-23" points="437.71 257.79 429.29 63.8 130.98 63.8 139.4 257.79 437.71 257.79"/><path class="cls-24" d="M80.48,324.36s2.91-41.59-3.78-51.14c-5.67-8.08-1.74-20.16-.4-23.68a2.31,2.31,0,0,0-.12-1.89c-1.43-2.58-5.11-10.2-3.08-16.77A21.31,21.31,0,0,1,80.83,220a2.16,2.16,0,0,0,.8-2c-.86-5.93-2.87-29.29,17.19-34.63a1.68,1.68,0,0,1,1.9,1,44.88,44.88,0,0,1,4.43,16c.84,8.44-2.56,15.85-4.24,18.93a2.24,2.24,0,0,0,.31,2.6c2,2.09,5.82,7,4.06,13.82a45.13,45.13,0,0,1-4.74,12.12,2.27,2.27,0,0,0-.24,1.77c.8,3,2.86,12.56-.28,21.62-3.8,11-18.2,54.16-17.23,74.31C82.79,345.45,81.65,340.34,80.48,324.36Z"/><path class="cls-25" d="M96.32,193.38S85.63,225.47,80.52,319.7"/><path class="cls-26" d="M83.24,311.64s-2.41-33.53,3.25-43.7c4.79-8.61-.4-20.25-2.09-23.6a2.25,2.25,0,0,1-.07-1.9c1.15-2.72,4-10.65,1.3-17a21.44,21.44,0,0,0-8.84-10,2.12,2.12,0,0,1-1-1.92c.23-5.93-.18-29.42-20.71-32.76a1.73,1.73,0,0,0-1.84,1.19,44.75,44.75,0,0,0-2.7,16.28c0,8.49,4.22,15.54,6.21,18.42a2.25,2.25,0,0,1-.07,2.63c-1.82,2.3-5,7.58-2.57,14.13a45.49,45.49,0,0,0,6,11.61,2.22,2.22,0,0,1,.41,1.69c-.49,3.08-1.54,12.78,2.54,21.5,4.93,10.52,15,50.07,16.11,70.22C79.18,338.42,83.75,327.66,83.24,311.64Z"/><path class="cls-27" d="M64.1,245c-12.41-22.35-28.43-26.71-33.54-27.54a1.82,1.82,0,0,0-2,1.74,15,15,0,0,0,5.59,13.52l6.1,5a2.24,2.24,0,0,1,.2,3.1c-2.09,2.47-4.53,7.72,3.32,14.71C51,262,55,266.1,57,268.21a2.24,2.24,0,0,1,0,3c-2.26,2.26-5.53,7.13,0,13,7.63,8.15,20.58,41.64,22.05,56.25C79,340.51,79.07,272,64.1,245Z"/><path class="cls-27" d="M97.09,226.6c12.41-22.35,28.43-26.71,33.54-27.55a1.83,1.83,0,0,1,2,1.74,15,15,0,0,1-5.59,13.52l-6.1,5a2.25,2.25,0,0,0-.21,3.1c2.09,2.47,4.53,7.73-3.32,14.72-7.18,6.39-11.27,10.51-13.26,12.61a2.26,2.26,0,0,0,0,3.05c2.25,2.25,5.52,7.12,0,13-7.63,8.16-20.58,41.64-22,56.26C82.18,322.07,82.13,253.55,97.09,226.6Z"/><path class="cls-26" d="M82.57,319.7c7.5-20.43,10.23-37.16,20.32-56.67,6-11.55,12.81-33.87,33-47.13,1.21-.79,2.72.26,2.67,1.86-.16,6.42-1.12,19.85-6.08,25.65-2.63,3.09-4.25,4.9-5.23,6a2.26,2.26,0,0,0,0,2.94c2.09,2.4,4.79,7.76-2.87,15.11-7,6.69-11.16,10.5-13.22,12.32a2.26,2.26,0,0,0-.29,2.9c1.73,2.5,4,7.66-2.07,12.71-12.44,10.39-23,27.26-29.75,44.81Z"/><path class="cls-25" d="M80.52,335.35c4-85.5-22.67-145.54-22.67-145.54"/><path class="cls-25" d="M133.57,223.62S90.75,285,81.31,333.77"/><path class="cls-25" d="M94.25,357.05H71.33c-5.07,0-9.35-4.31-10-10.09l-5.13-44.13h53.25L104.28,347C103.61,352.74,99.32,357.05,94.25,357.05Z"/><path class="cls-20" d="M59.78,333.84,61.3,347c.68,5.78,5,10.09,10,10.09H94.25c5.07,0,9.36-4.31,10-10.09l1.53-13.12Z"/><rect class="cls-25" x="52.79" y="292.26" width="60.2" height="10.17"/><rect class="cls-28" x="200.55" y="119.62" width="178.9" height="31.43" rx="3.38"/><path class="cls-29" d="M414.21,173.27a10.22,10.22,0,0,1-2.73,1.44c-9,3.24-22.75-5.77-31.89-21.59s-11-33.92-5-42.16a11.72,11.72,0,0,1,2.21-2.34c8.64-6.59,24.49,2.63,34.62,20.16S422.85,166.67,414.21,173.27Z"/><path class="cls-30" d="M435,196.09c-2-3.32-3.5-2.7-4.66-3.12s-3.51,1.61-4,3.6-.82,2-.61,3.54,3.78,1.35,5.44,1.26a44.34,44.34,0,0,1,6.81,1.07l4.89-6.29Z"/><path class="cls-30" d="M437.17,195.16c-1.43-3-2.62-1.79-4.41-1a30.8,30.8,0,0,0-4.28,2.52s-.4,1.85.79,2.32,4.54-1.2,5.18,1.19,8.48-4,8.48-4Z"/><path class="cls-31" d="M489.09,155.07c-5.25-.72-8.66,2.77-11.46,18.08a81.81,81.81,0,0,1-7,21.13l-32.23.63-2.08,7.42s32,7,38.88,6c9.43-1.46,14.34-20,19-34.45C497.5,163.63,496.23,156,489.09,155.07Z"/><path class="cls-30" d="M452.5,139.41c1.2,3.26,2,6.37,3.16,8.37s.36,6-.07,7.78,3,1.41,3,1.41a29.47,29.47,0,0,1,4.6,5.81c1.11,1.74,4-.47,6-1.22s2.8-3.45,5.13-7.22,2.95-10,2.95-10l-3-12.81-13-1.25Z"/><path class="cls-32" d="M453.29,141.67c-3.82.91-10.11-7.9-1-11.3,4.14-1.55,12.81-8.9,17.07-6.72a8.39,8.39,0,0,1,4.71,5.95s2.43-.95,4.88,4.72-.83,17.59-.36,20.81l-5.91-5.49s2.79-4,1.48-7.39-5.89-3.37-5.62.19-1.4,4.24-1.4,4.24-2.68-2.92-2.13-5.2c1-4.26-5.18-8.39-6.5-5.68S456.67,140.87,453.29,141.67Z"/><path class="cls-30" d="M484.5,152.72a4,4,0,0,1-1.11,0c-1.53-.44-11.06-4-11.06-4l-1.81,12.37s12.91,10.78,17.48,13.41C486.6,167.3,485.39,160.06,484.5,152.72Z"/><polygon class="cls-33" points="482.4 151.09 477.69 171.22 481.93 174.46 486.95 152.01 482.4 151.09"/><path class="cls-33" d="M487,152l7.28-.15c7-.13,20.61,6.33,28.5,13.29,12.65,11.14,25.94,40.78,25.94,40.78a41.44,41.44,0,0,1-13.18,9,67,67,0,0,1-16.41,4.33s-12.93-22.78-23.15-25.37-16.5-11.11-16.5-11.11Z"/><path class="cls-31" d="M548.67,205.93c3.6,10.78,2.85,24.41,0,34.18a339.41,339.41,0,0,0-9.34,40.57c-1.46,9.44,6.85,36.34,15.9,58.61l-9.83,6.15s-26.61-45.73-26.61-59.26.31-67,.31-67Z"/><polygon class="cls-31" points="555.22 339.29 560.57 350.94 548.07 359.26 542.62 359.26 549.28 349.44 546.72 343.9 555.22 339.29"/><path class="cls-33" d="M547.78,207.48c3.61,10.79,2.41,24.26,0,34.18S523,280.25,521.7,288.15c-2.62,16.23-13,55.22-13,55.22H497.45s6-43.66,6-57.19,14.74-65.4,14.74-65.4Z"/><polygon class="cls-33" points="508.69 343.37 507.36 358.1 490.37 358.4 497.77 351.99 500.13 343.37 508.69 343.37"/><polygon class="cls-33" points="422.9 186.81 418.85 190.69 408.76 176.61 412.82 172.73 422.9 186.81"/><path class="cls-34" d="M447,220.77l-3.9,3.73a1.58,1.58,0,0,1-2.44-.26l-24.42-34.16a2.19,2.19,0,0,1,.22-2.81l3.89-3.73a1.59,1.59,0,0,1,2.45.25L447.26,218A2.19,2.19,0,0,1,447,220.77Z"/><path class="cls-34" d="M413.73,127c-11.71-20.26-30-29.94-40.93-21.61s-10.23,31.49,1.48,51.75,30,29.93,40.93,21.61S425.44,147.3,413.73,127Zm.48,46.23a10.22,10.22,0,0,1-2.73,1.44c-9,3.24-22.75-5.77-31.89-21.59s-11-33.92-5-42.16a11.72,11.72,0,0,1,2.21-2.34c8.64-6.59,24.49,2.63,34.62,20.16S422.85,166.67,414.21,173.27Z"/><path class="cls-33" d="M411.45,128.78c-10.13-17.53-26-26.75-34.62-20.16a11.72,11.72,0,0,0-2.21,2.34c8.95-3.23,22.74,5.78,31.89,21.6s11,33.92,5,42.15a10.22,10.22,0,0,0,2.73-1.44C422.85,166.67,421.58,146.3,411.45,128.78Z"/><path class="cls-33" d="M374.28,157.18c-11.71-20.26-12.38-43.43-1.48-51.75l-5.46,4.16c-10.89,8.32-10.22,31.49,1.49,51.75s30,29.94,40.93,21.61l5.45-4.16C404.32,187.11,386,177.44,374.28,157.18Z"/><path class="cls-30" d="M443.36,206.05s-8.77-1.92-10.75-1.4-7.38,4.46-7.38,4.46l.81.55,1.93-.15-1.46,1.21,1.15,1.12,1.39-.46,1.84-.09-2.43,1.23,1.17.82,2.72-.37-1.77,1,.72,1.05,6.42-2.58,4-1.92,4.72,1.07Z"/><path class="cls-33" d="M488.21,156.61c-5-1.91-8.67,2.53-8.49,18.17a174.9,174.9,0,0,1-1.57,25.05l-34.79,6.22-.77,7.74s34.73.22,41.58,1.12,8.4-23.5,9.47-34.32S495,159.22,488.21,156.61Z"/><rect class="cls-35" x="209.37" y="168.11" width="60.68" height="4.6"/><rect class="cls-26" x="200.5" y="168.11" width="4.04" height="4.6"/><rect class="cls-26" x="200.5" y="177.85" width="4.04" height="4.6"/><rect class="cls-26" x="200.5" y="187.6" width="4.04" height="4.6"/><rect class="cls-35" x="209.37" y="177.85" width="51.34" height="4.6"/><rect class="cls-35" x="209.37" y="187.6" width="75.35" height="4.6"/><rect class="cls-35" x="209.37" y="197.34" width="68.68" height="4.6"/><rect class="cls-26" x="238.08" y="217.95" width="28.95" height="2.3"/><rect class="cls-34" x="268.79" y="94.57" width="48.12" height="11.1"/><rect class="cls-26" x="324.57" y="215.66" width="19.34" height="4.6"/><rect class="cls-26" x="353.91" y="215.66" width="48.01" height="4.6"/><line class="cls-28" y1="357.78" x2="659.66" y2="357.78"/></g></g></g></svg>